<svg width="29" height="29" viewBox="0 0 29 29" fill="none" xmlns="http://www.w3.org/2000/svg">
<path d="M16.816 27.4895H3.625C3.12958 27.4895 2.71875 27.0787 2.71875 26.5833C2.71875 26.0878 3.12958 25.677 3.625 25.677H16.816C17.3114 25.677 17.7222 26.0878 17.7222 26.5833C17.7222 27.0787 17.3114 27.4895 16.816 27.4895Z" fill="#FD688C"/>
<path d="M6.76667 10.1257H4.83333C4.16875 10.1257 3.625 10.6695 3.625 11.3341V21.7499C3.625 22.4145 4.16875 22.9582 4.83333 22.9582H6.76667C7.43125 22.9582 7.975 22.4145 7.975 21.7499V11.3341C7.975 10.6574 7.43125 10.1257 6.76667 10.1257Z" fill="#FD688C"/>
<path d="M15.4666 6.27124H13.5333C12.8687 6.27124 12.325 6.81499 12.325 7.47957V21.75C12.325 22.4146 12.8687 22.9583 13.5333 22.9583H15.4666C16.1312 22.9583 16.675 22.4146 16.675 21.75V7.47957C16.675 6.81499 16.1312 6.27124 15.4666 6.27124Z" fill="#FD688C"/>
<path opacity="0.2" d="M24.1667 2.41675H22.2334C21.5688 2.41675 21.025 2.9605 21.025 3.62508V21.7501C21.025 22.4147 21.5688 22.9584 22.2334 22.9584H24.1667C24.8313 22.9584 25.375 22.4147 25.375 21.7501V3.62508C25.375 2.9605 24.8313 2.41675 24.1667 2.41675Z" fill="white"/>
</svg>
