<svg width="83" height="84" viewBox="0 0 83 84" fill="none" xmlns="http://www.w3.org/2000/svg">
<g clip-path="url(#clip0_87_2660)">
<path d="M70.8769 71.4656C87.0921 55.2505 87.0921 28.9605 70.8769 12.7453C54.6617 -3.46989 28.3717 -3.46989 12.1566 12.7453C-4.05861 28.9605 -4.05861 55.2505 12.1566 71.4656C28.3717 87.6808 54.6617 87.6808 70.8769 71.4656Z" fill="#1F1935"/>
<path d="M41.5216 1.96348C63.6405 1.96348 81.6634 19.9432 81.6634 42.1053C81.6634 64.2674 63.6836 82.2471 41.5216 82.2471C19.3595 82.2471 1.37974 64.2243 1.37974 42.1053C1.37974 19.9863 19.4026 1.96348 41.5216 1.96348ZM41.5216 0.58374C18.5834 0.58374 0 19.1671 0 42.1053C0 65.0435 18.5834 83.6269 41.5216 83.6269C64.4597 83.6269 83.0431 65.0435 83.0431 42.1053C83.0431 19.1671 64.4166 0.58374 41.5216 0.58374Z" fill="#0095FF"/>
<path d="M67.8281 68.4168C82.3595 53.8855 82.3595 30.3255 67.8281 15.7941C53.2967 1.26276 29.7368 1.26276 15.2054 15.7941C0.674037 30.3255 0.674037 53.8855 15.2054 68.4168C29.7368 82.9482 53.2967 82.9482 67.8281 68.4168Z" stroke="#0095FF" stroke-width="0.45" stroke-miterlimit="10"/>
<path d="M41.5215 73.6668C58.9525 73.6668 73.0831 59.5362 73.0831 42.1053C73.0831 24.6743 58.9525 10.5437 41.5215 10.5437C24.0906 10.5437 9.95996 24.6743 9.95996 42.1053C9.95996 59.5362 24.0906 73.6668 41.5215 73.6668Z" stroke="#0095FF" stroke-width="0.2" stroke-miterlimit="10"/>
<path d="M75.4115 46.2878C75.584 44.9081 75.6702 43.5283 75.6702 42.1055H80.1112C80.1112 43.6577 80.025 45.253 79.8094 46.8052L75.4115 46.2878Z" fill="#00497D"/>
<path d="M75.1097 48.1417L75.2391 47.5381L79.5939 48.2711L79.5077 48.9178L75.1097 48.1417Z" fill="#00497D"/>
<path d="M74.5923 50.6856L74.8941 49.3059L79.2489 50.2545L78.8609 51.7636L74.5923 50.6856Z" fill="#00497D"/>
<path d="M69.8926 61.077L70.6256 59.9128L74.4198 62.2412L73.5575 63.5778L69.8926 61.077Z" fill="#00497D"/>
<path d="M68.4697 63.017L68.9009 62.4996L69.3321 61.896L72.9108 64.483L72.4796 65.1298L72.0053 65.7765L68.4697 63.017Z" fill="#00497D"/>
<path d="M74.118 52.3242C74.118 52.3242 74.2043 52.0224 74.2474 51.8931L78.516 53.1435C78.516 53.1435 78.4297 53.4884 78.3866 53.6609L74.1612 52.3242H74.118Z" fill="#00497D"/>
<path d="M62.1747 69.269L62.649 68.9241L65.4085 72.3734L64.8479 72.8046L62.1747 69.269Z" fill="#00497D"/>
<path d="M60.0619 70.7783L60.6224 70.3903L61.226 70.0022L63.7699 73.624L63.1232 74.0552L62.4764 74.4864L60.0619 70.7783Z" fill="#00497D"/>
<path d="M58.5959 71.6837L58.984 71.425L61.2692 75.2625L60.7949 75.5212L58.5959 71.6837Z" fill="#00497D"/>
<path d="M71.2292 58.878C72.1778 57.1533 73.0402 55.3855 73.6869 53.5315L77.8692 54.9975C77.1363 57.1102 76.1877 59.1367 75.1098 61.077L71.2292 58.878Z" fill="#00497D"/>
<path d="M63.5112 68.1911C65.0203 66.9407 66.4001 65.5179 67.6936 64.0088L71.0998 66.8545C69.6769 68.5792 68.0816 70.1314 66.4001 71.5974L63.5543 68.1911H63.5112Z" fill="#00497D"/>
<path d="M54.8447 73.5378C56.1382 72.9773 57.3886 72.3736 58.5959 71.6406L60.838 75.478C59.5013 76.2973 58.0354 76.944 56.6125 77.5908L54.8878 73.4947L54.8447 73.5378Z" fill="#00497D"/>
<path d="M53.0769 74.2275C53.0769 74.2275 53.465 74.0982 53.6374 74.012L55.2327 78.1512C55.2327 78.1512 54.8016 78.3236 54.586 78.4099L53.0769 74.2275Z" fill="#00497D"/>
<path d="M50.6193 75.0038C51.0504 74.8744 51.5247 74.7451 51.9559 74.6157L53.2925 78.8412C52.8182 79.0137 52.3008 79.143 51.7834 79.2724L50.6193 75.0038V75.0038Z" fill="#00497D"/>
<path d="M39.2364 76.1679C39.7107 76.211 40.185 76.211 40.6161 76.211L40.4868 80.652C39.9694 80.652 39.452 80.652 38.9346 80.5658L39.2364 76.1248V76.1679Z" fill="#00497D"/>
<path d="M36.865 75.9092C37.3393 75.9523 37.7704 76.0385 38.2447 76.0817L37.8136 80.5227C37.2962 80.5227 36.7788 80.3933 36.2614 80.3502L36.865 75.9523V75.9092Z" fill="#00497D"/>
<path d="M48.9376 75.435L49.4119 75.3057L50.4036 79.6605L49.8862 79.7467L48.9376 75.435Z" fill="#00497D"/>
<path d="M28.2847 73.5808L28.8453 73.7964L27.2068 77.9356L26.5601 77.6769L28.2847 73.5808Z" fill="#00497D"/>
<path d="M25.9564 72.5029C26.3876 72.7185 26.7756 72.9341 27.2068 73.1066L25.3528 77.1596C24.8785 76.944 24.4042 76.7284 23.9299 76.4697L25.9564 72.5029Z" fill="#00497D"/>
<path d="M24.4473 71.6838L24.8353 71.8994L22.6795 75.7799L22.2052 75.5212L24.4473 71.6838Z" fill="#00497D"/>
<path d="M41.8234 76.2541C43.8067 76.2541 45.747 76.0385 47.6873 75.6936L48.5065 80.0484C46.3075 80.4365 44.1086 80.6952 41.8665 80.6952V76.2541H41.8234Z" fill="#00497D"/>
<path d="M29.9232 74.2277C31.7772 74.9176 33.6744 75.3918 35.6146 75.7368L34.8385 80.0916C32.6395 79.7035 30.4837 79.143 28.371 78.3669L29.8801 74.1846L29.9232 74.2277Z" fill="#00497D"/>
<path d="M20.9549 69.3555C22.0759 70.1747 23.2401 70.9939 24.4473 71.6407L22.2053 75.4781C20.8255 74.702 19.532 73.7965 18.2816 72.891L20.9549 69.3555Z" fill="#00497D"/>
<path d="M19.4889 68.1912C19.4889 68.1912 19.7907 68.4499 19.9632 68.5792L17.1606 72.0286C17.1606 72.0286 16.8157 71.7268 16.6432 71.5974L19.532 68.1912H19.4889Z" fill="#00497D"/>
<path d="M17.5486 66.4233L18.5834 67.3719L15.5653 70.6919L14.4442 69.614L17.5486 66.4233Z" fill="#00497D"/>
<path d="M10.8655 57.1533L11.5122 58.4037L7.58858 60.5164L6.85559 59.1367L10.8655 57.1533Z" fill="#00497D"/>
<path d="M9.87384 54.9973C10.0463 55.4285 10.2619 55.8597 10.4344 56.2908L6.38137 58.1449C6.16579 57.6706 5.9502 57.1963 5.73462 56.6789L9.83072 54.9973H9.87384Z" fill="#00497D"/>
<path d="M16.3413 65.1731L16.6862 65.518L13.4525 68.5794L13.1075 68.1913L16.3413 65.1731Z" fill="#00497D"/>
<path d="M7.63169 46.4172L7.71792 46.9778L3.32 47.6245L3.23376 46.9346L7.63169 46.4172Z" fill="#00497D"/>
<path d="M7.41614 43.8301L7.50237 45.2098L3.10445 45.5979L2.9751 44.0457L7.41614 43.8301Z" fill="#00497D"/>
<path d="M7.37305 42.1055V42.5798L2.93201 42.6229V42.1055H7.37305Z" fill="#00497D"/>
<path d="M12.0727 59.4385C13.0644 61.12 14.2286 62.7585 15.5221 64.2244L12.159 67.1133C10.7361 65.4317 9.39948 63.6208 8.27844 61.6806L12.1158 59.4385H12.0727Z" fill="#00497D"/>
<path d="M7.89048 48.0988C8.23541 50.039 8.75281 51.9362 9.39957 53.7902L5.21723 55.2993C4.44113 53.1866 3.88061 51.0307 3.49255 48.8318L7.84736 48.0557L7.89048 48.0988Z" fill="#00497D"/>
<path d="M7.63175 37.9232C7.45928 39.3029 7.37305 40.6826 7.37305 42.1055H2.93201C2.93201 40.5102 3.01824 38.958 3.23382 37.4058L7.63175 37.9232Z" fill="#00497D"/>
<path d="M7.89041 36.0261L7.80417 36.6297L3.40625 35.9399L3.5356 35.25L7.89041 36.0261Z" fill="#00497D"/>
<path d="M8.45094 33.5253L8.14912 34.862L3.79431 33.9565L4.13925 32.4043L8.45094 33.5253Z" fill="#00497D"/>
<path d="M13.1507 23.091L12.3746 24.2551L8.58032 21.9268L9.44266 20.6333L13.1507 23.091Z" fill="#00497D"/>
<path d="M14.5304 21.1507L14.0992 21.7112L13.7112 22.2717L10.0894 19.6847L10.5636 19.038L11.0379 18.4343L14.5304 21.1507Z" fill="#00497D"/>
<path d="M8.92527 31.8437C8.92527 31.8437 8.83903 32.1455 8.79591 32.2749L4.52734 31.0245C4.52734 31.0245 4.61358 30.6795 4.65669 30.5071L8.88215 31.8437H8.92527Z" fill="#00497D"/>
<path d="M20.8255 14.8989L20.3944 15.2869L17.6349 11.7944L18.1523 11.3633L20.8255 14.8989Z" fill="#00497D"/>
<path d="M22.9814 13.4328L22.3778 13.8209L21.8172 14.2089L19.2302 10.5871L19.877 10.1128L20.5668 9.68164L22.9814 13.4328Z" fill="#00497D"/>
<path d="M24.4473 12.5273L24.0161 12.7429L21.774 8.94864L22.2052 8.68994L24.4473 12.5273Z" fill="#00497D"/>
<path d="M11.771 25.29C10.8224 27.0147 9.96007 28.7825 9.31332 30.6365L5.13098 29.1705C5.86397 27.0578 6.81254 25.0313 7.89046 23.0911L11.771 25.29Z" fill="#00497D"/>
<path d="M19.4888 15.9768C17.9798 17.2272 16.6 18.65 15.3065 20.1591L11.9003 17.3134C13.3231 15.5887 14.9185 14.0365 16.6 12.5706L19.4457 15.9768H19.4888Z" fill="#00497D"/>
<path d="M28.1554 10.6301C26.8619 11.1907 25.6115 11.7943 24.4042 12.5273L22.1621 8.68988C23.4987 7.87065 24.9647 7.2239 26.3876 6.57715L28.1122 10.6733L28.1554 10.6301Z" fill="#00497D"/>
<path d="M29.9232 9.94039C29.9232 9.94039 29.5351 10.0697 29.3627 10.156L27.7673 6.01676C27.7673 6.01676 28.1985 5.84429 28.4141 5.75806L29.9232 9.94039Z" fill="#00497D"/>
<path d="M32.424 9.16408C31.9928 9.29343 31.5185 9.42278 31.0874 9.55213L29.7507 5.32668C30.225 5.15421 30.7424 5.02486 31.2598 4.89551L32.424 9.16408Z" fill="#00497D"/>
<path d="M43.7636 8.04324C43.2894 8.00012 42.8151 8.00012 42.3839 8.00012L42.5133 3.55908C43.0307 3.55908 43.5481 3.55908 44.0655 3.64532L43.7636 8.08635V8.04324Z" fill="#00497D"/>
<path d="M46.1782 8.25877C45.7039 8.21565 45.2727 8.12942 44.7985 8.0863L45.2296 3.64526C45.747 3.64526 46.2644 3.77461 46.7818 3.81773L46.1782 8.21565V8.25877Z" fill="#00497D"/>
<path d="M34.0624 8.77619L33.6312 8.86243L32.5964 4.55074L33.1138 4.42139L34.0624 8.77619Z" fill="#00497D"/>
<path d="M54.7153 10.587L54.1548 10.3714L55.7932 6.23218L56.44 6.49088L54.7153 10.587Z" fill="#00497D"/>
<path d="M57.0436 11.708C56.6124 11.4924 56.2244 11.2768 55.7932 11.1044L57.6472 7.09448C58.1215 7.31007 58.5958 7.52565 59.0701 7.78435L57.0436 11.7511V11.708Z" fill="#00497D"/>
<path d="M58.5958 12.5273L58.1647 12.2686L60.3636 8.43115L60.7948 8.68985L58.5958 12.5273Z" fill="#00497D"/>
<path d="M41.1766 7.95691C39.1933 7.95691 37.253 8.17249 35.3127 8.51743L34.4935 4.16262C36.6925 3.77457 38.8915 3.51587 41.1335 3.51587V7.95691H41.1766Z" fill="#00497D"/>
<path d="M53.12 9.98328C51.266 9.29341 49.3688 8.81913 47.4286 8.47419L48.2047 4.11938C50.4037 4.50744 52.5595 5.06796 54.6722 5.84406L53.1631 10.0264L53.12 9.98328Z" fill="#00497D"/>
<path d="M62.0884 14.8125C60.9674 13.9933 59.8032 13.1741 58.5959 12.5273L60.838 8.68994C62.2178 9.46605 63.5113 10.3715 64.7617 11.277L62.0884 14.8125V14.8125Z" fill="#00497D"/>
<path d="M63.5544 16.0198C63.5544 16.0198 63.2525 15.7611 63.0801 15.6317L65.8827 12.1824C65.8827 12.1824 66.2276 12.4842 66.4001 12.6135L63.5112 16.0198H63.5544Z" fill="#00497D"/>
<path d="M65.4515 17.7445L64.4598 16.7959L67.4349 13.519L68.5559 14.597L65.4515 17.7445Z" fill="#00497D"/>
<path d="M72.1778 27.0147L71.531 25.7643L75.4115 23.6516L76.1445 25.0745L72.1778 27.0147Z" fill="#00497D"/>
<path d="M73.1263 29.2137C72.9538 28.7825 72.7383 28.3514 72.5658 27.9202L76.6188 26.0662C76.8344 26.5404 77.0499 27.0147 77.2655 27.5321L73.1694 29.2137H73.1263Z" fill="#00497D"/>
<path d="M66.6588 18.995L66.3569 18.65L69.5476 15.6318L69.9356 15.9768L66.6588 18.995Z" fill="#00497D"/>
<path d="M75.3684 37.7938L75.3253 37.1902L79.6801 36.5435L79.7664 37.2333L75.3684 37.7938Z" fill="#00497D"/>
<path d="M75.6272 40.3807L75.4978 38.9579L79.9389 38.5698L80.0682 40.1651L75.6272 40.3807Z" fill="#00497D"/>
<path d="M75.6702 42.1055L75.6271 41.6313L80.0681 41.5881L80.1112 42.1055H75.6702Z" fill="#00497D"/>
<path d="M70.9274 24.7295C69.9357 23.0479 68.7715 21.4095 67.478 19.9435L70.8411 17.0547C72.264 18.7362 73.6006 20.5472 74.7217 22.4874L70.8843 24.7295H70.9274Z" fill="#00497D"/>
<path d="M75.1097 36.0692C74.7647 34.1289 74.2473 32.2318 73.6006 30.3777L77.7829 28.8687C78.559 30.9814 79.1195 33.1372 79.5076 35.3362L75.1528 36.1123L75.1097 36.0692Z" fill="#00497D"/>
<path d="M41.5216 54.1781L23.1538 44.6062L41.5216 13.1309L59.8463 44.6062L41.5216 54.1781Z" stroke="#0095FF" stroke-width="1.2" stroke-linejoin="round"/>
<path d="M41.5216 57.1962L23.1538 47.6243L41.5216 71.3817L59.8463 47.6243L41.5216 57.1962Z" stroke="#0095FF" stroke-width="1.2" stroke-linejoin="round"/>
<path d="M41.5216 13.0447V54.2213" stroke="#0095FF" stroke-width="1.2" stroke-miterlimit="10"/>
<path d="M23.1538 44.6062L41.5216 35.0774L59.8463 44.6062" stroke="#0095FF" stroke-width="1.2" stroke-miterlimit="10"/>
<path d="M41.5216 57.1963V71.3817" stroke="#0095FF" stroke-width="1.2" stroke-miterlimit="10"/>
<path style="mix-blend-mode:multiply" d="M70.8769 71.4656C87.0921 55.2505 87.0921 28.9605 70.8769 12.7453C54.6617 -3.46989 28.3717 -3.46989 12.1566 12.7453C-4.05861 28.9605 -4.05861 55.2505 12.1566 71.4656C28.3717 87.6808 54.6617 87.6808 70.8769 71.4656Z" fill="url(#paint0_radial_87_2660)"/>
<path style="mix-blend-mode:screen" d="M41.5216 1.96348C52.2577 1.96348 62.3039 6.14582 69.8925 13.7344C77.481 21.323 81.6634 31.3692 81.6634 42.1053C81.6634 52.8414 77.481 62.8876 69.8925 70.4762C62.3039 78.0648 52.2577 82.2471 41.5216 82.2471C30.7855 82.2471 20.7392 78.0648 13.1506 70.4762C5.56208 62.8876 1.37974 52.7983 1.37974 42.1053C1.37974 31.4123 5.56208 21.2798 13.1506 13.7344C20.6961 6.14582 30.7855 1.96348 41.5216 1.96348ZM41.5216 0.58374C18.5834 0.58374 0 19.1671 0 42.1053C0 65.0435 18.5834 83.6269 41.5216 83.6269C64.4597 83.6269 83.0431 65.0435 83.0431 42.1053C83.0431 19.1671 64.4166 0.58374 41.5216 0.58374Z" fill="url(#paint1_linear_87_2660)"/>
<path style="mix-blend-mode:screen" d="M70.8769 71.4656C87.0921 55.2505 87.0921 28.9605 70.8769 12.7453C54.6617 -3.46989 28.3717 -3.46988 12.1566 12.7453C-4.05861 28.9605 -4.05861 55.2505 12.1566 71.4656C28.3717 87.6808 54.6617 87.6808 70.8769 71.4656Z" fill="url(#paint2_linear_87_2660)"/>
</g>
<defs>
<radialGradient id="paint0_radial_87_2660" cx="0" cy="0" r="1" gradientUnits="userSpaceOnUse" gradientTransform="translate(124.427 42.5417) scale(65.0944)">
<stop offset="0.63" stop-color="#2A4255"/>
<stop offset="1" stop-color="white"/>
</radialGradient>
<linearGradient id="paint1_linear_87_2660" x1="50.4468" y1="2.13595" x2="32.8119" y2="81.1261" gradientUnits="userSpaceOnUse">
<stop stop-color="#1D75FE"/>
<stop offset="0.01" stop-color="#1259FE"/>
<stop offset="0.02" stop-color="#0A42FE"/>
<stop offset="0.03" stop-color="#0433FE"/>
<stop offset="0.04" stop-color="#0129FE"/>
<stop offset="0.06" stop-color="#0025F5"/>
<stop offset="0.07" stop-color="#001EC7"/>
<stop offset="0.08" stop-color="#00179C"/>
<stop offset="0.09" stop-color="#001277"/>
<stop offset="0.11" stop-color="#000D56"/>
<stop offset="0.12" stop-color="#00093B"/>
<stop offset="0.13" stop-color="#000525"/>
<stop offset="0.15" stop-color="#000314"/>
<stop offset="0.17" stop-color="#000108"/>
<stop offset="0.2" stop-color="#000001"/>
<stop offset="0.29"/>
</linearGradient>
<linearGradient id="paint2_linear_87_2660" x1="53.4998" y1="3.1675" x2="29.3112" y2="81.6833" gradientUnits="userSpaceOnUse">
<stop stop-color="#003B69"/>
<stop offset="0.04" stop-color="#003055"/>
<stop offset="0.1" stop-color="#00213B"/>
<stop offset="0.18" stop-color="#001525"/>
<stop offset="0.26" stop-color="#000B14"/>
<stop offset="0.37" stop-color="#000408"/>
<stop offset="0.52" stop-color="#000101"/>
<stop offset="0.94"/>
</linearGradient>
<clipPath id="clip0_87_2660">
<rect width="83" height="83" fill="white" transform="translate(0 0.58374)"/>
</clipPath>
</defs>
</svg>
