<?xml version="1.0" encoding="utf-8"?>
<!-- Generator: Adobe Illustrator 25.2.0, SVG Export Plug-In . SVG Version: 6.00 Build 0)  -->
<svg version="1.1" id="Layer_1" xmlns="http://www.w3.org/2000/svg" xmlns:xlink="http://www.w3.org/1999/xlink" x="0px" y="0px"
	 viewBox="0 0 226 226" style="enable-background:new 0 0 226 226;" xml:space="preserve">
<style type="text/css">
	.st0{fill:url(#SVGID_1_);}
	.st1{fill:#009CFF;}
	.st2{fill:#14172B;}
	.st3{fill:url(#SVGID_2_);}
	.st4{fill:#004775;}
</style>
<linearGradient id="SVGID_1_" gradientUnits="userSpaceOnUse" x1="37.576" y1="182.9708" x2="143.7134" y2="-26.428" gradientTransform="matrix(1 0 0 -1 0 228)">
	<stop  offset="0" style="stop-color:#0678B7"/>
	<stop  offset="1.000000e-02" style="stop-color:#0573B0"/>
	<stop  offset="9.000000e-02" style="stop-color:#035A8F"/>
	<stop  offset="0.16" style="stop-color:#024775"/>
	<stop  offset="0.24" style="stop-color:#003963"/>
	<stop  offset="0.32" style="stop-color:#003158"/>
	<stop  offset="0.41" style="stop-color:#002F55"/>
	<stop  offset="0.75" style="stop-color:#00162A"/>
</linearGradient>
<path class="st0" d="M170.2,211.5l-18.8,8.6c-22.1,10.2-51.2,4.7-78.1-18C29.8,165.6,7.9,97.8,24.5,50.9c6.4-18,17.4-30.2,31.2-36.5
	l18.8-8.6c-13.7,6.2-24.8,18.5-31.2,36.5C26.6,89.1,48.6,157,92.1,193.6C119.1,216.2,148.1,221.7,170.2,211.5z"/>
<path class="st1" d="M152.8,23.8c43.6,36.6,65.5,104.4,48.9,151.3C185,221.8,136,230.2,92.3,193.6C48.8,157,26.9,89.2,43.4,42.3
	C60.1-4.5,109.1-12.9,152.8,23.8z"/>
<path class="st2" d="M197.7,171.8c15.9-44.5-5-108.9-46.4-143.7C109.7-6.8,63.3,1.2,47.4,45.7c-15.9,44.5,5,108.9,46.5,143.8
	C135.4,224.3,181.9,216.4,197.7,171.8L197.7,171.8z"/>
<linearGradient id="SVGID_2_" gradientUnits="userSpaceOnUse" x1="143.391" y1="213.7091" x2="95.587" y2="-5.3189" gradientTransform="matrix(1 0 0 -1 0 228)">
	<stop  offset="0" style="stop-color:#84FBFF"/>
	<stop  offset="3.000000e-02" style="stop-color:#61E9FF"/>
	<stop  offset="5.000000e-02" style="stop-color:#42D9FF"/>
	<stop  offset="8.000000e-02" style="stop-color:#2ACCFF"/>
	<stop  offset="0.12" style="stop-color:#17C2FF"/>
	<stop  offset="0.15" style="stop-color:#0ABBFF"/>
	<stop  offset="0.2" style="stop-color:#02B7FF"/>
	<stop  offset="0.3" style="stop-color:#00B6FF"/>
	<stop  offset="1" style="stop-color:#009CFF"/>
</linearGradient>
<path class="st3" d="M201.6,175.1c0.3-1.1,0.7-2,1-3.1c0.8-2.5,1.5-5,2.1-7.6c0.2-0.8,0.3-1.5,0.4-2.2c0.6-3,1-6,1.4-9.1
	c0.1-0.4,0.1-0.8,0.1-1.1c0.1-0.8,0.1-1.5,0.2-2.3c0.3-3.9,0.4-7.9,0.3-11.8c0-1.5-0.1-3.2-0.2-4.8c0-0.8-0.1-1.6-0.1-2.4
	c0-0.8-0.1-1.6-0.2-2.4c-1.4-14.2-5-28.7-10.5-42.7c-0.5-1.2-1-2.4-1.5-3.6c-0.1-0.4-0.4-0.8-0.5-1.2c-1.4-3.1-2.8-6.3-4.4-9.4
	c-0.4-0.8-0.7-1.5-1.2-2.3c-8-15.2-18.4-29.2-30.8-40.7c-1.6-1.5-3.3-3-5-4.4c-12.9-10.7-26.2-17.7-39-20.8c-1.5-0.4-3.2-0.7-4.8-1
	c-1.1-0.2-2.1-0.4-3.2-0.4c-1.1-0.2-2.1-0.2-3.2-0.3C101,1.3,99.5,1.2,98,1.2c-0.6,0-1,0-1.5,0c-8,0.2-15.6,1.9-22.6,5.2
	c0,0-0.1,0.1-0.3,0.1c-0.3,0.1-0.7,0.3-1,0.4l-0.3,0.3c0,0-0.9,0.4-1.3,0.5c-0.3,0.2-0.8,0.4-1.2,0.7l-0.1,0.1c0,0-0.7,0.3-1,0.6
	c-0.1,0.1-0.1,0.1-0.2,0.2c-0.3,0.2-0.7,0.4-1.1,0.7c0,0-0.7,0.4-1,0.7c-0.8,0.6-1.7,1.2-2.5,1.9c-0.3,0.4-0.7,0.6-1,0.8
	c-0.1,0.1-0.3,0.3-0.4,0.4c0,0-0.4,0.4-0.6,0.6c0,0-0.3,0.3-0.4,0.4c0,0-0.5,0.5-0.7,0.7l-0.1,0.1c0,0-0.6,0.6-0.9,0.9L59.5,17
	c-3.3,3.3-6.3,7-9,11.3c-0.4,0.7-0.9,1.5-1.3,2.2c-0.5,0.8-0.9,1.7-1.4,2.6c-0.4,0.8-0.8,1.7-1.2,2.5c-0.2,0.2-0.3,0.6-0.4,0.8
	c-0.4,0.8-0.7,1.8-1.1,2.6c-0.1,0.3-0.3,0.6-0.3,0.9c-0.3,0.6-0.5,1.2-0.7,1.8c-0.1,0.3-0.2,0.6-0.3,0.9c-0.6,1.8-1.2,3.5-1.7,5.4
	c-0.2,0.8-0.4,1.4-0.6,2.2c-0.5,1.8-0.9,3.7-1.3,5.5c-0.3,1.1-0.4,2.2-0.6,3.4c-0.2,1.5-0.4,3-0.7,4.6c-0.1,0.8-0.2,1.5-0.3,2.3
	c-0.1,0.8-0.1,1.5-0.2,2.3c-0.2,2.7-0.3,5.5-0.4,8.3c-0.1,0.8,0,1.6,0.1,2.4c0,0.8,0,1.5,0.1,2.4c0.4,14.4,3.3,29.3,8.3,43.8
	c0.7,2,1.4,4,2.1,6c3.4,9.1,7.8,17.9,12.9,26.2c1.2,1.9,2.4,3.8,3.7,5.8l0.2,0.2c7.6,11.6,16.8,22.1,27.2,30.8
	c0.6,0.6,1.2,1,1.9,1.5c0.4,0.3,0.7,0.7,1.2,1c0.1,0.1,0.3,0.3,0.4,0.4c0.2,0.2,0.4,0.4,0.6,0.6c0.1,0.1,0.4,0.3,0.5,0.5l0.2,0.2
	c0.5,0.3,1,0.7,1.4,1c0.4,0.4,0.9,0.6,1.4,1c0,0,0.4,0.4,0.6,0.5c0.4,0.4,0.9,0.6,1.4,1c0.2,0.2,0.6,0.4,0.9,0.5l0.5,0.5l0.1-0.1
	l0.1,0.1c0.4,0.3,0.9,0.5,1.3,0.8l0.1,0.1c0,0,0.4,0.2,0.6,0.3c0.2,0.2,0.5,0.3,0.8,0.5c0,0,0.4,0.3,0.7,0.4
	c0.4,0.3,0.9,0.6,1.4,0.8c0.5,0.3,1,0.5,1.5,0.9c0.6,0.3,1,0.5,1.6,0.8l0.2,0.2c0,0,1,0.4,1.4,0.7l0.1,0.1c0,0,0.8,0.3,1.3,0.5
	l0.3,0.3l0.3,0c0.6,0.3,1.3,0.5,1.9,0.9l0.9,0.4c0,0,0.4,0.1,0.7,0.3c0,0,0.4,0.1,0.7,0.3c0.1,0.1,0.3,0.1,0.5,0.2
	c0,0,0.2,0.2,0.4,0.1c0.1,0.1,0.3,0.1,0.5,0.2c0.3,0.1,0.6,0.3,0.9,0.3c0.6,0.2,1.3,0.5,1.9,0.7c0.3,0.1,0.6,0.2,0.9,0.3
	c0.4,0.1,0.8,0.3,1.3,0.4c0.3,0.1,0.6,0.2,0.9,0.3c0.4,0.1,0.8,0.3,1.3,0.4c0.4,0.1,0.8,0.3,1.4,0.4l0.1,0.1c0,0,0.5,0.1,0.7,0.1
	c0.1,0.1,0.2,0.1,0.4,0.1c0.3,0.1,0.6,0.1,0.9,0.2c0.4,0.1,0.8,0.2,1.1,0.3c1,0.3,2,0.5,3,0.6c0.4,0.1,0.6,0.1,0.9,0.2
	c0.1,0.1,0.4,0.1,0.6,0.1c0.2,0.1,0.5,0.1,0.7,0.1l0.1,0.1c0,0,0.7,0,1.1,0.1l0.1-0.1c0,0,0.9,0.2,1.3,0.2l0.1,0.1c0,0,0.8,0,1.1,0
	l0.1,0.1l0.4,0l0.6,0l0.4,0.1c0,0,0.4,0,0.6,0.1l0.3,0l0.1,0.1c0,0,0.8,0,1.3,0c0,0,0.8,0,1.3,0c0.4,0,0.7,0,1.1,0
	c0,0,0.8,0,1.2-0.1c0.4,0,0.8-0.1,1.1,0c0.1,0,0.3,0,0.5-0.1c0.6-0.1,1.3-0.1,1.9-0.1c0.3,0,0.6-0.1,0.9-0.1c0.1,0,0.3-0.1,0.5-0.1
	c0.3,0,0.5-0.1,0.8-0.1c0.1,0,0.3,0,0.5-0.1c0.3,0,0.5-0.1,0.8-0.1c0.5-0.1,0.8-0.2,1.3-0.2c0.3-0.1,0.6-0.1,1-0.2l0.3,0
	c0,0,0.6-0.1,0.9-0.2c0.3-0.1,0.8-0.2,1.1-0.3c0.7-0.2,1.3-0.4,2-0.5l0.1-0.1l0.3,0c0,0,0.6-0.1,0.8-0.2l0.1-0.1
	c0,0,0.5-0.1,0.7-0.2c0.1-0.1,0.3-0.1,0.4-0.1c0.3-0.1,0.6-0.2,0.9-0.4c0.1-0.1,0.3-0.1,0.5-0.2c0.6-0.2,1.1-0.4,1.7-0.7
	c0.3-0.1,0.5-0.2,0.8-0.4c0.1-0.1,0.3-0.1,0.5-0.2l0.1-0.1c0,0,0.5-0.1,0.7-0.3c0.3-0.1,0.6-0.3,0.8-0.4
	c13.3-6.4,24.1-18.5,30.4-36.1L201.6,175.1z M93.9,189.4c-10.9-9.1-20.3-20.2-28-32.5l-0.2-0.2c-5.2-8.5-9.7-17.4-13.3-26.6
	l-0.1-0.1c-11.1-28.6-13.7-59.5-4.7-84.3C63.4,1.2,109.9-6.8,151.4,28.1c41.5,34.9,62.3,99.2,46.4,143.7
	C182,216.3,135.4,224.2,93.9,189.4L93.9,189.4z"/>
<path class="st4" d="M191.3,166.7l-4.3-3.6c-0.5,1.4-1.1,2.8-1.6,4.2l4.1,3.9C190.2,169.8,190.7,168.2,191.3,166.7z"/>
<path class="st4" d="M184.9,168.5l-0.3,0.6l4,4l0.3-0.6L184.9,168.5z"/>
<path class="st4" d="M184.1,170.2l-0.7,1.3l4,4.1l0.7-1.3L184.1,170.2z"/>
<path class="st4" d="M177.8,180l-0.9,1.1l3.7,4.8l0.8-1.1L177.8,180z"/>
<path class="st4" d="M176.3,181.8l-0.9,0.9l3.5,4.9l0.9-1.1L176.3,181.8z"/>
<path class="st4" d="M182.8,172.7l-0.3,0.4l3.9,4.2l0.3-0.4L182.8,172.7z"/>
<path class="st4" d="M169.6,188.2l-0.4,0.3l3.1,5.3l0.5-0.4L169.6,188.2z"/>
<path class="st4" d="M168.3,189.1l-1,0.8l2.9,5.4l1.1-0.9L168.3,189.1z"/>
<path class="st4" d="M166.2,190.5l-0.3,0.2l2.9,5.4l0.3-0.2L166.2,190.5z"/>
<path class="st4" d="M181.9,174.2c-1,1.8-2.1,3.3-3.3,4.9l3.7,4.6c1.2-1.7,2.4-3.4,3.5-5.2L181.9,174.2L181.9,174.2z"/>
<path class="st4" d="M174.6,183.8l-1.9,2c-0.8,0.6-1.5,1.1-2.2,1.7l3.1,5.2c0.8-0.6,1.6-1.2,2.3-1.9l2.1-2.1L174.6,183.8z"/>
<path class="st4" d="M165.8,190.7c-1.1,0.7-2.2,1.3-3.4,1.9l2.7,5.6c1.2-0.6,2.4-1.2,3.6-2L165.8,190.7L165.8,190.7z"/>
<path class="st4" d="M161.3,193.1l-0.5,0.2l2.6,5.6l0.6-0.3L161.3,193.1z"/>
<path class="st4" d="M159.8,193.8c0,0-0.8,0.4-1.2,0.5l2.4,5.6c0,0,0.8-0.3,1.3-0.5L159.8,193.8L159.8,193.8z"/>
<path class="st4" d="M149.5,196.7l-1.3,0.2l1.7,5.8l1.3-0.2L149.5,196.7z"/>
<path class="st4" d="M147.2,197l-1.3,0.1l1.6,5.8l1.4-0.2L147.2,197z"/>
<path class="st4" d="M157.5,194.6l-0.4,0.1l2.4,5.7l0.4-0.1L157.5,194.6z"/>
<path class="st4" d="M137.8,197c0,0-0.4-0.1-0.6-0.1l1,5.8c0,0,0.4,0,0.6,0.1L137.8,197z"/>
<path class="st4" d="M136,196.8l-1.4-0.1l0.9,5.8l1.5,0.2L136,196.8z"/>
<path class="st4" d="M133.4,196.4l-0.5-0.1l0.7,5.7l0.5,0.1L133.4,196.4z"/>
<path class="st4" d="M156,195.1l-2.6,0.7l-2.8,0.6l1.9,5.8l2.9-0.6l2.9-0.8L156,195.1z"/>
<path class="st4" d="M144.7,197.2c-1.9,0.1-3.8,0.1-5.7,0l1.1,5.9c2,0.2,4.1,0.1,6.2,0L144.7,197.2L144.7,197.2z"/>
<path class="st4" d="M132.9,196.4c-0.7-0.1-1.4-0.3-2.1-0.4l-2.1-0.5l0.4,5.7l2.3,0.5c0.8,0.2,1.5,0.3,2.2,0.4L132.9,196.4z"/>
<path class="st4" d="M127.4,195.2l-0.6-0.2l0.3,5.7l0.6,0.2L127.4,195.2z"/>
<path class="st4" d="M125.6,194.6c0,0-1-0.3-1.4-0.4l0.1,5.6c0,0,1.1,0.3,1.5,0.5L125.6,194.6z"/>
<path class="st4" d="M114,189.8l-1.5-0.7l-0.6,5.3l1.6,0.8L114,189.8z"/>
<path class="st4" d="M111.5,188.5c-0.4-0.3-0.9-0.5-1.4-0.8l-0.8,5.1c0.5,0.3,1,0.5,1.5,0.9L111.5,188.5z"/>
<path class="st4" d="M122.9,193.7l-0.5-0.2l0.1,5.5l0.5,0.2L122.9,193.7z"/>
<path class="st4" d="M101.9,182.3l-0.6-0.6l-1.4,4.9l0.6,0.5L101.9,182.3z"/>
<path class="st4" d="M100.2,180.9l-1.4-1l-1.6,4.6l1.4,1.1L100.2,180.9z"/>
<path class="st4" d="M97.7,178.9l-0.5-0.3l-1.6,4.6l0.5,0.3L97.7,178.9z"/>
<path class="st4" d="M121.2,193l-3-1.3c-1-0.4-2-0.9-3-1.4l-0.4,5.3c1.1,0.5,2.1,1.1,3.2,1.6l3.3,1.3L121.2,193z"/>
<path class="st4" d="M108.9,186.9l-1.5-0.9l-1.4-1c-1-0.7-1.9-1.3-2.9-2l-1.3,4.9c1,0.8,2.1,1.4,3.1,2.1l1.6,1.1l1.6,1L108.9,186.9
	L108.9,186.9z"/>
<path class="st4" d="M93.3,175l-1.9,4.4c1.4,1.3,2.8,2.4,4.1,3.7l1.6-4.6C95.9,177.3,94.5,176.2,93.3,175z"/>
<path class="st4" d="M91.6,173.4l-2,4.2l0.6,0.6l1.9-4.3L91.6,173.4z"/>
<path class="st4" d="M89.3,171l-2.1,4.1l1.3,1.4l2.1-4.2L89.3,171z"/>
<path class="st4" d="M79.5,159.6l-2.8,3.3l1.2,1.6l2.7-3.4L79.5,159.6z"/>
<path class="st4" d="M77.6,157.1l-2.9,3.1l1.1,1.6l2.9-3.3L77.6,157.1z"/>
<path class="st4" d="M87.7,169.5l-2.3,4l0.4,0.4l2.3-4L87.7,169.5z"/>
<path class="st4" d="M71.1,147l-3.4,2.5l0.4,0.8l3.3-2.6L71.1,147z"/>
<path class="st4" d="M69.4,144l-3.5,2.4l1.1,1.7l3.4-2.4L69.4,144z"/>
<path class="st4" d="M68.3,142l-3.6,2.2l0.4,0.6l3.5-2.2L68.3,142z"/>
<path class="st4" d="M81.6,162.4l-2.6,3.5c1.8,2.1,3.5,4.2,5.4,6.3l2.4-3.9C84.9,166.4,83.3,164.4,81.6,162.4L81.6,162.4z"/>
<path class="st4" d="M72.3,149l-3.2,2.6c0.8,1.2,1.5,2.4,2.3,3.6l2.4,3.5l3-3.1l-2.2-3.3c-0.7-1.1-1.5-2.2-2.1-3.4L72.3,149z"/>
<path class="st4" d="M65.8,136.9l-3.7,1.9c0.9,1.8,1.8,3.6,2.8,5.4l3.6-2.2C67.5,140.4,66.7,138.6,65.8,136.9L65.8,136.9z"/>
<path class="st4" d="M64.6,134.5l-3.8,1.7l0.4,0.8l3.8-1.7L64.6,134.5z"/>
<path class="st4" d="M63.3,131.3l-3.9,1.5c0.2,0.6,0.6,1.3,0.8,1.9l3.9-1.6C63.8,132.5,63.6,131.9,63.3,131.3z"/>
<path class="st4" d="M58.1,116.6l-4.3,0.6l0.5,1.9l4.3-0.6L58.1,116.6z"/>
<path class="st4" d="M57.2,113.6l-4.3,0.3l0.5,2l4.3-0.4L57.2,113.6z"/>
<path class="st4" d="M62.4,129.2l-4,1.3l0.3,0.7l4-1.4L62.4,129.2z"/>
<path class="st4" d="M54.7,102.1l-4.5-0.5c0,0,0.1,0.5,0.2,0.8l4.4,0.4C54.7,102.8,54.7,102.3,54.7,102.1z"/>
<path class="st4" d="M54.2,98.7l-4.5-0.6l0.3,1.9l4.6,0.6L54.2,98.7z"/>
<path class="st4" d="M53.9,96.5l-4.5-0.8l0.1,0.6l4.5,0.8L53.9,96.5z"/>
<path class="st4" d="M59.1,120l-4.2,0.8l1.4,4l1.5,4l4-1.3l-1.3-3.8L59.1,120z"/>
<path class="st4" d="M55.1,104.3l-4.4-0.3c0.6,2.7,1.1,5.4,1.8,8.2l4.3-0.2C56.2,109.5,55.6,106.8,55.1,104.3z"/>
<path class="st4" d="M53.3,91.2L48.8,90l0.3,2.9c0.1,0.9,0.3,1.9,0.3,2.8l4.5,0.8c-0.1-0.9-0.3-1.7-0.3-2.7L53.3,91.2z"/>
<path class="st4" d="M53.2,88.7l-4.6-1.3l0.1,0.8l4.5,1.3L53.2,88.7z"/>
<path class="st4" d="M53,85.5l-4.6-1.5c0,0,0,1.3,0.1,1.9l4.6,1.4C53.1,87.2,53,86,53,85.5z"/>
<path class="st4" d="M53.8,71.5l-4.5-2.4l-0.2,1.8l4.5,2.4L53.8,71.5z"/>
<path class="st4" d="M54.2,68.7l-4.5-2.7c0,0-0.2,1.2-0.2,1.7l4.5,2.5C54,70.3,54.1,69.1,54.2,68.7L54.2,68.7z"/>
<path class="st4" d="M53.1,83.3l-4.5-1.6l0,0.6l4.6,1.7L53.1,83.3z"/>
<path class="st4" d="M56.4,58.9l-4.3-3.4l-0.3,0.7l4.4,3.3L56.4,58.9z"/>
<path class="st4" d="M57.3,56.1l-4.3-3.5l-0.5,1.5l4.3,3.4L57.3,56.1z"/>
<path class="st4" d="M57.8,54.3l-4.3-3.6l-0.1,0.6l4.3,3.5L57.8,54.3z"/>
<path class="st4" d="M53.5,74.6l-4.6-2.2c-0.1,1.3-0.2,2.5-0.2,3.8L48.6,80l4.6,1.8l0.1-3.6C53.3,77.1,53.5,75.9,53.5,74.6
	L53.5,74.6z"/>
<path class="st4" d="M55.9,60.7l-4.4-3.2c-0.3,1.1-0.6,2.3-0.8,3.4l-0.4,1.7L50,64.4l4.5,2.8l0.2-1.7l0.3-1.6
	c0.3-1.1,0.4-2.2,0.8-3.2L55.9,60.7z"/>
<path class="st4" d="M55.3,46.3c-0.7,1.4-1.2,3-1.8,4.4l4.3,3.6c0.5-1.4,1.1-2.8,1.6-4.2L55.3,46.3L55.3,46.3z"/>
<path class="st4" d="M56.2,44.4L56,44.9l4.1,4l0.3-0.6L56.2,44.4z"/>
<path class="st4" d="M57.6,41.8l-0.7,1.3l4.1,4.1l0.7-1.3L57.6,41.8z"/>
<path class="st4" d="M64.4,31.6l-0.9,1.1l3.6,4.7l0.9-1.1L64.4,31.6z"/>
<path class="st4" d="M66.1,29.8l-1,1l3.6,4.8l0.8-1L66.1,29.8z"/>
<path class="st4" d="M58.5,40.1l-0.2,0.5l3.9,4.2l0.3-0.4L58.5,40.1z"/>
<path class="st4" d="M72.7,23.7l-0.5,0.4l3.1,5.2l0.4-0.3L72.7,23.7z"/>
<path class="st4" d="M74.9,22.2L73.7,23l3,5.3l1.1-0.7L74.9,22.2z"/>
<path class="st4" d="M76.3,21.3l-0.3,0.2l2.9,5.3l0.4-0.1L76.3,21.3z"/>
<path class="st4" d="M62.7,33.7c-1.2,1.7-2.4,3.4-3.5,5.2l3.9,4.3c1-1.8,2.1-3.3,3.3-4.9L62.7,33.7z"/>
<path class="st4" d="M71.4,24.8c-0.7,0.7-1.6,1.2-2.3,1.9l-2.1,2.1l3.3,4.9l1.9-2c0.8-0.6,1.5-1.1,2.2-1.7L71.4,24.8z"/>
<path class="st4" d="M79.9,19.3c-1.2,0.6-2.4,1.2-3.6,2l2.9,5.4c1.1-0.7,2.2-1.3,3.3-1.9L79.9,19.3z"/>
<path class="st4" d="M81.6,18.5l-0.6,0.3l2.6,5.5l0.5-0.2L81.6,18.5z"/>
<path class="st4" d="M84,17.5c0,0-0.8,0.3-1.3,0.5l2.5,5.6c0,0,0.8-0.4,1.2-0.5L84,17.5L84,17.5z"/>
<path class="st4" d="M95.1,14.8L93.7,15l1.9,5.8l1.3-0.2L95.1,14.8z"/>
<path class="st4" d="M97.5,14.6l-1.5,0.1l1.7,5.8l1.3-0.1L97.5,14.6z"/>
<path class="st4" d="M85.6,17l-0.4,0.1l2.3,5.6l0.4-0.1L85.6,17z"/>
<path class="st4" d="M106.8,14.7c0,0-0.4,0-0.6-0.1l1,5.8c0,0,0.4,0.1,0.6,0.1L106.8,14.7z"/>
<path class="st4" d="M109.5,15l-1.5-0.2l0.9,5.8l1.4,0.1L109.5,15z"/>
<path class="st4" d="M111.4,15.3l-0.6-0.1l0.8,5.8l0.5,0.1L111.4,15.3z"/>
<path class="st4" d="M92.6,15.2l-2.9,0.6l-2.9,0.8l2.2,5.7l2.6-0.7l2.8-0.6L92.6,15.2z"/>
<path class="st4" d="M104.9,14.6c-2-0.2-4.1-0.1-6.2,0l1.5,5.8c1.9-0.1,3.8-0.1,5.7,0L104.9,14.6L104.9,14.6z"/>
<path class="st4" d="M115.8,16.3l-2.3-0.5c-0.8-0.2-1.5-0.3-2.2-0.4l0.7,5.7c0.7,0.1,1.4,0.3,2.1,0.4l2.1,0.5L115.8,16.3z"/>
<path class="st4" d="M117.9,16.8l-0.6-0.2l0.3,5.7l0.5,0.2L117.9,16.8z"/>
<path class="st4" d="M120.7,17.7c0,0-1-0.3-1.5-0.5l0.2,5.7c0,0,1,0.3,1.4,0.4L120.7,17.7z"/>
<path class="st4" d="M133.1,23.1l-1.5-0.7l-0.6,5.3l1.5,0.7L133.1,23.1z"/>
<path class="st4" d="M135.7,24.6c-0.5-0.3-1-0.5-1.5-0.9l-0.7,5.2c0.5,0.2,0.9,0.5,1.4,0.8L135.7,24.6z"/>
<path class="st4" d="M122.5,18.4l-0.5-0.2l0.1,5.6l0.4,0.1L122.5,18.4z"/>
<path class="st4" d="M145,30.9l-0.6-0.5l-1.4,4.9l0.6,0.4L145,30.9z"/>
<path class="st4" d="M147.7,32.9l-1.5-1.2l-1.4,4.8l1.4,1L147.7,32.9z"/>
<path class="st4" d="M149.4,34.3l-0.5-0.3l-1.6,4.7l0.4,0.3L149.4,34.3z"/>
<path class="st4" d="M130.4,21.7c-1.1-0.5-2.1-1.1-3.3-1.5l-3.3-1.3l-0.1,5.5l3,1.3c1,0.4,2,0.9,3,1.4L130.4,21.7L130.4,21.7z"/>
<path class="st4" d="M143.3,29.6c-1-0.8-2.1-1.4-3.1-2.1l-1.6-1.1l-1.6-1l-0.9,5.2l1.5,0.9l1.4,1c1,0.7,1.9,1.3,2.9,2L143.3,29.6
	L143.3,29.6z"/>
<path class="st4" d="M149.4,34.3l-1.6,4.6c1.3,1.2,2.6,2.3,3.9,3.5l1.9-4.4C152.2,36.7,150.8,35.6,149.4,34.3z"/>
<path class="st4" d="M154.8,39.2l-1.9,4.3l0.5,0.5l2-4.2L154.8,39.2z"/>
<path class="st4" d="M156.5,40.9l-2,4.2l1.2,1.3l2.1-4.1L156.5,40.9z"/>
<path class="st4" d="M167.1,52.8l-2.7,3.5l1.1,1.5l2.8-3.3L167.1,52.8z"/>
<path class="st4" d="M169.1,55.5l-2.9,3.3l1.1,1.6l2.9-3.2L169.1,55.5z"/>
<path class="st4" d="M159.1,43.5l-2.2,4l0.4,0.4l2.2-4L159.1,43.5z"/>
<path class="st4" d="M176.8,67.1l-3.5,2.6l0.4,0.7l3.4-2.5L176.8,67.1z"/>
<path class="st4" d="M178.1,69.4l-3.4,2.4l0.9,1.7l3.5-2.4L178.1,69.4z"/>
<path class="st4" d="M180,72.7l-3.5,2.2l0.3,0.6l3.5-2.2L180,72.7z"/>
<path class="st4" d="M160.7,45.3l-2.4,3.9c1.8,1.9,3.4,3.9,5.1,5.9l2.7-3.5C164.3,49.4,162.6,47.3,160.7,45.3L160.7,45.3z"/>
<path class="st4" d="M171.3,58.6l-3,3.1l2.2,3.3c0.7,1.1,1.5,2.2,2.1,3.4l3.2-2.6c-0.8-1.2-1.5-2.4-2.3-3.6l-2.4-3.5L171.3,58.6z"/>
<path class="st4" d="M180.2,73.3l-3.6,2.2c0.9,1.7,1.7,3.4,2.6,5.1l3.7-1.9C182.1,76.8,181.2,75,180.2,73.3L180.2,73.3z"/>
<path class="st4" d="M183.8,80.4l-3.8,1.7l0.4,0.8l3.8-1.7L183.8,80.4z"/>
<path class="st4" d="M184.8,82.8l-3.9,1.6c0.3,0.6,0.5,1.2,0.8,1.7l3.9-1.5C185.4,84,185.1,83.5,184.8,82.8z"/>
<path class="st4" d="M190.6,98.3l-4.3,0.7l0.6,1.8l4.3-0.6L190.6,98.3z"/>
<path class="st4" d="M191.6,101.6l-4.3,0.4l0.5,1.8l4.3-0.3L191.6,101.6z"/>
<path class="st4" d="M186.4,86.3l-4,1.4l0.3,0.6l3.9-1.3L186.4,86.3z"/>
<path class="st4" d="M194.6,115l-4.4-0.4c0,0,0.1,0.5,0.1,0.8l4.4,0.4C194.7,115.7,194.6,115.3,194.6,115L194.6,115z"/>
<path class="st4" d="M195,117.4l-4.5-0.5l0.3,1.8l4.5,0.6L195,117.4z"/>
<path class="st4" d="M195.6,121.1l-4.6-0.8l0.1,0.6l4.6,0.8L195.6,121.1z"/>
<path class="st4" d="M187.2,88.7l-4,1.3l1.4,3.7l1.3,3.8l4.2-0.8l-1.4-4L187.2,88.7z"/>
<path class="st4" d="M192.5,105.3l-4.3,0.2c0.6,2.5,1.2,5.2,1.7,7.7l4.4,0.3C193.8,110.7,193.2,108,192.5,105.3z"/>
<path class="st4" d="M195.7,121.8l-4.5-0.8c0.1,0.9,0.3,1.7,0.3,2.7l0.2,2.7l4.6,1.1l-0.2-2.8C196,123.7,195.8,122.7,195.7,121.8
	L195.7,121.8z"/>
<path class="st4" d="M196.3,129.2l-4.5-1.3l-0.1,0.8l4.6,1.3L196.3,129.2z"/>
<path class="st4" d="M196.4,131.5l-4.6-1.4c0,0,0.1,1.2,0.1,1.7l4.6,1.5C196.5,133.4,196.5,132.2,196.4,131.5z"/>
<path class="st4" d="M195.9,146.6l-4.5-2.3l-0.2,1.6l4.5,2.4L195.9,146.6z"/>
<path class="st4" d="M195.5,149.6l-4.5-2.5c0,0-0.1,1.1-0.2,1.6l4.5,2.7C195.4,151.3,195.5,150.1,195.5,149.6L195.5,149.6z"/>
<path class="st4" d="M196.5,135.2l-4.6-1.7l0,0.6l4.6,1.7L196.5,135.2z"/>
<path class="st4" d="M193.1,161.2l-4.3-3.2l-0.2,0.6l4.3,3.4L193.1,161.2z"/>
<path class="st4" d="M192.5,163.2l-4.3-3.4l-0.5,1.5l4.3,3.4L192.5,163.2z"/>
<path class="st4" d="M191.5,166.2l-4.3-3.6l-0.1,0.4l4.2,3.6L191.5,166.2z"/>
<path class="st4" d="M196.5,137.4l-4.6-1.8l-0.1,3.6c0,1.2-0.2,2.4-0.3,3.6l4.6,2.2c0.1-1.3,0.2-2.5,0.3-3.9l0.1-3.9L196.5,137.4z"
	/>
<path class="st4" d="M194.9,152.9l-4.5-2.7l-0.2,1.7l-0.4,1.7c-0.3,1.1-0.4,2.2-0.8,3.2l4.4,3.2c0.3-1.1,0.6-2.3,0.8-3.4l0.4-1.7
	l0.3-1.8L194.9,152.9z"/>
<path class="st1" d="M151.6,50.7l-0.8-0.8c-1.8-1.7-3.7-3.5-5.6-5.1l-0.9-0.8l-0.7,1.8l0.9,0.8c1.9,1.6,3.7,3.2,5.5,4.9l0.8,0.8
	L151.6,50.7z M140,40.8l-0.9-0.5c-2.1-1.4-4.1-2.7-6.1-4l-0.8-0.5l-0.3,1.9l0.8,0.5c2,1.1,4,2.5,6,3.8l0.7,0.7L140,40.8L140,40.8z
	 M162.1,62.9l-0.7-0.9c-1.7-2.1-3.4-4.2-5.1-6.3l-0.8-0.8l-0.9,1.3l0.8,0.8c1.7,2,3.3,4,5,6.2l0.7,0.9L162.1,62.9L162.1,62.9z
	 M127.6,33.4l-0.9-0.4c-2.1-0.9-4.2-1.8-6.3-2.5l-0.8-0.3l0.1,2.1l0.8,0.3c2,0.7,4.1,1.5,6.1,2.4l0.9,0.4L127.6,33.4z M170.4,75.8
	c-1.4-2.4-2.8-4.8-4.4-7.1l-0.6-1l-1.1,1.1l0.6,0.8c1.5,2.2,2.9,4.6,4.2,6.9l0.6,1l1.2-0.9L170.4,75.8z M115.2,29.1l-0.8-0.1
	c-2-0.5-4.1-0.8-6.1-1l-0.8-0.1l0.4,2.2l0.8,0.1c2,0.2,3.9,0.5,6,1l0.8,0.1L115.2,29.1L115.2,29.1z M177.6,90.9
	c-1-2.6-2.2-5.1-3.4-7.7l-0.5-1l-1.4,0.7l0.5,1c1.2,2.5,2.3,4.9,3.3,7.4l0.4,1L178,92L177.6,90.9z M102.9,27.7l-0.8,0
	c-2,0-3.9,0.2-5.8,0.6l-0.8,0.1l0.7,2.2l0.8-0.1c1.8-0.3,3.8-0.5,5.7-0.6l0.8,0L102.9,27.7z M182.7,106.6c-0.6-2.7-1.4-5.3-2.3-7.9
	l-0.4-1l-1.5,0.3l0.4,1c0.8,2.6,1.5,5.2,2.2,7.7l0.2,1l1.6-0.1L182.7,106.6z M91.5,29.4l-0.8,0.2c-1.8,0.6-3.5,1.2-5.2,2.1l-0.7,0.3
	l1,2l0.7-0.3c1.7-0.9,3.4-1.5,5.1-2l0.8-0.2L91.5,29.4z M185.5,122.4c-0.3-2.6-0.6-5.2-1.1-7.9l-0.2-1.1l-1.6-0.2l0.2,1.1
	c0.4,2.6,0.8,5.2,1,7.7l0.1,1l1.7,0.4L185.5,122.4z M81.3,34.2l-0.7,0.4c-1.6,1.1-3.1,2.2-4.5,3.6l-0.5,0.6l1.2,1.9l0.5-0.6
	c1.4-1.2,2.9-2.4,4.4-3.4l0.7-0.4L81.3,34.2z M185.9,137.8c0.2-2.5,0.2-5,0.1-7.6l0-1l-1.7-0.5l0,1c0.1,2.5,0,5-0.1,7.3l0,1.1
	l1.7,0.8L185.9,137.8z M69.9,49c1.1-1.7,2.2-3.3,3.5-4.7l0.5-0.6l-1.4-1.9L72,42.4c-1.2,1.6-2.4,3.2-3.5,5l-0.4,0.7l1.4,1.7L69.9,49
	z M183.7,152c0.5-2.2,0.9-4.6,1.3-7l0.1-1l-1.7-1l-0.1,1c-0.4,2.2-0.8,4.6-1.3,6.7l-0.2,0.9l1.6,1.2L183.7,152L183.7,152z
	 M64.5,60.2c0.8-2.1,1.6-3.9,2.4-5.9l0.3-0.8l-1.5-1.4l-0.3,0.8c-0.9,1.8-1.7,3.8-2.5,5.9l-0.3,0.9l1.5,1.4L64.5,60.2z M179.2,164.6
	c0.9-1.9,1.8-3.9,2.5-6.1l0.4-1l-1.5-1.4l-0.4,1c-0.9,2.2-1.7,4.2-2.5,5.9l-0.3,0.8l1.5,1.4l0.3-0.8L179.2,164.6z M61.3,73.3
	c0.4-2.2,0.7-4.5,1.3-6.7l0.2-0.9l-1.6-1.2l-0.2,0.9c-0.5,2.2-0.9,4.6-1.4,6.9l-0.1,1l1.7,1L61.3,73.3z M172.7,175
	c1.3-1.5,2.4-3.1,3.6-4.9l0.4-0.7l-1.4-1.7l-0.4,0.7c-1.1,1.7-2.2,3.3-3.5,4.7l-0.5,0.6l1.4,1.8l0.5-0.6L172.7,175z M60.4,87.6
	c-0.1-2.5,0-4.9,0.2-7.4l0-1.1l-1.7-0.8l0,1.1c-0.2,2.5-0.2,5-0.1,7.6l0,1l1.7,0.5L60.4,87.6L60.4,87.6z M167.9,176.8l-0.5,0.6
	c-1.4,1.2-2.9,2.4-4.4,3.4l-0.7,0.4l1.1,2l0.7-0.4c1.6-1.1,3.1-2.2,4.5-3.6l0.5-0.6L167.9,176.8L167.9,176.8z M61.9,102.9
	c-0.4-2.6-0.8-5.2-1-7.7l-0.1-1l-1.7-0.4l0.1,1c0.3,2.6,0.6,5.2,1.1,7.9l0.2,1.1l1.6,0.2L61.9,102.9L61.9,102.9z M158.8,183.2
	l-0.7,0.3c-1.6,0.8-3.4,1.5-5.1,2l-0.8,0.2l0.9,2.1l0.8-0.2c1.8-0.6,3.5-1.2,5.3-2l0.7-0.3L158.8,183.2L158.8,183.2z M65.8,118.4
	c-0.8-2.6-1.5-5.2-2.2-7.7l-0.2-1l-1.6,0.1l0.3,1.1c0.6,2.7,1.4,5.3,2.3,7.9l0.4,1l1.5-0.3L65.8,118.4L65.8,118.4z M148.3,186.8
	l-0.8,0.1c-1.8,0.3-3.8,0.5-5.7,0.6l-0.8,0l0.5,2.2l0.8,0c2,0,3.9-0.2,5.8-0.6l0.8-0.1L148.3,186.8z M71.8,133.5
	c-1.2-2.5-2.3-4.9-3.3-7.5l-0.4-1l-1.5,0.5l0.4,1c1,2.6,2.2,5.1,3.4,7.7l0.5,1l1.4-0.7L71.8,133.5L71.8,133.5z M136.9,187.4
	l-0.8-0.1c-2-0.2-3.9-0.5-6-1l-0.8-0.1l0.2,2.1l0.8,0.1c2,0.5,4.1,0.8,6.1,1l0.8,0.1L136.9,187.4L136.9,187.4z M79.7,147.6
	c-1.5-2.2-2.9-4.6-4.2-6.9l-0.6-1l-1.2,0.9l0.6,1c1.4,2.4,2.8,4.8,4.3,7.1l0.6,1l1.1-1.1L79.7,147.6L79.7,147.6z M124.8,185
	l-0.8-0.3c-2-0.7-4.1-1.5-6.1-2.4l-0.9-0.4l-0.2,2l0.9,0.4c2.1,0.9,4.2,1.8,6.3,2.5l0.8,0.3L124.8,185z M90,161l-0.8-0.8
	c-1.7-2-3.3-4-5-6.2l-0.7-0.9l-1.1,1.1l0.7,1c1.7,2.1,3.4,4.2,5.1,6.3l0.8,0.8L90,161z M112.7,179.6l-0.8-0.5c-1.9-1.2-4-2.5-6-3.8
	l-0.9-0.5l-0.4,1.8l0.9,0.5c2.1,1.4,4.1,2.8,6.1,4l0.8,0.5L112.7,179.6z M101,171.4l-0.8-0.8c-1.9-1.6-3.8-3.2-5.6-5l-0.8-0.8
	l-0.8,1.6l0.8,0.8c1.9,1.8,3.7,3.6,5.7,5.2l0.8,0.8L101,171.4L101,171.4z"/>
<path class="st1" d="M152.7,154.3l0.8-2.1c2.6-7.3,1.5-17-2.9-25.7c3.3-1,5.9-3.7,7.2-7.5l0.7-1.8c3.7-10.3-1.2-25.1-10.7-33.1
	l-1.7-1.4l5.4-15.3l-10.4-8.8l-5.4,15.3l-5.3-4.4l5.4-15.3l-10.4-8.8L120,60.6L102,45.6l-4.3,12l11.5,9.7l-17.1,47.9l-9.9-8.3
	l-6.1,10.5l18.1,15.2l-5.2,14.8l10.4,8.8l5.2-14.8l5.3,4.4l-5.2,14.8l10.4,8.8l5.2-14.8l5.2,4.3C136.6,168,148.7,166,152.7,154.3
	L152.7,154.3z M126.3,157.1l-6.8-5.7l-5.2,14.8l-7.4-6.1l5.2-14.8l-8.4-7l-5.2,14.8l-7.4-6.1l5.2-14.8l-17.9-15l4.4-7.5l10.1,8.5
	l18.2-51.3l-11.5-9.7l3-8.6l18,15.1l5.4-15.3l7.4,6.1l-5.4,15.3l8.4,7l5.4-15.3l7.4,6.1L143.9,83l3.3,2.8c8.7,7.3,13,20.7,9.7,30.1
	l-0.7,1.8c-1.3,3.8-3.9,6.2-7.3,6.9l-1,0.2l0.7,1.2c4.5,8.2,5.7,17.7,3.3,24.7l-0.8,2.1C147.3,163.5,136.1,165.4,126.3,157.1
	L126.3,157.1z M137,128.7c-1.3-4-3.6-7.6-6.6-10.1L115.2,106l-8.5,23.9l15.1,12.6c6.1,5.1,13,3.9,15.3-2.6
	C138.4,136.8,138.4,132.8,137,128.7z M122.5,140.8l-13.6-11.4l7.3-20.5l13.6,11.4c2.5,2.1,4.6,5.3,5.7,8.7c1.1,3.4,1.1,6.8,0.2,9.6
	C133.7,144.2,127.8,145.2,122.5,140.8z M144.1,104.9c0.9-2.5,0.8-5.6-0.1-8.8c-1-3.1-2.9-5.9-5.2-7.9l-13.1-11l-6.6,18.7l13.1,11
	C136.9,111,142.3,110,144.1,104.9z M121.1,95.5l5.4-15.3l11.6,9.8c1.9,1.6,3.4,3.9,4.3,6.4c0.8,2.6,0.9,5.1,0.2,7.1
	c-1.5,4.2-5.9,5-9.8,1.6L121.1,95.5L121.1,95.5z M137.3,139.9c1.1-3.2,1.1-7.2-0.3-11.2c-1.3-4-3.6-7.6-6.6-10.1L115.3,106
	l-8.5,23.9l15.1,12.6C128.1,147.6,135,146.4,137.3,139.9z M122.5,140.8l-13.6-11.4l7.3-20.5l13.6,11.4c2.5,2.1,4.6,5.3,5.7,8.7
	c1.1,3.4,1.1,6.8,0.2,9.6C133.7,144.2,127.8,145.2,122.5,140.8z M144.1,104.9c0.9-2.5,0.8-5.6-0.1-8.8c-1-3.1-2.9-5.9-5.2-7.9
	l-13.1-11l-6.6,18.7l13.1,11C136.9,111,142.3,110,144.1,104.9z M121.1,95.5l5.4-15.3l11.6,9.8c1.9,1.6,3.4,3.9,4.3,6.4
	c0.8,2.6,0.9,5.1,0.2,7.1c-1.5,4.2-5.9,5-9.8,1.6L121.1,95.5L121.1,95.5z M144.1,104.9c0.9-2.5,0.8-5.6-0.1-8.8
	c-1-3.1-2.9-5.9-5.2-7.9l-13.1-11l-6.6,18.7l13.1,11C136.9,111,142.3,110,144.1,104.9z M132.7,105.3l-11.6-9.8l5.4-15.3l11.6,9.8
	c1.9,1.6,3.4,3.9,4.3,6.4c0.8,2.6,0.9,5.1,0.2,7.1C141.1,107.7,136.7,108.6,132.7,105.3L132.7,105.3z M137.3,139.9
	c1.1-3.2,1.1-7.2-0.3-11.2c-1.3-4-3.6-7.6-6.6-10.1L115.3,106l-8.5,23.9l15.1,12.6C128.1,147.6,135,146.4,137.3,139.9z M122.5,140.8
	l-13.6-11.4l7.3-20.5l13.6,11.4c2.5,2.1,4.6,5.3,5.7,8.7c1.1,3.4,1.1,6.8,0.2,9.6C133.7,144.2,127.8,145.2,122.5,140.8z"/>
</svg>
