<svg width="1133" height="832" viewBox="0 0 1133 832" fill="none" xmlns="http://www.w3.org/2000/svg">
<path style="mix-blend-mode:lighten" d="M19.63 80.33V102.65L0 114V137.27L19.63 148.6V170.9L0 182.23V205.49L19.63 216.83V239.14L0 250.48V273.74L19.63 285.07V307.39L0 318.72V342L19.63 353.34V375.65L0 387V410.26L19.63 421.59V443.91L0 455.21V478.48L19.63 489.81V512.13L0 523.46V546.72L19.63 558.05V580.37L0 591.71V615L19.63 626.3V648.62L0 660V683.26L19.63 694.6V716.91L0 728.2V751.46L19.63 762.79V785.11L0 796.44V819.71L20.15 831.34L39.77 820L59.4 831.34L79 820L98.63 831.33L118.28 820L137.9 831.33L157.53 820L177.16 831.33L196.78 820L216.41 831.33L236 820L255.63 831.33L275.29 820L294.91 831.33L314.54 820L334.16 831.33L353.79 820L373.42 831.33L393 820L412.63 831.33L432.3 820L451.92 831.33L471.55 820L491.17 831.33L510.8 820L530.43 831.33L550.05 820L569.68 831.33L589.3 820L608.93 831.33L628.56 820L648.18 831.33L667.81 820L687.44 831.33L707.06 820L726.69 831.33L746.31 820L765.94 831.33L785.57 820L805.19 831.33L824.82 820L844.44 831.33L864.07 820L883.7 831.33L903.32 820L923 831.34L942.58 820L962.2 831.33L981.83 820L1001.45 831.33L1021.08 820L1040.71 831.33L1060.33 820L1080 831.34L1099.59 820L1119.21 831.33L1138.84 820L1158.46 831.33L1178.09 820L1197.72 831.33L1217.34 820L1237 831.34L1256.59 820L1276.22 831.33L1295.85 820L1315.47 831.33L1335.1 820L1354.73 831.33L1374.35 820L1394 831.34L1413.6 820L1433.23 831.33L1453.38 819.7V797.12L1473 785.78V762.52L1453.37 751.19V728.87L1473 717.54V694.28L1453.37 682.94V660.63L1473 649.29V626L1453.37 614.67V592.38L1473 581.05V557.79L1453.37 546.45V524.13L1473 512.8V489.54L1453.37 478.21V455.89L1473 444.56V421.29L1453.38 410V387.64L1473 376.31V353.05L1453.37 341.71V319.4L1473 308.06V284.8L1453.37 273.47V251.15L1473 239.82V216.56L1453.37 205.22V182.91L1473 171.57V148.31L1453.38 137V114.66L1473 103.33V80.06L1453.37 68.73V46.41L1473 35.08V11.82L1452.85 0.190002L1433.22 11.52L1413.6 0.190002L1394 11.52L1374.38 0.190002L1354.75 11.52L1335.1 0.190002L1315.48 11.52L1295.85 0.190002L1276.23 11.52L1256.6 0.190002L1237 11.52L1217.38 0.190002L1197.75 11.52L1178.12 0.190002L1158.5 11.52L1138.87 0.190002L1119.25 11.52L1099.62 0.190002L1080 11.52L1060.38 0.190002L1040.75 11.52L1021.13 0.190002L1001.5 11.52L981.83 0.190002L962.21 11.52L942.58 0.190002L923 11.52L903.33 0.190002L883.7 11.52L864.08 0.190002L844.45 11.52L824.82 0.190002L805.2 11.52L785.57 0.190002L766 11.52L746.32 0.190002L726.69 11.52L707.07 0.190002L687.44 11.52L667.81 0.190002L648.19 11.52L628.56 0.190002L608.94 11.52L589.31 0.190002L569.68 11.52L550.06 0.190002L530.43 11.52L510.8 0.190002L491.18 11.52L471.55 0.190002L451.93 11.52L432.3 0.190002L412.67 11.52L393.05 0.190002L373.42 11.52L353.79 0.190002L334.17 11.52L314.54 0.190002L294.92 11.52L275.29 0.190002L255.66 11.52L236 0.190002L216.41 11.52L196.79 0.190002L177.16 11.52L157.53 0.190002L137.91 11.52L118.28 0.190002L98.66 11.52L79 0.190002L59.4 11.52L39.78 0.190002L19.63 11.82V34.4L0 45.74V69L19.63 80.33ZM59.96 80.69L79 69.68L98.06 80.68V102.68L79 113.69L60 102.68L59.96 80.69ZM59.96 148.93L79.03 137.93L98.09 148.93V170.93L79 181.93L60 170.93L59.96 148.93ZM59.96 217.18L79.03 206.18L98.09 217.18V239.18L79 250.18L60 239.17L59.96 217.18ZM59.96 285.42L79.03 274.42L98.09 285.42V307.42L79 318.42L60 307.42L59.96 285.42ZM59.96 353.67L79.03 342.67L98.09 353.67V375.67L79 386.67L60 375.66L59.96 353.67ZM59.96 421.92L79.03 410.92L98.09 421.92V443.92L79 454.91L60 443.91L59.96 421.92ZM59.96 490.16L79.03 479.16L98.09 490.16V512.16L79 523.16L60 512.16L59.96 490.16ZM59.96 558.41L79 547.4L98.06 558.4V580.4L79 591.41L60 580.4L59.96 558.41ZM59.96 626.65L79.03 615.65L98.09 626.65V648.65L79 659.65L60 648.65L59.96 626.65ZM59.96 694.9L79.03 683.9L98.09 694.9V716.9L79 727.9L60 716.89L59.96 694.9ZM1413 750.84L1393.94 761.84L1374.87 750.84V728.84L1393.94 717.84L1413 728.84V750.84ZM1413 682.59L1393.94 693.59L1374.87 682.59V660.59L1393.94 649.59L1413 660.59V682.59ZM1413 614.34L1393.94 625.34L1374.87 614.34V592.34L1393.94 581.34L1413 592.34V614.34ZM1413 546.1L1393.94 557.1L1374.87 546.1V524.1L1393.94 513.1L1413 524.1V546.1ZM1413 477.85L1393.94 488.85L1374.87 477.85V455.85L1393.94 444.85L1413 455.85V477.85ZM1413 409.61L1393.94 420.61L1374.87 409.61V387.61L1393.94 376.61L1413 387.61V409.61ZM1413 341.36L1393.94 352.36L1374.87 341.36V319.36L1393.94 308.36L1413 319.36V341.36ZM1413 273.11L1393.94 284.11L1374.87 273.11V251.11L1393.94 240.11L1413 251.11V273.11ZM1413 204.87L1393.94 215.87L1374.87 204.87V182.87L1393.94 171.87L1413 182.87V204.87ZM1413 136.62L1393.94 147.62L1374.87 136.62V114.62L1393.94 103.62L1413 114.62V136.62ZM99.22 148.93L118.28 137.93L137.35 148.93V170.93L118.28 181.93L99.22 170.93V148.93ZM99.22 217.18L118.28 206.18L137.35 217.18V239.18L118.28 250.18L99.22 239.18V217.18ZM99.22 285.42L118.28 274.42L137.35 285.42V307.42L118.28 318.42L99.22 307.42V285.42ZM99.22 353.67L118.28 342.67L137.35 353.67V375.67L118.28 386.67L99.22 375.67V353.67ZM99.22 421.92L118.28 410.92L137.35 421.92V443.92L118.28 454.92L99.22 443.92V421.92ZM99.22 490.16L118.28 479.16L137.35 490.16V512.16L118.28 523.16L99.22 512.16V490.16ZM99.22 558.41L118.28 547.41L137.35 558.41V580.41L118.28 591.41L99.22 580.41V558.41ZM99.22 626.65L118.28 615.65L137.35 626.65V648.65L118.28 659.65L99.22 648.65V626.65ZM1373.79 682.59L1354.73 693.59L1335.66 682.59V660.59L1354.73 649.59L1373.79 660.59V682.59ZM1373.79 614.34L1354.73 625.34L1335.66 614.34V592.34L1354.73 581.34L1373.79 592.34V614.34ZM1373.79 546.1L1354.73 557.1L1335.66 546.1V524.1L1354.73 513.1L1373.79 524.1V546.1ZM1373.79 477.85L1354.73 488.85L1335.66 477.85V455.85L1354.73 444.85L1373.79 455.85V477.85ZM1373.79 409.61L1354.73 420.61L1335.66 409.61V387.61L1354.73 376.61L1373.79 387.61V409.61ZM1373.79 341.36L1354.73 352.36L1335.66 341.36V319.36L1354.73 308.36L1373.79 319.36V341.36ZM1373.79 273.11L1354.73 284.11L1335.66 273.11V251.11L1354.73 240.11L1373.79 251.11V273.11ZM1373.79 204.87L1354.73 215.87L1335.66 204.87V182.87L1354.73 171.87L1373.79 182.87V204.87ZM138.47 217.18L157.53 206.18L176.6 217.18V239.18L157.53 250.18L138.47 239.18V217.18ZM138.47 285.42L157.53 274.42L176.6 285.42V307.42L157.53 318.42L138.47 307.42V285.42ZM138.47 353.67L157.53 342.67L176.6 353.67V375.67L157.53 386.67L138.47 375.67V353.67ZM138.47 421.92L157.53 410.92L176.6 421.92V443.92L157.53 454.92L138.47 443.92V421.92ZM138.47 490.16L157.53 479.16L176.6 490.16V512.16L157.53 523.16L138.47 512.16V490.16ZM138.47 558.41L157.53 547.41L176.6 558.41V580.41L157.53 591.41L138.47 580.41V558.41ZM1334.54 614.34L1315.47 625.34L1296.41 614.34V592.34L1315.48 581.34L1334.54 592.34V614.34ZM1334.54 546.1L1315.47 557.1L1296.41 546.1V524.1L1315.48 513.1L1334.54 524.1V546.1ZM1334.54 477.85L1315.47 488.85L1296.41 477.85V455.85L1315.48 444.85L1334.54 455.85V477.85ZM1334.54 409.61L1315.47 420.61L1296.41 409.61V387.61L1315.48 376.61L1334.54 387.61V409.61ZM1334.54 341.36L1315.47 352.36L1296.41 341.36V319.36L1315.48 308.36L1334.54 319.36V341.36ZM1334.54 273.11L1315.47 284.11L1296.41 273.11V251.11L1315.48 240.11L1334.54 251.11V273.11ZM177.72 285.42L196.79 274.42L215.85 285.42V307.42L196.78 318.42L177.72 307.42V285.42ZM177.72 353.67L196.79 342.67L215.85 353.67V375.67L196.78 386.67L177.72 375.67V353.67ZM177.72 421.92L196.79 410.92L215.85 421.92V443.92L196.78 454.92L177.72 443.92V421.92ZM177.72 490.16L196.79 479.16L215.85 490.16V512.16L196.78 523.16L177.72 512.16V490.16ZM177.72 558.41L196.79 547.41L215.85 558.41V580.41L196.78 591.41L177.72 580.41V558.41ZM1295.29 546.1L1276.22 557.1L1257.16 546.1V524.1L1276.23 513.1L1295.29 524.1V546.1ZM1295.29 477.85L1276.22 488.85L1257.16 477.85V455.85L1276.23 444.85L1295.29 455.85V477.85ZM1295.29 409.61L1276.22 420.61L1257.16 409.61V387.61L1276.23 376.61L1295.29 387.61V409.61ZM1295.29 341.36L1276.22 352.36L1257.16 341.36V319.36L1276.23 308.36L1295.29 319.36V341.36ZM1295.29 273.11L1276.22 284.11L1257.16 273.11V251.11L1276.23 240.11L1295.29 251.11V273.11ZM217 285.42L236.07 274.42L255.13 285.42V307.42L236.06 318.42L217 307.42V285.42ZM217 353.67L236.07 342.67L255.13 353.67V375.67L236.06 386.67L217 375.67V353.67ZM217 421.92L236.07 410.92L255.13 421.92V443.92L236.06 454.92L217 443.92V421.92ZM217 490.16L236.07 479.16L255.13 490.16V512.16L236.06 523.16L217 512.16V490.16ZM1256 477.85L1236.94 488.85L1217.87 477.85V455.85L1236.94 444.85L1256 455.85V477.85ZM1256 409.61L1236.94 420.61L1217.87 409.61V387.61L1236.94 376.61L1256 387.61V409.61ZM1256 341.36L1236.94 352.36L1217.87 341.36V319.36L1236.94 308.36L1256 319.36V341.36ZM256.2 353.67L275.26 342.67L294.33 353.67V375.67L275.26 386.67L256.2 375.67V353.67ZM256.2 421.92L275.26 410.92L294.33 421.92V443.92L275.26 454.92L256.2 443.92V421.92ZM1216.75 477.85L1197.69 488.85L1178.62 477.85V455.85L1197.69 444.85L1216.75 455.85V477.85ZM1216.75 409.61L1197.69 420.61L1178.62 409.61V387.61L1197.69 376.61L1216.75 387.61V409.61ZM315.07 387.61L334.14 376.61L353.2 387.61V409.61L334.13 420.61L315.07 409.61V387.61ZM354.32 387.61L373.39 376.61L392.45 387.61V409.61L373.39 420.61L354.32 409.61V387.61ZM393.57 387.61L412.64 376.61L431.7 387.61V409.61L412.64 420.61L393.57 409.61V387.61ZM432.83 387.61L451.9 376.61L470.96 387.61V409.61L451.89 420.61L432.83 409.61V387.61ZM472.08 387.61L491.15 376.61L510.21 387.61V409.61L491.14 420.61L472.08 409.61V387.61ZM511.33 387.61L530.4 376.61L549.46 387.61V409.61L530.4 420.61L511.33 409.61V387.61ZM550.58 387.61L569.65 376.61L588.71 387.61V409.61L569.65 420.61L550.58 409.61V387.61ZM589.84 387.61L608.91 376.61L627.97 387.61V409.61L608.9 420.61L589.84 409.61V387.61ZM629.09 387.61L648.16 376.61L667.22 387.61V409.61L648.15 420.61L629.09 409.61V387.61ZM668.34 387.61L687.41 376.61L706.47 387.61V409.61L687.41 420.61L668.34 409.61V387.61ZM707.59 387.61L726.66 376.61L745.72 387.61V409.61L726.66 420.61L707.59 409.61V387.61ZM746.85 387.61L765.92 376.61L784.98 387.61V409.61L765.91 420.61L746.85 409.61V387.61ZM786.1 387.61L805.17 376.61L824.23 387.61V409.61L805.16 420.61L786.1 409.61V387.61ZM825.35 387.61L844.42 376.61L863.48 387.61V409.61L844.41 420.61L825.35 409.61V387.61ZM864.6 387.61L883.67 376.61L902.73 387.61V409.61L883.67 420.61L864.6 409.61V387.61ZM903.85 387.61L922.92 376.61L941.99 387.61V409.61L922.92 420.61L903.85 409.61V387.61ZM943.11 387.61L962.18 376.61L981.24 387.61V409.61L962.17 420.61L943.11 409.61V387.61ZM982.36 387.61L1001.43 376.61L1020.49 387.61V409.61L1001.42 420.61L982.36 409.61V387.61ZM1021.61 387.61L1040.68 376.61L1059.74 387.61V409.61L1040.68 420.61L1021.61 409.61V387.61ZM1060.86 387.61L1079.93 376.61L1098.99 387.61V409.61L1079.93 420.61L1060.86 409.61V387.61ZM1100.12 387.61L1119.19 376.61L1138.25 387.61V409.61L1119.18 420.61L1100.12 409.61V387.61ZM1139.37 387.61L1158.44 376.61L1177.5 387.61V409.61L1158.43 420.61L1139.37 409.61V387.61ZM1197.13 421.91V443.91L1178.06 454.91L1159 443.91V421.91L1178.06 410.91L1197.13 421.91ZM1157.88 443.91L1138.81 454.91L1119.75 443.91V421.91L1138.81 410.91L1157.88 421.91V443.91ZM1118.63 443.91L1099.56 454.91L1080.49 443.91V421.91L1099.56 410.91L1118.63 421.91V443.91ZM1079.37 443.91L1060.3 454.91L1041.24 443.91V421.91L1060.31 410.91L1079.37 421.91V443.91ZM1040.12 443.91L1021.05 454.91L1001.99 443.91V421.91L1021.06 410.91L1040.12 421.91V443.91ZM1000.87 443.91L981.8 454.91L962.74 443.91V421.91L981.8 410.91L1000.87 421.91V443.91ZM961.62 443.91L942.55 454.91L923.49 443.91V421.91L942.55 410.91L961.62 421.91V443.91ZM922.36 443.91L903.29 454.91L884.23 443.91V421.91L903.3 410.91L922.36 421.91V443.91ZM883.11 443.91L864.04 454.91L844.98 443.91V421.91L864.05 410.91L883.11 421.91V443.91ZM843.86 443.91L824.79 454.91L805.73 443.91V421.91L824.79 410.91L843.86 421.91V443.91ZM804.61 443.91L785.54 454.91L766.48 443.91V421.91L785.54 410.91L804.61 421.91V443.91ZM765.35 443.91L746.28 454.91L727.22 443.91V421.91L746.29 410.91L765.35 421.91V443.91ZM726.1 443.91L707.03 454.91L687.97 443.91V421.91L707.04 410.91L726.1 421.91V443.91ZM686.85 443.91L667.78 454.91L648.72 443.91V421.91L667.78 410.91L686.85 421.91V443.91ZM647.6 443.91L628.53 454.91L609.47 443.91V421.91L628.53 410.91L647.6 421.91V443.91ZM608.35 443.91L589.27 454.91L570.21 443.91V421.91L589.28 410.91L608.35 421.91V443.91ZM569.09 443.91L550.02 454.91L530.96 443.91V421.91L550.03 410.91L569.09 421.91V443.91ZM529.84 443.91L510.77 454.91L491.71 443.91V421.91L510.77 410.91L529.84 421.91V443.91ZM490.59 443.91L471.52 454.91L452.46 443.91V421.91L471.52 410.91L490.59 421.91V443.91ZM451.34 443.91L432.27 454.91L413.2 443.91V421.91L432.27 410.91L451.34 421.91V443.91ZM412.08 443.91L393.01 454.91L373.95 443.91V421.91L393.02 410.91L412.08 421.91V443.91ZM372.83 443.91L353.76 454.91L334.7 443.91V421.91L353.76 410.91L372.83 421.91V443.91ZM333.58 443.91L314.51 454.91L295.45 443.91V421.91L314.51 410.91L333.58 421.91V443.91ZM275.82 409.62V387.62L294.89 376.62L313.95 387.62V409.62L294.88 420.62L275.82 409.62ZM295.45 353.68L314.51 342.68L333.58 353.68V375.68L314.51 386.68L295.45 375.68V353.68ZM334.7 353.68L353.76 342.68L372.83 353.68V375.68L353.76 386.68L334.7 375.68V353.68ZM373.95 353.68L393.02 342.68L412.08 353.68V375.68L393.01 386.68L373.95 375.68V353.68ZM413.2 353.68L432.27 342.68L451.34 353.68V375.68L432.27 386.68L413.2 375.68V353.68ZM452.46 353.68L471.52 342.68L490.59 353.68V375.68L471.52 386.68L452.46 375.68V353.68ZM491.71 353.68L510.77 342.68L529.84 353.68V375.68L510.77 386.68L491.71 375.68V353.68ZM530.96 353.68L550.03 342.68L569.09 353.68V375.68L550.02 386.68L530.96 375.68V353.68ZM570.21 353.68L589.28 342.68L608.35 353.68V375.68L589.27 386.68L570.21 375.68V353.68ZM609.47 353.68L628.53 342.68L647.6 353.68V375.68L628.53 386.68L609.47 375.68V353.68ZM648.72 353.68L667.78 342.68L686.85 353.68V375.68L667.78 386.68L648.72 375.68V353.68ZM687.97 353.68L707.04 342.68L726.1 353.68V375.68L707.03 386.68L687.97 375.68V353.68ZM727.22 353.68L746.29 342.68L765.35 353.68V375.68L746.28 386.68L727.22 375.68V353.68ZM766.48 353.68L785.54 342.68L804.61 353.68V375.68L785.54 386.68L766.48 375.68V353.68ZM805.73 353.68L824.79 342.68L843.86 353.68V375.68L824.79 386.68L805.73 375.68V353.68ZM844.98 353.68L864.05 342.68L883.11 353.68V375.68L864.04 386.68L844.98 375.68V353.68ZM884.23 353.68L903.3 342.68L922.36 353.68V375.68L903.29 386.68L884.23 375.68V353.68ZM923.49 353.68L942.55 342.68L961.62 353.68V375.68L942.55 386.68L923.49 375.68V353.68ZM962.74 353.68L981.8 342.68L1000.87 353.68V375.68L981.8 386.68L962.74 375.68V353.68ZM1001.99 353.68L1021.06 342.68L1040.12 353.68V375.68L1021.05 386.68L1001.99 375.68V353.68ZM1041.24 353.68L1060.31 342.68L1079.37 353.68V375.68L1060.3 386.68L1041.24 375.68V353.68ZM1080.49 353.68L1099.56 342.68L1118.63 353.68V375.68L1099.56 386.68L1080.49 375.68V353.68ZM1119.75 353.68L1138.81 342.68L1157.88 353.68V375.68L1138.81 386.68L1119.75 375.68V353.68ZM1159 353.68L1178.06 342.68L1197.13 353.68V375.68L1178.06 386.68L1159 375.68V353.68ZM1177.5 477.86L1158.43 488.86L1139.37 477.86V455.86L1158.44 444.86L1177.5 455.86V477.86ZM1138.25 477.86L1119.18 488.86L1100.12 477.86V455.86L1119.19 444.86L1138.25 455.86V477.86ZM1098.99 477.86L1079.93 488.86L1060.86 477.86V455.86L1079.93 444.86L1098.99 455.86V477.86ZM1059.74 477.86L1040.68 488.86L1021.61 477.86V455.86L1040.68 444.86L1059.74 455.86V477.86ZM1020.49 477.86L1001.42 488.86L982.36 477.86V455.86L1001.43 444.86L1020.49 455.86V477.86ZM981.24 477.86L962.17 488.86L943.11 477.86V455.86L962.18 444.86L981.24 455.86V477.86ZM941.99 477.86L922.92 488.86L903.85 477.86V455.86L922.92 444.86L941.99 455.86V477.86ZM902.73 477.86L883.67 488.86L864.6 477.86V455.86L883.67 444.86L902.73 455.86V477.86ZM863.48 477.86L844.41 488.86L825.35 477.86V455.86L844.42 444.86L863.48 455.86V477.86ZM824.23 477.86L805.16 488.86L786.1 477.86V455.86L805.17 444.86L824.23 455.86V477.86ZM784.98 477.86L765.91 488.86L746.85 477.86V455.86L765.92 444.86L784.98 455.86V477.86ZM745.72 477.86L726.66 488.86L707.59 477.86V455.86L726.66 444.86L745.72 455.86V477.86ZM706.47 477.86L687.41 488.86L668.34 477.86V455.86L687.41 444.86L706.47 455.86V477.86ZM667.22 477.86L648.15 488.86L629.09 477.86V455.86L648.16 444.86L667.22 455.86V477.86ZM627.97 477.86L608.9 488.86L589.84 477.86V455.86L608.91 444.86L627.97 455.86V477.86ZM588.71 477.86L569.65 488.86L550.58 477.86V455.86L569.65 444.86L588.71 455.86V477.86ZM549.46 477.86L530.4 488.86L511.33 477.86V455.86L530.4 444.86L549.46 455.86V477.86ZM510.21 477.86L491.14 488.86L472.08 477.86V455.86L491.15 444.86L510.21 455.86V477.86ZM470.96 477.86L451.89 488.86L432.83 477.86V455.86L451.9 444.86L470.96 455.86V477.86ZM431.7 477.86L412.64 488.86L393.57 477.86V455.86L412.64 444.86L431.7 455.86V477.86ZM392.45 477.86L373.39 488.86L354.32 477.86V455.86L373.39 444.86L392.45 455.86V477.86ZM353.2 477.86L334.13 488.86L315.07 477.86V455.86L334.14 444.86L353.2 455.86V477.86ZM313.95 477.86L294.88 488.86L275.82 477.86V455.86L294.89 444.86L313.95 455.86V477.86ZM1236.38 353.68V375.68L1217.31 386.68L1198.25 375.68V353.68L1217.32 342.68L1236.38 353.68ZM1236.38 421.93V443.93L1217.31 454.93L1198.25 443.93V421.93L1217.32 410.93L1236.38 421.93ZM236.59 477.85V455.85L255.66 444.85L274.72 455.85V477.85L255.66 488.85L236.59 477.85ZM236.59 409.61V387.61L255.66 376.61L274.72 387.61V409.61L255.66 420.61L236.59 409.61ZM236.59 341.36V319.36L255.66 308.36L274.72 319.36V341.36L255.66 352.36L236.59 341.36ZM275.85 319.36L294.92 308.36L313.98 319.36V341.36L294.91 352.36L275.85 341.36V319.36ZM315.1 319.36L334.17 308.36L353.23 319.36V341.36L334.16 352.36L315.1 341.36V319.36ZM354.35 319.36L373.42 308.36L392.48 319.36V341.36L373.42 352.36L354.35 341.36V319.36ZM393.6 319.36L412.67 308.36L431.73 319.36V341.36L412.67 352.36L393.6 341.36V319.36ZM432.86 319.36L451.93 308.36L470.99 319.36V341.36L451.92 352.36L432.86 341.36V319.36ZM472.11 319.36L491.18 308.36L510.24 319.36V341.36L491.17 352.36L472.11 341.36V319.36ZM511.36 319.36L530.43 308.36L549.49 319.36V341.36L530.43 352.36L511.36 341.36V319.36ZM550.61 319.36L569.68 308.36L588.74 319.36V341.36L569.68 352.36L550.61 341.36V319.36ZM589.87 319.36L608.94 308.36L628 319.36V341.36L608.93 352.36L589.87 341.36V319.36ZM629.12 319.36L648.19 308.36L667.25 319.36V341.36L648.18 352.36L629.12 341.36V319.36ZM668.37 319.36L687.44 308.36L706.5 319.36V341.36L687.44 352.36L668.37 341.36V319.36ZM707.62 319.36L726.69 308.36L745.75 319.36V341.36L726.69 352.36L707.62 341.36V319.36ZM746.88 319.36L765.95 308.36L785.01 319.36V341.36L765.94 352.36L746.88 341.36V319.36ZM786.13 319.36L805.2 308.36L824.26 319.36V341.36L805.19 352.36L786.13 341.36V319.36ZM825.38 319.36L844.45 308.36L863.51 319.36V341.36L844.44 352.36L825.38 341.36V319.36ZM864.63 319.36L883.7 308.36L902.76 319.36V341.36L883.7 352.36L864.63 341.36V319.36ZM903.88 319.36L922.95 308.36L942.02 319.36V341.36L922.95 352.36L903.88 341.36V319.36ZM943.14 319.36L962.21 308.36L981.27 319.36V341.36L962.2 352.36L943.14 341.36V319.36ZM982.39 319.36L1001.46 308.36L1020.52 319.36V341.36L1001.45 352.36L982.39 341.36V319.36ZM1021.64 319.36L1040.71 308.36L1059.77 319.36V341.36L1040.71 352.36L1021.64 341.36V319.36ZM1060.89 319.36L1079.96 308.36L1099.02 319.36V341.36L1079.96 352.36L1060.89 341.36V319.36ZM1100.15 319.36L1119.22 308.36L1138.28 319.36V341.36L1119.21 352.36L1100.15 341.36V319.36ZM1139.4 319.36L1158.47 308.36L1177.53 319.36V341.36L1158.46 352.36L1139.4 341.36V319.36ZM1178.65 319.36L1197.72 308.36L1216.78 319.36V341.36L1197.72 352.36L1178.65 341.36V319.36ZM1236.41 512.14L1217.34 523.14L1198.28 512.14V490.14L1217.35 479.14L1236.41 490.14V512.14ZM1197.16 512.14L1178.09 523.14L1159.03 512.14V490.14L1178.09 479.14L1197.16 490.14V512.14ZM1157.91 512.14L1138.84 523.14L1119.78 512.14V490.14L1138.84 479.14L1157.91 490.14V512.14ZM1118.66 512.14L1099.59 523.14L1080.52 512.14V490.14L1099.59 479.14L1118.66 490.14V512.14ZM1079.4 512.14L1060.33 523.14L1041.27 512.14V490.14L1060.34 479.14L1079.4 490.14V512.14ZM1040.15 512.14L1021.08 523.14L1002.02 512.14V490.14L1021.09 479.14L1040.15 490.14V512.14ZM1000.9 512.14L981.83 523.14L962.77 512.14V490.14L981.83 479.14L1000.9 490.14V512.14ZM961.65 512.14L942.58 523.14L923.52 512.14V490.14L942.58 479.14L961.65 490.14V512.14ZM922.39 512.14L903.32 523.14L884.26 512.14V490.14L903.33 479.14L922.39 490.14V512.14ZM883.14 512.14L864.07 523.14L845.01 512.14V490.14L864.08 479.14L883.14 490.14V512.14ZM843.89 512.14L824.82 523.14L805.76 512.14V490.14L824.82 479.14L843.89 490.14V512.14ZM804.64 512.14L785.57 523.14L766.51 512.14V490.14L785.57 479.14L804.64 490.14V512.14ZM765.38 512.14L746.31 523.14L727.25 512.14V490.14L746.32 479.14L765.38 490.14V512.14ZM726.13 512.14L707.06 523.14L688 512.14V490.14L707.07 479.14L726.13 490.14V512.14ZM686.88 512.14L667.81 523.14L648.75 512.14V490.14L667.81 479.14L686.88 490.14V512.14ZM647.63 512.14L628.56 523.14L609.5 512.14V490.14L628.56 479.14L647.63 490.14V512.14ZM608.38 512.14L589.3 523.14L570.24 512.14V490.14L589.31 479.14L608.38 490.14V512.14ZM569.12 512.14L550.05 523.14L530.99 512.14V490.14L550.06 479.14L569.12 490.14V512.14ZM529.87 512.14L510.8 523.14L491.74 512.14V490.14L510.8 479.14L529.87 490.14V512.14ZM490.62 512.14L471.55 523.14L452.49 512.14V490.14L471.55 479.14L490.62 490.14V512.14ZM451.37 512.14L432.3 523.14L413.23 512.14V490.14L432.3 479.14L451.37 490.14V512.14ZM412.11 512.14L393.04 523.14L373.98 512.14V490.14L393.05 479.14L412.11 490.14V512.14ZM372.86 512.14L353.79 523.14L334.73 512.14V490.14L353.79 479.14L372.86 490.14V512.14ZM333.61 512.14L314.54 523.14L295.48 512.14V490.14L314.54 479.14L333.61 490.14V512.14ZM294.36 512.14L275.29 523.14L256.23 512.14V490.14L275.29 479.14L294.36 490.14V512.14ZM256.23 285.42L275.29 274.42L294.36 285.42V307.42L275.29 318.42L256.23 307.42V285.42ZM295.48 285.42L314.54 274.42L333.61 285.42V307.42L314.54 318.42L295.48 307.42V285.42ZM334.73 285.42L353.79 274.42L372.86 285.42V307.42L353.79 318.42L334.73 307.42V285.42ZM373.98 285.42L393.05 274.42L412.11 285.42V307.42L393.04 318.42L373.98 307.42V285.42ZM413.23 285.42L432.3 274.42L451.37 285.42V307.42L432.3 318.42L413.23 307.42V285.42ZM452.49 285.42L471.55 274.42L490.62 285.42V307.42L471.55 318.42L452.49 307.42V285.42ZM491.74 285.42L510.8 274.42L529.87 285.42V307.42L510.8 318.42L491.74 307.42V285.42ZM530.99 285.42L550.06 274.42L569.12 285.42V307.42L550.05 318.42L530.99 307.42V285.42ZM570.24 285.42L589.31 274.42L608.38 285.42V307.42L589.3 318.42L570.24 307.42V285.42ZM609.5 285.42L628.56 274.42L647.63 285.42V307.42L628.56 318.42L609.5 307.42V285.42ZM648.75 285.42L667.81 274.42L686.88 285.42V307.42L667.81 318.42L648.75 307.42V285.42ZM688 285.42L707.07 274.42L726.13 285.42V307.42L707.06 318.42L688 307.42V285.42ZM727.25 285.42L746.32 274.42L765.38 285.42V307.42L746.31 318.42L727.25 307.42V285.42ZM766.51 285.42L785.57 274.42L804.64 285.42V307.42L785.57 318.42L766.51 307.42V285.42ZM805.76 285.42L824.82 274.42L843.89 285.42V307.42L824.82 318.42L805.76 307.42V285.42ZM845.01 285.42L864.08 274.42L883.14 285.42V307.42L864.07 318.42L845.01 307.42V285.42ZM884.26 285.42L903.33 274.42L922.39 285.42V307.42L903.32 318.42L884.26 307.42V285.42ZM923.52 285.42L942.58 274.42L961.65 285.42V307.42L942.58 318.42L923.52 307.42V285.42ZM962.77 285.42L981.83 274.42L1000.9 285.42V307.42L981.83 318.42L962.77 307.42V285.42ZM1002.02 285.42L1021.09 274.42L1040.15 285.42V307.42L1021.08 318.42L1002.02 307.42V285.42ZM1041.27 285.42L1060.34 274.42L1079.4 285.42V307.42L1060.33 318.42L1041.27 307.42V285.42ZM1080.52 285.42L1099.59 274.42L1118.66 285.42V307.42L1099.59 318.42L1080.52 307.42V285.42ZM1119.78 285.42L1138.84 274.42L1157.91 285.42V307.42L1138.84 318.42L1119.78 307.42V285.42ZM1159.03 285.42L1178.09 274.42L1197.16 285.42V307.42L1178.09 318.42L1159.03 307.42V285.42ZM1198.28 285.42L1217.35 274.42L1236.41 285.42V307.42L1217.34 318.42L1198.28 307.42V285.42ZM1256 546.1L1236.94 557.1L1217.87 546.1V524.1L1236.94 513.1L1256 524.1V546.1ZM1216.75 546.1L1197.69 557.1L1178.62 546.1V524.1L1197.69 513.1L1216.75 524.1V546.1ZM1177.5 546.1L1158.43 557.1L1139.37 546.1V524.1L1158.44 513.1L1177.5 524.1V546.1ZM1138.25 546.1L1119.18 557.1L1100.12 546.1V524.1L1119.19 513.1L1138.25 524.1V546.1ZM1098.99 546.1L1079.93 557.1L1060.86 546.1V524.1L1079.93 513.1L1098.99 524.1V546.1ZM1059.74 546.1L1040.68 557.1L1021.61 546.1V524.1L1040.68 513.1L1059.74 524.1V546.1ZM1020.49 546.1L1001.42 557.1L982.36 546.1V524.1L1001.43 513.1L1020.49 524.1V546.1ZM981.24 546.1L962.17 557.1L943.11 546.1V524.1L962.18 513.1L981.24 524.1V546.1ZM941.99 546.1L922.92 557.1L903.85 546.1V524.1L922.92 513.1L941.99 524.1V546.1ZM902.73 546.1L883.67 557.1L864.6 546.1V524.1L883.67 513.1L902.73 524.1V546.1ZM863.48 546.1L844.41 557.1L825.35 546.1V524.1L844.42 513.1L863.48 524.1V546.1ZM824.23 546.1L805.16 557.1L786.1 546.1V524.1L805.17 513.1L824.23 524.1V546.1ZM784.98 546.1L765.91 557.1L746.85 546.1V524.1L765.92 513.1L784.98 524.1V546.1ZM745.72 546.1L726.66 557.1L707.59 546.1V524.1L726.66 513.1L745.72 524.1V546.1ZM706.47 546.1L687.41 557.1L668.34 546.1V524.1L687.41 513.1L706.47 524.1V546.1ZM667.22 546.1L648.15 557.1L629.09 546.1V524.1L648.16 513.1L667.22 524.1V546.1ZM627.97 546.1L608.9 557.1L589.84 546.1V524.1L608.91 513.1L627.97 524.1V546.1ZM588.71 546.1L569.65 557.1L550.58 546.1V524.1L569.65 513.1L588.71 524.1V546.1ZM549.46 546.1L530.4 557.1L511.33 546.1V524.1L530.4 513.1L549.46 524.1V546.1ZM510.21 546.1L491.14 557.1L472.08 546.1V524.1L491.15 513.1L510.21 524.1V546.1ZM470.96 546.1L451.89 557.1L432.83 546.1V524.1L451.9 513.1L470.96 524.1V546.1ZM431.7 546.1L412.64 557.1L393.57 546.1V524.1L412.64 513.1L431.7 524.1V546.1ZM392.45 546.1L373.39 557.1L354.32 546.1V524.1L373.39 513.1L392.45 524.1V546.1ZM353.2 546.1L334.13 557.1L315.07 546.1V524.1L334.14 513.1L353.2 524.1V546.1ZM313.95 546.1L294.88 557.1L275.82 546.1V524.1L294.89 513.1L313.95 524.1V546.1ZM274.69 546.1L255.63 557.1L236.56 546.1V524.1L255.63 513.1L274.69 524.1V546.1ZM1275.66 285.42V307.42L1256.59 318.42L1237.53 307.42V285.42L1256.6 274.42L1275.66 285.42ZM1275.66 353.67V375.67L1256.59 386.67L1237.53 375.67V353.67L1256.6 342.67L1275.66 353.67ZM1275.66 421.92V443.92L1256.59 454.92L1237.53 443.92V421.92L1256.6 410.92L1275.66 421.92ZM1275.66 490.16V512.16L1256.59 523.16L1237.53 512.16V490.16L1256.6 479.16L1275.66 490.16ZM197.34 546.1V524.1L216.41 513.1L235.47 524.1V546.1L216.41 557.1L197.34 546.1ZM197.34 477.85V455.85L216.41 444.85L235.47 455.85V477.85L216.41 488.85L197.34 477.85ZM197.34 409.61V387.61L216.41 376.61L235.47 387.61V409.61L216.41 420.61L197.34 409.61ZM197.34 341.36V319.36L216.41 308.36L235.47 319.36V341.36L216.41 352.36L197.34 341.36ZM197.34 251.13L216.41 240.13L235.47 251.13V273.13L216.41 284.13L197.34 273.13V251.13ZM236.59 251.13L255.66 240.13L274.72 251.13V273.13L255.66 284.13L236.59 273.13V251.13ZM275.85 251.13L294.92 240.13L313.98 251.13V273.13L294.91 284.13L275.85 273.13V251.13ZM315.1 251.13L334.17 240.13L353.23 251.13V273.13L334.16 284.13L315.1 273.13V251.13ZM354.35 251.13L373.42 240.13L392.48 251.13V273.13L373.42 284.13L354.35 273.13V251.13ZM393.6 251.13L412.67 240.13L431.73 251.13V273.13L412.67 284.13L393.6 273.13V251.13ZM432.86 251.13L451.93 240.13L470.99 251.13V273.13L451.92 284.13L432.86 273.13V251.13ZM472.11 251.13L491.18 240.13L510.24 251.13V273.13L491.17 284.13L472.11 273.13V251.13ZM511.36 251.13L530.43 240.13L549.49 251.13V273.13L530.43 284.13L511.36 273.13V251.13ZM550.61 251.13L569.68 240.13L588.74 251.13V273.13L569.68 284.13L550.61 273.13V251.13ZM589.87 251.13L608.94 240.13L628 251.13V273.13L608.93 284.13L589.87 273.13V251.13ZM629.12 251.13L648.19 240.13L667.25 251.13V273.13L648.18 284.13L629.12 273.13V251.13ZM668.37 251.13L687.44 240.13L706.5 251.13V273.13L687.44 284.13L668.37 273.13V251.13ZM707.62 251.13L726.69 240.13L745.75 251.13V273.13L726.69 284.13L707.62 273.13V251.13ZM746.88 251.13L765.95 240.13L785.01 251.13V273.13L765.94 284.13L746.88 273.13V251.13ZM786.13 251.13L805.2 240.13L824.26 251.13V273.13L805.19 284.13L786.13 273.13V251.13ZM825.38 251.13L844.45 240.13L863.51 251.13V273.13L844.44 284.13L825.38 273.13V251.13ZM864.63 251.13L883.7 240.13L902.76 251.13V273.13L883.7 284.13L864.63 273.13V251.13ZM903.88 251.13L922.95 240.13L942.02 251.13V273.13L922.95 284.13L903.88 273.13V251.13ZM943.14 251.13L962.21 240.13L981.27 251.13V273.13L962.2 284.13L943.14 273.13V251.13ZM982.39 251.13L1001.46 240.13L1020.52 251.13V273.13L1001.45 284.13L982.39 273.13V251.13ZM1021.64 251.13L1040.71 240.13L1059.77 251.13V273.13L1040.71 284.13L1021.64 273.13V251.13ZM1060.89 251.13L1079.96 240.13L1099.02 251.13V273.13L1079.96 284.13L1060.89 273.13V251.13ZM1100.15 251.13L1119.22 240.13L1138.28 251.13V273.13L1119.21 284.13L1100.15 273.13V251.13ZM1139.4 251.13L1158.47 240.13L1177.53 251.13V273.13L1158.46 284.13L1139.4 273.13V251.13ZM1178.65 251.13L1197.72 240.13L1216.78 251.13V273.13L1197.72 284.13L1178.65 273.13V251.13ZM1217.9 251.13L1236.97 240.13L1256.03 251.13V273.13L1236.97 284.13L1217.9 273.13V251.13ZM1275.66 580.4L1256.59 591.4L1237.53 580.4V558.4L1256.6 547.4L1275.66 558.4V580.4ZM1236.41 580.4L1217.34 591.4L1198.28 580.4V558.4L1217.35 547.4L1236.41 558.4V580.4ZM1197.16 580.4L1178.09 591.4L1159.03 580.4V558.4L1178.09 547.4L1197.16 558.4V580.4ZM1157.91 580.4L1138.84 591.4L1119.78 580.4V558.4L1138.84 547.4L1157.91 558.4V580.4ZM1118.66 580.4L1099.59 591.4L1080.52 580.4V558.4L1099.59 547.4L1118.66 558.4V580.4ZM1079.4 580.4L1060.33 591.4L1041.27 580.4V558.4L1060.34 547.4L1079.4 558.4V580.4ZM1040.15 580.4L1021.08 591.4L1002.02 580.4V558.4L1021.09 547.4L1040.15 558.4V580.4ZM1000.9 580.4L981.83 591.4L962.77 580.4V558.4L981.83 547.4L1000.9 558.4V580.4ZM961.65 580.4L942.58 591.4L923.52 580.4V558.4L942.58 547.4L961.65 558.4V580.4ZM922.39 580.4L903.32 591.4L884.26 580.4V558.4L903.33 547.4L922.39 558.4V580.4ZM883.14 580.4L864.07 591.4L845 580.4V558.4L864.07 547.4L883.13 558.4L883.14 580.4ZM843.89 580.4L824.82 591.4L805.76 580.4V558.4L824.82 547.4L843.89 558.4V580.4ZM804.64 580.4L785.57 591.4L766.51 580.4V558.4L785.57 547.4L804.64 558.4V580.4ZM765.38 580.4L746.31 591.4L727.25 580.4V558.4L746.32 547.4L765.38 558.4V580.4ZM726.13 580.4L707.06 591.4L688 580.4V558.4L707.07 547.4L726.13 558.4V580.4ZM686.88 580.4L667.81 591.4L648.75 580.4V558.4L667.81 547.4L686.88 558.4V580.4ZM647.63 580.4L628.56 591.4L609.5 580.4V558.4L628.56 547.4L647.63 558.4V580.4ZM608.38 580.4L589.3 591.4L570.24 580.4V558.4L589.31 547.4L608.38 558.4V580.4ZM569.12 580.4L550.05 591.4L531 580.4V558.4L550.07 547.4L569.13 558.4L569.12 580.4ZM529.87 580.4L510.8 591.4L491.74 580.4V558.4L510.8 547.4L529.87 558.4V580.4ZM490.62 580.4L471.55 591.4L452.49 580.4V558.4L471.55 547.4L490.62 558.4V580.4ZM451.37 580.4L432.3 591.4L413.23 580.4V558.4L432.3 547.4L451.37 558.4V580.4ZM412.11 580.4L393.04 591.4L374 580.4V558.4L393.07 547.4L412.13 558.4L412.11 580.4ZM372.86 580.4L353.79 591.4L334.73 580.4V558.4L353.79 547.4L372.86 558.4V580.4ZM333.61 580.4L314.54 591.4L295.48 580.4V558.4L314.54 547.4L333.61 558.4V580.4ZM294.36 580.4L275.29 591.4L256.23 580.4V558.4L275.29 547.4L294.36 558.4V580.4ZM255.1 580.4L236.03 591.4L217 580.4V558.4L236.07 547.4L255.13 558.4L255.1 580.4ZM177.72 217.18L196.79 206.18L215.85 217.18V239.18L196.78 250.18L177.72 239.18V217.18ZM216.97 217.18L236.04 206.18L255.1 217.18V239.18L236.03 250.18L216.97 239.18V217.18ZM256.23 217.18L275.29 206.18L294.36 217.18V239.18L275.29 250.18L256.23 239.18V217.18ZM295.48 217.18L314.54 206.18L333.61 217.18V239.18L314.54 250.18L295.48 239.18V217.18ZM334.73 217.18L353.79 206.18L372.86 217.18V239.18L353.79 250.18L334.73 239.18V217.18ZM373.98 217.18L393.05 206.18L412.11 217.18V239.18L393.04 250.18L373.98 239.18V217.18ZM413.23 217.18L432.3 206.18L451.37 217.18V239.18L432.3 250.18L413.23 239.18V217.18ZM452.49 217.18L471.55 206.18L490.62 217.18V239.18L471.55 250.18L452.49 239.18V217.18ZM491.74 217.18L510.8 206.18L529.87 217.18V239.18L510.8 250.18L491.74 239.18V217.18ZM530.99 217.18L550.06 206.18L569.12 217.18V239.18L550.05 250.18L530.99 239.18V217.18ZM570.24 217.18L589.31 206.18L608.38 217.18V239.18L589.3 250.18L570.24 239.18V217.18ZM609.5 217.18L628.56 206.18L647.63 217.18V239.18L628.56 250.18L609.5 239.18V217.18ZM648.75 217.18L667.81 206.18L686.88 217.18V239.18L667.81 250.18L648.75 239.18V217.18ZM688 217.18L707.07 206.18L726.13 217.18V239.18L707.06 250.18L688 239.18V217.18ZM727.25 217.18L746.32 206.18L765.38 217.18V239.18L746.31 250.18L727.25 239.18V217.18ZM766.51 217.18L785.57 206.18L804.64 217.18V239.18L785.57 250.18L766.51 239.18V217.18ZM805.76 217.18L824.82 206.18L843.89 217.18V239.18L824.82 250.18L805.76 239.18V217.18ZM845.01 217.18L864.08 206.18L883.14 217.18V239.18L864.07 250.18L845.01 239.18V217.18ZM884.26 217.18L903.33 206.18L922.39 217.18V239.18L903.32 250.18L884.26 239.18V217.18ZM923.52 217.18L942.58 206.18L961.65 217.18V239.18L942.58 250.18L923.52 239.18V217.18ZM962.77 217.18L981.83 206.18L1000.9 217.18V239.18L981.83 250.18L962.77 239.18V217.18ZM1002.02 217.18L1021.09 206.18L1040.15 217.18V239.18L1021.08 250.18L1002.02 239.18V217.18ZM1041.27 217.18L1060.34 206.18L1079.4 217.18V239.18L1060.33 250.18L1041.27 239.18V217.18ZM1080.52 217.18L1099.59 206.18L1118.66 217.18V239.18L1099.59 250.18L1080.52 239.18V217.18ZM1119.78 217.18L1138.84 206.18L1157.91 217.18V239.18L1138.84 250.18L1119.78 239.18V217.18ZM1159.03 217.18L1178.09 206.18L1197.16 217.18V239.18L1178.09 250.18L1159.03 239.18V217.18ZM1198.28 217.18L1217.35 206.18L1236.41 217.18V239.18L1217.34 250.18L1198.28 239.18V217.18ZM1237.53 217.18L1256.6 206.18L1275.66 217.18V239.18L1256.59 250.18L1237.53 239.18V217.18ZM1276.79 217.18L1295.85 206.18L1314.92 217.18V239.18L1295.85 250.18L1276.79 239.18V217.18ZM1314.92 285.42V307.42L1295.85 318.42L1276.79 307.42V285.42L1295.85 274.42L1314.92 285.42ZM1314.92 353.67V375.67L1295.85 386.67L1276.79 375.67V353.67L1295.85 342.67L1314.92 353.67ZM1314.92 421.92V443.92L1295.85 454.92L1276.79 443.92V421.92L1295.85 410.92L1314.92 421.92ZM1314.92 490.16V512.16L1295.85 523.16L1276.79 512.16V490.16L1295.85 479.16L1314.92 490.16ZM1314.92 558.41V580.41L1295.85 591.41L1276.79 580.41V558.41L1295.85 547.41L1314.92 558.41ZM1295.29 614.34L1276.22 625.34L1257.16 614.34V592.34L1276.23 581.34L1295.29 592.34V614.34ZM1256.03 614.34L1236.97 625.34L1217.9 614.34V592.34L1236.97 581.34L1256.03 592.34V614.34ZM1216.78 614.34L1197.72 625.34L1178.65 614.34V592.34L1197.72 581.34L1216.78 592.34V614.34ZM1177.53 614.34L1158.46 625.34L1139.4 614.34V592.34L1158.47 581.34L1177.53 592.34V614.34ZM1138.28 614.34L1119.21 625.34L1100.15 614.34V592.34L1119.22 581.34L1138.28 592.34V614.34ZM1099.02 614.34L1079.96 625.34L1060.89 614.34V592.34L1079.96 581.34L1099.02 592.34V614.34ZM1059.77 614.34L1040.71 625.34L1021.64 614.34V592.34L1040.71 581.34L1059.77 592.34V614.34ZM1020.52 614.34L1001.45 625.34L982.39 614.34V592.34L1001.46 581.34L1020.52 592.34V614.34ZM981.27 614.34L962.2 625.34L943.14 614.34V592.34L962.21 581.34L981.27 592.34V614.34ZM942.02 614.34L922.95 625.34L903.88 614.34V592.34L922.95 581.34L942.02 592.34V614.34ZM902.76 614.34L883.7 625.34L864.63 614.34V592.34L883.7 581.34L902.76 592.34V614.34ZM863.51 614.34L844.44 625.34L825.38 614.34V592.34L844.45 581.34L863.51 592.34V614.34ZM824.26 614.34L805.19 625.34L786.13 614.34V592.34L805.2 581.34L824.26 592.34V614.34ZM785.01 614.34L765.94 625.34L746.88 614.34V592.34L765.95 581.34L785.01 592.34V614.34ZM745.75 614.34L726.69 625.34L707.62 614.34V592.34L726.69 581.34L745.75 592.34V614.34ZM706.5 614.34L687.44 625.34L668.37 614.34V592.34L687.44 581.34L706.5 592.34V614.34ZM667.25 614.34L648.18 625.34L629.12 614.34V592.34L648.19 581.34L667.25 592.34V614.34ZM628 614.34L608.93 625.34L589.87 614.34V592.34L608.94 581.34L628 592.34V614.34ZM588.74 614.34L569.68 625.34L550.61 614.34V592.34L569.68 581.34L588.74 592.34V614.34ZM549.49 614.34L530.43 625.34L511.36 614.34V592.34L530.43 581.34L549.49 592.34V614.34ZM510.24 614.34L491.17 625.34L472.11 614.34V592.34L491.18 581.34L510.24 592.34V614.34ZM470.99 614.34L451.92 625.34L432.86 614.34V592.34L451.93 581.34L470.99 592.34V614.34ZM431.73 614.34L412.67 625.34L393.6 614.34V592.34L412.67 581.34L431.73 592.34V614.34ZM392.48 614.34L373.42 625.34L354.35 614.34V592.34L373.42 581.34L392.48 592.34V614.34ZM353.23 614.34L334.16 625.34L315.1 614.34V592.34L334.17 581.34L353.23 592.34V614.34ZM313.98 614.34L294.91 625.34L275.85 614.34V592.34L294.92 581.34L313.98 592.34V614.34ZM274.72 614.34L255.66 625.34L236.59 614.34V592.34L255.66 581.34L274.72 592.34V614.34ZM235.47 614.34L216.41 625.34L197.34 614.34V592.34L216.41 581.34L235.47 592.34V614.34ZM196.22 614.34L177.16 625.34L158.09 614.34V592.34L177.16 581.34L196.22 592.34V614.34ZM158.09 546.1V524.1L177.16 513.1L196.22 524.1V546.1L177.16 557.1L158.09 546.1ZM158.09 477.85V455.85L177.16 444.85L196.22 455.85V477.85L177.16 488.85L158.09 477.85ZM158.09 409.61V387.61L177.16 376.61L196.22 387.61V409.61L177.16 420.61L158.09 409.61ZM158.09 341.36V319.36L177.16 308.36L196.22 319.36V341.36L177.16 352.36L158.09 341.36ZM158.09 273.11V251.11L177.16 240.11L196.22 251.11V273.11L177.16 284.11L158.09 273.11ZM158.09 182.88L177.16 171.88L196.22 182.88V204.88L177.16 215.88L158.09 204.88V182.88ZM197.34 182.88L216.41 171.88L235.47 182.88V204.88L216.41 215.88L197.34 204.88V182.88ZM236.59 182.88L255.66 171.88L274.72 182.88V204.88L255.66 215.88L236.59 204.88V182.88ZM275.85 182.88L294.92 171.88L313.98 182.88V204.88L294.91 215.88L275.85 204.88V182.88ZM315.1 182.88L334.17 171.88L353.23 182.88V204.88L334.16 215.88L315.1 204.88V182.88ZM354.35 182.88L373.42 171.88L392.48 182.88V204.88L373.42 215.88L354.35 204.88V182.88ZM393.6 182.88L412.67 171.88L431.73 182.88V204.88L412.67 215.88L393.6 204.88V182.88ZM432.86 182.88L451.93 171.88L470.99 182.88V204.88L451.92 215.88L432.86 204.88V182.88ZM472.11 182.88L491.18 171.88L510.24 182.88V204.88L491.17 215.88L472.11 204.88V182.88ZM511.36 182.88L530.43 171.88L549.49 182.88V204.88L530.43 215.88L511.36 204.88V182.88ZM550.61 182.88L569.68 171.88L588.74 182.88V204.88L569.68 215.88L550.61 204.88V182.88ZM589.87 182.88L608.94 171.88L628 182.88V204.88L608.93 215.88L589.87 204.88V182.88ZM629.12 182.88L648.19 171.88L667.25 182.88V204.88L648.18 215.88L629.12 204.88V182.88ZM668.37 182.88L687.44 171.88L706.5 182.88V204.88L687.44 215.88L668.37 204.88V182.88ZM707.62 182.88L726.69 171.88L745.75 182.88V204.88L726.69 215.88L707.62 204.88V182.88ZM746.88 182.88L765.95 171.88L785.01 182.88V204.88L765.94 215.88L746.88 204.88V182.88ZM786.13 182.88L805.2 171.88L824.26 182.88V204.88L805.19 215.88L786.13 204.88V182.88ZM825.38 182.88L844.45 171.88L863.51 182.88V204.88L844.44 215.88L825.38 204.88V182.88ZM864.63 182.88L883.7 171.88L902.76 182.88V204.88L883.7 215.88L864.63 204.88V182.88ZM903.88 182.88L922.95 171.88L942.02 182.88V204.88L922.95 215.88L903.88 204.88V182.88ZM943.14 182.88L962.21 171.88L981.27 182.88V204.88L962.2 215.88L943.14 204.88V182.88ZM982.39 182.88L1001.46 171.88L1020.52 182.88V204.88L1001.45 215.88L982.39 204.88V182.88ZM1021.64 182.88L1040.71 171.88L1059.77 182.88V204.88L1040.71 215.88L1021.64 204.88V182.88ZM1060.89 182.88L1079.96 171.88L1099.02 182.88V204.88L1079.96 215.88L1060.89 204.88V182.88ZM1100.15 182.88L1119.22 171.88L1138.28 182.88V204.88L1119.21 215.88L1100.15 204.88V182.88ZM1139.4 182.88L1158.47 171.88L1177.53 182.88V204.88L1158.46 215.88L1139.4 204.88V182.88ZM1178.65 182.88L1197.72 171.88L1216.78 182.88V204.88L1197.72 215.88L1178.65 204.88V182.88ZM1217.9 182.88L1236.97 171.88L1256.03 182.88V204.88L1236.97 215.88L1217.9 204.88V182.88ZM1257.16 182.88L1276.23 171.88L1295.29 182.88V204.88L1276.22 215.88L1257.16 204.88V182.88ZM1296.41 182.88L1315.48 171.88L1334.54 182.88V204.88L1315.47 215.88L1296.41 204.88V182.88ZM1314.92 648.64L1295.85 659.64L1276.79 648.64V626.64L1295.85 615.64L1314.92 626.64V648.64ZM1275.66 648.64L1256.59 659.64L1237.53 648.64V626.64L1256.6 615.64L1275.66 626.64V648.64ZM1236.41 648.64L1217.34 659.64L1198.28 648.64V626.64L1217.35 615.64L1236.41 626.64V648.64ZM1197.16 648.64L1178.09 659.64L1159.03 648.64V626.64L1178.09 615.64L1197.16 626.64V648.64ZM1157.91 648.64L1138.84 659.64L1119.78 648.64V626.64L1138.84 615.64L1157.91 626.64V648.64ZM1118.66 648.64L1099.59 659.64L1080.52 648.64V626.64L1099.59 615.64L1118.66 626.64V648.64ZM1079.4 648.64L1060.33 659.64L1041.27 648.64V626.64L1060.34 615.64L1079.4 626.64V648.64ZM1040.15 648.64L1021.08 659.64L1002.02 648.64V626.64L1021.09 615.64L1040.15 626.64V648.64ZM1000.9 648.64L981.83 659.64L962.77 648.64V626.64L981.83 615.64L1000.9 626.64V648.64ZM961.65 648.64L942.58 659.64L923.52 648.64V626.64L942.58 615.64L961.65 626.64V648.64ZM922.39 648.64L903.32 659.64L884.26 648.64V626.64L903.33 615.64L922.39 626.64V648.64ZM883.14 648.64L864.07 659.64L845.01 648.64V626.64L864.08 615.64L883.14 626.64V648.64ZM843.89 648.64L824.82 659.64L805.76 648.64V626.64L824.82 615.64L843.89 626.64V648.64ZM804.64 648.64L785.57 659.64L766.51 648.64V626.64L785.57 615.64L804.64 626.64V648.64ZM765.38 648.64L746.31 659.64L727.25 648.64V626.64L746.32 615.64L765.38 626.64V648.64ZM726.13 648.64L707.06 659.64L688 648.64V626.64L707.07 615.64L726.13 626.64V648.64ZM686.88 648.64L667.81 659.64L648.75 648.64V626.64L667.81 615.64L686.88 626.64V648.64ZM647.63 648.64L628.56 659.64L609.5 648.64V626.64L628.56 615.64L647.63 626.64V648.64ZM608.38 648.64L589.3 659.64L570.24 648.64V626.64L589.31 615.64L608.38 626.64V648.64ZM569.12 648.64L550.05 659.64L530.99 648.64V626.64L550.06 615.64L569.12 626.64V648.64ZM529.87 648.64L510.8 659.64L491.74 648.64V626.64L510.8 615.64L529.87 626.64V648.64ZM490.62 648.64L471.55 659.64L452.49 648.64V626.64L471.55 615.64L490.62 626.64V648.64ZM451.37 648.64L432.3 659.64L413.23 648.64V626.64L432.3 615.64L451.37 626.64V648.64ZM412.11 648.64L393.04 659.64L373.98 648.64V626.64L393.05 615.64L412.11 626.64V648.64ZM372.86 648.64L353.79 659.64L334.73 648.64V626.64L353.79 615.64L372.86 626.64V648.64ZM333.61 648.64L314.54 659.64L295.48 648.64V626.64L314.54 615.64L333.61 626.64V648.64ZM294.36 648.64L275.29 659.64L256.23 648.64V626.64L275.29 615.64L294.36 626.64V648.64ZM255.1 648.64L236.03 659.64L216.97 648.64V626.64L236.04 615.64L255.1 626.64V648.64ZM215.85 648.64L196.78 659.64L177.72 648.64V626.64L196.79 615.64L215.85 626.64V648.64ZM176.6 648.64L157.53 659.64L138.47 648.64V626.64L157.53 615.64L176.6 626.64V648.64ZM1354.17 217.18V239.18L1335.1 250.18L1316.04 239.18V217.18L1335.1 206.18L1354.17 217.18ZM1354.17 285.42V307.42L1335.1 318.42L1316.04 307.42V285.42L1335.1 274.42L1354.17 285.42ZM1354.17 353.67V375.67L1335.1 386.67L1316.04 375.67V353.67L1335.1 342.67L1354.17 353.67ZM1354.17 421.92V443.92L1335.1 454.92L1316.04 443.92V421.92L1335.1 410.92L1354.17 421.92ZM1354.17 490.16V512.16L1335.1 523.16L1316.04 512.16V490.16L1335.1 479.16L1354.17 490.16ZM1354.17 558.41V580.41L1335.1 591.41L1316.04 580.41V558.41L1335.1 547.41L1354.17 558.41ZM1354.17 626.65V648.65L1335.1 659.65L1316.04 648.65V626.65L1335.1 615.65L1354.17 626.65ZM118.84 614.34V592.34L137.91 581.34L156.97 592.34V614.34L137.9 625.34L118.84 614.34ZM118.84 546.1V524.1L137.91 513.1L156.97 524.1V546.1L137.9 557.1L118.84 546.1ZM118.84 477.85V455.85L137.91 444.85L156.97 455.85V477.85L137.9 488.85L118.84 477.85ZM118.84 409.61V387.61L137.91 376.61L156.97 387.61V409.61L137.9 420.61L118.84 409.61ZM118.84 341.36V319.36L137.91 308.36L156.97 319.36V341.36L137.9 352.36L118.84 341.36ZM118.84 273.11V251.11L137.91 240.11L156.97 251.11V273.11L137.9 284.11L118.84 273.11ZM118.84 204.87V182.87L137.91 171.87L156.97 182.87V204.87L137.9 215.87L118.84 204.87ZM138.47 148.93L157.53 137.93L176.6 148.93V170.93L157.53 181.93L138.47 170.93V148.93ZM177.72 148.93L196.79 137.93L215.85 148.93V170.93L196.78 181.93L177.72 170.93V148.93ZM216.97 148.93L236.04 137.93L255.1 148.93V170.93L236.03 181.93L216.97 170.93V148.93ZM256.23 148.93L275.29 137.93L294.36 148.93V170.93L275.29 181.93L256.23 170.93V148.93ZM295.48 148.93L314.54 137.93L333.61 148.93V170.93L314.54 181.93L295.48 170.93V148.93ZM334.73 148.93L353.79 137.93L372.86 148.93V170.93L353.79 181.93L334.73 170.93V148.93ZM373.98 148.93L393.05 137.93L412.11 148.93V170.93L393.04 181.93L373.98 170.93V148.93ZM413.23 148.93L432.3 137.93L451.37 148.93V170.93L432.3 181.93L413.23 170.93V148.93ZM452.49 148.93L471.55 137.93L490.62 148.93V170.93L471.55 181.93L452.49 170.93V148.93ZM491.74 148.93L510.8 137.93L529.87 148.93V170.93L510.8 181.93L491.74 170.93V148.93ZM530.99 148.93L550.06 137.93L569.12 148.93V170.93L550.05 181.93L530.99 170.93V148.93ZM570.24 148.93L589.31 137.93L608.38 148.93V170.93L589.3 181.93L570.24 170.93V148.93ZM609.5 148.93L628.56 137.93L647.63 148.93V170.93L628.56 181.93L609.5 170.93V148.93ZM648.75 148.93L667.81 137.93L686.88 148.93V170.93L667.81 181.93L648.75 170.93V148.93ZM688 148.93L707.07 137.93L726.13 148.93V170.93L707.06 181.93L688 170.93V148.93ZM727.25 148.93L746.32 137.93L765.38 148.93V170.93L746.31 181.93L727.25 170.93V148.93ZM766.51 148.93L785.57 137.93L804.64 148.93V170.93L785.57 181.93L766.51 170.93V148.93ZM805.76 148.93L824.82 137.93L843.89 148.93V170.93L824.82 181.93L805.76 170.93V148.93ZM845.01 148.93L864.08 137.93L883.14 148.93V170.93L864.07 181.93L845.01 170.93V148.93ZM884.26 148.93L903.33 137.93L922.39 148.93V170.93L903.32 181.93L884.26 170.93V148.93ZM923.52 148.93L942.58 137.93L961.65 148.93V170.93L942.58 181.93L923.52 170.93V148.93ZM962.77 148.93L981.83 137.93L1000.9 148.93V170.93L981.83 181.93L962.77 170.93V148.93ZM1002.02 148.93L1021.09 137.93L1040.15 148.93V170.93L1021.08 181.93L1002.02 170.93V148.93ZM1041.27 148.93L1060.34 137.93L1079.4 148.93V170.93L1060.33 181.93L1041.27 170.93V148.93ZM1080.52 148.93L1099.59 137.93L1118.66 148.93V170.93L1099.59 181.93L1080.52 170.93V148.93ZM1119.78 148.93L1138.84 137.93L1157.91 148.93V170.93L1138.84 181.93L1119.78 170.93V148.93ZM1159.03 148.93L1178.09 137.93L1197.16 148.93V170.93L1178.09 181.93L1159.03 170.93V148.93ZM1198.28 148.93L1217.35 137.93L1236.41 148.93V170.93L1217.34 181.93L1198.28 170.93V148.93ZM1237.53 148.93L1256.6 137.93L1275.66 148.93V170.93L1256.59 181.93L1237.53 170.93V148.93ZM1276.79 148.93L1295.85 137.93L1314.92 148.93V170.93L1295.85 181.93L1276.79 170.93V148.93ZM1316.04 148.93L1335.1 137.93L1354.17 148.93V170.93L1335.1 181.93L1316.04 170.93V148.93ZM1334.54 682.59L1315.47 693.59L1296.41 682.59V660.59L1315.48 649.59L1334.54 660.59V682.59ZM1295.29 682.59L1276.22 693.59L1257.16 682.59V660.59L1276.23 649.59L1295.29 660.59V682.59ZM1256.03 682.59L1236.97 693.59L1217.9 682.59V660.59L1236.97 649.59L1256.03 660.59V682.59ZM1216.78 682.59L1197.72 693.59L1178.65 682.59V660.59L1197.72 649.59L1216.78 660.59V682.59ZM1177.53 682.59L1158.46 693.59L1139.4 682.59V660.59L1158.47 649.59L1177.53 660.59V682.59ZM1138.28 682.59L1119.21 693.59L1100.15 682.59V660.59L1119.22 649.59L1138.28 660.59V682.59ZM1099.02 682.59L1079.96 693.59L1060.89 682.59V660.59L1079.96 649.59L1099.02 660.59V682.59ZM1059.77 682.59L1040.71 693.59L1021.64 682.59V660.59L1040.71 649.59L1059.77 660.59V682.59ZM1020.52 682.59L1001.45 693.59L982.39 682.59V660.59L1001.46 649.59L1020.52 660.59V682.59ZM981.27 682.59L962.2 693.59L943.14 682.59V660.59L962.21 649.59L981.27 660.59V682.59ZM942.02 682.59L923 693.6L903.93 682.6V660.6L923 649.6L942.07 660.6L942.02 682.59ZM902.76 682.59L883.7 693.59L864.63 682.59V660.59L883.7 649.59L902.76 660.59V682.59ZM863.51 682.59L844.44 693.59L825.38 682.59V660.59L844.45 649.59L863.51 660.59V682.59ZM824.26 682.59L805.19 693.59L786.13 682.59V660.59L805.2 649.59L824.26 660.59V682.59ZM785.01 682.59L765.94 693.59L746.88 682.59V660.59L765.95 649.59L785.01 660.59V682.59ZM745.75 682.59L726.69 693.59L707.62 682.59V660.59L726.69 649.59L745.75 660.59V682.59ZM706.5 682.59L687.44 693.59L668.37 682.59V660.59L687.44 649.59L706.5 660.59V682.59ZM667.25 682.59L648.18 693.59L629.12 682.59V660.59L648.19 649.59L667.25 660.59V682.59ZM628 682.59L608.93 693.59L589.87 682.59V660.59L608.94 649.59L628 660.59V682.59ZM588.74 682.59L569.68 693.59L550.61 682.59V660.59L569.68 649.59L588.74 660.59V682.59ZM549.49 682.59L530.43 693.59L511.36 682.59V660.59L530.43 649.59L549.49 660.59V682.59ZM510.24 682.59L491.17 693.59L472.11 682.59V660.59L491.18 649.59L510.24 660.59V682.59ZM470.99 682.59L451.92 693.59L432.86 682.59V660.59L451.93 649.59L470.99 660.59V682.59ZM431.73 682.59L412.67 693.59L393.6 682.59V660.59L412.67 649.59L431.73 660.59V682.59ZM392.48 682.59L373.42 693.59L354.35 682.59V660.59L373.42 649.59L392.48 660.59V682.59ZM353.23 682.59L334.16 693.59L315.1 682.59V660.59L334.17 649.59L353.23 660.59V682.59ZM313.98 682.59L294.91 693.59L275.85 682.59V660.59L294.92 649.59L313.98 660.59V682.59ZM274.72 682.59L255.66 693.59L236.59 682.59V660.59L255.66 649.59L274.72 660.59V682.59ZM235.47 682.59L216.41 693.59L197.34 682.59V660.59L216.41 649.59L235.47 660.59V682.59ZM196.22 682.59L177.16 693.59L158.09 682.59V660.59L177.16 649.59L196.22 660.59V682.59ZM156.97 682.59L137.9 693.59L118.84 682.59V660.59L137.91 649.59L156.97 660.59V682.59ZM118.84 114.59L137.91 103.59L156.97 114.59V136.59L137.9 147.59L118.84 136.59V114.59ZM158.09 114.59L177.16 103.59L196.22 114.59V136.59L177.16 147.59L158.09 136.59V114.59ZM197.34 114.59L216.41 103.59L235.47 114.59V136.59L216.41 147.59L197.34 136.59V114.59ZM236.59 114.59L255.66 103.59L274.72 114.59V136.59L255.66 147.59L236.59 136.59V114.59ZM275.85 114.59L294.92 103.59L313.98 114.59V136.59L294.91 147.59L275.85 136.59V114.59ZM315.1 114.59L334.17 103.59L353.23 114.59V136.59L334.16 147.59L315.1 136.59V114.59ZM354.35 114.59L373.42 103.59L392.48 114.59V136.59L373.42 147.59L354.35 136.59V114.59ZM393.6 114.59L412.67 103.59L431.73 114.59V136.59L412.67 147.59L393.6 136.59V114.59ZM432.86 114.59L451.93 103.59L470.99 114.59V136.59L451.92 147.59L432.86 136.59V114.59ZM472.11 114.59L491.18 103.59L510.24 114.59V136.59L491.17 147.59L472.11 136.59V114.59ZM511.36 114.59L530.43 103.59L549.49 114.59V136.59L530.43 147.59L511.36 136.59V114.59ZM550.61 114.59L569.68 103.59L588.74 114.59V136.59L569.68 147.59L550.61 136.59V114.59ZM589.87 114.59L608.94 103.59L628 114.59V136.59L608.93 147.59L589.87 136.59V114.59ZM629.12 114.59L648.19 103.59L667.25 114.59V136.59L648.18 147.59L629.12 136.59V114.59ZM668.37 114.59L687.44 103.59L706.5 114.59V136.59L687.44 147.59L668.37 136.59V114.59ZM707.62 114.59L726.69 103.59L745.75 114.59V136.59L726.69 147.59L707.62 136.59V114.59ZM746.88 114.59L765.95 103.59L785.01 114.59V136.59L765.94 147.59L746.88 136.59V114.59ZM786.13 114.59L805.2 103.59L824.26 114.59V136.59L805.19 147.59L786.13 136.59V114.59ZM825.38 114.59L844.45 103.59L863.51 114.59V136.59L844.44 147.59L825.38 136.59V114.59ZM864.63 114.59L883.7 103.59L902.76 114.59V136.59L883.7 147.59L864.63 136.59V114.59ZM903.88 114.59L922.95 103.59L942.02 114.59V136.59L922.95 147.59L903.88 136.59V114.59ZM943.14 114.59L962.21 103.59L981.27 114.59V136.59L962.2 147.59L943.14 136.59V114.59ZM982.39 114.59L1001.46 103.59L1020.52 114.59V136.59L1001.45 147.59L982.39 136.59V114.59ZM1021.64 114.59L1040.71 103.59L1059.77 114.59V136.59L1040.71 147.59L1021.64 136.59V114.59ZM1060.89 114.59L1079.96 103.59L1099.02 114.59V136.59L1079.96 147.59L1060.89 136.59V114.59ZM1100.15 114.59L1119.22 103.59L1138.28 114.59V136.59L1119.21 147.59L1100.15 136.59V114.59ZM1139.4 114.59L1158.47 103.59L1177.53 114.59V136.59L1158.46 147.59L1139.4 136.59V114.59ZM1178.65 114.59L1197.72 103.59L1216.78 114.59V136.59L1197.72 147.59L1178.65 136.59V114.59ZM1217.9 114.59L1236.97 103.59L1256.03 114.59V136.59L1236.97 147.59L1217.9 136.59V114.59ZM1257.16 114.59L1276.23 103.59L1295.29 114.59V136.59L1276.22 147.59L1257.16 136.59V114.59ZM1296.41 114.59L1315.48 103.59L1334.54 114.59V136.59L1315.47 147.59L1296.41 136.59V114.59ZM1335.66 114.59L1354.73 103.59L1373.79 114.59V136.59L1354.73 147.59L1335.66 136.59V114.59ZM1393.42 148.89V170.89L1374.35 181.89L1355.29 170.89V148.89L1374.36 137.89L1393.42 148.89ZM1393.42 217.14V239.14L1374.35 250.14L1355.29 239.14V217.14L1374.36 206.14L1393.42 217.14ZM1393.42 285.38V307.38L1374.35 318.38L1355.29 307.38V285.38L1374.36 274.38L1393.42 285.38ZM1393.42 353.63V375.63L1374.35 386.63L1355.29 375.63V353.63L1374.36 342.63L1393.42 353.63ZM1393.42 421.88V443.88L1374.35 454.88L1355.29 443.88V421.88L1374.36 410.88L1393.42 421.88ZM1393.42 490.12V512.12L1374.35 523.12L1355.29 512.12V490.12L1374.36 479.12L1393.42 490.12ZM1393.42 558.37V580.37L1374.35 591.37L1355.29 580.37V558.37L1374.36 547.37L1393.42 558.37ZM1393.42 626.61V648.61L1374.35 659.61L1355.29 648.61V626.61L1374.36 615.61L1393.42 626.61ZM1393.42 694.86V716.86L1374.35 727.86L1355.29 716.86V694.86L1374.36 683.86L1393.42 694.86ZM1354.17 716.86L1335.1 727.86L1316.04 716.86V694.86L1335.1 683.86L1354.17 694.86V716.86ZM1314.92 716.86L1295.85 727.86L1276.79 716.86V694.86L1295.85 683.86L1314.92 694.86V716.86ZM1275.66 716.86L1256.59 727.86L1237.53 716.86V694.86L1256.6 683.86L1275.66 694.86V716.86ZM1236.41 716.86L1217.34 727.86L1198.28 716.86V694.86L1217.35 683.86L1236.41 694.86V716.86ZM1197.16 716.86L1178.09 727.86L1159.03 716.86V694.86L1178.09 683.86L1197.16 694.86V716.86ZM1157.91 716.86L1138.84 727.86L1119.78 716.86V694.86L1138.84 683.86L1157.91 694.86V716.86ZM1118.66 716.86L1099.59 727.86L1080.52 716.86V694.86L1099.59 683.86L1118.66 694.86V716.86ZM1079.4 716.86L1060.33 727.86L1041.27 716.86V694.86L1060.34 683.86L1079.4 694.86V716.86ZM1040.15 716.86L1021.08 727.86L1002.02 716.86V694.86L1021.09 683.86L1040.15 694.86V716.86ZM1000.9 716.86L981.83 727.86L962.77 716.86V694.86L981.83 683.86L1000.9 694.86V716.86ZM961.65 716.86L942.58 727.86L923.52 716.86V694.86L942.58 683.86L961.65 694.86V716.86ZM922.39 716.86L903.32 727.86L884.26 716.86V694.86L903.33 683.86L922.39 694.86V716.86ZM883.14 716.86L864.07 727.86L845.01 716.86V694.86L864.08 683.86L883.14 694.86V716.86ZM843.89 716.86L824.82 727.86L805.76 716.86V694.86L824.82 683.86L843.89 694.86V716.86ZM804.64 716.86L785.57 727.86L766.51 716.86V694.86L785.57 683.86L804.64 694.86V716.86ZM765.38 716.86L746.31 727.86L727.25 716.86V694.86L746.32 683.86L765.38 694.86V716.86ZM726.13 716.86L707.06 727.86L688 716.86V694.86L707.07 683.86L726.13 694.86V716.86ZM686.88 716.86L667.81 727.86L648.75 716.86V694.86L667.81 683.86L686.88 694.86V716.86ZM647.63 716.86L628.56 727.86L609.5 716.86V694.86L628.56 683.86L647.63 694.86V716.86ZM608.38 716.86L589.3 727.86L570.24 716.86V694.86L589.31 683.86L608.38 694.86V716.86ZM569.12 716.86L550.05 727.86L530.99 716.86V694.86L550.06 683.86L569.12 694.86V716.86ZM529.87 716.86L510.8 727.86L491.74 716.86V694.86L510.8 683.86L529.87 694.86V716.86ZM490.62 716.86L471.55 727.86L452.49 716.86V694.86L471.55 683.86L490.62 694.86V716.86ZM451.37 716.86L432.3 727.86L413.23 716.86V694.86L432.3 683.86L451.37 694.86V716.86ZM412.11 716.86L393 727.9L373.94 716.9V694.9L393.01 683.9L412.07 694.9L412.11 716.86ZM372.86 716.86L353.79 727.86L334.73 716.86V694.86L353.79 683.86L372.86 694.86V716.86ZM333.61 716.86L314.54 727.86L295.48 716.86V694.86L314.54 683.86L333.61 694.86V716.86ZM294.36 716.86L275.29 727.86L256.23 716.86V694.86L275.29 683.86L294.36 694.86V716.86ZM255.1 716.86L236 727.9L216.94 716.9V694.9L236.01 683.9L255.07 694.9L255.1 716.86ZM215.85 716.86L196.78 727.86L177.72 716.86V694.86L196.79 683.86L215.85 694.86V716.86ZM176.6 716.86L157.53 727.86L138.47 716.86V694.86L157.53 683.86L176.6 694.86V716.86ZM137.35 716.86L118.28 727.86L99.22 716.86V694.86L118.28 683.86L137.35 694.86V716.86ZM79.58 682.56V660.56L98.66 649.56L117.72 660.56V682.56L98.65 693.56L79.58 682.56ZM79.58 614.31V592.31L98.66 581.31L117.72 592.31V614.31L98.65 625.31L79.58 614.31ZM79.58 546.07V524.07L98.66 513.07L117.72 524.07V546.07L98.65 557.07L79.58 546.07ZM79.58 477.82V455.82L98.66 444.82L117.72 455.82V477.82L98.65 488.82L79.58 477.82ZM79.58 409.58V387.58L98.66 376.58L117.72 387.58V409.58L98.65 420.58L79.58 409.58ZM79.58 341.33V319.33L98.66 308.33L117.72 319.33V341.33L98.65 352.33L79.58 341.33ZM79.58 273.08V251.08L98.66 240.08L117.72 251.08V273.08L98.65 284.08L79.58 273.08ZM79.58 204.84V182.84L98.66 171.84L117.72 182.84V204.84L98.65 215.84L79.58 204.84ZM79.58 136.59V114.59L98.66 103.59L117.72 114.59V136.59L98.65 147.59L79.58 136.59ZM99.22 80.66L118.28 69.66L137.35 80.66V102.66L118.28 113.66L99.22 102.66V80.66ZM138.47 80.66L157.53 69.66L176.6 80.66V102.66L157.53 113.66L138.47 102.66V80.66ZM177.72 80.66L196.79 69.66L215.85 80.66V102.66L196.78 113.66L177.72 102.66V80.66ZM216.97 80.66L236.04 69.66L255.1 80.66V102.66L236.03 113.66L216.97 102.66V80.66ZM256.23 80.66L275.29 69.66L294.36 80.66V102.66L275.29 113.66L256.23 102.66V80.66ZM295.48 80.66L314.54 69.66L333.61 80.66V102.66L314.54 113.66L295.48 102.66V80.66ZM334.73 80.66L353.79 69.66L372.86 80.66V102.66L353.79 113.66L334.73 102.66V80.66ZM373.98 80.66L393.05 69.66L412.11 80.66V102.66L393.04 113.66L373.98 102.66V80.66ZM413.23 80.66L432.3 69.66L451.37 80.66V102.66L432.3 113.66L413.23 102.66V80.66ZM452.49 80.66L471.55 69.66L490.62 80.66V102.66L471.55 113.66L452.49 102.66V80.66ZM491.74 80.66L510.8 69.66L529.87 80.66V102.66L510.8 113.66L491.74 102.66V80.66ZM530.99 80.66L550.06 69.66L569.12 80.66V102.66L550.05 113.66L530.99 102.66V80.66ZM570.24 80.66L589.31 69.66L608.38 80.66V102.66L589.3 113.66L570.24 102.66V80.66ZM609.5 80.66L628.56 69.66L647.63 80.66V102.66L628.56 113.66L609.5 102.66V80.66ZM648.75 80.66L667.81 69.66L686.88 80.66V102.66L667.81 113.66L648.75 102.66V80.66ZM688 80.66L707.07 69.66L726.13 80.66V102.66L707.06 113.66L688 102.66V80.66ZM727.25 80.66L746.32 69.66L765.38 80.66V102.66L746.31 113.66L727.25 102.66V80.66ZM766.51 80.66L785.57 69.66L804.64 80.66V102.66L785.57 113.66L766.51 102.66V80.66ZM805.76 80.66L824.82 69.66L843.89 80.66V102.66L824.82 113.66L805.76 102.66V80.66ZM845.01 80.66L864.08 69.66L883.14 80.66V102.66L864.07 113.66L845.01 102.66V80.66ZM884.26 80.66L903.33 69.66L922.39 80.66V102.66L903.32 113.66L884.26 102.66V80.66ZM923.52 80.66L942.58 69.66L961.65 80.66V102.66L942.58 113.66L923.52 102.66V80.66ZM962.77 80.66L981.83 69.66L1000.9 80.66V102.66L981.83 113.66L962.77 102.66V80.66ZM1002.02 80.66L1021.09 69.66L1040.15 80.66V102.66L1021.08 113.66L1002.02 102.66V80.66ZM1041.27 80.66L1060.34 69.66L1079.4 80.66V102.66L1060.33 113.66L1041.27 102.66V80.66ZM1080.52 80.66L1099.59 69.66L1118.66 80.66V102.66L1099.59 113.66L1080.52 102.66V80.66ZM1119.78 80.66L1138.84 69.66L1157.91 80.66V102.66L1138.84 113.66L1119.78 102.66V80.66ZM1159.03 80.66L1178.09 69.66L1197.16 80.66V102.66L1178.09 113.66L1159.03 102.66V80.66ZM1198.28 80.66L1217.35 69.66L1236.41 80.66V102.66L1217.34 113.66L1198.28 102.66V80.66ZM1237.53 80.66L1256.6 69.66L1275.66 80.66V102.66L1256.59 113.66L1237.53 102.66V80.66ZM1276.79 80.66L1295.85 69.66L1314.92 80.66V102.66L1295.85 113.66L1276.79 102.66V80.66ZM1316.04 80.66L1335.1 69.66L1354.17 80.66V102.66L1335.1 113.66L1316.04 102.66V80.66ZM1355.29 80.66L1374.36 69.66L1393.42 80.66V102.66L1374.35 113.66L1355.29 102.66V80.66ZM1373.79 750.81L1354.73 761.81L1335.66 750.81V728.81L1354.73 717.81L1373.79 728.81V750.81ZM1334.54 750.81L1315.47 761.81L1296.41 750.81V728.81L1315.48 717.81L1334.54 728.81V750.81ZM1295.29 750.81L1276.22 761.81L1257.16 750.81V728.81L1276.23 717.81L1295.29 728.81V750.81ZM1256.03 750.81L1236.97 761.81L1217.9 750.81V728.81L1236.97 717.81L1256.03 728.81V750.81ZM1216.78 750.81L1197.72 761.81L1178.65 750.81V728.81L1197.72 717.81L1216.78 728.81V750.81ZM1177.53 750.81L1158.46 761.81L1139.4 750.81V728.81L1158.47 717.81L1177.53 728.81V750.81ZM1138.28 750.81L1119.21 761.81L1100.15 750.81V728.81L1119.22 717.81L1138.28 728.81V750.81ZM1099.02 750.81L1079.96 761.81L1060.89 750.81V728.81L1079.96 717.81L1099.02 728.81V750.81ZM1059.77 750.81L1040.71 761.81L1021.64 750.81V728.81L1040.71 717.81L1059.77 728.81V750.81ZM1020.52 750.81L1001.45 761.81L982.39 750.81V728.81L1001.46 717.81L1020.52 728.81V750.81ZM981.27 750.81L962.2 761.81L943.14 750.81V728.81L962.21 717.81L981.27 728.81V750.81ZM942.02 750.81L922.95 761.81L903.88 750.81V728.81L922.95 717.81L942.02 728.81V750.81ZM902.76 750.81L883.7 761.81L864.63 750.81V728.81L883.7 717.81L902.76 728.81V750.81ZM863.51 750.81L844.44 761.81L825.38 750.81V728.81L844.45 717.81L863.51 728.81V750.81ZM824.26 750.81L805.19 761.81L786.13 750.81V728.81L805.2 717.81L824.26 728.81V750.81ZM785.01 750.81L765.94 761.81L746.88 750.81V728.81L765.95 717.81L785.01 728.81V750.81ZM745.75 750.81L726.69 761.81L707.62 750.81V728.81L726.69 717.81L745.75 728.81V750.81ZM706.5 750.81L687.44 761.81L668.37 750.81V728.81L687.44 717.81L706.5 728.81V750.81ZM667.25 750.81L648.18 761.81L629.12 750.81V728.81L648.19 717.81L667.25 728.81V750.81ZM628 750.81L608.93 761.81L589.87 750.81V728.81L608.94 717.81L628 728.81V750.81ZM588.74 750.81L569.68 761.81L550.61 750.81V728.81L569.68 717.81L588.74 728.81V750.81ZM549.49 750.81L530.43 761.81L511.36 750.81V728.81L530.43 717.81L549.49 728.81V750.81ZM510.24 750.81L491.17 761.81L472.11 750.81V728.81L491.18 717.81L510.24 728.81V750.81ZM470.99 750.81L451.92 761.81L432.86 750.81V728.81L451.93 717.81L470.99 728.81V750.81ZM431.73 750.81L412.67 761.81L393.6 750.81V728.81L412.67 717.81L431.73 728.81V750.81ZM392.48 750.81L373.42 761.81L354.35 750.81V728.81L373.42 717.81L392.48 728.81V750.81ZM353.23 750.81L334.16 761.81L315.1 750.81V728.81L334.17 717.81L353.23 728.81V750.81ZM313.98 750.81L294.91 761.81L275.85 750.81V728.81L294.92 717.81L313.98 728.81V750.81ZM274.72 750.81L255.66 761.81L236.59 750.81V728.81L255.66 717.81L274.72 728.81V750.81ZM235.47 750.81L216.41 761.81L197.34 750.81V728.81L216.41 717.81L235.47 728.81V750.81ZM196.22 750.81L177.16 761.81L158.09 750.81V728.81L177.16 717.81L196.22 728.81V750.81ZM156.97 750.81L137.9 761.81L118.84 750.81V728.81L137.91 717.81L156.97 728.81V750.81ZM117.72 750.81L98.65 761.81L79.58 750.81V728.81L98.66 717.81L117.72 728.81V750.81ZM1432.72 102.64L1413.65 113.64L1394.59 102.64V80.64L1413.66 69.64L1432.72 80.64V102.64ZM1432.72 170.89L1413.65 181.89L1394.59 170.89V148.89L1413.66 137.89L1432.72 148.89V170.89ZM1432.72 239.14L1413.65 250.14L1394.59 239.14V217.14L1413.66 206.14L1432.72 217.14V239.14ZM1432.72 307.38L1413.65 318.38L1394.59 307.38V285.38L1413.66 274.38L1432.72 285.38V307.38ZM1432.72 375.63L1413.65 386.63L1394.59 375.63V353.63L1413.66 342.63L1432.72 353.63V375.63ZM1432.72 443.87L1413.65 454.87L1394.59 443.87V421.87L1413.66 410.87L1432.72 421.87V443.87ZM1432.72 512.12L1413.65 523.12L1394.59 512.12V490.12L1413.66 479.12L1432.72 490.12V512.12ZM1432.72 580.37L1413.65 591.37L1394.59 580.37V558.37L1413.66 547.37L1432.72 558.37V580.37ZM1432.72 648.61L1413.65 659.61L1394.59 648.61V626.61L1413.66 615.61L1432.72 626.61V648.61ZM1432.72 716.86L1413.65 727.86L1394.59 716.86V694.86L1413.66 683.86L1432.72 694.86V716.86ZM40.38 728.86L59.45 717.86L78.51 728.86V750.86L59.45 761.86L40.38 750.86V728.86ZM40.38 660.61L59.45 649.61L78.51 660.61V682.61L59.45 693.61L40.38 682.61V660.61ZM40.38 592.37L59.45 581.37L78.51 592.37V614.37L59.45 625.37L40.38 614.37V592.37ZM40.38 524.12L59.45 513.12L78.51 524.12V546.12L59.45 557.12L40.38 546.12V524.12ZM40.38 455.87L59.45 444.87L78.51 455.87V477.87L59.45 488.87L40.38 477.87V455.87ZM40.38 387.63L59.45 376.63L78.51 387.63V409.63L59.45 420.63L40.38 409.63V387.63ZM40.38 319.38L59.45 308.38L78.51 319.38V341.38L59.45 352.38L40.38 341.38V319.38ZM40.38 251.14L59.45 240.14L78.51 251.14V273.14L59.45 284.14L40.38 273.14V251.14ZM40.38 182.89L59.45 171.89L78.51 182.89V204.89L59.45 215.89L40.38 204.89V182.89ZM40.38 114.64L59.45 103.64L78.51 114.64V136.64L59.45 147.64L40.38 136.64V114.64ZM59.4 35.38L78.46 46.38V68.38L59.4 79.38L40.33 68.38V46.38L59.4 35.38ZM98.66 35.38L117.72 46.38V68.38L98.65 79.38L79.58 68.38V46.38L98.66 35.38ZM137.91 35.38L156.97 46.38V68.38L137.9 79.38L118.84 68.38V46.38L137.91 35.38ZM177.16 35.38L196.22 46.38V68.38L177.16 79.38L158.09 68.38V46.38L177.16 35.38ZM216.41 35.38L235.47 46.38V68.38L216.41 79.38L197.34 68.38V46.38L216.41 35.38ZM255.66 35.38L274.72 46.38V68.38L255.66 79.38L236.59 68.38V46.38L255.66 35.38ZM294.92 35.38L313.98 46.38V68.38L294.91 79.38L275.85 68.38V46.38L294.92 35.38ZM334.17 35.38L353.23 46.38V68.38L334.16 79.38L315.1 68.38V46.38L334.17 35.38ZM373.42 35.38L392.48 46.38V68.38L373.42 79.38L354.35 68.38V46.38L373.42 35.38ZM412.67 35.38L431.73 46.38V68.38L412.67 79.38L393.6 68.38V46.38L412.67 35.38ZM451.93 35.38L470.99 46.38V68.38L451.92 79.38L432.86 68.38V46.38L451.93 35.38ZM491.18 35.38L510.24 46.38V68.38L491.17 79.38L472.11 68.38V46.38L491.18 35.38ZM530.43 35.38L549.49 46.38V68.38L530.43 79.38L511.36 68.38V46.38L530.43 35.38ZM569.68 35.38L588.74 46.38V68.38L569.68 79.38L550.61 68.38V46.38L569.68 35.38ZM608.94 35.38L628 46.38V68.38L608.93 79.38L589.87 68.38V46.38L608.94 35.38ZM648.19 35.38L667.25 46.38V68.38L648.18 79.38L629.12 68.38V46.38L648.19 35.38ZM687.44 35.38L706.5 46.38V68.38L687.44 79.38L668.37 68.38V46.38L687.44 35.38ZM726.69 35.38L745.75 46.38V68.38L726.69 79.38L707.62 68.38V46.38L726.69 35.38ZM765.95 35.38L785.01 46.38V68.38L765.94 79.38L746.88 68.38V46.38L765.95 35.38ZM805.2 35.38L824.26 46.38V68.38L805.19 79.38L786.13 68.38V46.38L805.2 35.38ZM844.45 35.38L863.51 46.38V68.38L844.44 79.38L825.38 68.38V46.38L844.45 35.38ZM883.7 35.38L902.76 46.38V68.38L883.7 79.38L864.63 68.38V46.38L883.7 35.38ZM922.95 35.38L942.02 46.38V68.38L922.95 79.38L903.88 68.38V46.38L922.95 35.38ZM962.21 35.38L981.27 46.38V68.38L962.2 79.38L943.14 68.38V46.38L962.21 35.38ZM1001.46 35.38L1020.52 46.38V68.38L1001.45 79.38L982.39 68.38V46.38L1001.46 35.38ZM1040.71 35.38L1059.77 46.38V68.38L1040.71 79.38L1021.64 68.38V46.38L1040.71 35.38ZM1079.96 35.38L1099.02 46.38V68.38L1079.96 79.38L1060.89 68.38V46.38L1079.96 35.38ZM1119.22 35.38L1138.28 46.38V68.38L1119.21 79.38L1100.15 68.38V46.38L1119.22 35.38ZM1158.47 35.38L1177.53 46.38V68.38L1158.46 79.38L1139.4 68.38V46.38L1158.47 35.38ZM1197.72 35.38L1216.78 46.38V68.38L1197.72 79.38L1178.65 68.38V46.38L1197.72 35.38ZM1236.97 35.38L1256.03 46.38V68.38L1236.97 79.38L1217.9 68.38V46.38L1236.97 35.38ZM1276.23 35.38L1295.29 46.38V68.38L1276.22 79.38L1257.16 68.38V46.38L1276.23 35.38ZM1315.48 35.38L1334.54 46.38V68.38L1315.47 79.38L1296.41 68.38V46.38L1315.48 35.38ZM1354.73 35.38L1373.79 46.38V68.38L1354.73 79.38L1335.66 68.38V46.38L1354.73 35.38ZM1393.98 35.38L1413.04 46.38V68.38L1393.98 79.38L1374.91 68.38V46.38L1393.98 35.38ZM1413.6 796.14L1394.54 785.14V763.14L1413.61 752.14L1432.67 763.14V785.14L1413.6 796.14ZM1374.35 796.14L1355.29 785.14V763.14L1374.36 752.14L1393.42 763.14V785.14L1374.35 796.14ZM1335.1 796.14L1316.04 785.14V763.14L1335.1 752.14L1354.17 763.14V785.14L1335.1 796.14ZM1295.85 796.14L1276.79 785.14V763.14L1295.85 752.14L1314.92 763.14V785.14L1295.85 796.14ZM1256.59 796.14L1237.53 785.14V763.14L1256.6 752.14L1275.66 763.14V785.14L1256.59 796.14ZM1217.34 796.14L1198.28 785.14V763.14L1217.35 752.14L1236.41 763.14V785.14L1217.34 796.14ZM1178.09 796.14L1159.03 785.14V763.14L1178.09 752.14L1197.16 763.14V785.14L1178.09 796.14ZM1138.84 796.14L1119.78 785.14V763.14L1138.84 752.14L1157.91 763.14V785.14L1138.84 796.14ZM1099.59 796.14L1080.52 785.14V763.14L1099.59 752.14L1118.66 763.14V785.14L1099.59 796.14ZM1060.33 796.14L1041.27 785.14V763.14L1060.34 752.14L1079.4 763.14V785.14L1060.33 796.14ZM1021.08 796.14L1002.02 785.14V763.14L1021.09 752.14L1040.15 763.14V785.14L1021.08 796.14ZM981.83 796.14L962.77 785.14V763.14L981.83 752.14L1000.9 763.14V785.14L981.83 796.14ZM942.58 796.14L923.52 785.14V763.14L942.58 752.14L961.65 763.14V785.14L942.58 796.14ZM903.32 796.14L884.26 785.14V763.14L903.33 752.14L922.39 763.14V785.14L903.32 796.14ZM864.07 796.14L845.01 785.14V763.14L864.08 752.14L883.14 763.14V785.14L864.07 796.14ZM824.82 796.14L805.76 785.14V763.14L824.82 752.14L843.89 763.14V785.14L824.82 796.14ZM785.57 796.14L766.51 785.14V763.14L785.57 752.14L804.64 763.14V785.14L785.57 796.14ZM746.31 796.14L727.25 785.14V763.14L746.32 752.14L765.38 763.14V785.14L746.31 796.14ZM707.06 796.14L688 785.14V763.14L707.07 752.14L726.13 763.14V785.14L707.06 796.14ZM667.81 796.14L648.75 785.14V763.14L667.81 752.14L686.88 763.14V785.14L667.81 796.14ZM628.56 796.14L609.5 785.14V763.14L628.56 752.14L647.63 763.14V785.14L628.56 796.14ZM589.3 796.14L570.24 785.14V763.14L589.31 752.14L608.38 763.14V785.14L589.3 796.14ZM550.05 796.14L530.99 785.14V763.14L550.06 752.14L569.12 763.14V785.14L550.05 796.14ZM510.8 796.14L491.74 785.14V763.14L510.8 752.14L529.87 763.14V785.14L510.8 796.14ZM471.55 796.14L452.49 785.14V763.14L471.55 752.14L490.62 763.14V785.14L471.55 796.14ZM432.3 796.14L413.23 785.14V763.14L432.3 752.14L451.37 763.14V785.14L432.3 796.14ZM393.04 796.14L373.98 785.14V763.14L393.05 752.14L412.11 763.14V785.14L393.04 796.14ZM353.79 796.14L334.73 785.14V763.14L353.79 752.14L372.86 763.14V785.14L353.79 796.14ZM314.54 796.14L295.48 785.14V763.14L314.54 752.14L333.61 763.14V785.14L314.54 796.14ZM275.29 796.14L256.23 785.14V763.14L275.29 752.14L294.36 763.14V785.14L275.29 796.14ZM236.03 796.14L216.97 785.14V763.14L236.04 752.14L255.1 763.14V785.14L236.03 796.14ZM196.78 796.14L177.72 785.14V763.14L196.79 752.14L215.85 763.14V785.14L196.78 796.14ZM157.53 796.14L138.47 785.14V763.14L157.53 752.14L176.6 763.14V785.14L157.53 796.14ZM118.28 796.14L99.22 785.14V763.14L118.28 752.14L137.35 763.14V785.14L118.28 796.14ZM79.02 796.14L60 785.14V763.14L79.07 752.14L98.13 763.14V785.14L79.02 796.14ZM1452.3 68.38L1433.23 79.38L1414.16 68.38V46.38L1433.23 35.38L1452.3 46.38V68.38ZM1452.3 136.62L1433.23 147.62L1414.16 136.62V114.62L1433.23 103.62L1452.3 114.62V136.62ZM1452.3 204.87L1433.23 215.87L1414.16 204.87V182.87L1433.23 171.87L1452.3 182.87V204.87ZM1452.3 273.11L1433.23 284.11L1414.16 273.11V251.11L1433.23 240.11L1452.3 251.11V273.11ZM1452.3 341.36L1433.23 352.36L1414.16 341.36V319.36L1433.23 308.36L1452.3 319.36V341.36ZM1452.3 409.61L1433.23 420.61L1414.16 409.61V387.61L1433.23 376.61L1452.3 387.61V409.61ZM1452.3 477.85L1433.23 488.85L1414.16 477.85V455.85L1433.23 444.85L1452.3 455.85V477.85ZM1452.3 546.1L1433.23 557.1L1414.16 546.1V524.1L1433.23 513.1L1452.3 524.1V546.1ZM1452.3 614.34L1433.23 625.34L1414.16 614.34V592.34L1433.23 581.34L1452.3 592.34V614.34ZM1452.3 682.59L1433.23 693.59L1414.16 682.59V660.59L1433.23 649.59L1452.3 660.59V682.59ZM1452.3 750.84L1433.23 761.84L1414.16 750.84V728.84L1433.23 717.84L1452.3 728.84V750.84ZM20.71 763.15L39.78 752.15L58.84 763.15V785.15L39.77 796.15L20.71 785.15V763.15ZM20.71 694.9L39.78 683.9L58.84 694.9V716.9L39.77 727.9L20.71 716.9V694.9ZM20.71 626.65L39.78 615.65L58.84 626.65V648.65L39.77 659.65L20.71 648.65V626.65ZM20.71 558.41L39.78 547.41L58.84 558.41V580.41L39.77 591.41L20.71 580.41V558.41ZM20.71 490.16L39.78 479.16L58.84 490.16V512.16L39.77 523.16L20.71 512.16V490.16ZM20.71 421.92L39.78 410.92L58.84 421.92V443.92L39.77 454.92L20.71 443.92V421.92ZM20.71 353.67L39.78 342.67L58.84 353.67V375.67L39.77 386.67L20.71 375.67V353.67ZM20.71 285.42L39.78 274.42L58.84 285.42V307.42L39.77 318.42L20.71 307.42V285.42ZM20.71 217.18L39.78 206.18L58.84 217.18V239.18L39.77 250.18L20.71 239.18V217.18ZM20.71 148.93L39.78 137.93L58.84 148.93V170.93L39.77 181.93L20.71 170.93V148.93ZM20.71 80.69L39.78 69.69L58.84 80.69V102.69L39.77 113.69L20.71 102.69V80.69ZM1.08 46.36L20.08 35.36L39.16 46.36V68.36L20.1 79.36L1.03 68.36L1.08 46.36ZM58.84 12.44V34.44L39.77 45.44L20.71 34.44V12.44L39.78 1.44L58.84 12.44ZM98.09 12.44V34.44L79 45.44L60 34.43V12.43L79 1.43L98.09 12.44ZM137.35 12.44V34.44L118.28 45.44L99.22 34.44V12.44L118.28 1.44L137.35 12.44ZM176.6 12.44V34.44L157.53 45.44L138.47 34.44V12.44L157.53 1.44L176.6 12.44ZM215.85 12.44V34.44L196.78 45.44L177.72 34.44V12.44L196.79 1.44L215.85 12.44ZM255.1 12.44V34.44L236 45.44L217 34.43V12.43L236.07 1.43L255.1 12.44ZM294.36 12.44V34.44L275.29 45.44L256.23 34.44V12.44L275.29 1.44L294.36 12.44ZM333.61 12.44V34.44L314.54 45.44L295.48 34.44V12.44L314.54 1.44L333.61 12.44ZM372.86 12.44V34.44L353.79 45.44L334.73 34.44V12.44L353.79 1.44L372.86 12.44ZM412.11 12.44V34.44L393 45.44L374 34.43V12.43L393.07 1.43L412.11 12.44ZM451.37 12.44V34.44L432.3 45.44L413.23 34.44V12.44L432.3 1.44L451.37 12.44ZM490.62 12.44V34.44L471.55 45.44L452.49 34.44V12.44L471.55 1.44L490.62 12.44ZM529.87 12.44V34.44L510.8 45.44L491.74 34.44V12.44L510.8 1.44L529.87 12.44ZM569.12 12.44V34.44L550.05 45.44L531 34.43V12.43L550.07 1.43L569.12 12.44ZM608.38 12.44V34.44L589.3 45.44L570.24 34.44V12.44L589.31 1.44L608.38 12.44ZM647.63 12.44V34.44L628.56 45.44L609.5 34.44V12.44L628.56 1.44L647.63 12.44ZM686.88 12.44V34.44L667.81 45.44L648.75 34.44V12.44L667.81 1.44L686.88 12.44ZM726.13 12.44V34.44L707.06 45.44L688 34.43V12.43L707.07 1.43L726.13 12.44ZM765.38 12.44V34.44L746.31 45.44L727.25 34.44V12.44L746.32 1.44L765.38 12.44ZM804.64 12.44V34.44L785.57 45.44L766.51 34.44V12.44L785.57 1.44L804.64 12.44ZM843.89 12.44V34.44L824.82 45.44L805.76 34.44V12.44L824.82 1.44L843.89 12.44ZM883.14 12.44V34.44L864.07 45.44L845 34.43V12.43L864.07 1.43L883.14 12.44ZM922.39 12.44V34.44L903.32 45.44L884.26 34.44V12.44L903.33 1.44L922.39 12.44ZM961.65 12.44V34.44L942.58 45.44L923.52 34.44V12.44L942.58 1.44L961.65 12.44ZM1000.9 12.44V34.44L981.83 45.44L962.77 34.44V12.44L981.83 1.44L1000.9 12.44ZM1040.15 12.44V34.44L1021.08 45.44L1002.02 34.44V12.44L1021.09 1.44L1040.15 12.44ZM1079.4 12.44V34.44L1060.33 45.44L1041.27 34.44V12.44L1060.34 1.44L1079.4 12.44ZM1118.66 12.44V34.44L1099.59 45.44L1080.52 34.44V12.44L1099.59 1.44L1118.66 12.44ZM1157.91 12.44V34.44L1138.84 45.44L1119.78 34.44V12.44L1138.84 1.44L1157.91 12.44ZM1197.16 12.44V34.44L1178.09 45.44L1159.03 34.44V12.44L1178.09 1.44L1197.16 12.44ZM1236.41 12.44V34.44L1217.34 45.44L1198.28 34.44V12.44L1217.35 1.44L1236.41 12.44ZM1275.66 12.44V34.44L1256.59 45.44L1237.53 34.44V12.44L1256.6 1.44L1275.66 12.44ZM1314.92 12.44V34.44L1295.85 45.44L1276.79 34.44V12.44L1295.85 1.44L1314.92 12.44ZM1354.17 12.44V34.44L1335.1 45.44L1316.04 34.44V12.44L1335.1 1.44L1354.17 12.44ZM1393.42 12.44V34.44L1374.35 45.44L1355.29 34.44V12.44L1374.36 1.44L1393.42 12.44ZM1432.67 12.44V34.44L1413.6 45.44L1394.54 34.44V12.44L1413.61 1.44L1432.67 12.44ZM1471.93 34.44L1452.93 45.44L1433.85 34.44V12.44L1452.91 1.44L1471.98 12.44L1471.93 34.44ZM1471.93 102.68L1452.93 113.68L1433.85 102.68V80.68L1452.91 69.68L1471.98 80.68L1471.93 102.68ZM1471.93 170.93L1452.93 181.93L1433.85 170.93V148.93L1452.91 137.93L1471.98 148.93L1471.93 170.93ZM1471.93 239.17L1452.93 250.17L1433.85 239.17V217.17L1452.91 206.17L1471.98 217.17L1471.93 239.17ZM1471.93 307.42L1452.93 318.42L1433.85 307.42V285.42L1452.91 274.42L1471.98 285.42L1471.93 307.42ZM1471.93 375.67L1452.93 386.67L1433.85 375.67V353.67L1452.91 342.67L1471.98 353.67L1471.93 375.67ZM1471.93 443.91L1452.93 454.91L1433.85 443.91V421.91L1452.91 410.91L1471.98 421.91L1471.93 443.91ZM1471.93 512.16L1452.93 523.16L1433.85 512.16V490.16L1452.91 479.16L1471.98 490.16L1471.93 512.16ZM1471.93 580.4L1452.93 591.4L1433.85 580.4V558.4L1452.91 547.4L1471.98 558.4L1471.93 580.4ZM1471.93 648.65L1452.93 659.65L1433.85 648.65V626.65L1452.91 615.65L1471.98 626.65L1471.93 648.65ZM1471.93 716.9L1452.93 727.9L1433.85 716.9V694.9L1452.91 683.9L1471.98 694.9L1471.93 716.9ZM1471.93 785.14L1452.93 796.14L1433.85 785.14V763.14L1452.91 752.14L1471.98 763.14L1471.93 785.14ZM1414.16 819.06V797.06L1433.23 786.06L1452.3 797.06V819.06L1433.23 830.06L1414.16 819.06ZM1374.91 819.06V797.06L1393.98 786.06L1413.04 797.06V819.06L1393.98 830.06L1374.91 819.06ZM1335.66 819.06V797.06L1354.73 786.06L1373.79 797.06V819.06L1354.73 830.06L1335.66 819.06ZM1296.41 819.06V797.06L1315.48 786.06L1334.54 797.06V819.06L1315.47 830.06L1296.41 819.06ZM1257.16 819.06V797.06L1276.23 786.06L1295.29 797.06V819.06L1276.22 830.06L1257.16 819.06ZM1217.9 819.06V797.06L1236.97 786.06L1256.03 797.06V819.06L1236.97 830.06L1217.9 819.06ZM1178.65 819.06V797.06L1197.72 786.06L1216.78 797.06V819.06L1197.72 830.06L1178.65 819.06ZM1139.4 819.06V797.06L1158.47 786.06L1177.53 797.06V819.06L1158.46 830.06L1139.4 819.06ZM1100.15 819.06V797.06L1119.22 786.06L1138.28 797.06V819.06L1119.21 830.06L1100.15 819.06ZM1060.89 819.06V797.06L1079.96 786.06L1099.02 797.06V819.06L1079.96 830.06L1060.89 819.06ZM1021.64 819.06V797.06L1040.71 786.06L1059.77 797.06V819.06L1040.71 830.06L1021.64 819.06ZM982.39 819.06V797.06L1001.46 786.06L1020.52 797.06V819.06L1001.45 830.06L982.39 819.06ZM943.14 819.06V797.06L962.21 786.06L981.27 797.06V819.06L962.2 830.06L943.14 819.06ZM903.88 819.06V797.06L922.95 786.06L942.02 797.06V819.06L922.95 830.06L903.88 819.06ZM864.63 819.06V797.06L883.7 786.06L902.76 797.06V819.06L883.7 830.06L864.63 819.06ZM825.38 819.06V797.06L844.45 786.06L863.51 797.06V819.06L844.44 830.06L825.38 819.06ZM786.13 819.06V797.06L805.2 786.06L824.26 797.06V819.06L805.19 830.06L786.13 819.06ZM746.88 819.06V797.06L765.95 786.06L785.01 797.06V819.06L765.94 830.06L746.88 819.06ZM707.62 819.06V797.06L726.69 786.06L745.75 797.06V819.06L726.69 830.06L707.62 819.06ZM668.37 819.06V797.06L687.44 786.06L706.5 797.06V819.06L687.44 830.06L668.37 819.06ZM629.12 819.06V797.06L648.19 786.06L667.25 797.06V819.06L648.18 830.06L629.12 819.06ZM589.87 819.06V797.06L608.94 786.06L628 797.06V819.06L608.93 830.06L589.87 819.06ZM550.61 819.06V797.06L569.68 786.06L588.74 797.06V819.06L569.68 830.06L550.61 819.06ZM511.36 819.06V797.06L530.43 786.06L549.49 797.06V819.06L530.43 830.06L511.36 819.06ZM472.11 819.06V797.06L491.18 786.06L510.24 797.06V819.06L491.17 830.06L472.11 819.06ZM432.86 819.06V797.06L451.93 786.06L470.99 797.06V819.06L451.92 830.06L432.86 819.06ZM393.6 819.06V797.06L412.67 786.06L431.73 797.06V819.06L412.67 830.06L393.6 819.06ZM354.35 819.06V797.06L373.42 786.06L392.48 797.06V819.06L373.42 830.06L354.35 819.06ZM315.1 819.06V797.06L334.17 786.06L353.23 797.06V819.06L334.16 830.06L315.1 819.06ZM275.85 819.06V797.06L294.92 786.06L313.98 797.06V819.06L294.91 830.06L275.85 819.06ZM236.59 819.06V797.06L255.66 786.06L274.72 797.06V819.06L255.66 830.06L236.59 819.06ZM197.34 819.06V797.06L216.41 786.06L235.47 797.06V819.06L216.41 830.06L197.34 819.06ZM158.09 819.06V797.06L177.16 786.06L196.22 797.06V819.06L177.16 830.06L158.09 819.06ZM118.84 819.06V797.06L137.91 786.06L156.97 797.06V819.06L137.9 830.06L118.84 819.06ZM79.58 819.06V797.06L98.66 786.06L117.72 797.06V819.06L98.65 830.06L79.58 819.06ZM40.33 819.06V797.06L59.4 786.06L78.46 797.06V819.06L59.4 830.06L40.33 819.06ZM1.08 797.06L20.08 786.06L39.16 797.06V819.06L20.1 830.06L1.03 819.06L1.08 797.06ZM1.08 728.81L20.08 717.81L39.16 728.81V750.81L20.1 761.81L1.03 750.81L1.08 728.81ZM1.08 660.57L20.08 649.57L39.16 660.57V682.57L20.1 693.57L1.03 682.57L1.08 660.57ZM1.08 592.32L20.08 581.32L39.16 592.32V614.32L20.1 625.32L1.03 614.32L1.08 592.32ZM1.08 524.07L20.08 513.07L39.16 524.07V546.07L20.1 557.07L1.03 546.07L1.08 524.07ZM1.08 455.83L20.08 444.83L39.16 455.83V477.83L20.1 488.83L1.03 477.83L1.08 455.83ZM1.08 387.58L20.08 376.58L39.16 387.58V409.58L20.1 420.58L1.03 409.58L1.08 387.58ZM1.08 319.34L20.08 308.34L39.16 319.34V341.34L20.1 352.34L1.03 341.34L1.08 319.34ZM1.08 251.09L20.08 240.09L39.16 251.09V273.09L20.1 284.09L1.03 273.09L1.08 251.09ZM1.08 182.84L20.08 171.84L39.16 182.84V204.84L20.1 215.84L1.03 204.84L1.08 182.84ZM1.08 114.6L20.08 103.6L39.16 114.6V136.6L20.1 147.6L1.03 136.6L1.08 114.6Z" fill="url(#paint0_radial_156_4463)"/>
<defs>
<radialGradient id="paint0_radial_156_4463" cx="0" cy="0" r="1" gradientUnits="userSpaceOnUse" gradientTransform="translate(768.09 432.06) scale(737.03)">
<stop stop-color="#06258A"/>
<stop offset="0.09" stop-color="#13339E"/>
<stop offset="0.26" stop-color="#294CC2"/>
<stop offset="0.35" stop-color="#3256CF"/>
<stop offset="0.41" stop-color="#2B4BB4"/>
<stop offset="0.56" stop-color="#1C3074"/>
<stop offset="0.69" stop-color="#101B42"/>
<stop offset="0.8" stop-color="#070D1E" stop-opacity="0.39"/>
<stop offset="0.89" stop-color="#020308" stop-opacity="0"/>
<stop offset="0.95" stop-opacity="0"/>
</radialGradient>
</defs>
</svg>
