<svg width="114" height="178" viewBox="0 0 114 178" fill="none" xmlns="http://www.w3.org/2000/svg">
<path d="M212.843 118.83L205.584 137.307C197.018 159.086 173.426 174.731 139.888 177.018C85.6263 180.648 25.6295 148.269 6.10242 104.637C-1.15672 87.9761 -1.81004 71.9682 3.45284 58.5012L10.712 40.0249C5.4491 53.5282 5.92095 69.4635 13.3616 86.1611C32.8887 129.72 92.8855 162.389 147.148 158.542C180.685 156.255 204.277 140.682 212.843 118.83Z" fill="url(#paint0_linear_140_4174)"/>
<path d="M76.4074 0.277418C130.851 -3.3525 190.666 29.0626 210.193 72.6942C229.721 116.326 201.41 154.839 147.148 158.542C92.8856 162.244 32.8888 129.793 13.3617 86.1612C-6.16538 42.5296 22.1453 4.16143 76.4074 0.277418Z" fill="#009CFF"/>
<path d="M205.257 73.13C186.71 31.4948 129.798 0.713147 78.1857 4.16157C26.5732 7.60999 -0.285665 44.3084 18.1526 85.7984C36.5908 127.288 93.6114 158.106 145.188 154.767C196.764 151.427 223.84 114.547 205.257 73.13Z" fill="#14172B"/>
<path d="M113.066 142.679L113.138 146.817L115.026 147.144L114.808 143.006L113.066 142.679Z" fill="#004775"/>
<path d="M101.923 140.065L101.27 144.058L102.032 144.312L102.649 140.283L101.923 140.065Z" fill="#004775"/>
<path d="M98.6929 139.122L97.8218 143.078L99.6728 143.623L100.399 139.63L98.6929 139.122Z" fill="#004775"/>
<path d="M96.5514 138.432L95.5352 142.316L96.1522 142.498L97.1322 138.614L96.5514 138.432Z" fill="#004775"/>
<path d="M104.065 140.646L103.556 144.675C104.863 145.002 106.17 145.365 107.513 145.655L111.469 146.526V142.388L107.839 141.59L104.21 140.646H104.065Z" fill="#004775"/>
<path d="M91.3974 136.617L90.0544 140.247C91.8692 140.9 93.684 141.59 95.5351 142.17L96.5514 138.468C94.8092 137.923 92.9218 137.27 91.3974 136.653V136.617Z" fill="#004775"/>
<path d="M89.1109 135.746L87.5864 139.448L88.3849 139.739L89.8368 136.036L89.1109 135.746Z" fill="#004775"/>
<path d="M85.9893 134.439L84.2834 138.069C84.8642 138.359 85.4449 138.577 86.0619 138.831L87.659 135.201L85.9893 134.475V134.439Z" fill="#004775"/>
<path d="M72.6324 127.833L70.0554 130.991L71.725 131.934L74.1931 128.704L72.6324 127.833Z" fill="#004775"/>
<path d="M69.9828 126.272L67.2244 129.357L68.8577 130.337L71.5073 127.179L69.9828 126.272Z" fill="#004775"/>
<path d="M83.9204 133.568L82.0693 137.125L82.6501 137.379L84.4649 133.786L83.9204 133.568Z" fill="#004775"/>
<path d="M60.5823 119.992L57.2068 122.642L57.8601 123.15L61.1993 120.428L60.5823 119.992Z" fill="#004775"/>
<path d="M58.0052 118.032L54.4482 120.573L55.9364 121.698L59.3845 119.084L58.0052 118.032Z" fill="#004775"/>
<path d="M56.3356 116.689L52.7061 119.121L53.1779 119.52L56.7712 117.052L56.3356 116.689Z" fill="#004775"/>
<path d="M75.5362 129.466L73.177 132.733L76.7703 134.62L80.4724 136.399L82.3961 132.878L78.948 131.208L75.5362 129.466Z" fill="#004775"/>
<path d="M62.3609 121.263L59.0942 124.021C61.2357 125.546 63.486 127.034 65.7726 128.45L68.6037 125.437C66.4623 124.094 64.3571 122.715 62.3609 121.263V121.263Z" fill="#004775"/>
<path d="M52.4159 113.349L48.5322 115.563L50.5648 117.378L52.7062 119.121L56.3358 116.689L54.4484 115.019L52.5248 113.349H52.4159Z" fill="#004775"/>
<path d="M50.7098 111.789L46.7173 113.93L47.2617 114.438L51.2543 112.297L50.7098 111.789Z" fill="#004775"/>
<path d="M48.4596 109.61L44.2856 111.607L45.5923 112.841L49.6937 110.772L48.4596 109.61V109.61Z" fill="#004775"/>
<path d="M39.6761 99.519L34.9214 100.826L35.9377 102.169L40.6198 100.79L39.6761 99.519Z" fill="#004775"/>
<path d="M38.079 97.3411L33.2153 98.539L34.1953 99.9184L38.9864 98.539L38.079 97.2686V97.3411Z" fill="#004775"/>
<path d="M47.0441 108.158L42.7612 110.046L43.1968 110.445L47.4071 108.557L47.0441 108.158Z" fill="#004775"/>
<path d="M32.9977 89.0288L27.8074 89.6822L28.134 90.263L33.288 89.6096L32.9977 89.0288Z" fill="#004775"/>
<path d="M31.7636 86.5967L26.5007 87.0323L27.1904 88.4479L32.4169 87.9035L31.7636 86.5967Z" fill="#004775"/>
<path d="M31.0012 84.9268L25.6658 85.326L25.8836 85.7616L31.1827 85.3986L31.0012 84.9268Z" fill="#004775"/>
<path d="M41.4908 101.842L36.845 103.331C37.6435 104.274 38.3694 105.218 39.2042 106.126L41.6723 108.884L45.9915 107.069L43.5597 104.492C42.7975 103.621 42.1079 102.713 41.3819 101.842H41.4908Z" fill="#004775"/>
<path d="M33.8687 90.6621L28.751 91.3881C29.2591 92.4045 29.9125 93.3845 30.4932 94.3646L31.4006 95.8166L32.3805 97.2686L37.2805 96.1796L36.3005 94.9091L35.4657 93.5298C34.885 92.6223 34.3042 91.7148 33.7961 90.771L33.8687 90.6621Z" fill="#004775"/>
<path d="M23.96 81.043C24.4681 82.495 25.0851 83.9107 25.6659 85.29L31.0013 84.927C30.4569 83.6203 29.8399 82.2772 29.368 80.9705H23.96V81.043Z" fill="#004775"/>
<path d="M23.2705 79.1191L23.4883 79.7362H28.9326L28.7512 79.1554L23.2705 79.1191Z" fill="#004775"/>
<path d="M22.4719 76.5056L22.8712 77.9213L28.3518 77.9939L27.9526 76.6871L22.4719 76.5056Z" fill="#004775"/>
<path d="M20.3667 64.926L20.5119 66.3054L26.1377 67.104L26.0288 65.7972L20.3667 64.926Z" fill="#004775"/>
<path d="M20.2942 62.5305L20.3305 63.9099L25.9563 64.89L25.92 63.5832L20.2942 62.5305Z" fill="#004775"/>
<path d="M21.9636 74.7268L22.1088 75.235L27.6258 75.4528L27.5169 75.0172L21.9636 74.7268Z" fill="#004775"/>
<path d="M20.8748 53.9275L20.7659 54.5083L26.3917 56.0328L26.5006 55.5247L20.8748 53.9275Z" fill="#004775"/>
<path d="M21.3466 51.4954L21.0925 52.8021L26.6821 54.4356L26.8998 53.2377L21.3466 51.4954Z" fill="#004775"/>
<path d="M21.7459 49.8982L21.637 50.3338L27.1902 52.1124L27.2991 51.7131L21.7459 49.8982Z" fill="#004775"/>
<path d="M20.6208 67.5034C20.9018 69.507 21.2895 71.4942 21.7823 73.4565L27.3356 73.8195C26.9066 71.9755 26.5794 70.1093 26.3556 68.2294L20.7297 67.5034H20.6208Z" fill="#004775"/>
<path d="M20.6571 55.561C20.6571 56.5048 20.403 57.4486 20.3667 58.4287V61.2963L25.9925 62.4216V59.6992C25.9925 58.828 26.174 57.9205 26.2829 57.0493L20.6571 55.561V55.561Z" fill="#004775"/>
<path d="M22.9074 46.0868C22.4613 47.3352 22.0857 48.6076 21.7822 49.8982L27.3355 51.7131C27.6291 50.4834 27.9927 49.2715 28.4244 48.0832L22.9437 46.0142L22.9074 46.0868Z" fill="#004775"/>
<path d="M23.5245 44.4172L23.343 44.9617L28.7874 47.1034L29.0052 46.5952L23.5245 44.4172Z" fill="#004775"/>
<path d="M24.5044 42.1665L23.96 43.4007L29.4043 45.6149C29.5363 45.2241 29.7065 44.8471 29.9125 44.4897L24.5044 42.1665Z" fill="#004775"/>
<path d="M30.348 32.874L29.5132 33.963L34.5946 36.758L35.3931 35.7417L30.348 32.874Z" fill="#004775"/>
<path d="M31.8725 31.0952L30.9651 32.1479L35.9376 35.0518L36.8087 34.1081L31.8725 31.0952Z" fill="#004775"/>
<path d="M25.2303 40.7146L25.0488 41.1139L30.4206 43.4733L30.6021 43.1103L25.2303 40.7146Z" fill="#004775"/>
<path d="M38.3331 25.0332L37.825 25.3962L42.3982 28.7357L42.8701 28.3727L38.3331 25.0332Z" fill="#004775"/>
<path d="M40.4381 23.436L39.313 24.2709L43.7774 27.683L44.8299 26.8845L40.4381 23.436Z" fill="#004775"/>
<path d="M41.9264 22.4197L41.5271 22.6738L45.8463 26.1585L46.2455 25.9407L41.9264 22.4197Z" fill="#004775"/>
<path d="M28.8236 34.8704L27.2266 37.2298L25.811 39.6618L31.1102 42.0939L32.4531 39.807L33.9413 37.6291L28.8236 34.8704Z" fill="#004775"/>
<path d="M36.9901 26.1587C35.4729 27.4162 34.0307 28.7616 32.6709 30.1879L37.5345 33.237C38.8026 31.9464 40.148 30.7342 41.5634 29.6071L36.9538 26.3402L36.9901 26.1587Z" fill="#004775"/>
<path d="M45.6647 20.0603L43.7411 21.2219C43.124 21.5849 42.5433 22.0204 41.9263 22.4197L46.2455 26.0497L47.9514 24.8881L49.7298 23.8354L45.6647 20.2055V20.0603Z" fill="#004775"/>
<path d="M47.4433 19.1165L46.8625 19.4069L50.8914 23.1094L51.3995 22.819L47.4433 19.1165Z" fill="#004775"/>
<path d="M49.9477 17.81L48.6047 18.4997L52.4884 22.1296L53.7587 21.4762L49.9477 17.6648V17.81Z" fill="#004775"/>
<path d="M62.1069 13.3088L60.5461 13.7444L63.7039 17.8099L65.192 17.4107L62.1069 13.3088Z" fill="#004775"/>
<path d="M64.829 12.6191L63.2683 13.0184L66.2446 17.1202L67.7327 16.7209L64.829 12.6191Z" fill="#004775"/>
<path d="M51.6899 17.0476L51.218 17.2291L54.9565 21.0768L55.392 20.8953L51.6899 17.0476Z" fill="#004775"/>
<path d="M75.4637 10.6953L74.7378 10.8042L76.9881 15.0512L77.6778 14.9423L75.4637 10.6953Z" fill="#004775"/>
<path d="M78.6577 10.3684L76.9155 10.5136L79.0933 14.7969L80.6903 14.6154L78.6577 10.3684Z" fill="#004775"/>
<path d="M80.8353 10.187L80.2183 10.2233L82.1782 14.5066L82.7227 14.4703L80.8353 10.187Z" fill="#004775"/>
<path d="M59.2394 14.1799C58.1868 14.5429 57.0616 14.8696 56.0453 15.2689L52.9602 16.4668L56.5898 20.3508L59.4934 19.2255C60.4371 18.8262 61.4897 18.5358 62.4697 18.2091L59.2394 14.1799V14.1799Z" fill="#004775"/>
<path d="M73.3586 10.9856C72.1245 10.9856 70.9631 11.3486 69.729 11.5664L67.9505 11.8931L66.2446 12.2561L68.9668 16.4305L70.5638 16.0675L72.2334 15.7408C73.3223 15.7408 74.4112 15.3415 75.5726 15.1963L73.2134 10.9856H73.3586Z" fill="#004775"/>
<path d="M80.8354 10.187L82.7228 14.4703C84.3924 14.4703 86.062 14.2525 87.7316 14.2525L86.1346 9.96924C84.3561 9.96924 82.5051 9.96924 80.8354 10.187V10.187Z" fill="#004775"/>
<path d="M87.8406 9.93286L89.2924 14.2525L90.0183 14.2162L88.6028 9.93286H87.8406Z" fill="#004775"/>
<path d="M90.1633 9.93286L91.47 14.2524L93.1759 14.2888L91.9781 10.0055L90.1633 9.93286Z" fill="#004775"/>
<path d="M105.335 11.167L105.734 15.3777L107.476 15.6318L107.186 11.4574L105.335 11.167Z" fill="#004775"/>
<path d="M108.529 11.6753L108.747 15.8497L110.489 16.1764L110.416 12.002L108.529 11.6753Z" fill="#004775"/>
<path d="M93.6113 10.0781L94.7365 14.3251L95.3172 14.3614L94.2284 10.0781H93.6113Z" fill="#004775"/>
<path d="M95.8979 10.187L96.8779 14.4703C99.3097 14.4703 101.778 14.8696 104.137 15.16L103.629 10.9493C101.016 10.6226 98.3661 10.3322 95.7891 10.187H95.8979Z" fill="#004775"/>
<path d="M112.086 12.3286V16.4667L115.715 17.2653C116.949 17.5194 118.184 17.8824 119.345 18.1728L119.853 14.1436C118.546 13.8169 117.24 13.4539 115.897 13.1635L111.941 12.3286H112.086Z" fill="#004775"/>
<path d="M93.4301 19.7336H92.4138C90.0183 19.7336 87.5865 19.7336 85.1547 19.9514H84.1747L84.9006 21.5123H85.8806C88.2035 21.5123 90.5627 21.2945 92.9219 21.2945H93.9382L93.4301 19.7336ZM78.9118 20.6048H77.9681C75.6089 20.9678 73.3586 21.4034 71.1445 21.9479L70.2734 22.1657L71.326 23.7265L72.2334 23.4725C74.3748 22.9643 76.5889 22.5287 78.8392 22.1657L79.8555 22.3109L78.9118 20.6048ZM108.711 21.1856H107.658C105.117 20.7863 102.54 20.4959 99.9996 20.2781H98.947L99.2737 21.839H100.29C102.794 22.0568 105.299 22.3472 107.767 22.7465H108.819L108.711 21.1856ZM65.5913 23.7265L64.7565 24.0169C62.7291 24.7175 60.7419 25.5294 58.804 26.449L58.0418 26.812L59.4573 28.2276L60.2195 27.8646C62.0827 26.9935 64.0064 26.1949 65.9905 25.4689L66.8253 25.1785L65.5913 23.7265ZM123.047 24.5251C120.507 23.7628 117.93 23.0732 115.353 22.4924L114.336 22.3109V23.7991L115.389 24.0532C117.893 24.634 120.361 25.2874 122.83 26.0497L123.882 26.3401L124.173 24.8881L123.047 24.5251ZM54.0855 28.9536L53.3959 29.3892C51.6997 30.4291 50.0749 31.5812 48.5323 32.8376L47.879 33.3458L49.5849 34.58L50.2019 34.0718C51.724 32.8718 53.3114 31.7569 54.9566 30.7323L55.6463 30.2967L54.0855 28.9536ZM137.929 30.1878C135.497 29.0625 133.029 28.0461 130.669 27.1024L129.653 26.7394L129.145 28.1187L130.198 28.518C132.593 29.4255 134.989 30.4056 137.457 31.4946L138.473 31.9302L139.163 30.6234L137.929 30.1878ZM44.7938 36.1772L44.2494 36.7216C42.9496 38.0707 41.7373 39.5014 40.6198 41.0049L40.148 41.622L42.0716 42.6384L42.5072 42.0213C43.613 40.5427 44.8262 39.1475 46.1368 37.8469L46.6449 37.3024L44.7938 36.1772ZM151.939 37.7017C149.725 36.3224 147.438 34.9793 145.115 33.7088L144.172 33.2006L143.3 34.4348L144.244 34.943C146.494 36.1772 148.708 37.4476 150.886 38.827L151.757 39.3715L152.846 38.2825L151.939 37.7017ZM38.0428 44.9616L37.7162 45.6149C36.853 47.214 36.1128 48.8765 35.5021 50.5879L35.248 51.2776L37.2806 52.0399L37.5347 51.3502C38.1142 49.6846 38.8304 48.0699 39.6761 46.5224L40.0391 45.8327L38.0428 44.9616ZM164.352 46.7402C162.428 45.1067 160.432 43.5459 158.363 42.0213L157.528 41.4042L156.294 42.3843L157.129 43.0014C159.162 44.4897 161.085 46.0142 162.973 47.6114L163.735 48.2648L165.114 47.4299L164.352 46.7402ZM34.1592 55.1979V55.9239C33.7758 57.7306 33.5211 59.5623 33.397 61.4051V62.2399L35.4658 62.7118V61.9495C35.5778 60.1556 35.8205 58.3722 36.1917 56.6136V55.8876L34.1592 55.1979ZM174.732 57.1944C173.208 55.3794 171.538 53.5644 169.833 51.8584L169.107 51.1687L167.582 51.8947L168.272 52.6207C169.941 54.2904 171.575 55.9965 173.063 57.7752L173.68 58.5011L175.386 57.9204L174.732 57.1944ZM36.3006 73.1297C35.9419 71.2699 35.6875 69.3915 35.5384 67.5033V66.741L33.4333 66.4144V67.1766C33.577 69.1155 33.8437 71.0432 34.2318 72.9482V73.7468H36.3006V73.1297ZM182.681 68.4108C181.592 66.4869 180.358 64.7809 179.052 62.7481L178.507 61.9859L176.729 62.4215L177.237 63.1837C178.544 64.9987 179.705 66.8136 180.866 68.7012L181.338 69.4998L183.226 69.2094L182.681 68.4108ZM39.9302 84.4187C39.112 82.5847 38.3971 80.7063 37.7888 78.7924L37.4984 77.9938H35.5021L35.7562 78.7924C36.3888 80.7669 37.1279 82.7057 37.9702 84.6002V84.6002L38.3332 85.3988H40.2932L39.9302 84.4187ZM187.98 80.3895C187.335 78.4026 186.584 76.4517 185.73 74.5454L185.367 73.7468H183.407L183.77 74.5454C184.605 76.4329 185.331 78.3568 185.948 80.208L186.202 81.0066H188.235L187.98 80.3895ZM46.4271 95.7804C45.124 93.9918 43.9126 92.1381 42.7976 90.2266L42.3257 89.4643L40.4383 89.7547L40.9102 90.517C42.017 92.4803 43.2286 94.3827 44.5398 96.216L45.0842 96.9782L46.8627 96.5426L46.4271 95.7804ZM190.412 92.1504C190.297 90.2108 190.042 88.282 189.65 86.3789V85.5803H187.581V86.3789C187.937 88.2391 188.192 90.1173 188.343 92.0052V92.8038L190.449 93.1305L190.412 92.1504ZM55.2107 106.162C53.5411 104.492 51.9441 102.75 50.456 101.007L49.8026 100.245L48.133 100.826L48.7501 101.588C50.3108 103.403 51.9441 105.218 53.6863 106.888L54.3759 107.614L55.9366 106.888L55.2107 106.162ZM188.235 96.2523V97.0145C188.122 98.8085 187.88 100.592 187.509 102.351V103.076L189.577 103.694V102.968C189.946 101.158 190.2 99.3276 190.34 97.4864V96.7241L188.235 96.2523ZM66.3535 115.709C64.3572 114.22 62.3973 112.696 60.5462 111.099L59.7477 110.409L58.3684 111.28L59.1306 111.97C61.0543 113.603 63.0506 115.164 65.1194 116.689L65.9542 117.306L67.1883 116.326L66.3535 115.709ZM186.129 106.779L185.875 107.469C185.254 109.135 184.527 110.76 183.698 112.333L183.335 112.986L185.331 113.857L185.658 113.204C186.532 111.606 187.285 109.943 187.908 108.231L188.162 107.541L186.129 106.779ZM79.2385 123.949C76.9881 122.751 74.7741 121.444 72.5963 120.065L71.7252 119.52L70.6364 120.609L71.5438 121.19C73.7578 122.605 76.0081 123.912 78.3674 125.183L79.2748 125.691L80.1822 124.457L79.2385 123.949ZM181.484 116.253L181.048 116.834C179.94 118.311 178.727 119.706 177.418 121.008L176.874 121.589L178.689 122.714L179.197 122.17C180.506 120.829 181.719 119.398 182.826 117.887L183.298 117.269L181.484 116.253ZM93.3575 130.301C90.9257 129.393 88.5302 128.377 86.0984 127.324L85.1184 126.852L84.4287 128.159L85.4087 128.631C87.8405 129.72 90.2724 130.736 92.6679 131.68L93.6842 132.08L94.1923 130.7L93.3575 130.301ZM173.934 124.311L173.317 124.783C171.806 125.999 170.218 127.114 168.562 128.123L167.873 128.558L169.397 129.902L170.123 129.466C171.807 128.421 173.431 127.282 174.987 126.054L175.604 125.546L173.934 124.311ZM108.202 134.838C105.698 134.257 103.194 133.604 100.726 132.842L99.7093 132.515L99.3826 134.003L100.435 134.294C102.976 135.056 105.517 135.746 108.094 136.363L109.146 136.581V135.092L108.202 134.838ZM164.062 130.664L163.263 130.991C161.4 131.862 159.476 132.66 157.492 133.386L156.621 133.677L157.891 135.165L158.726 134.838C160.753 134.138 162.741 133.326 164.679 132.406L165.441 132.043L164.062 130.664ZM124.136 137.234H123.084C120.616 137.016 118.111 136.726 115.643 136.327H114.59V137.851H115.643C118.184 138.25 120.724 138.541 123.301 138.759H124.354L124.136 137.234ZM152.048 135.02L151.177 135.238C149.035 135.746 146.821 136.181 144.571 136.544H143.627L144.498 138.105H145.442C147.801 137.742 150.051 137.27 152.265 136.762L153.137 136.544L152.048 135.02ZM138.618 137.234H137.638C135.279 137.234 132.92 137.452 130.379 137.234H129.363L129.871 138.831H130.887C133.355 138.831 135.787 138.831 138.146 138.613H139.126L138.618 137.234Z" fill="#009CFF"/>
<path d="M162.755 90.8073L161.884 88.8472C157.87 81.3003 151.032 75.6494 142.865 73.1296C143.673 71.577 144.095 69.8525 144.095 68.1022C144.095 66.3519 143.673 64.6274 142.865 63.0748L142.103 61.3687C137.82 51.822 124.681 44.7074 112.848 45.5423H110.707L104.355 31.313L91.3248 32.1842L97.6766 46.4134L91.1797 46.849L84.8279 32.6561L71.7977 33.5272L78.1858 47.7202L55.8276 49.2448L60.8364 60.4249L75.3547 59.4449L95.3174 104.093L83.0857 104.928L85.8079 116.253L108.348 114.728L114.518 128.522L127.33 127.578L121.16 113.785L127.693 113.349L133.863 127.143L146.857 126.235L140.687 112.442L147.148 112.006C160.577 111.171 167.582 101.624 162.755 90.8073ZM146.458 110.518L137.929 111.062L144.099 124.892L134.989 125.509L128.818 111.716L118.401 112.405L124.572 126.199L115.462 126.816L109.4 113.059L87.1145 114.547L85.1909 106.416L98.0033 105.581L76.4436 57.7388L61.9253 58.7189L58.2957 50.7331L80.6539 49.2085L74.3022 34.9792L83.3761 34.3621L89.7278 48.5914L100.181 47.8654L93.8292 33.6361L102.903 33.0191L109.255 47.2483L113.356 46.9579C124.245 46.232 136.077 52.6932 139.961 61.4776L140.723 63.1837C141.507 64.6971 141.876 66.3909 141.793 68.0932C141.71 69.7954 141.178 71.4454 140.251 72.8755L139.707 73.6741L141.05 74.1097C145.015 75.2092 148.715 77.1057 151.922 79.6833C155.13 82.2609 157.778 85.4655 159.706 89.1013L160.577 91.0614C165.223 100.899 158.799 109.647 146.458 110.518ZM135.097 83.5838C131.664 81.6804 127.767 80.7752 123.846 80.9703L105.008 82.277L114.99 104.528L133.791 103.258C141.449 102.713 145.405 97.3049 142.683 91.1703C141.041 87.8884 138.379 85.2267 135.097 83.5838ZM133.101 101.733L116.151 102.822L107.622 83.729L124.463 82.5674C127.824 82.3959 131.167 83.1625 134.117 84.7817C136.956 86.1743 139.263 88.4557 140.687 91.2792C143.046 96.5789 139.634 101.225 133.101 101.661V101.733ZM124.136 62.2399C122.877 59.6557 120.796 57.5621 118.22 56.2868C115.535 54.813 112.496 54.1095 109.436 54.2541L93.067 55.3793L100.871 73.1296L117.204 72.0044C123.192 71.4236 126.314 67.1766 124.136 62.2399ZM102.105 71.0606L95.7529 56.8313L110.271 55.8512C112.796 55.7109 115.309 56.2765 117.53 57.4847C119.621 58.5442 121.314 60.2501 122.358 62.3488C124.136 66.2691 121.595 69.6086 116.696 70.0805L102.105 71.0606ZM142.683 91.2792C141.041 87.9973 138.379 85.3356 135.097 83.6927C131.664 81.7894 127.767 80.8841 123.846 81.0792L105.008 82.3859L114.99 104.637L133.791 103.367C141.558 102.713 145.405 97.3049 142.683 91.2792ZM133.101 101.77L116.151 102.822L107.622 83.729L124.463 82.5674C127.824 82.3959 131.167 83.1625 134.117 84.7817C136.956 86.1743 139.263 88.4557 140.687 91.2792C143.046 96.5789 139.634 101.225 133.101 101.661V101.77ZM124.136 62.2399C122.877 59.6557 120.796 57.5621 118.22 56.2868C115.535 54.813 112.496 54.1095 109.436 54.2541L93.067 55.3793L100.871 73.1296L117.204 72.0044C123.192 71.4236 126.314 67.1766 124.136 62.2399ZM102.105 71.0606L95.7529 56.8313L110.271 55.8512C112.796 55.7109 115.309 56.2765 117.53 57.4847C119.621 58.5442 121.314 60.2501 122.358 62.3488C124.136 66.2691 121.595 69.6086 116.696 70.0805L102.105 71.0606ZM124.136 62.2399C122.877 59.6557 120.796 57.5621 118.22 56.2868C115.535 54.813 112.496 54.1095 109.436 54.2541L93.067 55.3793L100.871 73.1296L117.204 72.0044C123.192 71.4236 126.314 67.1766 124.136 62.2399ZM116.514 70.2257L101.996 71.2058L95.644 56.9765L110.162 55.9964C112.687 55.8561 115.2 56.4217 117.421 57.6299C119.512 58.6894 121.205 60.3953 122.249 62.494C123.955 66.4143 121.414 69.899 116.514 70.2257ZM142.683 91.2792C141.041 87.9973 138.379 85.3356 135.097 83.6927C131.664 81.7894 127.767 80.8841 123.846 81.0792L105.008 82.3859L114.99 104.637L133.791 103.367C141.558 102.713 145.405 97.3049 142.683 91.2792ZM133.101 101.77L116.151 102.822L107.622 83.729L124.463 82.5674C127.824 82.3959 131.167 83.1625 134.117 84.7817C136.956 86.1743 139.263 88.4557 140.687 91.2792C143.046 96.5789 139.634 101.225 133.101 101.661V101.77Z" fill="#009CFF"/>
<defs>
<linearGradient id="paint0_linear_140_4174" x1="11.1475" y1="92.0053" x2="223.155" y2="165.571" gradientUnits="userSpaceOnUse">
<stop stop-color="#0678B7"/>
<stop offset="0.01" stop-color="#0673B0"/>
<stop offset="0.09" stop-color="#045B90"/>
<stop offset="0.16" stop-color="#024776"/>
<stop offset="0.24" stop-color="#013A63"/>
<stop offset="0.32" stop-color="#003259"/>
<stop offset="0.41" stop-color="#002F55"/>
<stop offset="0.75" stop-color="#00162A"/>
</linearGradient>
</defs>
</svg>
