<svg width="330" height="294" viewBox="0 0 330 294" fill="none" xmlns="http://www.w3.org/2000/svg">
<g clip-path="url(#clip0_140_3928)">
<path d="M278.741 234.551L256.382 257.822C242.423 272.307 211.915 270.365 173.149 249.098C112.783 216.037 55.132 148.901 44.3332 99.1619C40.5884 81.1848 43.1479 68.2328 50.9922 60.0164L73.0962 37.1383C65.3794 45.1583 62.7577 58.3491 66.434 76.0025C77.1903 125.807 134.841 192.943 195.208 226.004C234.274 247.094 264.782 249.036 278.741 234.551Z" fill="url(#paint0_linear_140_3928)"/>
<path d="M156.499 45.6003C216.93 78.7043 274.581 145.84 285.315 195.537C296.048 245.233 255.875 258.889 195.508 225.827C135.142 192.766 77.4911 125.63 66.7348 75.8255C55.9785 26.0211 96.1978 12.581 156.499 45.6003Z" fill="#00B1FF"/>
<path d="M251.727 177.167C244.276 142.727 204.28 96.1799 162.535 73.3504C120.791 50.5208 92.8936 59.8628 100.345 94.3028C107.796 128.743 147.792 175.29 189.537 198.12C231.282 220.949 259.113 211.565 251.727 177.167Z" fill="#14172B"/>
<path d="M286.771 215.751L286.909 214.537C287.249 214.013 287.001 213.108 287.014 212.372C287.028 211.636 287.071 209.709 287.013 208.368L286.903 206.249C286.669 203.586 286.279 200.939 285.735 198.323L285.184 195.452C283.219 187.107 280.353 179.004 276.636 171.283C260.623 135.006 226.317 94.5742 187.444 65.6052L182.283 62.253L177.187 58.9433L167.844 52.8755C165.361 51.2631 162.944 49.6931 160.527 48.1232L156.933 45.7894C150.112 42.037 143.079 38.6818 135.87 35.7404C95.3017 19.5389 67.4805 27.9061 65.1409 56.8251C64.9932 58.372 64.9454 59.9267 64.9977 61.4794C65.1088 64.8282 65.4564 68.1646 66.0379 71.4634C66.1596 72.3941 66.3358 73.3166 66.5658 74.2264L66.8623 75.6291C67.3873 78.2276 68.0436 80.7975 68.8286 83.3289C69.5919 85.8725 70.463 88.393 71.4648 90.9984C72.4666 93.6038 72.5578 94.0354 73.1583 95.5424L75.1329 100.083C77.6622 105.674 80.4721 111.134 83.5517 116.441C103.457 149.371 129.28 178.324 159.718 201.839L162.332 203.536C172.936 211.586 184.116 218.847 195.783 225.261L198.985 227.34C201.942 228.889 204.899 230.344 207.855 231.705L209.423 232.723L210.403 233.36L211.775 234.251L213.947 235.196L215.728 235.887L217.574 236.621L219.093 237.142L219.943 237.694L224.154 239.219L227.581 240.235C261.654 249.704 284.172 240.778 286.771 215.751ZM262.89 236.358C248.414 241.198 226.534 237.413 200.415 223.708L195.086 220.899L189.712 217.874C134.349 185.548 82.665 124.243 72.7528 78.4308C63.2856 37.655 91.0975 22.5797 136.352 40.1486C143.684 43.0149 150.814 46.3709 157.695 50.194L160.243 51.8488C216.467 83.7091 269.699 146.206 280.094 192.705C284.914 216.034 278.053 231.033 262.89 236.358Z" fill="url(#paint1_linear_140_3928)"/>
<path d="M280.094 192.705C269.699 146.206 216.467 83.7091 160.198 51.633L157.65 49.9782C150.769 46.1551 143.638 42.7991 136.306 39.9328C91.0518 22.3639 63.5013 37.6089 72.171 78.6115C82.1288 124.639 133.813 185.945 189.176 218.271L194.55 221.295L199.879 224.104C226.168 237.548 248.048 241.333 262.354 236.754C278.053 231.033 284.914 216.034 280.094 192.705ZM266.093 201.39L265.83 203.082C265.67 204.187 265.378 205.208 265.152 206.271L258.302 200.799C258.601 199.847 258.828 198.875 258.984 197.89L259.161 196.33L259.273 194.727L266.205 199.788L266.093 201.39ZM264.998 184.483L265.991 190.247L259.458 186.004C259.266 184.297 258.878 182.463 258.555 180.671L258.163 180.416L265.037 184.136L264.998 184.483ZM258.74 166.084L259.696 168.473L260.63 170.755L262.281 175.364L256.044 172.524L254.484 168.346L253.616 166.107L252.444 163.763L258.74 166.084ZM247.922 145.839C250.099 149.209 251.931 152.539 253.762 155.869L247.799 154.324C246.079 151.251 244.424 148.222 242.464 145.088L247.922 145.839ZM233.423 125.253L234.207 125.763C236.072 128.184 237.914 130.497 239.671 132.941L234.808 133.134L229.805 126.534L229.021 126.025L233.423 125.253ZM216.477 106.149C219.56 109.268 222.624 112.561 225.514 115.835L221.725 117.377C219.054 114.339 216.34 111.366 213.41 108.439L216.477 106.149ZM206.335 96.3047L204.295 99.4473C201.28 96.6516 198.441 94.1565 195.08 91.3221L196.618 87.6667C199.587 90.2466 202.736 93.4084 206.139 96.1774L206.335 96.3047ZM176.059 72.2662L183.572 77.1459L182.994 81.6111L176.069 77.1133L175.285 76.6041L175.252 71.6491L176.059 72.2662ZM160.254 62.5602L165.219 65.785L166.014 71.1413L161.44 68.1711L156.742 65.6785L155.187 59.9209L160.254 62.5602ZM144.647 55.1238L147.072 61.2596C144.031 60.0295 141.1 58.9639 138.279 58.0627L135.116 51.6335C138.067 52.5258 141.321 53.5223 144.516 55.0389L144.647 55.1238ZM118.122 47.7639C120.004 47.8694 121.932 48.1906 123.968 48.4888L127.977 55.1884C126.115 54.9095 124.295 54.5653 122.586 54.4792L122.194 54.2246L117.404 47.2972L118.122 47.7639ZM110.446 47.7119L115.364 54.443C113.2 54.652 111.061 55.071 108.977 55.6943L103.847 49.2906C105.952 48.6806 108.101 48.2403 110.276 47.9738L110.446 47.7119ZM95.198 53.168C95.6657 52.4478 96.7867 52.152 97.6236 51.5785L103.62 58.0792C103.195 58.7339 102.074 59.0297 101.387 59.5147C100.701 59.9996 99.929 60.6155 99.3306 61.2508L93.0139 55.1005C93.6912 54.4011 94.4214 53.755 95.198 53.168ZM87.1981 64.9137C87.6385 63.5519 88.1878 62.2278 88.8408 60.954L95.5205 66.6884C94.896 67.8637 94.4022 69.1037 94.0478 70.3862L87.2209 65.0216L87.1981 64.9137ZM85.8851 75.2311L85.8862 73.3701L85.9753 71.6594L93.0968 76.2845L92.9848 77.8873L93.1601 80.0489C93.1158 81.2258 93.1578 82.4041 93.2856 83.5745L86.7521 79.3313C86.3857 77.9823 86.0962 76.6133 85.8851 75.2311ZM89.7948 96.3871C88.8184 93.5071 87.9921 90.5781 87.3194 87.6119L94.193 91.3313C94.821 94.0823 95.6017 96.7957 96.5315 99.4591L89.7948 96.3871ZM98.3785 115.924L98.2188 115.169L96.4724 111.708L94.7913 108.289L101.042 110.393L102.504 113.577L104.182 116.715L104.58 117.532L98.3785 115.924ZM110.573 135.48C109.365 133.764 108.157 132.049 107.122 130.353L105.408 127.843L103.867 125.353L109.713 126.078L111.165 128.418L112.661 130.692L115.913 135.411L110.573 135.48ZM127.343 156.145C125.919 154.475 124.387 152.829 123.071 151.136L118.972 146.147L123.375 145.376L127.166 149.98L131.066 154.56L127.343 156.145ZM146.39 175.59L145.541 175.038L143.793 173.438L141.899 172.207L138.489 168.876L141.337 166.35L144.462 169.404L146.079 170.92L147.908 172.108L148.692 172.617L146.39 175.59ZM160.971 188.038L155.758 183.908L157.296 180.252L161.986 184.043L166.762 187.703L165.988 192.041C164.006 190.66 162.304 189.276 160.667 187.934L160.971 188.038ZM182.263 203.169L177.036 199.775L176.591 194.739L181.426 197.879L186.065 200.891L186.925 206.29L182.263 203.169ZM190.163 200.016C147.265 176.53 106.391 128.761 98.4729 93.1801C90.555 57.5993 118.972 48.3155 162.147 71.516C205.323 94.7165 246.247 142.983 253.903 178.394C261.56 213.805 232.823 223.439 189.86 199.912L190.163 200.016ZM207.425 216.346L205.923 215.37L204.289 214.31L200.79 212.689L198.973 206.761L202.276 208.255L203.714 209.188L205.151 210.122L205.804 210.546L208.229 216.682L207.425 216.346ZM221.772 221.289C220.275 220.875 218.736 220.528 217.217 220.006L214.097 213.512C215.474 214.008 216.879 214.423 218.305 214.755C219.671 215.084 221.059 215.52 222.402 215.741L226.173 222.379C224.069 221.757 222.834 221.513 221.337 221.1L221.772 221.289ZM238.751 223.752C237.43 223.639 236.264 223.719 234.878 223.564L230.415 216.849C231.627 216.985 232.794 216.905 233.941 216.998L237.333 216.781L242.293 223.446C240.846 223.53 239.613 223.568 238.381 223.605L238.751 223.752ZM254.233 219.938L252.34 220.849L250.252 221.634L244.579 215.064L246.452 214.326L248.237 213.437L248.449 213.11L254.446 219.61L254.233 219.938ZM260.873 214.29C260.29 215.042 259.647 215.745 258.951 216.393L252.634 210.242C253.102 209.522 253.569 208.802 254.079 208.016C254.59 207.231 254.547 207.296 254.76 206.969L255.483 205.856L262.143 211.764L261.335 213.008C261.406 213.612 261.086 213.963 260.831 214.356L260.873 214.29Z" fill="#041F42"/>
<path d="M253.903 178.394C246.247 142.983 205.153 94.9784 162.147 71.516C119.142 48.0537 90.4699 57.7303 98.169 93.0759C105.868 128.422 146.962 176.426 189.859 199.912C232.757 223.397 261.494 213.763 253.903 178.394ZM189.537 198.12C147.792 175.29 107.969 128.762 100.345 94.3028C92.7204 59.8434 120.833 50.4554 162.535 73.3504C204.237 96.2454 244.276 142.727 251.727 177.167C259.179 211.607 231.282 220.949 189.537 198.12Z" fill="#009CFF"/>
<path d="M264.802 184.355L257.971 180.57C258.293 182.362 258.681 184.196 258.873 185.903L265.406 190.147L264.413 184.382L264.802 184.355Z" fill="#005A89"/>
<path d="M248.603 213.302L248.194 213.502L254.19 220.003L254.599 219.803L248.603 213.302Z" fill="#005A89"/>
<path d="M259.142 194.642L259.03 196.245L258.788 197.763C258.632 198.748 258.404 199.72 258.106 200.672L264.956 206.144C265.182 205.081 265.474 204.06 265.634 202.954L265.897 201.263L266.205 199.788L259.296 194.835L259.142 194.642Z" fill="#005A89"/>
<path d="M255.809 206.068L255.044 207.246C254.831 207.574 254.576 207.967 254.364 208.294C254.151 208.621 253.386 209.8 252.918 210.52L259.235 216.67C259.931 216.023 260.574 215.32 261.157 214.568C261.413 214.175 261.668 213.782 261.923 213.389L262.731 212.146L256.071 206.238L255.809 206.068Z" fill="#005A89"/>
<path d="M248.194 213.502L246.409 214.391L244.536 215.13L250.209 221.699L252.298 220.915L254.19 220.003L248.194 213.502Z" fill="#005A89"/>
<path d="M205.37 210.357L204.631 210.064L206.991 216.157L207.752 216.558L205.37 210.357Z" fill="#005A89"/>
<path d="M236.768 216.507L233.376 216.724C232.229 216.631 231.062 216.711 229.85 216.575L234.313 223.29C235.699 223.445 236.865 223.365 238.185 223.478C239.506 223.591 240.649 223.403 241.859 223.257L236.898 216.592L236.768 216.507Z" fill="#005A89"/>
<path d="M221.968 215.552C220.625 215.331 219.236 214.895 217.87 214.566C216.444 214.234 215.039 213.819 213.662 213.323L216.783 219.817C218.089 220.666 219.841 220.686 221.337 221.1C222.834 221.513 224.33 221.927 225.739 222.19L221.968 215.552Z" fill="#005A89"/>
<path d="M204.631 210.064L203.194 209.13L201.691 208.154L198.454 206.703L200.27 212.63L203.812 214.186L205.445 215.247L206.948 216.223L204.589 210.129L204.631 210.064Z" fill="#005A89"/>
<path d="M147.732 171.807L145.364 174.737L146.086 175.485L148.431 172.447L147.732 171.807Z" fill="#005A89"/>
<path d="M176.591 194.739L176.667 199.628L181.894 203.023L186.99 206.332L186.13 200.934L181.426 197.879L176.591 194.739Z" fill="#005A89"/>
<path d="M157.1 180.125L155.758 183.908L160.863 188.061C162.627 189.207 164.202 190.788 165.988 192.041L166.762 187.703L161.986 184.043L157.296 180.252L157.1 180.125Z" fill="#005A89"/>
<path d="M141.373 165.722L138.525 168.248L141.87 171.537L143.83 172.81L145.535 174.475L147.945 171.48L146.115 170.292L144.499 168.776L141.373 165.722Z" fill="#005A89"/>
<path d="M103.943 116.653L98.2188 115.169L98.617 115.986L104.623 117.467L103.969 117.042L103.943 116.653Z" fill="#005A89"/>
<path d="M123.071 145.272L118.669 146.043L122.767 151.032C124.083 152.725 125.615 154.371 127.039 156.04L130.762 154.456L126.862 149.875L123.071 145.272Z" fill="#005A89"/>
<path d="M109.712 126.078L104.19 125.284L105.731 127.774L107.445 130.284C108.48 131.98 109.689 133.695 110.897 135.411L115.913 135.411L112.661 130.692L111.165 128.418L109.712 126.078Z" fill="#005A89"/>
<path d="M100.846 110.266L94.5954 108.162L96.2764 111.58L98.0228 115.042L103.943 116.653L102.308 113.45L100.846 110.266Z" fill="#005A89"/>
<path d="M87.1555 64.9791L87.0964 65.4992L93.9234 70.8639L94.0053 70.4517L87.1555 64.9791Z" fill="#005A89"/>
<path d="M94.1702 91.2234L87.2966 87.504C87.9694 90.4702 88.7956 93.3992 89.772 96.2791L96.4434 99.3088C95.5136 96.6454 94.7328 93.9319 94.1049 91.181L94.1702 91.2234Z" fill="#005A89"/>
<path d="M85.9753 71.6594L85.8862 73.3701L85.8851 75.2311C85.8788 76.4805 85.9359 77.7292 86.0562 78.9725L92.5897 83.2157C92.7275 82.1515 92.9179 81.0946 93.1601 80.049L92.9423 77.9528L93.0543 76.35L85.9328 71.7249L85.9753 71.6594Z" fill="#005A89"/>
<path d="M88.7982 61.0195C88.163 62.2735 87.6279 63.5756 87.198 64.9137L94.0478 70.3863C94.4021 69.1037 94.896 67.8637 95.5204 66.6885L88.7982 61.0195Z" fill="#005A89"/>
<path d="M117.952 48.0258L117.325 47.9906L121.854 54.7484L122.416 54.7411L117.952 48.0258Z" fill="#005A89"/>
<path d="M97.6236 51.5785C97.1134 52.3641 95.927 52.6175 95.1554 53.2335C94.3865 53.7895 93.6696 54.4144 93.0139 55.1006L99.3959 61.2933C100.008 60.6447 100.674 60.0496 101.387 59.5147C101.812 58.86 102.868 58.5217 103.62 58.0792L97.6236 51.5785Z" fill="#005A89"/>
<path d="M110.276 47.9738C108.102 48.2402 105.952 48.6806 103.847 49.2906L108.977 55.6943C110.978 55.3036 113.009 55.0962 115.046 55.0746L110.129 48.3436L110.276 47.9738Z" fill="#005A89"/>
<path d="M123.798 48.7507C121.762 48.4525 119.834 48.1313 117.952 48.0258L122.742 54.9533C124.451 55.0393 126.271 55.3836 128.134 55.6624L124.125 48.9629L123.798 48.7507Z" fill="#005A89"/>
<path d="M175.056 71.5219L175.089 76.4769L175.873 76.986L175.862 72.1389L175.056 71.5219Z" fill="#005A89"/>
<path d="M144.516 55.0389C141.236 53.6532 138.067 52.5258 134.986 51.5486L138.149 57.9778C140.97 58.879 143.9 59.9446 146.941 61.1747L144.516 55.0389Z" fill="#005A89"/>
<path d="M160.254 62.5601L155.121 59.8785L156.742 65.6785L161.44 68.171L166.014 71.1413L165.219 65.785L160.254 62.5601Z" fill="#005A89"/>
<path d="M175.863 72.1389L175.873 76.986L182.798 81.4838L183.376 77.0186L175.863 72.1389Z" fill="#005A89"/>
<path d="M233.227 125.126L228.825 125.897L229.439 126.668L233.841 125.897L233.227 125.126Z" fill="#005A89"/>
<path d="M196.226 87.4121L194.688 91.0675C197.788 93.7322 200.626 96.2272 203.902 99.1926L205.943 96.0501C202.71 93.0192 199.391 90.1193 196.03 87.2848L196.226 87.4121Z" fill="#005A89"/>
<path d="M216.281 106.022L213.214 108.312C216.079 111.196 218.727 114.126 221.529 117.25L225.318 115.707C222.427 112.434 219.364 109.141 216.281 106.022Z" fill="#005A89"/>
<path d="M233.841 125.897L229.439 126.668C231.15 128.897 232.839 131.017 234.442 133.268L239.305 133.076C237.548 130.631 235.706 128.318 233.841 125.897Z" fill="#005A89"/>
<path d="M264.599 183.665L257.791 179.988L257.97 180.57L264.802 184.355L264.599 183.665Z" fill="#005A89"/>
<path d="M247.987 145.882L242.465 145.088C244.424 148.222 246.144 151.294 247.799 154.324L253.762 155.869C251.931 152.539 250.099 149.209 247.987 145.882Z" fill="#005A89"/>
<path d="M258.74 166.083L252.444 163.763L253.42 165.979L254.223 168.176L255.782 172.354L262.346 175.407L260.695 170.797L259.762 168.515L258.805 166.126L258.74 166.083Z" fill="#005A89"/>
<path d="M191.14 112.407L135.88 112.82C132.242 112.619 128.782 111.192 126.062 108.771C124.718 107.828 123.595 106.604 122.769 105.184C121.943 103.764 121.435 102.181 121.279 100.545L122.003 91.7067C122.027 89.9535 123.619 89.2188 125.932 89.2321L180.524 92.8524C182.992 93.3022 185.266 94.4869 187.048 96.2518C189.075 97.7994 190.614 99.8974 191.483 102.297L193.037 109.915C193.163 110.208 193.209 110.528 193.171 110.845C193.132 111.161 193.01 111.462 192.816 111.715C192.623 111.969 192.366 112.167 192.072 112.288C191.777 112.41 191.456 112.451 191.14 112.407ZM129.854 93.9203C128.881 93.8464 128.776 94.1507 128.802 94.5399L128.339 103.548C128.386 103.983 128.522 104.405 128.738 104.785C128.954 105.166 129.246 105.498 129.596 105.76C130.295 106.448 131.224 106.852 132.203 106.895L187.604 107.411C187.996 107.665 187.902 106.952 187.987 106.821L186.54 99.1797C186.295 98.5393 185.902 97.9661 185.393 97.5065C184.885 97.0469 184.275 96.7138 183.613 96.5343L129.854 93.9203Z" fill="#0298FF"/>
<path d="M215.978 139.242L165.527 146.41C162.563 146.534 159.666 145.518 157.431 143.572L143.201 133.586C139.959 131.545 137.584 128.378 136.53 124.692C136.341 124.121 136.299 123.512 136.407 122.92C136.514 122.329 136.769 121.773 137.147 121.305C137.525 120.837 138.014 120.472 138.57 120.242C139.125 120.012 139.729 119.925 140.327 119.99L195.032 118.285C197.262 118.299 199.427 119.022 201.218 120.348L211.573 128.004C214.009 129.759 215.973 132.089 217.291 134.789C218.182 137.136 217.831 138.677 215.978 139.242ZM144.497 125.584C143.761 125.572 143.421 126.095 143.604 126.959C143.942 127.95 144.597 128.801 145.468 129.38L159.502 139.239C159.77 139.524 160.104 139.739 160.475 139.866C160.845 139.994 161.241 140.029 161.629 139.968L212.527 134.115C212.527 134.115 212.909 133.526 213.122 133.199C212.749 132.431 212.183 131.775 211.479 131.294L200.798 123.426C200.647 123.187 200.447 122.983 200.21 122.829C199.973 122.675 199.705 122.575 199.425 122.535L144.497 125.584Z" fill="#0298FF"/>
<path d="M234.579 169.102L184.94 185.174C183.142 185.432 181.31 185.257 179.595 184.661C177.881 184.066 176.335 183.069 175.086 181.753C171.787 179.185 169.558 175.482 168.83 171.361L167.753 158.001C167.608 157.497 167.573 156.967 167.651 156.447C167.729 155.928 167.917 155.431 168.204 154.99C168.49 154.549 168.867 154.175 169.31 153.892C169.753 153.61 170.252 153.426 170.771 153.353L220.557 144.636C223.055 144.774 225.41 145.839 227.163 147.623C229.491 149.551 231.296 152.036 232.41 154.848L235.571 164.999C236.416 167.13 236.043 168.563 234.579 169.102ZM175.493 159.957C174.63 160.141 174.571 160.661 174.728 161.135L176.109 174.599C176.305 175.687 176.893 176.664 177.761 177.347C178.092 177.713 178.511 177.987 178.978 178.144C179.446 178.3 179.946 178.335 180.431 178.243L230.758 163.828C231.297 163.713 231.141 163.239 231.268 163.042L228.519 152.972C228.173 152.207 227.663 151.527 227.027 150.979C226.847 150.695 226.608 150.453 226.326 150.27C226.044 150.087 225.726 149.967 225.393 149.918L175.493 159.957Z" fill="#0298FF"/>
</g>
<defs>
<linearGradient id="paint0_linear_140_3928" x1="252.772" y1="255.943" x2="14.9418" y2="55.1292" gradientUnits="userSpaceOnUse">
<stop stop-color="#0678B7"/>
<stop offset="0.01" stop-color="#0673B0"/>
<stop offset="0.09" stop-color="#045B90"/>
<stop offset="0.16" stop-color="#024776"/>
<stop offset="0.24" stop-color="#013A63"/>
<stop offset="0.32" stop-color="#003259"/>
<stop offset="0.41" stop-color="#002F55"/>
<stop offset="0.75" stop-color="#00162A"/>
</linearGradient>
<linearGradient id="paint1_linear_140_3928" x1="290.959" y1="246.489" x2="-2.61414" y2="-36.0545" gradientUnits="userSpaceOnUse">
<stop stop-color="#85FCFF"/>
<stop offset="0.03" stop-color="#61E9FF"/>
<stop offset="0.05" stop-color="#43D9FF"/>
<stop offset="0.08" stop-color="#2ACCFF"/>
<stop offset="0.12" stop-color="#17C2FF"/>
<stop offset="0.15" stop-color="#0ABBFF"/>
<stop offset="0.2" stop-color="#02B7FF"/>
<stop offset="0.3" stop-color="#00B6FF"/>
<stop offset="1" stop-color="#009CFF"/>
</linearGradient>
<clipPath id="clip0_140_3928">
<rect width="287" height="163" fill="white" transform="translate(88.8678 0.839355) rotate(33.002)"/>
</clipPath>
</defs>
</svg>
