<svg width="350" height="456" viewBox="0 0 350 456" fill="none" xmlns="http://www.w3.org/2000/svg">
<path d="M243.348 346.117L220.826 356.482C194.23 368.677 159.37 362.078 127.045 334.916C74.7419 290.995 48.4282 209.488 68.3423 153.241C75.9773 131.672 89.2384 116.996 105.778 109.418L128.301 99.053C111.843 106.546 98.4999 121.308 90.8649 142.876C70.8648 199.041 97.2645 280.631 149.568 324.552C181.893 351.713 216.752 358.313 243.348 346.117Z" fill="url(#paint0_linear_87_1832)"/>
<path d="M222.361 120.635C274.69 164.561 301.017 246.078 281.093 302.332C261.082 358.503 202.226 368.601 149.811 324.592C97.4817 280.666 71.1549 199.148 91.0791 142.895C111.089 86.7234 169.946 76.6258 222.361 120.635Z" fill="#009CFF"/>
<path d="M276.29 298.37C295.356 244.906 270.306 167.574 220.55 125.794C170.708 83.9321 114.865 93.4774 95.7989 146.942C76.7328 200.406 101.783 277.738 151.625 319.6C201.467 361.463 257.31 351.917 276.376 298.453L276.29 298.37Z" fill="#14172B"/>
<path d="M281.009 302.418C281.399 301.15 281.875 299.965 282.265 298.697C283.201 295.654 284.055 292.696 284.737 289.573C284.967 288.644 285.115 287.8 285.263 286.957C286.019 283.412 286.521 279.787 286.936 276.079C287.01 275.657 286.998 275.152 287.072 274.731C287.134 273.804 287.196 272.878 287.258 271.952C287.65 267.235 287.705 262.523 287.675 257.729C287.631 255.879 287.582 253.861 287.452 251.928C287.428 250.919 287.322 249.995 287.298 248.986C287.274 247.977 287.168 247.054 287.061 246.13C285.393 229.08 281.109 211.651 274.403 194.848C273.781 193.428 273.24 191.923 272.618 190.502C272.438 190 272.176 189.584 271.996 189.082C270.308 185.323 268.621 181.565 266.766 177.808C266.324 176.89 265.882 175.972 265.271 175.056C255.672 156.785 243.165 139.99 228.292 126.177C226.399 124.356 224.338 122.538 222.281 120.888C206.841 108.009 190.838 99.6811 175.447 95.8862C173.586 95.4108 171.644 95.0208 169.701 94.6309C168.434 94.3985 167.168 94.1661 165.905 94.1019C164.639 93.8696 163.376 93.8054 162.114 93.7412C160.261 93.6022 158.408 93.4631 156.559 93.4923C155.887 93.5029 155.383 93.5109 154.711 93.5215C145.049 93.758 135.935 95.8365 127.538 99.7544C127.538 99.7544 127.374 99.9252 127.206 99.9279C126.874 100.101 126.374 100.278 126.042 100.451L125.714 100.793C125.714 100.793 124.631 101.23 124.131 101.406C123.717 101.665 123.135 101.927 122.639 102.271L122.475 102.442C122.475 102.442 121.642 102.792 121.314 103.133C121.232 103.219 121.15 103.304 121.068 103.39C120.654 103.648 120.24 103.907 119.744 104.252C119.744 104.252 118.915 104.769 118.587 105.111C117.595 105.8 116.521 106.574 115.532 107.431C115.122 107.858 114.708 108.116 114.294 108.375C114.13 108.546 113.966 108.717 113.802 108.888C113.802 108.888 113.31 109.4 113.064 109.657C113.064 109.657 112.735 109.998 112.571 110.169C112.571 110.169 111.997 110.767 111.751 111.023L111.587 111.194C111.587 111.194 110.849 111.963 110.521 112.304L110.357 112.475C106.416 116.407 102.741 120.923 99.5858 126.104C99.1017 126.953 98.5356 127.887 98.0515 128.736C97.4033 129.756 96.9232 130.773 96.3611 131.875C95.881 132.892 95.4009 133.909 94.9208 134.926C94.6748 135.183 94.6008 135.604 94.4408 135.943C93.9607 136.96 93.5666 138.06 93.0865 139.077C92.9265 139.416 92.7665 139.755 92.6925 140.177C92.3724 140.855 92.1384 141.616 91.9044 142.377C91.7444 142.716 91.6704 143.137 91.5103 143.476C90.8043 145.59 90.0982 147.705 89.4782 149.902C89.2482 150.83 89.0142 151.591 88.7842 152.52C88.1641 154.717 87.7122 156.911 87.2602 159.106C86.9563 160.456 86.7343 161.722 86.5163 163.155C86.2244 165.01 86.0145 166.78 85.7226 168.635C85.6607 169.562 85.5127 170.405 85.3687 171.417C85.3068 172.343 85.2448 173.27 85.1829 174.196C84.9231 177.396 84.8354 180.763 84.7478 184.129C84.6858 185.055 84.7099 186.064 84.8161 186.988C84.8402 187.997 84.8603 188.838 84.8844 189.847C85.3803 207.084 88.8355 225.031 94.7997 242.434C95.6143 244.86 96.4288 247.287 97.3254 249.628C101.452 260.499 106.665 271.1 112.789 281.097C114.19 283.431 115.672 285.678 117.241 288.009L117.499 288.257C126.659 302.161 137.72 314.773 150.16 325.26C150.849 325.922 151.619 326.498 152.389 327.075C152.82 327.489 153.25 327.903 153.848 328.314C154.02 328.479 154.192 328.645 154.364 328.81C154.623 329.059 154.881 329.307 155.139 329.555C155.311 329.721 155.569 329.969 155.741 330.135L155.999 330.383C156.598 330.794 157.196 331.205 157.708 331.534C158.224 332.03 158.819 332.273 159.335 332.77C159.335 332.77 159.851 333.266 160.105 333.346C160.621 333.843 161.216 334.086 161.814 334.497C162.072 334.745 162.498 334.991 162.838 335.154L163.441 335.733L163.605 335.562L163.777 335.728C164.207 336.142 164.801 336.385 165.314 336.713L165.486 336.879C165.486 336.879 165.912 337.124 166.166 337.204C166.424 337.453 166.764 337.616 167.104 337.778C167.104 337.778 167.617 338.107 167.957 338.27C168.469 338.598 169.067 339.009 169.662 339.252C170.26 339.663 170.854 339.906 171.452 340.318C172.133 340.643 172.645 340.972 173.325 341.298L173.583 341.546C173.583 341.546 174.772 342.032 175.284 342.36L175.456 342.526C175.456 342.526 176.391 342.932 176.985 343.175L177.329 343.506L177.665 343.5C178.432 343.909 179.194 344.149 179.96 344.558L180.981 345.046C180.981 345.046 181.489 345.206 181.829 345.369C181.829 345.369 182.337 345.53 182.678 345.692C182.85 345.858 183.018 345.855 183.272 345.935C183.272 345.935 183.53 346.184 183.78 346.096C183.952 346.261 184.12 346.259 184.374 346.339C184.714 346.502 185.055 346.664 185.477 346.742C186.239 346.982 187.005 347.391 187.768 347.631C188.108 347.794 188.53 347.871 188.87 348.034C189.378 348.194 189.887 348.355 190.395 348.515C190.735 348.678 191.157 348.755 191.497 348.918C192.006 349.078 192.514 349.239 193.022 349.399C193.53 349.559 194.038 349.719 194.715 349.877L194.887 350.042C194.887 350.042 195.477 350.117 195.731 350.197C195.817 350.28 195.985 350.277 196.153 350.275C196.494 350.438 196.83 350.432 197.252 350.51C197.674 350.587 198.182 350.747 198.604 350.825C199.789 351.143 201.055 351.375 202.236 351.525C202.658 351.602 202.994 351.597 203.334 351.76C203.507 351.925 203.757 351.837 204.011 351.917C204.265 351.997 204.601 351.992 204.855 352.072L205.027 352.238C205.027 352.238 205.867 352.224 206.29 352.302L206.454 352.131C206.454 352.131 207.552 352.366 208.056 352.358L208.142 352.441C208.142 352.441 209.151 352.425 209.487 352.42L209.573 352.502L210.077 352.495L210.749 352.484L211.172 352.561C211.172 352.561 211.676 352.553 211.93 352.634L212.266 352.628L212.352 352.711C212.352 352.711 213.361 352.695 213.865 352.687C213.865 352.687 214.873 352.671 215.377 352.663C215.882 352.655 216.218 352.65 216.722 352.642C216.722 352.642 217.73 352.626 218.148 352.535C218.653 352.527 219.071 352.437 219.493 352.514C219.661 352.512 219.829 352.509 220.079 352.421C220.834 352.325 221.674 352.312 222.346 352.301C222.682 352.296 223.1 352.205 223.437 352.2C223.605 352.197 223.855 352.109 224.023 352.106C224.359 352.101 224.609 352.013 224.945 352.008C225.113 352.005 225.281 352.002 225.531 351.914C225.868 351.909 226.118 351.821 226.454 351.816C227.04 351.722 227.458 351.631 228.044 351.538C228.463 351.447 228.799 351.442 229.217 351.351L229.553 351.346C229.553 351.346 230.307 351.25 230.639 351.077C231.058 350.986 231.558 350.81 231.976 350.719C232.812 350.538 233.562 350.273 234.399 350.092L234.563 349.921L234.899 349.916C234.899 349.916 235.567 349.737 235.817 349.649L235.981 349.478C235.981 349.478 236.568 349.385 236.818 349.297C236.9 349.211 237.236 349.206 237.318 349.121C237.736 349.03 238.068 348.856 238.4 348.683C238.564 348.512 238.818 348.592 238.982 348.421C239.733 348.157 240.315 347.896 241.065 347.631C241.397 347.458 241.647 347.37 241.98 347.196C242.144 347.026 242.312 347.023 242.562 346.935L242.726 346.764C242.726 346.764 243.312 346.671 243.558 346.414C243.89 346.241 244.222 346.067 244.554 345.894C260.512 338.24 273.53 323.65 281.013 302.586L281.009 302.418ZM151.622 319.6C138.584 308.702 127.252 295.338 117.987 280.511L117.729 280.262C111.433 270.099 106.048 259.333 101.749 248.296L101.663 248.214C88.3162 213.851 85.2432 176.718 95.9645 146.939C115.031 93.4745 170.874 83.9292 220.716 125.792C270.559 167.654 295.523 244.903 276.456 298.368C257.476 351.915 201.547 361.378 151.704 319.515L151.622 319.6Z" fill="url(#paint1_linear_87_1832)"/>
<path d="M268.699 292.322L263.555 288.03C262.924 289.722 262.292 291.414 261.574 293.023L266.476 297.74C267.357 295.96 267.985 294.099 268.699 292.322Z" fill="#004775"/>
<path d="M260.997 294.469L260.678 295.146L265.481 299.944L265.882 299.182L260.997 294.469Z" fill="#004775"/>
<path d="M260.016 296.505L259.215 298.031L264.027 302.999L264.911 301.387L260.016 296.505Z" fill="#004775"/>
<path d="M252.478 308.246L251.418 309.524L255.834 315.255L256.808 313.894L252.478 308.246Z" fill="#004775"/>
<path d="M250.666 310.464L249.601 311.574L253.854 317.476L254.914 316.198L250.666 310.464Z" fill="#004775"/>
<path d="M258.476 299.476L258.153 299.986L262.879 305.037L263.202 304.528L258.476 299.476Z" fill="#004775"/>
<path d="M242.64 318.091L242.145 318.435L245.82 324.767L246.397 324.338L242.64 318.091Z" fill="#004775"/>
<path d="M240.971 319.129L239.734 320.074L243.248 326.578L244.567 325.548L240.971 319.129Z" fill="#004775"/>
<path d="M238.481 320.855L238.068 321.114L241.579 327.617L241.992 327.358L238.481 320.855Z" fill="#004775"/>
<path d="M257.385 301.261C256.174 303.384 254.872 305.255 253.403 307.13L257.827 312.697C259.292 310.654 260.758 308.612 262.051 306.404L257.299 301.179L257.385 301.261Z" fill="#004775"/>
<path d="M248.587 312.772L246.288 315.164C245.38 315.936 244.469 316.539 243.643 317.226L247.412 323.477C248.32 322.706 249.314 322.017 250.135 321.163L252.599 318.599L248.587 312.772Z" fill="#004775"/>
<path d="M238.053 321.116C236.728 321.978 235.399 322.672 233.988 323.451L237.176 330.131C238.587 329.352 240.084 328.655 241.491 327.708L237.971 321.201L238.053 321.116Z" fill="#004775"/>
<path d="M232.645 323.985L232.063 324.246L235.163 331.009L235.826 330.662L232.645 323.985Z" fill="#004775"/>
<path d="M230.806 324.859C230.806 324.859 229.893 325.294 229.393 325.47L232.326 332.236C232.326 332.236 233.326 331.884 233.907 331.622L230.892 324.942L230.806 324.859Z" fill="#004775"/>
<path d="M218.415 328.27L216.907 328.462L219.006 335.411L220.595 335.133L218.415 328.27Z" fill="#004775"/>
<path d="M215.729 328.653L214.135 328.763L216.066 335.713L217.742 335.519L215.729 328.653Z" fill="#004775"/>
<path d="M228.05 325.831L227.55 326.008L230.4 332.858L230.9 332.682L228.05 325.831Z" fill="#004775"/>
<path d="M204.457 328.68C204.457 328.68 204.034 328.602 203.698 328.608L204.957 335.57C204.957 335.57 205.462 335.562 205.716 335.642L204.457 328.68Z" fill="#004775"/>
<path d="M202.264 328.382L200.579 328.24L201.67 335.205L203.441 335.43L202.264 328.382Z" fill="#004775"/>
<path d="M199.145 328.015L198.554 327.94L199.391 334.825L199.982 334.9L199.145 328.015Z" fill="#004775"/>
<path d="M226.285 326.454L223.11 327.346L219.763 328.071L222.032 335.018L225.547 334.29L228.972 333.311L226.285 326.454Z" fill="#004775"/>
<path d="M212.702 328.878C210.435 328.998 208.163 328.949 205.806 328.818L207.151 335.863C209.595 336.077 212.116 336.037 214.552 335.915L212.788 328.961L212.702 328.878Z" fill="#004775"/>
<path d="M198.556 327.944C197.711 327.789 196.867 327.634 196.023 327.48L193.486 326.847L193.986 333.737L196.692 334.367C197.622 334.605 198.466 334.759 199.393 334.829L198.556 327.944Z" fill="#004775"/>
<path d="M191.883 326.458L191.12 326.218L191.535 333.026L192.298 333.266L191.883 326.458Z" fill="#004775"/>
<path d="M189.767 325.738C189.767 325.738 188.582 325.42 188.074 325.26L188.235 331.988C188.235 331.988 189.506 332.389 190.014 332.549L189.767 325.738Z" fill="#004775"/>
<path d="M175.788 320.008L174 319.11L173.225 325.433L175.1 326.413L175.788 320.008Z" fill="#004775"/>
<path d="M172.817 318.46C172.304 318.132 171.71 317.889 171.111 317.477L170.164 323.634C170.763 324.046 171.358 324.289 171.957 324.7L172.817 318.46Z" fill="#004775"/>
<path d="M186.468 324.701L185.873 324.458L185.948 331.103L186.543 331.346L186.468 324.701Z" fill="#004775"/>
<path d="M161.33 311.002L160.64 310.34L159.011 316.173L159.783 316.75L161.33 311.002Z" fill="#004775"/>
<path d="M159.284 309.356L157.655 308.12L155.768 313.703L157.483 315.023L159.284 309.356Z" fill="#004775"/>
<path d="M156.211 306.884L155.611 306.473L153.636 311.976L154.236 312.388L156.211 306.884Z" fill="#004775"/>
<path d="M184.439 323.9L180.79 322.36C179.602 321.874 178.41 321.22 177.136 320.651L176.617 327.052C177.891 327.62 179.168 328.357 180.442 328.926L184.346 330.546L184.439 323.9Z" fill="#004775"/>
<path d="M169.676 316.585L167.887 315.519L166.179 314.369C164.983 313.547 163.874 312.807 162.678 311.985L161.139 317.897C162.339 318.887 163.617 319.624 164.812 320.446L166.692 321.762L168.567 322.91L169.594 316.67L169.676 316.585Z" fill="#004775"/>
<path d="M150.899 302.263L148.671 307.513C150.305 309.086 152.017 310.404 153.651 311.977L155.621 306.478C154.073 304.989 152.447 303.753 150.899 302.263Z" fill="#004775"/>
<path d="M148.857 300.28L146.449 305.37L147.226 306.115L149.547 300.943L148.857 300.28Z" fill="#004775"/>
<path d="M146.112 297.467L143.534 302.389L145.09 304.047L147.582 299.043L146.112 297.467Z" fill="#004775"/>
<path d="M134.349 283.789L130.988 287.798L132.468 289.711L135.742 285.619L134.349 283.789Z" fill="#004775"/>
<path d="M132.111 280.799L128.658 284.557L129.969 286.473L133.418 282.546L132.111 280.799Z" fill="#004775"/>
<path d="M144.236 295.649L141.481 300.407L141.999 300.904L144.754 296.146L144.236 295.649Z" fill="#004775"/>
<path d="M124.335 268.652L120.271 271.663L120.801 272.665L124.779 269.571L124.335 268.652Z" fill="#004775"/>
<path d="M122.245 264.986L118.015 267.83L119.329 269.914L123.39 267.072L122.245 264.986Z" fill="#004775"/>
<path d="M120.949 262.57L116.623 265.164L117.063 265.915L121.303 263.238L120.949 262.57Z" fill="#004775"/>
<path d="M136.913 287.11L133.737 291.281C135.899 293.854 137.974 296.344 140.218 298.832L143.046 294.162C140.893 291.925 138.903 289.517 136.999 287.192L136.913 287.11Z" fill="#004775"/>
<path d="M125.779 271.065L121.904 274.239C122.862 275.653 123.739 277.154 124.697 278.569L127.572 282.813L131.181 279.055L128.482 275.144C127.61 273.812 126.737 272.48 125.947 271.062L125.779 271.065Z" fill="#004775"/>
<path d="M117.875 256.48L113.387 258.738C114.448 260.909 115.509 263.08 116.739 265.248L121.05 262.656C119.993 260.653 119.018 258.566 117.961 256.563L117.875 256.48Z" fill="#004775"/>
<path d="M116.501 253.646L111.997 255.737L112.441 256.657L116.945 254.565L116.501 253.646Z" fill="#004775"/>
<path d="M114.913 249.802L110.24 251.559C110.511 252.312 110.95 253.062 111.22 253.816L115.89 251.891C115.537 251.223 115.266 250.47 114.913 249.802Z" fill="#004775"/>
<path d="M108.632 232.16L103.516 232.83L104.159 235.092L109.275 234.422L108.632 232.16Z" fill="#004775"/>
<path d="M107.559 228.477L102.435 228.811L102.996 231.158L108.116 230.656L107.559 228.477Z" fill="#004775"/>
<path d="M113.782 247.215L109.015 248.721L109.372 249.557L114.135 247.883L113.782 247.215Z" fill="#004775"/>
<path d="M104.546 214.648L99.1507 214.061C99.1507 214.061 99.2488 214.648 99.3429 215.067L104.652 215.572C104.652 215.572 104.554 214.985 104.546 214.648Z" fill="#004775"/>
<path d="M103.966 210.62L98.5682 209.864L98.8746 212.13L104.355 212.801L103.966 210.62Z" fill="#004775"/>
<path d="M103.587 207.934L98.1862 207.01L98.2883 207.765L103.689 208.69L103.587 207.934Z" fill="#004775"/>
<path d="M109.857 236.176L104.835 237.096L106.464 241.95L108.261 246.8L113.017 245.295L111.396 240.778L109.857 236.176Z" fill="#004775"/>
<path d="M105.07 217.331L99.7656 216.994C100.432 220.264 101.099 223.534 101.933 226.801L107.14 226.551C106.395 223.534 105.646 220.35 105.07 217.331Z" fill="#004775"/>
<path d="M102.954 201.551L97.4579 200.208L97.7924 203.651C97.9026 204.743 98.0988 205.918 98.2089 207.01L103.611 207.934C103.501 206.842 103.309 205.836 103.198 204.744L102.954 201.551Z" fill="#004775"/>
<path d="M102.834 198.609L97.3384 197.097L97.4444 198.021L102.858 199.618L102.834 198.609Z" fill="#004775"/>
<path d="M102.595 194.743L97.091 192.896C97.091 192.896 97.1272 194.409 97.2292 195.164L102.73 196.844C102.73 196.844 102.611 195.416 102.595 194.743Z" fill="#004775"/>
<path d="M103.565 177.984L98.1227 175.043L97.9211 177.148L103.278 180.007L103.565 177.984Z" fill="#004775"/>
<path d="M104.011 174.611L98.6476 171.416C98.6476 171.416 98.43 172.849 98.3602 173.439L103.72 176.465C103.72 176.465 103.856 175.118 103.925 174.528L104.011 174.611Z" fill="#004775"/>
<path d="M102.637 192.134L97.218 190.201L97.2341 190.873L102.739 192.889L102.637 192.134Z" fill="#004775"/>
<path d="M106.667 162.785L101.458 158.749L101.143 159.594L106.433 163.545L106.667 162.785Z" fill="#004775"/>
<path d="M107.702 159.487L102.485 155.282L101.859 157.141L107.071 161.178L107.702 159.487Z" fill="#004775"/>
<path d="M108.337 157.287L103.21 152.998L103.059 153.672L108.268 157.876L108.337 157.287Z" fill="#004775"/>
<path d="M103.107 181.695L97.5781 179.006C97.4462 180.522 97.3143 182.039 97.3505 183.552L97.2089 188.181L102.725 190.365L102.875 186.073C102.925 184.642 103.143 183.208 103.193 181.778L103.107 181.695Z" fill="#004775"/>
<path d="M106.017 164.987L100.714 161.201C100.324 162.469 100.024 163.988 99.7196 165.338L99.2636 167.365L98.8937 169.473L104.271 172.838L104.558 170.814L104.932 168.873C105.236 167.523 105.458 166.257 105.848 164.989L106.017 164.987Z" fill="#004775"/>
<path d="M105.363 147.661C104.563 149.356 103.936 151.216 103.222 152.993L108.365 157.286C108.997 155.594 109.629 153.902 110.346 152.292L105.445 147.575L105.363 147.661Z" fill="#004775"/>
<path d="M106.44 145.371L106.122 146.048L111.091 150.844L111.409 150.166L106.44 145.371Z" fill="#004775"/>
<path d="M108.062 142.314L107.178 143.925L112.073 148.807L112.875 147.282L108.062 142.314Z" fill="#004775"/>
<path d="M116.256 130.057L115.195 131.335L119.525 136.984L120.585 135.706L116.256 130.057Z" fill="#004775"/>
<path d="M118.235 127.835L117.089 129.031L121.423 134.848L122.402 133.655L118.235 127.835Z" fill="#004775"/>
<path d="M109.124 140.193L108.887 140.785L113.613 145.836L113.936 145.327L109.124 140.193Z" fill="#004775"/>
<path d="M126.27 120.545L125.693 120.975L129.449 127.221L129.944 126.877L126.27 120.545Z" fill="#004775"/>
<path d="M128.841 118.734L127.436 119.682L131.032 126.1L132.355 125.238L128.841 118.734Z" fill="#004775"/>
<path d="M130.51 117.696L130.096 117.954L133.522 124.374L134.021 124.198L130.51 117.696Z" fill="#004775"/>
<path d="M114.177 132.533C112.711 134.575 111.246 136.617 109.953 138.825L114.619 143.968C115.83 141.846 117.131 139.974 118.601 138.1L114.177 132.533Z" fill="#004775"/>
<path d="M124.676 121.835C123.855 122.689 122.775 123.295 121.954 124.15L119.49 126.713L123.501 132.54L125.801 130.148C126.709 129.376 127.62 128.773 128.446 128.087L124.676 121.835Z" fill="#004775"/>
<path d="M134.831 115.266C133.42 116.046 131.923 116.742 130.516 117.69L134.035 124.196C135.36 123.334 136.689 122.64 138.018 121.946L134.831 115.266Z" fill="#004775"/>
<path d="M136.926 114.304L136.263 114.651L139.359 121.245L139.94 120.983L136.926 114.304Z" fill="#004775"/>
<path d="M139.763 113.077C139.763 113.077 138.763 113.429 138.182 113.691L141.197 120.371C141.197 120.371 142.111 119.936 142.61 119.76L139.677 112.994L139.763 113.077Z" fill="#004775"/>
<path d="M153.084 109.902L151.408 110.097L153.674 117.042L155.182 116.85L153.084 109.902Z" fill="#004775"/>
<path d="M156.023 109.599L154.261 109.711L156.36 116.659L157.954 116.55L156.023 109.599Z" fill="#004775"/>
<path d="M141.689 112.454L141.189 112.63L143.954 119.398L144.453 119.222L141.689 112.454Z" fill="#004775"/>
<path d="M167.131 109.743C167.131 109.743 166.627 109.751 166.373 109.671L167.632 116.632C167.632 116.632 168.054 116.71 168.39 116.705L167.131 109.743Z" fill="#004775"/>
<path d="M170.419 110.107L168.648 109.883L169.739 116.848L171.424 116.989L170.419 110.107Z" fill="#004775"/>
<path d="M172.698 110.488L172.021 110.33L172.944 117.298L173.535 117.372L172.698 110.488Z" fill="#004775"/>
<path d="M150.057 110.294L146.542 111.023L143.116 112.002L145.804 118.858L148.978 117.967L152.325 117.241L150.057 110.294Z" fill="#004775"/>
<path d="M164.941 109.617C162.497 109.403 159.976 109.443 157.54 109.566L159.304 116.52C161.571 116.4 163.843 116.449 166.2 116.58L164.854 109.535L164.941 109.617Z" fill="#004775"/>
<path d="M178.02 111.661L175.315 111.031C174.384 110.793 173.54 110.638 172.614 110.569L173.451 117.454C174.295 117.609 175.139 117.763 175.984 117.918L178.521 118.551L178.02 111.661Z" fill="#004775"/>
<path d="M180.554 112.287L179.791 112.047L180.206 118.854L180.801 119.097L180.554 112.287Z" fill="#004775"/>
<path d="M183.854 113.324C183.854 113.324 182.669 113.007 182.075 112.763L182.322 119.574C182.322 119.574 183.507 119.892 184.015 120.052L183.854 113.324Z" fill="#004775"/>
<path d="M198.777 119.797L196.989 118.9L196.301 125.305L198.089 126.202L198.777 119.797Z" fill="#004775"/>
<path d="M201.839 121.595C201.24 121.184 200.645 120.941 200.047 120.53L199.186 126.77C199.781 127.013 200.294 127.341 200.892 127.752L201.839 121.595Z" fill="#004775"/>
<path d="M186.055 114.127L185.461 113.884L185.621 120.612L186.13 120.772L186.055 114.127Z" fill="#004775"/>
<path d="M213.078 129.14L212.306 128.563L210.676 134.396L211.362 134.89L213.078 129.14Z" fill="#004775"/>
<path d="M216.321 131.609L214.52 130.207L212.805 135.956L214.434 137.193L216.321 131.609Z" fill="#004775"/>
<path d="M218.368 133.255L217.768 132.843L215.878 138.429L216.392 138.758L218.368 133.255Z" fill="#004775"/>
<path d="M195.469 118.092C194.195 117.524 192.917 116.787 191.561 116.304L187.657 114.683L187.564 121.329L191.214 122.87C192.402 123.356 193.594 124.01 194.868 124.578L195.387 118.178L195.469 118.092Z" fill="#004775"/>
<path d="M210.953 127.584C209.753 126.594 208.476 125.857 207.28 125.035L205.401 123.719L203.525 122.571L202.498 128.811L204.288 129.876L205.995 131.026C207.191 131.849 208.301 132.588 209.496 133.41L211.035 127.498L210.953 127.584Z" fill="#004775"/>
<path d="M218.352 133.254L216.383 138.752C217.931 140.241 219.557 141.477 221.105 142.967L223.332 137.717C221.698 136.145 219.986 134.826 218.352 133.254Z" fill="#004775"/>
<path d="M224.863 139.199L222.542 144.371L223.146 144.951L225.554 139.861L224.863 139.199Z" fill="#004775"/>
<path d="M226.913 141.182L224.508 146.27L225.977 147.846L228.555 142.924L226.913 141.182Z" fill="#004775"/>
<path d="M239.536 155.519L236.347 159.694L237.654 161.441L241.015 157.431L239.536 155.519Z" fill="#004775"/>
<path d="M242.033 158.757L238.585 162.684L239.896 164.599L243.431 160.755L242.033 158.757Z" fill="#004775"/>
<path d="M230.003 144.326L227.335 149.167L227.853 149.664L230.522 144.823L230.003 144.326Z" fill="#004775"/>
<path d="M251.288 172.648L247.142 175.744L247.669 176.578L251.732 173.567L251.288 172.648Z" fill="#004775"/>
<path d="M252.76 175.398L248.698 178.24L249.758 180.243L253.988 177.399L252.76 175.398Z" fill="#004775"/>
<path d="M255.027 179.398L250.786 182.075L251.14 182.744L255.38 180.067L255.027 179.398Z" fill="#004775"/>
<path d="M231.871 146.48L229.043 151.151C231.196 153.388 233.186 155.795 235.176 158.203L238.434 153.946C236.273 151.373 234.197 148.883 231.953 146.395L231.871 146.48Z" fill="#004775"/>
<path d="M244.685 162.496L241.076 166.254L243.775 170.165C244.648 171.497 245.52 172.83 246.311 174.247L250.186 171.074C249.227 169.659 248.351 168.158 247.392 166.743L244.517 162.499L244.685 162.496Z" fill="#004775"/>
<path d="M255.35 180.065L251.039 182.657C252.096 184.659 253.071 186.747 254.128 188.749L258.616 186.491C257.555 184.321 256.494 182.15 255.264 179.982L255.35 180.065Z" fill="#004775"/>
<path d="M259.647 188.658L255.058 190.667L255.502 191.586L260.091 189.578L259.647 188.658Z" fill="#004775"/>
<path d="M260.868 191.497L256.199 193.422C256.552 194.089 256.823 194.843 257.175 195.51L261.849 193.754C261.578 193 261.225 192.333 260.868 191.497Z" fill="#004775"/>
<path d="M267.844 210.138L262.731 210.976L263.457 213.152L268.573 212.483L267.844 210.138Z" fill="#004775"/>
<path d="M269.007 214.072L263.887 214.574L264.444 216.753L269.568 216.419L269.007 214.072Z" fill="#004775"/>
<path d="M262.718 195.756L257.954 197.431L258.307 198.099L262.989 196.51L262.718 195.756Z" fill="#004775"/>
<path d="M272.661 230.163L267.352 229.658C267.352 229.658 267.45 230.245 267.458 230.581L272.767 231.087C272.767 231.087 272.669 230.499 272.575 230.08L272.661 230.163Z" fill="#004775"/>
<path d="M273.128 233.1L267.734 232.512L268.123 234.693L273.521 235.449L273.128 233.1Z" fill="#004775"/>
<path d="M273.801 237.547L268.314 236.54L268.416 237.296L273.903 238.302L273.801 237.547Z" fill="#004775"/>
<path d="M263.746 198.597L258.99 200.102L260.693 204.534L262.232 209.136L267.254 208.216L265.625 203.363L263.746 198.597Z" fill="#004775"/>
<path d="M270.155 218.511L264.949 218.761C265.694 221.778 266.442 224.963 267.019 227.982L272.323 228.319C271.657 225.049 270.99 221.778 270.155 218.511Z" fill="#004775"/>
<path d="M273.88 238.303L268.478 237.378C268.588 238.47 268.78 239.477 268.891 240.568L269.135 243.761L274.631 245.104L274.383 241.744C274.272 240.652 274.076 239.477 273.966 238.385L273.88 238.303Z" fill="#004775"/>
<path d="M274.644 247.291L269.23 245.695L269.169 246.621L274.75 248.215L274.644 247.291Z" fill="#004775"/>
<path d="M274.774 250.066L269.274 248.387C269.274 248.387 269.392 249.814 269.408 250.487L274.912 252.335C274.912 252.335 274.876 250.821 274.774 250.066Z" fill="#004775"/>
<path d="M274.168 268.164L268.729 265.391L268.524 267.328L273.966 270.27L274.168 268.164Z" fill="#004775"/>
<path d="M273.725 271.705L268.366 268.679C268.366 268.679 268.23 270.026 268.16 270.616L273.524 273.811C273.524 273.811 273.741 272.378 273.811 271.788L273.725 271.705Z" fill="#004775"/>
<path d="M274.855 254.439L269.349 252.424L269.366 253.096L274.871 255.111L274.855 254.439Z" fill="#004775"/>
<path d="M270.86 285.635L265.655 281.767L265.422 282.527L270.63 286.564L270.86 285.635Z" fill="#004775"/>
<path d="M270.144 288.088L264.932 284.051L264.387 285.825L269.518 289.948L270.144 288.088Z" fill="#004775"/>
<path d="M268.948 291.725L263.821 287.436L263.666 287.943L268.711 292.317L268.948 291.725Z" fill="#004775"/>
<path d="M274.881 257.132L269.364 254.948L269.214 259.24C269.164 260.671 268.946 262.104 268.896 263.535L274.425 266.224C274.557 264.708 274.689 263.191 274.735 261.592L274.877 256.964L274.881 257.132Z" fill="#004775"/>
<path d="M273.024 275.673L267.565 272.395L267.277 274.418L266.821 276.444C266.517 277.795 266.295 279.06 265.905 280.328L271.208 284.114C271.598 282.846 271.898 281.327 272.202 279.976L272.658 277.95L273.028 275.841L273.024 275.673Z" fill="#004775"/>
<path d="M220.947 152.959L220.001 152.049C217.85 149.98 215.613 147.828 213.297 145.93L212.265 144.936L211.391 147.053L212.423 148.046C214.738 149.945 216.885 151.845 219.037 153.914L219.983 154.825L220.947 152.959ZM207.044 141.065L206.02 140.408C203.541 138.681 201.152 137.204 198.676 135.645L197.738 135.071L197.372 137.348L198.311 137.922C200.696 139.23 203.089 140.875 205.482 142.52L206.342 143.347L206.958 140.982L207.044 141.065ZM233.57 167.565L232.787 166.484C230.792 163.908 228.715 161.417 226.638 158.926L225.692 158.015L224.637 159.63L225.584 160.541C227.575 162.949 229.566 165.357 231.561 167.933L232.343 169.014L233.656 167.648L233.57 167.565ZM192.206 132.214L191.185 131.726C188.636 130.588 186.173 129.533 183.632 128.732L182.615 128.412L182.676 130.934L183.692 131.255C186.065 132.059 188.61 133.028 190.991 134.168L192.012 134.657L192.206 132.214ZM243.523 183.054C241.856 180.136 240.107 177.304 238.276 174.557L237.576 173.39L236.264 174.757L236.96 175.755C238.705 178.42 240.454 181.252 242.035 184.087L242.735 185.254L244.224 184.221L243.523 183.054ZM177.201 126.983L176.189 126.831C173.738 126.281 171.29 125.899 168.847 125.685L167.835 125.533L168.318 128.133L169.33 128.285C171.691 128.584 174.052 128.883 176.503 129.434L177.515 129.586L177.287 127.066L177.201 126.983ZM252.197 201.256C251.03 198.162 249.613 195.156 248.11 192.067L247.492 190.815L245.831 191.682L246.45 192.934C247.867 195.94 249.197 198.863 250.446 201.872L250.897 203.127L252.647 202.51L252.197 201.256ZM162.535 125.364L161.527 125.38C159.174 125.417 156.825 125.622 154.566 126.078L153.643 126.177L154.462 128.772L155.384 128.673C157.561 128.302 159.91 128.097 162.177 127.977L163.185 127.961L162.535 125.364ZM258.279 220.087C257.531 216.902 256.614 213.72 255.529 210.54L255.079 209.286L253.238 209.651L253.688 210.906C254.687 214.003 255.518 217.102 256.348 220.201L256.631 221.459L258.561 221.344L258.279 220.087ZM148.798 127.431L147.879 127.698C145.711 128.405 143.628 129.195 141.635 130.236L140.803 130.586L141.953 133.007L142.786 132.657C144.778 131.616 146.861 130.827 148.948 130.205L149.866 129.938L148.798 127.431ZM261.677 239.128C261.35 236.021 260.938 232.831 260.357 229.644L260.157 228.301L258.218 228.079L258.418 229.422C258.913 232.526 259.407 235.631 259.648 238.656L259.762 239.916L261.791 240.388L261.677 239.128ZM136.493 133.177L135.665 133.695C133.762 134.987 131.946 136.361 130.219 137.987L129.563 138.67L131.046 140.918L131.702 140.235C133.433 138.777 135.163 137.32 136.984 136.114L137.812 135.596L136.493 133.177ZM262.201 257.542C262.383 254.595 262.392 251.483 262.32 248.455L262.292 247.278L260.259 246.637L260.287 247.815C260.359 250.842 260.346 253.786 260.16 256.565L260.106 257.828L262.147 258.805L262.201 257.542ZM122.88 150.973C124.176 148.934 125.558 146.977 127.031 145.272L127.687 144.588L126.036 142.343L125.38 143.026C123.912 144.9 122.529 146.857 121.151 148.981L120.667 149.83L122.396 151.822L122.88 150.973ZM259.581 274.576C260.189 271.874 260.711 269.09 261.147 266.223L261.287 265.043L259.242 263.898L259.102 265.078C258.662 267.777 258.14 270.561 257.529 273.094L257.303 274.191L259.269 275.59L259.495 274.493L259.581 274.576ZM116.307 164.368C117.255 161.829 118.211 159.627 119.249 157.339L119.647 156.408L117.84 154.67L117.442 155.601C116.318 157.806 115.366 160.177 114.418 162.715L114.024 163.815L115.83 165.553L116.307 164.368ZM254.143 289.719C255.181 287.431 256.301 285.058 257.163 282.437L257.639 281.252L255.833 279.514L255.356 280.699C254.326 283.323 253.374 285.693 252.332 287.813L251.934 288.744L253.741 290.482L254.139 289.551L254.143 289.719ZM112.479 180.074C112.919 177.376 113.358 174.677 114.052 172.058L114.278 170.961L112.311 169.562L112.086 170.659C111.478 173.361 110.956 176.145 110.434 178.929L110.294 180.109L112.339 181.254L112.479 180.074ZM246.287 302.209C247.841 300.418 249.224 298.461 250.602 296.336L251.086 295.487L249.357 293.496L248.873 294.345C247.577 296.384 246.195 298.341 244.722 300.046L244.066 300.73L245.799 302.889L246.455 302.206L246.287 302.209ZM111.462 197.335C111.39 194.308 111.489 191.446 111.671 188.499L111.725 187.236L109.684 186.259L109.63 187.522C109.449 190.469 109.353 193.499 109.511 196.609L109.539 197.786L111.572 198.427L111.544 197.25L111.462 197.335ZM240.539 304.402L239.883 305.086C238.152 306.543 236.422 308 234.601 309.207L233.773 309.725L235.092 312.143L235.92 311.625C237.823 310.334 239.639 308.959 241.366 307.333L242.022 306.65L240.625 304.485L240.539 304.402ZM113.245 215.645C112.75 212.54 112.256 209.436 112.015 206.411L111.901 205.151L109.872 204.678L109.986 205.938C110.313 209.046 110.725 212.236 111.306 215.423L111.506 216.766L113.445 216.988L113.163 215.73L113.245 215.645ZM229.627 312.145L228.795 312.495C226.884 313.45 224.72 314.326 222.633 314.947L221.715 315.214L222.783 317.721L223.702 317.454C225.87 316.747 227.953 315.957 230.032 314.999L230.864 314.649L229.713 312.228L229.627 312.145ZM117.893 234.246C116.894 231.15 116.063 228.05 115.232 224.951L114.95 223.694L113.019 223.808L113.388 225.148C114.136 228.333 115.053 231.515 116.138 234.695L116.588 235.949L118.429 235.584L117.979 234.329L117.893 234.246ZM217.037 316.466L216.115 316.564C213.938 316.935 211.589 317.141 209.322 317.26L208.313 317.276L208.964 319.874L209.972 319.858C212.325 319.821 214.674 319.615 216.933 319.159L217.855 319.061L217.037 316.466ZM125.135 252.386C123.718 249.38 122.388 246.457 121.221 243.363L120.771 242.108L119.02 242.725L119.47 243.979C120.637 247.073 122.054 250.079 123.557 253.168L124.175 254.42L125.836 253.553L125.217 252.301L125.135 252.386ZM203.267 317.188L202.255 317.035C199.894 316.736 197.533 316.437 195.082 315.887L194.07 315.734L194.298 318.254L195.31 318.407C197.761 318.957 200.208 319.339 202.651 319.553L203.664 319.705L203.181 317.105L203.267 317.188ZM134.621 269.397C132.876 266.733 131.127 263.9 129.546 261.065L128.846 259.898L127.357 260.931L128.058 262.098C129.725 265.016 131.473 267.848 133.222 270.681L133.923 271.847L135.235 270.481L134.539 269.482L134.621 269.397ZM188.823 314.303L187.807 313.983C185.434 313.179 182.889 312.21 180.508 311.069L179.487 310.581L179.293 313.023L180.314 313.512C182.863 314.649 185.326 315.704 187.867 316.505L188.884 316.826L188.823 314.303ZM147.026 285.436L146.079 284.526C144.088 282.118 142.097 279.71 140.102 277.134L139.32 276.052L138.007 277.419L138.876 278.583C140.871 281.159 142.948 283.65 145.025 286.141L145.971 287.051L147.026 285.436ZM174.291 307.719L173.352 307.145C171.049 305.751 168.574 304.192 166.181 302.547L165.157 301.89L164.619 304.002L165.643 304.658C168.122 306.386 170.515 308.031 172.987 309.422L173.925 309.996L174.291 307.719ZM160.186 297.931L159.24 297.02C156.925 295.122 154.691 293.139 152.54 291.07L151.594 290.159L150.63 292.025L151.576 292.935C153.813 295.087 156.05 297.239 158.366 299.137L159.312 300.048L160.104 298.016L160.186 297.931Z" fill="#009CFF"/>
<path d="M222.347 277.36L223.296 274.822C226.45 266.022 225.077 254.35 219.783 244.001C223.791 242.76 226.827 239.599 228.482 234.946L229.271 232.746C233.686 220.394 227.879 202.649 216.461 192.986L214.403 191.336L220.945 172.977L208.412 162.405L201.87 180.765L195.52 175.481L202.062 157.121L189.53 146.55L182.987 164.91L161.444 146.825L156.323 161.292L170.142 172.936L149.65 230.468L137.806 220.559L130.536 233.125L152.252 251.376L145.948 269.142L158.481 279.713L164.785 261.947L171.135 267.231L164.831 284.998L177.364 295.569L183.668 277.802L189.932 283.003C202.977 293.903 217.468 291.403 222.433 277.443L222.347 277.36ZM190.552 280.806L182.398 273.952L176.094 291.719L167.255 284.371L173.559 266.604L163.433 258.182L157.129 275.949L148.29 268.601L154.594 250.834L133.137 232.832L138.473 223.83L150.575 233.987L172.485 172.395L158.665 160.75L162.287 150.429L183.917 168.597L190.459 150.237L199.298 157.585L192.756 175.945L202.882 184.367L209.424 166.007L218.263 173.355L211.721 191.715L215.669 195.018C226.139 203.771 231.319 219.926 227.299 231.179L226.51 233.379C224.937 237.946 221.811 240.856 217.709 241.678L216.536 241.865L217.413 243.365C222.863 253.207 224.314 264.626 221.32 273.086L220.371 275.625C215.8 288.485 202.396 290.715 190.466 280.723L190.552 280.806ZM203.447 246.698C201.903 241.927 199.108 237.597 195.504 234.625L177.31 219.432L167.145 248.112L185.34 263.305C192.719 269.414 201.013 268.022 203.768 260.154C205.107 256.347 205.077 251.552 203.447 246.698ZM186.046 261.191L169.738 247.482L178.485 222.862L194.794 236.571C197.799 239.132 200.327 242.878 201.687 246.979C203.047 251.079 203.061 255.202 201.878 258.501C199.517 265.269 192.397 266.475 186.046 261.191ZM211.929 218.044C213.034 214.998 212.946 211.298 211.762 207.531C210.579 203.764 208.312 200.434 205.479 198.039L189.688 184.827L181.729 207.247L197.52 220.459C203.272 225.332 209.806 224.219 211.929 218.044ZM184.325 206.785L190.867 188.426L204.773 200.153C207.089 202.052 208.839 204.885 209.921 207.896C210.92 210.993 210.992 214.021 210.126 216.474C208.31 221.467 203.036 222.475 198.313 218.427L184.407 206.7L184.325 206.785ZM203.85 260.069C205.189 256.262 205.159 251.467 203.529 246.613C201.985 241.842 199.19 237.511 195.586 234.539L177.392 219.346L167.228 248.027L185.422 263.22C192.801 269.329 201.095 267.936 203.85 260.069ZM186.046 261.191L169.738 247.482L178.485 222.862L194.794 236.571C197.799 239.132 200.327 242.878 201.687 246.979C203.047 251.079 203.061 255.202 201.878 258.501C199.517 265.269 192.397 266.475 186.046 261.191ZM211.929 218.044C213.034 214.998 212.946 211.298 211.762 207.531C210.579 203.764 208.312 200.434 205.479 198.039L189.688 184.827L181.729 207.247L197.52 220.459C203.272 225.332 209.806 224.219 211.929 218.044ZM184.325 206.785L190.867 188.426L204.773 200.153C207.089 202.052 208.839 204.885 209.921 207.896C210.92 210.993 210.992 214.021 210.126 216.474C208.31 221.467 203.036 222.475 198.313 218.427L184.407 206.7L184.325 206.785ZM211.929 218.044C213.034 214.998 212.946 211.298 211.762 207.531C210.579 203.764 208.312 200.434 205.479 198.039L189.688 184.827L181.729 207.247L197.52 220.459C203.272 225.332 209.806 224.219 211.929 218.044ZM198.231 218.513L184.325 206.785L190.867 188.426L204.773 200.153C207.089 202.052 208.839 204.885 209.921 207.896C210.92 210.993 210.992 214.021 210.126 216.474C208.31 221.467 203.036 222.475 198.313 218.427L198.231 218.513ZM203.85 260.069C205.189 256.262 205.159 251.467 203.529 246.613C201.985 241.842 199.19 237.511 195.586 234.539L177.392 219.346L167.228 248.027L185.422 263.22C192.801 269.329 201.095 267.936 203.85 260.069ZM186.046 261.191L169.738 247.482L178.485 222.862L194.794 236.571C197.799 239.132 200.327 242.878 201.687 246.979C203.047 251.079 203.061 255.202 201.878 258.501C199.517 265.269 192.397 266.475 186.046 261.191Z" fill="#009CFF"/>
<defs>
<linearGradient id="paint0_linear_87_1832" x1="83.804" y1="146.268" x2="211.278" y2="397.762" gradientUnits="userSpaceOnUse">
<stop stop-color="#0678B7"/>
<stop offset="0.01" stop-color="#0573B0"/>
<stop offset="0.09" stop-color="#035A8F"/>
<stop offset="0.16" stop-color="#024775"/>
<stop offset="0.24" stop-color="#003963"/>
<stop offset="0.32" stop-color="#003158"/>
<stop offset="0.41" stop-color="#002F55"/>
<stop offset="0.75" stop-color="#00162A"/>
</linearGradient>
<linearGradient id="paint1_linear_87_1832" x1="209.89" y1="108.97" x2="152.476" y2="372.029" gradientUnits="userSpaceOnUse">
<stop stop-color="#84FBFF"/>
<stop offset="0.03" stop-color="#61E9FF"/>
<stop offset="0.05" stop-color="#42D9FF"/>
<stop offset="0.08" stop-color="#2ACCFF"/>
<stop offset="0.12" stop-color="#17C2FF"/>
<stop offset="0.15" stop-color="#0ABBFF"/>
<stop offset="0.2" stop-color="#02B7FF"/>
<stop offset="0.3" stop-color="#00B6FF"/>
<stop offset="1" stop-color="#009CFF"/>
</linearGradient>
</defs>
</svg>
