<svg width="343" height="287" viewBox="0 0 343 287" fill="none" xmlns="http://www.w3.org/2000/svg">
<path d="M274.548 25.1653L298.403 51.2174C307.977 61.1887 309.622 78.0244 302.402 100.53C284.565 156.634 216.571 227.488 150.883 258.451C111.551 276.952 81.8039 277.068 68.1558 262.114L44.2333 236.078C57.9486 251.016 87.6282 250.916 126.944 232.348C192.632 201.385 260.642 130.598 278.48 74.4939C285.683 51.9216 283.702 35.1685 274.548 25.1653Z" fill="url(#paint0_linear_140_3992)"/>
<path d="M191.753 28.8448C257.442 -2.11826 296.385 18.3731 278.48 74.4939C260.575 130.615 192.632 201.385 126.96 232.415C61.2886 263.446 22.6811 242.872 40.2502 186.833C57.8193 130.795 126.132 59.7914 191.753 28.8448Z" fill="#009CFF"/>
<path d="M190.156 33.9394C127.694 63.5395 63.2395 130.532 46.2344 183.938C29.2293 237.344 66.1135 256.703 128.608 227.237C191.103 197.772 255.525 130.645 272.547 77.3061C289.568 23.967 252.651 4.47364 190.156 33.9394Z" fill="#14172B"/>
<path d="M281.774 39.2046L281.41 37.7266C281.245 37.0548 281.097 36.4502 280.931 35.7784C280.766 35.1065 280.766 35.1066 280.667 34.7035L280.387 33.5614C280.364 33.3072 280.303 33.0579 280.205 32.8224L280.007 32.0162C280.007 32.0162 279.908 31.6131 279.875 31.4788C279.842 31.3444 279.875 31.4788 279.875 31.4788C279.875 31.4788 279.792 31.1429 279.759 31.0085C279.726 30.8741 279.759 31.0085 279.759 31.0085L279.594 30.3367L279.429 29.6649L278.762 28.689L278.563 27.8828L277.962 27.1757L277.847 26.7055L277.731 26.2352C275.8 24.2471 273.605 22.5334 271.208 21.142C268.962 19.8514 266.58 18.8122 264.107 18.0431C259.87 16.7436 255.476 16.0261 251.045 15.9103C238.977 15.8312 226.992 17.9084 215.654 22.0443L211.79 23.4215C206.498 25.3635 201.002 27.6402 195.388 30.3024C192.262 31.7833 189.018 33.3643 186.126 34.93C183.234 36.4956 179.821 38.2606 176.844 40.0608L173.784 41.8103L167.595 45.6112L164.517 47.5788L158.377 51.5812L155.332 53.6832C152.287 55.7851 149.259 57.9543 146.314 60.1741L137.462 67.0517L131.504 71.793L128.676 74.1979L122.784 79.208C119.046 82.5488 115.325 85.9569 111.672 89.0631C106.704 93.7749 101.903 98.5881 97.3032 103.637C94.3715 106.78 91.725 109.923 88.6095 112.898L86.2164 115.623L83.9069 118.399L81.6811 121.226C80.9058 122.129 80.1304 123.032 79.4388 123.985L77.213 126.812L75.1216 129.606L74.0423 131.011L70.9387 135.193C58.1255 150.712 47.77 168.105 40.2338 186.766C33.5917 207.562 35.0549 223.659 42.2801 233.638C42.4782 234.444 43.3482 235.085 43.9494 235.792L44.0649 236.262L44.6496 236.902C45.1246 237.196 45.5023 237.624 45.7353 238.131V238.131L45.8344 238.534L45.9334 238.938L46.7196 239.528L47.5895 240.169L48.4264 240.676C48.7864 240.932 49.1738 241.147 49.5815 241.318V241.318L50.3853 241.69L54.104 243.198L54.6733 243.486L55.8625 243.977L57.2698 244.486L58.4426 244.91L59.8334 245.352L62.6997 246.001L64.5442 246.26L65.5165 246.449L66.1211 246.3L67.8148 246.525L69.5591 246.666L70.701 246.386L72.4795 246.376C73.5543 246.112 74.8283 246.368 76.0364 246.357L76.7753 246.175L77.9172 245.894L78.8577 245.663L79.4623 245.514L80.0668 245.366L81.0073 245.135L82.1492 244.854L83.0226 244.639C84.9034 244.177 86.9187 243.682 89.033 243.59L89.3689 243.507C91.72 242.929 94.1383 242.335 96.6909 241.707L100.184 240.849L100.856 240.684L104.55 239.776L105.222 239.611L110.515 237.669C115.203 235.875 120.11 233.814 125.152 231.435C141.278 223.666 156.652 214.426 171.081 203.833L179.966 197.089L182.894 194.802L188.835 189.994L191.731 187.573L197.639 182.63C201.377 179.289 205.031 175.897 208.751 172.774C213.702 167.995 218.486 163.115 223.103 158.134C226.035 154.991 228.681 151.847 231.73 148.889L234.039 146.113L236.349 143.337L238.658 140.561L240.884 137.734L243.059 134.991L245.218 132.181L246.213 130.725L249.317 126.543C253.349 120.921 257.096 115.299 260.457 109.557C261.892 107.281 263.227 104.887 264.511 102.576L265.238 101.187C265.795 100.266 266.285 99.362 266.759 98.3907L268.873 94.238L270.192 91.4915L270.785 90.1348L272.037 87.4048C273.222 84.6914 274.34 81.9945 275.357 79.4649L276.273 76.8175C276.545 75.8958 276.901 75.0247 277.122 74.1867C278.238 70.8132 279.154 67.3768 279.864 63.8954L280.327 61.4308C280.44 61.0431 280.51 60.6436 280.533 60.2403C280.704 59.4859 280.791 58.6809 280.894 57.943L281.033 56.7691C281.172 55.5951 281.26 54.5048 281.348 53.4146L281.458 51.2506C281.587 48.2168 281.436 45.1775 281.007 42.1714C280.809 41.3652 280.627 40.6262 280.445 39.8872L281.774 39.2046ZM272.564 77.088C255.543 130.427 191.137 197.621 128.626 227.019C66.1147 256.418 29.2635 237.193 46.2521 183.72C63.2406 130.246 127.679 63.187 190.174 33.7213C252.669 4.25554 289.552 23.8998 272.547 77.306L272.564 77.088Z" fill="url(#paint1_linear_140_3992)"/>
<path d="M188.067 40.5082C129.925 67.9778 69.7486 130.641 53.9662 180.328C38.1838 230.014 72.5563 248.138 130.714 220.735C188.872 193.333 248.965 130.619 264.815 80.916C280.664 31.2133 246.174 13.1894 188.067 40.5082ZM262.394 82.0809C246.885 130.56 188.09 191.887 131.26 218.607C74.4297 245.327 40.8941 227.709 56.2524 179.196C71.6108 130.682 130.557 69.3898 187.37 42.6028C244.184 15.8157 277.887 33.5345 262.461 82.0644L262.394 82.0809Z" fill="#075784"/>
<path d="M181.05 122.092C180.981 122.056 180.919 122.005 180.871 121.944C180.823 121.882 180.788 121.81 180.769 121.734C180.75 121.658 180.748 121.578 180.762 121.501C180.777 121.424 180.807 121.351 180.852 121.286L186.25 92.5322L150.701 109.035C149.761 109.266 149.29 109.382 149.428 108.493L153.058 94.2789C153.19 93.87 153.415 93.4975 153.716 93.1909C154.06 92.826 154.472 92.5313 154.928 92.3233L210.532 65.8334C211.54 65.5857 212.144 65.4371 212.057 66.2422L204.969 110.728C204.853 111.195 204.614 111.623 204.276 111.967C203.878 112.381 203.404 112.715 202.88 112.951L182.712 121.898C182.508 122.131 182.226 122.28 181.919 122.316C181.611 122.352 181.302 122.272 181.05 122.092V122.092ZM189.503 88.9545C189.503 88.9545 189.602 89.3576 189.684 89.6935L184.252 118.598L200.756 111.265L207.598 69.5466L155.238 94.4554L152.592 106.005L188.058 89.4521C188.19 89.2919 188.354 89.1606 188.539 89.0661C188.724 88.9716 188.926 88.916 189.134 88.9027L189.503 88.9545Z" fill="#01A1FF"/>
<path d="M97.4081 187.531C97.2922 187.422 97.2103 187.281 97.1723 187.126C97.1342 186.971 97.1416 186.809 97.1934 186.658L110.097 139.46C110.291 139.045 110.528 138.653 110.806 138.289C111.158 137.933 111.568 137.64 112.018 137.421L129.632 129.387C130.573 129.156 131.043 129.041 130.922 129.996L123.507 159.531L159.809 143.484C160.817 143.237 161.354 143.105 161.266 144.195L158.198 160.693C158.036 161.197 157.758 161.655 157.387 162.032C157.012 162.472 156.531 162.81 155.991 163.017L98.6844 187.218C98.5271 187.391 98.3216 187.514 98.0942 187.569C97.8668 187.625 97.6279 187.612 97.4081 187.531V187.531ZM113 139.388L100.963 183.737L154.64 160.998L157.495 147.401L121.26 163.432C120.32 163.663 119.782 163.795 119.938 162.688L127.47 133.053L113 139.388Z" fill="#01A1FF"/>
<path d="M172.276 155.95C172.276 155.95 172.144 155.413 172.045 155.01L175.625 136.249C175.77 135.773 176.031 135.342 176.385 134.993C176.761 134.554 177.241 134.215 177.782 134.009L200.874 123.916C201.949 123.652 202.553 123.504 202.532 124.577L199.32 143.39C199.221 143.915 198.968 144.399 198.594 144.78C198.171 145.201 197.675 145.54 197.13 145.781L173.451 155.804C173.275 155.906 173.08 155.971 172.878 155.996C172.676 156.021 172.472 156.006 172.276 155.95V155.95ZM178.881 136.161L175.647 151.987L195.461 143.627L198.057 127.815L178.881 136.161Z" fill="#01A1FF"/>
<path d="M113.768 127.445C113.649 127.368 113.564 127.249 113.53 127.111C113.497 126.974 113.517 126.829 113.587 126.706L117.944 110.817C118.044 110.378 118.267 109.977 118.587 109.661C118.938 109.306 119.348 109.012 119.798 108.794L138.927 99.6753C139.867 99.4442 140.337 99.3286 140.183 100.15L136.815 116.01C136.634 116.414 136.389 116.787 136.09 117.114C135.739 117.514 135.309 117.838 134.827 118.065L115.128 127.182C114.936 127.325 114.714 127.423 114.478 127.469C114.243 127.514 114 127.506 113.768 127.445V127.445ZM120.663 110.576L116.835 123.984L133.392 116.281L136.733 102.922L120.663 110.576Z" fill="#01A1FF"/>
<path d="M139.28 141.976C139.28 141.976 139.181 141.573 139.098 141.237L143.585 122.396C143.752 121.927 144.013 121.496 144.352 121.131C144.691 120.766 145.101 120.474 145.556 120.273L168.533 109.71C169.473 109.479 170.078 109.33 169.957 110.286L166.073 129.264C165.948 129.712 165.702 130.117 165.364 130.436C165.003 130.859 164.548 131.19 164.035 131.404L140.471 141.897C140.293 142.004 140.092 142.066 139.885 142.08C139.678 142.094 139.471 142.058 139.28 141.976V141.976ZM146.471 122.256L142.717 138.282L162.751 129.369L165.935 113.341L146.471 122.256Z" fill="#01A1FF"/>
<defs>
<linearGradient id="paint0_linear_140_3992" x1="281.964" y1="101.421" x2="55.419" y2="235.524" gradientUnits="userSpaceOnUse">
<stop stop-color="#0678B7"/>
<stop offset="0.01" stop-color="#0673B0"/>
<stop offset="0.09" stop-color="#045B90"/>
<stop offset="0.16" stop-color="#024776"/>
<stop offset="0.24" stop-color="#013A63"/>
<stop offset="0.32" stop-color="#003259"/>
<stop offset="0.41" stop-color="#002F55"/>
<stop offset="0.75" stop-color="#00162A"/>
</linearGradient>
<linearGradient id="paint1_linear_140_3992" x1="277.853" y1="37.746" x2="39.2315" y2="224.749" gradientUnits="userSpaceOnUse">
<stop stop-color="#85FCFF"/>
<stop offset="0.03" stop-color="#61E9FF"/>
<stop offset="0.05" stop-color="#43D9FF"/>
<stop offset="0.08" stop-color="#2ACCFF"/>
<stop offset="0.12" stop-color="#17C2FF"/>
<stop offset="0.15" stop-color="#0ABBFF"/>
<stop offset="0.2" stop-color="#02B7FF"/>
<stop offset="0.3" stop-color="#00B6FF"/>
<stop offset="1" stop-color="#009CFF"/>
</linearGradient>
</defs>
</svg>
