<svg width="203" height="457" viewBox="0 0 203 457" fill="none" xmlns="http://www.w3.org/2000/svg">
<path d="M129.743 378.205L94.9258 401.242C92.2353 403.003 89.3733 404.486 86.3835 405.67C36.2541 426.416 -49.5272 369.212 -103.748 277.753C-154.746 191.808 -160.393 105.733 -118.722 78.5349L-84.242 55.5509C-125.764 83.0372 -120.117 169.111 -69.2683 254.769C-15.0475 346.228 70.2538 403.681 120.863 382.686C123.972 381.507 126.948 380.005 129.743 378.205Z" fill="url(#paint0_linear_140_4009)"/>
<path d="M114.769 178.987C169.04 270.542 171.913 362.071 121.201 382.633C70.4885 403.194 -14.7099 346.175 -68.9307 254.716C-123.151 163.257 -126.17 71.6814 -75.362 51.0704C-24.5537 30.4594 60.4492 87.336 114.769 178.987Z" fill="#009CFF"/>
<path d="M110.354 181.275C58.7594 94.1779 -22.0995 39.6583 -70.3059 59.6512C-118.512 79.6441 -115.563 166.386 -63.9683 253.484C-12.3733 340.581 68.4358 395.005 116.546 375.061C164.656 355.118 161.651 267.797 110.354 181.275Z" fill="#14172B"/>
<path d="M126.192 380.046C126.864 379.698 127.535 379.35 128.303 378.952L128.975 378.603C129.221 378.535 129.45 378.417 129.647 378.255C141.029 370.278 149.218 358.529 152.762 345.09L153.548 342.613C154.469 339.146 155.209 335.633 155.765 332.089C156.292 328.407 156.769 324.629 156.954 320.758C157.14 316.888 157.254 314.759 157.259 311.713C157.185 306.637 156.962 301.274 156.352 295.868C155.742 290.461 155.401 286.985 154.61 282.404C153.399 275.604 151.943 268.567 150.001 261.294L147.962 254.072L146.893 250.365L144.417 243.004C142.346 236.893 140.03 230.545 137.376 224.25L134.122 216.562C128.315 203.595 121.772 190.97 114.524 178.749C75.8661 113.558 21.6997 65.9022 -24.5903 51.2982C-27.5545 50.2778 -30.6609 49.4527 -33.5719 48.7699L-35.0753 48.4534C-37.5491 47.9092 -39.9731 47.461 -42.4434 47.1586L-45.3011 46.8134L-49.5593 46.5853L-52.4135 46.4818L-55.122 46.4245C-55.8899 46.8225 -57.0059 46.5487 -57.827 46.609C-60.5014 46.8002 -63.1609 47.1619 -65.7892 47.6919L-68.2952 48.2602C-69.447 48.8572 -70.5987 49.4542 -71.953 49.4255C-72.3595 49.5776 -72.7462 49.778 -73.1047 50.0225L-75.4083 51.2164C-78.3753 52.4492 -81.2328 53.9302 -83.9506 55.6438V55.6438L-85.7743 56.5889L-87.6939 57.5839L-89.0377 58.2803C-89.6135 58.5788 -90.1894 58.8773 -90.6693 59.126L-92.0985 60.5972C-92.3098 60.6539 -92.5063 60.7557 -92.6744 60.8957C-93.1167 61.056 -93.5362 61.2735 -93.9222 61.5424C-94.356 61.9997 -94.753 62.4905 -95.1097 63.0101V63.0101L-96.4892 64.5774L-97.6732 66.2867C-98.1222 66.8784 -98.5331 67.4981 -98.9034 68.1419C-99.803 69.4604 -100.557 70.8251 -101.311 72.1899L-102.392 74.333L-103.284 76.1348L-103.939 77.6915L-104.454 78.811L-104.828 79.7351L-105.571 81.8249L-106.172 83.7192L-106.542 84.8849L-107.047 86.7295L-107.552 88.5741L-107.965 90.1273L-108.509 92.601L-108.161 93.2728L-108.382 94.7264L-108.083 95.3023L-108.304 96.7559C-108.465 97.4389 -108.552 98.1372 -108.564 98.8387L-108.87 101.067L-108.949 102.325L-109.166 104.021L-109.191 105.617L-108.893 106.192L-109.017 107.596L-108.669 108.268L-108.698 109.622L-108.762 111.847L-108.745 113.056L-108.763 115.135L-108.671 118.131L-108.58 121.127L-108.215 126.295L-107.576 133.635L-106.88 134.979L-106.184 136.322L-105.655 139.457L-105.286 141.579L-104.647 145.631L-103.553 151.03L-103.035 153.44L-102.513 156.092L-101.468 158.107L-100.904 160.371L-100.456 161.235L-97.372 167.185L-96.7008 170.125L-96.0044 171.468L-95.6065 172.236L-95.1091 173.196L-94.3952 175.748L-93.5993 177.283L-93.0024 178.435L-92.0573 180.258L-91.0625 182.178L-90.5651 183.138L-90.2169 183.809L-89.5206 185.153L-87.1975 191.985L-85.954 194.384L-83.7156 198.703L-82.2234 201.582L-80.2835 205.325L-78.5923 208.588L-77.1 211.467L-75.4088 214.73L-72.5239 220.296L-61.5808 241.41L-59.044 246.305L-57.502 249.28L-55.1641 253.791L-52.1797 259.549C-13.7801 320.247 38.5425 364.11 82.1597 377.786L85.1701 378.661L86.7234 379.074L89.684 379.852L91.1875 380.169L94.1447 380.706L98.5058 381.368L101.364 381.713C109.491 382.574 117.707 381.947 125.609 379.861C126.281 379.513 127.049 379.115 127.816 378.717C128.584 378.319 130.12 377.523 131.272 376.926C132.424 376.329 132.903 376.08 133.767 375.633L126.192 380.046ZM116.098 374.198C68.18 394.041 -12.089 340.19 -63.6238 253.914L-64.3201 252.57L-67.0559 247.292L-71.6818 238.366L-75.9596 230.113C-77.601 226.946 -79.143 223.971 -80.9337 220.516C-87.2319 207.056 -92.4928 193.136 -96.6707 178.875L-99.1746 169.58L-99.4731 169.005L-100.12 167.757L-100.951 163.804L-101.987 158.985C-102.776 154.645 -103.564 150.305 -104.06 146.058L-105.068 136.596C-107.796 98.4408 -96.5683 69.1233 -71.2938 58.2153C-23.0875 38.2224 57.7714 92.7419 109.366 179.839C160.961 266.937 164.504 354.589 116.297 374.582L116.098 374.198Z" fill="#009CFF"/>
<path d="M113.668 369.978L106.086 357.228C103.653 358.239 101.142 359.052 98.5783 359.658L105.293 372.614C106.541 371.967 108.137 371.992 109.484 371.538L113.228 369.598L113.668 369.978Z" fill="#004775"/>
<path d="M28.0338 339.606L26.9108 338.848L27.2177 350.012L28.4864 350.816L28.0338 339.606V339.606Z" fill="#004775"/>
<path d="M83.7523 360.889C79.3534 360.651 74.9801 360.068 70.6724 359.146L75.0166 371.991L78.7024 372.76L82.239 373.24C84.5489 373.615 86.8764 373.872 89.2126 374.009L83.6563 360.939L83.7523 360.889Z" fill="#004775"/>
<path d="M56.2458 354.569C51.3273 352.611 46.5177 350.389 41.8376 347.914L43.3564 359.302C44.6189 360.074 45.9201 360.782 47.2551 361.421C48.6661 362.029 49.8851 362.736 51.2463 363.248C53.7498 364.487 56.3158 365.595 58.9339 366.569L55.9972 354.09L56.2458 354.569Z" fill="#004775"/>
<path d="M26.9108 338.848C23.3462 336.434 19.8776 333.971 16.4055 331.266L15.8309 341.669L21.5029 346.034L27.2176 350.012L26.9108 338.848Z" fill="#004775"/>
<path d="M-2.09893 315.532C-6.85381 311.056 -11.566 306.193 -16.2319 301.185L-19.8449 308.779L-16.0141 312.881L-14.0987 314.933L-12.137 316.838L-8.25998 320.795L-4.2904 324.46L-2.09893 315.532V315.532Z" fill="#004775"/>
<path d="M18.6709 83.7864L17.4022 82.983L17.8049 94.0972L18.9777 94.9503L18.6709 83.7864V83.7864Z" fill="#004775"/>
<path d="M2.23376 73.9209C0.953196 73.1964 -0.363505 72.5378 -1.71123 71.9477L-5.65625 69.9745C-8.18677 68.851 -10.863 67.6812 -13.4398 66.7035L-10.3572 79.2291C-5.4561 81.1548 -0.662961 83.3445 4.00124 85.7887L2.48245 74.4007L2.23376 73.9209Z" fill="#004775"/>
<path d="M30.0078 92.0339L24.3856 87.7645L18.6709 83.7864L18.9777 94.9504C22.4926 97.2682 25.9612 99.7319 29.4333 102.437L30.0078 92.0339V92.0339Z" fill="#004775"/>
<path d="M107.557 181.751L106.761 180.215L99.7936 183.218L100.54 184.657L107.557 181.751V181.751Z" fill="#004775"/>
<path d="M65.6838 124.923L61.757 120.871L59.8416 118.82L57.976 116.864L54.1486 113.004L50.1294 109.243L47.9379 118.171C52.7425 122.743 57.4049 127.509 62.1205 132.614L65.6838 124.923V124.923Z" fill="#004775"/>
<path d="M94.7936 161.824L88.0814 152.397L84.727 147.804L81.1309 143.215L76.2884 149.378C80.5738 154.827 84.8628 160.518 88.8638 166.358L94.7936 161.824V161.824Z" fill="#004775"/>
<path d="M107.557 181.751L100.54 184.657C102.878 189.168 105.166 193.583 107.404 197.901L115.164 196.193L111.433 188.995L107.653 181.701L107.557 181.751Z" fill="#004775"/>
<path d="M146.872 298.955L136.523 292.143L136.54 293.352L146.889 300.163L146.292 299.011L146.872 298.955Z" fill="#004775"/>
<path d="M127.766 221.682L119.057 221.326C121.727 227.572 124.089 233.775 126.145 239.933L135.506 242.021L133.741 236.97L131.926 231.823C130.284 228.656 129.169 225.095 127.816 221.778L127.766 221.682Z" fill="#004775"/>
<path d="M141.413 262.58L131.493 258.711C132.885 264.686 134.082 270.519 134.841 276.213L145.073 281.624L144.328 276.896L143.487 272.219C142.812 269.038 142.233 265.807 141.413 262.58V262.58Z" fill="#004775"/>
<path d="M146.989 300.355L136.64 293.543C136.742 297.265 136.795 300.89 136.556 304.423L146.293 312.404L146.547 306.55L146.509 300.604L146.989 300.355Z" fill="#004775"/>
<path d="M114.436 369.58L106.903 356.926C106.903 356.926 106.903 356.926 106.136 357.324L113.718 370.074L114.486 369.676L114.436 369.58Z" fill="#004775"/>
<path d="M143.907 331.294L133.761 321.821C132.77 325.891 131.403 329.86 129.678 333.677L139.358 344.366L140.667 341.253L141.321 339.696L141.83 338.093L142.943 334.838L143.907 331.294V331.294Z" fill="#004775"/>
<path d="M132.272 355.831L123.111 344.264C120.754 347.216 118.03 349.855 115.005 352.118L123.402 364.325C124.983 363.15 126.468 361.852 127.842 360.44C128.561 359.757 129.245 359.037 129.89 358.283C130.658 357.885 131.223 356.862 131.888 356.03L132.272 355.831Z" fill="#004775"/>
<path d="M115.677 351.77C118.702 349.507 121.426 346.868 123.783 343.916C126.439 340.662 128.677 337.089 130.446 333.279C132.171 329.462 133.538 325.493 134.529 321.423C136.097 315.621 137.096 309.68 137.512 303.684C137.751 300.151 137.698 296.526 137.596 292.804L137.579 291.596C137.385 286.389 136.89 281.199 136.096 276.049C135.337 270.355 134.289 264.811 132.748 258.548C131.207 252.285 129.325 245.834 127.2 239.386C125.076 232.938 122.767 227.073 120.113 220.778C116.905 212.944 113.068 205.071 108.99 197.201C106.701 192.787 104.413 188.372 102.076 183.861L101.329 182.422C98.2454 176.471 94.2017 171.019 90.4956 165.513C86.7895 160.006 82.2056 153.981 77.9201 148.532C73.6347 143.083 68.5673 137.065 63.6527 131.576C58.7381 126.088 54.2747 121.705 49.4701 117.133C44.6655 112.562 37.2238 106.191 30.9655 101.399C27.4934 98.6941 24.0248 96.2305 20.51 93.9126L19.3869 93.1554C14.749 90.0803 10.1147 87.2469 5.53354 84.7512C0.869329 82.307 -3.9239 80.1172 -8.82503 78.1915C-13.5712 76.3199 -18.44 74.7754 -23.3973 73.5689C-27.7027 72.6338 -32.0771 72.0508 -36.4772 71.8255C-41.4865 71.558 -46.5086 71.9891 -51.3991 73.1064C-53.9598 73.6026 -56.4608 74.3682 -58.8604 75.3907L-61.164 76.5846C-64.3584 77.7524 -67.3904 79.3238 -70.1862 81.2607C-73.211 83.5235 -75.935 86.1627 -78.2921 89.1145C-80.9086 92.3966 -83.1441 95.9651 -84.9555 99.7514C-86.6422 103.584 -88.0079 107.55 -89.0386 111.608C-90.6188 117.407 -91.6179 123.35 -92.0211 129.347C-92.26 132.88 -92.2075 136.505 -92.1053 140.226L-91.5581 141.282C-91.4524 145.245 -91.0552 149.301 -90.8072 153.068L-90.2748 156.445C-89.8348 160.113 -89.1034 163.873 -88.372 167.634L-86.9765 173.85C-85.4353 180.113 -83.5528 186.564 -81.379 193.108C-79.2051 199.652 -76.9457 205.421 -74.3417 211.62L-73.0981 214.019C-71.1085 217.858 -69.261 221.892 -67.5558 226.122L-62.8801 235.143C-60.6418 239.462 -58.3537 243.877 -56.0158 248.388L-55.2697 249.827C-52.136 255.873 -48.142 261.23 -44.436 266.736C-40.7299 272.242 -36.146 278.268 -31.8605 283.717C-27.575 289.166 -22.5077 295.184 -17.5931 300.673C-12.6785 306.161 -8.21509 310.544 -3.46022 315.02C2.4359 320.576 8.61221 325.827 15.0444 330.753C18.5165 333.459 21.9851 335.922 25.5497 338.336L26.6727 339.093C31.3106 342.168 35.8952 344.906 40.4764 347.402C45.1564 349.877 49.9661 352.098 54.8847 354.057C59.6178 355.965 64.4893 357.511 69.4569 358.68C73.7647 359.602 78.138 360.185 82.5369 360.423C87.5117 360.682 92.4987 360.268 97.3628 359.192C99.9268 358.586 102.438 357.774 104.87 356.762C104.87 356.762 105.35 356.513 105.638 356.364C109.158 355.246 112.529 353.703 115.677 351.77V351.77ZM104.437 353.577C62.7185 370.817 -7.68833 323.542 -52.3938 248.093C-57.368 238.496 -62.918 229.197 -67.3162 219.301C-70.4001 213.351 -72.5207 207.145 -74.7836 201.135C-77.0465 195.124 -79.5328 187.038 -81.3725 180.199C-83.2133 173.446 -84.6527 166.589 -85.6832 159.665C-91.6141 120.735 -82.2911 90.0913 -57.6351 79.8692C-15.966 62.534 54.4906 109.905 99.1001 185.403C143.71 260.902 145.723 336.441 104.053 353.776L104.437 353.577Z" fill="#009CFF"/>
<path d="M-28.2942 149.402C-29.2393 147.579 -29.3598 145.937 -28.7447 145.009C-28.1296 144.081 -25.2788 143.943 -22.4429 146.126L70.7679 215.55C73.3786 217.593 75.4844 220.21 76.9226 223.196C78.3153 225.884 78.3041 228.446 77.3548 229.669L69.9376 241.671C66.759 245.875 60.2155 244.761 53.1718 239.159L0.553607 198.249C-6.03079 193.07 -11.3375 186.448 -14.9573 178.894L-27.5978 150.746L-28.2942 149.402ZM71.7831 222.208C71.7305 221.687 71.4814 221.207 71.0867 220.864L-22.3161 151.539L-9.47659 180.071C-6.93465 185.08 -3.36083 189.493 1.00973 193.021L53.7736 233.977C59.1044 238.154 63.1601 237.756 65.0124 235.457L72.284 223.409C72.284 223.409 71.9821 222.592 71.7831 222.208V222.208Z" fill="#0197FF"/>
<path d="M21.1875 260.849L3.99954 222.518C2.40782 219.447 2.36933 216.788 3.65983 215.754C4.95032 214.72 7.13615 215.413 9.68067 217.504L41.1181 241.51C43.6408 243.534 45.6772 246.098 47.0772 249.014C48.5197 251.797 48.4588 254.264 47.5095 255.486L33.1675 270.103C32.2182 271.325 30.0857 270.97 27.5447 269.121C24.7592 266.947 22.5718 264.101 21.1875 260.849V260.849ZM41.1454 246.731L9.75766 222.821C9.45922 222.245 8.92961 222.398 8.88337 222.543C8.83713 222.689 8.88339 222.543 9.33106 223.407L26.615 261.689C26.7035 262.236 26.965 262.741 27.3612 263.129L41.6568 248.658C41.6568 248.658 41.6568 248.658 41.2588 247.89L41.1454 246.731Z" fill="#0197FF"/>
<path d="M-43.9446 197.205C-68.7885 141.047 -56.4851 102.528 -17.0644 110.221C22.3563 117.915 77.133 170.977 103.434 227.597C129.735 284.216 118.263 326.688 76.9834 317.523C35.704 308.358 -18.6032 254.322 -43.9446 197.205ZM98.4901 226.75C73.7379 173.589 23.5207 124.86 -13.7212 117.377C-50.9631 109.893 -62.1924 145.786 -38.9507 198.147C-15.709 250.508 35.3251 302.223 73.6865 310.222C112.048 318.221 123.644 280.921 98.4901 226.75Z" fill="#0197FF"/>
<defs>
<linearGradient id="paint0_linear_140_4009" x1="-136.565" y1="111.768" x2="91.4442" y2="415.224" gradientUnits="userSpaceOnUse">
<stop stop-color="#0678B7"/>
<stop offset="0.01" stop-color="#0673B0"/>
<stop offset="0.09" stop-color="#045B90"/>
<stop offset="0.16" stop-color="#024776"/>
<stop offset="0.24" stop-color="#013A63"/>
<stop offset="0.32" stop-color="#003259"/>
<stop offset="0.41" stop-color="#002F55"/>
<stop offset="0.75" stop-color="#00162A"/>
</linearGradient>
</defs>
</svg>
