<svg xmlns="http://www.w3.org/2000/svg" xmlns:xlink="http://www.w3.org/1999/xlink" viewBox="0 0 476.37 571.52"><defs><style>.cls-1{fill:none;}.cls-2{isolation:isolate;}.cls-3{fill:url(#linear-gradient);}.cls-4{fill:#579afb;}.cls-5{fill:#1b1d2e;}.cls-6{fill:url(#linear-gradient-2);}.cls-7{fill:#294973;}.cls-8{mix-blend-mode:multiply;opacity:0.4;fill:url(#Degradado_sin_nombre_71);}.cls-12,.cls-13,.cls-88,.cls-9{mix-blend-mode:overlay;}.cls-16,.cls-22,.cls-23,.cls-24,.cls-77,.cls-9{opacity:0.8;}.cls-10,.cls-12,.cls-13{fill:#fff;}.cls-11{fill:url(#Degradado_sin_nombre_25);}.cls-13,.cls-19,.cls-20,.cls-21,.cls-76{opacity:0.5;}.cls-14{fill:url(#Degradado_sin_nombre_25-2);}.cls-15,.cls-17,.cls-18,.cls-32,.cls-34,.cls-35,.cls-36,.cls-37,.cls-38,.cls-39,.cls-40,.cls-41,.cls-42,.cls-43,.cls-44,.cls-45,.cls-46,.cls-47,.cls-48,.cls-49,.cls-50,.cls-51,.cls-52,.cls-53,.cls-54,.cls-55,.cls-56,.cls-57,.cls-58,.cls-59,.cls-60,.cls-61,.cls-62,.cls-63,.cls-64,.cls-65,.cls-66,.cls-67,.cls-68,.cls-69,.cls-70,.cls-71,.cls-72,.cls-73,.cls-74,.cls-78,.cls-89,.cls-90{mix-blend-mode:screen;}.cls-15{fill:url(#Degradado_sin_nombre_160);}.cls-16,.cls-19,.cls-20,.cls-21,.cls-22,.cls-23,.cls-24{mix-blend-mode:color-dodge;}.cls-16{fill:url(#radial-gradient);}.cls-17{fill:url(#radial-gradient-2);}.cls-18{fill:url(#radial-gradient-3);}.cls-19{fill:url(#radial-gradient-4);}.cls-20{fill:url(#radial-gradient-5);}.cls-21{fill:url(#radial-gradient-6);}.cls-22{fill:url(#radial-gradient-7);}.cls-23{fill:url(#radial-gradient-8);}.cls-24{fill:url(#radial-gradient-9);}.cls-25{clip-path:url(#clip-path);}.cls-26{fill:url(#Degradado_sin_nombre_25-3);}.cls-27{fill:url(#Degradado_sin_nombre_25-4);}.cls-28{fill:url(#Degradado_sin_nombre_25-5);}.cls-29{fill:url(#Degradado_sin_nombre_25-6);}.cls-30{fill:url(#Degradado_sin_nombre_25-7);}.cls-31{fill:url(#Degradado_sin_nombre_25-8);}.cls-32{fill:url(#radial-gradient-10);}.cls-33{fill:url(#Degradado_sin_nombre_25-9);}.cls-34{fill:url(#radial-gradient-11);}.cls-35{opacity:0.05;}.cls-36,.cls-69{opacity:0.2;}.cls-36{fill:url(#Degradado_sin_nombre_42);}.cls-37{opacity:0.08;fill:url(#Degradado_sin_nombre_42-2);}.cls-38{opacity:0.19;fill:url(#Degradado_sin_nombre_42-3);}.cls-39{opacity:0.55;fill:url(#Degradado_sin_nombre_42-4);}.cls-40{opacity:0.21;fill:url(#Degradado_sin_nombre_42-5);}.cls-41{opacity:0.2;fill:url(#Degradado_sin_nombre_42-6);}.cls-42,.cls-43{opacity:0.4;}.cls-42{fill:url(#Degradado_sin_nombre_42-7);}.cls-43{fill:url(#Degradado_sin_nombre_42-8);}.cls-44{opacity:0.28;fill:url(#Degradado_sin_nombre_42-9);}.cls-45,.cls-70{opacity:0.53;}.cls-45{fill:url(#Degradado_sin_nombre_42-10);}.cls-46{opacity:0.46;fill:url(#Degradado_sin_nombre_42-11);}.cls-47{opacity:0.09;fill:url(#Degradado_sin_nombre_42-12);}.cls-48{opacity:0.63;fill:url(#Degradado_sin_nombre_42-13);}.cls-49{opacity:0.88;fill:url(#Degradado_sin_nombre_42-14);}.cls-50{opacity:0.8;fill:url(#Degradado_sin_nombre_42-15);}.cls-51{opacity:0.26;fill:url(#Degradado_sin_nombre_42-16);}.cls-52{opacity:0.65;fill:url(#Degradado_sin_nombre_42-17);}.cls-53,.cls-71{opacity:0.54;}.cls-53{fill:url(#Degradado_sin_nombre_42-18);}.cls-54{opacity:0.87;fill:url(#Degradado_sin_nombre_42-19);}.cls-55{opacity:0.62;fill:url(#Degradado_sin_nombre_42-20);}.cls-56{opacity:0.9;fill:url(#Degradado_sin_nombre_42-21);}.cls-57{fill:url(#Degradado_sin_nombre_42-22);}.cls-58{opacity:0.29;fill:url(#Degradado_sin_nombre_42-23);}.cls-59,.cls-72{opacity:0.78;}.cls-59{fill:url(#Degradado_sin_nombre_42-24);}.cls-60{opacity:0.87;fill:url(#Degradado_sin_nombre_42-25);}.cls-61{opacity:0.23;fill:url(#Degradado_sin_nombre_42-26);}.cls-62{opacity:0.42;fill:url(#Degradado_sin_nombre_42-27);}.cls-63{opacity:0.05;fill:url(#Degradado_sin_nombre_42-28);}.cls-64{opacity:0.63;fill:url(#Degradado_sin_nombre_42-29);}.cls-65{opacity:0.49;fill:url(#Degradado_sin_nombre_42-30);}.cls-66{opacity:0.46;fill:url(#Degradado_sin_nombre_42-31);}.cls-67{opacity:0.76;fill:url(#Degradado_sin_nombre_42-32);}.cls-68{opacity:0.21;fill:url(#Degradado_sin_nombre_42-33);}.cls-69{fill:url(#Degradado_sin_nombre_42-34);}.cls-70{fill:url(#Degradado_sin_nombre_42-35);}.cls-71{fill:url(#Degradado_sin_nombre_42-36);}.cls-72{fill:url(#Degradado_sin_nombre_42-37);}.cls-73{fill:url(#radial-gradient-12);}.cls-74{fill:url(#radial-gradient-13);}.cls-75{fill:url(#Degradado_sin_nombre_9);}.cls-76,.cls-77{mix-blend-mode:soft-light;}.cls-76{fill:url(#Degradado_sin_nombre_9-2);}.cls-77{fill:url(#Degradado_sin_nombre_9-3);}.cls-79{fill:url(#radial-gradient-14);}.cls-80{fill:url(#radial-gradient-15);}.cls-81{fill:url(#radial-gradient-16);}.cls-82{fill:url(#radial-gradient-17);}.cls-83{fill:url(#radial-gradient-18);}.cls-84{fill:url(#radial-gradient-19);}.cls-85{fill:url(#radial-gradient-20);}.cls-86{fill:url(#radial-gradient-21);}.cls-87{fill:url(#radial-gradient-22);}.cls-88{opacity:0.42;}.cls-89{fill:url(#radial-gradient-23);}.cls-90{fill:url(#Degradado_sin_nombre_67);}.cls-91{font-size:12px;font-family:MyriadPro-Regular, Myriad Pro;}</style><linearGradient id="linear-gradient" x1="-1016.08" y1="1465.81" x2="-964.65" y2="1335.31" gradientTransform="matrix(1, 0, 0, -1, 1194, 1632)" gradientUnits="userSpaceOnUse"><stop offset="0" stop-color="#4477b2"/><stop offset="0.01" stop-color="#4172ab"/><stop offset="0.09" stop-color="#345a8b"/><stop offset="0.16" stop-color="#294973"/><stop offset="0.24" stop-color="#223c62"/><stop offset="0.32" stop-color="#1e3457"/><stop offset="0.41" stop-color="#1d3355"/><stop offset="0.75" stop-color="#101c2d"/></linearGradient><linearGradient id="linear-gradient-2" x1="-951.42" y1="1478.18" x2="-992.1" y2="1350.56" gradientTransform="matrix(1, 0, 0, -1, 1194, 1632)" gradientUnits="userSpaceOnUse"><stop offset="0" stop-color="#affaff"/><stop offset="0.03" stop-color="#96e7fd"/><stop offset="0.05" stop-color="#83d7fd"/><stop offset="0.08" stop-color="#77cafc"/><stop offset="0.12" stop-color="#6fc0fc"/><stop offset="0.15" stop-color="#6ab9fc"/><stop offset="0.2" stop-color="#67b5fb"/><stop offset="0.3" stop-color="#66b4fb"/><stop offset="1" stop-color="#579afb"/></linearGradient><radialGradient id="Degradado_sin_nombre_71" cx="213.91" cy="408.32" r="175.46" gradientTransform="translate(0 368.86) scale(1 0.1)" gradientUnits="userSpaceOnUse"><stop offset="0.38" stop-color="#222221"/><stop offset="1" stop-color="#fff"/></radialGradient><radialGradient id="Degradado_sin_nombre_25" cx="220.09" cy="383.92" r="71.67" gradientUnits="userSpaceOnUse"><stop offset="0" stop-color="#416087"/><stop offset="0.28" stop-color="#355071"/><stop offset="0.86" stop-color="#172537"/><stop offset="1" stop-color="#0f1b29"/></radialGradient><radialGradient id="Degradado_sin_nombre_25-2" cx="190.67" cy="402.7" r="333.92" gradientTransform="translate(0 -423.26) scale(1 2.05)" xlink:href="#Degradado_sin_nombre_25"/><linearGradient id="Degradado_sin_nombre_160" x1="121.71" y1="383.92" x2="318.46" y2="383.92" gradientUnits="userSpaceOnUse"><stop offset="0.01" stop-color="#72c9fc"/><stop offset="0.01" stop-color="#72c8fb"/><stop offset="0.16" stop-color="#4a82a3"/><stop offset="0.29" stop-color="#2a4a5d"/><stop offset="0.4" stop-color="#13222b"/><stop offset="0.48" stop-color="#05090c"/><stop offset="0.53"/><stop offset="1" stop-color="#72c9fc"/></linearGradient><radialGradient id="radial-gradient" cx="518.1" cy="561.67" r="44.22" gradientTransform="matrix(-0.74, 0.68, -0.06, -0.07, 681.81, 102.01)" gradientUnits="userSpaceOnUse"><stop offset="0" stop-color="#fff"/><stop offset="0.05" stop-color="#e3e3e3"/><stop offset="0.15" stop-color="#aeaeae"/><stop offset="0.26" stop-color="gray"/><stop offset="0.37" stop-color="#585858"/><stop offset="0.48" stop-color="#383838"/><stop offset="0.6" stop-color="#1f1f1f"/><stop offset="0.72" stop-color="#0e0e0e"/><stop offset="0.85" stop-color="#030303"/><stop offset="1"/></radialGradient><radialGradient id="radial-gradient-2" cx="774.25" cy="352.57" r="167.54" gradientTransform="translate(303.8 -412.12) rotate(90) scale(0.86 0.01)" gradientUnits="userSpaceOnUse"><stop offset="0" stop-color="#72c9fc"/><stop offset="0.03" stop-color="#6bbded" stop-opacity="0.94"/><stop offset="0.19" stop-color="#4f8caf" stop-opacity="0.7"/><stop offset="0.34" stop-color="#37617a" stop-opacity="0.48"/><stop offset="0.49" stop-color="#233e4e" stop-opacity="0.31"/><stop offset="0.63" stop-color="#14232c" stop-opacity="0.17"/><stop offset="0.76" stop-color="#091014" stop-opacity="0.08"/><stop offset="0.88" stop-color="#020405" stop-opacity="0.02"/><stop offset="0.98" stop-opacity="0"/></radialGradient><radialGradient id="radial-gradient-3" cx="749.53" cy="393.52" r="167.54" gradientTransform="matrix(-0.01, 0.64, -0.02, 0, 269.36, -195.55)" xlink:href="#radial-gradient-2"/><radialGradient id="radial-gradient-4" cx="190.72" cy="348.39" r="51.72" gradientTransform="matrix(1, 0, 0, 0.1, -0.25, 366.33)" xlink:href="#radial-gradient"/><radialGradient id="radial-gradient-5" cx="147.19" cy="326.93" r="51.72" gradientTransform="matrix(1, 0.06, -0.01, 0.1, 1.4, 345.7)" xlink:href="#radial-gradient"/><radialGradient id="radial-gradient-6" cx="147.19" cy="326.93" r="51.72" gradientTransform="matrix(1, 0.06, -0.01, 0.1, 1.4, 345.7)" xlink:href="#radial-gradient"/><radialGradient id="radial-gradient-7" cx="379.74" cy="858.86" r="47.48" gradientTransform="matrix(0.02, 1, -0.1, 0, 319.9, 1.73)" xlink:href="#radial-gradient"/><radialGradient id="radial-gradient-8" cx="379.74" cy="858.86" r="66.12" gradientTransform="matrix(0.02, 1, -0.1, 0, 319.9, 1.73)" xlink:href="#radial-gradient"/><radialGradient id="radial-gradient-9" cx="520.21" cy="92.47" r="30.58" gradientTransform="matrix(-1, 0.07, -0.01, -0.1, 817.19, 351.95)" xlink:href="#radial-gradient"/><clipPath id="clip-path"><path class="cls-1" d="M318.46,403.1s-28.31,5.22-98.37,5.22c-76.36,0-98.38-5.22-98.38-5.22V358H318.46Z"/></clipPath><radialGradient id="Degradado_sin_nombre_25-3" cx="100.94" cy="377.43" r="204.98" xlink:href="#Degradado_sin_nombre_25"/><radialGradient id="Degradado_sin_nombre_25-4" cx="101.13" cy="377.43" r="204.72" xlink:href="#Degradado_sin_nombre_25"/><radialGradient id="Degradado_sin_nombre_25-5" cx="100.3" cy="377.09" r="205.77" xlink:href="#Degradado_sin_nombre_25"/><radialGradient id="Degradado_sin_nombre_25-6" cx="101.12" cy="377.43" r="204.73" xlink:href="#Degradado_sin_nombre_25"/><radialGradient id="Degradado_sin_nombre_25-7" cx="99.92" cy="377.43" r="206.41" xlink:href="#Degradado_sin_nombre_25"/><radialGradient id="Degradado_sin_nombre_25-8" cx="101.12" cy="377.43" r="204.73" xlink:href="#Degradado_sin_nombre_25"/><radialGradient id="radial-gradient-10" cx="218.56" cy="351.12" r="306.44" gradientTransform="matrix(1, 0, 0, 1, 0, 0)" xlink:href="#radial-gradient-2"/><radialGradient id="Degradado_sin_nombre_25-9" cx="190.55" cy="352.71" r="334.12" xlink:href="#Degradado_sin_nombre_25"/><radialGradient id="radial-gradient-11" cx="218.56" cy="351.12" r="306.44" gradientTransform="matrix(1, 0, 0, 1, 0, 0)" xlink:href="#radial-gradient-2"/><radialGradient id="Degradado_sin_nombre_42" cx="131.15" cy="251.06" r="13.53" gradientUnits="userSpaceOnUse"><stop offset="0.93" stop-color="#72c9fc"/><stop offset="0.93" stop-color="#6bbded" stop-opacity="0.94"/><stop offset="0.94" stop-color="#4f8caf" stop-opacity="0.7"/><stop offset="0.95" stop-color="#37617a" stop-opacity="0.48"/><stop offset="0.95" stop-color="#233e4e" stop-opacity="0.31"/><stop offset="0.96" stop-color="#14232c" stop-opacity="0.17"/><stop offset="0.97" stop-color="#091014" stop-opacity="0.08"/><stop offset="0.98" stop-color="#020405" stop-opacity="0.02"/><stop offset="0.98" stop-opacity="0"/></radialGradient><radialGradient id="Degradado_sin_nombre_42-2" cx="288.03" cy="306.34" r="13.96" xlink:href="#Degradado_sin_nombre_42"/><radialGradient id="Degradado_sin_nombre_42-3" cx="153.79" cy="239.85" r="13.26" xlink:href="#Degradado_sin_nombre_42"/><radialGradient id="Degradado_sin_nombre_42-4" cx="314.89" cy="287.99" r="13.27" xlink:href="#Degradado_sin_nombre_42"/><radialGradient id="Degradado_sin_nombre_42-5" cx="187.55" cy="196.01" r="12.07" xlink:href="#Degradado_sin_nombre_42"/><radialGradient id="Degradado_sin_nombre_42-6" cx="229.91" cy="188.83" r="13.86" xlink:href="#Degradado_sin_nombre_42"/><radialGradient id="Degradado_sin_nombre_42-7" cx="225.91" cy="276.46" r="10.55" xlink:href="#Degradado_sin_nombre_42"/><radialGradient id="Degradado_sin_nombre_42-8" cx="217.12" cy="143.12" r="5.11" xlink:href="#Degradado_sin_nombre_42"/><radialGradient id="Degradado_sin_nombre_42-9" cx="217.12" cy="257.11" r="15.4" xlink:href="#Degradado_sin_nombre_42"/><radialGradient id="Degradado_sin_nombre_42-10" cx="133.78" cy="219.24" r="14.22" xlink:href="#Degradado_sin_nombre_42"/><radialGradient id="Degradado_sin_nombre_42-11" cx="176.03" cy="360.77" r="22.16" xlink:href="#Degradado_sin_nombre_42"/><radialGradient id="Degradado_sin_nombre_42-12" cx="301.14" cy="231.48" r="19.46" xlink:href="#Degradado_sin_nombre_42"/><radialGradient id="Degradado_sin_nombre_42-13" cx="266.21" cy="207.77" r="13.85" xlink:href="#Degradado_sin_nombre_42"/><radialGradient id="Degradado_sin_nombre_42-14" cx="251.29" cy="329.44" r="21.78" xlink:href="#Degradado_sin_nombre_42"/><radialGradient id="Degradado_sin_nombre_42-15" cx="238.23" cy="260.88" r="12.15" xlink:href="#Degradado_sin_nombre_42"/><radialGradient id="Degradado_sin_nombre_42-16" cx="301.4" cy="349.02" r="10.49" xlink:href="#Degradado_sin_nombre_42"/><radialGradient id="Degradado_sin_nombre_42-17" cx="173.47" cy="256.3" r="16.43" xlink:href="#Degradado_sin_nombre_42"/><radialGradient id="Degradado_sin_nombre_42-18" cx="139.81" cy="300.56" r="12.1" xlink:href="#Degradado_sin_nombre_42"/><radialGradient id="Degradado_sin_nombre_42-19" cx="266.75" cy="195.68" r="20.46" xlink:href="#Degradado_sin_nombre_42"/><radialGradient id="Degradado_sin_nombre_42-20" cx="197.53" cy="276.5" r="12.25" xlink:href="#Degradado_sin_nombre_42"/><radialGradient id="Degradado_sin_nombre_42-21" cx="247.76" cy="399.49" r="10.37" xlink:href="#Degradado_sin_nombre_42"/><radialGradient id="Degradado_sin_nombre_42-22" cx="259.44" cy="386.62" r="4.19" xlink:href="#Degradado_sin_nombre_42"/><radialGradient id="Degradado_sin_nombre_42-23" cx="156.87" cy="245.13" r="19.75" xlink:href="#Degradado_sin_nombre_42"/><radialGradient id="Degradado_sin_nombre_42-24" cx="138.71" cy="217.4" r="13.63" xlink:href="#Degradado_sin_nombre_42"/><radialGradient id="Degradado_sin_nombre_42-25" cx="247.11" cy="211.74" r="11.51" xlink:href="#Degradado_sin_nombre_42"/><radialGradient id="Degradado_sin_nombre_42-26" cx="294.39" cy="171.23" r="10.89" xlink:href="#Degradado_sin_nombre_42"/><radialGradient id="Degradado_sin_nombre_42-27" cx="276.18" cy="308.04" r="14.32" xlink:href="#Degradado_sin_nombre_42"/><radialGradient id="Degradado_sin_nombre_42-28" cx="280.6" cy="221.12" r="16.26" xlink:href="#Degradado_sin_nombre_42"/><radialGradient id="Degradado_sin_nombre_42-29" cx="186.75" cy="382.18" r="19.98" xlink:href="#Degradado_sin_nombre_42"/><radialGradient id="Degradado_sin_nombre_42-30" cx="189.93" cy="176.75" r="18.63" xlink:href="#Degradado_sin_nombre_42"/><radialGradient id="Degradado_sin_nombre_42-31" cx="211.75" cy="222.12" r="26.31" xlink:href="#Degradado_sin_nombre_42"/><radialGradient id="Degradado_sin_nombre_42-32" cx="269.66" cy="271.26" r="13.99" xlink:href="#Degradado_sin_nombre_42"/><radialGradient id="Degradado_sin_nombre_42-33" cx="178.15" cy="295.89" r="17.92" xlink:href="#Degradado_sin_nombre_42"/><radialGradient id="Degradado_sin_nombre_42-34" cx="303.86" cy="255.79" r="11.38" xlink:href="#Degradado_sin_nombre_42"/><radialGradient id="Degradado_sin_nombre_42-35" cx="306.06" cy="229.04" r="11.95" xlink:href="#Degradado_sin_nombre_42"/><radialGradient id="Degradado_sin_nombre_42-36" cx="311.14" cy="297.4" r="10.17" xlink:href="#Degradado_sin_nombre_42"/><radialGradient id="Degradado_sin_nombre_42-37" cx="310.21" cy="227.49" r="11.46" xlink:href="#Degradado_sin_nombre_42"/><radialGradient id="radial-gradient-12" cx="681.7" cy="516.51" r="167.55" gradientTransform="translate(142.01 -43.48) rotate(90) scale(0.46 0.01)" xlink:href="#radial-gradient-2"/><radialGradient id="radial-gradient-13" cx="687.02" cy="456.04" r="167.53" gradientTransform="matrix(-0.01, 0.86, -0.02, 0, 213.84, -412.02)" xlink:href="#radial-gradient-2"/><linearGradient id="Degradado_sin_nombre_9" x1="220.09" y1="384.86" x2="220.09" y2="71.45" gradientUnits="userSpaceOnUse"><stop offset="0" stop-color="#72c9fc"/><stop offset="0.02" stop-color="#72c9fc" stop-opacity="0.94"/><stop offset="0.14" stop-color="#70cbfa" stop-opacity="0.7"/><stop offset="0.25" stop-color="#6eccf8" stop-opacity="0.48"/><stop offset="0.35" stop-color="#6dcdf7" stop-opacity="0.31"/><stop offset="0.45" stop-color="#6ccef6" stop-opacity="0.17"/><stop offset="0.55" stop-color="#6ccff6" stop-opacity="0.08"/><stop offset="0.64" stop-color="#6bcff5" stop-opacity="0.02"/><stop offset="0.71" stop-color="#6bcff5" stop-opacity="0"/></linearGradient><linearGradient id="Degradado_sin_nombre_9-2" x1="159.46" y1="366.23" x2="159.46" y2="73.37" xlink:href="#Degradado_sin_nombre_9"/><linearGradient id="Degradado_sin_nombre_9-3" x1="192.92" y1="366.38" x2="192.92" y2="73.35" xlink:href="#Degradado_sin_nombre_9"/><radialGradient id="radial-gradient-14" cx="272.99" cy="228.75" r="160.46" gradientTransform="matrix(1, 0, 0, 1, 0, 0)" xlink:href="#radial-gradient-2"/><radialGradient id="radial-gradient-15" cx="272.99" cy="228.75" r="160.46" gradientTransform="matrix(1, 0, 0, 1, 0, 0)" xlink:href="#radial-gradient-2"/><radialGradient id="radial-gradient-16" cx="272.99" cy="228.75" r="160.45" gradientTransform="matrix(1, 0, 0, 1, 0, 0)" xlink:href="#radial-gradient-2"/><radialGradient id="radial-gradient-17" cx="241.66" cy="287.01" r="97.09" gradientTransform="matrix(1, 0, 0, 1, 0, 0)" xlink:href="#radial-gradient-2"/><radialGradient id="radial-gradient-18" cx="241.66" cy="287.01" r="97.09" gradientTransform="matrix(1, 0, 0, 1, 0, 0)" xlink:href="#radial-gradient-2"/><radialGradient id="radial-gradient-19" cx="241.66" cy="287.01" r="97.09" gradientTransform="matrix(1, 0, 0, 1, 0, 0)" xlink:href="#radial-gradient-2"/><radialGradient id="radial-gradient-20" cx="241.66" cy="287.01" r="97.09" gradientTransform="matrix(1, 0, 0, 1, 0, 0)" xlink:href="#radial-gradient-2"/><radialGradient id="radial-gradient-21" cx="241.66" cy="287.01" r="97.09" gradientTransform="matrix(1, 0, 0, 1, 0, 0)" xlink:href="#radial-gradient-2"/><radialGradient id="radial-gradient-22" cx="241.66" cy="287.01" r="97.09" gradientTransform="matrix(1, 0, 0, 1, 0, 0)" xlink:href="#radial-gradient-2"/><radialGradient id="radial-gradient-23" cx="221.76" cy="409.58" r="200.62" gradientTransform="matrix(0.71, 0.71, -0.14, 0.14, 110.8, 172.17)" xlink:href="#radial-gradient-2"/><radialGradient id="Degradado_sin_nombre_67" cx="222.95" cy="351.74" r="161.16" gradientTransform="translate(197.83 61.57) rotate(45) scale(1 0.53)" gradientUnits="userSpaceOnUse"><stop offset="0" stop-color="#72c9fc"/><stop offset="0.03" stop-color="#6ec3f4" stop-opacity="0.97"/><stop offset="0.7" stop-color="#203846" stop-opacity="0.28"/><stop offset="0.98" stop-opacity="0"/></radialGradient></defs><g class="cls-2"><g id="Layer_2" data-name="Layer 2"><g id="OBJECTS"><path class="cls-3" d="M247.52,272.65l-11.64,4.08c-13.74,4.8-30.69-.09-45.44-15-23.86-24.19-33.1-65.78-20.62-92.72,4.78-10.32,12-17,20.58-20L202,144.93c-8.5,2.94-15.8,9.63-20.58,20-12.52,26.89-3.24,68.52,20.62,92.71C216.82,272.56,233.78,277.45,247.52,272.65Z"/><path class="cls-4" d="M247.62,160c23.87,24.19,33.12,65.79,20.63,92.73s-42.14,29.15-66.06,4.91-33.11-65.79-20.63-92.72S223.71,135.76,247.62,160Z"/><path class="cls-5" d="M266.06,250.53c11.93-25.59,3.12-65.06-19.58-88.07s-50.84-20.92-62.77,4.67-3.12,65.06,19.62,88.11,50.84,20.93,62.77-4.66Z"/><path class="cls-6" d="M268.21,252.76c.25-.61.54-1.18.79-1.79.61-1.46,1.17-2.89,1.65-4.4.16-.45.27-.86.38-1.27.54-1.73,1-3.5,1.34-5.31.05-.21.07-.46.13-.67.07-.45.15-.91.22-1.36.41-2.32.66-4.65.87-7,.06-.92.13-1.92.16-2.88,0-.5,0-1,.06-1.47s0-1,0-1.42a93.78,93.78,0,0,0-3.88-26c-.24-.73-.44-1.5-.68-2.23-.07-.26-.18-.48-.24-.74-.66-1.94-1.33-3.88-2.07-5.82a11.08,11.08,0,0,0-.61-1.44,91.36,91.36,0,0,0-16-25.93c-.85-1-1.79-2-2.73-2.9-7-7.09-14.59-12-22-14.56-.89-.32-1.84-.6-2.78-.89a15.66,15.66,0,0,0-1.86-.44,14.85,14.85,0,0,0-1.86-.35c-.91-.16-1.82-.31-2.74-.38l-.92-.07a33.49,33.49,0,0,0-13.74,1.82.28.28,0,0,1-.18.07c-.17.07-.42.13-.6.2l-.18.16-.81.23c-.21.11-.52.21-.78.36l-.09.07a2.45,2.45,0,0,0-.6.29l-.14.12-.69.36a4.49,4.49,0,0,0-.62.37c-.52.3-1.09.63-1.62,1a3.16,3.16,0,0,1-.65.41l-.27.23-.4.35-.27.23-.45.38-.09.08-.58.5-.09.08a35.92,35.92,0,0,0-6,6.25c-.28.4-.61.83-.89,1.23s-.65,1-1,1.48l-.86,1.44a1.89,1.89,0,0,0-.28.48c-.29.48-.53,1-.82,1.49a2,2,0,0,0-.24.53,9.28,9.28,0,0,0-.5,1.05c-.09.16-.15.37-.24.53-.45,1-.9,2-1.31,3.08-.15.45-.31.82-.46,1.27-.41,1.06-.74,2.12-1.06,3.19-.22.65-.39,1.27-.56,2-.23.91-.42,1.77-.65,2.68-.07.45-.19.86-.3,1.36s-.15.91-.23,1.37c-.27,1.57-.47,3.23-.67,4.9a7.42,7.42,0,0,0-.1,1.42c0,.5-.07.91-.1,1.41a89.4,89.4,0,0,0,2.46,26.51c.29,1.24.58,2.48.92,3.68a94.63,94.63,0,0,0,6.19,16.31c.59,1.22,1.22,2.4,1.89,3.63l.11.13A85.64,85.64,0,0,0,202.34,258a10.71,10.71,0,0,0,1,1,4.64,4.64,0,0,0,.66.68l.23.27.35.41.27.31.12.14.79.65c.24.27.52.42.75.69a1.52,1.52,0,0,0,.36.32,6.36,6.36,0,0,0,.79.65,2,2,0,0,0,.48.37l.27.31.09-.07.07.09a5.76,5.76,0,0,0,.72.56l.08.09a2.36,2.36,0,0,0,.32.19,1.64,1.64,0,0,0,.44.33,4.64,4.64,0,0,0,.4.28,5.14,5.14,0,0,0,.79.57c.28.23.56.38.84.61s.56.38.88.57l.12.14a6.15,6.15,0,0,1,.8.48l.08.09.73.39.15.18h.17c.36.24.73.4,1.09.63l.48.29s.25.11.41.2c0,0,.24.11.4.2a.63.63,0,0,0,.28.15s.12.14.25.1a.63.63,0,0,0,.28.15,2,2,0,0,0,.53.25c.36.16.73.39,1.09.55.16.1.37.15.53.25l.73.31c.16.1.37.15.53.25l.73.31c.25.1.49.21.82.31l.08.09s.28.07.41.12.12.05.2.06a2,2,0,0,0,.54.17c.2.05.45.16.65.22a14.22,14.22,0,0,0,1.77.51,2.06,2.06,0,0,1,.53.17c.08.09.21.06.33.11s.29.06.41.11l.08.09s.41,0,.62.09l.09-.07a4.36,4.36,0,0,0,.78.18l0,.05.67.05,0,.05.26,0,.33,0,.2.06a1.81,1.81,0,0,1,.38.07h.16l0,.05.75.06.75.06.67.05a4.86,4.86,0,0,0,.71,0,4.57,4.57,0,0,1,.67.05.73.73,0,0,0,.29,0,10.21,10.21,0,0,1,1.13,0h.55a2.83,2.83,0,0,0,.29,0c.17,0,.29,0,.46,0a1.12,1.12,0,0,0,.3,0c.16,0,.29,0,.46,0l.8-.06c.21,0,.38,0,.59,0h.16a2.29,2.29,0,0,0,.56-.08c.21,0,.46-.09.67-.11.43,0,.81-.15,1.23-.2l.09-.08h.17s.34-.05.47-.09l.09-.07a3.91,3.91,0,0,0,.42-.05s.21,0,.25-.07a1.84,1.84,0,0,0,.56-.16c.09-.08.21,0,.3-.11.38-.09.69-.19,1.07-.29l.47-.17c.09-.08.17-.07.3-.11l.09-.07a.87.87,0,0,0,.43-.14l.52-.21c8.26-3,15.38-9.67,20.07-19.75Zm-64.89,2.48a81.84,81.84,0,0,1-14.84-20.92l-.11-.14a97.41,97.41,0,0,1-6.43-16.57l0-.05c-5-17.64-4.8-36.17,1.89-50.42,11.93-25.59,40-27.72,62.77-4.67s31.51,62.47,19.58,88.07-40,27.72-62.77,4.67Z"/><path class="cls-7" d="M262.58,247.18l-2.35-2.36c-.39.81-.78,1.61-1.21,2.38l2.21,2.56C261.75,248.92,262.14,248,262.58,247.18Z"/><path class="cls-7" d="M258.67,247.89l-.19.32,2.15,2.6.24-.36Z"/><path class="cls-7" d="M258.08,248.85l-.46.72,2.15,2.68.51-.75Z"/><path class="cls-7" d="M253.8,254.31l-.58.59,1.92,3,.55-.63Z"/><path class="cls-7" d="M252.8,255.33l-.58.5,1.84,3.12.58-.58Z"/><path class="cls-7" d="M257.18,250.25l-.18.24,2.11,2.72.18-.24Z"/><path class="cls-7" d="M248.47,258.73l-.26.15,1.53,3.31.3-.19Z"/><path class="cls-7" d="M247.6,259.17l-.66.41,1.44,3.38.7-.44Z"/><path class="cls-7" d="M246.29,259.91l-.22.11,1.44,3.38.21-.11Z"/><path class="cls-7" d="M256.56,251.08a22.89,22.89,0,0,1-2.25,2.72l1.94,3c.82-.95,1.64-1.89,2.38-2.92L256.52,251Z"/><path class="cls-7" d="M251.67,256.37l-1.25,1.08c-.49.34-1,.6-1.41.9l1.58,3.27a16.4,16.4,0,0,0,1.45-1l1.34-1.15Z"/><path class="cls-7" d="M246.06,260c-.69.36-1.39.64-2.12,1l1.27,3.46c.73-.32,1.51-.59,2.25-1L246,260.06Z"/><path class="cls-7" d="M243.25,261.19l-.3.1,1.22,3.49.34-.14Z"/><path class="cls-7" d="M242.3,261.53a7.59,7.59,0,0,1-.73.24l1.14,3.49s.51-.13.81-.23l-1.18-3.45Z"/><path class="cls-7" d="M236,262.65l-.75,0,.71,3.54.8-.06Z"/><path class="cls-7" d="M234.65,262.71l-.79,0,.63,3.53h.84Z"/><path class="cls-7" d="M240.89,261.89l-.26.06,1.09,3.53.26-.07Z"/><path class="cls-7" d="M229.07,262.2a2.14,2.14,0,0,0-.37-.07l.3,3.51a1.65,1.65,0,0,1,.37.07Z"/><path class="cls-7" d="M228,262l-.83-.15.22,3.5.86.2Z"/><path class="cls-7" d="M226.47,261.62l-.29-.06.1,3.45.28.06Z"/><path class="cls-7" d="M240,262.11l-1.61.3-1.69.2.8,3.55,1.77-.2,1.75-.33Z"/><path class="cls-7" d="M233.14,262.68a29,29,0,0,1-3.41-.35l.34,3.55a26.54,26.54,0,0,0,3.66.37l-.55-3.52Z"/><path class="cls-7" d="M226.18,261.56l-1.23-.35-1.23-.43-.07,3.44,1.31.44a7.8,7.8,0,0,0,1.32.35Z"/><path class="cls-7" d="M223,260.51l-.37-.15-.11,3.39.36.16Z"/><path class="cls-7" d="M221.93,260.06s-.57-.21-.82-.32l-.23,3.34.86.36Z"/><path class="cls-7" d="M215.27,256.57l-.84-.53-.68,3.1.89.57Z"/><path class="cls-7" d="M213.88,255.67c-.24-.19-.53-.34-.8-.57l-.76,3c.28.23.56.37.84.61Z"/><path class="cls-7" d="M220.35,259.39l-.29-.15-.27,3.3.28.15Z"/><path class="cls-7" d="M208.53,251.44l-.31-.36-1.08,2.81.36.32Z"/><path class="cls-7" d="M207.6,250.53l-.75-.69-1.2,2.68.79.73Z"/><path class="cls-7" d="M206.19,249.16l-.28-.23-1.23,2.63.27.23Z"/><path class="cls-7" d="M219.38,258.9l-1.74-.93c-.56-.3-1.12-.68-1.73-1l-.55,3.15c.6.34,1.2.76,1.8,1.1l1.86,1Z"/><path class="cls-7" d="M212.41,254.59l-.84-.61-.79-.65L209.15,252l-1,2.85c.55.55,1.14,1,1.7,1.44l.87.74.87.65.8-3Z"/><path class="cls-7" d="M203.77,246.62l-1.34,2.5c.73.86,1.52,1.59,2.25,2.44l1.24-2.63C205.22,248.12,204.47,247.43,203.77,246.62Z"/><path class="cls-7" d="M202.85,245.55,201.42,248l.35.4,1.4-2.45Z"/><path class="cls-7" d="M201.63,244l-1.51,2.31.69.9,1.47-2.37Z"/><path class="cls-7" d="M196.44,236.7l-1.86,1.83.65,1,1.81-1.87Z"/><path class="cls-7" d="M195.47,235.12l-1.89,1.7.56,1,1.89-1.78Z"/><path class="cls-7" d="M200.78,243l-1.58,2.23.23.27,1.58-2.23Z"/><path class="cls-7" d="M192.18,228.74,190,230l.21.52,2.12-1.34Z"/><path class="cls-7" d="M191.32,226.83,189.09,228l.55,1.09,2.15-1.22Z"/><path class="cls-7" d="M190.79,225.57l-2.27,1.08.19.4,2.22-1.13Z"/><path class="cls-7" d="M197.55,238.47l-1.77,1.92c1,1.37,1.87,2.7,2.86,4l1.62-2.18c-1-1.21-1.83-2.5-2.67-3.74Z"/><path class="cls-7" d="M192.78,230l-2.06,1.39c.41.75.77,1.53,1.18,2.28l1.23,2.24,2-1.7-1.16-2.06c-.37-.7-.74-1.4-1.06-2.14Z"/><path class="cls-7" d="M189.55,222.41l-2.33.91c.42,1.13.85,2.25,1.36,3.38l2.25-1.08c-.43-1-.81-2.12-1.24-3.16Z"/><path class="cls-7" d="M189,220.94l-2.33.83.18.48,2.33-.83Z"/><path class="cls-7" d="M188.39,219l-2.39.65c.09.38.28.78.38,1.16l2.4-.73C188.63,219.7,188.54,219.31,188.39,219Z"/><path class="cls-7" d="M186.1,209.94l-2.56.09.21,1.15,2.56-.09Z"/><path class="cls-7" d="M185.74,208.06l-2.55-.07.17,1.19h2.56Z"/><path class="cls-7" d="M188,217.63l-2.43.53.14.43,2.43-.61Z"/><path class="cls-7" d="M184.89,201.07l-2.64-.54s0,.3.05.51l2.6.5S184.88,201.24,184.89,201.07Z"/><path class="cls-7" d="M184.79,199.05l-2.64-.62,0,1.13,2.68.59Z"/><path class="cls-7" d="M184.73,197.7,182.1,197v.38l2.64.71Z"/><path class="cls-7" d="M186.52,212l-2.53.22.58,2.48.67,2.49,2.42-.52-.59-2.32Z"/><path class="cls-7" d="M185,202.43l-2.61-.42c.17,1.65.35,3.3.61,5l2.59.12C185.39,205.56,185.17,204,185,202.43Z"/><path class="cls-7" d="M184.71,194.51l-2.66-.92v1.72c0,.55.05,1.14.05,1.68l2.63.71c0-.54-.05-1-.05-1.6Z"/><path class="cls-7" d="M184.79,193.05l-2.65-1v.47l2.61,1Z"/><path class="cls-7" d="M184.85,191.12,182.21,190s-.05.75,0,1.13l2.64,1.09S184.83,191.46,184.85,191.12Z"/><path class="cls-7" d="M186.11,182.87l-2.56-1.71-.19,1,2.52,1.67Z"/><path class="cls-7" d="M186.49,181.22,184,179.39s-.17.7-.23,1l2.51,1.75.19-1Z"/><path class="cls-7" d="M185,189.83l-2.59-1.21,0,.34,2.63,1.25Z"/><path class="cls-7" d="M188.36,175.49l-2.4-2.25-.19.41,2.44,2.2Z"/><path class="cls-7" d="M189,173.9l-2.39-2.33-.39.9,2.39,2.24Z"/><path class="cls-7" d="M189.44,172.84l-2.34-2.36-.11.32,2.39,2.33Z"/><path class="cls-7" d="M185.71,184.68l-2.61-1.58a18.87,18.87,0,0,0-.32,2.24l-.29,2.28,2.63,1.34.27-2.12c.1-.7.27-1.4.36-2.11Z"/><path class="cls-7" d="M187.93,176.55l-2.45-2.13c-.25.61-.47,1.35-.68,2l-.32,1-.28,1,2.5,1.91.24-1,.27-.94c.22-.65.39-1.27.64-1.88Z"/><path class="cls-7" d="M188.41,167.93c-.47.81-.87,1.7-1.3,2.54l2.34,2.37c.39-.81.79-1.62,1.22-2.38l-2.21-2.57Z"/><path class="cls-7" d="M189.05,166.85l-.18.32,2.23,2.61.19-.32Z"/><path class="cls-7" d="M190,165.41l-.51.76,2.19,2.64.47-.71Z"/><path class="cls-7" d="M194.63,159.72l-.59.59,1.89,3,.58-.58Z"/><path class="cls-7" d="M195.71,158.71l-.62.54,1.88,3.09.54-.55Z"/><path class="cls-7" d="M190.62,164.41l-.14.28,2.11,2.72.18-.23Z"/><path class="cls-7" d="M200,155.48l-.3.18,1.57,3.27.26-.15Z"/><path class="cls-7" d="M201.39,154.7l-.74.4,1.48,3.35.7-.37Z"/><path class="cls-7" d="M202.26,154.26l-.21.11,1.39,3.34.26-.06Z"/><path class="cls-7" d="M193.48,160.85c-.82.94-1.64,1.89-2.38,2.92l2.07,2.77a23,23,0,0,1,2.25-2.73Z"/><path class="cls-7" d="M199.18,156c-.44.39-1,.64-1.45,1l-1.34,1.16,1.71,3.07,1.25-1.08c.49-.34,1-.6,1.41-.9Z"/><path class="cls-7" d="M204.52,153.26c-.74.32-1.51.6-2.25,1l1.44,3.39a20.92,20.92,0,0,1,2.07-.93Z"/><path class="cls-7" d="M205.6,152.88l-.35.14,1.23,3.41.3-.1Z"/><path class="cls-7" d="M207.06,152.41s-.51.12-.81.23l1.18,3.44s.47-.17.73-.23L207,152.36Z"/><path class="cls-7" d="M213.81,151.45l-.84,0,.8,3.55.75,0Z"/><path class="cls-7" d="M215.28,151.44l-.88,0,.71,3.54.8,0Z"/><path class="cls-7" d="M208,152.19l-.25.06,1.05,3.48.26-.06Z"/><path class="cls-7" d="M220.77,152a1.65,1.65,0,0,1-.37-.07l.3,3.5a1.93,1.93,0,0,0,.37.07Z"/><path class="cls-7" d="M222.38,152.36l-.86-.19.21,3.5.83.15Z"/><path class="cls-7" d="M223.49,152.66l-.32-.11.13,3.49.29.06Z"/><path class="cls-7" d="M212.29,151.51l-1.78.19-1.74.33,1,3.52,1.62-.29,1.69-.21Z"/><path class="cls-7" d="M219.69,151.86a28.19,28.19,0,0,0-3.66-.37l.55,3.53a33.7,33.7,0,0,1,3.41.35l-.34-3.55Z"/><path class="cls-7" d="M226.07,153.48l-1.31-.43a8,8,0,0,0-1.31-.36l.09,3.45,1.24.35,1.22.43Z"/><path class="cls-7" d="M227.3,153.91l-.37-.15-.11,3.39.29.15Z"/><path class="cls-7" d="M228.89,154.58s-.57-.21-.86-.36l-.19,3.38.81.32Z"/><path class="cls-7" d="M236,158.48l-.85-.53-.64,3.14.85.53Z"/><path class="cls-7" d="M237.41,159.51c-.28-.23-.56-.38-.84-.61l-.71,3a4.48,4.48,0,0,1,.79.57Z"/><path class="cls-7" d="M229.94,155.08l-.28-.15-.24,3.34.25.1Z"/><path class="cls-7" d="M242.63,163.77l-.36-.32-1.08,2.81.32.28Z"/><path class="cls-7" d="M244.12,165.15l-.83-.78-1.12,2.77.75.68Z"/><path class="cls-7" d="M245.05,166.06l-.27-.23-1.2,2.67.24.19Z"/><path class="cls-7" d="M234.42,157.48c-.61-.34-1.21-.76-1.85-1.07l-1.86-1-.36,3.29,1.74.93c.56.3,1.12.68,1.73,1l.55-3.15Z"/><path class="cls-7" d="M241.65,162.9c-.55-.54-1.15-1-1.71-1.43l-.86-.74-.88-.65-.8,3,.84.61.79.65,1.62,1.34,1-2.85Z"/><path class="cls-7" d="M245.05,166.06l-1.24,2.63c.7.81,1.45,1.49,2.15,2.3l1.34-2.49C246.57,167.64,245.78,166.91,245.05,166.06Z"/><path class="cls-7" d="M248,169.3l-1.39,2.46.28.31,1.43-2.41Z"/><path class="cls-7" d="M248.92,170.38l-1.43,2.41.65.85,1.51-2.32Z"/><path class="cls-7" d="M254.5,178.07,252.73,180l.56.92,1.86-1.82Z"/><path class="cls-7" d="M255.59,179.79l-1.89,1.78.56,1,1.93-1.74Z"/><path class="cls-7" d="M250.3,172.08l-1.55,2.28.24.27,1.54-2.28Z"/><path class="cls-7" d="M259.53,187.1l-2.2,1.34.22.44,2.15-1.3Z"/><path class="cls-7" d="M260.13,188.53,258,189.75l.43,1,2.23-1.21Z"/><path class="cls-7" d="M261.06,190.62l-2.22,1.13.14.34,2.23-1.13Z"/><path class="cls-7" d="M251.13,173.24l-1.62,2.18c1,1.21,1.83,2.49,2.71,3.78l1.81-2c-.95-1.38-1.86-2.71-2.86-4Z"/><path class="cls-7" d="M256.73,181.76l-2,1.7,1.15,2.06c.37.7.74,1.4,1.07,2.14l2.06-1.39c-.41-.75-.77-1.53-1.18-2.28l-1.23-2.23Z"/><path class="cls-7" d="M261.19,191l-2.25,1.09c.43,1,.81,2.12,1.24,3.16l2.33-.91c-.42-1.13-.85-2.25-1.36-3.38Z"/><path class="cls-7" d="M262.92,195.42l-2.37.78.18.48,2.37-.79Z"/><path class="cls-7" d="M263.39,196.88l-2.4.74c.14.34.24.73.39,1.08l2.39-.66C263.67,197.66,263.53,197.31,263.39,196.88Z"/><path class="cls-7" d="M266,206.44l-2.57.18.26,1.11,2.56-.1Z"/><path class="cls-7" d="M266.37,208.44h-2.56l.18,1.11,2.55.07Z"/><path class="cls-7" d="M264.11,199.08l-2.44.6.15.35,2.39-.57Z"/><path class="cls-7" d="M267.43,216.58l-2.6-.5s0,.3,0,.47l2.6.49s0-.29,0-.5Z"/><path class="cls-7" d="M267.53,218.06l-2.64-.55.09,1.1,2.63.63Z"/><path class="cls-7" d="M267.66,220.29l-2.68-.75,0,.38,2.67.75Z"/><path class="cls-7" d="M264.49,200.53l-2.43.53.64,2.27.55,2.35,2.53-.22L265.2,203Z"/><path class="cls-7" d="M266.74,210.69l-2.59-.12c.22,1.53.45,3.15.59,4.67l2.61.41C267.18,214,267,212.35,266.74,210.69Z"/><path class="cls-7" d="M267.66,220.67,265,220c0,.55.05,1,.05,1.6l0,1.59,2.65.92,0-1.67c0-.55-.05-1.14-.05-1.69Z"/><path class="cls-7" d="M267.62,225.16l-2.61-1-.07.46,2.69,1.05Z"/><path class="cls-7" d="M267.55,226.54l-2.64-1.09s0,.71,0,1.05l2.64,1.17S267.57,226.92,267.55,226.54Z"/><path class="cls-7" d="M266.41,235.47l-2.56-1.62-.19,1,2.55,1.71Z"/><path class="cls-7" d="M266,237.2l-2.52-1.74s-.12.66-.19.95l2.51,1.83s.18-.7.24-1Z"/><path class="cls-7" d="M267.39,228.71l-2.63-1.26,0,.34,2.63,1.25Z"/><path class="cls-7" d="M264,244l-2.4-2.16-.15.37,2.39,2.24Z"/><path class="cls-7" d="M263.49,245.15l-2.39-2.24-.35.85L263.1,246Z"/><path class="cls-7" d="M262.73,246.9l-2.34-2.36-.1.24,2.3,2.4Z"/><path class="cls-7" d="M267.28,230l-2.63-1.34-.28,2.12c-.09.71-.26,1.41-.35,2.11l2.61,1.59c.14-.74.27-1.49.37-2.28l.28-2.28Z"/><path class="cls-7" d="M265.5,239.14,263,237.26l-.24,1-.32,1c-.22.66-.38,1.27-.64,1.88l2.45,2.12c.26-.61.48-1.34.69-2l.32-1,.28-1Z"/><path class="cls-4" d="M245.41,175.94l-.42-.5c-1-1.12-2-2.29-3-3.34l-.46-.54-.53,1,.46.54c1.06,1,2,2.09,3,3.21l.43.5Zm-6.33-6.54-.47-.37c-1.15-1-2.27-1.82-3.42-2.71l-.44-.32-.29,1.11.44.33a40.49,40.49,0,0,1,3.34,2.61l.39.45.41-1.15ZM251,183.76l-.34-.57c-.87-1.37-1.78-2.7-2.69-4l-.43-.5-.6.75.43.5c.87,1.28,1.75,2.57,2.61,3.94l.34.57.72-.62Zm-18.85-19.44-.48-.29a37,37,0,0,0-3.6-1.83l-.49-.21-.09,1.26.49.2a31.87,31.87,0,0,1,3.48,1.79l.48.28Zm23.06,27.57q-1-2.28-2.21-4.45l-.29-.61-.71.61.29.53c.74,1.4,1.48,2.89,2.13,4.36l.29.62.79-.45ZM225,161l-.5-.13a28.9,28.9,0,0,0-3.58-.91l-.49-.12.11,1.31.5.12c1.15.26,2.31.52,3.5.91l.49.12v-1.26Zm33.68,40.27c-.43-1.59-1-3.14-1.59-4.74l-.25-.65-.86.35.24.65c.57,1.56,1.09,3.07,1.57,4.61l.16.65.9-.23Zm-40.87-41.76-.5,0a19.25,19.25,0,0,0-3.48,0h-.46l.28,1.32h.46a27.5,27.5,0,0,1,3.4,0l.5,0Zm43,51.37c-.22-1.61-.53-3.23-.92-4.86l-.16-.64-.93.1.16.64c.35,1.58.62,3.15.89,4.73l.08.63,1,0Zm-49.91-51-.47.08a20.52,20.52,0,0,0-3.21,1l-.43.14.46,1.25.43-.14a17.23,17.23,0,0,1,3.16-.92l.47-.09Zm50.71,60.57c0-1.55-.08-3.15-.22-4.76l0-.67-.95-.2,0,.67c.11,1.56.21,3.12.18,4.63v.63l1,.33Zm-57.07-58.3-.44.22a20.92,20.92,0,0,0-2.89,1.87l-.36.31.63,1.18.36-.31a29.31,29.31,0,0,1,2.8-1.79l.44-.22ZM261,229.65c.23-1.45.38-3,.48-4.49l0-.59-1-.41,0,.59c-.1,1.5-.24,3-.47,4.33l-.08.62,1,.58Zm-64-59.26a22.92,22.92,0,0,1,2.32-2.63l.35-.31-.71-1.19-.36.31c-.81.86-1.59,1.76-2.37,2.75l-.28.4.77,1.07ZM258.89,238c.43-1.31.81-2.67,1.16-4.07l.13-.57-1-.67-.13.58c-.34,1.32-.73,2.67-1.15,3.9l-.16.53.91.79.16-.54Zm-65.83-61.25c.58-1.22,1.16-2.26,1.78-3.35l.24-.44-.81-.94-.24.44a34.57,34.57,0,0,0-1.83,3.38l-.25.53.82.94Zm62.43,68.5a36.35,36.35,0,0,0,1.84-3.47l.29-.57-.82-.94-.29.56c-.63,1.26-1.21,2.39-1.83,3.39l-.24.44.82,1,.24-.45Zm-65.06-60.9c.34-1.32.69-2.63,1.15-3.9l.17-.53-.91-.79-.17.54c-.42,1.31-.81,2.66-1.2,4l-.12.57,1,.67ZM251,251a26.55,26.55,0,0,0,2.41-2.71l.28-.4-.76-1.07-.28.4a25,25,0,0,1-2.32,2.63l-.36.31.76,1.15.35-.31Zm-61.9-58.22c.11-1.5.29-2.92.52-4.37l.08-.62-1-.58-.09.62a43,43,0,0,0-.48,4.5l0,.58,1,.42,0-.59Zm58.95,59-.36.31a29.43,29.43,0,0,1-2.8,1.8l-.44.22.54,1.26.44-.22a21.88,21.88,0,0,0,2.89-1.87l.36-.31-.59-1.14ZM189.15,202c-.1-1.56-.2-3.12-.17-4.63v-.63l-1-.33V197c0,1.56.08,3.16.21,4.76l0,.68.95.2-.08-.64Zm53.16,53.21-.43.14a19.9,19.9,0,0,1-3.17.92l-.47.09.42,1.29.46-.08a28,28,0,0,0,3.25-.93l.43-.13-.46-1.25ZM190.59,211.4c-.35-1.58-.62-3.15-.88-4.73l-.09-.63-1,0,.12.68c.23,1.62.53,3.24.92,4.86l.17.64.92-.09-.16-.64Zm45.28,45.34h-.46a29.61,29.61,0,0,1-3.4,0l-.5,0,.2,1.32.5,0a19.25,19.25,0,0,0,3.48,0h.46Zm-42.54-36c-.56-1.55-1.08-3.06-1.51-4.65l-.17-.64-.9.22.17.64a50.05,50.05,0,0,0,1.6,4.75l.24.64.87-.35-.25-.65ZM229,256.45l-.5-.12c-1.15-.26-2.31-.52-3.5-.9l-.49-.13v1.26l.5.13a28.9,28.9,0,0,0,3.58.91l.49.12-.11-1.31Zm-31.78-26.86c-.74-1.4-1.47-2.89-2.13-4.36l-.29-.61-.78.44.29.61c.69,1.52,1.42,3,2.16,4.49l.29.61.71-.62-.29-.52ZM222,254.35l-.49-.2a31.87,31.87,0,0,1-3.48-1.79l-.48-.29-.21,1.2.48.29a35,35,0,0,0,3.6,1.84l.49.2Zm-19.36-16.24-.43-.5c-.87-1.28-1.75-2.57-2.62-3.93l-.33-.58-.72.62.38.62c.87,1.36,1.78,2.7,2.69,4l.43.49Zm12.46,12.3-.43-.32c-1.08-.8-2.23-1.69-3.34-2.61l-.48-.38-.36,1,.47.38c1.15,1,2.26,1.89,3.42,2.7l.44.33Zm-6.53-5.5-.42-.49q-1.59-1.57-3-3.26l-.43-.5-.56.88.42.5c1,1.17,2,2.34,3.08,3.38l.42.5.49-1Z"/><path class="cls-4" d="M240.32,237.61l.59-1.21c2-4.21,1.83-10.05-.31-15.43a6.79,6.79,0,0,0,4.73-4.08l.49-1c2.77-5.91.71-15-4.49-20.29l-.94-.91,4.09-8.79L238.77,180l-4.1,8.79-2.9-2.91,4.1-8.79-5.72-5.82-4.09,8.79-9.83-10L213,177.06l6.3,6.41L206.5,211l-5.41-5.46-4.19,5.88,9.91,10L202.86,230l5.72,5.82,3.95-8.51,2.9,2.91-4,8.51,5.71,5.82,3.95-8.51L224,238.9c6,6,13.25,5.44,16.36-1.24Zm-15.91.23-3.72-3.77-3.95,8.5-4-4,3.95-8.5L212,225.37l-3.95,8.51-4-4,3.95-8.51-9.79-9.91,3.06-4.21,5.52,5.59,13.72-29.48-6.31-6.41,2.28-5,9.87,10,4.09-8.79,4,4.05-4.1,8.79,4.63,4.64,4.09-8.79,4,4L239,194.7l1.8,1.82c4.78,4.82,6.6,13.07,4.08,18.45l-.49,1.06a5.87,5.87,0,0,1-4.75,3.7l-.59,0,.37.79c2.24,5.13,2.43,10.85.55,14.9l-.59,1.21c-2.86,6.16-9.6,6.64-15,1.14Zm8-16.29A13,13,0,0,0,229,215.2l-8.3-8.37-6.37,13.73,8.3,8.37c3.37,3.37,7.55,3.07,9.28-.7A10.39,10.39,0,0,0,232.38,221.55Zm-9.29,6.37-7.44-7.55,5.48-11.79,7.44,7.55a11.8,11.8,0,0,1,2.93,5.48,8.92,8.92,0,0,1-.44,5.71C229.57,230.56,226,230.83,223.09,227.92Zm14.83-20.17a8.23,8.23,0,0,0,.41-5.21,10.39,10.39,0,0,0-2.67-5l-7.21-7.27-5,10.73,7.21,7.28C233.29,211,236.58,210.71,237.92,207.75Zm-13.15-6.86,4.1-8.79,6.34,6.46a8.9,8.9,0,0,1,2.19,4.07,6.78,6.78,0,0,1-.3,4.26c-1.13,2.39-3.79,2.64-5.94.42l-6.34-6.46Zm7.19,27.3a10.45,10.45,0,0,0,.47-6.68,13.08,13.08,0,0,0-3.37-6.35l-8.31-8.37-6.37,13.73,8.31,8.37C226.06,232.26,230.23,232,232,228.19Zm-8.87-.27-7.44-7.55,5.48-11.79,7.44,7.55a11.8,11.8,0,0,1,2.93,5.48,8.92,8.92,0,0,1-.44,5.71C229.57,230.56,226,230.83,223.09,227.92Zm14.83-20.17a8.23,8.23,0,0,0,.41-5.21,10.39,10.39,0,0,0-2.67-5l-7.21-7.27-5,10.73,7.21,7.28C233.29,211,236.58,210.71,237.92,207.75Zm-13.15-6.86,4.1-8.79,6.34,6.46a8.9,8.9,0,0,1,2.19,4.07,6.78,6.78,0,0,1-.3,4.26c-1.13,2.39-3.79,2.64-5.94.42l-6.34-6.46Zm13.15,6.86a8.23,8.23,0,0,0,.41-5.21,10.39,10.39,0,0,0-2.67-5l-7.21-7.27-5,10.73,7.21,7.28C233.29,211,236.58,210.71,237.92,207.75Zm-6.81-.4-6.34-6.46,4.1-8.79,6.34,6.46a8.9,8.9,0,0,1,2.19,4.07,6.78,6.78,0,0,1-.3,4.26c-1.13,2.39-3.79,2.64-5.94.42Zm.85,20.84a10.45,10.45,0,0,0,.47-6.68,13.08,13.08,0,0,0-3.37-6.35l-8.31-8.37-6.37,13.73,8.31,8.37C226.06,232.26,230.23,232,232,228.19Zm-8.87-.27-7.44-7.55,5.48-11.79,7.44,7.55a11.8,11.8,0,0,1,2.93,5.48,8.92,8.92,0,0,1-.44,5.71C229.57,230.56,226,230.83,223.09,227.92Z"/><ellipse class="cls-8" cx="213.91" cy="408.32" rx="143.4" ry="12.87"/><g class="cls-9"><path class="cls-10" d="M91.72,359.82a2.51,2.51,0,1,0,2.47,2.84H129v-.81H94.17A2.5,2.5,0,0,0,91.72,359.82Z"/><path class="cls-10" d="M112,369.7H88.76a2.5,2.5,0,1,0,0,.82h22.92l5.57,5.56H129v-.81H117.58Z"/><path class="cls-10" d="M80.12,384.46H108l8.78,8.78.12.12h11.65v-.82H117.23l-8.78-8.78-.12-.12H80.12a2.5,2.5,0,1,0,0,.82Z"/><path class="cls-10" d="M50,376.6a2.5,2.5,0,1,0,2.47,2.91H129v-.82H52.5A2.51,2.51,0,0,0,50,376.6Z"/><path class="cls-10" d="M16.75,398.2a2.5,2.5,0,1,0,2.46,2.91H129v-.82H19.21A2.5,2.5,0,0,0,16.75,398.2Z"/><path class="cls-10" d="M357.5,398.24a2.5,2.5,0,0,0-2.46,2.09h-25.2L326,396.44H308.52v.81h17.09l3.9,3.9H355a2.5,2.5,0,1,0,2.46-2.91Z"/><path class="cls-10" d="M330.64,380.31a2.5,2.5,0,1,0,0-.82h-5.95l-3.34,3.34H312v.81h9.73l3.34-3.33Z"/><path class="cls-10" d="M327.05,370.29a2.51,2.51,0,1,0-2.46-2.91H308.52v.81h16.07A2.49,2.49,0,0,0,327.05,370.29Z"/><path class="cls-10" d="M359.73,364.79a2.51,2.51,0,1,0-2.46-2.91H308.52v.81h48.75A2.49,2.49,0,0,0,359.73,364.79Z"/><path class="cls-10" d="M389,375.57a2.5,2.5,0,0,0-2.46,2.1H343l-12.8,12.79H308.52v.81h22l12.79-12.79h43.24a2.5,2.5,0,1,0,2.46-2.91Z"/><path class="cls-10" d="M404.05,370.23a2.51,2.51,0,0,0-2.47,2.09H308.52v.82h93.06a2.5,2.5,0,1,0,2.47-2.91Z"/></g><path class="cls-11" d="M121.71,359.53V403.1s26.07,5.22,102.43,5.22c70.06,0,94.32-5.22,94.32-5.22V359.53c-13,2.34-52.11,4-98.37,4S134.69,361.87,121.71,359.53Z"/><path class="cls-12" d="M220.09,402.22c-19.21,0-37.19.29-52.58.8h0l-50.37-.66v5.58c0,3.16,46.09,5.72,103,5.72s103-2.56,103-5.72v-5.58C307.41,400.31,262.73,402.22,220.09,402.22Z"/><path class="cls-13" d="M220.09,402.22c-19.21,0-37.19.29-52.58.8h0l-50.37-.66v5.58c0,3.16,46.09,5.72,103,5.72s103-2.56,103-5.72v-5.58C307.41,400.31,262.73,402.22,220.09,402.22Z"/><path class="cls-14" d="M323.16,402.36c0,3.16-46.09,5.72-103,5.72s-102.95-2.56-102.95-5.72,46.09-5.72,103-5.72S323.16,399.2,323.16,402.36Z"/><path class="cls-15" d="M121.71,359.53V403.1s26.07,5.22,102.43,5.22c70.06,0,94.32-5.22,94.32-5.22V359.53c-13,2.34-52.11,4-98.37,4S134.69,361.87,121.71,359.53Z"/><path class="cls-16" d="M278.29,407.21c6.64-7.69,10.07-14.25,8.1-16.4-2.75-3-15,3.7-27.3,15-.53.48-1,.95-1.52,1.41Z"/><ellipse class="cls-17" cx="320.15" cy="270.07" rx="156.21" ry="134.26"/><ellipse class="cls-18" cx="273.55" cy="294.3" rx="141.52" ry="99.52"/><path class="cls-19" d="M220.63,400.35c0,4.08-13.56,7.34-30.27,7.3s-30.25-3.39-30.24-7.46,13.57-7.34,30.28-7.29S220.65,396.28,220.63,400.35Z"/><path class="cls-20" d="M176.46,388.42c-.26,4.06-14,6.49-30.67,5.41s-30-5.24-29.72-9.3,14-6.49,30.67-5.41S176.72,384.36,176.46,388.42Z"/><path class="cls-21" d="M146.74,379.12c-10.19-.66-19.28,0-24.87,1.52v8.71c5.4,2.14,14.07,3.85,23.92,4.48,16.67,1.08,30.41-1.35,30.67-5.41S163.41,380.19,146.74,379.12Z"/><path class="cls-22" d="M247.28,408.32c-4.07.09-7.69-2.94-8.08-19.65s2.59-30.32,6.66-30.42,7.69,13.37,8.08,30.08S251.35,408.22,247.28,408.32Z"/><path class="cls-23" d="M252.87,359.48H239c-1.9,7.75-2.94,18.92-2.65,31.31.21,9,1.1,15.14,2.43,19.29h16.71c1.08-4.21,1.61-10.49,1.39-19.77C256.6,378.09,255.07,367.12,252.87,359.48Z"/><path class="cls-24" d="M275.8,379.24c-.24-3.53,2.27-6.79,16.78-7.76s26.48,1.12,26.71,4.66-11.34,7.19-25.86,8.15S276,382.78,275.8,379.24Z"/><g class="cls-25"><path class="cls-26" d="M210.45,372.86,188.29,387c-40,.39-63.17-4-66.54-4.74v2.33c2.65.56,23.86,4.72,61.68,4.72l5.21,0H189l22.15-14.16H247v-2.28Z"/><rect class="cls-27" x="245.83" y="360.66" width="2.29" height="49.45"/><path class="cls-28" d="M267.1,410.33l-1.56-1.67,17.54-16.32.38,0c17.47-1.69,35.33-5.47,35.5-5.51l-.27,2.48c-.17,0-17.17,3.55-34.62,5.27Z"/><path class="cls-29" d="M234.39,410.1H232.1V401c-6.87.19-42.23,1.1-67.31,0l-22.08,8.43-.81-2.14,22.52-8.6.24,0c27.66,1.26,68.14,0,68.55,0l1.18,0Z"/><path class="cls-30" d="M285.54,378.7c-2.63,0-5.25-.09-7.78-.3l-.3,0L266,370.57H247v-2.29h19.7l11.58,7.86c17.86,1.43,40.83-3.36,41-3.41l-.59,2.39A183,183,0,0,1,285.54,378.7Z"/><rect class="cls-31" x="136.67" y="360.66" width="2.29" height="25.21"/></g><path class="cls-32" d="M323,352.27c0-.59-1.6-1.16-4.58-1.7V354C321.44,353.42,323,352.85,323,352.27Z"/><path class="cls-33" d="M323,352.27c0,3.15-46.09,5.71-103,5.71s-102.95-2.56-102.95-5.71,46.09-5.72,103-5.72S323,349.11,323,352.27Z"/><path class="cls-34" d="M323,352.27c0,3.15-46.09,5.71-103,5.71s-102.95-2.56-102.95-5.71,46.09-5.72,103-5.72S323,349.11,323,352.27Z"/><path class="cls-12" d="M220.09,358c-56.86,0-102.95-2.56-102.95-5.71v5.57c0,3.16,46.09,5.72,103,5.72s103-2.56,103-5.72v-5.57C323,355.42,277,358,220.09,358Z"/><g class="cls-35"><path class="cls-36" d="M141.17,242a13.37,13.37,0,0,0-19-1,13.7,13.7,0,0,0-1,19.21,13.37,13.37,0,0,0,19,1.05A13.7,13.7,0,0,0,141.17,242Z"/><path class="cls-37" d="M301,301.4a13.85,13.85,0,0,0-17.89-8.18A14.07,14.07,0,0,0,275,311.29a13.84,13.84,0,0,0,17.89,8.17A14.06,14.06,0,0,0,301,301.4Z"/><path class="cls-38" d="M143.15,247.74a13.12,13.12,0,0,0,18.45,2.86A13.41,13.41,0,0,0,164.42,232,13.09,13.09,0,0,0,146,229.11,13.42,13.42,0,0,0,143.15,247.74Z"/><path class="cls-39" d="M301.69,287.84a13.21,13.21,0,1,0,13.36-13.18A13.27,13.27,0,0,0,301.69,287.84Z"/><path class="cls-40" d="M198.22,190.45A11.94,11.94,0,0,0,182,185.24a12.18,12.18,0,0,0-5.15,16.34,11.94,11.94,0,0,0,16.17,5.21A12.18,12.18,0,0,0,198.22,190.45Z"/><path class="cls-41" d="M217.36,194.59a13.73,13.73,0,0,0,18.26,6.91,14,14,0,0,0,6.83-18.44,13.73,13.73,0,0,0-18.25-6.91A14,14,0,0,0,217.36,194.59Z"/><path class="cls-42" d="M224.39,287a10.61,10.61,0,1,0-8.87-12A10.52,10.52,0,0,0,224.39,287Z"/><path class="cls-43" d="M216.39,148.2a5.13,5.13,0,1,0-4.3-5.82A5.09,5.09,0,0,0,216.39,148.2Z"/><path class="cls-44" d="M205,247.69a15.59,15.59,0,0,0,2.82,21.7,15.22,15.22,0,0,0,21.48-2.85,15.58,15.58,0,0,0-2.82-21.7A15.21,15.21,0,0,0,205,247.69Z"/><path class="cls-45" d="M120.39,214.63a14.31,14.31,0,0,0,8.83,18.13,14.11,14.11,0,0,0,17.95-8.92,14.33,14.33,0,0,0-8.83-18.13A14.11,14.11,0,0,0,120.39,214.63Z"/><path class="cls-46" d="M186.32,380.46a22.36,22.36,0,0,0,9.2-30.08,21.92,21.92,0,0,0-29.78-9.3,22.38,22.38,0,0,0-9.2,30.08A21.92,21.92,0,0,0,186.32,380.46Z"/><path class="cls-47" d="M309.81,214a19.27,19.27,0,0,0-26,8.73A19.65,19.65,0,0,0,292.47,249a19.27,19.27,0,0,0,26-8.73A19.64,19.64,0,0,0,309.81,214Z"/><path class="cls-48" d="M267.66,221.61a13.92,13.92,0,1,0-15.16-12.37A13.9,13.9,0,0,0,267.66,221.61Z"/><path class="cls-49" d="M259.27,309.09a21.6,21.6,0,0,0-28.12,12.29,22,22,0,0,0,12.16,28.41,21.6,21.6,0,0,0,28.13-12.29A22,22,0,0,0,259.27,309.09Z"/><path class="cls-50" d="M246.48,252a12,12,0,0,0-17.08.58,12.32,12.32,0,0,0,.57,17.27,12,12,0,0,0,17.09-.59A12.3,12.3,0,0,0,246.48,252Z"/><path class="cls-51" d="M309.86,355.18a10.6,10.6,0,0,0-2.37-14.71,10.37,10.37,0,0,0-14.56,2.39,10.61,10.61,0,0,0,2.37,14.71A10.36,10.36,0,0,0,309.86,355.18Z"/><path class="cls-52" d="M157.2,254.75A16.34,16.34,0,1,0,175,239.87,16.47,16.47,0,0,0,157.2,254.75Z"/><path class="cls-53" d="M140.1,312.71a12.16,12.16,0,1,0-12.32-11.86A12.1,12.1,0,0,0,140.1,312.71Z"/><path class="cls-54" d="M262.57,175.55a20.56,20.56,0,1,0,24.1,15.91A20.56,20.56,0,0,0,262.57,175.55Z"/><path class="cls-55" d="M185.58,278.89a12.19,12.19,0,1,0,9.59-14.46A12.19,12.19,0,0,0,185.58,278.89Z"/><path class="cls-56" d="M237.54,400.88a10.32,10.32,0,1,0,8.84-11.72A10.33,10.33,0,0,0,237.54,400.88Z"/><path class="cls-57" d="M255.31,387.18a4.17,4.17,0,1,0,3.57-4.74A4.18,4.18,0,0,0,255.31,387.18Z"/><path class="cls-58" d="M140.72,256.43a19.51,19.51,0,0,0,27.34,5,20,20,0,0,0,5-27.62,19.52,19.52,0,0,0-27.34-5A20,20,0,0,0,140.72,256.43Z"/><path class="cls-59" d="M136.88,231a13.7,13.7,0,1,0-11.6-15.42A13.58,13.58,0,0,0,136.88,231Z"/><path class="cls-60" d="M240.87,221.44a11.39,11.39,0,0,0,15.84-3.39,11.64,11.64,0,0,0-3.36-16,11.38,11.38,0,0,0-15.84,3.39A11.64,11.64,0,0,0,240.87,221.44Z"/><path class="cls-61" d="M285.82,177.93a10.77,10.77,0,0,0,15.2,2A11,11,0,0,0,303,164.53a10.77,10.77,0,0,0-15.2-2A11,11,0,0,0,285.82,177.93Z"/><path class="cls-62" d="M271.64,294.4a14.43,14.43,0,0,0-9,18.22,14.23,14.23,0,0,0,18.05,9.06,14.43,14.43,0,0,0,9-18.23A14.2,14.2,0,0,0,271.64,294.4Z"/><path class="cls-63" d="M290.25,234.23a16.45,16.45,0,0,0,3.33-22.86A16.06,16.06,0,0,0,271,208a16.46,16.46,0,0,0-3.33,22.87A16.06,16.06,0,0,0,290.25,234.23Z"/><path class="cls-64" d="M167.55,377a20.09,20.09,0,0,0,14.1,24.55A19.84,19.84,0,0,0,206,387.34a20.1,20.1,0,0,0-14.09-24.56A19.85,19.85,0,0,0,167.55,377Z"/><path class="cls-65" d="M182,193.66a18.45,18.45,0,0,0,24.69-8.87,18.8,18.8,0,0,0-8.78-24.94,18.44,18.44,0,0,0-24.69,8.87A18.8,18.8,0,0,0,182,193.66Z"/><path class="cls-66" d="M186.07,227.23a26.18,26.18,0,1,0,20.62-31A26.18,26.18,0,0,0,186.07,227.23Z"/><path class="cls-67" d="M261.73,259.7a14.15,14.15,0,0,0-3.51,19.57,13.83,13.83,0,0,0,19.37,3.54,14.15,14.15,0,0,0,3.51-19.57A13.84,13.84,0,0,0,261.73,259.7Z"/><path class="cls-68" d="M183.44,278.7a17.78,17.78,0,0,0-22.3,11.85,18,18,0,0,0,11.73,22.53,17.79,17.79,0,0,0,22.3-11.85A18,18,0,0,0,183.44,278.7Z"/><path class="cls-69" d="M312.28,248.16a11.22,11.22,0,0,0-16-.88,11.51,11.51,0,0,0-.87,16.14,11.24,11.24,0,0,0,16,.88A11.52,11.52,0,0,0,312.28,248.16Z"/><path class="cls-70" d="M294.81,225.16a12.05,12.05,0,0,0,7.42,15.25,11.87,11.87,0,0,0,15.09-7.5,12,12,0,0,0-7.42-15.24A11.86,11.86,0,0,0,294.81,225.16Z"/><path class="cls-71" d="M311.38,307.62a10.23,10.23,0,1,0-10.36-10A10.19,10.19,0,0,0,311.38,307.62Z"/><path class="cls-72" d="M308.67,238.9a11.51,11.51,0,1,0-9.75-13A11.42,11.42,0,0,0,308.67,238.9Z"/></g><ellipse class="cls-73" cx="156.21" cy="278.76" rx="156.21" ry="71.8"/><ellipse class="cls-74" cx="216.91" cy="195.09" rx="141.52" ry="134.26"/><path class="cls-75" d="M318.46,354V100.61H121.71V354c14.54,2.86,52.12,4,98.38,4S306.87,356.06,318.46,354Z"/><polygon class="cls-76" points="178.34 357.5 140.59 355.99 140.59 100.61 178.34 100.61 178.34 357.5"/><rect class="cls-77" x="188.06" y="100.61" width="9.72" height="257.04"/><g class="cls-78"><path class="cls-79" d="M265.35,261.75a1.19,1.19,0,0,1-1.2-1.19,1.21,1.21,0,0,1,2.05-.85,1.17,1.17,0,0,1,.35.85,1.2,1.2,0,0,1-.35.85A1.23,1.23,0,0,1,265.35,261.75Z"/><path class="cls-80" d="M264.69,368.58h0a1.2,1.2,0,0,1,.16-1.69h0a1.18,1.18,0,0,1,1.68.15h0a1.2,1.2,0,0,1-.14,1.68h0a1.16,1.16,0,0,1-.78.29h0A1.2,1.2,0,0,1,264.69,368.58Zm-2.3-2.88h0a1.21,1.21,0,0,1,.24-1.68h0a1.19,1.19,0,0,1,1.68.24h0a1.19,1.19,0,0,1-.24,1.67h0a1.2,1.2,0,0,1-.72.24h0A1.2,1.2,0,0,1,262.39,365.7Zm-2.11-3.07a1.2,1.2,0,0,1,.38-1.65h0a1.2,1.2,0,0,1,1.65.37h0a1.2,1.2,0,0,1-.38,1.65h0a1.14,1.14,0,0,1-.64.19h0A1.19,1.19,0,0,1,260.28,362.63Zm-1.83-3.3a1.21,1.21,0,0,1,.59-1.6h0a1.19,1.19,0,0,1,1.58.58h0a1.18,1.18,0,0,1-.57,1.59h0a1.16,1.16,0,0,1-.51.12h0A1.22,1.22,0,0,1,258.45,359.33Zm-1.31-3.61a1.19,1.19,0,0,1,.86-1.46h0a1.2,1.2,0,0,1,1.46.86h0a1.21,1.21,0,0,1-.86,1.46h0a1,1,0,0,1-.3,0h0A1.2,1.2,0,0,1,257.14,355.72Zm-.53-3.86a1.2,1.2,0,0,1,1.19-1.21h0a1.19,1.19,0,0,1,1.21,1.18h0a1.2,1.2,0,0,1-1.19,1.21h0A1.2,1.2,0,0,1,256.61,351.86Zm1.33-2.45A1.18,1.18,0,0,1,257,348h0a1.17,1.17,0,0,1,1.41-.92h0a1.17,1.17,0,0,1,.92,1.41h0a1.2,1.2,0,0,1-1.17.95h0A.69.69,0,0,1,257.94,349.41Zm.85-3.52a1.18,1.18,0,0,1-.75-1.51h0a1.17,1.17,0,0,1,1.5-.75h0a1.18,1.18,0,0,1,.76,1.51h0a1.2,1.2,0,0,1-1.14.81h0A1,1,0,0,1,258.79,345.89Zm1.19-3.42a1.2,1.2,0,0,1-.73-1.53h0a1.18,1.18,0,0,1,1.53-.72h0a1.22,1.22,0,0,1,.73,1.53h0a1.22,1.22,0,0,1-1.14.79h0A1.07,1.07,0,0,1,260,342.47Zm1.2-3.41a1.2,1.2,0,0,1-.79-1.5h0a1.19,1.19,0,0,1,1.49-.79h0a1.19,1.19,0,0,1,.8,1.48h0a1.21,1.21,0,0,1-1.15.85h0A1.34,1.34,0,0,1,261.18,339.06Zm1-3.49a1.19,1.19,0,0,1-.91-1.42h0a1.2,1.2,0,0,1,1.43-.91h0a1.21,1.21,0,0,1,.92,1.42h0a1.2,1.2,0,0,1-1.17.95h0A.84.84,0,0,1,262.2,335.57Zm.73-3.54a1.19,1.19,0,0,1-1-1.34h0a1.19,1.19,0,0,1,1.34-1h0a1.18,1.18,0,0,1,1,1.33h0a1.18,1.18,0,0,1-1.18,1.05h-.16Zm.41-3.6a1.21,1.21,0,0,1-1.15-1.25h0a1.2,1.2,0,0,1,1.25-1.15h0a1.2,1.2,0,0,1,1.14,1.25h0a1.19,1.19,0,0,1-1.19,1.15h-.05Zm-1.16-4.77a1.2,1.2,0,0,1,1.15-1.24h0a1.17,1.17,0,0,1,1.24,1.13h0a1.19,1.19,0,0,1-1.13,1.25h-.06A1.21,1.21,0,0,1,262.18,323.66Zm-.26-3.53h0A1.21,1.21,0,0,1,263,318.8h0a1.21,1.21,0,0,1,1.32,1.05h0a1.2,1.2,0,0,1-1.06,1.33h-.13A1.18,1.18,0,0,1,261.92,320.13Zm-.52-3.52a1.21,1.21,0,0,1,1-1.39h0a1.19,1.19,0,0,1,1.38,1h0a1.2,1.2,0,0,1-1,1.39h-.2A1.2,1.2,0,0,1,261.4,316.61Zm-.69-3.5a1.17,1.17,0,0,1,.89-1.42h0a1.19,1.19,0,0,1,1.44.9h0a1.2,1.2,0,0,1-.91,1.43h0a1.15,1.15,0,0,1-.26,0h0A1.18,1.18,0,0,1,260.71,313.11Zm-.88-3.48a1.2,1.2,0,0,1,.86-1.45h0a1.21,1.21,0,0,1,1.47.85h0a1.2,1.2,0,0,1-.87,1.46h0a1,1,0,0,1-.3,0h0A1.2,1.2,0,0,1,259.83,309.63Zm-.86-3.56a1.19,1.19,0,0,1,.91-1.42h0a1.18,1.18,0,0,1,1.43.9h0a1.2,1.2,0,0,1-.9,1.43h0l-.27,0h0A1.19,1.19,0,0,1,259,306.07Zm-.74-3.58h0a1.19,1.19,0,0,1,.94-1.4h0a1.18,1.18,0,0,1,1.4,1h0a1.19,1.19,0,0,1-.94,1.4h0l-.23,0h0A1.2,1.2,0,0,1,258.23,302.49Zm-.64-3.61a1.21,1.21,0,0,1,1-1.37h0a1.19,1.19,0,0,1,1.36,1h0a1.19,1.19,0,0,1-1,1.36h-.18A1.2,1.2,0,0,1,257.59,298.88Zm-.49-3.64a1.2,1.2,0,0,1,1-1.33h0a1.2,1.2,0,0,1,1.33,1h0a1.19,1.19,0,0,1-1,1.33h-.14A1.19,1.19,0,0,1,257.1,295.24Zm-.35-3.67a1.21,1.21,0,0,1,1.11-1.28h0a1.21,1.21,0,0,1,1.28,1.12h0a1.2,1.2,0,0,1-1.1,1.28H258A1.2,1.2,0,0,1,256.75,291.57Zm-.17-3.67h0a1.19,1.19,0,0,1,1.16-1.23h0a1.21,1.21,0,0,1,1.23,1.17h0a1.2,1.2,0,0,1-1.17,1.22h0A1.17,1.17,0,0,1,256.58,287.9Zm1.16-2.46a1.19,1.19,0,0,1-1.16-1.23h0a1.19,1.19,0,0,1,1.23-1.16h0a1.18,1.18,0,0,1,1.16,1.22h0a1.2,1.2,0,0,1-1.2,1.16h0Zm.14-3.62a1.2,1.2,0,0,1-1.09-1.29h0a1.19,1.19,0,0,1,1.31-1.09h0a1.18,1.18,0,0,1,1.07,1.29h0a1.18,1.18,0,0,1-1.18,1.09h-.11Zm.36-3.61a1.18,1.18,0,0,1-1-1.37h0a1.19,1.19,0,0,1,1.36-1h0a1.2,1.2,0,0,1,1,1.38h0a1.18,1.18,0,0,1-1.17,1h0Zm.61-3.58a1.19,1.19,0,0,1-.89-1.43h0a1.19,1.19,0,0,1,1.44-.89h0a1.19,1.19,0,0,1,.89,1.44h0a1.2,1.2,0,0,1-1.16.92h0A.82.82,0,0,1,258.85,274.63Zm.89-3.5a1.21,1.21,0,0,1-.76-1.52h0a1.19,1.19,0,0,1,1.52-.76h0a1.21,1.21,0,0,1,.76,1.52h0a1.22,1.22,0,0,1-1.14.82h0A1.67,1.67,0,0,1,259.74,271.13ZM261,267.7a1.17,1.17,0,0,1-.6-1.58h0a1.19,1.19,0,0,1,1.58-.6h0a1.22,1.22,0,0,1,.59,1.6h0a1.19,1.19,0,0,1-1.09.69h0A1.17,1.17,0,0,1,261,267.7Zm1.56-3.27a1.2,1.2,0,0,1-.38-1.65h0a1.19,1.19,0,0,1,1.65-.37h0a1.2,1.2,0,0,1,.39,1.65h0a1.21,1.21,0,0,1-1,.55h0A1.27,1.27,0,0,1,262.51,264.43Z"/><path class="cls-81" d="M268.05,371.78a1.14,1.14,0,0,1-.85-.35,1.2,1.2,0,0,1-.36-.85,1.17,1.17,0,0,1,.36-.84,1.23,1.23,0,0,1,1.68,0,1.16,1.16,0,0,1,.35.84,1.19,1.19,0,0,1-.35.85A1.13,1.13,0,0,1,268.05,371.78Z"/><path class="cls-82" d="M249.58,287.19a1.16,1.16,0,0,1-.83-.34,1.18,1.18,0,0,1-.36-.85,1.14,1.14,0,0,1,.36-.84,1.21,1.21,0,0,1,1.68,0,1.13,1.13,0,0,1,.35.84,1.18,1.18,0,0,1-1.2,1.19Z"/><path class="cls-83" d="M240.8,362.49h0a1.19,1.19,0,0,1,1.07-1.31h0a1.2,1.2,0,0,1,1.31,1.08h0a1.21,1.21,0,0,1-1.09,1.31H242A1.18,1.18,0,0,1,240.8,362.49Zm-.18-3.72a1.2,1.2,0,0,1,1.19-1.19h0a1.2,1.2,0,0,1,1.2,1.21h0a1.19,1.19,0,0,1-1.2,1.19h0A1.2,1.2,0,0,1,240.62,358.77Zm1.25-2.4a1.19,1.19,0,0,1-1.07-1.29h0a1.2,1.2,0,0,1,1.3-1.09h0a1.2,1.2,0,0,1,1.08,1.3h0a1.21,1.21,0,0,1-1.19,1.09h-.12Zm.39-3.58a1.2,1.2,0,0,1-1-1.38h0a1.18,1.18,0,0,1,1.38-1h0a1.21,1.21,0,0,1,1,1.38h0a1.22,1.22,0,0,1-1.19,1h-.2Zm.64-3.55a1.18,1.18,0,0,1-.89-1.43h0a1.18,1.18,0,0,1,1.42-.9h0a1.19,1.19,0,0,1,.91,1.43h0a1.2,1.2,0,0,1-1.17.92h0Zm.83-3.5a1.2,1.2,0,0,1-.87-1.46h0a1.19,1.19,0,0,1,1.46-.86h0a1.18,1.18,0,0,1,.86,1.44h0a1.2,1.2,0,0,1-1.16.91h0A1.36,1.36,0,0,1,243.73,345.74Zm.89-3.5a1.2,1.2,0,0,1-.89-1.45h0a1.19,1.19,0,0,1,1.45-.88h0a1.2,1.2,0,0,1,.88,1.45h0a1.19,1.19,0,0,1-1.16.92h0A.9.9,0,0,1,244.62,342.24Zm.83-3.51a1.2,1.2,0,0,1-.93-1.41h0a1.19,1.19,0,0,1,1.41-.93h0a1.2,1.2,0,0,1,.94,1.41h0a1.23,1.23,0,0,1-1.18,1h0Zm.7-3.54a1.19,1.19,0,0,1-1-1.35h0a1.19,1.19,0,0,1,1.36-1h0a1.2,1.2,0,0,1,1,1.36h0a1.2,1.2,0,0,1-1.18,1h-.18Zm.48-3.57a1.21,1.21,0,0,1-1.12-1.28h0a1.21,1.21,0,0,1,1.28-1.11h0a1.21,1.21,0,0,1,1.12,1.28h0a1.21,1.21,0,0,1-1.2,1.11h-.08Zm-1-4.79a1.2,1.2,0,0,1,1.19-1.21h0a1.21,1.21,0,0,1,1.21,1.19h0a1.21,1.21,0,0,1-1.2,1.21h0A1.19,1.19,0,0,1,245.63,326.83Zm-.16-3.5a1.2,1.2,0,0,1,1.1-1.3h0a1.18,1.18,0,0,1,1.28,1.09h0a1.22,1.22,0,0,1-1.1,1.3h-.1A1.19,1.19,0,0,1,245.47,323.33Zm-.42-3.5a1.2,1.2,0,0,1,1-1.38h0a1.22,1.22,0,0,1,1.37,1h0a1.21,1.21,0,0,1-1,1.36h0a.55.55,0,0,1-.18,0h0A1.19,1.19,0,0,1,245.05,319.83Zm-.66-3.47a1.19,1.19,0,0,1,.91-1.43h0a1.2,1.2,0,0,1,1.42.91h0a1.19,1.19,0,0,1-.9,1.43h0a1.15,1.15,0,0,1-.26,0h0A1.2,1.2,0,0,1,244.39,316.36Zm-.84-3.49a1.2,1.2,0,0,1,.89-1.45h0a1.2,1.2,0,0,1,1.43.9h0a1.19,1.19,0,0,1-.88,1.44h0a1.45,1.45,0,0,1-.28,0h0A1.19,1.19,0,0,1,243.55,312.87Zm-.75-3.59a1.21,1.21,0,0,1,1-1.4h0a1.21,1.21,0,0,1,1.38,1h0a1.19,1.19,0,0,1-1,1.39h0l-.2,0h0A1.19,1.19,0,0,1,242.8,309.28Zm-.54-3.65h0a1.18,1.18,0,0,1,1-1.32h0a1.19,1.19,0,0,1,1.32,1.06h0a1.2,1.2,0,0,1-1,1.31h0a.34.34,0,0,1-.14,0h0A1.2,1.2,0,0,1,242.26,305.63Zm-.27-3.7h0a1.21,1.21,0,0,1,1.17-1.23h0a1.22,1.22,0,0,1,1.23,1.17h0a1.19,1.19,0,0,1-1.16,1.22h0A1.19,1.19,0,0,1,242,301.93Zm1.19-2.44a1.2,1.2,0,0,1-1.1-1.29h0a1.18,1.18,0,0,1,1.28-1.1h0a1.18,1.18,0,0,1,1.1,1.28h0a1.2,1.2,0,0,1-1.19,1.1h-.09Zm.36-3.59a1.19,1.19,0,0,1-.91-1.43h0a1.21,1.21,0,0,1,1.43-.91h0A1.2,1.2,0,0,1,245,295h0a1.19,1.19,0,0,1-1.16.93h0A1.09,1.09,0,0,1,243.54,295.9Zm.9-3.5a1.19,1.19,0,0,1-.62-1.58h0a1.21,1.21,0,0,1,1.59-.6h0a1.2,1.2,0,0,1,.61,1.58h0a1.21,1.21,0,0,1-1.11.71h0A1.15,1.15,0,0,1,244.44,292.4Zm1.6-3.23a1.2,1.2,0,0,1-.16-1.69h0a1.2,1.2,0,0,1,1.69-.14h0a1.2,1.2,0,0,1,.16,1.68h0a1.22,1.22,0,0,1-.92.42h0A1.15,1.15,0,0,1,246,289.17Z"/><path class="cls-84" d="M242.48,367.19a1.25,1.25,0,0,1-.85-.35,1.2,1.2,0,0,1-.34-.85,1.19,1.19,0,0,1,2-.85,1.21,1.21,0,0,1,.36.85,1.21,1.21,0,0,1-1.2,1.2Z"/><path class="cls-85" d="M228.51,300.32a1.16,1.16,0,0,1-.84-.35,1.2,1.2,0,0,1,0-1.69,1.24,1.24,0,0,1,1.69,0,1.16,1.16,0,0,1,.35.84,1.19,1.19,0,0,1-.35.85A1.15,1.15,0,0,1,228.51,300.32Z"/><path class="cls-86" d="M228.37,367a1.19,1.19,0,0,1,1-1.34h0a1.18,1.18,0,0,1,1.34,1h0a1.19,1.19,0,0,1-1,1.35h-.16A1.2,1.2,0,0,1,228.37,367Zm1-2.62a1.2,1.2,0,0,1-1.18-1.22h0a1.19,1.19,0,0,1,1.22-1.17h0a1.2,1.2,0,0,1,1.18,1.22h0a1.22,1.22,0,0,1-1.2,1.17h0Zm.13-3.66a1.21,1.21,0,0,1-1.1-1.3h0a1.19,1.19,0,0,1,1.28-1.1h0a1.21,1.21,0,0,1,1.1,1.29h0a1.2,1.2,0,0,1-1.2,1.11h-.09Zm.32-3.66a1.2,1.2,0,0,1-1.05-1.32h0a1.18,1.18,0,0,1,1.31-1.06h0a1.2,1.2,0,0,1,1.07,1.32h0a1.21,1.21,0,0,1-1.2,1.06h-.13Zm.42-3.65a1.2,1.2,0,0,1-1-1.34h0a1.19,1.19,0,0,1,1.34-1h0a1.17,1.17,0,0,1,1,1.33h0a1.21,1.21,0,0,1-1.18,1.06h0A.44.44,0,0,1,230.26,353.42Zm.47-3.64a1.19,1.19,0,0,1-1-1.34h0a1.2,1.2,0,0,1,1.35-1h0a1.2,1.2,0,0,1,1,1.35h0a1.2,1.2,0,0,1-1.19,1h0A.44.44,0,0,1,230.73,349.78Zm.49-3.64a1.17,1.17,0,0,1-1-1.34h0a1.21,1.21,0,0,1,1.35-1h0a1.22,1.22,0,0,1,1,1.36h0a1.2,1.2,0,0,1-1.2,1h0A.41.41,0,0,1,231.22,346.14Zm.5-3.62a1.22,1.22,0,0,1-1-1.36h0a1.19,1.19,0,0,1,1.35-1h0a1.18,1.18,0,0,1,1,1.34h0a1.19,1.19,0,0,1-1.18,1h-.16Zm.49-3.64a1.21,1.21,0,0,1-1-1.34h0a1.21,1.21,0,0,1,1.36-1h0a1.18,1.18,0,0,1,1,1.34h0a1.17,1.17,0,0,1-1.18,1h-.16Zm.49-3.64a1.19,1.19,0,0,1-1-1.34h0a1.19,1.19,0,0,1,1.34-1h0a1.19,1.19,0,0,1,1,1.34h0a1.18,1.18,0,0,1-1.18,1h-.16Zm.48-3.63a1.2,1.2,0,0,1-1-1.34h0a1.19,1.19,0,0,1,1.34-1h0a1.19,1.19,0,0,1,1,1.34h0a1.21,1.21,0,0,1-1.19,1.05h-.15Zm.47-3.64a1.19,1.19,0,0,1-1.05-1.33h0a1.19,1.19,0,0,1,1.32-1.05h0a1.2,1.2,0,0,1,1.06,1.33h0a1.19,1.19,0,0,1-1.2,1.05h-.13Zm.39-3.65a1.2,1.2,0,0,1-1.1-1.28h0a1.2,1.2,0,0,1,1.3-1.1h0a1.2,1.2,0,0,1,1.1,1.28h0a1.21,1.21,0,0,1-1.2,1.1H234Zm.27-3.66a1.2,1.2,0,0,1-1.16-1.24h0a1.2,1.2,0,0,1,1.23-1.16h0a1.21,1.21,0,0,1,1.16,1.25h0a1.19,1.19,0,0,1-1.2,1.15h0Zm-1.14-4.84a1.2,1.2,0,0,1,1.17-1.22h0a1.19,1.19,0,0,1,1.22,1.17h0a1.19,1.19,0,0,1-1.17,1.22h0A1.19,1.19,0,0,1,233.17,315.82Zm-.2-3.57A1.18,1.18,0,0,1,234,311h0a1.19,1.19,0,0,1,1.31,1.07h0a1.2,1.2,0,0,1-1.08,1.31h-.12A1.18,1.18,0,0,1,233,312.25Zm-.51-3.52a1.19,1.19,0,0,1,.95-1.4h0a1.19,1.19,0,0,1,1.4.95h0a1.2,1.2,0,0,1-.95,1.4h0a.82.82,0,0,1-.22,0h0A1.19,1.19,0,0,1,232.46,308.73Zm-.91-3.36a1.22,1.22,0,0,1,.73-1.54h0a1.22,1.22,0,0,1,1.54.74h0a1.22,1.22,0,0,1-.73,1.53h0a1.46,1.46,0,0,1-.4.07h0A1.21,1.21,0,0,1,231.55,305.37Zm-1.46-3.06a1.19,1.19,0,0,1,.36-1.65h0a1.19,1.19,0,0,1,1.65.35h0a1.2,1.2,0,0,1-.34,1.66h0a1.24,1.24,0,0,1-.66.2h0A1.23,1.23,0,0,1,230.09,302.31Z"/><path class="cls-87" d="M230.9,371.42a1.2,1.2,0,0,1-1.2-1.2,1.18,1.18,0,0,1,.35-.84,1.19,1.19,0,0,1,2,.84,1.2,1.2,0,0,1-.36.85A1.13,1.13,0,0,1,230.9,371.42Z"/></g><g class="cls-88"><path class="cls-10" d="M195.85,236.36a1.92,1.92,0,0,0,1.92-1.92,1.88,1.88,0,0,0-.75-1.51c7.63-16.64,17.54-18.82,20-19.1a1.92,1.92,0,1,0,0-1c-2.61.24-12.93,2.28-20.92,19.73l-.23,0a1.92,1.92,0,1,0,0,3.84Zm23-24a.91.91,0,1,1,0,1.81.91.91,0,0,1,0-1.81Zm-23,21.16a.91.91,0,1,1-.91.91A.91.91,0,0,1,195.85,233.53Z"/><path class="cls-10" d="M234.13,215.74a1.92,1.92,0,0,0-1.72,1.08c-4.67-.35-27.76-.59-33.46,26.91a1.92,1.92,0,1,0,2.34,1.88A1.9,1.9,0,0,0,200,243.8c2.13-10.18,6.62-16.43,11.63-20.25l1.88,2.41a7,7,0,0,1-.51,9.27c-4.2,4.21-9.35,12.09-10.2,25.69a1.92,1.92,0,1,0,1,0c.84-13.26,5.83-20.91,9.9-25a8,8,0,0,0,.58-10.6L212.43,223c8-5.6,17-5.39,19.8-5.15a1.91,1.91,0,1,0,1.9-2.06Zm-33.85,29.87a.91.91,0,1,1-.91-.91A.91.91,0,0,1,200.28,245.61Zm3.88,17.17a.91.91,0,1,1-.91-.91A.9.9,0,0,1,204.16,262.78Zm30-44.21a.91.91,0,1,1,.91-.91A.91.91,0,0,1,234.13,218.57Z"/><path class="cls-10" d="M267.57,246.14h0a51.65,51.65,0,0,0-10.5-43.2,1.92,1.92,0,1,0-1.36.56,1.76,1.76,0,0,0,.46-.06,50.55,50.55,0,0,1,10.41,42.49l.07,0a1.91,1.91,0,1,0,.88.18Zm-12.73-44.55a.91.91,0,1,1,.91.91A.91.91,0,0,1,254.84,201.59Zm11.91,47.19a.91.91,0,1,1,.91-.91A.91.91,0,0,1,266.75,248.78Z"/><path class="cls-10" d="M187.46,260.73c-.11,2.51-.46,16.51,4.52,24.5a1.92,1.92,0,1,0,1.42-.63,2.05,2.05,0,0,0-.56.09c-4.75-7.63-4.46-21.47-4.37-23.9a1.94,1.94,0,1,0-1-.06Zm6.85,25.79a.91.91,0,1,1-.91-.91A.91.91,0,0,1,194.31,286.52ZM188.06,258a.91.91,0,1,1-.91.91A.91.91,0,0,1,188.06,258Z"/><path class="cls-10" d="M213.91,294a1.9,1.9,0,0,0-1.49.72c-16.85-6.26-16.9-26.8-16.72-31.06a1.93,1.93,0,1,0-1,0c-.13,3.24-.09,14.86,6.27,23.62l-6.38,3.14a6.2,6.2,0,0,1-8.37-3,29.38,29.38,0,0,1-2.2-8.22,1.91,1.91,0,1,0-2.49-1.82,1.93,1.93,0,0,0,1.47,1.86,30.5,30.5,0,0,0,2.3,8.61,7.12,7.12,0,0,0,4.13,3.76,7,7,0,0,0,2.42.42,7.31,7.31,0,0,0,3.19-.74l6.55-3.23A23.53,23.53,0,0,0,212,295.62a2.48,2.48,0,0,0,0,.27,1.92,1.92,0,1,0,1.92-1.92Zm-19.62-32.19a.91.91,0,1,1,.91.91A.91.91,0,0,1,194.29,261.78Zm-11.76,15.6a.91.91,0,1,1,.91.91A.91.91,0,0,1,182.53,277.38Zm31.38,19.42a.91.91,0,1,1,.91-.91A.91.91,0,0,1,213.91,296.8Z"/><path class="cls-10" d="M175.91,290.8a1.92,1.92,0,0,0-.37,3.8c0,1.38.17,4.86.57,7.72a3.8,3.8,0,0,1-1.77,3.79l-2.89,1.78a33.16,33.16,0,0,1-.75-8.76,1.92,1.92,0,1,0-1,0,34.2,34.2,0,0,0,.92,9.66A31,31,0,0,0,175,319.07l.82-.59a30.41,30.41,0,0,1-4.13-9.54l3.19-2a4.83,4.83,0,0,0,2.24-4.8c-.4-2.85-.52-6.34-.56-7.66a1.91,1.91,0,0,0-.64-3.72Zm-6.68,6.5a.91.91,0,1,1,.91.91A.91.91,0,0,1,169.23,297.3Zm6.68-3.67a.91.91,0,1,1,.91-.91A.91.91,0,0,1,175.91,293.63Z"/><path class="cls-10" d="M168.19,304.53c-1.61-7.71-2.6-20.1-2.84-23.32a1.9,1.9,0,1,0-1,0c.23,3.15,1.22,15.52,2.83,23.33a1.92,1.92,0,0,0,.6,3.74,1.92,1.92,0,0,0,.42-3.79Zm-4.31-25.14a.91.91,0,1,1,.91.9A.91.91,0,0,1,163.88,279.39Zm3.89,27.91a.91.91,0,1,1,.9-.9A.9.9,0,0,1,167.77,307.3Z"/><path class="cls-10" d="M218.85,290.35a1.88,1.88,0,0,0-1.53.79,17.54,17.54,0,0,1-11.62-11.33,1.92,1.92,0,1,0-1,.3h.06a18.59,18.59,0,0,0,12.22,12c0,.07,0,.13,0,.19a1.92,1.92,0,1,0,1.92-1.92Zm-15.09-12.16a.91.91,0,1,1,.91.91A.91.91,0,0,1,203.76,278.19Zm15.09,15a.91.91,0,1,1,.91-.91A.9.9,0,0,1,218.85,293.18Z"/></g><circle class="cls-89" cx="245.04" cy="384.47" r="187.05" transform="translate(-200.09 285.88) rotate(-45)"/><circle class="cls-90" cx="222.95" cy="351.74" r="161.16" transform="translate(-183.42 260.67) rotate(-45)"/><text class="cls-91" transform="translate(330.02 10.04)"> </text></g></g></g></svg>