<svg xmlns="http://www.w3.org/2000/svg" xmlns:xlink="http://www.w3.org/1999/xlink" width="2131" height="1910" viewBox="0 0 2131 1910">
  <defs>
    <linearGradient id="linear-gradient" x1="-14.177" y1="9.888" x2="-13.559" y2="8.911" gradientUnits="objectBoundingBox">
      <stop offset="0" stop-color="#4477b2"/>
      <stop offset="0.01" stop-color="#4172ab"/>
      <stop offset="0.09" stop-color="#345a8b"/>
      <stop offset="0.16" stop-color="#294973"/>
      <stop offset="0.24" stop-color="#223c62"/>
      <stop offset="0.32" stop-color="#1e3457"/>
      <stop offset="0.41" stop-color="#1d3355"/>
      <stop offset="0.75" stop-color="#101c2d"/>
    </linearGradient>
    <linearGradient id="linear-gradient-2" x1="-11.546" y1="10.165" x2="-11.962" y2="9.193" gradientUnits="objectBoundingBox">
      <stop offset="0" stop-color="#affaff"/>
      <stop offset="0.03" stop-color="#96e7fd"/>
      <stop offset="0.05" stop-color="#83d7fd"/>
      <stop offset="0.08" stop-color="#77cafc"/>
      <stop offset="0.12" stop-color="#6fc0fc"/>
      <stop offset="0.15" stop-color="#6ab9fc"/>
      <stop offset="0.2" stop-color="#67b5fb"/>
      <stop offset="0.3" stop-color="#66b4fb"/>
      <stop offset="1" stop-color="#579afb"/>
    </linearGradient>
    <radialGradient id="radial-gradient" cx="0.5" cy="0.553" r="6.817" gradientTransform="translate(0.455 0.45) scale(0.09 0.1)" gradientUnits="objectBoundingBox">
      <stop offset="0.38" stop-color="#222221"/>
      <stop offset="1" stop-color="#fff"/>
    </radialGradient>
    <radialGradient id="radial-gradient-2" cx="0.5" cy="0.5" r="1.469" gradientTransform="translate(0.376) scale(0.248 1)" gradientUnits="objectBoundingBox">
      <stop offset="0" stop-color="#416087"/>
      <stop offset="0.28" stop-color="#355071"/>
      <stop offset="0.86" stop-color="#172537"/>
      <stop offset="1" stop-color="#0f1b29"/>
    </radialGradient>
    <radialGradient id="radial-gradient-3" cx="0.357" cy="0.493" r="29.189" gradientTransform="translate(0.337 -0.556) scale(0.056 2.05)" xlink:href="#radial-gradient-2"/>
    <linearGradient id="linear-gradient-3" y1="0.5" x2="1" y2="0.5" gradientUnits="objectBoundingBox">
      <stop offset="0.01" stop-color="#72c9fc"/>
      <stop offset="0.01" stop-color="#72c8fb"/>
      <stop offset="0.16" stop-color="#4a82a3"/>
      <stop offset="0.29" stop-color="#2a4a5d"/>
      <stop offset="0.4" stop-color="#13222b"/>
      <stop offset="0.48" stop-color="#05090c"/>
      <stop offset="0.53"/>
      <stop offset="1" stop-color="#72c9fc"/>
    </linearGradient>
    <radialGradient id="radial-gradient-4" cx="0.243" cy="1.454" r="2.595" gradientTransform="matrix(-0.435, 0.665, -0.036, -0.068, 13.087, 4.803)" gradientUnits="objectBoundingBox">
      <stop offset="0" stop-color="#fff"/>
      <stop offset="0.05" stop-color="#e3e3e3"/>
      <stop offset="0.15" stop-color="#aeaeae"/>
      <stop offset="0.26" stop-color="gray"/>
      <stop offset="0.37" stop-color="#585858"/>
      <stop offset="0.48" stop-color="#383838"/>
      <stop offset="0.6" stop-color="#1f1f1f"/>
      <stop offset="0.72" stop-color="#0e0e0e"/>
      <stop offset="0.85" stop-color="#030303"/>
      <stop offset="1"/>
    </radialGradient>
    <radialGradient id="radial-gradient-5" cx="0.436" cy="0.439" r="0.537" gradientTransform="translate(1.962 -1.146) rotate(90) scale(1 0.01)" gradientUnits="objectBoundingBox">
      <stop offset="0" stop-color="#72c9fc"/>
      <stop offset="0.03" stop-color="#6bbded" stop-opacity="0.941"/>
      <stop offset="0.19" stop-color="#4f8caf" stop-opacity="0.698"/>
      <stop offset="0.34" stop-color="#37617a" stop-opacity="0.478"/>
      <stop offset="0.49" stop-color="#233e4e" stop-opacity="0.31"/>
      <stop offset="0.63" stop-color="#14232c" stop-opacity="0.169"/>
      <stop offset="0.76" stop-color="#091014" stop-opacity="0.078"/>
      <stop offset="0.88" stop-color="#020405" stop-opacity="0.02"/>
      <stop offset="0.98" stop-opacity="0"/>
    </radialGradient>
    <radialGradient id="radial-gradient-6" cx="0.431" cy="0.449" r="0.539" gradientTransform="matrix(0.011, 1, -0.022, 0, 2.18, -1.183)" xlink:href="#radial-gradient-5"/>
    <radialGradient id="radial-gradient-7" cx="0.502" cy="0.561" r="3.506" gradientTransform="translate(0.382 -2.716) scale(0.244 0.1)" xlink:href="#radial-gradient-4"/>
    <radialGradient id="radial-gradient-8" cx="0.484" cy="0.549" r="3.404" gradientTransform="matrix(0.251, 0.099, -0.003, 0.1, 0.378, -3.122)" xlink:href="#radial-gradient-4"/>
    <radialGradient id="radial-gradient-9" cx="0.43" cy="0.549" r="3.404" gradientTransform="matrix(0.277, 0.099, -0.003, 0.1, 0.326, -3.117)" xlink:href="#radial-gradient-4"/>
    <radialGradient id="radial-gradient-10" cx="0.165" cy="0.464" r="0.948" gradientTransform="matrix(0.068, 1, -0.338, 0.002, 12.23, 0.487)" xlink:href="#radial-gradient-4"/>
    <radialGradient id="radial-gradient-11" cx="0.257" cy="0.435" r="1.307" gradientTransform="matrix(0.049, 1, -0.245, 0.002, 9.033, 2.897)" xlink:href="#radial-gradient-4"/>
    <radialGradient id="radial-gradient-12" cx="0.466" cy="0.594" r="2.313" gradientTransform="matrix(-0.304, 0.07, -0.002, -0.1, 7.28, -23.526)" xlink:href="#radial-gradient-4"/>
    <clipPath id="clip-path">
      <path id="Path_166" data-name="Path 166" d="M1110.869,584.74s-142.328,26.244-494.554,26.244c-383.9,0-494.6-26.244-494.6-26.244V358h989.159Z" transform="translate(-121.71 -358)" fill="none"/>
    </clipPath>
    <radialGradient id="radial-gradient-13" cx="-0.166" cy="0.278" r="12.461" gradientTransform="translate(0.434) scale(0.131 1)" xlink:href="#radial-gradient-2"/>
    <radialGradient id="radial-gradient-14" cx="-63.188" cy="0.339" r="4.14" gradientTransform="translate(-10.297) scale(21.594 1)" xlink:href="#radial-gradient-2"/>
    <radialGradient id="radial-gradient-15" cx="-3.093" cy="-0.414" r="8.756" gradientTransform="translate(0.28) scale(0.44 1)" xlink:href="#radial-gradient-2"/>
    <radialGradient id="radial-gradient-16" cx="-0.441" cy="-1.863" r="17.943" gradientTransform="translate(0.438) scale(0.123 1)" xlink:href="#radial-gradient-2"/>
    <radialGradient id="radial-gradient-17" cx="-2.035" cy="0.878" r="19.809" gradientTransform="translate(0.428) scale(0.144 1)" xlink:href="#radial-gradient-2"/>
    <radialGradient id="radial-gradient-18" cx="-15.524" cy="0.665" r="8.121" gradientTransform="translate(-5.004) scale(11.009 1)" xlink:href="#radial-gradient-2"/>
    <radialGradient id="radial-gradient-19" cx="-21.804" cy="0.16" r="89.341" gradientTransform="translate(-5.475) scale(0.749 1)" xlink:href="#radial-gradient-5"/>
    <radialGradient id="radial-gradient-20" cx="0.357" cy="0.539" r="29.232" gradientTransform="translate(0.472) scale(0.055 1)" xlink:href="#radial-gradient-2"/>
    <radialGradient id="radial-gradient-21" cx="0.493" cy="0.4" r="26.81" gradientTransform="translate(0.466) scale(0.055 1)" xlink:href="#radial-gradient-5"/>
    <radialGradient id="radial-gradient-22" cx="0.499" cy="0.498" r="0.497" gradientTransform="translate(-0.005) scale(1.01 1)" gradientUnits="objectBoundingBox">
      <stop offset="0.93" stop-color="#72c9fc"/>
      <stop offset="0.93" stop-color="#6bbded" stop-opacity="0.941"/>
      <stop offset="0.94" stop-color="#4f8caf" stop-opacity="0.698"/>
      <stop offset="0.95" stop-color="#37617a" stop-opacity="0.478"/>
      <stop offset="0.95" stop-color="#233e4e" stop-opacity="0.31"/>
      <stop offset="0.96" stop-color="#14232c" stop-opacity="0.169"/>
      <stop offset="0.97" stop-color="#091014" stop-opacity="0.078"/>
      <stop offset="0.98" stop-color="#020405" stop-opacity="0.02"/>
      <stop offset="0.98" stop-opacity="0"/>
    </radialGradient>
    <radialGradient id="radial-gradient-23" cx="0.501" cy="0.5" r="0.498" gradientTransform="translate(-0.004) scale(1.008 1)" xlink:href="#radial-gradient-22"/>
    <radialGradient id="radial-gradient-24" cx="0.5" cy="0.5" r="0.498" xlink:href="#radial-gradient-22"/>
    <radialGradient id="radial-gradient-25" cx="0.5" cy="0.505" r="0.502" gradientTransform="translate(0)" xlink:href="#radial-gradient-22"/>
    <radialGradient id="radial-gradient-26" cx="0.501" cy="0.5" r="0.497" gradientTransform="translate(-0.004) scale(1.009 1)" xlink:href="#radial-gradient-22"/>
    <radialGradient id="radial-gradient-27" cx="0.5" cy="0.5" r="0.498" xlink:href="#radial-gradient-22"/>
    <radialGradient id="radial-gradient-28" cx="0.495" cy="0.497" r="0.497" gradientTransform="translate(0)" xlink:href="#radial-gradient-22"/>
    <radialGradient id="radial-gradient-29" cx="0.496" cy="0.499" r="0.498" gradientTransform="translate(0)" xlink:href="#radial-gradient-22"/>
    <radialGradient id="radial-gradient-30" cx="0.499" cy="0.5" r="0.498" xlink:href="#radial-gradient-22"/>
    <radialGradient id="radial-gradient-31" cx="0.5" cy="0.5" r="0.498" gradientTransform="translate(-0.004) scale(1.009 1)" xlink:href="#radial-gradient-22"/>
    <radialGradient id="radial-gradient-32" cx="0.5" cy="0.5" r="0.498" gradientTransform="translate(-0.005) scale(1.009 1)" xlink:href="#radial-gradient-22"/>
    <radialGradient id="radial-gradient-33" cx="0.5" cy="0.499" r="0.497" gradientTransform="translate(-0.004) scale(1.009 1)" xlink:href="#radial-gradient-22"/>
    <radialGradient id="radial-gradient-34" cx="0.495" cy="0.501" r="0.497" gradientTransform="translate(0)" xlink:href="#radial-gradient-22"/>
    <radialGradient id="radial-gradient-35" cx="0.5" cy="0.5" r="0.498" gradientTransform="translate(-0.005) scale(1.009 1)" xlink:href="#radial-gradient-22"/>
    <radialGradient id="radial-gradient-36" cx="0.5" cy="0.498" r="0.497" gradientTransform="translate(-0.005) scale(1.011 1)" xlink:href="#radial-gradient-22"/>
    <radialGradient id="radial-gradient-37" cx="0.5" cy="0.5" r="0.498" xlink:href="#radial-gradient-22"/>
    <radialGradient id="radial-gradient-38" cx="0.5" cy="0.505" r="0.503" gradientTransform="translate(0)" xlink:href="#radial-gradient-22"/>
    <radialGradient id="radial-gradient-39" cx="0.495" cy="0.5" r="0.498" gradientTransform="translate(0)" xlink:href="#radial-gradient-22"/>
    <radialGradient id="radial-gradient-40" cx="0.505" cy="0.499" r="0.498" gradientTransform="translate(0)" xlink:href="#radial-gradient-22"/>
    <radialGradient id="radial-gradient-41" cx="0.501" cy="0.504" r="0.502" gradientTransform="translate(0)" xlink:href="#radial-gradient-22"/>
    <radialGradient id="radial-gradient-42" cx="0.5" cy="0.505" r="0.502" gradientTransform="translate(0)" xlink:href="#radial-gradient-22"/>
    <radialGradient id="radial-gradient-43" cx="0.5" cy="0.506" r="0.502" gradientTransform="translate(0)" xlink:href="#radial-gradient-22"/>
    <radialGradient id="radial-gradient-44" cx="0.499" cy="0.5" r="0.498" xlink:href="#radial-gradient-22"/>
    <radialGradient id="radial-gradient-45" cx="0.495" cy="0.498" r="0.497" gradientTransform="translate(0)" xlink:href="#radial-gradient-22"/>
    <radialGradient id="radial-gradient-46" cx="0.5" cy="0.5" r="0.498" xlink:href="#radial-gradient-22"/>
    <radialGradient id="radial-gradient-47" cx="0.499" cy="0.5" r="0.496" gradientTransform="translate(-0.005) scale(1.009 1)" xlink:href="#radial-gradient-22"/>
    <radialGradient id="radial-gradient-48" cx="0.5" cy="0.5" r="0.498" gradientTransform="translate(-0.004) scale(1.008 1)" xlink:href="#radial-gradient-22"/>
    <radialGradient id="radial-gradient-49" cx="0.499" cy="0.5" r="0.498" xlink:href="#radial-gradient-22"/>
    <radialGradient id="radial-gradient-50" cx="0.499" cy="0.5" r="0.498" gradientTransform="translate(-0.004) scale(1.008 1)" xlink:href="#radial-gradient-22"/>
    <radialGradient id="radial-gradient-51" cx="0.499" cy="0.5" r="0.498" gradientTransform="translate(-0.005) scale(1.009 1)" xlink:href="#radial-gradient-22"/>
    <radialGradient id="radial-gradient-52" cx="0.501" cy="0.504" r="0.502" gradientTransform="translate(0)" xlink:href="#radial-gradient-22"/>
    <radialGradient id="radial-gradient-53" cx="0.5" cy="0.5" r="0.498" xlink:href="#radial-gradient-22"/>
    <radialGradient id="radial-gradient-54" cx="0.5" cy="0.5" r="0.498" gradientTransform="translate(-0.004) scale(1.008 1)" xlink:href="#radial-gradient-22"/>
    <radialGradient id="radial-gradient-55" cx="0.501" cy="0.5" r="0.497" xlink:href="#radial-gradient-22"/>
    <radialGradient id="radial-gradient-56" cx="0.5" cy="0.5" r="0.498" gradientTransform="translate(-0.004) scale(1.008 1)" xlink:href="#radial-gradient-22"/>
    <radialGradient id="radial-gradient-57" cx="0.495" cy="0.5" r="0.497" gradientTransform="translate(0)" xlink:href="#radial-gradient-22"/>
    <radialGradient id="radial-gradient-58" cx="0.496" cy="0.499" r="0.498" gradientTransform="translate(0)" xlink:href="#radial-gradient-22"/>
    <radialGradient id="radial-gradient-59" cx="0.438" cy="0.44" r="0.537" gradientTransform="translate(2.204 -0.026) rotate(90) scale(1 0.01)" xlink:href="#radial-gradient-5"/>
    <radialGradient id="radial-gradient-60" cx="0.433" cy="0.439" r="0.537" gradientTransform="matrix(0.011, 1, -0.022, 0, 2.17, -0.689)" xlink:href="#radial-gradient-5"/>
    <linearGradient id="linear-gradient-4" x1="0.5" y1="1.104" x2="0.5" y2="-0.113" gradientUnits="objectBoundingBox">
      <stop offset="0" stop-color="#72c9fc"/>
      <stop offset="0.02" stop-color="#72c9fc" stop-opacity="0.941"/>
      <stop offset="0.14" stop-color="#70cbfa" stop-opacity="0.698"/>
      <stop offset="0.25" stop-color="#6eccf8" stop-opacity="0.478"/>
      <stop offset="0.35" stop-color="#6dcdf7" stop-opacity="0.31"/>
      <stop offset="0.45" stop-color="#6ccef6" stop-opacity="0.169"/>
      <stop offset="0.55" stop-color="#6ccff6" stop-opacity="0.078"/>
      <stop offset="0.64" stop-color="#6bcff5" stop-opacity="0.02"/>
      <stop offset="0.71" stop-color="#6bcff5" stop-opacity="0"/>
    </linearGradient>
    <linearGradient id="linear-gradient-5" x1="0.5" y1="1.034" x2="0.5" y2="-0.106" xlink:href="#linear-gradient-4"/>
    <linearGradient id="linear-gradient-6" x1="0.5" y1="1.034" x2="0.5" y2="-0.106" xlink:href="#linear-gradient-4"/>
    <radialGradient id="radial-gradient-61" cx="3.683" cy="-12.87" r="67.44" gradientTransform="translate(0.032) scale(0.991 1)" xlink:href="#radial-gradient-5"/>
    <radialGradient id="radial-gradient-62" cx="1.603" cy="-0.313" r="1.503" gradientTransform="translate(-15.099) scale(10.419 1)" xlink:href="#radial-gradient-5"/>
    <radialGradient id="radial-gradient-63" cx="2.573" cy="-59.303" r="67.647" gradientTransform="translate(0.02) scale(0.992 1)" xlink:href="#radial-gradient-5"/>
    <radialGradient id="radial-gradient-64" cx="-2.816" cy="0.924" r="40.98" gradientTransform="translate(-0.025) scale(0.991 1)" xlink:href="#radial-gradient-5"/>
    <radialGradient id="radial-gradient-65" cx="0.14" cy="-0.001" r="1.269" gradientTransform="translate(-1.309) scale(10.326 1)" xlink:href="#radial-gradient-5"/>
    <radialGradient id="radial-gradient-66" cx="0.157" cy="-32.854" r="40.993" gradientTransform="translate(-0.001)" xlink:href="#radial-gradient-5"/>
    <radialGradient id="radial-gradient-67" cx="6.004" cy="-4.61" r="40.92" gradientTransform="translate(0.039) scale(0.994 1)" xlink:href="#radial-gradient-5"/>
    <radialGradient id="radial-gradient-68" cx="1.833" cy="-0.199" r="1.437" gradientTransform="translate(-15.009) scale(9.19 1)" xlink:href="#radial-gradient-5"/>
    <radialGradient id="radial-gradient-69" cx="5.089" cy="-34.788" r="41.164" gradientTransform="translate(-0.019)" xlink:href="#radial-gradient-5"/>
    <radialGradient id="radial-gradient-70" cx="0.409" cy="0.507" r="0.538" gradientTransform="matrix(0.707, 0.707, -0.139, 0.139, 0.207, 0.178)" xlink:href="#radial-gradient-5"/>
    <radialGradient id="radial-gradient-71" cx="0.502" cy="0.498" r="0.5" gradientTransform="translate(0.334 -0.041) rotate(45) scale(1 0.53)" gradientUnits="objectBoundingBox">
      <stop offset="0" stop-color="#72c9fc"/>
      <stop offset="0.03" stop-color="#6ec3f4" stop-opacity="0.969"/>
      <stop offset="0.7" stop-color="#203846" stop-opacity="0.278"/>
      <stop offset="0.98" stop-opacity="0"/>
    </radialGradient>
    <clipPath id="clip-Custom_Size_2">
      <rect width="2131" height="1910"/>
    </clipPath>
  </defs>
  <g id="Custom_Size_2" data-name="Custom Size – 2" clip-path="url(#clip-Custom_Size_2)">
    <rect width="2131" height="1910" fill="rgba(0,0,0,0)"/>
    <g id="hollogram" transform="translate(-64.308 -127.406)" style="isolation: isolate">
      <g id="Layer_2" data-name="Layer 2" transform="translate(-19.487 60.83)">
        <g id="OBJECTS" transform="translate(0)">
          <path id="Path_1" data-name="Path 1" d="M582.847,787.041l-58.52,20.512c-69.078,24.132-154.294-.452-228.449-75.412C175.922,610.526,129.468,401.433,192.211,265.992c24.031-51.884,60.33-85.467,103.466-100.55L354,144.93c-42.734,14.781-79.434,48.415-103.466,100.55-62.944,135.189-16.289,344.484,103.667,466.1C428.5,786.589,513.769,811.173,582.847,787.041Z" transform="translate(759.528 277.882)" fill="url(#linear-gradient)"/>
          <path id="Path_2" data-name="Path 2" d="M536.1,227.752c120.006,121.615,166.51,330.759,103.717,466.2S427.963,840.5,307.706,718.636,141.246,387.877,203.989,252.487,415.9,105.885,536.1,227.752Z" transform="translate(806.773 270.824)" fill="#579afb"/>
          <path id="Path_3" data-name="Path 3" d="M619.156,669.583c59.978-128.654,15.686-327.089-98.438-442.771S265.12,121.636,205.142,250.29s-15.686,327.089,98.639,442.972,255.6,105.225,315.576-23.428Z" transform="translate(816.429 284.132)" fill="#1b1d2e"/>
          <path id="Path_4" data-name="Path 4" d="M638.879,693.442c1.257-3.067,2.715-5.932,3.972-9,3.067-7.34,5.882-14.529,8.3-22.121.8-2.262,1.357-4.324,1.91-6.385a235.617,235.617,0,0,0,6.737-26.7c.251-1.056.352-2.313.654-3.368.352-2.262.754-4.575,1.106-6.837,2.061-11.664,3.318-23.378,4.374-35.192.3-4.625.654-9.653.8-14.479a59.331,59.331,0,0,1,.3-7.39,56.361,56.361,0,0,0,0-7.139A471.474,471.474,0,0,0,647.526,424.12c-1.206-3.67-2.212-7.541-3.418-11.211-.352-1.307-.905-2.413-1.207-3.72-3.318-9.753-6.686-19.507-10.407-29.26a55.7,55.7,0,0,0-3.067-7.24,459.313,459.313,0,0,0-80.44-130.363,198.376,198.376,0,0,0-13.725-14.58c-35.193-35.645-73.351-60.33-110.6-73.2-4.474-1.609-9.251-3.016-13.976-4.474a78.761,78.761,0,0,0-9.351-2.212,74.663,74.663,0,0,0-9.351-1.76c-4.575-.8-9.15-1.559-13.775-1.911l-4.625-.352a168.373,168.373,0,0,0-69.078,9.15,1.408,1.408,0,0,1-.905.352c-.855.352-2.112.654-3.016,1.005l-.9.8-4.072,1.156c-1.056.553-2.614,1.056-3.921,1.81l-.452.352a12.32,12.32,0,0,0-3.017,1.458l-.7.6-3.469,1.81a22.582,22.582,0,0,0-3.117,1.86c-2.614,1.508-5.48,3.167-8.145,5.027a15.893,15.893,0,0,1-3.268,2.061l-1.357,1.156-2.011,1.76-1.357,1.156-2.262,1.91-.453.4-2.916,2.514-.452.4a180.591,180.591,0,0,0-30.165,31.422c-1.408,2.011-3.067,4.173-4.475,6.184s-3.268,5.027-5.028,7.441l-4.324,7.24a9.505,9.505,0,0,0-1.408,2.413c-1.458,2.413-2.665,5.028-4.123,7.491a10.056,10.056,0,0,0-1.207,2.665,46.653,46.653,0,0,0-2.514,5.279c-.453.8-.754,1.86-1.207,2.665-2.262,5.028-4.525,10.055-6.586,15.485-.754,2.262-1.559,4.123-2.313,6.385-2.061,5.329-3.72,10.658-5.329,16.038a103.723,103.723,0,0,0-2.815,10.055c-1.156,4.575-2.112,8.9-3.268,13.474-.352,2.262-.955,4.324-1.508,6.837s-.754,4.575-1.156,6.888c-1.357,7.893-2.363,16.239-3.368,24.635a37.292,37.292,0,0,0-.5,7.139c0,2.514-.352,4.575-.5,7.089a449.458,449.458,0,0,0,12.368,133.279c1.458,6.234,2.916,12.468,4.625,18.5a475.77,475.77,0,0,0,31.12,82c2.966,6.134,6.134,12.066,9.5,18.25l.553.654a430.554,430.554,0,0,0,72.647,99.7,53.837,53.837,0,0,0,5.027,5.028,23.318,23.318,0,0,0,3.318,3.419l1.156,1.357,1.76,2.061,1.357,1.559.6.7,3.972,3.268c1.207,1.357,2.614,2.112,3.771,3.469a7.642,7.642,0,0,0,1.81,1.609,31.979,31.979,0,0,0,3.972,3.268,10.055,10.055,0,0,0,2.413,1.86l1.357,1.559.452-.352.352.453a28.95,28.95,0,0,0,3.62,2.815l.4.452a11.868,11.868,0,0,0,1.609.955,8.247,8.247,0,0,0,2.212,1.659,23.286,23.286,0,0,0,2.011,1.408,25.822,25.822,0,0,0,3.972,2.866c1.408,1.156,2.815,1.91,4.223,3.066a33.353,33.353,0,0,0,4.424,2.866l.6.7a30.885,30.885,0,0,1,4.022,2.413l.4.453,3.67,1.961.754.9h.855c1.81,1.207,3.67,2.011,5.48,3.167l2.413,1.458s1.257.553,2.061,1.006c0,0,1.207.553,2.011,1.006a3.168,3.168,0,0,0,1.408.754s.6.7,1.257.5a3.17,3.17,0,0,0,1.408.754,10.053,10.053,0,0,0,2.665,1.257c1.81.8,3.67,1.961,5.48,2.765.8.5,1.86.754,2.665,1.257l3.67,1.559c.8.5,1.86.754,2.665,1.257l3.67,1.558c1.257.5,2.463,1.056,4.123,1.559l.4.453s1.408.352,2.061.6a2.943,2.943,0,0,0,1.005.3,10.06,10.06,0,0,0,2.715.855c1.006.251,2.262.8,3.268,1.106a71.486,71.486,0,0,0,8.9,2.564,10.348,10.348,0,0,1,2.665.854c.4.453,1.056.3,1.659.553s1.458.3,2.061.553l.4.452a10.453,10.453,0,0,1,3.117.452l.452-.352a21.918,21.918,0,0,0,3.921.9v.251l3.368.251v.251h2.966l1.005.3a9.084,9.084,0,0,1,1.911.352h.8v.251l3.771.3,3.771.3,3.368.251a24.448,24.448,0,0,0,3.569,0,22.977,22.977,0,0,1,3.368.251,3.672,3.672,0,0,0,1.458,0,51.324,51.324,0,0,1,5.681,0h2.765a14.271,14.271,0,0,0,1.458,0H487a5.639,5.639,0,0,0,1.508,0h2.313l4.022-.3h3.771a11.52,11.52,0,0,0,2.815-.4c1.056,0,2.313-.452,3.368-.553,2.162,0,4.072-.754,6.184-1.006l.452-.4h.855s1.709-.251,2.363-.452l.452-.352a19.631,19.631,0,0,0,2.112-.251s1.056,0,1.257-.352a9.243,9.243,0,0,0,2.815-.8c.453-.4,1.056,0,1.508-.553,1.91-.453,3.469-.955,5.38-1.458l2.363-.855c.452-.4.854-.352,1.508-.553l.452-.352a4.374,4.374,0,0,0,2.162-.7l2.614-1.056C578.8,778,614.6,744.471,638.175,693.794ZM312.645,705.91a411.459,411.459,0,0,1-74.608-105.175l-.553-.7a489.714,489.714,0,0,1-32.327-83.305v-.251c-25.137-88.685-24.132-181.844,9.5-253.486,59.978-128.654,201.1-139.362,315.576-23.478s158.416,314.067,98.438,442.771S427.574,821.643,313.1,705.76Z" transform="translate(807.515 271.484)" fill="url(#linear-gradient-2)"/>
          <path id="Path_5" data-name="Path 5" d="M276.918,256.685,265.1,244.82c-1.961,4.072-3.921,8.094-6.083,11.966l11.111,12.87C272.745,265.433,274.706,260.807,276.918,256.685Z" transform="translate(1141.172 680.188)" fill="#294973"/>
          <path id="Path_6" data-name="Path 6" d="M259.435,247.89l-.955,1.609,10.809,13.071,1.207-1.81Z" transform="translate(1138.997 692.552)" fill="#294973"/>
          <path id="Path_7" data-name="Path 7" d="M259.933,248.85l-2.313,3.62,10.809,13.474,2.564-3.771Z" transform="translate(1135.533 696.419)" fill="#294973"/>
          <path id="Path_8" data-name="Path 8" d="M256.136,254.31l-2.916,2.966,9.653,15.082,2.765-3.167Z" transform="translate(1117.812 718.409)" fill="#294973"/>
          <path id="Path_9" data-name="Path 9" d="M255.136,255.33l-2.916,2.514,9.251,15.686,2.916-2.916Z" transform="translate(1113.785 722.517)" fill="#294973"/>
          <path id="Path_10" data-name="Path 10" d="M257.9,250.25l-.9,1.207,10.608,13.675.9-1.207Z" transform="translate(1133.036 702.057)" fill="#294973"/>
          <path id="Path_11" data-name="Path 11" d="M249.517,258.73l-1.307.754,7.692,16.641,1.508-.955Z" transform="translate(1097.634 736.21)" fill="#294973"/>
          <path id="Path_12" data-name="Path 12" d="M250.258,259.17l-3.318,2.061,7.24,16.993,3.519-2.212Z" transform="translate(1092.52 737.983)" fill="#294973"/>
          <path id="Path_13" data-name="Path 13" d="M247.176,259.91l-1.106.553,7.24,16.993,1.056-.553Z" transform="translate(1089.016 740.963)" fill="#294973"/>
          <path id="Path_14" data-name="Path 14" d="M265.622,251.4a115.068,115.068,0,0,1-11.312,13.675l9.753,15.082c4.123-4.776,8.245-9.5,11.965-14.68L265.421,251Z" transform="translate(1122.202 705.078)" fill="#294973"/>
          <path id="Path_15" data-name="Path 15" d="M262.383,256.37,256.1,261.8c-2.464,1.709-5.028,3.016-7.089,4.525l7.943,16.44a82.464,82.464,0,0,0,7.29-5.027l6.737-5.782Z" transform="translate(1100.856 726.706)" fill="#294973"/>
          <path id="Path_16" data-name="Path 16" d="M254.6,260c-3.469,1.81-6.988,3.218-10.658,5.027l6.385,17.4c3.67-1.609,7.592-2.966,11.312-5.028L254.3,260.3Z" transform="translate(1080.437 741.325)" fill="#294973"/>
          <path id="Path_17" data-name="Path 17" d="M244.458,261.19l-1.508.5,6.133,17.546,1.709-.7Z" transform="translate(1076.45 746.118)" fill="#294973"/>
          <path id="Path_18" data-name="Path 18" d="M245.24,261.53a38.117,38.117,0,0,1-3.67,1.207l5.731,17.546s2.564-.654,4.072-1.156l-5.932-17.345Z" transform="translate(1070.892 747.487)" fill="#294973"/>
          <path id="Path_19" data-name="Path 19" d="M239.021,262.65H235.25l3.57,17.8,4.022-.3Z" transform="translate(1045.438 751.998)" fill="#294973"/>
          <path id="Path_20" data-name="Path 20" d="M237.832,262.71H233.86l3.167,17.747h4.223Z" transform="translate(1039.84 752.24)" fill="#294973"/>
          <path id="Path_21" data-name="Path 21" d="M241.937,261.89l-1.307.3,5.48,17.747,1.307-.352Z" transform="translate(1067.106 748.937)" fill="#294973"/>
          <path id="Path_22" data-name="Path 22" d="M230.56,262.482a10.754,10.754,0,0,0-1.86-.352l1.508,17.647a8.3,8.3,0,0,1,1.86.352Z" transform="translate(1019.058 749.904)" fill="#294973"/>
          <path id="Path_23" data-name="Path 23" d="M231.343,262.6l-4.173-.754,1.106,17.6,4.324,1.006Z" transform="translate(1012.896 748.776)" fill="#294973"/>
          <path id="Path_24" data-name="Path 24" d="M227.638,261.862l-1.458-.3.5,17.345,1.408.3Z" transform="translate(1008.909 747.608)" fill="#294973"/>
          <path id="Path_25" data-name="Path 25" d="M253.291,262.11l-8.094,1.508-8.5,1.006,4.022,17.847,8.9-1.006,8.8-1.659Z" transform="translate(1051.278 749.823)" fill="#294973"/>
          <path id="Path_26" data-name="Path 26" d="M246.874,264.09a145.8,145.8,0,0,1-17.144-1.76l1.709,17.848a133.406,133.406,0,0,0,18.4,1.86l-2.765-17.7Z" transform="translate(1023.206 750.709)" fill="#294973"/>
          <path id="Path_27" data-name="Path 27" d="M236.37,264.7l-6.184-1.76L224,260.78l-.352,17.295,6.586,2.212a39.229,39.229,0,0,0,6.636,1.76Z" transform="translate(998.719 744.467)" fill="#294973"/>
          <path id="Path_28" data-name="Path 28" d="M224.933,261.114l-1.86-.754L222.52,277.4l1.81.8Z" transform="translate(994.168 742.775)" fill="#294973"/>
          <path id="Path_29" data-name="Path 29" d="M226.159,261.349s-2.866-1.056-4.123-1.609l-1.156,16.792,4.324,1.81Z" transform="translate(987.563 740.278)" fill="#294973"/>
          <path id="Path_30" data-name="Path 30" d="M221.392,258.7l-4.223-2.665-3.419,15.585,4.475,2.866Z" transform="translate(958.847 725.376)" fill="#294973"/>
          <path id="Path_31" data-name="Path 31" d="M220.163,257.966c-1.207-.955-2.665-1.709-4.022-2.866l-3.821,15.082c1.408,1.156,2.815,1.86,4.223,3.067Z" transform="translate(953.088 721.591)" fill="#294973"/>
          <path id="Path_32" data-name="Path 32" d="M222.605,259.994l-1.458-.754-1.357,16.591,1.408.754Z" transform="translate(983.173 738.265)" fill="#294973"/>
          <path id="Path_33" data-name="Path 33" d="M214.128,252.89l-1.559-1.81-5.43,14.127,1.81,1.609Z" transform="translate(932.225 705.4)" fill="#294973"/>
          <path id="Path_34" data-name="Path 34" d="M215.454,253.309l-3.771-3.469-6.033,13.474,3.972,3.67Z" transform="translate(926.224 700.406)" fill="#294973"/>
          <path id="Path_35" data-name="Path 35" d="M212.271,250.086l-1.408-1.156-6.184,13.222,1.357,1.156Z" transform="translate(922.318 696.741)" fill="#294973"/>
          <path id="Path_36" data-name="Path 36" d="M235.571,266.673,226.823,262c-2.815-1.508-5.631-3.419-8.7-5.028l-2.765,15.837c3.016,1.709,6.033,3.821,9.049,5.53l9.351,5.027Z" transform="translate(965.331 729.122)" fill="#294973"/>
          <path id="Path_37" data-name="Path 37" d="M229.567,265.021l-4.223-3.067-3.972-3.268L213.178,252l-5.028,14.328a92.043,92.043,0,0,0,8.547,7.24l4.374,3.72,4.374,3.268,4.022-15.082Z" transform="translate(936.293 709.105)" fill="#294973"/>
          <path id="Path_38" data-name="Path 38" d="M209.167,246.62l-6.737,12.569c3.67,4.324,7.642,7.994,11.312,12.267l6.234-13.222C216.457,254.161,212.686,250.692,209.167,246.62Z" transform="translate(913.256 687.437)" fill="#294973"/>
          <path id="Path_39" data-name="Path 39" d="M208.609,245.55l-7.189,12.317,1.76,2.011,7.038-12.317Z" transform="translate(909.188 683.128)" fill="#294973"/>
          <path id="Path_40" data-name="Path 40" d="M207.711,244l-7.591,11.613,3.469,4.525,7.39-11.915Z" transform="translate(903.952 676.885)" fill="#294973"/>
          <path id="Path_41" data-name="Path 41" d="M203.931,236.7l-9.351,9.2,3.268,5.027,9.1-9.4Z" transform="translate(881.64 647.485)" fill="#294973"/>
          <path id="Path_42" data-name="Path 42" d="M203.082,235.12l-9.5,8.547,2.815,5.028,9.5-8.949Z" transform="translate(877.613 641.121)" fill="#294973"/>
          <path id="Path_43" data-name="Path 43" d="M207.143,243,199.2,254.211l1.156,1.357,7.943-11.211Z" transform="translate(900.247 672.858)" fill="#294973"/>
          <path id="Path_44" data-name="Path 44" d="M200.96,228.74,190,235.075l1.056,2.614,10.658-6.737Z" transform="translate(863.194 615.426)" fill="#294973"/>
          <path id="Path_45" data-name="Path 45" d="M200.3,226.83l-11.211,5.882,2.765,5.48,10.809-6.134Z" transform="translate(859.529 607.733)" fill="#294973"/>
          <path id="Path_46" data-name="Path 46" d="M199.932,225.57,188.52,231l.955,2.011,11.161-5.681Z" transform="translate(857.233 602.659)" fill="#294973"/>
          <path id="Path_47" data-name="Path 47" d="M204.679,238.47l-8.9,9.653c5.027,6.888,9.4,13.574,14.379,20.11l8.145-10.96c-5.027-6.083-9.2-12.569-13.423-18.8Z" transform="translate(886.473 654.613)" fill="#294973"/>
          <path id="Path_48" data-name="Path 48" d="M201.077,230l-10.357,6.988c2.061,3.771,3.871,7.692,5.932,11.463l6.184,11.262,10.055-8.547-5.832-10.357c-1.86-3.519-3.72-7.038-5.329-10.759Z" transform="translate(866.094 620.501)" fill="#294973"/>
          <path id="Path_49" data-name="Path 49" d="M198.934,222.41l-11.714,4.575c2.112,5.681,4.273,11.312,6.837,16.993l11.312-5.43c-2.162-5.028-4.072-10.658-6.234-15.887Z" transform="translate(851.998 589.932)" fill="#294973"/>
          <path id="Path_50" data-name="Path 50" d="M198.384,220.94l-11.714,4.173.9,2.413,11.714-4.173Z" transform="translate(849.782 584.012)" fill="#294973"/>
          <path id="Path_51" data-name="Path 51" d="M198.016,219,186,222.268c.452,1.91,1.408,3.921,1.91,5.832l12.066-3.67C199.222,222.519,198.77,220.559,198.016,219Z" transform="translate(847.084 576.198)" fill="#294973"/>
          <path id="Path_52" data-name="Path 52" d="M196.41,209.94l-12.87.453,1.056,5.782,12.87-.452Z" transform="translate(837.177 539.709)" fill="#294973"/>
          <path id="Path_53" data-name="Path 53" d="M196.01,208.342l-12.82-.352.855,5.983h12.87Z" transform="translate(835.767 531.856)" fill="#294973"/>
          <path id="Path_54" data-name="Path 54" d="M197.787,217.63l-12.217,2.665.7,2.162,12.217-3.067Z" transform="translate(845.352 570.681)" fill="#294973"/>
          <path id="Path_55" data-name="Path 55" d="M195.523,203.245,182.25,200.53a13.593,13.593,0,0,0,.251,2.564l13.072,2.514S195.472,204.1,195.523,203.245Z" transform="translate(831.981 501.81)" fill="#294973"/>
          <path id="Path_56" data-name="Path 56" d="M195.423,201.547,182.15,198.43v5.681l13.474,2.966Z" transform="translate(831.578 493.353)" fill="#294973"/>
          <path id="Path_57" data-name="Path 57" d="M195.322,200.519,182.1,197v1.911l13.273,3.57Z" transform="translate(831.377 487.593)" fill="#294973"/>
          <path id="Path_58" data-name="Path 58" d="M196.709,212l-12.719,1.106,2.916,12.468,3.368,12.519,12.166-2.614-2.966-11.664Z" transform="translate(838.989 548.006)" fill="#294973"/>
          <path id="Path_59" data-name="Path 59" d="M195.512,204.122,182.39,202.01c.855,8.3,1.76,16.591,3.067,25.137l13.021.6C197.472,219.858,196.366,212.015,195.512,204.122Z" transform="translate(832.545 507.771)" fill="#294973"/>
          <path id="Path_60" data-name="Path 60" d="M195.423,198.215,182.05,193.59v8.647c0,2.765.251,5.731.251,8.446l13.222,3.57c0-2.715-.251-5.028-.251-8.044Z" transform="translate(831.176 473.86)" fill="#294973"/>
          <path id="Path_61" data-name="Path 61" d="M195.463,197.077,182.14,192.05v2.363l13.122,5.027Z" transform="translate(831.538 467.657)" fill="#294973"/>
          <path id="Path_62" data-name="Path 62" d="M195.572,195.631,182.3,190a40.131,40.131,0,0,0,0,5.681l13.273,5.48S195.471,197.34,195.572,195.631Z" transform="translate(831.731 459.401)" fill="#294973"/>
          <path id="Path_63" data-name="Path 63" d="M197.186,189.757l-12.87-8.6-.955,5.027,12.669,8.4Z" transform="translate(836.452 423.798)" fill="#294973"/>
          <path id="Path_64" data-name="Path 64" d="M197.445,188.59l-12.519-9.2s-.855,3.519-1.156,5.027l12.619,8.8.955-5.027Z" transform="translate(838.103 416.669)" fill="#294973"/>
          <path id="Path_65" data-name="Path 65" d="M195.431,194.7,182.41,188.62v1.709l13.222,6.284Z" transform="translate(832.626 453.843)" fill="#294973"/>
          <path id="Path_66" data-name="Path 66" d="M198.791,184.552,186.725,173.24l-.955,2.061,12.267,11.06Z" transform="translate(846.158 391.9)" fill="#294973"/>
          <path id="Path_67" data-name="Path 67" d="M200.2,183.284,188.181,171.57l-1.961,4.525,12.016,11.262Z" transform="translate(847.97 385.174)" fill="#294973"/>
          <path id="Path_68" data-name="Path 68" d="M199.307,182.345,187.543,170.48l-.553,1.609L199.006,183.8Z" transform="translate(851.071 380.784)" fill="#294973"/>
          <path id="Path_69" data-name="Path 69" d="M198.679,191.043,185.557,183.1a94.875,94.875,0,0,0-1.609,11.262l-1.458,11.463,13.222,6.737L197.07,201.9c.5-3.519,1.357-7.038,1.81-10.608Z" transform="translate(832.948 431.611)" fill="#294973"/>
          <path id="Path_70" data-name="Path 70" d="M202.952,185.129,190.635,174.42c-1.257,3.067-2.363,6.787-3.419,10.055l-1.609,5.028L184.2,194.53l12.569,9.6,1.207-5.028,1.357-4.726c1.106-3.268,1.961-6.385,3.218-9.452Z" transform="translate(839.835 396.653)" fill="#294973"/>
          <path id="Path_71" data-name="Path 71" d="M193.646,168.091c-2.363,4.072-4.374,8.547-6.536,12.77l11.764,11.915c1.961-4.072,3.972-8.145,6.133-11.965L193.9,167.89Z" transform="translate(851.555 370.353)" fill="#294973"/>
          <path id="Path_72" data-name="Path 72" d="M189.775,166.85l-.9,1.609,11.211,13.122.955-1.609Z" transform="translate(858.643 366.165)" fill="#294973"/>
          <path id="Path_73" data-name="Path 73" d="M192.054,165.41l-2.564,3.821L200.5,182.5l2.363-3.57Z" transform="translate(861.14 360.365)" fill="#294973"/>
          <path id="Path_74" data-name="Path 74" d="M197.006,159.72l-2.966,2.966,9.5,15.083,2.916-2.916Z" transform="translate(879.465 337.449)" fill="#294973"/>
          <path id="Path_75" data-name="Path 75" d="M198.207,158.71l-3.117,2.715,9.452,15.535,2.715-2.765Z" transform="translate(883.694 333.381)" fill="#294973"/>
          <path id="Path_76" data-name="Path 76" d="M191.184,164.41l-.7,1.408,10.608,13.675.9-1.156Z" transform="translate(865.127 356.337)" fill="#294973"/>
          <path id="Path_77" data-name="Path 77" d="M201.208,155.48l-1.508.9,7.893,16.44,1.307-.754Z" transform="translate(902.261 320.372)" fill="#294973"/>
          <path id="Path_78" data-name="Path 78" d="M204.37,154.7l-3.72,2.011,7.441,16.842,3.519-1.86Z" transform="translate(906.087 317.231)" fill="#294973"/>
          <path id="Path_79" data-name="Path 79" d="M203.106,154.26l-1.056.553,6.988,16.792,1.307-.3Z" transform="translate(911.725 315.458)" fill="#294973"/>
          <path id="Path_80" data-name="Path 80" d="M203.065,160.85c-4.123,4.726-8.245,9.5-11.965,14.68l10.407,13.926a115.625,115.625,0,0,1,11.312-13.725Z" transform="translate(867.624 342)" fill="#294973"/>
          <path id="Path_81" data-name="Path 81" d="M210.417,156c-2.212,1.961-5.028,3.218-7.29,5.027l-6.737,5.832,8.6,15.434,6.284-5.43c2.463-1.709,5.027-3.017,7.089-4.525Z" transform="translate(888.93 322.466)" fill="#294973"/>
          <path id="Path_82" data-name="Path 82" d="M213.582,153.26c-3.72,1.609-7.591,3.017-11.312,5.028l7.24,17.043a105.153,105.153,0,0,1,10.407-4.676Z" transform="translate(912.611 311.431)" fill="#294973"/>
          <path id="Path_83" data-name="Path 83" d="M207.01,152.88l-1.76.7,6.184,17.144,1.508-.5Z" transform="translate(924.613 309.901)" fill="#294973"/>
          <path id="Path_84" data-name="Path 84" d="M210.322,152.611s-2.564.6-4.072,1.156l5.932,17.295s2.363-.855,3.67-1.156l-5.832-17.546Z" transform="translate(928.641 307.806)" fill="#294973"/>
          <path id="Path_85" data-name="Path 85" d="M217.193,151.45H212.97l4.022,17.848h3.771Z" transform="translate(955.706 304.141)" fill="#294973"/>
          <path id="Path_86" data-name="Path 86" d="M218.824,151.44H214.4l3.57,17.8h4.022Z" transform="translate(961.465 304.101)" fill="#294973"/>
          <path id="Path_87" data-name="Path 87" d="M209.007,152.19l-1.257.3,5.279,17.5,1.307-.3Z" transform="translate(934.682 307.122)" fill="#294973"/>
          <path id="Path_88" data-name="Path 88" d="M222.26,152.282a8.293,8.293,0,0,1-1.86-.352l1.508,17.6a9.708,9.708,0,0,0,1.86.352Z" transform="translate(985.63 306.074)" fill="#294973"/>
          <path id="Path_89" data-name="Path 89" d="M225.844,153.125l-4.324-.955,1.056,17.6,4.173.754Z" transform="translate(990.141 307.041)" fill="#294973"/>
          <path id="Path_90" data-name="Path 90" d="M224.779,153.1l-1.609-.553.654,17.546,1.458.3Z" transform="translate(996.786 308.571)" fill="#294973"/>
          <path id="Path_91" data-name="Path 91" d="M226.467,151.51l-8.949.955-8.748,1.659,5.028,17.7,8.144-1.458,8.5-1.056Z" transform="translate(938.79 304.383)" fill="#294973"/>
          <path id="Path_92" data-name="Path 92" d="M234.431,153.35a141.735,141.735,0,0,0-18.4-1.86l2.765,17.747A169.43,169.43,0,0,1,235.939,171l-1.709-17.848Z" transform="translate(968.03 304.302)" fill="#294973"/>
          <path id="Path_93" data-name="Path 93" d="M236.622,156.662l-6.586-2.162a40.219,40.219,0,0,0-6.586-1.81l.452,17.345,6.234,1.76,6.134,2.162Z" transform="translate(997.914 309.135)" fill="#294973"/>
          <path id="Path_94" data-name="Path 94" d="M229.233,154.514l-1.86-.754L226.82,170.8l1.458.754Z" transform="translate(1011.486 313.445)" fill="#294973"/>
          <path id="Path_95" data-name="Path 95" d="M233.119,156.03s-2.866-1.056-4.324-1.81l-.955,16.993,4.072,1.609Z" transform="translate(1015.594 315.297)" fill="#294973"/>
          <path id="Path_96" data-name="Path 96" d="M242,160.615l-4.273-2.665-3.218,15.786,4.273,2.665Z" transform="translate(1042.458 330.32)" fill="#294973"/>
          <path id="Path_97" data-name="Path 97" d="M243.653,161.967c-1.408-1.156-2.815-1.91-4.223-3.067l-3.569,15.082a22.521,22.521,0,0,1,3.972,2.866Z" transform="translate(1047.895 334.146)" fill="#294973"/>
          <path id="Path_98" data-name="Path 98" d="M232.034,155.684l-1.408-.754-1.207,16.792,1.257.5Z" transform="translate(1021.958 318.157)" fill="#294973"/>
          <path id="Path_99" data-name="Path 99" d="M248.43,165.059l-1.81-1.609-5.43,14.127,1.609,1.408Z" transform="translate(1069.361 352.471)" fill="#294973"/>
          <path id="Path_100" data-name="Path 100" d="M251.974,168.291,247.8,164.37,242.17,178.3l3.771,3.419Z" transform="translate(1073.308 356.176)" fill="#294973"/>
          <path id="Path_101" data-name="Path 101" d="M250.97,166.986l-1.357-1.156-6.033,13.423,1.207.955Z" transform="translate(1078.987 362.056)" fill="#294973"/>
          <path id="Path_102" data-name="Path 102" d="M250.812,165.817c-3.067-1.709-6.083-3.821-9.3-5.379l-9.351-5.027-1.81,16.54,8.748,4.676c2.815,1.508,5.631,3.419,8.7,5.027l2.765-15.837Z" transform="translate(1025.703 320.09)" fill="#294973"/>
          <path id="Path_103" data-name="Path 103" d="M258.767,174.258a91.741,91.741,0,0,0-8.6-7.189l-4.324-3.72-4.424-3.268L237.4,175.162l4.223,3.067,3.972,3.268,8.144,6.737,5.028-14.328Z" transform="translate(1054.097 338.898)" fill="#294973"/>
          <path id="Path_104" data-name="Path 104" d="M250.044,166.06l-6.234,13.222c3.519,4.072,7.29,7.491,10.809,11.563l6.737-12.518C257.686,174,253.714,170.333,250.044,166.06Z" transform="translate(1079.913 362.983)" fill="#294973"/>
          <path id="Path_105" data-name="Path 105" d="M253.6,169.3l-6.988,12.368,1.408,1.559,7.189-12.116Z" transform="translate(1091.19 376.032)" fill="#294973"/>
          <path id="Path_106" data-name="Path 106" d="M254.679,170.38,247.49,182.5l3.268,4.273,7.592-11.664Z" transform="translate(1094.735 380.382)" fill="#294973"/>
          <path id="Path_107" data-name="Path 107" d="M261.629,178.07l-8.9,9.7,2.815,4.625,9.351-9.15Z" transform="translate(1115.839 411.353)" fill="#294973"/>
          <path id="Path_108" data-name="Path 108" d="M263.2,179.79l-9.5,8.949,2.815,5.027,9.7-8.748Z" transform="translate(1119.745 418.28)" fill="#294973"/>
          <path id="Path_109" data-name="Path 109" d="M256.543,172.08l-7.793,11.463,1.207,1.357,7.742-11.463Z" transform="translate(1099.809 387.228)" fill="#294973"/>
          <path id="Path_110" data-name="Path 110" d="M268.391,187.1l-11.061,6.737,1.106,2.212,10.809-6.536Z" transform="translate(1134.365 447.721)" fill="#294973"/>
          <path id="Path_111" data-name="Path 111" d="M268.709,188.53,258,194.664l2.162,5.027,11.211-6.083Z" transform="translate(1137.063 453.481)" fill="#294973"/>
          <path id="Path_112" data-name="Path 112" d="M270,190.62,258.84,196.3l.7,1.709,11.211-5.681Z" transform="translate(1140.447 461.898)" fill="#294973"/>
          <path id="Path_113" data-name="Path 113" d="M257.654,173.4l-8.144,10.96c5.027,6.083,9.2,12.518,13.624,19l9.1-10.055c-4.776-6.938-9.351-13.624-14.379-20.11Z" transform="translate(1102.87 391.739)" fill="#294973"/>
          <path id="Path_114" data-name="Path 114" d="M264.785,181.76l-10.055,8.547,5.782,10.357c1.86,3.519,3.72,7.038,5.379,10.759l10.357-6.988c-2.061-3.771-3.871-7.692-5.932-11.463l-6.184-11.211Z" transform="translate(1123.894 426.214)" fill="#294973"/>
          <path id="Path_115" data-name="Path 115" d="M270.252,191.161l-11.312,5.48c2.162,5.027,4.072,10.658,6.234,15.887l11.714-4.575c-2.112-5.681-4.273-11.312-6.837-16.993Z" transform="translate(1140.849 463.267)" fill="#294973"/>
          <path id="Path_116" data-name="Path 116" d="M272.465,195.42l-11.915,3.921.9,2.413,11.915-3.972Z" transform="translate(1147.334 481.23)" fill="#294973"/>
          <path id="Path_117" data-name="Path 117" d="M273.056,196.88,260.99,200.6c.7,1.709,1.207,3.67,1.961,5.43l12.016-3.318C274.464,200.8,273.76,199.042,273.056,196.88Z" transform="translate(1149.106 487.11)" fill="#294973"/>
          <path id="Path_118" data-name="Path 118" d="M276.351,206.44l-12.921.9,1.307,5.58,12.87-.5Z" transform="translate(1158.933 525.613)" fill="#294973"/>
          <path id="Path_119" data-name="Path 119" d="M276.68,208.44H263.81l.9,5.581,12.82.352Z" transform="translate(1160.463 533.668)" fill="#294973"/>
          <path id="Path_120" data-name="Path 120" d="M273.937,199.08,261.67,202.1l.754,1.76,12.016-2.866Z" transform="translate(1151.844 495.971)" fill="#294973"/>
          <path id="Path_121" data-name="Path 121" d="M277.9,218.594,264.83,216.08v2.363l13.071,2.463v-2.313Z" transform="translate(1164.571 564.438)" fill="#294973"/>
          <path id="Path_122" data-name="Path 122" d="M278.163,220.275,264.89,217.51l.452,5.53,13.222,3.167Z" transform="translate(1164.813 570.197)" fill="#294973"/>
          <path id="Path_123" data-name="Path 123" d="M278.454,223.311,264.98,219.54v1.911l13.423,3.771Z" transform="translate(1165.175 578.373)" fill="#294973"/>
          <path id="Path_124" data-name="Path 124" d="M274.277,200.53l-12.217,2.665,3.218,11.412,2.765,11.815,12.72-1.106-2.916-12.368Z" transform="translate(1153.415 501.81)" fill="#294973"/>
          <path id="Path_125" data-name="Path 125" d="M277.171,211.173l-13.021-.6c1.106,7.692,2.262,15.837,2.966,23.478l13.122,2.061C279.383,227.814,278.478,219.519,277.171,211.173Z" transform="translate(1161.832 542.246)" fill="#294973"/>
          <path id="Path_126" data-name="Path 126" d="M278.373,223.368,265,220c0,2.765.251,5.028.251,8.044v7.994l13.323,4.625v-8.4c0-2.765-.251-5.731-.251-8.5Z" transform="translate(1165.256 580.226)" fill="#294973"/>
          <path id="Path_127" data-name="Path 127" d="M278.414,229.188l-13.122-5.028-.352,2.313,13.524,5.279Z" transform="translate(1165.014 596.98)" fill="#294973"/>
          <path id="Path_128" data-name="Path 128" d="M278.183,230.93l-13.273-5.48v5.279l13.273,5.882S278.283,232.84,278.183,230.93Z" transform="translate(1164.893 602.175)" fill="#294973"/>
          <path id="Path_129" data-name="Path 129" d="M277.486,241.994l-12.87-8.144-.955,5.027,12.82,8.6Z" transform="translate(1159.859 636.006)" fill="#294973"/>
          <path id="Path_130" data-name="Path 130" d="M276.914,244.208l-12.669-8.748s-.6,3.318-.955,4.776l12.619,9.2s.9-3.519,1.207-5.028Z" transform="translate(1158.369 642.491)" fill="#294973"/>
          <path id="Path_131" data-name="Path 131" d="M277.982,233.785,264.76,227.45v1.709l13.222,6.284Z" transform="translate(1164.289 610.231)" fill="#294973"/>
          <path id="Path_132" data-name="Path 132" d="M274.27,252.7,262.2,241.84l-.754,1.86,12.016,11.262Z" transform="translate(1150.958 668.186)" fill="#294973"/>
          <path id="Path_133" data-name="Path 133" d="M274.525,254.172,262.51,242.91l-1.76,4.273,11.815,11.262Z" transform="translate(1148.139 672.495)" fill="#294973"/>
          <path id="Path_134" data-name="Path 134" d="M272.557,256.4,260.793,244.54l-.5,1.207,11.563,12.066Z" transform="translate(1146.286 679.06)" fill="#294973"/>
          <path id="Path_135" data-name="Path 135" d="M280.41,235.4l-13.222-6.737-1.408,10.658c-.453,3.569-1.307,7.089-1.76,10.608l13.122,7.994c.7-3.72,1.357-7.491,1.86-11.463l1.408-11.463Z" transform="translate(1161.309 615.104)" fill="#294973"/>
          <path id="Path_136" data-name="Path 136" d="M280.4,246.712l-12.569-9.452-1.206,5.027-1.609,5.027c-1.106,3.318-1.91,6.385-3.218,9.452l12.317,10.658c1.307-3.067,2.413-6.737,3.469-10.055l1.609-5.027,1.408-5.027Z" transform="translate(1152.368 649.74)" fill="#294973"/>
          <path id="Path_137" data-name="Path 137" d="M476.709,242.429l-2.112-2.514c-5.027-5.631-10.055-11.513-15.082-16.792l-2.313-2.715-2.665,5.027,2.313,2.715c5.329,5.027,10.055,10.507,15.082,16.138l2.162,2.514Zm-31.824-32.88-2.363-1.86c-5.782-5.028-11.412-9.15-17.194-13.625l-2.212-1.609-1.458,5.58,2.212,1.659a203.524,203.524,0,0,1,16.792,13.122l1.961,2.262,2.061-5.782Zm59.928,72.195-1.709-2.866c-4.374-6.888-8.949-13.574-13.524-20.11l-2.162-2.514-3.017,3.771,2.162,2.514c4.374,6.435,8.8,12.921,13.122,19.808l1.709,2.866,3.62-3.117ZM410.044,184.01l-2.413-1.458a186.014,186.014,0,0,0-18.1-9.2l-2.464-1.056-.452,6.335,2.463,1.005a160.238,160.238,0,0,1,17.5,9l2.413,1.408ZM525.978,322.617q-5.028-11.463-11.111-22.372l-1.458-3.067-3.57,3.067,1.458,2.665c3.72,7.038,7.441,14.529,10.709,21.92l1.458,3.117,3.972-2.262ZM374.1,167.318l-2.514-.654a145.294,145.294,0,0,0-18-4.575l-2.463-.6.553,6.586,2.514.6c5.782,1.307,11.613,2.614,17.6,4.575l2.464.6v-6.335ZM543.424,369.775c-2.162-7.994-5.027-15.786-7.994-23.83l-1.257-3.268-4.324,1.76,1.207,3.268c2.866,7.843,5.48,15.434,7.893,23.177l.8,3.268,4.525-1.156ZM337.95,159.827h-2.514a96.782,96.782,0,0,0-17.5,0h-2.313l1.408,6.636h2.313a138.233,138.233,0,0,1,17.093,0h2.514ZM554.132,418.09c-1.106-8.094-2.665-16.239-4.625-24.434l-.8-3.218-4.676.5.8,3.217c1.76,7.944,3.117,15.837,4.474,23.78l.4,3.167h5.028ZM303.21,161.688l-2.363.4a103.176,103.176,0,0,0-16.138,5.028l-2.162.7,2.313,6.284,2.162-.7a86.619,86.619,0,0,1,15.887-4.625l2.363-.453ZM558.154,466.2c0-7.793-.4-15.837-1.106-23.931V438.9l-4.776-1.006v3.368c.553,7.843,1.056,15.686.9,23.277v3.167l5.027,1.659ZM271.235,173.1l-2.212,1.106a105.174,105.174,0,0,0-14.529,9.4l-1.81,1.559,3.167,5.932,1.81-1.559a147.3,147.3,0,0,1,14.077-9l2.212-1.106ZM555.087,512.456c1.156-7.29,1.91-15.082,2.413-22.573v-2.966l-5.028-2.061v2.966a215.409,215.409,0,0,1-2.363,21.769l-.4,3.117,5.028,2.916ZM233.328,214.526A115.248,115.248,0,0,1,244.992,201.3l1.76-1.559-3.57-5.983-1.81,1.559c-4.072,4.324-7.994,8.848-11.915,13.826l-1.408,2.011,3.871,5.379ZM544.479,554.435c2.162-6.586,4.072-13.423,5.832-20.462l.654-2.866-5.028-3.368-.654,2.916c-1.709,6.636-3.67,13.423-5.782,19.607l-.8,2.665,4.575,3.972.8-2.715ZM213.52,246.5c2.916-6.133,5.832-11.362,8.949-16.842l1.207-2.212-4.072-4.726-1.207,2.212a173.818,173.818,0,0,0-9.2,16.993l-1.257,2.665,4.123,4.726ZM527.386,590.884a182.754,182.754,0,0,0,9.25-17.445l1.458-2.866-4.123-4.726-1.458,2.815c-3.167,6.335-6.083,12.016-9.2,17.043l-1.207,2.212,4.123,5.027,1.207-2.262ZM200.3,284.71c1.709-6.636,3.469-13.222,5.782-19.607l.855-2.665-4.575-3.972-.855,2.715c-2.112,6.586-4.072,13.373-6.033,20.11l-.6,2.866,5.028,3.369ZM504.813,619.793a133.493,133.493,0,0,0,12.116-13.625l1.408-2.011-3.821-5.379-1.408,2.011a125.691,125.691,0,0,1-11.664,13.222l-1.81,1.558,3.821,5.782,1.76-1.558Zm-311.2-292.7c.553-7.541,1.458-14.68,2.614-21.97l.4-3.117-5.028-2.916-.452,3.117a216.154,216.154,0,0,0-2.413,22.624v2.916l5.028,2.111v-2.966ZM489.981,623.714l-1.81,1.559a147.971,147.971,0,0,1-14.077,9.05l-2.212,1.106,2.715,6.335,2.212-1.106a110.019,110.019,0,0,0,14.529-9.4l1.81-1.559-2.966-5.731ZM193.862,373.445c-.5-7.843-1.006-15.686-.855-23.277V347l-5.028-1.659v2.966c0,7.843.4,15.887,1.056,23.931v3.419l4.776,1.005-.4-3.218ZM461.124,640.958l-2.162.7a100.064,100.064,0,0,1-15.937,4.625l-2.363.452,2.112,6.486,2.313-.4a140.753,140.753,0,0,0,16.339-4.676l2.162-.654-2.313-6.284ZM201.1,420.7c-1.76-7.943-3.117-15.837-4.424-23.78l-.452-3.167H191.2l.6,3.419c1.156,8.145,2.665,16.289,4.625,24.434l.855,3.217,4.625-.452-.8-3.218ZM428.746,648.65h-2.313a148.866,148.866,0,0,1-17.093,0h-2.514l1.005,6.636h2.514a96.772,96.772,0,0,0,17.5,0h2.313ZM214.877,467.661c-2.815-7.793-5.43-15.384-7.591-23.378l-.855-3.218-4.525,1.106.855,3.218a251.641,251.641,0,0,0,8.044,23.881l1.206,3.218,4.374-1.76-1.257-3.268ZM394.208,647.192l-2.514-.6c-5.781-1.307-11.613-2.614-17.6-4.525l-2.463-.654v6.335l2.514.654a145.264,145.264,0,0,0,18,4.575l2.463.6-.553-6.586ZM234.434,512.154c-3.72-7.038-7.39-14.529-10.709-21.92l-1.458-3.067-3.921,2.212,1.458,3.067c3.469,7.642,7.139,15.082,10.859,22.573l1.458,3.067,3.57-3.117-1.458-2.614ZM359.015,636.635l-2.463-1.005a160.235,160.235,0,0,1-17.5-9l-2.413-1.458-1.056,6.033L338,632.663a176,176,0,0,0,18.1,9.251l2.463,1.005Zm-97.332-81.646-2.162-2.514c-4.374-6.435-8.8-12.921-13.172-19.758L244.69,529.8l-3.62,3.117,1.911,3.117c4.374,6.838,8.949,13.574,13.524,20.11l2.162,2.463Zm62.643,61.838-2.162-1.609c-5.43-4.022-11.211-8.5-16.792-13.122l-2.413-1.91-1.81,5.027,2.363,1.911A204.9,204.9,0,0,0,320.706,620.7l2.212,1.659ZM291.5,589.175l-2.112-2.463q-7.994-7.893-15.083-16.39l-2.162-2.514-2.815,4.424,2.112,2.514c5.028,5.882,10.055,11.764,15.485,16.993l2.112,2.514,2.464-5.027Z" transform="translate(855.059 336.285)" fill="#579afb"/>
          <path id="Path_138" data-name="Path 138" d="M415.194,509.667l2.966-6.083c10.055-21.166,9.2-50.526-1.559-77.574a34.137,34.137,0,0,0,23.78-20.512l2.464-5.028c13.926-29.712,3.57-75.412-22.573-102.008l-4.726-4.575L436.108,249.7,407.4,220.033l-20.613,44.192-14.58-14.63L392.821,205.4l-28.757-29.26L343.5,220.335l-49.42-50.275-16.239,35.193,31.673,32.226L245.164,375.886l-27.2-27.45L196.9,378l49.822,50.275-19.859,43.136,28.757,29.26,19.859-42.784,14.58,14.63L269.949,515.3l28.707,29.26,19.859-42.784,14.63,14.378c30.165,30.165,66.614,27.35,82.25-6.234Zm-79.987,1.156L316.5,491.87,296.645,534.6l-20.11-20.11,19.859-42.734-23.579-23.629-19.858,42.784-20.11-20.11,19.859-42.784L203.486,378.2l15.384-21.166,27.752,28.1L315.6,236.926,283.876,204.7l11.463-25.137,49.621,50.275,20.562-44.192,20.11,20.361L365.019,250.2,388.3,273.526l20.562-44.192,20.11,20.11-20.412,44.493,9.049,9.15c24.031,24.233,33.181,65.709,20.512,92.757l-2.464,5.329a29.511,29.511,0,0,1-23.881,18.6h-2.966l1.86,3.972c11.262,25.791,12.217,54.548,2.765,74.91l-2.966,6.083c-14.379,30.969-48.264,33.382-75.412,5.731Zm40.22-81.9A65.356,65.356,0,0,0,358.283,397l-41.728-42.08-32.025,69.027,41.728,42.08c16.943,16.943,37.958,15.434,46.655-3.519a52.236,52.236,0,0,0,2.363-33.584Zm-46.705,32.025-37.4-37.958,27.551-59.274,37.4,37.958A59.323,59.323,0,0,1,371,429.227a44.845,44.845,0,0,1-2.212,28.707c-7.642,16.289-25.59,17.647-40.22,3.017Zm74.558-101.4a41.377,41.377,0,0,0,2.061-26.193,52.235,52.235,0,0,0-13.423-25.138l-36.248-36.55L330.531,325.61l36.248,36.6c13.071,13.675,29.612,12.217,36.349-2.664Zm-66.111-34.489,20.613-44.192,31.874,32.478a44.745,44.745,0,0,1,11.01,20.462,34.086,34.086,0,0,1-1.508,21.417c-5.681,12.016-19.054,13.273-29.863,2.112l-31.874-32.478Zm36.148,137.251a52.538,52.538,0,0,0,2.363-33.584A65.758,65.758,0,0,0,358.735,396.8l-41.778-42.08-32.025,69.027,41.778,42.08c16.792,16.943,37.756,15.636,46.655-3.519Zm-44.594-1.357-37.4-37.958,27.551-59.274,37.4,37.958A59.324,59.324,0,0,1,371,429.227a44.846,44.846,0,0,1-2.212,28.707c-7.642,16.289-25.59,17.647-40.22,3.017Zm74.558-101.4a41.375,41.375,0,0,0,2.061-26.193,52.236,52.236,0,0,0-13.424-25.137l-36.248-36.55L330.531,325.61l36.248,36.6c13.071,13.675,29.612,12.217,36.349-2.664Zm-66.111-34.489,20.613-44.192,31.874,32.478a44.745,44.745,0,0,1,11.01,20.462,34.085,34.085,0,0,1-1.508,21.417c-5.681,12.016-19.054,13.272-29.863,2.112l-31.874-32.478Zm66.111,34.489a41.375,41.375,0,0,0,2.061-26.193,52.236,52.236,0,0,0-13.424-25.137l-36.248-36.55L330.531,325.61l36.248,36.6c13.071,13.675,29.612,12.217,36.349-2.664Zm-34.237-2.011-31.874-32.478,20.613-44.192,31.874,32.478a44.745,44.745,0,0,1,11.01,20.462,34.085,34.085,0,0,1-1.508,21.417c-5.681,12.016-19.054,13.272-29.863,2.112Zm4.273,104.773a52.537,52.537,0,0,0,2.363-33.584A65.758,65.758,0,0,0,358.735,396.8l-41.778-42.08-32.025,69.027,41.778,42.08c16.792,16.943,37.756,15.636,46.655-3.519Zm-44.594-1.357-37.4-37.958,27.551-59.274,37.4,37.958A59.325,59.325,0,0,1,371,429.227a44.846,44.846,0,0,1-2.212,28.707c-7.642,16.289-25.59,17.647-40.22,3.017Z" transform="translate(890.984 379.093)" fill="#579afb"/>
          <ellipse id="Ellipse_1" data-name="Ellipse 1" cx="720.942" cy="64.704" rx="720.942" ry="64.704" transform="translate(452.459 1682.299)" opacity="0.4" fill="url(#radial-gradient)" style="mix-blend-mode: multiply;isolation: isolate"/>
          <g id="Group_1" data-name="Group 1" transform="translate(169.581 1502.918)" opacity="0.8" style="mix-blend-mode: overlay;isolation: isolate">
            <path id="Path_139" data-name="Path 139" d="M101.9,359.82A12.619,12.619,0,1,0,114.32,374.1H289.327v-4.072H114.22A12.568,12.568,0,0,0,101.9,359.82Z" transform="translate(287.608 -359.568)" fill="#fff"/>
            <path id="Path_140" data-name="Path 140" d="M225.6,378.118H108.761a12.569,12.569,0,1,0,0,4.123h115.23l28,27.953h59.073v-4.072H253.653Z" transform="translate(265.868 -328.194)" fill="#fff"/>
            <path id="Path_141" data-name="Path 141" d="M100.121,396.18H240.288l44.141,44.141.6.6H343.6V436.8H286.691L242.55,392.661l-.6-.6H100.121a12.569,12.569,0,1,0,0,4.123Z" transform="translate(231.071 -272.051)" fill="#fff"/>
            <path id="Path_142" data-name="Path 142" d="M60.053,376.6a12.569,12.569,0,1,0,12.418,14.63H457.225v-4.123H72.622A12.619,12.619,0,0,0,60.053,376.6Z" transform="translate(119.711 -291.987)" fill="#fff"/>
            <path id="Path_143" data-name="Path 143" d="M26.844,398.2a12.569,12.569,0,1,0,12.368,14.63H591.18v-4.123H39.211A12.569,12.569,0,0,0,26.844,398.2Z" transform="translate(-14.244 -204.993)" fill="#fff"/>
            <path id="Path_144" data-name="Path 144" d="M554.766,405.489A12.569,12.569,0,0,0,542.4,416H415.706L396.4,396.44H308.52v4.072h85.92l19.607,19.607H542.2a12.569,12.569,0,1,0,12.368-14.63Z" transform="translate(1170.951 -212.081)" fill="#fff"/>
            <path id="Path_145" data-name="Path 145" d="M405.713,392.03a12.569,12.569,0,1,0,0-4.123H375.8L359.007,404.7H312v4.072h48.918l16.792-16.741Z" transform="translate(1184.967 -288.765)" fill="#fff"/>
            <path id="Path_146" data-name="Path 146" d="M401.679,390.508a12.619,12.619,0,1,0-12.368-14.63H308.52v4.072h80.792A12.518,12.518,0,0,0,401.679,390.508Z" transform="translate(1170.951 -337.618)" fill="#fff"/>
            <path id="Path_147" data-name="Path 147" d="M565.978,385.008a12.619,12.619,0,1,0-12.367-14.63H308.52v4.072H553.61A12.518,12.518,0,0,0,565.978,385.008Z" transform="translate(1170.951 -359.77)" fill="#fff"/>
            <path id="Path_148" data-name="Path 148" d="M713.133,375.57a12.569,12.569,0,0,0-12.367,10.558h-218.9l-64.352,64.3h-109V454.5h110.6l64.3-64.3H700.815a12.569,12.569,0,1,0,12.367-14.63Z" transform="translate(1170.951 -296.135)" fill="#fff"/>
            <path id="Path_149" data-name="Path 149" d="M788.8,370.23a12.619,12.619,0,0,0-12.418,10.508H308.52v4.123H776.378A12.569,12.569,0,1,0,788.8,370.23Z" transform="translate(1170.951 -317.642)" fill="#fff"/>
          </g>
          <path id="Path_150" data-name="Path 150" d="M121.71,359.53V578.578s131.067,26.243,514.966,26.243c352.226,0,474.193-26.243,474.193-26.243V359.53c-65.357,11.764-261.983,20.11-494.554,20.11S186.967,371.294,121.71,359.53Z" transform="translate(588.157 1142.181)" fill="url(#radial-gradient-2)"/>
          <path id="Path_151" data-name="Path 151" d="M634.72,405.478c-96.578,0-186.972,1.458-264.346,4.022h0L117.14,406.182v28.053c0,15.887,231.717,28.757,517.832,28.757s517.832-12.87,517.832-28.757V406.182C1073.721,395.875,849.092,405.478,634.72,405.478Z" transform="translate(569.751 1310.857)" fill="#fff" style="mix-blend-mode: overlay;isolation: isolate"/>
          <path id="Path_152" data-name="Path 152" d="M634.72,405.478c-96.578,0-186.972,1.458-264.346,4.022h0L117.14,406.182v28.053c0,15.887,231.717,28.757,517.832,28.757s517.832-12.87,517.832-28.757V406.182C1073.721,395.875,849.092,405.478,634.72,405.478Z" transform="translate(569.751 1310.857)" fill="#fff" opacity="0.5" style="mix-blend-mode: overlay;isolation: isolate"/>
          <path id="Path_153" data-name="Path 153" d="M1152.622,425.4c0,15.887-231.717,28.757-517.831,28.757S117.21,441.284,117.21,425.4,348.927,396.64,635.042,396.64,1152.622,409.51,1152.622,425.4Z" transform="translate(570.033 1291.642)" fill="url(#radial-gradient-3)"/>
          <path id="Path_154" data-name="Path 154" d="M121.71,359.53V578.578s131.067,26.243,514.966,26.243c352.226,0,474.193-26.243,474.193-26.243V359.53c-65.357,11.764-261.983,20.11-494.554,20.11S186.967,371.294,121.71,359.53Z" transform="translate(588.157 1142.181)" fill="url(#linear-gradient-3)" style="mix-blend-mode: screen;isolation: isolate"/>
          <path id="Path_155" data-name="Path 155" d="M361.74,476.145c33.383-38.661,50.627-71.642,40.723-82.451-13.826-15.083-75.412,18.6-137.25,75.412-2.665,2.413-5.028,4.776-7.642,7.089Z" transform="translate(1135.332 1265.278)" opacity="0.8" fill="url(#radial-gradient-4)" style="mix-blend-mode: color-dodge;isolation: isolate"/>
          <ellipse id="Ellipse_2" data-name="Ellipse 2" cx="785.344" cy="674.991" rx="785.344" ry="674.991" transform="translate(922.178 376.961)" fill="url(#radial-gradient-5)" style="mix-blend-mode: screen;isolation: isolate"/>
          <ellipse id="Ellipse_3" data-name="Ellipse 3" cx="711.49" cy="500.336" rx="711.49" ry="500.336" transform="translate(761.75 673.432)" fill="url(#radial-gradient-6)" style="mix-blend-mode: screen;isolation: isolate"/>
          <path id="Path_156" data-name="Path 156" d="M464.334,430.357c0,20.512-68.173,36.9-152.182,36.7s-152.082-17.043-152.031-37.5,68.223-36.9,152.232-36.651S464.434,409.9,464.334,430.357Z" transform="translate(742.853 1276.576)" opacity="0.5" fill="url(#radial-gradient-7)" style="mix-blend-mode: color-dodge;isolation: isolate"/>
          <path id="Path_157" data-name="Path 157" d="M419.7,426.909c-1.307,20.412-70.385,32.628-154.193,27.2S114.68,427.764,116.087,407.352s70.385-32.628,154.193-27.2S421,406.5,419.7,426.909Z" transform="translate(565.424 1220.047)" opacity="0.5" fill="url(#radial-gradient-8)" style="mix-blend-mode: color-dodge;isolation: isolate"/>
          <path id="Path_158" data-name="Path 158" d="M246.9,380.148c-51.23-3.318-96.93,0-125.034,7.642v43.789c27.148,10.759,70.737,19.356,120.258,22.523,83.808,5.43,152.886-6.787,154.193-27.2S330.712,385.527,246.9,380.148Z" transform="translate(588.801 1220.052)" opacity="0.5" fill="url(#radial-gradient-9)" style="mix-blend-mode: color-dodge;isolation: isolate"/>
          <path id="Path_159" data-name="Path 159" d="M279.96,609.979c-20.462.453-38.661-14.781-40.622-98.79s13.021-152.434,33.483-152.936,38.661,67.218,40.622,151.227S300.422,609.476,279.96,609.979Z" transform="translate(1061.209 1137.024)" opacity="0.8" fill="url(#radial-gradient-10)" style="mix-blend-mode: color-dodge;isolation: isolate"/>
          <path id="Path_160" data-name="Path 160" d="M319.6,359.48H249.866c-9.552,38.963-14.781,95.12-13.323,157.411,1.056,45.247,5.53,76.116,12.217,96.98H332.77c5.43-21.166,8.094-52.738,6.988-99.393C338.35,453.041,330.658,397.89,319.6,359.48Z" transform="translate(1049.675 1141.98)" opacity="0.8" fill="url(#radial-gradient-11)" style="mix-blend-mode: color-dodge;isolation: isolate"/>
          <path id="Path_161" data-name="Path 161" d="M275.86,411.45c-1.207-17.747,11.412-34.137,84.361-39.013s133.128,5.631,134.284,23.428S437.494,432.012,364.5,436.839,276.866,429.247,275.86,411.45Z" transform="translate(1208.692 1189.354)" opacity="0.8" fill="url(#radial-gradient-12)" style="mix-blend-mode: color-dodge;isolation: isolate"/>
          <g id="Group_2" data-name="Group 2" transform="translate(709.867 1494.019)" clip-path="url(#clip-path)">
            <path id="Path_162" data-name="Path 162" d="M567.688,372.86,456.279,443.949c-201.1,1.961-317.587-20.11-334.529-23.83v11.714c13.323,2.815,119.956,23.73,310.1,23.73h28l111.359-71.189H751.443V372.91Z" transform="translate(-121.549 -298.152)" fill="url(#radial-gradient-13)"/>
            <rect id="Rectangle_1" data-name="Rectangle 1" width="11.513" height="248.609" transform="translate(624.012 13.373)" fill="url(#radial-gradient-14)"/>
            <path id="Path_163" data-name="Path 163" d="M273.383,504.976l-7.843-8.4,88.182-82.049h1.91c87.83-8.5,177.621-27.5,178.476-27.7L532.751,399.3c-.855,0-86.322,17.848-174.052,26.495Z" transform="translate(457.564 -241.888)" fill="url(#radial-gradient-15)"/>
            <path id="Path_164" data-name="Path 164" d="M606.893,456.054H595.38V410.3c-34.539.955-212.311,5.53-338.4,0L145.972,452.685,141.9,441.926,255.119,398.69h1.207c139.06,6.335,342.573,0,344.635,0h5.932Z" transform="translate(-40.395 -194.121)" fill="url(#radial-gradient-16)"/>
            <path id="Path_165" data-name="Path 165" d="M440.759,420.667c-13.222,0-26.394-.453-39.114-1.508h-1.508l-57.615-39.365H247V368.28h99.042L404.26,407.8c89.791,7.189,205.272-16.892,206.127-17.144l-2.966,12.016A920.068,920.068,0,0,1,440.759,420.667Z" transform="translate(382.894 -316.597)" fill="url(#radial-gradient-17)"/>
            <rect id="Rectangle_2" data-name="Rectangle 2" width="11.513" height="126.743" transform="translate(75.211 13.373)" fill="url(#radial-gradient-18)"/>
          </g>
          <path id="Path_167" data-name="Path 167" d="M341.446,359.117c0-2.966-8.044-5.832-23.026-8.547v17.244C333.6,364.9,341.446,362.033,341.446,359.117Z" transform="translate(1380.405 1106.095)" fill="url(#radial-gradient-19)" style="mix-blend-mode: screen;isolation: isolate"/>
          <path id="Path_168" data-name="Path 168" d="M1152.462,375.307c0,15.837-231.717,28.707-517.832,28.707s-517.58-12.87-517.58-28.707S348.767,346.55,634.882,346.55,1152.462,359.42,1152.462,375.307Z" transform="translate(569.389 1089.904)" fill="url(#radial-gradient-20)"/>
          <path id="Path_169" data-name="Path 169" d="M1152.462,375.307c0,15.837-231.717,28.707-517.832,28.707s-517.58-12.87-517.58-28.707S348.767,346.55,634.882,346.55,1152.462,359.42,1152.462,375.307Z" transform="translate(569.389 1089.904)" fill="url(#radial-gradient-21)" style="mix-blend-mode: screen;isolation: isolate"/>
          <path id="Path_170" data-name="Path 170" d="M634.72,381c-285.863,0-517.58-12.87-517.58-28.707v28c0,15.887,231.717,28.757,517.832,28.757S1152.8,396.18,1152.8,380.293v-28C1152.1,368.026,920.835,381,634.72,381Z" transform="translate(569.751 1113.022)" fill="#fff" style="mix-blend-mode: overlay;isolation: isolate"/>
          <g id="Group_3" data-name="Group 3" transform="translate(689.772 387.965)" opacity="0.05" style="mix-blend-mode: screen;isolation: isolate">
            <path id="Path_171" data-name="Path 171" d="M235.643,260.077a67.217,67.217,0,0,0-95.522-5.027,68.877,68.877,0,0,0-5.027,96.578,67.218,67.218,0,0,0,95.522,5.279,68.877,68.877,0,0,0,5.028-96.829Z" transform="translate(-117.713 262.789)" opacity="0.2" fill="url(#radial-gradient-22)" style="mix-blend-mode: screen;isolation: isolate"/>
            <path id="Path_172" data-name="Path 172" d="M409.341,337.938A69.631,69.631,0,0,0,319.4,296.813a70.736,70.736,0,0,0-40.773,90.847,69.581,69.581,0,0,0,89.942,41.075,70.686,70.686,0,0,0,40.773-90.8Z" transform="translate(512.133 483.561)" opacity="0.08" fill="url(#radial-gradient-23)" style="mix-blend-mode: screen;isolation: isolate"/>
            <path id="Path_173" data-name="Path 173" d="M153.423,333.112a65.961,65.961,0,0,0,92.757,14.379,67.419,67.419,0,0,0,14.177-93.512,65.81,65.81,0,0,0-92.606-14.529,67.469,67.469,0,0,0-14.328,93.662Z" transform="translate(-25.539 218.612)" opacity="0.19" fill="url(#radial-gradient-24)" style="mix-blend-mode: screen;isolation: isolate"/>
            <path id="Path_174" data-name="Path 174" d="M301.69,340.924a66.413,66.413,0,1,0,67.167-66.262,66.413,66.413,0,0,0-67.167,66.262Z" transform="translate(623.253 412.403)" opacity="0.55" fill="url(#radial-gradient-25)" style="mix-blend-mode: screen;isolation: isolate"/>
            <path id="Path_175" data-name="Path 175" d="M289.721,216.947a60.028,60.028,0,0,0-81.546-26.193A61.235,61.235,0,0,0,182.284,272.9,60.028,60.028,0,0,0,263.578,299.1,61.235,61.235,0,0,0,289.721,216.947Z" transform="translate(115.027 46.752)" opacity="0.21" fill="url(#radial-gradient-26)" style="mix-blend-mode: screen;isolation: isolate"/>
            <path id="Path_176" data-name="Path 176" d="M222.356,273.856a69.027,69.027,0,0,0,91.8,34.74A70.385,70.385,0,0,0,348.5,215.889a69.028,69.028,0,0,0-91.752-34.74,70.385,70.385,0,0,0-34.388,92.707Z" transform="translate(278.618 10.657)" opacity="0.2" fill="url(#radial-gradient-27)" style="mix-blend-mode: screen;isolation: isolate"/>
            <path id="Path_177" data-name="Path 177" d="M260.6,371.957a52.89,52.89,0,1,0-34.845-20.89,53.342,53.342,0,0,0,34.845,20.89Z" transform="translate(275.716 377.146)" opacity="0.4" fill="url(#radial-gradient-28)" style="mix-blend-mode: screen;isolation: isolate"/>
            <path id="Path_178" data-name="Path 178" d="M233.952,189.286a25.59,25.59,0,1,0-16.914-10.119,25.791,25.791,0,0,0,16.914,10.119Z" transform="translate(262.146 -137.999)" opacity="0.4" fill="url(#radial-gradient-29)" style="mix-blend-mode: screen;isolation: isolate"/>
            <path id="Path_179" data-name="Path 179" d="M217.758,272.066a78.379,78.379,0,0,0,14.178,109.1,76.518,76.518,0,0,0,107.99-14.328,78.328,78.328,0,0,0-14.177-109.1,76.468,76.468,0,0,0-107.99,14.328Z" transform="translate(221.077 279.407)" opacity="0.28" fill="url(#radial-gradient-30)" style="mix-blend-mode: screen;isolation: isolate"/>
            <path id="Path_180" data-name="Path 180" d="M123.49,253.6a71.943,71.943,0,0,0,44.393,91.148A70.938,70.938,0,0,0,258.126,299.9a72.044,72.044,0,0,0-44.393-91.149A70.938,70.938,0,0,0,123.49,253.6Z" transform="translate(-110.031 131.666)" opacity="0.53" fill="url(#radial-gradient-31)" style="mix-blend-mode: screen;isolation: isolate"/>
            <path id="Path_181" data-name="Path 181" d="M316.564,549.415a112.415,112.415,0,0,0,46.253-151.227A110.2,110.2,0,0,0,213.1,351.432a112.515,112.515,0,0,0-46.253,151.227,110.2,110.2,0,0,0,149.719,46.756Z" transform="translate(28.357 669.557)" opacity="0.46" fill="url(#radial-gradient-32)" style="mix-blend-mode: screen;isolation: isolate"/>
            <path id="Path_182" data-name="Path 182" d="M422.85,222.341a96.88,96.88,0,0,0-130.715,43.89A98.791,98.791,0,0,0,335.674,398.3a96.88,96.88,0,0,0,130.715-43.89A98.74,98.74,0,0,0,422.85,222.341Z" transform="translate(542.916 159.755)" opacity="0.09" fill="url(#radial-gradient-33)" style="mix-blend-mode: screen;isolation: isolate"/>
            <path id="Path_183" data-name="Path 183" d="M329.039,333.483a69.983,69.983,0,1,0-76.217-62.19,69.983,69.983,0,0,0,76.217,62.19Z" transform="translate(424.819 86.872)" opacity="0.63" fill="url(#radial-gradient-34)" style="mix-blend-mode: screen;isolation: isolate"/>
            <path id="Path_184" data-name="Path 184" d="M378.679,315.231a108.594,108.594,0,0,0-141.373,61.788A110.6,110.6,0,0,0,298.44,519.85a108.594,108.594,0,0,0,141.423-61.788,110.6,110.6,0,0,0-61.185-142.831Z" transform="translate(332.998 544.929)" opacity="0.88" fill="url(#radial-gradient-35)" style="mix-blend-mode: screen;isolation: isolate"/>
            <path id="Path_185" data-name="Path 185" d="M328.387,265.249a60.33,60.33,0,0,0-85.87,2.916,61.938,61.938,0,0,0,2.866,86.825,60.33,60.33,0,0,0,85.92-2.966,61.838,61.838,0,0,0-2.916-86.775Z" transform="translate(318.988 307.892)" opacity="0.8" fill="url(#radial-gradient-36)" style="mix-blend-mode: screen;isolation: isolate"/>
            <path id="Path_186" data-name="Path 186" d="M385.969,422.413a53.292,53.292,0,0,0-11.915-73.955,52.135,52.135,0,0,0-73.2,12.016,53.341,53.341,0,0,0,11.915,73.954,52.085,52.085,0,0,0,73.2-12.015Z" transform="translate(580.049 669.464)" opacity="0.26" fill="url(#radial-gradient-37)" style="mix-blend-mode: screen;isolation: isolate"/>
            <path id="Path_187" data-name="Path 187" d="M157.442,314.923a82.149,82.149,0,1,0,89.489-74.809A82.149,82.149,0,0,0,157.442,314.923Z" transform="translate(41.079 272.043)" opacity="0.65" fill="url(#radial-gradient-38)" style="mix-blend-mode: screen;isolation: isolate"/>
            <path id="Path_188" data-name="Path 188" d="M189.734,410.655a61.134,61.134,0,1,0-61.939-59.626A61.134,61.134,0,0,0,189.734,410.655Z" transform="translate(-77.183 467.704)" opacity="0.54" fill="url(#radial-gradient-39)" style="mix-blend-mode: screen;isolation: isolate"/>
            <path id="Path_189" data-name="Path 189" d="M329.325,177.136a103.365,103.365,0,1,0,121.163,79.987,103.365,103.365,0,0,0-121.163-79.987Z" transform="translate(398.943 11.653)" opacity="0.87" fill="url(#radial-gradient-40)" style="mix-blend-mode: screen;isolation: isolate"/>
            <path id="Path_190" data-name="Path 190" d="M186.621,338.051a61.285,61.285,0,1,0,8.912-46.426,61.285,61.285,0,0,0-8.912,46.426Z" transform="translate(154.58 370.279)" opacity="0.62" fill="url(#radial-gradient-41)" style="mix-blend-mode: screen;isolation: isolate"/>
            <path id="Path_191" data-name="Path 191" d="M237.971,448.456a51.934,51.934,0,1,0,9.934-38.729A51.884,51.884,0,0,0,237.971,448.456Z" transform="translate(364.458 873.178)" opacity="0.9" fill="url(#radial-gradient-42)" style="mix-blend-mode: screen;isolation: isolate"/>
            <path id="Path_192" data-name="Path 192" d="M255.483,406.422a21.015,21.015,0,1,0,4.012-15.652,20.965,20.965,0,0,0-4.012,15.652Z" transform="translate(436.284 846.335)" fill="url(#radial-gradient-43)" style="mix-blend-mode: screen;isolation: isolate"/>
            <path id="Path_193" data-name="Path 193" d="M154.738,381.909A98.086,98.086,0,0,0,292.19,407.046a100.55,100.55,0,0,0,25.137-138.859A98.137,98.137,0,0,0,179.876,243.05,100.55,100.55,0,0,0,154.738,381.909Z" transform="translate(-39.07 213.504)" opacity="0.29" fill="url(#radial-gradient-44)" style="mix-blend-mode: screen;isolation: isolate"/>
            <path id="Path_194" data-name="Path 194" d="M184.175,340.781a68.274,68.274,0,1,0-45.323-26.6,68.876,68.876,0,0,0,45.323,26.6Z" transform="translate(-87.812 126.783)" opacity="0.78" fill="url(#radial-gradient-45)" style="mix-blend-mode: screen;isolation: isolate"/>
            <path id="Path_195" data-name="Path 195" d="M261.86,307.056A57.263,57.263,0,0,0,341.5,290.013a58.52,58.52,0,0,0-16.892-80.44,57.213,57.213,0,0,0-79.635,17.043A58.52,58.52,0,0,0,261.86,307.056Z" transform="translate(357.311 112.444)" opacity="0.87" fill="url(#radial-gradient-46)" style="mix-blend-mode: screen;isolation: isolate"/>
            <path id="Path_196" data-name="Path 196" d="M295.008,249.093a54.146,54.146,0,0,0,76.418,10.055,55.3,55.3,0,0,0,9.954-77.423,54.146,54.146,0,0,0-76.418-10.055,55.3,55.3,0,0,0-9.954,77.423Z" transform="translate(550.149 -48.339)" opacity="0.23" fill="url(#radial-gradient-47)" style="mix-blend-mode: screen;isolation: isolate"/>
            <path id="Path_197" data-name="Path 197" d="M310.9,297.415a72.547,72.547,0,0,0-45.248,91.6A71.541,71.541,0,0,0,356.4,434.565a72.547,72.547,0,0,0,45.247-91.651,71.39,71.39,0,0,0-90.746-45.5Z" transform="translate(462.97 488.892)" opacity="0.42" fill="url(#radial-gradient-48)" style="mix-blend-mode: screen;isolation: isolate"/>
            <path id="Path_198" data-name="Path 198" d="M394.065,352.767a82.7,82.7,0,0,0,16.741-114.928A80.741,80.741,0,0,0,297.285,220.9a82.753,82.753,0,0,0-16.741,114.979,80.742,80.742,0,0,0,113.521,16.892Z" transform="translate(473.364 131.035)" opacity="0.05" fill="url(#radial-gradient-49)" style="mix-blend-mode: screen;isolation: isolate"/>
            <path id="Path_199" data-name="Path 199" d="M170.3,437A101,101,0,0,0,241.188,560.42a99.745,99.745,0,0,0,122.419-71.44A101.053,101.053,0,0,0,292.77,365.5,99.8,99.8,0,0,0,170.3,437Z" transform="translate(80.255 764.581)" opacity="0.63" fill="url(#radial-gradient-50)" style="mix-blend-mode: screen;isolation: isolate"/>
            <path id="Path_200" data-name="Path 200" d="M224.635,337.111a92.757,92.757,0,0,0,124.129-44.594,94.517,94.517,0,0,0-44.141-125.386,92.707,92.707,0,0,0-124.129,44.594A94.517,94.517,0,0,0,224.635,337.111Z" transform="translate(98.567 -57.275)" opacity="0.49" fill="url(#radial-gradient-51)" style="mix-blend-mode: screen;isolation: isolate"/>
            <path id="Path_201" data-name="Path 201" d="M188.258,354.056a131.62,131.62,0,1,0,19.3-99.567,131.62,131.62,0,0,0-19.3,99.567Z" transform="translate(155.406 94.554)" opacity="0.46" fill="url(#radial-gradient-52)" style="mix-blend-mode: screen;isolation: isolate"/>
            <path id="Path_202" data-name="Path 202" d="M285.874,269.775a71.139,71.139,0,0,0-17.647,98.388,69.53,69.53,0,0,0,97.383,17.8,71.139,71.139,0,0,0,17.647-98.388,69.58,69.58,0,0,0-97.382-17.8Z" transform="translate(438.17 342.077)" opacity="0.76" fill="url(#radial-gradient-53)" style="mix-blend-mode: screen;isolation: isolate"/>
            <path id="Path_203" data-name="Path 203" d="M276.579,281.925A89.389,89.389,0,0,0,164.466,341.5,90.5,90.5,0,0,0,223.438,454.77a89.439,89.439,0,0,0,112.113-59.576,90.5,90.5,0,0,0-58.973-113.269Z" transform="translate(53.863 425.45)" opacity="0.21" fill="url(#radial-gradient-54)" style="mix-blend-mode: screen;isolation: isolate"/>
            <path id="Path_204" data-name="Path 204" d="M391.869,263.534a56.408,56.408,0,0,0-80.44-4.424,57.866,57.866,0,0,0-4.374,81.144,56.509,56.509,0,0,0,80.44,4.424,57.916,57.916,0,0,0,4.374-81.143Z" transform="translate(586.315 290.301)" opacity="0.2" fill="url(#radial-gradient-55)" style="mix-blend-mode: screen;isolation: isolate"/>
            <path id="Path_205" data-name="Path 205" d="M297.406,257.889a60.581,60.581,0,0,0,37.3,76.669,59.676,59.676,0,0,0,75.865-37.706,60.33,60.33,0,0,0-37.3-76.619,59.626,59.626,0,0,0-75.865,37.656Z" transform="translate(592.947 180.314)" opacity="0.53" fill="url(#radial-gradient-56)" style="mix-blend-mode: screen;isolation: isolate"/>
            <path id="Path_206" data-name="Path 206" d="M353.115,390.02a51.431,51.431,0,1,0-52.085-50.275,51.432,51.432,0,0,0,52.085,50.275Z" transform="translate(620.544 462.75)" opacity="0.54" fill="url(#radial-gradient-57)" style="mix-blend-mode: screen;isolation: isolate"/>
            <path id="Path_207" data-name="Path 207" d="M348.442,331.138A57.414,57.414,0,1,0,310.278,308.7,57.866,57.866,0,0,0,348.442,331.138Z" transform="translate(611.593 176.143)" opacity="0.78" fill="url(#radial-gradient-58)" style="mix-blend-mode: screen;isolation: isolate"/>
          </g>
          <ellipse id="Ellipse_4" data-name="Ellipse 4" cx="785.344" cy="360.974" rx="785.344" ry="360.974" transform="translate(97.971 734.667)" fill="url(#radial-gradient-59)" style="mix-blend-mode: screen;isolation: isolate"/>
          <ellipse id="Ellipse_5" data-name="Ellipse 5" cx="711.49" cy="674.991" rx="711.49" ry="674.991" transform="translate(476.993)" fill="url(#radial-gradient-60)" style="mix-blend-mode: screen;isolation: isolate"/>
          <path id="Path_208" data-name="Path 208" d="M1110.869,1374.526V100.61H121.71V1374.526c73.1,14.379,262.033,20.11,494.6,20.11S1052.6,1384.882,1110.869,1374.526Z" transform="translate(588.157 99.384)" fill="url(#linear-gradient-4)"/>
          <path id="Path_209" data-name="Path 209" d="M330.378,1392.122l-189.788-7.592V100.61H330.378Z" transform="translate(664.196 99.384)" opacity="0.5" fill="url(#linear-gradient-5)" style="mix-blend-mode: soft-light;isolation: isolate"/>
          <rect id="Rectangle_3" data-name="Rectangle 3" width="48.867" height="1292.266" transform="translate(1043.441 199.994)" opacity="0.8" fill="url(#linear-gradient-6)" style="mix-blend-mode: soft-light;isolation: isolate"/>
          <g id="Group_4" data-name="Group 4" transform="translate(1240.83 998.162)" style="mix-blend-mode: screen;isolation: isolate">
            <path id="Path_210" data-name="Path 210" d="M270.183,271.332a5.982,5.982,0,0,1-6.033-5.983,6.083,6.083,0,0,1,10.306-4.273,5.882,5.882,0,0,1,1.76,4.273,6.032,6.032,0,0,1-1.76,4.273,6.184,6.184,0,0,1-4.273,1.709Z" transform="translate(-78.998 -259.371)" fill="url(#radial-gradient-61)"/>
            <path id="Path_211" data-name="Path 211" d="M297.436,796.935h0a6.033,6.033,0,0,1,.8-8.5h0a5.932,5.932,0,0,1,8.446.754h0a6.033,6.033,0,0,1-.7,8.446h0a5.832,5.832,0,0,1-3.921,1.458h0a6.033,6.033,0,0,1-4.625-2.161Zm-11.563-14.479h0a6.083,6.083,0,0,1,1.207-8.446h0a5.983,5.983,0,0,1,8.446,1.206h0a5.983,5.983,0,0,1-1.207,8.4h0a6.034,6.034,0,0,1-3.62,1.206h0a6.033,6.033,0,0,1-4.826-2.363Zm-10.608-15.435a6.033,6.033,0,0,1,1.91-8.3h0a6.033,6.033,0,0,1,8.3,1.86h0a6.033,6.033,0,0,1-1.91,8.3h0a5.731,5.731,0,0,1-3.218.955h0a5.983,5.983,0,0,1-5.078-2.815Zm-9.2-16.591a6.083,6.083,0,0,1,2.966-8.044h0a5.982,5.982,0,0,1,7.943,2.916h0a5.932,5.932,0,0,1-2.866,7.994h0a5.833,5.833,0,0,1-2.564.6h0a6.134,6.134,0,0,1-5.48-3.469Zm-6.586-18.149a5.983,5.983,0,0,1,4.324-7.34h0a6.033,6.033,0,0,1,7.34,4.323h0a6.083,6.083,0,0,1-4.324,7.34h0a5.017,5.017,0,0,1-1.508,0h0a6.033,6.033,0,0,1-5.832-4.324Zm-2.664-19.406a6.033,6.033,0,0,1,5.983-6.083h0a5.983,5.983,0,0,1,6.083,5.932h0a6.033,6.033,0,0,1-5.983,6.083h0a6.033,6.033,0,0,1-6.084-5.932Zm6.686-12.318a5.933,5.933,0,0,1-4.726-7.089h0a5.882,5.882,0,0,1,7.089-4.625h0a5.883,5.883,0,0,1,4.625,7.089h0a6.033,6.033,0,0,1-5.882,4.776h0a3.471,3.471,0,0,1-1.106-.151Zm4.273-17.7A5.933,5.933,0,0,1,264,675.27h0a5.882,5.882,0,0,1,7.541-3.771h0a5.932,5.932,0,0,1,3.821,7.592h0a6.033,6.033,0,0,1-5.731,4.072h0a5.027,5.027,0,0,1-1.86-.3Zm5.983-17.194a6.033,6.033,0,0,1-3.67-7.692h0a5.932,5.932,0,0,1,7.692-3.62h0a6.134,6.134,0,0,1,3.67,7.692h0a6.133,6.133,0,0,1-5.731,3.972h0a5.379,5.379,0,0,1-1.86-.352Zm6.033-17.144a6.033,6.033,0,0,1-3.972-7.541h0a5.982,5.982,0,0,1,7.491-3.972h0a5.982,5.982,0,0,1,4.022,7.441h0a6.084,6.084,0,0,1-5.782,4.274h0a6.738,6.738,0,0,1-1.76-.2Zm5.027-17.546a5.983,5.983,0,0,1-4.575-7.139h0a6.033,6.033,0,0,1,7.189-4.575h0a6.083,6.083,0,0,1,4.625,7.139h0a6.033,6.033,0,0,1-5.882,4.776h0a4.227,4.227,0,0,1-1.257-.2Zm3.67-17.8a5.983,5.983,0,0,1-5.027-6.737h0a5.983,5.983,0,0,1,6.737-5.028h0a5.932,5.932,0,0,1,5.027,6.686h0a5.932,5.932,0,0,1-5.932,5.279h-.8Zm2.061-18.1a6.084,6.084,0,0,1-5.782-6.285h0a6.033,6.033,0,0,1,6.285-5.781h0a6.033,6.033,0,0,1,5.731,6.284h0a5.983,5.983,0,0,1-5.983,5.782h-.251ZM284.717,571.1a6.033,6.033,0,0,1,5.782-6.234h0a5.882,5.882,0,0,1,6.234,5.681h0a5.983,5.983,0,0,1-5.681,6.284h-.3a6.083,6.083,0,0,1-5.933-5.732Zm-1.307-17.747h0a6.083,6.083,0,0,1,5.53-6.687h0a6.083,6.083,0,0,1,6.636,5.279h0a6.033,6.033,0,0,1-5.329,6.686h-.654a5.933,5.933,0,0,1-6.083-5.279Zm-2.614-17.7a6.083,6.083,0,0,1,5.027-6.988h0a5.983,5.983,0,0,1,6.938,5.028h0a6.033,6.033,0,0,1-5.027,6.988h-1.006a6.033,6.033,0,0,1-5.832-5.028Zm-3.469-17.6a5.882,5.882,0,0,1,4.475-7.139h0a5.983,5.983,0,0,1,7.24,4.525h0a6.033,6.033,0,0,1-4.575,7.189h0a5.764,5.764,0,0,1-1.307,0h0a5.933,5.933,0,0,1-5.732-4.575Zm-4.424-17.5a6.033,6.033,0,0,1,4.324-7.29h0a6.083,6.083,0,0,1,7.39,4.273h0a6.033,6.033,0,0,1-4.374,7.34h0a5.021,5.021,0,0,1-1.508,0h0A6.033,6.033,0,0,1,273,500.565Zm-4.324-17.9a5.983,5.983,0,0,1,4.575-7.139h0a5.932,5.932,0,0,1,7.189,4.525h0a6.033,6.033,0,0,1-4.525,7.189h-1.357a5.982,5.982,0,0,1-5.631-4.575Zm-3.72-18h0a5.983,5.983,0,0,1,4.726-7.039h0a5.933,5.933,0,0,1,7.038,5.027h0A5.983,5.983,0,0,1,271.9,469.7H270.74a6.033,6.033,0,0,1-5.782-5.028Zm-3.218-18.149a6.083,6.083,0,0,1,5.027-6.888h0a5.983,5.983,0,0,1,6.837,5.027h0a5.983,5.983,0,0,1-5.027,6.837h-.9a6.033,6.033,0,0,1-5.832-4.977Zm-2.463-18.3a6.033,6.033,0,0,1,5.028-6.687h0a6.033,6.033,0,0,1,6.686,5.028h0a5.982,5.982,0,0,1-5.027,6.686h-.7a5.983,5.983,0,0,1-5.882-5.028Zm-1.76-18.451a6.083,6.083,0,0,1,5.58-6.435h0a6.083,6.083,0,0,1,6.435,5.631h0a6.033,6.033,0,0,1-5.53,6.435h-.1a6.033,6.033,0,0,1-6.284-5.631Zm-.855-18.451h0a5.983,5.983,0,0,1,5.832-6.184h0a6.083,6.083,0,0,1,6.184,5.882h0a6.033,6.033,0,0,1-5.882,6.133h0a5.882,5.882,0,0,1-6.034-5.832Zm5.832-12.368a5.983,5.983,0,0,1-5.832-6.184h0a5.983,5.983,0,0,1,6.184-5.832h0a5.932,5.932,0,0,1,5.832,6.133h0a6.033,6.033,0,0,1-6.033,5.832h0Zm.7-18.2a6.033,6.033,0,0,1-5.48-6.486h0a5.983,5.983,0,0,1,6.586-5.48h0a5.932,5.932,0,0,1,5.379,6.486h0a5.932,5.932,0,0,1-5.932,5.48H263.1Zm1.81-18.149a5.933,5.933,0,0,1-5.028-6.888h0a5.983,5.983,0,0,1,6.837-5.027h0a6.033,6.033,0,0,1,5.028,6.938h0a5.933,5.933,0,0,1-5.882,5.028h0Zm3.067-18a5.982,5.982,0,0,1-4.474-7.189h0a5.983,5.983,0,0,1,7.24-4.475h0a5.983,5.983,0,0,1,4.475,7.24h0a6.033,6.033,0,0,1-5.832,4.626h0a4.121,4.121,0,0,1-1.307-.2Zm4.475-17.6a6.083,6.083,0,0,1-3.821-7.642h0a5.983,5.983,0,0,1,7.642-3.821h0a6.083,6.083,0,0,1,3.821,7.642h0a6.134,6.134,0,0,1-5.731,4.123h0a8.392,8.392,0,0,1-1.81-.3Zm6.435-17.244a5.882,5.882,0,0,1-3.016-7.944h0a5.982,5.982,0,0,1,7.943-3.016h0a6.134,6.134,0,0,1,2.966,8.044h0a5.983,5.983,0,0,1-5.48,3.469h0A5.882,5.882,0,0,1,278.885,289.762Zm7.843-16.44a6.033,6.033,0,0,1-1.911-8.3h0a5.983,5.983,0,0,1,8.3-1.86h0a6.033,6.033,0,0,1,1.961,8.3h0a6.084,6.084,0,0,1-5.028,2.765h0a6.386,6.386,0,0,1-3.569-.905Z" transform="translate(-109.569 -247.887)" fill="url(#radial-gradient-62)"/>
            <path id="Path_212" data-name="Path 212" d="M272.923,381.331a5.731,5.731,0,0,1-4.273-1.76,6.033,6.033,0,0,1-1.81-4.274,5.882,5.882,0,0,1,1.81-4.223,6.184,6.184,0,0,1,8.446,0,5.833,5.833,0,0,1,1.76,4.223,5.983,5.983,0,0,1-1.76,4.274,5.682,5.682,0,0,1-4.173,1.76Z" transform="translate(-68.164 183.805)" fill="url(#radial-gradient-63)"/>
            <path id="Path_213" data-name="Path 213" d="M254.373,296.731a5.831,5.831,0,0,1-4.173-1.709,5.932,5.932,0,0,1-1.81-4.273,5.73,5.73,0,0,1,1.81-4.223,6.083,6.083,0,0,1,8.446,0,5.68,5.68,0,0,1,1.76,4.223,5.933,5.933,0,0,1-6.033,5.983Z" transform="translate(-142.471 -156.87)" fill="url(#radial-gradient-64)"/>
            <path id="Path_214" data-name="Path 214" d="M241.525,666.3h0a5.983,5.983,0,0,1,5.379-6.586h0a6.033,6.033,0,0,1,6.586,5.43h0a6.083,6.083,0,0,1-5.48,6.586h-.452A5.933,5.933,0,0,1,241.525,666.3Zm-.9-18.7a6.033,6.033,0,0,1,5.983-5.983h0a6.033,6.033,0,0,1,6.033,6.083h0a5.983,5.983,0,0,1-6.033,5.983h0A6.033,6.033,0,0,1,240.62,647.6Zm6.284-12.066a5.983,5.983,0,0,1-5.379-6.485h0a6.033,6.033,0,0,1,6.536-5.48h0a6.033,6.033,0,0,1,5.43,6.536h0a6.083,6.083,0,0,1-5.983,5.48h-.6Zm1.961-18a6.033,6.033,0,0,1-5.027-6.938h0a5.932,5.932,0,0,1,6.938-5.028h0A6.083,6.083,0,0,1,255.8,612.5h0a6.134,6.134,0,0,1-5.983,5.028h-1.006Zm3.218-17.848a5.932,5.932,0,0,1-4.475-7.189h0a5.933,5.933,0,0,1,7.139-4.525h0a5.983,5.983,0,0,1,4.575,7.189h0a6.033,6.033,0,0,1-5.882,4.625h0Zm4.173-17.6a6.033,6.033,0,0,1-4.374-7.34h0a5.982,5.982,0,0,1,7.34-4.324h0a5.933,5.933,0,0,1,4.324,7.24h0a6.033,6.033,0,0,1-5.832,4.575h0a6.831,6.831,0,0,1-1.458-.151Zm4.475-17.6a6.033,6.033,0,0,1-4.475-7.29h0a5.983,5.983,0,0,1,7.29-4.424h0a6.033,6.033,0,0,1,4.424,7.29h0a5.983,5.983,0,0,1-5.832,4.625h0a4.531,4.531,0,0,1-1.408-.2Zm4.173-17.646a6.033,6.033,0,0,1-4.676-7.089h0a5.983,5.983,0,0,1,7.089-4.676h0a6.033,6.033,0,0,1,4.726,7.089h0a6.184,6.184,0,0,1-5.932,5.027h0Zm3.519-17.8a5.983,5.983,0,0,1-5.028-6.787h0a5.983,5.983,0,0,1,6.838-5.028h0a6.033,6.033,0,0,1,5.028,6.837h0a6.033,6.033,0,0,1-5.932,5.028h-.9Zm2.413-17.948a6.083,6.083,0,0,1-5.631-6.435h0a6.083,6.083,0,0,1,6.435-5.581h0a6.083,6.083,0,0,1,5.631,6.435h0a6.083,6.083,0,0,1-6.033,5.58Zm-5.028-24.082a6.033,6.033,0,0,1,5.983-6.083h0a6.084,6.084,0,0,1,6.083,5.983h0A6.083,6.083,0,0,1,271.841,493h0a5.983,5.983,0,0,1-6.033-5.983Zm-.8-17.6a6.033,6.033,0,0,1,5.53-6.536h0a5.932,5.932,0,0,1,6.435,5.48h0a6.134,6.134,0,0,1-5.53,6.536h-.5a5.983,5.983,0,0,1-5.932-5.48Zm-2.112-17.6a6.033,6.033,0,0,1,5.027-6.938h0a6.133,6.133,0,0,1,6.888,5.028h0a6.083,6.083,0,0,1-5.027,6.837h0a2.761,2.761,0,0,1-.9,0h0A5.982,5.982,0,0,1,262.892,451.826Zm-3.318-17.445a5.983,5.983,0,0,1,4.575-7.189h0a6.033,6.033,0,0,1,7.139,4.575h0a5.983,5.983,0,0,1-4.525,7.189h0a5.77,5.77,0,0,1-1.307,0h0a6.033,6.033,0,0,1-5.882-4.575Zm-4.223-17.546a6.033,6.033,0,0,1,4.474-7.29h0a6.033,6.033,0,0,1,7.189,4.525h0a5.983,5.983,0,0,1-4.424,7.239h0a7.282,7.282,0,0,1-1.408,0h0a5.982,5.982,0,0,1-5.832-4.474Zm-3.771-18.049a6.083,6.083,0,0,1,5.027-7.038h0a6.083,6.083,0,0,1,6.938,5.027h0a5.983,5.983,0,0,1-5.028,6.988h-1.005a5.983,5.983,0,0,1-5.933-4.977Zm-2.715-18.35h0a5.932,5.932,0,0,1,5.027-6.636h0a5.983,5.983,0,0,1,6.636,5.329h0a6.033,6.033,0,0,1-5.027,6.586h0a1.708,1.708,0,0,1-.7,0h0a6.033,6.033,0,0,1-5.932-5.279Zm-1.357-18.6h0a6.083,6.083,0,0,1,5.882-6.184h0a6.134,6.134,0,0,1,6.184,5.882h0a5.983,5.983,0,0,1-5.832,6.134h0a5.983,5.983,0,0,1-6.184-5.832Zm5.983-12.267a6.033,6.033,0,0,1-5.53-6.486h0a5.933,5.933,0,0,1,6.435-5.53h0a5.933,5.933,0,0,1,5.53,6.435h0a6.033,6.033,0,0,1-5.983,5.53h-.453Zm1.81-18.049a5.983,5.983,0,0,1-4.575-7.189h0a6.083,6.083,0,0,1,7.189-4.575h0a6.033,6.033,0,0,1,4.726,7.24h0a5.983,5.983,0,0,1-5.832,4.676h0a5.488,5.488,0,0,1-1.508-.151Zm4.525-17.6a5.983,5.983,0,0,1-3.117-7.943h0a6.083,6.083,0,0,1,7.994-3.017h0a6.033,6.033,0,0,1,3.067,7.943h0a6.083,6.083,0,0,1-5.581,3.569h0a5.783,5.783,0,0,1-2.363-.553Zm8.044-16.239a6.033,6.033,0,0,1-.8-8.5h0a6.033,6.033,0,0,1,8.5-.7h0a6.033,6.033,0,0,1,.8,8.446h0a6.133,6.133,0,0,1-4.625,2.112h0a5.782,5.782,0,0,1-4.072-1.357Z" transform="translate(-173.765 -147.868)" fill="url(#radial-gradient-65)"/>
            <path id="Path_215" data-name="Path 215" d="M247.273,376.729a6.285,6.285,0,0,1-4.273-1.76,5.937,5.937,0,1,1,4.122,1.76Z" transform="translate(-171.066 165.332)" fill="url(#radial-gradient-66)"/>
            <path id="Path_216" data-name="Path 216" d="M233.295,309.875a5.83,5.83,0,0,1-4.223-1.759,6.033,6.033,0,0,1,0-8.5,6.234,6.234,0,0,1,8.5,0,5.832,5.832,0,0,1,1.76,4.223,5.983,5.983,0,0,1-1.76,4.273,5.782,5.782,0,0,1-4.273,1.76Z" transform="translate(-227.322 -104.003)" fill="url(#radial-gradient-67)"/>
            <path id="Path_217" data-name="Path 217" d="M229.1,635a5.983,5.983,0,0,1,5.027-6.737h0a5.933,5.933,0,0,1,6.737,5.027h0a5.983,5.983,0,0,1-5.028,6.787h-.8A6.033,6.033,0,0,1,229.1,635Zm5.028-13.172a6.033,6.033,0,0,1-5.932-6.134h0a5.983,5.983,0,0,1,6.134-5.882h0a6.033,6.033,0,0,1,5.932,6.134h0a6.133,6.133,0,0,1-6.033,5.882h-.1Zm.654-18.4a6.084,6.084,0,0,1-5.53-6.536h0a5.983,5.983,0,0,1,6.435-5.531h0a6.084,6.084,0,0,1,5.53,6.486h0a6.033,6.033,0,0,1-6.033,5.58h-.452Zm1.609-18.4a6.033,6.033,0,0,1-5.279-6.636h0a5.933,5.933,0,0,1,6.586-5.329h0a6.033,6.033,0,0,1,5.379,6.636h0a6.083,6.083,0,0,1-6.033,5.329Zm2.112-18.35a6.033,6.033,0,0,1-5.027-6.737h0a5.983,5.983,0,0,1,6.737-5.028h0a5.882,5.882,0,0,1,5.027,6.686h0a6.083,6.083,0,0,1-5.932,5.329h0a2.209,2.209,0,0,1-.7-.2Zm2.363-18.3a5.983,5.983,0,0,1-5.027-6.737h0a6.033,6.033,0,0,1,6.787-5.027h0a6.034,6.034,0,0,1,5.028,6.788h0a6.033,6.033,0,0,1-5.983,5.027h0a2.214,2.214,0,0,1-.7,0Zm2.464-18.3a5.882,5.882,0,0,1-5.028-6.737h0a6.083,6.083,0,0,1,6.787-5.027h0a6.133,6.133,0,0,1,5.027,6.837h0a6.033,6.033,0,0,1-6.033,5.027h0a2.053,2.053,0,0,1-.654-.05Zm2.514-18.2a6.134,6.134,0,0,1-5.027-6.837h0a5.983,5.983,0,0,1,6.787-5.027h0a5.932,5.932,0,0,1,5.028,6.737h0a5.983,5.983,0,0,1-5.932,5.028h-.8Zm2.464-18.3a6.083,6.083,0,0,1-5.028-6.737h0a6.084,6.084,0,0,1,6.837-5.028h0a5.933,5.933,0,0,1,5.027,6.737h0a5.882,5.882,0,0,1-5.932,5.027h-.9Zm2.463-18.3a5.983,5.983,0,0,1-5.027-6.737h0a5.983,5.983,0,0,1,6.737-5.027h0a5.983,5.983,0,0,1,5.027,6.737h0a5.933,5.933,0,0,1-5.932,5.027Zm2.413-18.25a6.033,6.033,0,0,1-5.028-6.737h0a5.983,5.983,0,0,1,6.737-5.028h0A5.983,5.983,0,0,1,259.914,452h0a6.083,6.083,0,0,1-5.983,5.279h-.754Zm2.363-18.3a5.983,5.983,0,0,1-5.279-6.686h0a5.982,5.982,0,0,1,6.636-5.279h0a6.033,6.033,0,0,1,5.329,6.687h0a5.982,5.982,0,0,1-6.033,5.278Zm1.961-18.35a6.033,6.033,0,0,1-5.53-6.435h0a6.033,6.033,0,0,1,6.536-5.53h0a6.033,6.033,0,0,1,5.53,6.435h0A6.084,6.084,0,0,1,258,420.38h-.5Zm1.357-18.4a6.033,6.033,0,0,1-5.832-6.234h0a6.033,6.033,0,0,1,6.184-5.832h0a6.083,6.083,0,0,1,5.832,6.284h0a5.982,5.982,0,0,1-6.033,5.781h-.151Zm-5.731-24.333a6.033,6.033,0,0,1,5.882-6.133h0a5.982,5.982,0,0,1,6.133,5.882h0a5.983,5.983,0,0,1-5.882,6.134h0a5.983,5.983,0,0,1-6.033-5.832ZM252.122,359.7a5.932,5.932,0,0,1,5.279-6.234h0a5.983,5.983,0,0,1,6.586,5.379h0a6.033,6.033,0,0,1-5.43,6.586h-.6a5.933,5.933,0,0,1-5.581-5.681ZM249.558,342a5.983,5.983,0,0,1,4.776-7.038h0a5.983,5.983,0,0,1,7.039,4.776h0a6.033,6.033,0,0,1-4.776,7.038h0a4.13,4.13,0,0,1-1.106,0h0a5.983,5.983,0,0,1-5.832-4.726Zm-4.575-16.892a6.134,6.134,0,0,1,3.67-7.743h0a6.133,6.133,0,0,1,7.742,3.72h0a6.133,6.133,0,0,1-3.67,7.692h0a7.333,7.333,0,0,1-2.011.352h0a6.084,6.084,0,0,1-5.631-3.971Zm-7.34-15.384a5.983,5.983,0,0,1,1.81-8.3h0a5.983,5.983,0,0,1,8.3,1.76h0a6.033,6.033,0,0,1-1.709,8.346h0a6.233,6.233,0,0,1-3.318,1.006h0a6.183,6.183,0,0,1-4.977-2.765Z" transform="translate(-223.827 -93.899)" fill="url(#radial-gradient-68)"/>
            <path id="Path_218" data-name="Path 218" d="M235.733,380.919a6.033,6.033,0,0,1-6.033-6.033,5.908,5.908,0,0,1,11.815,0,6.032,6.032,0,0,1-1.81,4.273,5.681,5.681,0,0,1-3.972,1.759Z" transform="translate(-217.745 182.407)" fill="url(#radial-gradient-69)"/>
          </g>
          <g id="Group_5" data-name="Group 5" transform="translate(917.2 697.966)" opacity="0.42" style="mix-blend-mode: overlay;isolation: isolate">
            <path id="Path_219" data-name="Path 219" d="M203.5,336.846a9.653,9.653,0,0,0,9.653-9.653,9.452,9.452,0,0,0-3.771-7.592c38.36-83.657,88.182-94.617,100.55-96.025a9.653,9.653,0,1,0,0-5.028c-13.122,1.207-65.005,11.463-105.175,99.192H203.6a9.653,9.653,0,0,0,0,19.306Zm115.632-120.66a4.575,4.575,0,1,1-4.1,4.55A4.575,4.575,0,0,1,319.134,216.187ZM203.5,322.568a4.55,4.55,0,1,0,0,.05Z" transform="translate(-38.097 -152.337)" fill="#fff"/>
            <path id="Path_220" data-name="Path 220" d="M381.859,215.74a9.653,9.653,0,0,0-8.647,5.43c-23.478-1.76-139.563-2.966-168.22,135.29a9.653,9.653,0,1,0,11.764,9.452,9.552,9.552,0,0,0-6.486-9.1c10.709-51.18,33.282-82.6,58.47-101.807l9.452,12.116a35.193,35.193,0,0,1-2.564,46.6c-21.116,21.166-47.007,60.782-51.28,129.156a9.653,9.653,0,1,0,5.028,0c4.223-66.665,29.31-105.125,49.772-125.687a40.22,40.22,0,0,0,2.916-53.291l-9.3-11.664c40.22-28.154,85.467-27.1,99.544-25.891a9.6,9.6,0,1,0,9.552-10.357ZM211.678,365.911a4.575,4.575,0,1,1-4.575-4.575,4.575,4.575,0,0,1,4.575,4.575Zm19.507,86.322a4.575,4.575,0,1,1-4.575-4.575,4.525,4.525,0,0,1,4.575,4.575ZM382.01,229.968a4.768,4.768,0,1,0-.151,0Z" transform="translate(-24.002 -134.897)" fill="#fff"/>
            <path id="Path_221" data-name="Path 221" d="M323.05,433.338h0a259.669,259.669,0,0,0-52.789-217.188,9.653,9.653,0,1,0-6.837,2.816,8.849,8.849,0,0,0,2.313-.3,254.139,254.139,0,0,1,52.336,213.618h.352a9.6,9.6,0,1,0,4.424.9Zm-64-223.975a4.575,4.575,0,1,1,4.575,4.575A4.575,4.575,0,0,1,259.05,209.364Zm59.877,237.247a4.575,4.575,0,1,1,4.575-4.575,4.575,4.575,0,0,1-4.575,4.575Z" transform="translate(202.926 -199.66)" fill="#fff"/>
            <path id="Path_222" data-name="Path 222" d="M192.768,275.957c-.553,12.619-2.313,83,22.724,123.174a9.653,9.653,0,1,0,7.139-3.167,10.315,10.315,0,0,0-2.815.453c-23.881-38.36-22.423-107.94-21.97-120.157a9.753,9.753,0,1,0-5.027-.3Zm34.438,129.659a4.575,4.575,0,1,1-4.575-4.575,4.575,4.575,0,0,1,4.575,4.575ZM195.785,262.232a4.575,4.575,0,1,1-4.575,4.575A4.575,4.575,0,0,1,195.785,262.232Z" transform="translate(-69.544 31.072)" fill="#fff"/>
            <path id="Path_223" data-name="Path 223" d="M344.32,431.475a9.552,9.552,0,0,0-7.491,3.62c-84.713-31.472-84.965-134.737-84.06-156.154a9.7,9.7,0,1,0-5.028,0c-.654,16.289-.452,74.709,31.522,118.749l-32.075,15.786a31.17,31.17,0,0,1-42.08-15.082,147.711,147.711,0,0,1-11.061-41.326,9.6,9.6,0,1,0-12.518-9.15,9.7,9.7,0,0,0,7.39,9.351,153.337,153.337,0,0,0,11.563,43.287,35.8,35.8,0,0,0,20.764,18.9,35.192,35.192,0,0,0,12.167,2.112,36.754,36.754,0,0,0,16.038-3.721l32.93-16.239a118.3,118.3,0,0,0,52.336,38.008,12.5,12.5,0,0,0,0,1.357,9.653,9.653,0,1,0,9.653-9.653ZM245.681,269.64a4.778,4.778,0,1,0,0-.151Zm-59.123,78.429a4.785,4.785,0,1,0,0-.151ZM344.32,445.7a4.495,4.495,0,1,0,0-.151Z" transform="translate(-88.119 42.819)" fill="#fff"/>
            <path id="Path_224" data-name="Path 224" d="M206.64,290.962a9.653,9.653,0,0,0-1.86,19.1,339.26,339.26,0,0,0,2.866,38.812,19.1,19.1,0,0,1-8.9,19.054l-14.529,8.949a166.711,166.711,0,0,1-3.771-44.041,9.653,9.653,0,1,0-5.027,0,171.939,171.939,0,0,0,4.625,48.565,155.852,155.852,0,0,0,22.02,51.683l4.123-2.966a152.884,152.884,0,0,1-20.764-47.962l16.038-10.055a24.283,24.283,0,0,0,11.262-24.132c-2.011-14.328-2.614-31.874-2.815-38.511a9.6,9.6,0,0,0-3.218-18.7Zm-33.584,32.679a4.575,4.575,0,1,1,4.575,4.575,4.575,4.575,0,0,1-4.575-4.575ZM206.64,305.19a4.575,4.575,0,1,1,4.575-4.575,4.575,4.575,0,0,1-4.575,4.575Z" transform="translate(-141.483 167.244)" fill="#fff"/>
            <path id="Path_225" data-name="Path 225" d="M189.295,413.486c-8.094-38.762-13.071-101.053-14.278-117.241a9.552,9.552,0,1,0-5.027,0c1.156,15.836,6.134,78.026,14.228,117.291a9.584,9.584,0,1,0,5.128-.252ZM167.626,287.095a4.575,4.575,0,1,1,4.575,4.525,4.575,4.575,0,0,1-4.575-4.525Zm19.557,140.317a4.575,4.575,0,1,1,4.525-4.525,4.525,4.525,0,0,1-4.525,4.525Z" transform="translate(-162.95 113.748)" fill="#fff"/>
            <path id="Path_226" data-name="Path 226" d="M283.7,347.057A9.452,9.452,0,0,0,276,351.029a88.182,88.182,0,0,1-58.419-56.961,9.653,9.653,0,1,0-5.027,1.508h.3a93.461,93.461,0,0,0,61.436,60.33v.955a9.653,9.653,0,1,0,9.653-9.653Zm-75.865-61.134a4.575,4.575,0,1,1,4.575,4.575,4.575,4.575,0,0,1-4.575-4.575ZM283.7,361.335a4.575,4.575,0,1,1,4.575-4.575,4.525,4.525,0,0,1-4.575,4.525Z" transform="translate(-2.659 108.887)" fill="#fff"/>
          </g>
          <circle id="Ellipse_6" data-name="Ellipse 6" cx="940.392" cy="940.392" r="940.392" transform="translate(0 1627.109) rotate(-45)" fill="url(#radial-gradient-70)" style="mix-blend-mode: screen;isolation: isolate"/>
          <circle id="Ellipse_7" data-name="Ellipse 7" cx="810.23" cy="810.23" r="810.23" transform="translate(73.001 1462.541) rotate(-45)" fill="url(#radial-gradient-71)" style="mix-blend-mode: screen;isolation: isolate"/>
        </g>
      </g>
    </g>
  </g>
</svg>
