<svg width="64" height="64" viewBox="0 0 64 64" fill="none" xmlns="http://www.w3.org/2000/svg">
<path d="M53 32C53 34.98 52.3658 37.9258 51.1395 40.6418C49.9132 43.3578 48.1229 45.7816 45.8875 47.7523C43.6522 49.723 41.0231 51.1954 38.1748 52.0717C35.3266 52.9479 32.3245 53.2079 29.368 52.8344" stroke="#1DADC8" stroke-width="4" stroke-linecap="round" stroke-linejoin="round"/>
<path d="M21.2031 13.9882C23.7591 12.4561 26.6118 11.4855 29.5718 11.1409C32.5318 10.7964 35.5312 11.0857 38.3708 11.9898C41.2103 12.8938 43.8249 14.3918 46.0409 16.3843C48.2568 18.3767 50.0233 20.818 51.223 23.5458" stroke="#1DADC8" stroke-width="4" stroke-linecap="round" stroke-linejoin="round"/>
<path d="M21.5 50.1867C18.9193 48.6967 16.6852 46.6745 14.9462 44.2545C13.2073 41.8345 12.0033 39.0721 11.4143 36.1509C10.8253 33.2297 10.8647 30.2166 11.53 27.3119C12.1953 24.4071 13.4712 21.6772 15.2729 19.3035" stroke="#1DADC8" stroke-width="4" stroke-linecap="round" stroke-linejoin="round"/>
<path d="M26.9959 26.44C28.1159 26.44 29.0439 26.6693 29.7799 27.128C30.5265 27.576 31.0812 28.2053 31.4439 29.016C31.8172 29.8267 32.0039 30.7653 32.0039 31.832C32.0039 32.888 31.8172 33.8213 31.4439 34.632C31.0812 35.4427 30.5265 36.0773 29.7799 36.536C29.0439 36.984 28.1159 37.208 26.9959 37.208C25.8759 37.208 24.9425 36.984 24.1959 36.536C23.4599 36.0773 22.9052 35.4427 22.5319 34.632C22.1692 33.8213 21.9879 32.888 21.9879 31.832C21.9879 30.7653 22.1692 29.8267 22.5319 29.016C22.9052 28.2053 23.4599 27.576 24.1959 27.128C24.9425 26.6693 25.8759 26.44 26.9959 26.44ZM26.9959 35.432C27.5719 35.432 28.0625 35.2933 28.4679 35.016C28.8839 34.7387 29.2039 34.3333 29.4279 33.8C29.6519 33.256 29.7639 32.6 29.7639 31.832C29.7639 31.0533 29.6519 30.4027 29.4279 29.88C29.2039 29.3467 28.8839 28.9413 28.4679 28.664C28.0625 28.3867 27.5719 28.248 26.9959 28.248C26.5692 28.248 26.1799 28.328 25.8279 28.488C25.4865 28.6373 25.1879 28.8667 24.9319 29.176C24.6865 29.4747 24.4945 29.848 24.3559 30.296C24.2279 30.744 24.1639 31.256 24.1639 31.832C24.1639 32.408 24.2279 32.92 24.3559 33.368C24.4945 33.816 24.6865 34.1947 24.9319 34.504C25.1879 34.8133 25.4865 35.048 25.8279 35.208C26.1799 35.3573 26.5692 35.432 26.9959 35.432ZM38.244 31.656V31.576C38.8733 31.5973 39.4493 31.6507 39.972 31.736C40.5053 31.8213 40.964 31.96 41.348 32.152C41.732 32.3333 42.0307 32.5893 42.244 32.92C42.4573 33.24 42.564 33.6507 42.564 34.152C42.564 34.7493 42.372 35.2827 41.988 35.752C41.6147 36.2107 41.0813 36.568 40.388 36.824C39.7053 37.08 38.8947 37.208 37.956 37.208C37.028 37.208 36.2173 37.0693 35.524 36.792C34.8413 36.504 34.3187 36.1147 33.956 35.624C33.5933 35.1227 33.428 34.552 33.46 33.912H35.476C35.4867 34.2213 35.604 34.4933 35.828 34.728C36.052 34.952 36.3507 35.128 36.724 35.256C37.0973 35.3733 37.508 35.432 37.956 35.432C38.724 35.432 39.316 35.304 39.732 35.048C40.148 34.7813 40.356 34.3867 40.356 33.864C40.356 33.352 40.116 32.9627 39.636 32.696C39.156 32.4187 38.4787 32.28 37.604 32.28H36.244V31.112H37.604C38.2227 31.112 38.7187 31.0533 39.092 30.936C39.4653 30.8187 39.7373 30.648 39.908 30.424C40.0893 30.2 40.18 29.928 40.18 29.608C40.18 29.1707 39.9827 28.8293 39.588 28.584C39.1933 28.3387 38.6493 28.216 37.956 28.216C37.2733 28.216 36.7133 28.3493 36.276 28.616C35.8387 28.8827 35.6093 29.2347 35.588 29.672H33.572C33.54 29.1707 33.6307 28.7227 33.844 28.328C34.068 27.9227 34.3827 27.5813 34.788 27.304C35.204 27.0267 35.6787 26.8133 36.212 26.664C36.756 26.5147 37.3373 26.44 37.956 26.44C38.8733 26.44 39.6627 26.5573 40.324 26.792C40.9853 27.0267 41.492 27.3573 41.844 27.784C42.196 28.2 42.372 28.6907 42.372 29.256C42.372 29.7253 42.2707 30.1147 42.068 30.424C41.8653 30.7333 41.5773 30.9787 41.204 31.16C40.8307 31.3307 40.3933 31.4533 39.892 31.528C39.3907 31.6027 38.8413 31.6453 38.244 31.656Z" fill="white"/>
</svg>
