<svg width="24" height="20" viewBox="0 0 24 20" fill="none" xmlns="http://www.w3.org/2000/svg">
<path d="M24 2.30996C23.1002 2.70613 22.1464 2.96566 21.17 3.07996C22.1992 2.46647 22.9704 1.49979 23.34 0.359957C22.3709 0.92973 21.3128 1.33204 20.21 1.54996C19.4667 0.760739 18.484 0.238536 17.4139 0.0641804C16.3439 -0.110175 15.2463 0.0730398 14.2909 0.585466C13.3355 1.09789 12.5756 1.91095 12.129 2.89879C11.6823 3.88663 11.5737 4.99417 11.82 6.04996C9.86182 5.95014 7.94648 5.44014 6.19799 4.55297C4.4495 3.66581 2.90686 2.42127 1.66997 0.899957C1.04078 1.9848 0.847748 3.26833 1.13001 4.49025C1.41228 5.71217 2.14872 6.78099 3.18997 7.47996C2.42201 7.4444 1.67259 7.23224 0.999966 6.85996C0.990569 8.01391 1.38546 9.13473 2.1161 10.028C2.84675 10.9212 3.86705 11.5304 4.99997 11.75C4.27607 11.9477 3.51622 11.975 2.77997 11.83C3.09325 12.8092 3.70542 13.6656 4.53048 14.279C5.35553 14.8924 6.35202 15.232 7.37997 15.25C6.35613 16.0465 5.1852 16.6331 3.93425 16.9763C2.68329 17.3195 1.37692 17.4125 0.0899658 17.25C2.31174 18.6948 4.89981 19.4754 7.54997 19.5C9.44688 19.5134 11.3265 19.139 13.0735 18.3997C14.8205 17.6604 16.3979 16.5719 17.709 15.2009C19.02 13.8299 20.037 12.2054 20.6975 10.4271C21.3581 8.64888 21.6481 6.75438 21.55 4.85996C22.5101 4.16049 23.3395 3.29729 24 2.30996Z" fill="#EFF2F5"/>
</svg>
