<svg width="303" height="256" viewBox="0 0 303 256" fill="none" xmlns="http://www.w3.org/2000/svg">
<path d="M26.8692 24.4771L8.01147 52.8468C-6.35632 74.3935 -1.6868 108.15 24.3548 145.318C68.1766 207.803 156.539 257.002 221.014 255.026C247.056 254.308 265.375 245.151 275.073 230.607L293.931 202.237C284.232 216.781 265.913 225.759 239.872 226.657C175.217 228.632 87.0343 179.433 43.2126 116.948C16.9913 79.6006 12.5014 46.0237 26.8692 24.4771Z" fill="url(#paint0_linear_140_4052)"/>
<path d="M80.928 0.237137C16.2729 2.21225 -0.609283 54.6425 43.3921 117.128C87.2139 179.613 175.576 228.811 240.051 226.836C304.706 224.861 321.589 172.431 277.767 109.946C233.945 47.4603 145.583 -1.73797 81.1076 0.237137H80.928Z" fill="#009CFF"/>
<path d="M84.8791 5.80311C146.301 3.828 229.994 50.5124 271.84 109.945C313.507 169.378 297.522 219.115 236.1 220.911C174.678 222.886 90.9854 176.201 49.1392 116.769C7.47256 57.3356 23.4567 7.59866 84.8791 5.80311Z" fill="#14172B"/>
<path d="M18.967 54.822C18.967 54.822 18.967 53.206 18.967 52.3083C18.967 51.9491 18.967 51.59 18.967 51.4105V50.8718C18.967 49.4353 18.967 48.1785 19.1466 46.9216V46.5625C19.1466 46.5625 19.1466 45.8443 19.3262 45.3056V44.9465C19.3262 44.9465 19.3262 43.6896 19.5058 43.1509V42.7918C19.5058 42.7918 19.6855 41.894 19.8651 41.3554C19.8651 41.3554 19.865 40.278 20.2242 39.9189V39.3802C20.2242 39.3802 20.5834 38.1234 20.5834 37.5847C20.5834 37.046 20.9426 36.5073 21.1222 36.1482V35.7891H21.3018C21.3018 35.7891 21.661 34.7118 21.661 34.3527C21.661 34.3527 21.661 33.814 22.0202 33.6345L22.3794 32.7367V32.1981C22.3794 32.1981 22.9182 31.3002 23.0978 30.9411V30.4025C23.0978 30.4025 23.6366 29.6842 23.8162 29.3251V28.7865L24.5346 27.8887V27.3501H24.8937V26.8113L25.6122 26.0932L25.9713 25.5545V25.0158L26.5101 24.6567V24.2976L27.0489 23.9385C27.7673 22.8611 28.4857 21.7838 29.3837 20.886C29.9225 20.1678 30.4613 19.6291 31.0001 18.9109C31.3593 18.5518 31.7185 18.1927 32.0777 17.8336C32.6165 17.2949 33.1552 16.7563 33.8736 16.038C34.4124 15.6789 34.7716 15.1403 35.3104 14.7812L36.2084 14.0629C36.2084 14.0629 37.286 13.1651 37.8248 12.806C41.0575 10.4718 44.6494 8.31718 48.6006 6.52162C49.8578 5.98296 51.2946 5.44429 52.7314 4.90562C54.1682 4.36696 55.6049 3.82826 57.0417 3.46915C58.1193 3.11004 59.0173 2.93049 60.0949 2.57138C61.1724 2.39183 62.25 2.0327 63.3276 1.85314C64.4052 1.67359 65.4828 1.49406 66.5603 1.3145C67.6379 1.13494 68.7155 0.955411 69.9727 0.775855C71.7687 0.5963 73.3851 0.416698 75.181 0.237143C76.4382 0.237143 77.6954 0.237173 78.773 0.0576172C79.3118 0.0576172 80.0302 0.0576172 80.569 0.0576172C81.1077 0.0576172 81.6465 0.0576172 82.3649 0.0576172C87.2141 0.0576172 92.0632 0.0575953 96.9123 0.596262C100.325 0.955373 103.737 1.31448 107.149 1.85314C108.586 2.0327 110.023 2.39183 111.46 2.57138C114.333 3.11005 117.386 3.64869 120.26 4.36691C121.517 4.72602 122.954 4.90563 124.211 5.26474C124.57 5.26474 125.109 5.44424 125.468 5.62379C126.546 5.9829 127.623 6.16251 128.701 6.52162C129.779 6.88074 130.856 7.06028 131.934 7.41939C133.011 7.7785 133.909 7.95804 134.987 8.31715H135.346C136.424 8.67626 137.322 9.0354 138.399 9.39451H138.759C139.836 9.75362 140.914 10.2923 142.171 10.6514C142.889 11.0105 143.787 11.19 144.506 11.5492C145.583 11.9083 146.661 12.2674 147.559 12.6265C150.253 13.5243 152.767 14.6016 155.461 15.6789C157.616 16.5767 159.951 17.4745 162.106 18.5518C164.261 19.4496 166.596 20.527 168.751 21.6043C170.547 22.5021 172.523 23.3998 174.319 24.2976C179.527 26.8114 184.735 29.6842 189.764 32.5571C191.201 33.2753 192.458 34.1731 193.895 34.8913C195.871 35.9687 197.666 37.2255 199.462 38.3029C201.258 39.3802 202.875 40.4576 204.671 41.5349C207.185 43.1509 209.7 44.9465 212.214 46.5625C215.985 49.0763 219.577 51.7696 223.169 54.6425C225.145 56.2585 227.12 57.6949 229.096 59.3109C229.994 60.0291 231.072 60.9269 231.97 61.6451C234.843 63.9794 237.717 66.4931 240.59 69.0069C247.056 74.7527 253.342 80.8575 259.089 87.142C259.987 88.0398 260.705 88.9376 261.603 89.8353C267.171 96.1198 272.379 102.763 277.228 109.407C281.898 116.05 285.849 122.514 289.082 128.799C290.518 131.672 291.955 134.365 293.033 137.058C293.392 137.777 293.571 138.495 293.931 139.033C294.469 140.47 295.008 141.727 295.547 143.163C296.086 144.6 296.445 145.857 296.984 147.114C297.343 148.37 297.882 149.807 298.241 151.064C302.731 166.506 302.731 180.331 298.6 191.823C298.241 193.08 297.702 194.157 297.163 195.414C296.804 196.132 296.445 197.03 296.086 197.748C295.727 198.466 295.188 199.185 294.829 199.903C294.469 200.441 294.11 201.16 293.572 201.698C293.572 201.698 293.212 202.596 292.853 202.955C292.494 203.494 291.955 204.212 291.416 204.751L290.878 205.29V205.649C290.878 205.649 289.98 206.367 289.62 206.726C289.62 206.726 289.082 207.444 288.722 207.803L288.184 208.342L287.824 208.701L287.286 209.24C287.286 209.24 286.567 209.958 286.208 210.317C285.849 210.676 285.49 210.856 285.13 211.215L284.771 211.574C284.771 211.574 284.053 212.113 283.694 212.472C283.334 212.651 283.155 213.01 282.796 213.19C282.436 213.369 282.257 213.549 281.898 213.729C280.82 214.447 279.922 215.165 278.845 215.704L278.485 216.063L277.587 216.601H277.228V216.961C277.228 216.961 276.689 217.14 276.51 217.32C275.971 217.679 275.432 217.858 274.893 218.217C274.893 218.217 273.995 218.577 273.636 218.756L272.918 219.115C272.918 219.115 272.02 219.474 271.481 219.654H270.942C270.942 219.654 270.224 220.193 269.685 220.372C269.146 220.552 268.428 220.911 267.709 221.09C267.171 221.27 266.452 221.449 265.914 221.629C265.375 221.809 264.656 221.988 263.938 222.168C262.86 222.527 261.783 222.886 260.526 223.065H260.346C260.346 223.065 259.628 223.245 259.268 223.425H258.73C258.73 223.425 257.832 223.784 257.472 223.784C256.215 224.143 254.958 224.322 253.521 224.502C252.982 224.502 252.444 224.502 251.905 224.681C251.546 224.681 251.187 224.681 250.827 224.681C249.57 224.861 248.133 225.041 246.876 225.22C246.158 225.22 245.619 225.22 244.901 225.22H244.362C244.362 225.22 242.925 225.22 242.207 225.22H241.668C241.668 225.22 240.411 225.22 239.872 225.22C231.61 225.4 223.169 224.861 214.369 223.604C212.214 223.245 210.059 222.886 207.904 222.527C205.748 222.168 203.593 221.629 201.438 221.27C199.283 220.731 197.128 220.193 194.793 219.654C189.225 218.217 183.837 216.602 178.27 214.626C176.115 213.908 173.78 213.01 171.625 212.292C163.902 209.419 156 206.008 148.277 202.237C143.787 200.082 139.477 197.748 134.987 195.414C133.909 194.875 132.832 194.157 131.754 193.618C129.599 192.361 127.444 191.105 125.289 189.848C124.211 189.13 123.134 188.591 122.056 187.873C119.901 186.616 117.746 185.179 115.59 183.743C113.435 182.306 111.46 181.05 109.305 179.613C105.174 176.74 101.043 173.867 97.0919 170.635C95.1163 169.199 93.1408 167.583 91.1652 165.967C90.2672 165.249 89.1896 164.351 88.2916 163.633C85.4181 161.298 82.5445 158.785 79.671 156.271C65.6624 143.702 53.2701 130.056 43.2127 115.871C38.5432 109.227 34.592 102.763 31.3593 96.4789C29.9225 93.606 28.4857 90.9127 27.4081 88.2193C27.049 87.5011 26.8693 86.7829 26.5101 86.2442C25.4326 83.5509 24.3549 80.8575 23.457 78.1642C23.0978 76.9073 22.559 75.4709 22.1998 74.214C21.3018 70.982 20.5834 67.75 19.8651 64.518C19.3263 60.9269 18.967 57.3358 18.7874 54.1038L18.967 54.822ZM49.1394 116.769C90.806 176.202 174.498 222.886 236.1 220.911C297.523 218.936 313.686 169.378 271.84 109.946C242.386 68.1091 192.279 32.5571 143.608 15.8584C124.032 9.03534 104.635 5.44424 87.0345 5.62379C86.3161 5.62379 85.5977 5.62379 84.8793 5.62379C63.148 6.34201 47.1638 12.806 37.4656 23.7589C28.3061 33.9936 24.5345 47.8194 26.5101 64.1589C28.4857 79.7802 36.0288 97.7357 49.1394 116.589V116.769Z" fill="#009CFF"/>
<path d="M91.165 14.9604H92.0629L95.4753 19.9881H94.5773C94.5773 19.9881 92.9609 19.9881 92.0629 19.9881L88.2914 14.9604C88.2914 14.9604 90.0874 14.9604 90.8058 14.9604H91.165ZM84.5199 15.3196L88.471 20.3471C87.573 20.3471 86.675 20.5267 85.7771 20.7062L81.8259 15.6787C82.7239 15.6787 83.6219 15.4991 84.6995 15.3196H84.5199ZM77.8748 16.2173L82.1851 21.2449C81.1075 21.4245 80.0299 21.604 78.9523 21.9631L74.642 16.9356C75.7196 16.756 76.7972 16.3969 78.0544 16.2173H77.8748ZM114.872 16.5765L117.207 21.6041C115.949 21.4245 114.513 21.2449 113.255 21.0653L110.741 16.0378C112.178 16.2174 113.615 16.3969 114.872 16.5765ZM120.799 17.6538L122.774 22.5018C121.337 22.1427 120.08 21.9631 118.643 21.7836L116.488 16.756C117.925 16.9356 119.362 17.2947 120.799 17.4742V17.6538ZM129.778 19.6289L131.215 24.1178V24.4769H130.856C129.778 24.1178 128.521 23.7587 127.444 23.5791L125.648 18.7312C127.084 19.0903 128.342 19.4493 129.778 19.8085V19.6289ZM60.6334 21.7836L65.8417 26.452C65.8417 26.452 64.405 27.1703 63.6866 27.7089L58.4783 23.0405C58.4783 23.0405 60.0946 22.1427 60.813 21.7836H60.6334ZM135.705 21.2449H136.424L137.681 26.2725C136.244 25.9134 134.807 25.3747 133.37 25.0156L132.832 23.2201L131.934 20.3471C133.191 20.7062 134.448 21.0653 135.705 21.4245V21.2449ZM57.0415 23.7587L62.2498 28.4271C62.2498 28.4271 60.813 29.3249 60.0946 29.8636L54.7067 25.3747C54.7067 25.3747 56.1435 24.2973 57.0415 23.9382V23.7587ZM52.1923 27.1702L57.7598 31.6591C57.7598 31.6591 56.3231 32.7365 55.7843 33.4547L50.0372 29.1454C50.0372 29.1454 51.4739 27.8885 52.1923 27.3498V27.1702ZM157.616 28.9658V33.2751C156.359 32.7365 154.922 32.0183 153.485 31.4796L153.126 26.9907C154.563 27.5294 156.179 28.2476 157.616 28.7862V28.9658ZM162.645 31.1205C164.082 31.8387 165.518 32.3774 166.955 33.0956L166.596 37.2254C165.159 36.5071 163.902 35.9684 162.465 35.4298V31.1205H162.645ZM43.7513 36.6867L49.678 40.6369C49.678 40.6369 48.78 42.0734 48.4208 42.9711L42.3145 39.2005C42.3145 39.2005 43.2125 37.5845 43.7513 36.8663V36.6867ZM169.11 34.1729C170.547 34.8911 171.804 35.4298 173.241 36.148L172.523 40.0983C171.265 39.38 170.008 38.8414 168.751 38.1231L169.11 33.9934V34.1729ZM41.7757 40.2778L47.882 44.0485C47.882 44.0485 47.1636 45.4849 46.8044 46.2031L40.6981 42.612C40.6981 42.612 41.4165 40.996 41.7757 40.2778ZM39.6205 45.4849L45.7268 48.8964C45.7268 48.8964 45.188 50.5125 45.0084 51.4103L38.7225 47.9987C38.9021 47.1009 39.2613 46.2032 39.6205 45.3054V45.4849ZM38.5429 49.2556L44.8288 52.4876C44.8288 52.4876 44.4696 54.2831 44.29 55.1809L38.0042 51.9489C38.0042 51.0511 38.3633 50.1534 38.5429 49.076V49.2556ZM194.254 47.9987C195.691 48.8965 197.127 49.7943 198.564 50.692L196.589 53.924C195.152 53.0263 193.895 52.1285 192.458 51.2307L194.254 47.8192V47.9987ZM203.413 53.924C204.491 54.6423 205.569 55.3604 206.826 56.2582L204.491 59.1312C203.413 58.4129 202.336 57.6947 201.258 56.9765L203.413 53.924ZM211.316 59.4902C212.573 60.388 214.01 61.4653 215.267 62.3631L212.393 65.0565C211.136 64.1587 209.879 63.2609 208.622 62.3631L211.136 59.4902H211.316ZM43.7513 68.6476C43.7513 69.5454 43.9308 70.6227 44.1104 71.5205L37.8246 69.1862C37.8246 68.1089 37.6449 67.2112 37.4653 66.1338L43.7513 68.6476ZM44.6492 74.932C44.6492 74.932 45.0084 76.548 45.188 77.4458L38.9021 75.4707C38.9021 75.4707 38.5429 73.6751 38.3633 72.7774L44.6492 74.932ZM46.086 81.0369C46.4452 82.1142 46.6248 83.1916 46.984 84.2689L40.8777 82.6529C40.5185 81.5756 40.1593 80.3187 39.8001 79.2414L45.9064 81.0369H46.086ZM233.406 77.6254C234.663 78.7027 235.921 79.9596 236.998 81.0369L233.047 82.6529C231.969 81.5756 230.712 80.4982 229.635 79.4209L233.406 77.6254ZM238.255 82.2938C239.512 83.3711 240.59 84.6281 241.668 85.7054L237.537 87.1418C236.459 86.0645 235.382 84.9871 234.304 83.9098L238.255 82.2938ZM245.439 89.6556C246.517 90.7329 247.415 91.8103 248.492 93.0672L244.002 94.1445C243.104 93.0671 242.027 91.9898 241.129 90.9124L245.439 89.6556ZM53.6291 100.07C54.1679 101.147 54.7067 102.045 55.2455 103.122L49.4984 102.584C48.9596 101.506 48.2412 100.429 47.7024 99.3516L53.4495 100.07H53.6291ZM250.109 94.8627C251.186 96.1196 252.264 97.3765 253.162 98.4538L248.313 99.1721C247.415 97.9152 246.337 96.8378 245.26 95.7605L249.929 94.8627H250.109ZM56.1435 104.918C56.6823 105.995 57.4007 107.073 58.119 108.15L52.5515 107.791C51.8331 106.713 51.1147 105.456 50.576 104.379L56.1435 104.918ZM60.4538 111.92C61.1722 112.998 61.8906 114.255 62.7886 115.332H57.5802C56.6823 114.255 55.9639 112.998 55.0659 111.741H60.4538V111.92ZM263.399 111.92C264.297 113.177 265.015 114.434 265.913 115.512H260.525C259.807 114.255 259.089 113.177 258.191 111.92H263.399ZM268.428 119.462C269.146 120.539 269.864 121.796 270.403 122.873L264.836 122.335C264.297 121.257 263.579 120.18 262.86 119.103L268.428 119.462ZM72.4869 127.901C73.3848 129.158 74.4624 130.235 75.54 131.312L70.8705 132.21C69.7929 130.953 68.7153 129.696 67.8173 128.44L72.6664 127.721L72.4869 127.901ZM271.301 124.489C271.84 125.567 272.558 126.644 273.097 127.721L267.35 127.003C266.811 125.926 266.272 125.028 265.734 123.951L271.481 124.489H271.301ZM76.7972 132.928C77.6952 134.006 78.7728 135.083 79.6707 136.16L75.3604 137.417C74.2828 136.34 73.3848 135.263 72.3073 134.006L76.7972 132.928ZM83.2627 139.752C84.3403 140.829 85.4179 141.906 86.4954 142.984L82.5443 144.6C81.2871 143.522 80.2095 142.265 79.1319 141.188L83.2627 139.752ZM87.7526 144.24C88.8302 145.318 90.0874 146.395 91.165 147.472L87.3934 149.268C86.1363 148.191 84.8791 146.934 83.8015 145.856L87.7526 144.24ZM279.922 144.24C280.281 145.318 280.64 146.575 280.999 147.652L274.893 145.856C274.534 144.779 274.354 143.702 273.995 142.624L280.101 144.24H279.922ZM281.897 151.423C281.897 151.423 282.257 153.218 282.436 154.116L276.15 151.961C276.15 151.961 275.791 150.345 275.612 149.448L281.897 151.423ZM282.975 157.707C282.975 158.784 283.155 159.682 283.334 160.76L277.048 158.246C277.048 157.348 276.869 156.271 276.689 155.373L282.975 157.707ZM108.406 162.017C109.664 162.914 110.921 163.812 112.178 164.71L109.664 167.403C108.406 166.505 106.97 165.428 105.712 164.53L108.586 161.837L108.406 162.017ZM116.488 167.942C117.566 168.66 118.643 169.378 119.721 170.096L117.566 173.149C116.488 172.431 115.411 171.533 114.153 170.815L116.488 167.942ZM124.211 173.149C125.648 174.047 126.905 174.945 128.342 175.842L126.546 179.254C125.109 178.356 123.672 177.458 122.235 176.56L124.211 173.328V173.149ZM276.51 171.892L282.795 175.124C282.795 176.022 282.436 176.92 282.257 177.997L275.971 174.765C275.971 174.765 276.33 172.969 276.51 172.072V171.892ZM275.791 175.483L282.077 178.895C281.897 179.792 281.538 180.69 281.359 181.588L275.252 178.176C275.252 178.176 275.791 176.56 275.971 175.663L275.791 175.483ZM273.995 180.69L280.101 184.281C280.101 184.281 279.383 185.897 279.024 186.616L272.918 182.845C272.918 182.845 273.636 181.408 273.995 180.69ZM148.277 186.795C149.534 187.513 150.791 188.052 152.048 188.591L151.689 192.72C150.253 192.002 148.995 191.464 147.559 190.745L148.277 186.795ZM272.379 183.922L278.485 187.693C278.485 187.693 277.587 189.309 277.048 190.027L271.122 186.077C271.122 186.077 272.02 184.64 272.379 183.743V183.922ZM154.024 189.668C155.461 190.207 156.718 190.925 158.155 191.464V195.593C156.538 194.875 155.102 194.336 153.665 193.618L154.024 189.488V189.668ZM167.135 195.234L167.494 199.723C166.057 199.184 164.441 198.466 163.004 197.928V193.618C164.261 194.157 165.698 194.875 167.135 195.414V195.234ZM264.836 193.618L270.403 197.928C270.403 197.928 268.966 199.184 268.248 199.723L262.681 195.234C262.681 195.234 264.117 194.157 264.656 193.439L264.836 193.618ZM260.525 197.209L265.913 201.698C265.913 201.698 264.477 202.776 263.579 203.135L258.37 198.466C258.37 198.466 259.807 197.568 260.525 197.03V197.209ZM187.429 202.057L188.866 206.905C187.429 206.546 185.813 206.008 184.376 205.649L183.119 200.98C184.556 201.339 185.992 201.878 187.429 202.237V202.057ZM257.293 199.364L262.501 204.033C262.501 204.033 260.885 204.93 260.166 205.289L254.958 200.621C254.958 200.621 256.395 199.903 257.113 199.364H257.293ZM193.356 203.494L195.152 208.342C193.715 207.983 192.458 207.624 191.021 207.265L189.405 202.417C190.662 202.776 192.099 203.135 193.356 203.314V203.494ZM201.977 205.289L204.311 210.317C202.875 210.137 201.438 209.778 200.001 209.599L198.025 204.751C199.462 205.11 200.719 205.289 202.156 205.469L201.977 205.289ZM207.365 206.187L209.879 211.215C208.442 211.215 207.005 210.856 205.748 210.676L203.413 205.649C204.671 205.828 206.107 206.008 207.365 206.187ZM241.668 205.289L245.978 210.317C244.9 210.496 243.823 210.856 242.566 211.035L238.255 206.008C239.333 205.828 240.41 205.648 241.488 205.289H241.668ZM234.843 206.546L238.794 211.574C237.896 211.574 236.998 211.753 235.921 211.933L231.969 206.905C231.969 206.905 233.765 206.726 234.663 206.546H234.843ZM225.863 207.265C225.863 207.265 227.479 207.265 228.377 207.265L232.149 212.292C232.149 212.292 230.353 212.292 229.455 212.292H228.557L225.145 207.265H226.043H225.863Z" fill="#009CFF"/>
<path d="M59.0172 56.6172C64.0459 41.355 78.9525 31.4795 102.3 30.7612C107.508 30.7612 112.896 30.7612 118.464 31.659C163.363 37.4048 217.422 70.2635 245.978 110.843C277.946 156.45 265.734 194.696 218.5 196.132C171.266 197.568 106.97 161.657 75.0013 116.05C58.8376 93.2466 53.9884 72.059 59.1968 56.6172H59.0172ZM77.1565 115.871C108.227 160.221 170.906 195.234 216.883 193.798C262.86 192.361 274.714 155.193 243.643 110.843C214.908 70.0839 159.592 37.2252 115.231 33.275C111.28 32.9159 107.508 32.7363 103.917 32.9159C82.5444 33.6341 68.5358 42.0732 62.7887 55.3603C56.3232 70.6226 60.6335 92.1693 77.1565 115.871Z" fill="#009CFF"/>
<path d="M57.4007 116.589H63.6866L69.2542 116.229C71.7685 119.821 74.4625 123.412 77.5156 127.003L72.4869 127.901L67.6378 128.619H66.5602C63.1478 124.848 60.0947 120.718 57.2211 116.589H57.4007Z" fill="#004775"/>
<path d="M80.2096 130.235L81.6464 131.851L76.7973 132.929L72.3073 134.006L71.4093 134.186L69.7929 132.57L70.8705 132.21L75.3605 131.313L80.2096 130.235Z" fill="#004775"/>
<path d="M84.3403 134.903L87.7527 138.315L83.2627 139.751L79.132 141.188L78.234 141.547L74.4624 137.597L75.3604 137.417L79.8504 136.16L84.3403 134.903Z" fill="#004775"/>
<path d="M115.052 161.837L119.182 164.889L116.668 167.942L114.333 170.815L113.794 171.533L109.125 168.121L109.664 167.583L112.178 164.71L115.052 161.837Z" fill="#004775"/>
<path d="M122.056 166.864L124.211 168.301L126.366 169.737L124.391 173.149L122.415 176.381L121.876 177.099L119.541 175.483L117.207 173.867L117.566 173.149L119.901 170.096L122.056 166.864Z" fill="#004775"/>
<path d="M90.8058 141.368C90.8058 141.368 91.5242 142.086 91.8834 142.445L87.7527 144.241L83.8015 145.857L82.9035 146.216C82.9035 146.216 82.0055 145.318 81.6463 144.959L82.5443 144.6L86.4955 142.984L90.6262 141.368H90.8058Z" fill="#004775"/>
<path d="M152.587 184.461L154.563 185.359L154.204 189.668L153.845 193.798V194.695L151.689 193.618V192.72L152.228 188.77L152.587 184.461Z" fill="#004775"/>
<path d="M158.334 187.154L160.669 188.052L163.004 188.95V193.618L163.184 197.928V198.825L160.669 197.748L158.155 196.671V195.773L158.334 191.464V187.154Z" fill="#004775"/>
<path d="M166.955 190.566L168.572 191.284L169.469 201.339L167.853 200.621L167.674 199.723L167.314 195.234L166.955 190.566Z" fill="#004775"/>
<path d="M95.2958 145.677C100.504 150.345 105.892 155.014 111.639 159.323L108.766 162.016L105.892 164.71L105.353 165.248C98.8878 160.4 92.7814 155.193 86.8547 149.807L87.5731 149.447L91.3446 147.652L95.2958 145.677Z" fill="#004775"/>
<path d="M130.317 172.251C136.424 176.022 142.709 179.613 148.995 182.665L148.277 186.795L147.559 190.745V191.643C140.195 188.052 133.191 184.102 126.187 179.792L126.546 179.074L128.342 175.662L130.138 172.071L130.317 172.251Z" fill="#004775"/>
<path d="M168.571 191.284C173.061 193.08 177.551 194.516 181.862 195.773L183.119 200.801L184.376 205.469V206.547C179.706 204.931 174.678 203.314 169.469 201.339L168.392 191.284H168.571Z" fill="#004775"/>
<path d="M185.992 196.85C185.992 196.85 187.25 197.209 187.788 197.389L189.405 202.416L191.021 207.264L191.38 208.342C191.38 208.342 189.944 207.983 189.225 207.803L188.866 206.726L187.429 201.878L185.813 196.85H185.992Z" fill="#004775"/>
<path d="M191.56 198.287C192.997 198.646 194.434 198.826 195.87 199.185L198.026 204.392L200.001 209.24L200.36 210.317C198.744 209.958 197.128 209.778 195.511 209.24L195.152 208.163L193.356 203.315L191.56 198.107V198.287Z" fill="#004775"/>
<path d="M228.378 201.16L232.508 206.546L236.459 211.574L237.357 212.651C236.1 212.651 234.663 212.831 233.227 213.01L232.508 211.933L228.916 206.905L224.965 201.519C226.222 201.519 227.48 201.519 228.557 201.16H228.378Z" fill="#004775"/>
<path d="M234.304 200.441L238.794 205.648L243.104 210.676L244.002 211.753C242.745 211.933 241.488 212.292 240.231 212.292L239.333 211.215L235.382 206.187L231.071 200.8C232.329 200.8 233.406 200.441 234.484 200.262L234.304 200.441Z" fill="#004775"/>
<path d="M199.642 199.902L201.079 200.082L203.593 205.289L205.928 210.317L206.287 211.394L204.85 211.035L204.311 210.137L201.977 205.11L199.642 199.902Z" fill="#004775"/>
<path d="M252.982 193.618L258.55 198.466L263.758 203.135L264.836 204.032L263.758 204.75L262.501 203.853L257.293 199.184L251.905 194.336L252.982 193.618Z" fill="#004775"/>
<path d="M257.113 190.566L263.04 195.234L268.607 199.723L269.865 200.621C269.865 200.621 268.248 201.878 267.35 202.596L266.273 201.698L260.885 197.209L255.138 192.361C255.138 192.361 256.574 191.284 257.293 190.745L257.113 190.566Z" fill="#004775"/>
<path d="M259.807 188.411L265.734 192.9L271.481 197.209L272.558 198.107L271.84 198.825L270.583 197.927L265.015 193.618L259.089 188.95L259.807 188.411Z" fill="#004775"/>
<path d="M204.85 200.621C210.597 201.339 216.344 201.698 221.553 201.519L225.324 206.905L228.916 211.933L229.635 213.01C223.708 213.01 217.242 212.831 210.777 211.933L210.238 210.856L207.724 205.828L205.03 200.441L204.85 200.621Z" fill="#004775"/>
<path d="M249.75 195.414L255.138 200.441L260.166 205.11L261.244 206.187C257.113 208.342 252.264 209.958 247.056 211.035L246.158 209.958L241.847 204.93L237.178 199.723C241.668 198.646 245.978 197.209 249.75 195.414Z" fill="#004775"/>
<path d="M264.836 182.127L271.122 186.257L277.048 190.207L278.305 191.105C276.689 193.619 274.713 196.132 272.558 198.107L271.301 197.21L265.554 192.9L259.627 188.411C261.603 186.616 263.219 184.461 264.836 182.127Z" fill="#004775"/>
<path d="M266.632 178.895L273.097 182.845L279.204 186.615L280.461 187.513C280.461 187.513 280.102 188.231 279.922 188.59L278.665 187.693L272.558 183.922L266.272 179.972C266.272 179.972 266.632 179.254 266.811 178.895H266.632Z" fill="#004775"/>
<path d="M268.607 174.226L275.073 177.997L281.359 181.408L282.616 182.306L281.538 185.179L280.281 184.281L273.995 180.69L267.709 176.919L268.607 174.226Z" fill="#004775"/>
<path d="M269.685 149.807L276.33 151.961L282.616 154.116L283.873 154.655L284.592 158.246L283.155 157.707L276.869 155.552L270.224 153.039L269.685 149.807Z" fill="#004775"/>
<path d="M268.428 144.061L274.893 145.857L281 147.652L282.257 148.011C282.616 149.268 282.975 150.525 283.155 151.782L281.898 151.423L275.612 149.448L268.967 147.473C268.787 146.395 268.428 145.318 268.069 144.061H268.428Z" fill="#004775"/>
<path d="M269.505 170.994L276.15 174.406L282.436 177.817L283.693 178.535L283.514 179.433L282.077 178.715L275.791 175.483L269.326 171.892L269.505 170.994Z" fill="#004775"/>
<path d="M258.729 121.796L264.656 122.335L270.403 122.694L271.481 122.873L272.558 124.669L271.301 124.489L265.734 123.951L259.627 123.232L258.729 121.796Z" fill="#004775"/>
<path d="M254.778 115.152H260.346L265.913 115.332H266.991L269.505 119.462L268.428 119.282L262.86 119.102L256.934 118.743L254.778 115.152Z" fill="#004775"/>
<path d="M251.725 110.664L257.293 110.484L262.501 110.305H263.579L264.477 111.562H263.399L258.191 111.741L252.444 111.921L251.725 110.664Z" fill="#004775"/>
<path d="M270.583 155.732L277.228 158.246L283.514 160.76L284.951 161.298C285.31 166.326 285.31 171.174 284.412 175.663L282.975 174.944L276.689 171.712L270.044 168.48C270.762 164.53 270.942 160.221 270.583 155.732Z" fill="#004775"/>
<path d="M261.244 126.285L267.35 127.003L273.097 127.721H274.354C277.228 133.647 279.742 139.213 281.538 144.6L280.281 144.24L274.175 142.624L267.709 141.008C266.093 136.16 264.117 131.133 261.423 126.105L261.244 126.285Z" fill="#004775"/>
<path d="M254.24 98.0947C257.652 102.045 260.705 106.175 263.579 110.305H257.293L251.725 110.664C249.211 107.073 246.517 103.481 243.464 99.8903L248.492 98.9925L253.342 98.2743H254.419L254.24 98.0947Z" fill="#004775"/>
<path d="M249.57 92.708L251.007 94.324L250.109 94.6831L245.439 95.5809L240.59 96.6582L239.333 95.0423L244.003 93.9649L248.672 92.8875L249.57 92.708Z" fill="#004775"/>
<path d="M242.745 85.3462L246.517 89.2963L245.619 89.4759L241.129 90.7328L236.639 91.9897L233.227 88.5782L237.717 87.1417L241.847 85.7053L242.745 85.3462Z" fill="#004775"/>
<path d="M207.185 55.3604L211.854 58.772L211.316 59.3106L208.622 62.004L205.928 65.0564L201.797 62.004L204.311 58.9515L206.646 56.0786L207.185 55.3604Z" fill="#004775"/>
<path d="M198.924 49.7944L201.438 51.4104L203.773 53.0264L203.234 53.7446L201.079 56.7971L198.744 60.0291L196.768 58.5926L194.613 57.1562L196.589 53.7446L198.564 50.5126L198.924 49.7944Z" fill="#004775"/>
<path d="M237.896 80.498C237.896 80.498 238.794 81.3958 239.153 81.7549L238.255 82.1141L234.304 83.7301L230.173 85.3461C230.173 85.3461 229.455 84.6278 228.916 84.2687L233.047 82.4732L236.998 80.8572L237.896 80.498Z" fill="#004775"/>
<path d="M167.135 32.1978L169.29 33.275V34.1728L168.751 38.1231L168.212 42.4324L166.416 41.5346L166.775 37.2253L167.135 33.0955V32.1978Z" fill="#004775"/>
<path d="M157.616 28.0679L160.31 29.1452L162.824 30.2226V31.1204L162.645 35.4296L162.465 39.739L160.31 38.8412L157.975 37.9435L157.796 33.275V28.9657L157.616 28.0679Z" fill="#004775"/>
<path d="M151.33 25.5542L153.126 26.2724V27.1702L153.485 31.6591L153.844 36.3276L152.408 35.6093L151.869 30.9409L151.51 26.452L151.33 25.5542Z" fill="#004775"/>
<path d="M215.806 61.645C222.271 66.493 228.377 71.7001 234.304 77.0868L233.586 77.4458L229.814 79.2414L225.863 81.2166C220.655 76.5481 215.267 71.8796 209.52 67.5703L212.393 64.877L215.267 62.1837L215.806 61.645Z" fill="#004775"/>
<path d="M173.421 35.25C180.604 38.8411 187.609 42.7913 194.613 47.1006L194.254 47.8189L192.458 51.2304L190.662 54.8215C184.556 51.0509 178.27 47.4597 171.984 44.4073L172.702 40.2775L173.421 36.3274V35.4295V35.25Z" fill="#004775"/>
<path d="M136.244 20.5269C141.273 22.1429 146.301 23.7589 151.33 25.734V26.6318L151.869 31.1206L152.408 35.7891C147.918 33.9935 143.428 32.5571 139.118 31.3002L137.86 26.2726L136.603 21.6042V20.5269H136.424H136.244Z" fill="#004775"/>
<path d="M129.599 18.5518C129.599 18.5518 131.036 18.9108 131.754 19.0904L132.113 20.1678L133.55 25.0158L135.167 30.0433C135.167 30.0433 133.909 29.6842 133.371 29.5047L131.754 24.4771L130.138 19.6291L129.779 18.5518H129.599Z" fill="#004775"/>
<path d="M120.439 16.5767C122.056 16.9358 123.672 17.1154 125.288 17.654L125.648 18.7314L127.444 23.5793L129.24 28.7864C127.803 28.4273 126.366 28.2478 124.929 27.8887L122.774 22.6815L120.799 17.8335L120.439 16.7563V16.5767Z" fill="#004775"/>
<path d="M87.9322 13.8832L88.6506 14.9605L92.2426 19.9881L96.1937 25.3747C94.9365 25.3747 93.6793 25.3746 92.6018 25.5542L88.471 20.1676L84.5199 15.1401L83.6219 14.0627C84.8791 14.0627 86.3158 13.8832 87.7526 13.7036L87.9322 13.8832Z" fill="#004775"/>
<path d="M80.9279 14.6016L81.8259 15.6789L85.7771 20.7064L90.0874 25.9136C88.8302 25.9136 87.7526 26.2727 86.675 26.4522L82.1851 21.2452L77.8748 16.2176L76.9768 15.1403C78.234 14.9607 79.4912 14.6016 80.7483 14.6016H80.9279Z" fill="#004775"/>
<path d="M114.513 15.499L116.129 15.6785L116.668 16.7559L118.823 21.7835L121.158 26.9906L119.901 26.811L117.386 21.4243L115.052 16.5763L114.513 15.499Z" fill="#004775"/>
<path d="M57.221 22.1426L58.2986 23.0403L63.507 27.7088L69.0745 32.5568L67.9969 33.275L62.4293 28.427L57.221 23.7586L55.9639 22.6812L57.221 22.1426Z" fill="#004775"/>
<path d="M53.6292 24.2972L54.7068 25.195L60.0947 29.6839L65.8418 34.5319C65.8418 34.5319 64.405 35.6092 63.6866 36.1479L57.7599 31.4795L52.1924 26.9906L50.9352 26.0928C50.9352 26.0928 52.5516 24.8359 53.4496 24.1177L53.6292 24.2972Z" fill="#004775"/>
<path d="M48.9596 28.0679L50.2167 28.9657L55.9639 33.275L61.8906 37.7639L61.1722 38.4821L48.2412 28.7861L48.9596 28.0679Z" fill="#004775"/>
<path d="M91.3446 13.7036C97.2714 13.7036 103.737 13.8832 110.202 14.781L110.741 15.8583L113.256 20.8858L115.949 26.093C110.202 25.3747 104.455 25.0156 99.2469 25.1951L95.4754 19.8085L92.063 14.781L91.3446 13.7036Z" fill="#004775"/>
<path d="M73.7441 15.8584L74.6421 16.9358L78.9524 21.9633L83.6219 27.1704C79.132 28.2477 74.8217 29.6842 71.0501 31.4797L65.6622 26.4521L60.4539 21.7837L59.3763 20.7064C63.507 18.5517 68.3562 16.9357 73.5645 15.8584H73.7441Z" fill="#004775"/>
<path d="M48.2412 28.7861L61.1722 38.4822C59.1967 40.2777 57.5803 42.4324 55.9639 44.7666L49.678 40.6368L43.7513 36.6866L42.4941 35.7888C44.1105 33.275 46.0861 30.9408 48.2412 28.7861Z" fill="#004775"/>
<path d="M41.0574 38.3027L42.3145 39.2006L48.4208 42.9712L54.7067 46.9214C54.7067 46.9214 54.3475 47.6396 54.1679 47.9987L47.7024 44.0486L41.5961 40.2778L40.339 39.3801C40.339 39.3801 40.6982 38.6618 40.8778 38.3027H41.0574Z" fill="#004775"/>
<path d="M39.2614 41.7144L40.6981 42.6121L46.8044 46.2032L53.2699 49.9739L52.3719 52.4877L45.9064 48.8965L39.6205 45.485L38.1837 44.5872L39.2614 41.7144Z" fill="#004775"/>
<path d="M36.3878 68.6475L37.8246 69.1861L44.1105 71.3408L50.7556 73.8546L51.2944 77.0866L44.6493 74.9319L38.3633 72.7772L37.1062 72.2386L36.3878 68.6475Z" fill="#004775"/>
<path d="M37.645 74.9321L38.9021 75.2912L45.188 77.2664L51.8331 79.2415C52.0127 80.3188 52.3719 81.3961 52.7311 82.653L46.2656 80.8575L40.1593 79.0619L38.9021 78.7028C38.5429 77.4459 38.1838 76.189 38.0042 74.9321H37.645Z" fill="#004775"/>
<path d="M37.4654 47.2803L38.9022 48.1781L45.0085 51.4101L51.6536 55.0012L51.2944 55.899L44.8289 52.4874L38.543 49.0759L37.1062 48.3576L37.4654 47.2803Z" fill="#004775"/>
<path d="M48.4208 102.225L49.4983 102.404L55.2454 102.943L61.3517 103.482L62.0701 105.098L56.1434 104.559L50.5759 104.2L49.3187 104.02L48.4208 102.225Z" fill="#004775"/>
<path d="M51.4739 107.432L52.5515 107.611L58.119 107.791L63.8661 108.15L66.2009 111.741H60.4538L55.0658 111.561H53.9883L51.4739 107.432Z" fill="#004775"/>
<path d="M56.5027 115.332L57.5803 115.152H62.7886L68.3561 114.973L69.2542 116.23L63.6866 116.409L58.4783 116.589H57.4007L56.5027 115.332Z" fill="#004775"/>
<path d="M36.5673 51.2305L38.0041 51.9487L44.29 55.1807L50.9352 58.4127C50.2168 62.363 50.0372 66.6723 50.3964 71.1612L43.7512 68.6474L37.4653 66.1336L36.0285 65.5949C35.6693 60.5674 35.8489 55.7194 36.5673 51.2305Z" fill="#004775"/>
<path d="M39.6206 82.2939L40.8778 82.6531L46.9841 84.2691L53.4496 85.8851C55.0659 90.7331 57.0415 95.7607 59.7355 100.788L53.6292 100.07L47.8821 99.3517H46.6249C43.7513 93.4264 41.2369 87.8602 39.6206 82.4735V82.2939Z" fill="#004775"/>
<path d="M106.431 37.9436C106.431 37.9436 106.79 37.5845 107.149 37.5845C107.149 37.5845 108.047 37.764 108.406 38.1231L214.548 118.025C214.548 118.025 215.087 118.564 215.267 118.923C215.267 119.282 215.267 119.462 215.267 119.641L183.658 145.856C183.658 145.856 183.299 145.856 183.119 145.856C183.119 145.856 182.76 145.856 182.58 145.856L116.129 122.694C116.129 122.694 115.411 122.335 115.051 121.976C114.692 121.616 114.513 121.437 114.513 121.078L106.431 38.3026V37.9436ZM111.998 42.612L148.457 94.5035L208.981 115.512L111.998 42.612ZM211.495 118.384L150.253 97.0173L182.221 142.624L211.495 118.384ZM179.886 142.624L147.918 97.0173L118.643 121.078L180.066 142.445L179.886 142.624ZM117.027 118.384L145.942 94.5035L109.484 42.612L116.847 118.384H117.027Z" fill="#009CFF"/>
<path d="M120.619 128.08C120.619 128.08 120.978 128.08 121.337 128.08L186.891 151.064L218.141 125.208C218.141 125.208 218.32 125.208 218.5 125.208C218.859 125.208 219.218 125.208 219.757 125.567C220.475 125.926 220.834 126.644 220.834 127.003L214.908 189.848C214.908 189.848 214.728 190.386 214.369 190.386C214.01 190.386 213.471 190.386 213.112 190.027L120.978 130.235C120.978 130.235 119.901 129.158 120.08 128.799C120.08 128.44 120.439 128.44 120.619 128.44V128.08ZM217.602 129.696L189.405 153.039L212.214 185.718L217.422 129.696H217.602ZM210.059 185.718L187.25 153.039L128.162 132.39L210.238 185.718H210.059Z" fill="#009CFF"/>
<path style="mix-blend-mode:multiply" d="M80.5689 0.0574495C15.9138 2.03256 -0.968353 54.4627 42.8534 116.948C86.6752 179.433 175.037 228.632 239.692 226.656C304.347 224.681 321.229 172.251 277.408 109.766C233.586 47.2805 145.224 -1.91766 80.5689 0.0574495Z" fill="url(#paint1_linear_140_4052)"/>
<defs>
<linearGradient id="paint0_linear_140_4052" x1="237.717" y1="228.991" x2="-15.1234" y2="70.9289" gradientUnits="userSpaceOnUse">
<stop stop-color="#0678B7"/>
<stop offset="0.01" stop-color="#0573B0"/>
<stop offset="0.09" stop-color="#035A8F"/>
<stop offset="0.16" stop-color="#024775"/>
<stop offset="0.24" stop-color="#003963"/>
<stop offset="0.32" stop-color="#003158"/>
<stop offset="0.41" stop-color="#002F55"/>
<stop offset="0.75" stop-color="#00162A"/>
</linearGradient>
<linearGradient id="paint1_linear_140_4052" x1="289.082" y1="207.803" x2="27.9895" y2="16.5183" gradientUnits="userSpaceOnUse">
<stop stop-color="white"/>
<stop offset="0.4" stop-color="#94A7B7"/>
<stop offset="0.81" stop-color="#2A5171"/>
<stop offset="1" stop-color="#002F55"/>
</linearGradient>
</defs>
</svg>
