<svg width="64" height="64" viewBox="0 0 64 64" fill="none" xmlns="http://www.w3.org/2000/svg">
<path d="M53 32C53 34.98 52.3658 37.9258 51.1395 40.6418C49.9132 43.3578 48.1229 45.7816 45.8875 47.7523C43.6522 49.723 41.0231 51.1954 38.1748 52.0717C35.3266 52.9479 32.3245 53.2079 29.368 52.8344" stroke="white" stroke-opacity="0.14" stroke-width="4" stroke-linecap="round" stroke-linejoin="round"/>
<path d="M21.2031 13.9882C23.7591 12.4561 26.6118 11.4855 29.5718 11.1409C32.5318 10.7964 35.5312 11.0857 38.3708 11.9898C41.2103 12.8938 43.8249 14.3918 46.0409 16.3843C48.2568 18.3767 50.0233 20.818 51.223 23.5458" stroke="#1DADC8" stroke-width="4" stroke-linecap="round" stroke-linejoin="round"/>
<path d="M21.9186 50.6051C19.3378 49.1151 17.1038 47.0929 15.3648 44.6729C13.6259 42.253 12.4219 39.4906 11.8329 36.5694C11.2439 33.6482 11.2833 30.6351 11.9486 27.7303C12.6139 24.8256 13.8898 22.0956 15.6914 19.722" stroke="#1DADC8" stroke-width="4" stroke-linecap="round" stroke-linejoin="round"/>
<path d="M26.9959 26.44C28.1159 26.44 29.0439 26.6693 29.7799 27.128C30.5265 27.576 31.0812 28.2053 31.4439 29.016C31.8172 29.8267 32.0039 30.7653 32.0039 31.832C32.0039 32.888 31.8172 33.8213 31.4439 34.632C31.0812 35.4427 30.5265 36.0773 29.7799 36.536C29.0439 36.984 28.1159 37.208 26.9959 37.208C25.8759 37.208 24.9425 36.984 24.1959 36.536C23.4599 36.0773 22.9052 35.4427 22.5319 34.632C22.1692 33.8213 21.9879 32.888 21.9879 31.832C21.9879 30.7653 22.1692 29.8267 22.5319 29.016C22.9052 28.2053 23.4599 27.576 24.1959 27.128C24.9425 26.6693 25.8759 26.44 26.9959 26.44ZM26.9959 35.432C27.5719 35.432 28.0625 35.2933 28.4679 35.016C28.8839 34.7387 29.2039 34.3333 29.4279 33.8C29.6519 33.256 29.7639 32.6 29.7639 31.832C29.7639 31.0533 29.6519 30.4027 29.4279 29.88C29.2039 29.3467 28.8839 28.9413 28.4679 28.664C28.0625 28.3867 27.5719 28.248 26.9959 28.248C26.5692 28.248 26.1799 28.328 25.8279 28.488C25.4865 28.6373 25.1879 28.8667 24.9319 29.176C24.6865 29.4747 24.4945 29.848 24.3559 30.296C24.2279 30.744 24.1639 31.256 24.1639 31.832C24.1639 32.408 24.2279 32.92 24.3559 33.368C24.4945 33.816 24.6865 34.1947 24.9319 34.504C25.1879 34.8133 25.4865 35.048 25.8279 35.208C26.1799 35.3573 26.5692 35.432 26.9959 35.432ZM37.876 33.992L35.076 35.72L34.948 35.224H42.452V37H33.732V35.224C34.7347 34.5413 35.588 33.9493 36.292 33.448C37.0067 32.9467 37.5987 32.52 38.068 32.168C38.5373 31.8053 38.9107 31.5013 39.188 31.256C39.4653 31 39.668 30.7813 39.796 30.6C39.9347 30.408 40.0253 30.2373 40.068 30.088C40.1107 29.928 40.132 29.768 40.132 29.608C40.132 29.3307 40.052 29.0853 39.892 28.872C39.7427 28.6587 39.5027 28.4933 39.172 28.376C38.852 28.2587 38.436 28.2 37.924 28.2C37.2307 28.2 36.6707 28.3333 36.244 28.6C35.8173 28.8667 35.5933 29.2187 35.572 29.656H33.556C33.524 29.048 33.6787 28.504 34.02 28.024C34.372 27.5333 34.8787 27.1493 35.54 26.872C36.2013 26.584 36.98 26.44 37.876 26.44C38.516 26.44 39.1027 26.504 39.636 26.632C40.18 26.76 40.6493 26.952 41.044 27.208C41.4387 27.4533 41.7427 27.768 41.956 28.152C42.1693 28.5253 42.276 28.968 42.276 29.48C42.276 29.9493 42.1533 30.392 41.908 30.808C41.6627 31.224 41.3267 31.6133 40.9 31.976C40.484 32.3387 40.0147 32.6907 39.492 33.032C38.9693 33.3627 38.4307 33.6827 37.876 33.992Z" fill="white"/>
</svg>
