<svg width="22" height="22" viewBox="0 0 22 22" fill="none" xmlns="http://www.w3.org/2000/svg">
<path d="M18.86 0H3.14C2.30803 0.002637 1.51089 0.334304 0.922598 0.922598C0.334304 1.51089 0.002637 2.30803 0 3.14L0 18.86C0.002637 19.692 0.334304 20.4891 0.922598 21.0774C1.51089 21.6657 2.30803 21.9974 3.14 22H18.86C19.692 21.9974 20.4891 21.6657 21.0774 21.0774C21.6657 20.4891 21.9974 19.692 22 18.86V3.14C21.9974 2.30803 21.6657 1.51089 21.0774 0.922598C20.4891 0.334304 19.692 0.002637 18.86 0V0ZM7 18H4V8.51H7V18ZM5.45 7.15C5.10982 7.15 4.77727 7.04912 4.49442 6.86013C4.21157 6.67113 3.99111 6.4025 3.86093 6.08822C3.73074 5.77393 3.69668 5.42809 3.76305 5.09444C3.82942 4.7608 3.99323 4.45432 4.23378 4.21378C4.47432 3.97323 4.7808 3.80942 5.11444 3.74305C5.44809 3.67668 5.79393 3.71074 6.10822 3.84093C6.4225 3.97111 6.69113 4.19157 6.88013 4.47442C7.06912 4.75727 7.17 5.08982 7.17 5.43C7.17 5.65587 7.12551 5.87954 7.03907 6.08822C6.95263 6.2969 6.82594 6.48651 6.66622 6.64622C6.50651 6.80594 6.3169 6.93263 6.10822 7.01907C5.89954 7.10551 5.67587 7.15 5.45 7.15ZM18 18H15.06V13.38C15.06 12.28 15.06 10.87 13.52 10.87C11.98 10.87 11.75 12.07 11.75 13.3V18H8.8V8.51H11.63V9.81C11.9129 9.32553 12.3216 8.9266 12.8128 8.65549C13.3039 8.38438 13.8593 8.25118 14.42 8.27C17.42 8.27 17.96 10.27 17.96 12.79L18 18Z" fill="#EFF2F5"/>
</svg>
