<svg width="20" height="20" viewBox="0 0 20 20" fill="none" xmlns="http://www.w3.org/2000/svg">
<path d="M10 6.66667C9.34073 6.66667 8.69626 6.86216 8.1481 7.22843C7.59994 7.59471 7.17269 8.1153 6.9204 8.72439C6.66811 9.33348 6.6021 10.0037 6.73072 10.6503C6.85933 11.2969 7.1768 11.8908 7.64298 12.357C8.10915 12.8232 8.7031 13.1407 9.3497 13.2693C9.9963 13.3979 10.6665 13.3319 11.2756 13.0796C11.8847 12.8273 12.4053 12.4001 12.7716 11.8519C13.1378 11.3037 13.3333 10.6593 13.3333 10C13.3333 9.11594 12.9821 8.2681 12.357 7.64298C11.7319 7.01786 10.8841 6.66667 10 6.66667ZM10 6.66667C9.34073 6.66667 8.69626 6.86216 8.1481 7.22843C7.59994 7.59471 7.17269 8.1153 6.9204 8.72439C6.66811 9.33348 6.6021 10.0037 6.73072 10.6503C6.85933 11.2969 7.1768 11.8908 7.64298 12.357C8.10915 12.8232 8.7031 13.1407 9.3497 13.2693C9.9963 13.3979 10.6665 13.3319 11.2756 13.0796C11.8847 12.8273 12.4053 12.4001 12.7716 11.8519C13.1378 11.3037 13.3333 10.6593 13.3333 10C13.3333 9.11594 12.9821 8.2681 12.357 7.64298C11.7319 7.01786 10.8841 6.66667 10 6.66667ZM10 6.66667C9.34073 6.66667 8.69626 6.86216 8.1481 7.22843C7.59994 7.59471 7.17269 8.1153 6.9204 8.72439C6.66811 9.33348 6.6021 10.0037 6.73072 10.6503C6.85933 11.2969 7.1768 11.8908 7.64298 12.357C8.10915 12.8232 8.7031 13.1407 9.3497 13.2693C9.9963 13.3979 10.6665 13.3319 11.2756 13.0796C11.8847 12.8273 12.4053 12.4001 12.7716 11.8519C13.1378 11.3037 13.3333 10.6593 13.3333 10C13.3333 9.11594 12.9821 8.2681 12.357 7.64298C11.7319 7.01786 10.8841 6.66667 10 6.66667ZM10 6.66667C9.34073 6.66667 8.69626 6.86216 8.1481 7.22843C7.59994 7.59471 7.17269 8.1153 6.9204 8.72439C6.66811 9.33348 6.6021 10.0037 6.73072 10.6503C6.85933 11.2969 7.1768 11.8908 7.64298 12.357C8.10915 12.8232 8.7031 13.1407 9.3497 13.2693C9.9963 13.3979 10.6665 13.3319 11.2756 13.0796C11.8847 12.8273 12.4053 12.4001 12.7716 11.8519C13.1378 11.3037 13.3333 10.6593 13.3333 10C13.3333 9.11594 12.9821 8.2681 12.357 7.64298C11.7319 7.01786 10.8841 6.66667 10 6.66667ZM14.1667 0H5.83333C4.28624 0 2.80251 0.614581 1.70854 1.70854C0.614581 2.80251 0 4.28624 0 5.83333L0 14.1667C0 15.7138 0.614581 17.1975 1.70854 18.2915C2.80251 19.3854 4.28624 20 5.83333 20H14.1667C15.7138 20 17.1975 19.3854 18.2915 18.2915C19.3854 17.1975 20 15.7138 20 14.1667V5.83333C20 4.28624 19.3854 2.80251 18.2915 1.70854C17.1975 0.614581 15.7138 0 14.1667 0ZM10 15C9.01109 15 8.04439 14.7068 7.22215 14.1573C6.3999 13.6079 5.75904 12.827 5.3806 11.9134C5.00216 10.9998 4.90315 9.99445 5.09607 9.02455C5.289 8.05464 5.7652 7.16373 6.46447 6.46447C7.16373 5.7652 8.05464 5.289 9.02455 5.09607C9.99445 4.90315 10.9998 5.00216 11.9134 5.3806C12.827 5.75904 13.6079 6.3999 14.1573 7.22215C14.7068 8.04439 15 9.01109 15 10C15 11.3261 14.4732 12.5979 13.5355 13.5355C12.5979 14.4732 11.3261 15 10 15ZM15.8333 5.175C15.6339 5.175 15.439 5.11586 15.2731 5.00506C15.1073 4.89427 14.9781 4.73679 14.9018 4.55254C14.8254 4.36829 14.8055 4.16555 14.8444 3.96995C14.8833 3.77435 14.9793 3.59469 15.1203 3.45367C15.2614 3.31265 15.441 3.21661 15.6366 3.17771C15.8322 3.1388 16.035 3.15877 16.2192 3.23509C16.4035 3.31141 16.5609 3.44065 16.6717 3.60647C16.7825 3.77229 16.8417 3.96724 16.8417 4.16667C16.8417 4.29908 16.8156 4.4302 16.7649 4.55254C16.7142 4.67488 16.64 4.78603 16.5463 4.87967C16.4527 4.9733 16.3415 5.04757 16.2192 5.09825C16.0969 5.14892 15.9657 5.175 15.8333 5.175ZM10 6.66667C9.34073 6.66667 8.69626 6.86216 8.1481 7.22843C7.59994 7.59471 7.17269 8.1153 6.9204 8.72439C6.66811 9.33348 6.6021 10.0037 6.73072 10.6503C6.85933 11.2969 7.1768 11.8908 7.64298 12.357C8.10915 12.8232 8.7031 13.1407 9.3497 13.2693C9.9963 13.3979 10.6665 13.3319 11.2756 13.0796C11.8847 12.8273 12.4053 12.4001 12.7716 11.8519C13.1378 11.3037 13.3333 10.6593 13.3333 10C13.3333 9.11594 12.9821 8.2681 12.357 7.64298C11.7319 7.01786 10.8841 6.66667 10 6.66667ZM10 6.66667C9.34073 6.66667 8.69626 6.86216 8.1481 7.22843C7.59994 7.59471 7.17269 8.1153 6.9204 8.72439C6.66811 9.33348 6.6021 10.0037 6.73072 10.6503C6.85933 11.2969 7.1768 11.8908 7.64298 12.357C8.10915 12.8232 8.7031 13.1407 9.3497 13.2693C9.9963 13.3979 10.6665 13.3319 11.2756 13.0796C11.8847 12.8273 12.4053 12.4001 12.7716 11.8519C13.1378 11.3037 13.3333 10.6593 13.3333 10C13.3333 9.11594 12.9821 8.2681 12.357 7.64298C11.7319 7.01786 10.8841 6.66667 10 6.66667ZM10 6.66667C9.34073 6.66667 8.69626 6.86216 8.1481 7.22843C7.59994 7.59471 7.17269 8.1153 6.9204 8.72439C6.66811 9.33348 6.6021 10.0037 6.73072 10.6503C6.85933 11.2969 7.1768 11.8908 7.64298 12.357C8.10915 12.8232 8.7031 13.1407 9.3497 13.2693C9.9963 13.3979 10.6665 13.3319 11.2756 13.0796C11.8847 12.8273 12.4053 12.4001 12.7716 11.8519C13.1378 11.3037 13.3333 10.6593 13.3333 10C13.3333 9.11594 12.9821 8.2681 12.357 7.64298C11.7319 7.01786 10.8841 6.66667 10 6.66667Z" fill="#EFF2F5"/>
</svg>
