<svg width="155" height="162" viewBox="0 0 155 162" fill="none" xmlns="http://www.w3.org/2000/svg">
<g opacity="0.4">
<path d="M56.5045 161.265C87.6599 161.265 112.916 136.008 112.916 104.853C112.916 73.6976 87.6599 48.4412 56.5045 48.4412C25.3491 48.4412 0.0926514 73.6976 0.0926514 104.853C0.0926514 136.008 25.3491 161.265 56.5045 161.265Z" fill="#1F1935"/>
<path d="M56.5044 51.4492C67.0875 51.4034 77.446 54.5004 86.2673 60.3477C95.0885 66.195 101.975 74.5294 106.055 84.2947C110.135 94.06 111.223 104.817 109.184 115.201C107.144 125.586 102.067 135.132 94.5962 142.628C87.1258 150.124 77.598 155.234 67.2204 157.31C56.8428 159.386 46.0824 158.335 36.303 154.289C26.5236 150.243 18.1653 143.386 12.2874 134.585C6.40955 125.784 3.27662 115.436 3.28568 104.853C3.30993 90.7289 8.9188 77.1875 18.8887 67.1829C28.8586 57.1783 42.3805 51.5225 56.5044 51.4492ZM56.5044 48.4412C45.3341 48.432 34.4121 51.7366 25.1205 57.9368C15.829 64.137 8.58541 72.9541 4.30649 83.2723C0.0275781 93.5906 -1.09437 104.946 1.0826 115.902C3.25957 126.858 8.63762 136.923 16.5362 144.821C24.4348 152.72 34.4989 158.098 45.455 160.275C56.4112 162.452 67.7668 161.33 78.0851 157.051C88.4033 152.772 97.2204 145.528 103.421 136.237C109.621 126.945 112.925 116.023 112.916 104.853C112.916 89.8917 106.973 75.5431 96.3936 64.9638C85.8143 54.3846 71.4657 48.4412 56.5044 48.4412Z" fill="#0095FF"/>
<path d="M56.5043 153.351C83.2892 153.351 105.003 131.638 105.003 104.853C105.003 78.0677 83.2892 56.3542 56.5043 56.3542C29.7193 56.3542 8.00586 78.0677 8.00586 104.853C8.00586 131.638 29.7193 153.351 56.5043 153.351Z" stroke="#0095FF" stroke-width="3.75644" stroke-miterlimit="10"/>
<path d="M104.725 107.814C104.725 106.842 104.725 105.871 104.725 104.853H107.918C107.918 105.917 107.918 106.981 107.918 108.046L104.725 107.814Z" fill="#00497D"/>
<path d="M104.633 109.156V108.739L107.826 109.017L107.779 109.433L104.633 109.156Z" fill="#00497D"/>
<path d="M104.401 111.007L104.54 109.989L107.687 110.359L107.548 111.377L104.401 111.007Z" fill="#00497D"/>
<path d="M102.735 118.92L103.013 117.995L106.067 118.828L105.789 119.846L102.735 118.92Z" fill="#00497D"/>
<path d="M102.226 120.54L102.504 119.615L105.558 120.586L105.234 121.558L102.226 120.54Z" fill="#00497D"/>
<path d="M104.263 112.211L104.309 111.887L107.456 112.349L107.409 112.673L104.263 112.211Z" fill="#00497D"/>
<path d="M99.7738 126.326L100.005 125.956L102.828 127.344L102.643 127.76L99.7738 126.326Z" fill="#00497D"/>
<path d="M98.9406 127.945L99.4033 127.112L102.226 128.547L101.717 129.472L98.9406 127.945Z" fill="#00497D"/>
<path d="M98.339 129.01L98.5241 128.732L101.254 130.306L101.069 130.63L98.339 129.01Z" fill="#00497D"/>
<path d="M103.245 117.163C103.568 115.821 103.892 114.433 104.124 113.091L107.224 113.6C106.993 115.081 106.669 116.516 106.299 117.95L103.245 117.163Z" fill="#00497D"/>
<path d="M100.468 125.214C100.745 124.612 101.069 123.964 101.301 123.316L102.041 121.373L105.095 122.483L104.262 124.52C104.031 125.214 103.661 125.908 103.383 126.556L100.468 125.214Z" fill="#00497D"/>
<path d="M96.7656 131.741C97.3336 130.92 97.8588 130.071 98.339 129.196L101.069 130.815C100.607 131.741 100.005 132.62 99.4497 133.5L96.7656 131.741Z" fill="#00497D"/>
<path d="M96.025 132.666L96.2564 132.296L98.8942 134.101L98.6165 134.471L96.025 132.666Z" fill="#00497D"/>
<path d="M94.9607 134.145L95.516 133.312L98.1075 135.21L97.4596 136.043L94.9607 134.145Z" fill="#00497D"/>
<path d="M89.4998 140.162L90.1939 139.468L92.4152 141.735L91.6748 142.476L89.4998 140.162Z" fill="#00497D"/>
<path d="M88.2502 141.273L88.9907 140.625L91.1194 142.985L90.3327 143.679L88.2502 141.273Z" fill="#00497D"/>
<path d="M94.1738 135.072L94.4052 134.84L96.9042 136.784L96.6728 137.062L94.1738 135.072Z" fill="#00497D"/>
<path d="M83.2524 145.113L83.6227 144.882L85.3812 147.52L85.011 147.751L83.2524 145.113Z" fill="#00497D"/>
<path d="M81.7256 146.087L82.5586 145.578L84.2708 148.216L83.3916 148.817L81.7256 146.087Z" fill="#00497D"/>
<path d="M80.6614 146.688L80.939 146.55L82.5587 149.28L82.2348 149.465L80.6614 146.688Z" fill="#00497D"/>
<path d="M90.7958 138.867L92.2766 137.34L93.6187 135.767L96.0714 137.803L94.5905 139.515L93.0634 141.088L90.7958 138.867Z" fill="#00497D"/>
<path d="M84.2705 144.42C85.3812 143.633 86.4918 142.754 87.5562 141.874L89.6387 144.281C88.5024 145.256 87.3128 146.168 86.0753 147.011L84.2705 144.42Z" fill="#00497D"/>
<path d="M78.0696 148.122L79.3653 147.428L80.6611 146.688L82.2345 149.464L80.8925 150.251L79.4579 150.945L78.0696 148.122Z" fill="#00497D"/>
<path d="M76.8662 148.677L77.2364 148.538L78.5785 151.407L78.2082 151.592L76.8662 148.677Z" fill="#00497D"/>
<path d="M75.1539 149.465L76.0795 149.049L77.3752 151.964L76.4034 152.381L75.1539 149.465Z" fill="#00497D"/>
<path d="M67.4719 151.917L68.3975 151.686L69.1842 154.786L68.1661 155.018L67.4719 151.917Z" fill="#00497D"/>
<path d="M65.8059 152.287H66.7777L67.4256 155.387H66.4075L65.8059 152.287Z" fill="#00497D"/>
<path d="M74.0433 149.88L74.321 149.788L75.5242 152.703L75.2003 152.842L74.0433 149.88Z" fill="#00497D"/>
<path d="M59.5587 153.074L59.9752 153.028L60.2066 156.221L59.7438 156.267L59.5587 153.074Z" fill="#00497D"/>
<path d="M57.7075 153.167L58.7256 153.121L58.8644 156.314H57.8001L57.7075 153.167Z" fill="#00497D"/>
<path d="M56.5042 153.166H56.8281L56.8744 156.359H56.5042V153.166Z" fill="#00497D"/>
<path d="M69.2305 151.501L71.2204 150.9L73.2103 150.206L74.3209 153.214L72.1922 153.908L70.0635 154.556L69.2305 151.501Z" fill="#00497D"/>
<path d="M60.762 152.981L62.8444 152.75H63.9088H64.9269L65.4822 155.897H64.3716H63.2609L61.0396 156.175L60.762 152.981Z" fill="#00497D"/>
<path d="M53.5428 153.073C54.5146 153.073 55.5327 153.073 56.5045 153.073V156.266H53.3577L53.5428 153.073Z" fill="#00497D"/>
<path d="M52.2005 152.98L52.617 153.027L52.3856 156.174L51.9229 156.127L52.2005 152.98Z" fill="#00497D"/>
<path d="M50.3961 152.795L51.3679 152.887L51.044 156.081L49.9796 155.942L50.3961 152.795Z" fill="#00497D"/>
<path d="M42.436 151.084L43.4079 151.362L42.5286 154.416L41.5105 154.139L42.436 151.084Z" fill="#00497D"/>
<path d="M40.8626 150.574L41.7881 150.898L40.8163 153.906L39.7982 153.582L40.8626 150.574Z" fill="#00497D"/>
<path d="M49.1926 152.657H49.5166L49.0538 155.804L48.6836 155.758L49.1926 152.657Z" fill="#00497D"/>
<path d="M35.032 148.167L35.4022 148.353L34.0139 151.222L33.6437 150.99L35.032 148.167Z" fill="#00497D"/>
<path d="M33.4121 147.336L34.2914 147.752L32.8106 150.575L31.885 150.112L33.4121 147.336Z" fill="#00497D"/>
<path d="M32.3478 146.688L32.6255 146.873L31.0521 149.649L30.7744 149.464L32.3478 146.688Z" fill="#00497D"/>
<path d="M44.1947 151.593C45.583 151.917 46.925 152.241 48.3133 152.472L47.758 155.619C46.2772 155.388 44.8426 155.018 43.408 154.694L44.1947 151.593Z" fill="#00497D"/>
<path d="M36.1426 148.678C36.7904 148.956 37.392 149.28 38.0399 149.511L39.9836 150.298L38.9192 153.259L36.8367 152.473L34.8005 151.547L36.1426 148.678Z" fill="#00497D"/>
<path d="M29.8485 145.16C30.6815 145.669 31.4682 146.224 32.3475 146.687L30.774 149.464C29.8485 148.955 28.9692 148.353 28.09 147.798L29.8485 145.16Z" fill="#00497D"/>
<path d="M28.7384 144.374L29.0624 144.651L27.2576 147.243L26.8873 147.011L28.7384 144.374Z" fill="#00497D"/>
<path d="M27.2571 143.309C27.499 143.535 27.7625 143.737 28.0438 143.911L26.1928 146.456L25.3135 145.855L27.2571 143.309Z" fill="#00497D"/>
<path d="M21.2411 137.848L21.889 138.588L19.6214 140.809L18.9272 140.023L21.2411 137.848Z" fill="#00497D"/>
<path d="M20.0841 136.598L20.732 137.339L18.4182 139.514L17.724 138.681L20.0841 136.598Z" fill="#00497D"/>
<path d="M26.2853 142.568L26.563 142.753L24.5731 145.252L24.2954 145.021L26.2853 142.568Z" fill="#00497D"/>
<path d="M16.2894 131.74C16.2668 131.862 16.2668 131.988 16.2894 132.11L13.6516 133.915V133.545L16.2894 131.74Z" fill="#00497D"/>
<path d="M15.2712 130.075L15.8266 130.908L13.1425 132.62L12.5872 131.741L15.2712 130.075Z" fill="#00497D"/>
<path d="M14.6697 129.01L14.8085 129.334L12.0782 130.908L11.9393 130.63L14.6697 129.01Z" fill="#00497D"/>
<path d="M22.4907 139.19L24.0179 140.625L25.5913 142.013L23.5551 144.466L21.8891 142.985L20.2694 141.458L22.4907 139.19Z" fill="#00497D"/>
<path d="M17.1689 132.619C17.9556 133.776 18.8349 134.887 19.7142 135.951L17.2615 137.987C16.3359 136.83 15.4104 135.673 14.5774 134.47L17.1689 132.619Z" fill="#00497D"/>
<path d="M13.2815 126.418L13.9294 127.76L14.6698 129.01L11.9395 130.63C11.6618 130.167 11.3842 129.704 11.1528 129.241L10.4124 127.853L13.2815 126.418Z" fill="#00497D"/>
<path d="M12.68 125.214L12.8651 125.584L9.9959 126.973L9.81079 126.556L12.68 125.214Z" fill="#00497D"/>
<path d="M11.9394 123.549L12.3559 124.428L9.44042 125.724C9.28212 125.409 9.14303 125.084 9.02393 124.752L11.9394 123.549Z" fill="#00497D"/>
<path d="M9.44054 115.821L9.67193 116.793L6.57135 117.579L6.33997 116.515L9.44054 115.821Z" fill="#00497D"/>
<path d="M9.11661 114.155C9.09464 114.479 9.09464 114.804 9.11661 115.127L6.01605 115.821C5.91688 115.472 5.83961 115.116 5.78467 114.757L9.11661 114.155Z" fill="#00497D"/>
<path d="M11.4766 122.392L11.6155 122.716L8.65372 123.873L8.51489 123.549L11.4766 122.392Z" fill="#00497D"/>
<path d="M8.28357 107.908L8.32984 108.37L5.183 108.556L5.13672 108.139L8.28357 107.908Z" fill="#00497D"/>
<path d="M8.23719 106.102V107.074L5.09035 107.213L5.04407 106.195L8.23719 106.102Z" fill="#00497D"/>
<path d="M8.19093 104.853V105.223H5.04407L4.9978 104.853H8.19093Z" fill="#00497D"/>
<path d="M9.90329 117.579C9.90329 118.273 10.2735 118.921 10.5049 119.615L11.1528 121.559L8.19104 122.669L7.4506 120.587C7.4506 119.846 7.03411 119.152 6.849 118.412L9.90329 117.579Z" fill="#00497D"/>
<path d="M8.37602 109.157C8.37602 109.851 8.37602 110.546 8.37602 111.24V112.258V113.276L5.27546 113.831L5.04407 112.721V111.656C5.04407 110.916 5.04407 110.175 5.04407 109.435L8.37602 109.157Z" fill="#00497D"/>
<path d="M8.28347 101.936C8.28347 102.908 8.28347 103.88 8.28347 104.852H5.09033C5.09033 103.834 5.09033 102.769 5.09033 101.705L8.28347 101.936Z" fill="#00497D"/>
<path d="M8.3761 100.595V101.012L5.18298 100.734L5.22926 100.318L8.3761 100.595Z" fill="#00497D"/>
<path d="M8.6077 98.7445L8.46886 99.7626L5.32202 99.3924L5.41457 98.3743L8.6077 98.7445Z" fill="#00497D"/>
<path d="M10.2736 90.8308L9.99594 91.7564L6.94165 90.9234L7.21931 89.9053L10.2736 90.8308Z" fill="#00497D"/>
<path d="M10.7825 89.2107L10.5049 90.1363L7.45056 89.1644L7.82078 88.1926L10.7825 89.2107Z" fill="#00497D"/>
<path d="M8.74622 97.5399L8.69994 97.8639L5.5531 97.4011L5.59938 97.0771L8.74622 97.5399Z" fill="#00497D"/>
<path d="M13.2351 83.4268L13.0037 83.797L10.1808 82.4087L10.3659 81.9922L13.2351 83.4268Z" fill="#00497D"/>
<path d="M14.068 81.7602L13.6053 82.6394L10.7823 81.2048L11.2914 80.2793L14.068 81.7602Z" fill="#00497D"/>
<path d="M14.67 80.742L14.4848 81.0197L11.7545 79.4463L11.9396 79.1223L14.67 80.742Z" fill="#00497D"/>
<path d="M9.7645 92.5898C9.44056 93.9318 9.11661 95.2738 8.88523 96.6622L5.78467 96.1531C6.01605 94.6722 6.33999 93.2376 6.71021 91.5254L9.7645 92.5898Z" fill="#00497D"/>
<path d="M12.5409 84.491C12.2633 85.1388 11.9393 85.7867 11.7079 86.4346L10.9675 88.3782L7.91321 87.2676L8.7462 85.1851C8.97758 84.5372 9.34779 83.8431 9.62546 83.1489L12.5409 84.491Z" fill="#00497D"/>
<path d="M16.2431 78.1963C15.6751 79.017 15.15 79.8666 14.6697 80.7415L11.9393 79.1218C12.4021 78.1963 13.0037 77.317 13.559 76.4377L16.2431 78.1963Z" fill="#00497D"/>
<path d="M16.9839 77.0856L16.7525 77.4558L14.1147 75.651L14.3924 75.2808L16.9839 77.0856Z" fill="#00497D"/>
<path d="M18.048 75.6054L17.4926 76.207L14.9011 74.3559L15.549 73.5229L18.048 75.6054Z" fill="#00497D"/>
<path d="M23.5086 69.589L22.8144 70.2832L20.5931 68.0156L21.3336 67.2751L23.5086 69.589Z" fill="#00497D"/>
<path d="M24.7582 68.4792L24.0178 69.127L21.889 66.7669L22.6757 66.0728L24.7582 68.4792Z" fill="#00497D"/>
<path d="M18.8347 74.6813L18.6033 74.9127L16.1044 72.9691L16.3358 72.6914L18.8347 74.6813Z" fill="#00497D"/>
<path d="M29.7561 64.6381H29.3859L27.6273 62.3242H27.9975L29.7561 64.6381Z" fill="#00497D"/>
<path d="M31.2832 63.6674L30.4502 64.1764L28.7379 61.4923L29.6635 60.937L31.2832 63.6674Z" fill="#00497D"/>
<path d="M32.3476 63.0187L32.0699 63.2038L30.4502 60.4734L30.7741 60.2883L32.3476 63.0187Z" fill="#00497D"/>
<path d="M22.2132 70.8848L20.7323 72.3656L19.3903 73.9853L16.9376 71.9491L18.4185 70.2369L19.9456 68.6172L22.2132 70.8848Z" fill="#00497D"/>
<path d="M28.7384 65.3315C27.6277 66.1182 26.5171 66.9975 25.4527 67.8768L23.4165 65.4703C24.5279 64.4843 25.7028 63.5722 26.9336 62.74L28.7384 65.3315Z" fill="#00497D"/>
<path d="M34.9394 61.6313L33.6436 62.3254L32.3478 63.0196L30.7744 60.2892L32.1165 59.5025L33.5511 58.8083L34.9394 61.6313Z" fill="#00497D"/>
<path d="M36.1422 61.0754L35.772 61.2142L34.4299 58.345L34.8002 58.1599L36.1422 61.0754Z" fill="#00497D"/>
<path d="M37.8546 60.2888L36.9291 60.7053L35.6796 57.6973L36.6514 57.2808L37.8546 60.2888Z" fill="#00497D"/>
<path d="M45.5365 57.8347L44.6109 58.0661L43.8242 54.9655L44.8423 54.7341L45.5365 57.8347Z" fill="#00497D"/>
<path d="M47.2026 57.6968H46.2308L45.5829 54.5962H46.601L47.2026 57.6968Z" fill="#00497D"/>
<path d="M38.9652 59.8716L38.6876 59.9642L37.4844 57.0025L37.8083 56.9099L38.9652 59.8716Z" fill="#00497D"/>
<path d="M53.4502 56.6775H53.0338L52.8024 53.5307L53.2651 53.4844L53.4502 56.6775Z" fill="#00497D"/>
<path d="M55.301 56.5852L54.2829 56.6315L54.144 53.4384L55.2084 53.3921L55.301 56.5852Z" fill="#00497D"/>
<path d="M56.5045 56.5389L56.1806 56.5852L56.1343 53.3921H56.5045V56.5389Z" fill="#00497D"/>
<path d="M43.7781 58.2516L41.7882 58.8532L39.7983 59.5473L38.6876 56.5393L40.8164 55.8451C41.5105 55.5675 42.251 55.4287 42.9451 55.1973L43.7781 58.2516Z" fill="#00497D"/>
<path d="M52.247 56.7703L50.1645 57.0017H49.1002H48.0821L47.5267 53.8548H48.6374H49.748C50.4885 53.8548 51.2289 53.8548 51.9693 53.5771L52.247 56.7703Z" fill="#00497D"/>
<path d="M59.4659 56.6778C58.4941 56.6778 57.476 56.6778 56.5042 56.6778V53.3921C57.5685 53.3921 58.5866 53.3921 59.651 53.3921L59.4659 56.6778Z" fill="#00497D"/>
<path d="M60.8083 56.7703L60.3918 56.724L60.6232 53.5771H61.086L60.8083 56.7703Z" fill="#00497D"/>
<path d="M62.6128 56.9556L61.641 56.8168L61.9649 53.6699L63.0293 53.8088L62.6128 56.9556Z" fill="#00497D"/>
<path d="M70.5729 58.6694L69.6011 58.3917L70.4803 55.3374L71.4984 55.6151L70.5729 58.6694Z" fill="#00497D"/>
<path d="M72.1461 59.1779L71.2206 58.854L72.1924 55.8459L73.2105 56.1699L72.1461 59.1779Z" fill="#00497D"/>
<path d="M63.816 57.0946L63.4921 57.0483L63.9548 53.9478L64.3251 53.994L63.816 57.0946Z" fill="#00497D"/>
<path d="M77.9771 61.5846L77.6069 61.3995L78.9952 58.5303L79.3655 58.7617L77.9771 61.5846Z" fill="#00497D"/>
<path d="M79.5968 62.417L78.7175 61.9543L80.1984 59.1313L81.1239 59.6404L79.5968 62.417Z" fill="#00497D"/>
<path d="M80.661 63.0185L80.3833 62.8797L81.9567 60.103L82.2344 60.2881L80.661 63.0185Z" fill="#00497D"/>
<path d="M68.814 58.1592C67.4257 57.7889 66.0836 57.5113 64.6953 57.2799L65.2506 54.1331C66.7315 54.3644 68.1661 54.7347 69.6007 55.0586L68.814 58.1592Z" fill="#00497D"/>
<path d="M76.8665 61.0745L74.9692 60.1952L73.0255 59.4548L74.0899 56.4468L76.1724 57.2798L78.2085 58.159L76.8665 61.0745Z" fill="#00497D"/>
<path d="M83.1603 64.5921L80.6614 63.0187L82.2348 60.2883C83.1603 60.7974 84.0396 61.399 84.9189 61.9543L83.1603 64.5921Z" fill="#00497D"/>
<path d="M84.2708 65.3322L83.9469 65.1008L85.7517 62.5093L86.1219 62.7407L84.2708 65.3322Z" fill="#00497D"/>
<path d="M85.7515 66.4427C85.5097 66.2169 85.2462 66.0154 84.9648 65.8411L86.8622 63.2959L87.6952 63.8975L85.7515 66.4427Z" fill="#00497D"/>
<path d="M91.7673 71.8581L91.1194 71.1639L93.387 68.9426L94.0811 69.6831L91.7673 71.8581Z" fill="#00497D"/>
<path d="M92.9242 73.1065L92.2764 72.3661L94.5902 70.2373L95.2844 71.024L92.9242 73.1065Z" fill="#00497D"/>
<path d="M86.7236 67.1841L86.4459 66.999L88.4358 64.5L88.7135 64.7314L86.7236 67.1841Z" fill="#00497D"/>
<path d="M96.7194 78.1049V77.7809L99.1258 76.2075L99.4034 76.5777L96.7194 78.1049Z" fill="#00497D"/>
<path d="M97.7373 79.679L97.182 78.846L99.8661 77.1338L100.421 78.0131L97.7373 79.679Z" fill="#00497D"/>
<path d="M98.3388 80.7416L98.2 80.4177L100.93 78.8442L101.069 79.1219L98.3388 80.7416Z" fill="#00497D"/>
<path d="M90.5182 70.562L88.991 69.1274L87.4176 67.7391L89.4538 65.2864L91.1198 66.7672L92.7395 68.2944L90.5182 70.562Z" fill="#00497D"/>
<path d="M95.8402 77.1328C95.0587 75.9726 94.2088 74.86 93.2949 73.8009L95.8402 71.5796C96.7657 72.7365 97.6913 73.8934 98.5242 75.0967L95.8402 77.1328Z" fill="#00497D"/>
<path d="M99.7273 83.3335L99.0794 81.9915L98.339 80.8345L101.069 79.2148C101.347 79.6776 101.625 80.1404 101.856 80.6032L102.596 81.9915L99.7273 83.3335Z" fill="#00497D"/>
<path d="M100.329 84.5369L100.144 84.1666L103.013 82.7783L103.198 83.1948L100.329 84.5369Z" fill="#00497D"/>
<path d="M101.069 86.2042L100.468 85.4637L103.383 84.168C103.541 84.4675 103.68 84.7766 103.799 85.0935L101.069 86.2042Z" fill="#00497D"/>
<path d="M103.568 93.9324L103.337 92.9605L106.391 92.1738L106.669 93.2382L103.568 93.9324Z" fill="#00497D"/>
<path d="M103.938 95.5979C103.938 95.2739 103.938 94.95 103.938 94.626L107.039 93.9319C107.138 94.2815 107.215 94.637 107.27 94.9963L103.938 95.5979Z" fill="#00497D"/>
<path d="M101.532 87.3595L101.393 87.0356L104.355 85.8787L104.494 86.2026L101.532 87.3595Z" fill="#00497D"/>
<path d="M104.725 101.846L104.679 101.383L107.826 101.151L107.872 101.614L104.725 101.846Z" fill="#00497D"/>
<path d="M104.771 103.649V102.678L107.918 102.539L107.965 103.557L104.771 103.649Z" fill="#00497D"/>
<path d="M104.818 104.853V104.529H108.011V104.853H104.818Z" fill="#00497D"/>
<path d="M103.106 92.1732C103.106 91.4791 102.735 90.7849 102.504 90.1371L101.856 88.1471L104.818 87.0828L105.558 89.1652C105.558 89.9057 105.975 90.5998 106.16 91.3403L103.106 92.1732Z" fill="#00497D"/>
<path d="M104.633 100.594C104.633 99.9002 104.633 99.2061 104.633 98.5119V97.4938V96.4757L107.779 95.9204V96.9848V98.0954C107.779 98.8359 107.779 99.5763 107.779 100.317L104.633 100.594Z" fill="#00497D"/>
<path d="M56.5046 148.491C80.6059 148.491 100.144 128.953 100.144 104.852C100.144 80.7504 80.6059 61.2124 56.5046 61.2124C32.4032 61.2124 12.8652 80.7504 12.8652 104.852C12.8652 128.953 32.4032 148.491 56.5046 148.491Z" stroke="#0095FF" stroke-width="1.44478" stroke-miterlimit="10" stroke-linecap="square" stroke-dasharray="5.37 5.37"/>
<path style="mix-blend-mode:screen" d="M56.5044 51.4492C67.0762 51.44 77.4128 54.5688 86.205 60.4392C94.9971 66.3095 101.849 74.6573 105.893 84.4251C109.937 94.1929 110.991 104.941 108.921 115.308C106.851 125.676 101.751 135.195 94.2665 142.661C89.2954 147.62 83.3962 151.552 76.9057 154.231C70.4152 156.91 63.4606 158.284 56.4389 158.276C49.4173 158.267 42.466 156.876 35.9821 154.181C29.4983 151.486 23.6087 147.54 18.6497 142.569C13.6907 137.598 9.7594 131.698 7.08026 125.208C4.40113 118.718 3.02661 111.763 3.03521 104.741C3.0438 97.7196 4.43534 90.7684 7.13035 84.2845C9.82537 77.8006 13.7711 71.911 18.7422 66.952C23.702 62.0037 29.5923 58.0862 36.0734 55.4254C42.5546 52.7646 49.4984 51.4133 56.5044 51.4492ZM56.5044 48.4412C45.3341 48.432 34.4121 51.7366 25.1205 57.9368C15.829 64.137 8.58541 72.9541 4.30649 83.2723C0.0275781 93.5906 -1.09437 104.946 1.0826 115.902C3.25957 126.858 8.63762 136.923 16.5362 144.821C24.4348 152.72 34.4989 158.098 45.455 160.275C56.4112 162.452 67.7668 161.33 78.0851 157.051C88.4033 152.772 97.2204 145.528 103.421 136.237C109.621 126.945 112.925 116.023 112.916 104.853C112.916 89.8917 106.973 75.5431 96.3936 64.9638C85.8143 54.3846 71.4657 48.4412 56.5044 48.4412Z" fill="url(#paint0_linear_502_410)"/>
<path style="mix-blend-mode:screen" d="M56.5045 161.265C87.6599 161.265 112.916 136.008 112.916 104.853C112.916 73.6976 87.6599 48.4412 56.5045 48.4412C25.3491 48.4412 0.0926514 73.6976 0.0926514 104.853C0.0926514 136.008 25.3491 161.265 56.5045 161.265Z" fill="url(#paint1_linear_502_410)"/>
<path fill-rule="evenodd" clip-rule="evenodd" d="M32.7052 87.1926C32.1394 88.2523 32.1164 117.293 32.6802 118.779C33.0802 119.832 33.1641 119.852 37.2734 119.852H41.4596V120.926C41.4596 122.655 42.1933 123.617 43.5111 123.617C44.9296 123.617 45.703 122.683 45.703 121.316C45.703 119.53 45.3105 119.954 48.5583 119.954C52.2392 119.809 53.0142 119.586 53.2719 118.6C53.7112 116.916 52.3904 116.114 48.9759 115.991L45.8441 115.878L45.7167 113.89C45.5881 111.879 45.9656 111.417 46.858 112.495C47.9528 113.816 51.2395 114.959 54.064 115C56.4759 115.035 57.015 115.191 58.0309 116.147C58.6773 116.755 60.2399 117.79 61.503 118.448C63.6222 119.55 66.3161 120.11 68.393 120.11C70.7622 120.11 73.185 119.54 75.1806 118.509C78.613 116.734 80.2938 115.221 80.2938 113.905C80.2938 111.829 77.6789 111.483 76.1289 113.355C74.9747 114.748 72.2041 115.797 69.153 115.997C66.455 116.173 65.88 116.064 63.4113 114.907C61.9027 114.2 60.6679 113.47 60.6679 113.285C60.6679 113.1 61.2805 112.459 62.0292 111.861C64.2557 110.081 65.7827 106.798 66.0061 103.312C66.1736 100.699 66.0512 99.9839 65.0562 97.7628C64.4281 96.3605 63.5596 94.8916 63.1261 94.4988C61.8551 93.3462 62.1991 92.7325 64.502 92.0477C68.7091 90.7959 72.8581 91.5435 76.0955 94.1369C78.1312 95.7673 79.2544 95.8593 80.1706 94.4699C80.7226 93.6328 80.655 93.4358 79.3012 91.9343C78.494 91.039 76.7432 89.7555 75.4098 89.0819C73.1708 87.9507 71.1132 87.6188 68.393 87.6188C66.0061 87.6162 63.7412 87.8792 60.951 89.3844C58.4498 90.7336 57.9487 90.8675 56.8434 90.4813C56.151 90.2395 54.2995 90.1337 52.729 90.2462C48.2289 90.5688 44.5997 93.1663 42.6355 97.47C41.7648 99.3785 41.668 100.286 41.5327 107.824L41.384 116.087H38.9166H36.4487V101.737C36.4487 91.1344 36.318 87.2566 35.9477 86.8856C35.1539 86.0903 33.195 86.2756 32.7052 87.1926ZM54.8219 94.4909C54.8219 94.5783 54.3375 95.7095 53.7454 97.0052C52.3098 100.147 51.9749 104.487 52.891 108.067C53.2639 109.524 53.5692 110.775 53.5692 110.847C53.5692 111.17 50.6366 110.272 49.5058 109.602C48.0589 108.746 46.2208 106.091 45.8249 104.285C45.0712 100.847 47.182 96.591 50.3589 95.146C51.8713 94.4582 54.8219 94.0248 54.8219 94.4909ZM61.0333 98.4251C62.1783 100.692 62.4472 102.414 61.9469 104.275C61.4245 106.219 59.9881 108.441 58.712 109.278C57.8593 109.838 57.752 109.787 57.0592 108.484C56.5268 107.483 56.3189 106.151 56.3206 103.745C56.3226 100.92 56.5005 100.055 57.4626 98.1933C58.4719 96.2421 58.6974 96.0392 59.4252 96.4295C59.8774 96.6722 60.6011 97.57 61.0333 98.4251Z" fill="#3BDEFF"/>
</g>
<path d="M82.5679 145.302C122.571 145.302 155 112.874 155 72.8704C155 32.8672 122.571 0.438232 82.5679 0.438232C42.5647 0.438232 10.1357 32.8672 10.1357 72.8704C10.1357 112.874 42.5647 145.302 82.5679 145.302Z" fill="#1F1935"/>
<path d="M82.5677 4.30051C96.1563 4.24169 109.457 8.21818 120.783 15.726C132.109 23.2339 140.952 33.9352 146.19 46.4737C151.428 59.0123 152.826 72.8236 150.207 86.1575C147.588 99.4915 141.069 111.748 131.477 121.373C121.885 130.998 109.652 137.56 96.3269 140.225C83.0022 142.891 69.186 141.541 56.6294 136.346C44.0727 131.151 33.3408 122.346 25.7937 111.046C18.2465 99.7455 14.2239 86.4591 14.2355 72.8704C14.2666 54.7352 21.4684 37.3482 34.2696 24.5024C47.0709 11.6567 64.4327 4.39461 82.5677 4.30051V4.30051ZM82.5677 0.438257C68.2252 0.426505 54.2015 4.66957 42.2712 12.6305C30.3409 20.5915 21.0403 31.9125 15.5462 45.161C10.0521 58.4096 8.61156 72.9901 11.4068 87.0576C14.202 101.125 21.1073 114.047 31.249 124.189C41.3907 134.331 54.313 141.236 68.3805 144.031C82.448 146.827 97.0285 145.386 110.277 139.892C123.526 134.398 134.847 125.097 142.808 113.167C150.769 101.237 155.012 87.2129 155 72.8704C155 53.6602 147.369 35.2368 133.785 21.6531C120.201 8.06948 101.778 0.438257 82.5677 0.438257V0.438257Z" fill="#0095FF"/>
<path d="M82.5677 135.141C116.959 135.141 144.839 107.262 144.839 72.8701C144.839 38.4785 116.959 10.5986 82.5677 10.5986C48.1761 10.5986 20.2963 38.4785 20.2963 72.8701C20.2963 107.262 48.1761 135.141 82.5677 135.141Z" stroke="#0095FF" stroke-width="3.75644" stroke-miterlimit="10"/>
<path d="M144.483 76.673C144.483 75.4251 144.483 74.1773 144.483 72.8701H148.583C148.583 74.2368 148.583 75.6034 148.583 76.9701L144.483 76.673Z" fill="#00497D"/>
<path d="M144.364 78.3951V77.8604L148.464 78.2169L148.404 78.7516L144.364 78.3951Z" fill="#00497D"/>
<path d="M144.067 80.7723L144.245 79.4651L148.286 79.9404L148.108 81.2477L144.067 80.7723Z" fill="#00497D"/>
<path d="M141.927 90.9325L142.284 89.7441L146.206 90.8137L145.849 92.1209L141.927 90.9325Z" fill="#00497D"/>
<path d="M141.274 93.0128L141.63 91.8245L145.552 93.0723L145.136 94.3201L141.274 93.0128Z" fill="#00497D"/>
<path d="M143.889 82.3178L143.948 81.9019L147.989 82.4961L147.929 82.912L143.889 82.3178Z" fill="#00497D"/>
<path d="M138.125 100.441L138.422 99.9658L142.047 101.748L141.809 102.283L138.125 100.441Z" fill="#00497D"/>
<path d="M137.055 102.521L137.649 101.451L141.274 103.293L140.62 104.482L137.055 102.521Z" fill="#00497D"/>
<path d="M136.283 103.888L136.521 103.531L140.026 105.552L139.789 105.968L136.283 103.888Z" fill="#00497D"/>
<path d="M142.582 88.6774C142.997 86.9542 143.413 85.1716 143.711 83.4485L147.692 84.1021C147.395 86.0035 146.979 87.8455 146.503 89.6875L142.582 88.6774Z" fill="#00497D"/>
<path d="M139.016 99.0133C139.372 98.2409 139.788 97.409 140.085 96.5772L141.036 94.0815L144.958 95.5076L143.888 98.1221C143.591 99.0133 143.116 99.9046 142.759 100.736L139.016 99.0133Z" fill="#00497D"/>
<path d="M134.263 107.394C134.992 106.34 135.666 105.249 136.283 104.126L139.789 106.206C139.194 107.394 138.422 108.523 137.709 109.652L134.263 107.394Z" fill="#00497D"/>
<path d="M133.312 108.582L133.609 108.107L136.996 110.424L136.639 110.9L133.312 108.582Z" fill="#00497D"/>
<path d="M131.945 110.482L132.658 109.412L135.986 111.849L135.154 112.918L131.945 110.482Z" fill="#00497D"/>
<path d="M124.934 118.207L125.825 117.315L128.677 120.227L127.726 121.178L124.934 118.207Z" fill="#00497D"/>
<path d="M123.329 119.633L124.28 118.801L127.013 121.831L126.003 122.722L123.329 119.633Z" fill="#00497D"/>
<path d="M130.935 111.671L131.232 111.374L134.441 113.869L134.144 114.226L130.935 111.671Z" fill="#00497D"/>
<path d="M116.912 124.564L117.387 124.267L119.645 127.654L119.17 127.951L116.912 124.564Z" fill="#00497D"/>
<path d="M114.952 125.815L116.021 125.161L118.22 128.548L117.091 129.32L114.952 125.815Z" fill="#00497D"/>
<path d="M113.585 126.587L113.941 126.408L116.021 129.914L115.605 130.152L113.585 126.587Z" fill="#00497D"/>
<path d="M126.597 116.544L128.499 114.583L130.222 112.563L133.371 115.178L131.47 117.376L129.509 119.396L126.597 116.544Z" fill="#00497D"/>
<path d="M118.219 123.674C119.645 122.663 121.071 121.534 122.438 120.406L125.112 123.495C123.653 124.748 122.125 125.918 120.536 127.001L118.219 123.674Z" fill="#00497D"/>
<path d="M110.257 128.427L111.921 127.536L113.585 126.585L115.605 130.15L113.882 131.16L112.04 132.052L110.257 128.427Z" fill="#00497D"/>
<path d="M108.712 129.14L109.188 128.961L110.911 132.645L110.435 132.883L108.712 129.14Z" fill="#00497D"/>
<path d="M106.514 130.152L107.702 129.617L109.366 133.361L108.118 133.895L106.514 130.152Z" fill="#00497D"/>
<path d="M96.6498 133.3L97.8382 133.003L98.8483 136.984L97.5411 137.281L96.6498 133.3Z" fill="#00497D"/>
<path d="M94.5107 133.775H95.7586L96.5904 137.756H95.2832L94.5107 133.775Z" fill="#00497D"/>
<path d="M105.088 130.685L105.444 130.566L106.989 134.309L106.573 134.488L105.088 130.685Z" fill="#00497D"/>
<path d="M86.4894 134.786L87.0242 134.727L87.3212 138.826L86.7271 138.886L86.4894 134.786Z" fill="#00497D"/>
<path d="M84.1124 134.905L85.4197 134.845L85.5979 138.945H84.2313L84.1124 134.905Z" fill="#00497D"/>
<path d="M82.5675 134.903H82.9834L83.0429 139.003H82.5675V134.903Z" fill="#00497D"/>
<path d="M98.9078 132.767L101.463 131.994L104.018 131.103L105.444 134.965L102.711 135.856L99.9774 136.688L98.9078 132.767Z" fill="#00497D"/>
<path d="M88.0344 134.667L90.7083 134.37H92.0749H93.3822L94.0952 138.41H92.6691H91.2431L88.3909 138.767L88.0344 134.667Z" fill="#00497D"/>
<path d="M78.7651 134.785C80.013 134.785 81.3202 134.785 82.568 134.785V138.885H78.5275L78.7651 134.785Z" fill="#00497D"/>
<path d="M77.0416 134.666L77.5764 134.725L77.2793 138.766L76.6851 138.706L77.0416 134.666Z" fill="#00497D"/>
<path d="M74.7247 134.427L75.9725 134.546L75.5566 138.646L74.1899 138.468L74.7247 134.427Z" fill="#00497D"/>
<path d="M64.5041 132.231L65.7519 132.588L64.6229 136.51L63.3157 136.153L64.5041 132.231Z" fill="#00497D"/>
<path d="M62.484 131.575L63.6723 131.991L62.4245 135.854L61.1173 135.438L62.484 131.575Z" fill="#00497D"/>
<path d="M73.1796 134.251H73.5956L73.0013 138.291L72.526 138.232L73.1796 134.251Z" fill="#00497D"/>
<path d="M54.9973 128.486L55.4726 128.723L53.6901 132.407L53.2147 132.11L54.9973 128.486Z" fill="#00497D"/>
<path d="M52.9176 127.418L54.0466 127.953L52.1452 131.577L50.9568 130.983L52.9176 127.418Z" fill="#00497D"/>
<path d="M51.551 126.585L51.9075 126.823L49.8873 130.388L49.5308 130.15L51.551 126.585Z" fill="#00497D"/>
<path d="M66.7623 132.884C68.5449 133.3 70.2681 133.716 72.0507 134.013L71.3376 138.054C69.4362 137.757 67.5942 137.281 65.7522 136.865L66.7623 132.884Z" fill="#00497D"/>
<path d="M56.4233 129.142C57.2552 129.498 58.0277 129.914 58.8595 130.211L61.3552 131.221L59.9885 135.024L57.3146 134.014L54.7002 132.826L56.4233 129.142Z" fill="#00497D"/>
<path d="M48.3419 124.624C49.4115 125.278 50.4216 125.991 51.5505 126.585L49.5303 130.15C48.3419 129.496 47.213 128.724 46.084 128.011L48.3419 124.624Z" fill="#00497D"/>
<path d="M46.9165 123.615L47.3324 123.971L45.015 127.299L44.5397 127.001L46.9165 123.615Z" fill="#00497D"/>
<path d="M45.0147 122.248C45.3252 122.538 45.6636 122.797 46.0248 123.02L43.648 126.288L42.519 125.516L45.0147 122.248Z" fill="#00497D"/>
<path d="M37.2901 115.235L38.1219 116.186L35.2104 119.038L34.3191 118.028L37.2901 115.235Z" fill="#00497D"/>
<path d="M35.8046 113.631L36.6364 114.582L33.6655 117.374L32.7742 116.305L35.8046 113.631Z" fill="#00497D"/>
<path d="M43.7669 121.296L44.1234 121.534L41.5684 124.742L41.2119 124.445L43.7669 121.296Z" fill="#00497D"/>
<path d="M30.9321 107.393C30.903 107.55 30.903 107.711 30.9321 107.868L27.5452 110.186V109.71L30.9321 107.393Z" fill="#00497D"/>
<path d="M29.6249 105.255L30.3379 106.324L26.8916 108.523L26.1786 107.394L29.6249 105.255Z" fill="#00497D"/>
<path d="M28.8524 103.888L29.0307 104.304L25.525 106.324L25.3467 105.968L28.8524 103.888Z" fill="#00497D"/>
<path d="M38.8946 116.958L40.8555 118.8L42.8757 120.583L40.2613 123.732L38.1222 121.831L36.0425 119.87L38.8946 116.958Z" fill="#00497D"/>
<path d="M32.0615 108.522C33.0716 110.007 34.2006 111.433 35.3296 112.8L32.1803 115.414C30.992 113.929 29.8036 112.443 28.734 110.898L32.0615 108.522Z" fill="#00497D"/>
<path d="M27.0701 100.56L27.902 102.283L28.8527 103.888L25.3469 105.967C24.9904 105.373 24.6339 104.779 24.3368 104.185L23.3861 102.402L27.0701 100.56Z" fill="#00497D"/>
<path d="M26.2976 99.0139L26.5353 99.4893L22.8513 101.272L22.6136 100.737L26.2976 99.0139Z" fill="#00497D"/>
<path d="M25.3467 96.8755L25.8814 98.0045L22.138 99.6682C21.9348 99.2634 21.7562 98.8467 21.6033 98.4204L25.3467 96.8755Z" fill="#00497D"/>
<path d="M22.1383 86.9531L22.4354 88.2009L18.4543 89.2111L18.1572 87.8444L22.1383 86.9531Z" fill="#00497D"/>
<path d="M21.7224 84.8147C21.6942 85.2302 21.6942 85.647 21.7224 86.0625L17.7413 86.9538C17.614 86.5049 17.5148 86.0484 17.4442 85.5871L21.7224 84.8147Z" fill="#00497D"/>
<path d="M24.7525 95.3904L24.9308 95.8063L21.128 97.2918L20.9497 96.8759L24.7525 95.3904Z" fill="#00497D"/>
<path d="M20.6528 76.7927L20.7122 77.3869L16.6717 77.6246L16.6123 77.0898L20.6528 76.7927Z" fill="#00497D"/>
<path d="M20.5932 74.4746V75.7224L16.5527 75.9007L16.4933 74.5934L20.5932 74.4746Z" fill="#00497D"/>
<path d="M20.5338 72.8701V73.3455H16.4932L16.4338 72.8701H20.5338Z" fill="#00497D"/>
<path d="M22.7323 89.2104C22.7323 90.1017 23.2077 90.9336 23.5048 91.8249L24.3367 94.3205L20.5338 95.7466L19.5831 93.0727C19.5831 92.122 19.0483 91.2307 18.8107 90.28L22.7323 89.2104Z" fill="#00497D"/>
<path d="M20.7715 78.3972C20.7715 79.2885 20.7715 80.1798 20.7715 81.0711V82.3783V83.6855L16.7904 84.3986L16.4933 82.9725V81.6059C16.4933 80.6551 16.4933 79.7044 16.4933 78.7537L20.7715 78.3972Z" fill="#00497D"/>
<path d="M20.6527 69.1257C20.6527 70.3735 20.6527 71.6213 20.6527 72.8691H16.5527C16.5527 71.5619 16.5527 70.1953 16.5527 68.8286L20.6527 69.1257Z" fill="#00497D"/>
<path d="M20.7717 67.4039V67.9387L16.6718 67.5821L16.7312 67.0474L20.7717 67.4039Z" fill="#00497D"/>
<path d="M21.069 65.0271L20.8907 66.3343L16.8502 65.859L16.969 64.5518L21.069 65.0271Z" fill="#00497D"/>
<path d="M23.2079 54.8661L22.8514 56.0545L18.9297 54.985L19.2862 53.6777L23.2079 54.8661Z" fill="#00497D"/>
<path d="M23.8614 52.7857L23.5049 53.9741L19.5833 52.7263L20.0586 51.4785L23.8614 52.7857Z" fill="#00497D"/>
<path d="M21.2468 63.4807L21.1874 63.8966L17.1469 63.3024L17.2063 62.8865L21.2468 63.4807Z" fill="#00497D"/>
<path d="M27.0104 45.3591L26.7133 45.8344L23.0887 44.0519L23.3264 43.5171L27.0104 45.3591Z" fill="#00497D"/>
<path d="M28.08 43.2195L27.4858 44.3485L23.8612 42.5065L24.5148 41.3181L28.08 43.2195Z" fill="#00497D"/>
<path d="M28.8529 41.9122L28.6152 42.2687L25.1095 40.2485L25.3472 39.8325L28.8529 41.9122Z" fill="#00497D"/>
<path d="M22.5543 57.1245C22.1383 58.8476 21.7224 60.5708 21.4253 62.3534L17.4442 61.6997C17.7413 59.7983 18.1572 57.9563 18.6326 55.7578L22.5543 57.1245Z" fill="#00497D"/>
<path d="M26.1192 46.7256C25.7627 47.5575 25.3467 48.3893 25.0496 49.2212L24.0989 51.7168L20.1772 50.2908L21.2468 47.6169C21.5439 46.785 22.0192 45.8937 22.3758 45.0024L26.1192 46.7256Z" fill="#00497D"/>
<path d="M30.8727 38.6437C30.1434 39.6975 29.4691 40.7883 28.8524 41.9117L25.3467 39.8321C25.9409 38.6437 26.7133 37.5147 27.4264 36.3857L30.8727 38.6437Z" fill="#00497D"/>
<path d="M31.8239 37.2175L31.5268 37.6929L28.1399 35.3755L28.4964 34.9001L31.8239 37.2175Z" fill="#00497D"/>
<path d="M33.1902 35.3169L32.4771 36.0894L29.1497 33.7126L29.9815 32.6431L33.1902 35.3169Z" fill="#00497D"/>
<path d="M40.2014 27.5921L39.3101 28.4833L36.458 25.5718L37.4087 24.6211L40.2014 27.5921Z" fill="#00497D"/>
<path d="M41.8061 26.167L40.8554 26.9988L38.1221 23.9684L39.1322 23.0771L41.8061 26.167Z" fill="#00497D"/>
<path d="M34.2003 34.1305L33.9032 34.4276L30.6946 31.932L30.9917 31.5754L34.2003 34.1305Z" fill="#00497D"/>
<path d="M48.2232 21.2351H47.7478L45.4899 18.2642H45.9652L48.2232 21.2351Z" fill="#00497D"/>
<path d="M50.1841 19.9884L49.1145 20.642L46.916 17.1957L48.1044 16.4827L50.1841 19.9884Z" fill="#00497D"/>
<path d="M51.5507 19.1556L51.1942 19.3933L49.1145 15.8876L49.5304 15.6499L51.5507 19.1556Z" fill="#00497D"/>
<path d="M38.5383 29.2558L36.6369 31.1572L34.9137 33.2369L31.7645 30.6224L33.6659 28.4239L35.6268 26.3442L38.5383 29.2558Z" fill="#00497D"/>
<path d="M46.9166 22.1253C45.4905 23.1355 44.0645 24.2644 42.6978 25.3934L40.0834 22.3036C41.5104 21.0375 43.0189 19.8664 44.5993 18.7979L46.9166 22.1253Z" fill="#00497D"/>
<path d="M54.8785 17.3741L53.2148 18.2654L51.551 19.1567L49.5308 15.6509L51.2539 14.6408L53.0959 13.7495L54.8785 17.3741Z" fill="#00497D"/>
<path d="M56.4229 16.6604L55.9475 16.8387L54.2244 13.1547L54.6997 12.917L56.4229 16.6604Z" fill="#00497D"/>
<path d="M58.6216 15.6506L57.4332 16.1854L55.8289 12.3231L57.0767 11.7883L58.6216 15.6506Z" fill="#00497D"/>
<path d="M68.4853 12.4996L67.2969 12.7967L66.2867 8.81565L67.594 8.51855L68.4853 12.4996Z" fill="#00497D"/>
<path d="M70.6244 12.3226H69.3765L68.5447 8.34155H69.8519L70.6244 12.3226Z" fill="#00497D"/>
<path d="M60.0477 15.1151L59.6912 15.2339L58.1462 11.4311L58.5622 11.3123L60.0477 15.1151Z" fill="#00497D"/>
<path d="M78.6463 11.014H78.1115L77.8145 6.97348L78.4086 6.91406L78.6463 11.014Z" fill="#00497D"/>
<path d="M81.0226 10.8949L79.7154 10.9543L79.5371 6.85434L80.9038 6.79492L81.0226 10.8949Z" fill="#00497D"/>
<path d="M82.5678 10.8354L82.1518 10.8949L82.0924 6.79492H82.5678V10.8354Z" fill="#00497D"/>
<path d="M66.2274 13.035L63.6724 13.8074L61.1173 14.6987L59.6913 10.8364L62.4246 9.94515C63.3159 9.58864 64.2666 9.41038 65.1578 9.11328L66.2274 13.035Z" fill="#00497D"/>
<path d="M77.1013 11.1326L74.4274 11.4297H73.0608H71.7536L71.0405 7.38923H72.4666H73.8927C74.8434 7.38923 75.7941 7.38923 76.7448 7.03271L77.1013 11.1326Z" fill="#00497D"/>
<path d="M86.3703 11.0137C85.1225 11.0137 83.8153 11.0137 82.5675 11.0137V6.79492C83.9341 6.79492 85.2414 6.79492 86.608 6.79492L86.3703 11.0137Z" fill="#00497D"/>
<path d="M88.0941 11.1326L87.5593 11.0732L87.8564 7.03271H88.4506L88.0941 11.1326Z" fill="#00497D"/>
<path d="M90.4108 11.3706L89.163 11.1924L89.5789 7.15186L90.9455 7.33011L90.4108 11.3706Z" fill="#00497D"/>
<path d="M100.631 13.5714L99.3837 13.2149L100.513 9.29321L101.82 9.64973L100.631 13.5714Z" fill="#00497D"/>
<path d="M102.652 14.2242L101.463 13.8083L102.711 9.94604L104.018 10.362L102.652 14.2242Z" fill="#00497D"/>
<path d="M91.9558 11.5493L91.5398 11.4899L92.134 7.50879L92.6093 7.56821L91.9558 11.5493Z" fill="#00497D"/>
<path d="M110.138 17.3143L109.663 17.0766L111.446 13.3926L111.921 13.6897L110.138 17.3143Z" fill="#00497D"/>
<path d="M112.218 18.3833L111.089 17.7891L112.991 14.1646L114.179 14.8182L112.218 18.3833Z" fill="#00497D"/>
<path d="M113.585 19.1555L113.228 18.9773L115.248 15.4121L115.605 15.6498L113.585 19.1555Z" fill="#00497D"/>
<path d="M98.3732 12.9161C96.5906 12.4407 94.8674 12.0842 93.0848 11.7871L93.7979 7.74658C95.6993 8.04368 97.5413 8.51903 99.3833 8.93497L98.3732 12.9161Z" fill="#00497D"/>
<path d="M108.712 16.6597L106.276 15.5307L103.781 14.58L105.147 10.7178L107.821 11.7873L110.436 12.9163L108.712 16.6597Z" fill="#00497D"/>
<path d="M116.794 21.1759L113.585 19.1556L115.605 15.6499C116.794 16.3035 117.923 17.076 119.052 17.789L116.794 21.1759Z" fill="#00497D"/>
<path d="M118.219 22.1265L117.803 21.8294L120.121 18.502L120.596 18.799L118.219 22.1265Z" fill="#00497D"/>
<path d="M120.121 23.552C119.81 23.262 119.472 23.0033 119.111 22.7795L121.547 19.5115L122.616 20.2839L120.121 23.552Z" fill="#00497D"/>
<path d="M127.845 30.5054L127.013 29.6141L129.924 26.762L130.816 27.7127L127.845 30.5054Z" fill="#00497D"/>
<path d="M129.33 32.1086L128.499 31.1578L131.47 28.4246L132.361 29.4347L129.33 32.1086Z" fill="#00497D"/>
<path d="M121.369 24.5042L121.012 24.2665L123.567 21.0579L123.924 21.355L121.369 24.5042Z" fill="#00497D"/>
<path d="M134.203 38.526V38.1101L137.293 36.0898L137.65 36.5652L134.203 38.526Z" fill="#00497D"/>
<path d="M135.51 40.5474L134.797 39.4778L138.244 37.2793L138.957 38.4083L135.51 40.5474Z" fill="#00497D"/>
<path d="M136.283 41.9118L136.104 41.4958L139.61 39.4756L139.788 39.8321L136.283 41.9118Z" fill="#00497D"/>
<path d="M126.241 28.8414L124.28 26.9994L122.26 25.2168L124.874 22.0676L127.013 23.969L129.093 25.9299L126.241 28.8414Z" fill="#00497D"/>
<path d="M133.074 37.2783C132.071 35.7886 130.98 34.36 129.806 33.0001L133.074 30.1479C134.263 31.6334 135.451 33.1189 136.521 34.6638L133.074 37.2783Z" fill="#00497D"/>
<path d="M138.065 45.2395L137.234 43.5163L136.283 42.0308L139.789 39.9512C140.145 40.5454 140.502 41.1396 140.799 41.7337L141.749 43.5163L138.065 45.2395Z" fill="#00497D"/>
<path d="M138.838 46.7848L138.6 46.3094L142.284 44.5269L142.522 45.0616L138.838 46.7848Z" fill="#00497D"/>
<path d="M139.788 48.9257L139.016 47.975L142.759 46.3113C142.962 46.6959 143.141 47.0928 143.294 47.4997L139.788 48.9257Z" fill="#00497D"/>
<path d="M142.997 58.8488L142.7 57.6009L146.622 56.5908L146.978 57.9575L142.997 58.8488Z" fill="#00497D"/>
<path d="M143.472 60.987C143.472 60.5711 143.472 60.1551 143.472 59.7392L147.453 58.8479C147.581 59.2968 147.68 59.7533 147.75 60.2145L143.472 60.987Z" fill="#00497D"/>
<path d="M140.383 50.4087L140.205 49.9928L144.008 48.5073L144.186 48.9233L140.383 50.4087Z" fill="#00497D"/>
<path d="M144.483 69.009L144.423 68.4148L148.464 68.1177L148.523 68.7119L144.483 69.009Z" fill="#00497D"/>
<path d="M144.542 71.3252V70.0774L148.583 69.8992L148.642 71.2064L144.542 71.3252Z" fill="#00497D"/>
<path d="M144.602 72.871V72.4551H148.702V72.871H144.602Z" fill="#00497D"/>
<path d="M142.403 56.5901C142.403 55.6988 141.928 54.8075 141.631 53.9756L140.799 51.4206L144.602 50.054L145.552 52.7278C145.552 53.6785 146.087 54.5698 146.325 55.5205L142.403 56.5901Z" fill="#00497D"/>
<path d="M144.364 67.4022C144.364 66.5109 144.364 65.6196 144.364 64.7284V63.4211V62.1139L148.404 61.4009V62.7675V64.1936C148.404 65.1443 148.404 66.095 148.404 67.0457L144.364 67.4022Z" fill="#00497D"/>
<path d="M82.5679 128.901C113.514 128.901 138.6 103.815 138.6 72.8691C138.6 41.9232 113.514 16.8367 82.5679 16.8367C51.6221 16.8367 26.5355 41.9232 26.5355 72.8691C26.5355 103.815 51.6221 128.901 82.5679 128.901Z" stroke="#0095FF" stroke-width="1.44478" stroke-miterlimit="10" stroke-linecap="square" stroke-dasharray="5.37 5.37"/>
<path style="mix-blend-mode:screen" d="M82.5677 4.30051C96.1417 4.28876 109.414 8.30606 120.703 15.8435C131.992 23.381 140.79 34.0995 145.982 46.6412C151.174 59.1829 152.528 72.9835 149.87 86.2949C147.212 99.6063 140.664 111.829 131.054 121.416C124.671 127.783 117.096 132.831 108.763 136.271C100.429 139.711 91.4994 141.476 82.4837 141.465C73.4679 141.454 64.5426 139.667 56.2174 136.207C47.8921 132.746 40.33 127.68 33.9627 121.297C27.5954 114.914 22.5477 107.34 19.1077 99.006C15.6677 90.6723 13.9029 81.7427 13.9139 72.7269C13.9249 63.7112 15.7116 54.7859 19.172 46.4607C22.6324 38.1354 27.6986 30.5733 34.0815 24.206C40.4498 17.8524 48.0129 12.8223 56.3346 9.40593C64.6564 5.98953 73.5721 4.25437 82.5677 4.30051V4.30051ZM82.5677 0.438257C68.2252 0.426505 54.2015 4.66957 42.2712 12.6305C30.3409 20.5915 21.0403 31.9125 15.5462 45.161C10.0521 58.4096 8.61156 72.9901 11.4068 87.0576C14.202 101.125 21.1073 114.047 31.249 124.189C41.3907 134.331 54.313 141.236 68.3805 144.031C82.448 146.827 97.0285 145.386 110.277 139.892C123.526 134.398 134.847 125.097 142.808 113.167C150.769 101.237 155.012 87.2129 155 72.8704C155 53.6602 147.369 35.2368 133.785 21.6531C120.201 8.06948 101.778 0.438257 82.5677 0.438257V0.438257Z" fill="url(#paint2_linear_502_410)"/>
<path style="mix-blend-mode:screen" d="M82.5679 145.302C122.571 145.302 155 112.874 155 72.8704C155 32.8672 122.571 0.438232 82.5679 0.438232C42.5647 0.438232 10.1357 32.8672 10.1357 72.8704C10.1357 112.874 42.5647 145.302 82.5679 145.302Z" fill="url(#paint3_linear_502_410)"/>
<path fill-rule="evenodd" clip-rule="evenodd" d="M52.01 50.1946C51.2835 51.5552 51.254 88.843 51.9779 90.751C52.4915 92.1036 52.5993 92.1288 57.8756 92.1288H63.2506V93.5072C63.2506 95.7273 64.1926 96.9633 65.8847 96.9633C67.706 96.9633 68.699 95.7638 68.699 94.0089C68.699 91.7152 68.1951 92.2599 72.3652 92.2599C77.0915 92.0735 78.0866 91.7877 78.4174 90.5211C78.9814 88.3595 77.2855 87.3298 72.9014 87.1713L68.8802 87.0258L68.7167 84.4742C68.5515 81.8915 69.0362 81.2985 70.182 82.6823C71.5878 84.3792 75.8079 85.8461 79.4345 85.8993C82.5313 85.9445 83.2235 86.1443 84.528 87.3712C85.3579 88.1517 87.3642 89.4811 88.9861 90.3256C91.7071 91.7415 95.1661 92.46 97.8327 92.46C100.875 92.46 103.986 91.7281 106.548 90.404C110.955 88.1259 113.113 86.183 113.113 84.493C113.113 81.8276 109.756 81.3834 107.766 83.7861C106.284 85.5754 102.726 86.9226 98.8085 87.1789C95.3444 87.4055 94.6061 87.2653 91.4363 85.7795C89.4992 84.8712 87.9138 83.9338 87.9138 83.697C87.9138 83.4595 88.7003 82.6366 89.6617 81.8684C92.5205 79.5828 94.4812 75.3682 94.768 70.8915C94.983 67.5364 94.8259 66.6184 93.5483 63.7665C92.7419 61.966 91.6267 60.08 91.0701 59.5756C89.4381 58.0957 89.8799 57.3077 92.8368 56.4283C98.2386 54.8211 103.566 55.7811 107.723 59.1109C110.336 61.2043 111.779 61.3224 112.955 59.5385C113.664 58.4637 113.577 58.2107 111.839 56.2828C110.802 55.1332 108.554 53.4852 106.842 52.6204C103.967 51.1679 101.325 50.7418 97.8327 50.7418C94.768 50.7384 91.8599 51.076 88.2773 53.0088C85.0657 54.7411 84.4223 54.913 83.0031 54.4172C82.1142 54.1067 79.7369 53.9708 77.7204 54.1153C71.9422 54.5295 67.2825 57.8647 64.7604 63.3905C63.6425 65.8411 63.5181 67.0067 63.3444 76.6853L63.1535 87.2943H59.9854H56.8167V68.8696C56.8167 55.2557 56.6489 50.2767 56.1733 49.8003C55.154 48.7791 52.6389 49.0171 52.01 50.1946ZM80.4076 59.5654C80.4076 59.6777 79.7856 61.1301 79.0254 62.7937C77.1821 66.8278 76.7521 72.4004 77.9284 76.9974C78.4072 78.8678 78.7991 80.474 78.7991 80.5664C78.7991 80.9811 75.0337 79.8278 73.5818 78.9683C71.724 77.8687 69.3638 74.4593 68.8555 72.1409C67.8878 67.726 70.5981 62.2619 74.6771 60.4066C76.6191 59.5235 80.4076 58.967 80.4076 59.5654ZM88.3829 64.6169C89.8531 67.5272 90.1984 69.7382 89.556 72.1275C88.8853 74.6248 87.0409 77.4771 85.4024 78.5525C84.3076 79.2713 84.1698 79.2052 83.2803 77.533C82.5967 76.2476 82.3297 74.5372 82.3319 71.448C82.3345 67.8205 82.5629 66.7097 83.7982 64.3193C85.0941 61.814 85.3837 61.5534 86.3182 62.0546C86.8988 62.3662 87.828 63.5189 88.3829 64.6169Z" fill="#3BDEFF"/>
<defs>
<linearGradient id="paint0_linear_502_410" x1="94.5442" y1="64.8233" x2="20.8247" y2="142.43" gradientUnits="userSpaceOnUse">
<stop offset="0.01" stop-color="#52C7FE"/>
<stop offset="0.04" stop-color="#2A7AFE"/>
<stop offset="0.08" stop-color="#0027FF"/>
<stop offset="0.09" stop-color="#0026F6"/>
<stop offset="0.1" stop-color="#001FC8"/>
<stop offset="0.12" stop-color="#00189D"/>
<stop offset="0.14" stop-color="#001277"/>
<stop offset="0.16" stop-color="#000D57"/>
<stop offset="0.18" stop-color="#00093B"/>
<stop offset="0.2" stop-color="#000625"/>
<stop offset="0.23" stop-color="#000314"/>
<stop offset="0.26" stop-color="#000109"/>
<stop offset="0.31" stop-color="#000002"/>
<stop offset="0.45"/>
<stop offset="0.87"/>
<stop offset="0.94"/>
<stop offset="0.95" stop-color="#000103"/>
<stop offset="0.96" stop-color="#02060E"/>
<stop offset="0.97" stop-color="#040D1F"/>
<stop offset="0.98" stop-color="#081837"/>
<stop offset="0.99" stop-color="#0C2556"/>
<stop offset="1" stop-color="#0F2E6B"/>
</linearGradient>
<linearGradient id="paint1_linear_502_410" x1="90.657" y1="68.8956" x2="27.4424" y2="135.442" gradientUnits="userSpaceOnUse">
<stop stop-color="#003B69"/>
<stop offset="0.1" stop-color="#002E51"/>
<stop offset="0.24" stop-color="#001D34"/>
<stop offset="0.4" stop-color="#00101D"/>
<stop offset="0.57" stop-color="#00070D"/>
<stop offset="0.75" stop-color="#000203"/>
<stop offset="1"/>
</linearGradient>
<linearGradient id="paint2_linear_502_410" x1="131.41" y1="21.4727" x2="36.7554" y2="121.119" gradientUnits="userSpaceOnUse">
<stop offset="0.01" stop-color="#52C7FE"/>
<stop offset="0.04" stop-color="#2A7AFE"/>
<stop offset="0.08" stop-color="#0027FF"/>
<stop offset="0.09" stop-color="#0026F6"/>
<stop offset="0.1" stop-color="#001FC8"/>
<stop offset="0.12" stop-color="#00189D"/>
<stop offset="0.14" stop-color="#001277"/>
<stop offset="0.16" stop-color="#000D57"/>
<stop offset="0.18" stop-color="#00093B"/>
<stop offset="0.2" stop-color="#000625"/>
<stop offset="0.23" stop-color="#000314"/>
<stop offset="0.26" stop-color="#000109"/>
<stop offset="0.31" stop-color="#000002"/>
<stop offset="0.45"/>
<stop offset="0.87"/>
<stop offset="0.94"/>
<stop offset="0.95" stop-color="#000103"/>
<stop offset="0.96" stop-color="#02060E"/>
<stop offset="0.97" stop-color="#040D1F"/>
<stop offset="0.98" stop-color="#081837"/>
<stop offset="0.99" stop-color="#0C2556"/>
<stop offset="1" stop-color="#0F2E6B"/>
</linearGradient>
<linearGradient id="paint3_linear_502_410" x1="126.419" y1="26.7016" x2="45.2525" y2="112.147" gradientUnits="userSpaceOnUse">
<stop stop-color="#003B69"/>
<stop offset="0.1" stop-color="#002E51"/>
<stop offset="0.24" stop-color="#001D34"/>
<stop offset="0.4" stop-color="#00101D"/>
<stop offset="0.57" stop-color="#00070D"/>
<stop offset="0.75" stop-color="#000203"/>
<stop offset="1"/>
</linearGradient>
</defs>
</svg>
