<svg width="83" height="84" viewBox="0 0 83 84" fill="none" xmlns="http://www.w3.org/2000/svg">
<g clip-path="url(#clip0_87_2568)">
<path d="M70.8769 71.4654C87.0921 55.2502 87.0921 28.9602 70.8769 12.745C54.6617 -3.47013 28.3717 -3.47013 12.1566 12.745C-4.05861 28.9602 -4.05861 55.2502 12.1566 71.4654C28.3717 87.6806 54.6617 87.6806 70.8769 71.4654Z" fill="#1F1935"/>
<path d="M41.5216 1.96348C63.6405 1.96348 81.6634 19.9432 81.6634 42.1053C81.6634 64.2674 63.6836 82.2471 41.5216 82.2471C19.3595 82.2471 1.37974 64.2243 1.37974 42.1053C1.37974 19.9863 19.4026 1.96348 41.5216 1.96348ZM41.5216 0.58374C18.5834 0.58374 0 19.1671 0 42.1053C0 65.0435 18.5834 83.6269 41.5216 83.6269C64.4597 83.6269 83.0431 65.0435 83.0431 42.1053C83.0431 19.1671 64.4166 0.58374 41.5216 0.58374Z" fill="#0095FF"/>
<path d="M67.8281 68.4166C82.3595 53.8852 82.3595 30.3252 67.8281 15.7939C53.2967 1.26251 29.7368 1.26251 15.2054 15.7939C0.674037 30.3252 0.674037 53.8852 15.2054 68.4166C29.7368 82.9479 53.2967 82.9479 67.8281 68.4166Z" stroke="#0095FF" stroke-width="0.45" stroke-miterlimit="10"/>
<path d="M41.5215 73.6668C58.9525 73.6668 73.0831 59.5362 73.0831 42.1053C73.0831 24.6743 58.9525 10.5437 41.5215 10.5437C24.0906 10.5437 9.95996 24.6743 9.95996 42.1053C9.95996 59.5362 24.0906 73.6668 41.5215 73.6668Z" stroke="#0095FF" stroke-width="0.2" stroke-miterlimit="10"/>
<path d="M75.4115 46.2876C75.584 44.9078 75.6702 43.5281 75.6702 42.1052H80.1112C80.1112 43.6574 80.025 45.2528 79.8094 46.805L75.4115 46.2876Z" fill="#00497D"/>
<path d="M75.1097 48.1415L75.2391 47.5378L79.5939 48.2708L79.5077 48.9176L75.1097 48.1415Z" fill="#00497D"/>
<path d="M74.5923 50.6854L74.8941 49.3057L79.2489 50.2542L78.8609 51.7633L74.5923 50.6854Z" fill="#00497D"/>
<path d="M69.8926 61.0768L70.6256 59.9126L74.4198 62.2409L73.5575 63.5775L69.8926 61.0768Z" fill="#00497D"/>
<path d="M68.4697 63.0168L68.9009 62.4994L69.3321 61.8958L72.9108 64.4828L72.4796 65.1295L72.0053 65.7763L68.4697 63.0168Z" fill="#00497D"/>
<path d="M74.118 52.324C74.118 52.324 74.2043 52.0222 74.2474 51.8928L78.516 53.1432C78.516 53.1432 78.4297 53.4882 78.3866 53.6606L74.1612 52.324H74.118Z" fill="#00497D"/>
<path d="M62.1747 69.2688L62.649 68.9238L65.4085 72.3732L64.8479 72.8044L62.1747 69.2688Z" fill="#00497D"/>
<path d="M60.0619 70.7781L60.6224 70.39L61.226 70.002L63.7699 73.6238L63.1232 74.0549L62.4764 74.4861L60.0619 70.7781Z" fill="#00497D"/>
<path d="M58.5959 71.6835L58.984 71.4248L61.2692 75.2622L60.7949 75.5209L58.5959 71.6835Z" fill="#00497D"/>
<path d="M71.2292 58.8778C72.1778 57.1531 73.0402 55.3853 73.6869 53.5312L77.8692 54.9972C77.1363 57.11 76.1877 59.1364 75.1098 61.0767L71.2292 58.8778Z" fill="#00497D"/>
<path d="M63.5112 68.1909C65.0203 66.9405 66.4001 65.5176 67.6936 64.0085L71.0998 66.8543C69.6769 68.5789 68.0816 70.1312 66.4001 71.5971L63.5543 68.1909H63.5112Z" fill="#00497D"/>
<path d="M54.8447 73.5375C56.1382 72.977 57.3886 72.3734 58.5959 71.6404L60.838 75.4778C59.5013 76.297 58.0354 76.9438 56.6125 77.5905L54.8878 73.4944L54.8447 73.5375Z" fill="#00497D"/>
<path d="M53.0769 74.2273C53.0769 74.2273 53.465 74.098 53.6374 74.0117L55.2327 78.1509C55.2327 78.1509 54.8016 78.3234 54.586 78.4096L53.0769 74.2273Z" fill="#00497D"/>
<path d="M50.6193 75.0035C51.0504 74.8742 51.5247 74.7448 51.9559 74.6155L53.2925 78.8409C52.8182 79.0134 52.3008 79.1428 51.7834 79.2721L50.6193 75.0035V75.0035Z" fill="#00497D"/>
<path d="M39.2364 76.1676C39.7107 76.2107 40.185 76.2107 40.6161 76.2107L40.4868 80.6518C39.9694 80.6518 39.452 80.6518 38.9346 80.5655L39.2364 76.1245V76.1676Z" fill="#00497D"/>
<path d="M36.865 75.9089C37.3393 75.9521 37.7704 76.0383 38.2447 76.0814L37.8136 80.5224C37.2962 80.5224 36.7788 80.3931 36.2614 80.35L36.865 75.9521V75.9089Z" fill="#00497D"/>
<path d="M48.9376 75.4348L49.4119 75.3054L50.4036 79.6602L49.8862 79.7465L48.9376 75.4348Z" fill="#00497D"/>
<path d="M28.2847 73.5806L28.8453 73.7961L27.2068 77.9354L26.5601 77.6767L28.2847 73.5806Z" fill="#00497D"/>
<path d="M25.9564 72.5027C26.3876 72.7183 26.7756 72.9339 27.2068 73.1063L25.3528 77.1593C24.8785 76.9437 24.4042 76.7281 23.9299 76.4694L25.9564 72.5027Z" fill="#00497D"/>
<path d="M24.4473 71.6836L24.8353 71.8992L22.6795 75.7797L22.2052 75.521L24.4473 71.6836Z" fill="#00497D"/>
<path d="M41.8234 76.2539C43.8067 76.2539 45.747 76.0383 47.6873 75.6934L48.5065 80.0482C46.3075 80.4362 44.1086 80.6949 41.8665 80.6949V76.2539H41.8234Z" fill="#00497D"/>
<path d="M29.9232 74.2274C31.7772 74.9173 33.6744 75.3916 35.6146 75.7365L34.8385 80.0913C32.6395 79.7033 30.4837 79.1428 28.371 78.3667L29.8801 74.1843L29.9232 74.2274Z" fill="#00497D"/>
<path d="M20.9549 69.355C22.0759 70.1742 23.2401 70.9934 24.4473 71.6402L22.2053 75.4776C20.8255 74.7015 19.532 73.796 18.2816 72.8906L20.9549 69.355Z" fill="#00497D"/>
<path d="M19.4889 68.1909C19.4889 68.1909 19.7907 68.4496 19.9632 68.579L17.1606 72.0283C17.1606 72.0283 16.8157 71.7265 16.6432 71.5972L19.532 68.1909H19.4889Z" fill="#00497D"/>
<path d="M17.5486 66.4231L18.5834 67.3717L15.5653 70.6917L14.4442 69.6137L17.5486 66.4231Z" fill="#00497D"/>
<path d="M10.8655 57.1531L11.5122 58.4035L7.58858 60.5162L6.85559 59.1365L10.8655 57.1531Z" fill="#00497D"/>
<path d="M9.87384 54.9971C10.0463 55.4282 10.2619 55.8594 10.4344 56.2906L6.38137 58.1446C6.16579 57.6703 5.9502 57.196 5.73462 56.6786L9.83072 54.9971H9.87384Z" fill="#00497D"/>
<path d="M16.3413 65.1729L16.6862 65.5178L13.4525 68.5791L13.1075 68.1911L16.3413 65.1729Z" fill="#00497D"/>
<path d="M7.63169 46.417L7.71792 46.9775L3.32 47.6243L3.23376 46.9344L7.63169 46.417Z" fill="#00497D"/>
<path d="M7.41614 43.8298L7.50237 45.2096L3.10445 45.5976L2.9751 44.0454L7.41614 43.8298Z" fill="#00497D"/>
<path d="M7.37305 42.1052V42.5795L2.93201 42.6226V42.1052H7.37305Z" fill="#00497D"/>
<path d="M12.0727 59.4382C13.0644 61.1198 14.2286 62.7582 15.5221 64.2242L12.159 67.113C10.7361 65.4315 9.39948 63.6206 8.27844 61.6803L12.1158 59.4382H12.0727Z" fill="#00497D"/>
<path d="M7.89048 48.0985C8.23541 50.0388 8.75281 51.9359 9.39957 53.79L5.21723 55.2991C4.44113 53.1863 3.88061 51.0305 3.49255 48.8315L7.84736 48.0554L7.89048 48.0985Z" fill="#00497D"/>
<path d="M7.63175 37.9229C7.45928 39.3027 7.37305 40.6824 7.37305 42.1053H2.93201C2.93201 40.5099 3.01824 38.9577 3.23382 37.4055L7.63175 37.9229Z" fill="#00497D"/>
<path d="M7.89041 36.0259L7.80417 36.6295L3.40625 35.9396L3.5356 35.2498L7.89041 36.0259Z" fill="#00497D"/>
<path d="M8.45094 33.5251L8.14912 34.8617L3.79431 33.9563L4.13925 32.4041L8.45094 33.5251Z" fill="#00497D"/>
<path d="M13.1507 23.0907L12.3746 24.2549L8.58032 21.9266L9.44266 20.6331L13.1507 23.0907Z" fill="#00497D"/>
<path d="M14.5304 21.1504L14.0992 21.711L13.7112 22.2715L10.0894 19.6845L10.5636 19.0377L11.0379 18.4341L14.5304 21.1504Z" fill="#00497D"/>
<path d="M8.92527 31.8435C8.92527 31.8435 8.83903 32.1453 8.79591 32.2746L4.52734 31.0242C4.52734 31.0242 4.61358 30.6793 4.65669 30.5068L8.88215 31.8435H8.92527Z" fill="#00497D"/>
<path d="M20.8255 14.8986L20.3944 15.2867L17.6349 11.7942L18.1523 11.363L20.8255 14.8986Z" fill="#00497D"/>
<path d="M22.9814 13.4326L22.3778 13.8206L21.8172 14.2087L19.2302 10.5869L19.877 10.1126L20.5668 9.6814L22.9814 13.4326Z" fill="#00497D"/>
<path d="M24.4473 12.5271L24.0161 12.7427L21.774 8.9484L22.2052 8.6897L24.4473 12.5271Z" fill="#00497D"/>
<path d="M11.771 25.2898C10.8224 27.0145 9.96007 28.7822 9.31332 30.6363L5.13098 29.1703C5.86397 27.0576 6.81254 25.0311 7.89046 23.0908L11.771 25.2898Z" fill="#00497D"/>
<path d="M19.4888 15.9765C17.9798 17.2269 16.6 18.6498 15.3065 20.1589L11.9003 17.3132C13.3231 15.5885 14.9185 14.0363 16.6 12.5703L19.4457 15.9765H19.4888Z" fill="#00497D"/>
<path d="M28.1554 10.6299C26.8619 11.1904 25.6115 11.794 24.4042 12.527L22.1621 8.68963C23.4987 7.87041 24.9647 7.22366 26.3876 6.5769L28.1122 10.673L28.1554 10.6299Z" fill="#00497D"/>
<path d="M29.9232 9.94015C29.9232 9.94015 29.5351 10.0695 29.3627 10.1557L27.7673 6.01651C27.7673 6.01651 28.1985 5.84405 28.4141 5.75781L29.9232 9.94015Z" fill="#00497D"/>
<path d="M32.424 9.16384C31.9928 9.29319 31.5185 9.42254 31.0874 9.55189L29.7507 5.32643C30.225 5.15397 30.7424 5.02461 31.2598 4.89526L32.424 9.16384Z" fill="#00497D"/>
<path d="M43.7636 8.04299C43.2894 7.99988 42.8151 7.99988 42.3839 7.99988L42.5133 3.55884C43.0307 3.55884 43.5481 3.55884 44.0655 3.64507L43.7636 8.08611V8.04299Z" fill="#00497D"/>
<path d="M46.1782 8.25853C45.7039 8.21541 45.2727 8.12918 44.7985 8.08606L45.2296 3.64502C45.747 3.64502 46.2644 3.77437 46.7818 3.81749L46.1782 8.21541V8.25853Z" fill="#00497D"/>
<path d="M34.0624 8.77595L33.6312 8.86218L32.5964 4.55049L33.1138 4.42114L34.0624 8.77595Z" fill="#00497D"/>
<path d="M54.7153 10.5867L54.1548 10.3712L55.7932 6.23193L56.44 6.49064L54.7153 10.5867Z" fill="#00497D"/>
<path d="M57.0436 11.7077C56.6124 11.4922 56.2244 11.2766 55.7932 11.1041L57.6472 7.09424C58.1215 7.30982 58.5958 7.52541 59.0701 7.78411L57.0436 11.7509V11.7077Z" fill="#00497D"/>
<path d="M58.5958 12.527L58.1647 12.2683L60.3636 8.43091L60.7948 8.68961L58.5958 12.527Z" fill="#00497D"/>
<path d="M41.1766 7.95666C39.1933 7.95666 37.253 8.17225 35.3127 8.51718L34.4935 4.16238C36.6925 3.77433 38.8915 3.51562 41.1335 3.51562V7.95666H41.1766Z" fill="#00497D"/>
<path d="M53.12 9.98304C51.266 9.29317 49.3688 8.81888 47.4286 8.47395L48.2047 4.11914C50.4037 4.50719 52.5595 5.06771 54.6722 5.84382L53.1631 10.0262L53.12 9.98304Z" fill="#00497D"/>
<path d="M62.0884 14.8123C60.9674 13.9931 59.8032 13.1739 58.5959 12.5271L60.838 8.6897C62.2178 9.4658 63.5113 10.3713 64.7617 11.2767L62.0884 14.8123V14.8123Z" fill="#00497D"/>
<path d="M63.5544 16.0195C63.5544 16.0195 63.2525 15.7608 63.0801 15.6315L65.8827 12.1821C65.8827 12.1821 66.2276 12.4839 66.4001 12.6133L63.5112 16.0195H63.5544Z" fill="#00497D"/>
<path d="M65.4515 17.7443L64.4598 16.7957L67.4349 13.5188L68.5559 14.5967L65.4515 17.7443Z" fill="#00497D"/>
<path d="M72.1778 27.0145L71.531 25.7641L75.4115 23.6514L76.1445 25.0742L72.1778 27.0145Z" fill="#00497D"/>
<path d="M73.1263 29.2135C72.9538 28.7823 72.7383 28.3511 72.5658 27.9199L76.6188 26.0659C76.8344 26.5402 77.0499 27.0145 77.2655 27.5319L73.1694 29.2135H73.1263Z" fill="#00497D"/>
<path d="M66.6588 18.9947L66.3569 18.6498L69.5476 15.6316L69.9356 15.9765L66.6588 18.9947Z" fill="#00497D"/>
<path d="M75.3684 37.7936L75.3253 37.19L79.6801 36.5432L79.7664 37.2331L75.3684 37.7936Z" fill="#00497D"/>
<path d="M75.6272 40.3805L75.4978 38.9576L79.9389 38.5696L80.0682 40.1649L75.6272 40.3805Z" fill="#00497D"/>
<path d="M75.6702 42.1053L75.6271 41.631L80.0681 41.5879L80.1112 42.1053H75.6702Z" fill="#00497D"/>
<path d="M70.9274 24.7292C69.9357 23.0477 68.7715 21.4092 67.478 19.9433L70.8411 17.0544C72.264 18.736 73.6006 20.5469 74.7217 22.4872L70.8843 24.7292H70.9274Z" fill="#00497D"/>
<path d="M75.1097 36.0689C74.7647 34.1287 74.2473 32.2315 73.6006 30.3775L77.7829 28.8684C78.559 30.9811 79.1195 33.137 79.5076 35.3359L75.1528 36.112L75.1097 36.0689Z" fill="#00497D"/>
<path d="M41.5216 54.1779L23.1538 44.6059L41.5216 13.1306L59.8463 44.6059L41.5216 54.1779Z" stroke="#0095FF" stroke-width="1.2" stroke-linejoin="round"/>
<path d="M41.5216 57.196L23.1538 47.624L41.5216 71.3814L59.8463 47.624L41.5216 57.196Z" stroke="#0095FF" stroke-width="1.2" stroke-linejoin="round"/>
<path style="mix-blend-mode:multiply" d="M70.8769 71.4654C87.0921 55.2502 87.0921 28.9602 70.8769 12.745C54.6617 -3.47013 28.3717 -3.47013 12.1566 12.745C-4.05861 28.9602 -4.05861 55.2502 12.1566 71.4654C28.3717 87.6806 54.6617 87.6806 70.8769 71.4654Z" fill="url(#paint0_radial_87_2568)"/>
<path style="mix-blend-mode:screen" d="M41.5216 1.96348C52.2577 1.96348 62.3039 6.14582 69.8925 13.7344C77.481 21.323 81.6634 31.3692 81.6634 42.1053C81.6634 52.8414 77.481 62.8876 69.8925 70.4762C62.3039 78.0648 52.2577 82.2471 41.5216 82.2471C30.7855 82.2471 20.7392 78.0648 13.1506 70.4762C5.56208 62.8876 1.37974 52.7983 1.37974 42.1053C1.37974 31.4123 5.56208 21.2798 13.1506 13.7344C20.6961 6.14582 30.7855 1.96348 41.5216 1.96348ZM41.5216 0.58374C18.5834 0.58374 0 19.1671 0 42.1053C0 65.0435 18.5834 83.6269 41.5216 83.6269C64.4597 83.6269 83.0431 65.0435 83.0431 42.1053C83.0431 19.1671 64.4166 0.58374 41.5216 0.58374Z" fill="url(#paint1_linear_87_2568)"/>
<path style="mix-blend-mode:screen" d="M71.0805 71.0806C87.2957 54.8655 87.2957 28.5755 71.0805 12.3603C54.8654 -3.8549 28.5753 -3.85489 12.3602 12.3603C-3.855 28.5755 -3.855 54.8655 12.3602 71.0806C28.5753 87.2958 54.8654 87.2958 71.0805 71.0806Z" fill="url(#paint2_linear_87_2568)"/>
</g>
<defs>
<radialGradient id="paint0_radial_87_2568" cx="0" cy="0" r="1" gradientUnits="userSpaceOnUse" gradientTransform="translate(124.427 42.5415) scale(65.0944)">
<stop offset="0.63" stop-color="#2A4255"/>
<stop offset="1" stop-color="white"/>
</radialGradient>
<linearGradient id="paint1_linear_87_2568" x1="50.4468" y1="2.13595" x2="32.8119" y2="81.1261" gradientUnits="userSpaceOnUse">
<stop stop-color="#1D75FE"/>
<stop offset="0.01" stop-color="#1259FE"/>
<stop offset="0.02" stop-color="#0A42FE"/>
<stop offset="0.03" stop-color="#0433FE"/>
<stop offset="0.04" stop-color="#0129FE"/>
<stop offset="0.06" stop-color="#0025F5"/>
<stop offset="0.07" stop-color="#001EC7"/>
<stop offset="0.08" stop-color="#00179C"/>
<stop offset="0.09" stop-color="#001277"/>
<stop offset="0.11" stop-color="#000D56"/>
<stop offset="0.12" stop-color="#00093B"/>
<stop offset="0.13" stop-color="#000525"/>
<stop offset="0.15" stop-color="#000314"/>
<stop offset="0.17" stop-color="#000108"/>
<stop offset="0.2" stop-color="#000001"/>
<stop offset="0.29"/>
</linearGradient>
<linearGradient id="paint2_linear_87_2568" x1="53.7034" y1="2.78249" x2="29.5148" y2="81.2983" gradientUnits="userSpaceOnUse">
<stop stop-color="#003B69"/>
<stop offset="0.04" stop-color="#003055"/>
<stop offset="0.1" stop-color="#00213B"/>
<stop offset="0.18" stop-color="#001525"/>
<stop offset="0.26" stop-color="#000B14"/>
<stop offset="0.37" stop-color="#000408"/>
<stop offset="0.52" stop-color="#000101"/>
<stop offset="0.94"/>
</linearGradient>
<clipPath id="clip0_87_2568">
<rect width="83" height="83" fill="white" transform="translate(0 0.58374)"/>
</clipPath>
</defs>
</svg>
