<svg width="228" height="286" viewBox="0 0 228 286" fill="none" xmlns="http://www.w3.org/2000/svg">
<path d="M274.251 24.2412L298.106 50.2934C307.68 60.2647 309.325 77.1004 302.106 99.6055C284.268 155.71 216.275 226.564 150.586 257.527C111.254 276.028 81.5072 276.144 67.8591 261.19L43.9367 235.154C57.652 250.092 87.3316 249.992 126.647 231.424C192.336 200.461 260.346 129.674 278.183 73.5699C285.386 50.9976 283.405 34.2444 274.251 24.2412Z" fill="url(#paint0_linear_353_632)"/>
<path d="M191.457 27.9207C257.145 -3.04233 296.088 17.4491 278.183 73.5699C260.278 129.691 192.336 200.461 126.664 231.491C60.9918 262.521 22.3844 241.947 39.9535 185.909C57.5226 129.871 125.835 58.8673 191.457 27.9207Z" fill="#009CFF"/>
<path d="M189.86 33.0151C127.398 62.6152 62.943 129.607 45.9379 183.014C28.9328 236.42 65.817 255.779 128.312 226.313C190.807 196.847 255.228 129.721 272.25 76.3818C289.272 23.0427 252.354 3.54933 189.86 33.0151Z" fill="#14172B"/>
<path d="M281.477 38.2801L281.113 36.8021C280.948 36.1302 280.8 35.5256 280.634 34.8538C280.469 34.182 280.469 34.182 280.37 33.7789L280.09 32.6368C280.067 32.3826 280.006 32.1334 279.908 31.8978L279.71 31.0917C279.71 31.0917 279.611 30.6886 279.578 30.5542C279.545 30.4198 279.578 30.5542 279.578 30.5542C279.578 30.5542 279.495 30.2183 279.462 30.0839C279.429 29.9496 279.462 30.0839 279.462 30.0839L279.297 29.4121L279.132 28.7403L278.465 27.7645L278.266 26.9583L277.665 26.2512L277.55 25.7809L277.434 25.3107C275.503 23.3225 273.308 21.6088 270.911 20.2174C268.665 18.9268 266.283 17.8876 263.81 17.1185C259.573 15.8191 255.179 15.1016 250.748 14.9858C238.68 14.9066 226.695 16.9839 215.357 21.1197L211.493 22.4969C206.201 24.4389 200.705 26.7157 195.091 29.3779C191.965 30.8587 188.721 32.4397 185.829 34.0054C182.937 35.5711 179.524 37.336 176.547 39.1362L173.487 40.8858L167.298 44.6866L164.22 46.6542L158.08 50.6566L155.035 52.7586C151.99 54.8606 148.962 57.0297 146.017 59.2495L137.165 66.1271L131.207 70.8685L128.379 73.2733L122.487 78.2834C118.749 81.6243 115.028 85.0323 111.375 88.1386C106.407 92.8504 101.606 97.6635 97.0062 102.712C94.0745 105.855 91.428 108.999 88.3125 111.973L85.9194 114.698L83.6099 117.475L81.3841 120.301C80.6088 121.204 79.8334 122.107 79.1418 123.061L76.916 125.888L74.8246 128.681L73.7453 130.086L70.6417 134.269C57.8285 149.787 47.473 167.181 39.9368 185.842C33.2947 206.638 34.7579 222.734 41.9831 232.713C42.1812 233.519 43.0512 234.16 43.6524 234.867L43.7679 235.338L44.3526 235.978C44.8276 236.271 45.2053 236.699 45.4383 237.207L45.5374 237.61L45.6364 238.013L46.4226 238.603L47.2925 239.244L48.1294 239.751C48.4894 240.007 48.8768 240.223 49.2845 240.393L50.0884 240.766L53.807 242.274L54.3763 242.561L55.5655 243.053L56.9728 243.562L58.1456 243.986L59.5364 244.428L62.4027 245.077L64.2472 245.336L65.2195 245.524L65.8241 245.376L67.5178 245.601L69.2621 245.742L70.404 245.461L72.1825 245.451C73.2573 245.187 74.5313 245.444 75.7394 245.432L76.4783 245.25L77.6203 244.97L78.5607 244.739L79.1653 244.59L79.7698 244.441L80.7103 244.21L81.8522 243.929L82.7256 243.715C84.6065 243.253 86.6217 242.757 88.736 242.665L89.0719 242.582C91.423 242.005 93.8413 241.41 96.3939 240.783L99.887 239.924L100.559 239.759L104.253 238.851L104.925 238.686L110.218 236.744C114.906 234.951 119.813 232.89 124.855 230.51C140.981 222.741 156.355 213.502 170.784 202.908L179.669 196.165L182.597 193.878L188.538 189.069L191.434 186.648L197.342 181.705C201.08 178.364 204.734 174.973 208.454 171.85C213.405 167.071 218.189 162.191 222.806 157.209C225.738 154.066 228.384 150.922 231.433 147.965L233.742 145.189L236.052 142.413L238.361 139.637L240.587 136.81L242.762 134.067L244.921 131.257L245.916 129.801L249.02 125.618C253.052 119.997 256.799 114.374 260.16 108.632C261.595 106.356 262.93 103.962 264.214 101.652L264.941 100.262C265.498 99.3415 265.988 98.4374 266.462 97.4661L268.575 93.3134L269.895 90.567L270.488 89.2102L271.74 86.4803C272.925 83.7668 274.043 81.0699 275.06 78.5404L275.976 75.893C276.248 74.9712 276.604 74.1002 276.825 73.2621C277.941 69.8886 278.857 66.4522 279.567 62.9709L280.03 60.5062C280.143 60.1185 280.213 59.7191 280.236 59.3157C280.407 58.5613 280.494 57.7563 280.597 57.0185L280.736 55.8445C280.875 54.6706 280.963 53.5803 281.051 52.49L281.161 50.326C281.29 47.2922 281.139 44.253 280.71 41.2468C280.512 40.4407 280.33 39.7016 280.148 38.9627L281.477 38.2801ZM272.267 76.1634C255.246 129.502 190.84 196.696 128.329 226.095C65.8177 255.493 28.9666 236.269 45.9551 182.795C62.9436 129.322 127.382 62.2625 189.877 32.7967C252.372 3.33098 289.255 22.9753 272.25 76.3815L272.267 76.1634Z" fill="url(#paint1_linear_353_632)"/>
<path d="M187.77 39.5838C129.629 67.0535 69.4521 129.717 53.6697 179.403C37.8873 229.089 72.2598 247.214 130.418 219.811C188.576 192.409 248.669 129.694 264.518 79.9917C280.368 30.289 245.877 12.265 187.77 39.5838ZM262.098 81.1566C246.588 129.636 187.793 190.962 130.963 217.682C74.1332 244.402 40.5976 226.785 55.9559 178.271C71.3143 129.758 130.26 68.4655 187.074 41.6785C243.887 14.8914 277.59 32.6102 262.165 81.1401L262.098 81.1566Z" fill="#075784"/>
<path d="M180.753 121.168C180.684 121.132 180.623 121.081 180.574 121.019C180.526 120.957 180.491 120.886 180.472 120.81C180.453 120.734 180.451 120.654 180.465 120.577C180.48 120.5 180.51 120.426 180.555 120.362L185.954 91.6079L150.404 108.111C149.464 108.342 148.993 108.457 149.131 107.568L152.761 93.3546C152.893 92.9457 153.118 92.5732 153.419 92.2666C153.763 91.9017 154.175 91.607 154.631 91.3989L210.235 64.9091C211.243 64.6614 211.847 64.5128 211.76 65.3179L204.672 109.804C204.556 110.271 204.317 110.699 203.98 111.043C203.581 111.457 203.107 111.791 202.583 112.027L182.415 120.973C182.212 121.207 181.929 121.356 181.622 121.392C181.315 121.428 181.005 121.348 180.753 121.168ZM189.206 88.0302C189.206 88.0302 189.305 88.4333 189.387 88.7692L183.955 117.674L200.459 110.341L207.301 68.6222L154.941 93.5311L152.295 105.081L187.761 88.5278C187.893 88.3676 188.057 88.2362 188.242 88.1418C188.427 88.0473 188.629 87.9917 188.837 87.9784L189.206 88.0302Z" fill="#01A1FF"/>
<path d="M97.1113 186.607C96.9955 186.497 96.9136 186.357 96.8755 186.202C96.8375 186.047 96.8448 185.885 96.8967 185.734L109.8 138.536C109.994 138.121 110.232 137.728 110.51 137.364C110.862 137.009 111.271 136.715 111.721 136.497L129.335 128.463C130.276 128.232 130.746 128.116 130.625 129.072L123.21 158.607L159.513 142.56C160.52 142.313 161.058 142.18 160.97 143.271L157.901 159.769C157.739 160.272 157.462 160.731 157.091 161.108C156.715 161.548 156.235 161.886 155.694 162.092L98.3877 186.293C98.2303 186.467 98.0248 186.589 97.7974 186.645C97.57 186.701 97.3311 186.688 97.1113 186.607ZM112.703 138.464L100.666 182.812L154.343 160.073L157.199 146.477L120.963 162.507C120.023 162.738 119.485 162.87 119.641 161.764L127.173 132.129L112.703 138.464Z" fill="#01A1FF"/>
<path d="M171.979 155.026C171.979 155.026 171.847 154.489 171.748 154.086L175.329 135.325C175.473 134.849 175.735 134.418 176.089 134.069C176.465 133.63 176.945 133.291 177.485 133.085L200.577 122.992C201.652 122.728 202.256 122.58 202.235 123.653L199.024 142.466C198.924 142.991 198.671 143.475 198.297 143.856C197.875 144.277 197.379 144.616 196.833 144.857L173.154 154.88C172.978 154.982 172.783 155.047 172.582 155.072C172.38 155.097 172.175 155.082 171.979 155.026ZM178.584 135.237L175.35 151.063L195.164 142.703L197.76 126.891L178.584 135.237Z" fill="#01A1FF"/>
<path d="M113.472 126.52C113.353 126.444 113.267 126.325 113.234 126.187C113.2 126.05 113.22 125.905 113.29 125.781L117.648 109.893C117.747 109.454 117.97 109.053 118.29 108.737C118.642 108.382 119.051 108.088 119.501 107.87L138.63 98.7512C139.57 98.5201 140.041 98.4045 139.886 99.2261L136.519 115.085C136.337 115.49 136.092 115.863 135.793 116.19C135.442 116.59 135.012 116.914 134.531 117.141L114.832 126.257C114.639 126.401 114.417 126.499 114.182 126.545C113.946 126.59 113.704 126.582 113.472 126.52ZM120.367 109.652L116.539 123.06L133.095 115.357L136.436 101.998L120.367 109.652Z" fill="#01A1FF"/>
<path d="M138.983 141.052C138.983 141.052 138.884 140.649 138.802 140.313L143.288 121.472C143.456 121.002 143.717 120.572 144.055 120.207C144.394 119.842 144.804 119.55 145.26 119.349L168.236 108.786C169.177 108.555 169.781 108.406 169.66 109.362L165.777 128.34C165.651 128.788 165.406 129.193 165.067 129.512C164.707 129.935 164.251 130.266 163.738 130.48L140.175 140.973C139.996 141.079 139.796 141.142 139.588 141.156C139.381 141.169 139.174 141.134 138.983 141.052ZM146.175 121.332L142.42 137.358L162.454 128.444L165.638 112.416L146.175 121.332Z" fill="#01A1FF"/>
<defs>
<linearGradient id="paint0_linear_353_632" x1="281.667" y1="100.497" x2="55.1223" y2="234.6" gradientUnits="userSpaceOnUse">
<stop stop-color="#0678B7"/>
<stop offset="0.01" stop-color="#0673B0"/>
<stop offset="0.09" stop-color="#045B90"/>
<stop offset="0.16" stop-color="#024776"/>
<stop offset="0.24" stop-color="#013A63"/>
<stop offset="0.32" stop-color="#003259"/>
<stop offset="0.41" stop-color="#002F55"/>
<stop offset="0.75" stop-color="#00162A"/>
</linearGradient>
<linearGradient id="paint1_linear_353_632" x1="277.556" y1="36.8214" x2="38.9345" y2="223.825" gradientUnits="userSpaceOnUse">
<stop stop-color="#85FCFF"/>
<stop offset="0.03" stop-color="#61E9FF"/>
<stop offset="0.05" stop-color="#43D9FF"/>
<stop offset="0.08" stop-color="#2ACCFF"/>
<stop offset="0.12" stop-color="#17C2FF"/>
<stop offset="0.15" stop-color="#0ABBFF"/>
<stop offset="0.2" stop-color="#02B7FF"/>
<stop offset="0.3" stop-color="#00B6FF"/>
<stop offset="1" stop-color="#009CFF"/>
</linearGradient>
</defs>
</svg>
