<svg width="268" height="243" viewBox="0 0 268 243" fill="none" xmlns="http://www.w3.org/2000/svg">
<path d="M64.1125 23.4518L45.0295 40.2874C30.5033 53.0652 27.3602 78.3276 38.9829 110.176C58.5525 163.725 112.83 216.28 159.742 227.294C178.674 231.8 193.662 228.726 203.467 220.101L222.55 203.265C212.745 211.89 197.792 214.835 178.825 210.458C131.783 199.409 77.6355 146.89 58.0659 93.34C46.3483 61.3278 49.5862 36.2296 64.1125 23.4518Z" fill="url(#paint0_linear_353_647)"/>
<path d="M107.803 16.3885C60.7612 5.33933 38.4617 39.9202 58.1609 93.5045C77.7306 147.054 132.008 199.608 178.92 210.623C225.961 221.672 248.261 187.091 228.691 133.541C209.122 79.9917 154.845 27.4376 107.932 16.4231L107.803 16.3885Z" fill="#009CFF"/>
<path d="M109.58 21.168C154.289 31.5934 205.681 81.4325 224.414 132.398C243.017 183.329 221.885 216.139 177.211 205.584C132.503 195.159 81.1105 145.32 62.3776 94.3544C43.7745 43.4234 64.9062 10.6131 109.58 21.168Z" fill="#14172B"/>
<path d="M52.5547 43.8267C52.5547 43.8267 52.8665 42.6604 53.0397 42.0125C53.109 41.7534 53.1782 41.4942 53.2129 41.3646L53.3168 40.9758C53.594 39.9392 53.8365 39.0321 54.2086 38.1597L54.2779 37.9005C54.2779 37.9005 54.4164 37.3822 54.65 37.0281L54.7193 36.769C54.7193 36.769 54.9618 35.8619 55.1953 35.5078L55.2646 35.2486C55.2646 35.2486 55.5674 34.6353 55.801 34.2813C55.801 34.2813 56.0088 33.5037 56.3374 33.3139L56.4413 32.9251C56.4413 32.9251 56.943 32.0874 57.0469 31.6986C57.1509 31.3099 57.514 30.9904 57.7129 30.7659L57.7822 30.5067L57.9118 30.5414C57.9118 30.5414 58.3789 29.8332 58.4482 29.5741C58.4482 29.5741 58.5521 29.1853 58.846 29.125L59.2784 28.5464L59.3824 28.1577C59.3824 28.1577 59.9444 27.6137 60.1433 27.3892L60.2473 27.0004C60.2473 27.0004 60.7747 26.586 60.9736 26.3615L61.0775 25.9728L61.7692 25.4635L61.8731 25.0748L62.1323 25.1441L62.2362 24.7553L62.8933 24.3756L63.2564 24.0561L63.3604 23.6674L63.8185 23.5122L63.8878 23.253L64.3459 23.0978C65.0722 22.4589 65.7985 21.82 66.6198 21.3454C67.1472 20.931 67.64 20.6462 68.1674 20.2318C68.4959 20.042 68.8244 19.8521 69.1529 19.6622C69.6457 19.3774 70.1385 19.0927 70.7955 18.7129C71.2536 18.5577 71.6168 18.2383 72.0749 18.0831L72.8615 17.738C72.8615 17.738 73.8124 17.298 74.2706 17.1428C77.0539 16.0819 80.0619 15.22 83.2598 14.6865C84.271 14.5403 85.4119 14.4288 86.5527 14.3172C87.6935 14.2057 88.8344 14.0942 89.9406 14.1122C90.7875 14.0609 91.4702 14.1046 92.3172 14.0534C93.1295 14.1317 93.9765 14.0804 94.7888 14.1588C95.6011 14.2371 96.4134 14.3154 97.2257 14.3937C98.0381 14.4721 98.8504 14.5504 99.7923 14.6634C101.123 14.8803 102.324 15.0626 103.655 15.2795C104.562 15.5221 105.47 15.7646 106.282 15.843C106.671 15.9469 107.189 16.0855 107.578 16.1895C107.967 16.2934 108.356 16.3974 108.874 16.536C112.374 17.4716 115.873 18.4072 119.269 19.7315C121.662 20.649 124.056 21.5666 126.414 22.6137C127.417 23.0205 128.384 23.5569 129.386 23.9637C131.356 24.9069 133.456 25.8847 135.391 26.9574C136.229 27.4591 137.231 27.866 138.069 28.3677C138.329 28.437 138.683 28.6705 138.907 28.8694C139.616 29.3365 140.359 29.674 141.067 30.1411C141.775 30.6081 142.519 30.9456 143.227 31.4127C143.935 31.8798 144.549 32.1826 145.257 32.6497L145.516 32.719C146.225 33.186 146.803 33.6185 147.512 34.0855L147.771 34.1549C148.48 34.6219 149.153 35.2186 149.991 35.7203C150.44 36.1181 151.054 36.4209 151.503 36.8187C152.211 37.2857 152.92 37.7528 153.499 38.1853C155.27 39.3529 156.876 40.6155 158.613 41.9128C159.995 42.9765 161.506 44.0749 162.854 45.2682C164.236 46.332 165.713 47.5599 167.061 48.7533C168.184 49.7477 169.436 50.7767 170.559 51.7712C173.833 54.5902 177.037 57.6684 180.112 60.712C181.01 61.5075 181.745 62.398 182.643 63.1935C183.861 64.3522 184.914 65.6058 186.003 66.7298C187.091 67.8538 188.05 68.9431 189.138 70.0672C190.641 71.7185 192.109 73.4995 193.612 75.1509C195.848 77.6927 197.921 80.3295 199.959 83.0958C201.073 84.6432 202.222 86.061 203.335 87.6084C203.845 88.3 204.449 89.1559 204.959 89.8475C206.582 92.0864 208.171 94.455 209.76 96.8236C213.317 102.218 216.676 107.836 219.611 113.481C220.086 114.302 220.431 115.088 220.906 115.909C223.711 121.519 226.188 127.318 228.406 133.049C230.494 138.744 232.099 144.171 233.219 149.33C233.702 151.681 234.219 153.902 234.477 156.054C234.598 156.641 234.589 157.194 234.744 157.652C234.856 158.793 235.002 159.804 235.114 160.944C235.225 162.085 235.242 163.061 235.388 164.072C235.405 165.049 235.517 166.19 235.534 167.166C235.795 179.176 233.127 189.154 227.929 196.65C227.427 197.488 226.83 198.162 226.199 198.965C225.801 199.414 225.369 199.992 224.971 200.441C224.573 200.891 224.046 201.305 223.648 201.754C223.285 202.073 222.887 202.522 222.394 202.807C222.394 202.807 221.962 203.386 221.633 203.576C221.27 203.895 220.743 204.309 220.25 204.594L219.757 204.879L219.688 205.138C219.688 205.138 218.901 205.483 218.573 205.673C218.573 205.673 218.045 206.088 217.717 206.277L217.224 206.562L216.896 206.752L216.403 207.037C216.403 207.037 215.746 207.417 215.417 207.606C215.089 207.796 214.795 207.857 214.466 208.046L214.138 208.236C214.138 208.236 213.515 208.486 213.187 208.676C212.893 208.737 212.694 208.961 212.4 209.021C212.106 209.082 211.942 209.177 211.648 209.237C210.732 209.547 209.945 209.892 209.064 210.073L208.735 210.263L207.983 210.479L207.724 210.409L207.655 210.668C207.655 210.668 207.231 210.694 207.067 210.789C206.609 210.944 206.185 210.97 205.727 211.125C205.727 211.125 205.01 211.211 204.716 211.271L204.128 211.392C204.128 211.392 203.411 211.478 202.988 211.503L202.599 211.399C202.599 211.399 201.976 211.65 201.553 211.675C201.129 211.701 200.542 211.821 199.989 211.812C199.565 211.838 199.012 211.829 198.588 211.855C198.165 211.88 197.612 211.871 197.059 211.862C196.212 211.913 195.365 211.965 194.423 211.852L194.293 211.817C194.293 211.817 193.74 211.808 193.446 211.868L193.058 211.764C193.058 211.764 192.34 211.85 192.081 211.781C191.104 211.797 190.162 211.685 189.091 211.537C188.702 211.433 188.313 211.329 187.89 211.355C187.631 211.285 187.371 211.216 187.112 211.147C186.17 211.034 185.099 210.886 184.157 210.773C183.638 210.635 183.249 210.531 182.731 210.392L182.342 210.288C182.342 210.288 181.305 210.011 180.787 209.872L180.398 209.768C180.398 209.768 179.491 209.526 179.102 209.422C173.105 207.957 167.117 205.94 161.009 203.335C159.522 202.66 158.036 201.985 156.55 201.31C155.064 200.635 153.613 199.83 152.127 199.155C150.675 198.351 149.224 197.546 147.643 196.707C143.902 194.596 140.325 192.391 136.689 189.891C135.272 188.957 133.76 187.858 132.343 186.924C127.324 183.361 122.279 179.374 117.434 175.163C114.609 172.742 111.949 170.225 109.159 167.675C108.485 167.078 107.846 166.352 107.172 165.755C105.859 164.432 104.546 163.109 103.234 161.786C102.594 161.06 101.921 160.463 101.282 159.737C99.9688 158.414 98.6906 156.962 97.4124 155.509C96.1342 154.057 94.9509 152.769 93.6727 151.316C91.2459 148.446 88.8191 145.576 86.5912 142.481C85.4426 141.063 84.3287 139.515 83.2147 137.968C82.7053 137.276 82.1008 136.421 81.5913 135.729C79.9679 133.49 78.3791 131.122 76.7903 128.753C69.1055 116.979 62.7951 104.74 58.2736 92.5627C56.1855 86.8672 54.5812 81.4399 53.4607 76.2808C52.9781 73.9302 52.4608 71.7093 52.2028 69.5576C52.0822 68.97 52.0911 68.417 51.9358 67.959C51.6778 65.8073 51.4198 63.6557 51.2913 61.5387C51.2746 60.5623 51.1629 59.4217 51.1462 58.4453C51.1217 55.9395 51.2269 53.4685 51.332 50.9974C51.636 48.3018 52.0697 45.6408 52.5636 43.2737L52.5547 43.8267ZM62.3776 94.3541C80.9808 145.285 132.373 195.124 177.211 205.584C221.92 216.009 243.147 183.363 224.414 132.398C211.229 96.5222 181.927 61.1971 150.024 39.7554C137.212 31.0542 123.907 24.7202 111.17 21.454C110.652 21.3154 110.133 21.1768 109.615 21.0381C93.7931 17.3637 81.0104 18.9447 71.8981 24.978C63.3132 30.597 57.9237 39.8472 56.1969 52.0203C54.6087 63.6752 56.5881 78.0888 62.4123 94.2245L62.3776 94.3541Z" fill="#009CFF"/>
<path d="M112.35 28.9893L112.998 29.1626L114.491 33.4493L113.843 33.2761C113.843 33.2761 112.676 32.9642 112.028 32.7909L110.276 28.4349C110.276 28.4349 111.572 28.7814 112.091 28.92L112.35 28.9893ZM107.485 27.9664L109.367 32.357C108.718 32.1838 108.036 32.1401 107.353 32.0964L105.472 27.7058C106.12 27.8791 106.802 27.9227 107.615 28.0011L107.485 27.9664ZM102.516 27.3322L104.657 31.7922C103.845 31.7139 103.032 31.6355 102.185 31.6868L100.045 27.2268C100.857 27.3052 101.704 27.2539 102.646 27.3669L102.516 27.3322ZM129.147 34.7296L129.862 38.8084C128.989 38.4363 127.987 38.0294 127.115 37.6573L126.27 33.5439C127.272 33.9507 128.274 34.3574 129.147 34.7296ZM133.216 36.6506L133.707 40.5305C132.739 39.9941 131.867 39.622 130.864 39.2152L130.279 35.1711C131.281 35.5778 132.249 36.1142 133.251 36.521L133.216 36.6506ZM139.316 39.8086L139.487 43.3254L139.418 43.5845L139.158 43.5152C138.45 43.0482 137.612 42.5464 136.869 42.2089L136.508 38.3637C137.476 38.9001 138.314 39.4018 139.281 39.9381L139.316 39.8086ZM88.9994 28.0227L91.8574 32.3968C91.8574 32.3968 90.682 32.6379 90.0596 32.8881L87.2015 28.514C87.2015 28.514 88.5413 28.178 89.129 28.0574L88.9994 28.0227ZM143.281 42.1183L143.8 42.2569L143.737 46.1278C142.77 45.5914 141.837 44.9255 140.869 44.3891L140.827 42.9893L140.733 40.7427C141.571 41.2444 142.409 41.7462 143.247 42.2479L143.281 42.1183ZM86.0261 28.7551L88.8841 33.1291C88.8841 33.1291 87.674 33.4999 87.0516 33.75L84.0293 29.4709C84.0293 29.4709 85.2741 28.9706 85.9914 28.8847L86.0261 28.7551ZM81.8683 30.2816L85.0202 34.5954C85.0202 34.5954 83.7755 35.0957 83.248 35.51L79.9319 31.2912C79.9319 31.2912 81.2113 30.6613 81.8337 30.4112L81.8683 30.2816ZM157.605 51.9179L156.773 55.0278C155.97 54.3965 155.071 53.601 154.138 52.935L154.745 49.6262C155.678 50.2921 156.706 51.1223 157.639 51.7882L157.605 51.9179ZM160.818 54.4431C161.716 55.2386 162.649 55.9046 163.548 56.7001L162.492 59.6112C161.593 58.8157 160.79 58.1843 159.857 57.5184L160.688 54.4084L160.818 54.4431ZM73.9404 35.5209L77.4555 39.5152C77.4555 39.5152 76.5303 40.3786 76.0978 40.9572L72.4185 37.0578C72.4185 37.0578 73.3783 36.0648 73.9058 35.6504L73.9404 35.5209ZM164.895 57.8934C165.793 58.6889 166.597 59.3203 167.495 60.1158L166.215 62.828C165.446 62.0671 164.642 61.4358 163.874 60.6749L164.93 57.7638L164.895 57.8934ZM71.8218 37.7313L75.5011 41.6307C75.5011 41.6307 74.7055 42.5288 74.3077 42.9778L70.5938 39.208C70.5938 39.208 71.424 38.1804 71.8218 37.7313ZM69.2618 41.0734L73.0104 44.7136C73.0104 44.7136 72.3098 45.7759 72.0069 46.3892L68.1287 42.7143C68.4315 42.101 68.864 41.5225 69.2964 40.9439L69.2618 41.0734ZM67.7566 43.5867L71.6695 47.132C71.6695 47.132 71.0638 48.3586 70.761 48.9718L66.8481 45.4265C67.0213 44.7786 67.4538 44.2 67.7912 43.4572L67.7566 43.5867ZM180.373 72.7225C181.237 73.6476 182.101 74.5727 182.964 75.4979L180.915 77.4492C180.051 76.5241 179.317 75.6336 178.454 74.7084L180.408 72.5929L180.373 72.7225ZM185.84 78.7659C186.479 79.4922 187.119 80.2184 187.853 81.1089L185.613 82.7318C184.974 82.0055 184.335 81.2792 183.696 80.553L185.84 78.7659ZM190.469 84.3076C191.203 85.1981 192.032 86.2528 192.767 87.1433L190.173 88.5326C189.439 87.6421 188.705 86.7517 187.971 85.8612L190.34 84.273L190.469 84.3076ZM67.7739 58.5866C67.6007 59.2345 67.5224 60.0466 67.4788 60.7292L63.3927 57.8318C63.6006 57.0543 63.6442 56.3718 63.7224 55.5596L67.7739 58.5866ZM67.2094 63.2952C67.2094 63.2952 67.1569 64.5307 67.1133 65.2133L62.9579 62.5751C62.9579 62.5751 63.0451 61.21 63.0887 60.5274L67.2094 63.2952ZM67.0685 67.9782C67.1198 68.825 67.0416 69.6372 67.093 70.484L62.9979 68.1396C62.9465 67.2928 62.9298 66.3164 62.8784 65.4696L66.9388 67.9436L67.0685 67.9782ZM202.913 101.658C203.612 102.678 204.277 103.827 204.847 104.813L201.684 105.217C201.114 104.231 200.414 103.211 199.844 102.226L202.913 101.658ZM205.512 105.962C206.211 106.982 206.746 108.097 207.316 109.083L204.058 109.322C203.488 108.337 202.918 107.352 202.348 106.366L205.512 105.962ZM209.276 112.661C209.846 113.647 210.286 114.597 210.821 115.712L207.373 115.624C206.933 114.673 206.363 113.687 205.923 112.737L209.276 112.661ZM68.84 83.1693C69.021 84.0508 69.2366 84.8026 69.4176 85.6841L65.3739 84.1865C65.1929 83.305 64.8823 82.3889 64.7013 81.5075L68.7104 83.1347L68.84 83.1693ZM211.641 117.32C212.176 118.435 212.711 119.55 213.152 120.501L209.513 120.084C209.108 119.003 208.538 118.018 207.968 117.032L211.511 117.285L211.641 117.32ZM69.7192 87.1532C69.9002 88.0346 70.2108 88.9507 70.5213 89.8668L66.5727 88.5335C66.2621 87.6174 65.9861 86.5717 65.8051 85.6902L69.7192 87.1532ZM71.4788 93.0385C71.7894 93.9546 72.0654 95.0003 72.5056 95.9511L68.7468 94.9462C68.3066 93.9954 68.0306 92.9497 67.6251 91.8694L71.5135 92.9089L71.4788 93.0385ZM217.941 132.195C218.347 133.275 218.623 134.321 219.063 135.271L215.175 134.232C214.899 133.186 214.588 132.27 214.182 131.19L217.941 132.195ZM220.115 138.607C220.426 139.523 220.702 140.569 220.883 141.451L216.969 139.988C216.788 139.106 216.477 138.19 216.167 137.274L220.115 138.607ZM77.0796 106.893C77.4852 107.973 78.055 108.959 78.6248 109.944L75.0816 109.691C74.5465 108.576 74.0113 107.461 73.6058 106.381L77.2438 106.798L77.0796 106.893ZM221.219 142.79C221.4 143.672 221.711 144.588 221.892 145.469L217.883 143.842C217.702 142.96 217.486 142.209 217.305 141.327L221.349 142.825L221.219 142.79ZM79.2203 111.353C79.6605 112.304 80.2303 113.289 80.6705 114.24L77.3173 114.315C76.7475 113.33 76.3073 112.379 75.7721 111.264L79.2203 111.353ZM82.5699 117.525C83.1397 118.51 83.7095 119.495 84.2794 120.481L81.1161 120.885C80.4167 119.865 79.8815 118.75 79.3117 117.764L82.5699 117.525ZM84.9441 121.63C85.514 122.616 86.2134 123.636 86.7832 124.621L83.7149 125.189C83.0155 124.169 82.3507 123.02 81.7809 122.034L84.9441 121.63ZM223.63 158.707C223.681 159.554 223.698 160.531 223.749 161.377L219.689 158.903C219.637 158.057 219.716 157.245 219.664 156.398L223.759 158.742L223.63 158.707ZM223.67 164.272C223.67 164.272 223.583 165.637 223.539 166.32L219.418 163.552C219.418 163.552 219.471 162.316 219.514 161.634L223.67 164.272ZM223.235 169.015C223.027 169.793 222.983 170.475 222.905 171.287L218.854 168.26C219.027 167.613 219.105 166.8 219.149 166.118L223.235 169.015ZM96.4199 138.444C97.154 139.334 97.8881 140.225 98.6221 141.115L96.2879 142.574C95.5538 141.684 94.7248 140.629 93.9907 139.738L96.5842 138.349L96.4199 138.444ZM101.109 144.28C101.748 145.006 102.387 145.732 103.027 146.458L100.882 148.245C100.243 147.519 99.6387 146.663 98.87 145.902L101.109 144.28ZM105.678 149.527C106.542 150.453 107.276 151.343 108.139 152.268L106.185 154.384C105.321 153.459 104.458 152.533 103.594 151.608L105.643 149.657L105.678 149.527ZM215.832 178.005L219.745 181.55C219.572 182.198 219.139 182.777 218.802 183.519L214.889 179.974C214.889 179.974 215.495 178.748 215.797 178.134L215.832 178.005ZM214.621 180.458L218.499 184.133C218.196 184.746 217.764 185.325 217.461 185.938L213.712 182.298C213.712 182.298 214.413 181.235 214.716 180.622L214.621 180.458ZM212.32 183.869L216.034 187.639C216.034 187.639 215.204 188.667 214.806 189.116L211.127 185.216C211.127 185.216 211.922 184.318 212.32 183.869ZM120.413 164.019C121.182 164.78 121.985 165.411 122.789 166.043L121.733 168.954C120.834 168.158 120.031 167.527 119.133 166.731L120.413 164.019ZM210.53 185.89L214.209 189.789C214.209 189.789 213.249 190.782 212.722 191.197L209.207 187.202C209.207 187.202 210.132 186.339 210.564 185.76L210.53 185.89ZM124.006 167.201C124.939 167.867 125.708 168.628 126.641 169.294L125.844 172.274C124.816 171.444 123.883 170.778 122.985 169.983L124.041 167.072L124.006 167.201ZM132.394 173.748L131.787 177.057C130.854 176.391 129.826 175.561 128.893 174.895L129.725 171.785C130.528 172.416 131.427 173.211 132.36 173.877L132.394 173.748ZM203.215 191.432L206.402 195.616C206.402 195.616 205.123 196.246 204.5 196.496L201.348 192.182C201.348 192.182 202.593 191.682 203.12 191.268L203.215 191.432ZM199.412 193.192L202.434 197.471C202.434 197.471 201.189 197.971 200.472 198.057L197.614 193.683C197.614 193.683 198.824 193.312 199.446 193.062L199.412 193.192ZM145.724 182.588L145.826 186.363C144.858 185.827 143.795 185.127 142.828 184.59L142.821 180.978C143.789 181.515 144.722 182.181 145.689 182.717L145.724 182.588ZM196.663 194.123L199.521 198.497C199.521 198.497 198.181 198.833 197.594 198.954L194.736 194.58C194.736 194.58 195.911 194.339 196.533 194.089L196.663 194.123ZM149.724 184.768L150.085 188.613C149.117 188.077 148.279 187.575 147.312 187.038L147.08 183.228C147.918 183.73 148.886 184.266 149.759 184.638L149.724 184.768ZM155.599 187.727L156.314 191.806C155.312 191.399 154.344 190.862 153.342 190.456L152.852 186.576C153.819 187.112 154.692 187.484 155.694 187.891L155.599 187.727ZM159.314 189.414L160.159 193.528C159.122 193.25 158.154 192.714 157.282 192.342L156.567 188.263C157.439 188.635 158.442 189.042 159.314 189.414ZM184.243 195.385L186.384 199.845C185.572 199.766 184.725 199.818 183.783 199.705L181.642 195.245C182.455 195.323 183.267 195.401 184.114 195.35L184.243 195.385ZM179.076 194.975L180.957 199.366C180.309 199.192 179.626 199.149 178.814 199.07L176.933 194.68C176.933 194.68 178.263 194.897 178.946 194.94L179.076 194.975ZM172.457 193.761C172.457 193.761 173.623 194.073 174.271 194.246L176.023 198.602C176.023 198.602 174.727 198.255 174.079 198.082L173.431 197.909L171.938 193.622L172.586 193.796L172.457 193.761Z" fill="#009CFF"/>
<path d="M81.1121 52.8494C87.6859 42.8052 100.349 38.5542 117.337 42.5406C121.096 43.5455 124.985 44.585 128.829 46.3071C160.124 59.1166 192.798 93.2603 205.577 128.056C219.848 167.137 203.656 192.382 169.29 184.306C134.925 176.229 95.4523 137.907 81.1806 98.8253C73.9152 79.2497 74.5036 63.0233 81.2417 52.8841L81.1121 52.8494ZM82.7706 99.1115C96.6367 137.113 135.116 174.475 168.574 182.309C202.032 190.143 217.758 165.607 203.892 127.605C191.018 92.6456 157.437 58.2593 126.184 46.8496C123.402 45.8281 120.715 44.9709 118.088 44.4074C102.526 40.8022 90.7877 44.1898 84.0764 52.6701C76.4657 62.4371 75.4192 78.8187 82.7706 99.1115Z" fill="#009CFF"/>
<path d="M68.3745 95.8182L72.911 97.0309L76.9983 97.846C78.12 100.923 79.3713 104.034 80.8818 107.215L77.0795 106.893L73.4414 106.475L72.6637 106.267C70.9285 102.888 69.5219 99.3183 68.2449 95.7835L68.3745 95.8182Z" fill="#004775"/>
<path d="M82.2024 110.068L82.9275 111.511L79.2201 111.353L75.7719 111.264L75.0892 111.22L74.2345 109.742L75.0814 109.691L78.495 109.909L82.2024 110.068Z" fill="#004775"/>
<path d="M84.283 114.234L86.0874 117.354L82.5699 117.525L79.3116 117.764L78.5943 117.85L76.6346 114.272L77.3173 114.315L80.8001 114.275L84.283 114.234Z" fill="#004775"/>
<path d="M101.25 139.596L103.642 142.596L101.239 144.314L98.9993 145.937L98.4719 146.351L95.7601 142.988L96.2529 142.703L98.6218 141.115L101.25 139.596Z" fill="#004775"/>
<path d="M105.335 144.576L106.613 146.029L107.891 147.481L105.807 149.562L103.758 151.513L103.23 151.928L101.857 150.311L100.484 148.694L100.882 148.245L103.156 146.493L105.335 144.576Z" fill="#004775"/>
<path d="M87.7013 120.146C87.7013 120.146 88.0812 120.803 88.2711 121.132L84.9436 121.63L81.7803 122.034L81.063 122.12C81.063 122.12 80.5881 121.299 80.3982 120.971L81.1155 120.885L84.2788 120.481L87.5717 120.111L87.7013 120.146Z" fill="#004775"/>
<path d="M123.974 163.166L125.226 164.195L124.136 167.235L123.08 170.146L122.906 170.794L121.559 169.601L121.732 168.953L122.883 166.206L123.974 163.166Z" fill="#004775"/>
<path d="M127.602 166.218L129.114 167.317L130.626 168.415L129.725 171.784L129.023 174.929L128.85 175.577L127.243 174.314L125.636 173.051L125.81 172.403L126.771 169.328L127.602 166.218Z" fill="#004775"/>
<path d="M133.165 170.343L134.193 171.174L132.901 178.604L131.873 177.773L131.917 177.091L132.523 173.782L133.165 170.343Z" fill="#004775"/>
<path d="M90.1105 124.122C92.9686 128.496 95.9562 132.905 99.2724 137.124L96.6789 138.513L94.0855 139.902L93.5927 140.187C89.862 135.441 86.4598 130.505 83.2219 125.474L83.8096 125.353L86.878 124.785L90.1105 124.122Z" fill="#004775"/>
<path d="M110.258 150.057C113.937 153.957 117.781 157.761 121.728 161.177L120.413 164.018L119.133 166.731L118.959 167.379C114.338 163.366 110.045 159.164 105.822 154.703L106.22 154.254L108.174 152.138L110.163 149.893L110.258 150.057Z" fill="#004775"/>
<path d="M134.193 171.174C137.087 173.336 140.05 175.239 142.918 176.978L142.855 180.849L142.862 184.46L142.654 185.238C139.596 183.171 136.278 181.034 132.901 178.604L134.063 171.139L134.193 171.174Z" fill="#004775"/>
<path d="M145.692 178.552C145.692 178.552 146.53 179.054 146.884 179.287L147.08 183.228L147.312 187.038L147.363 187.885C147.363 187.885 146.395 187.349 145.911 187.081L145.86 186.234L145.759 182.458L145.562 178.518L145.692 178.552Z" fill="#004775"/>
<path d="M149.432 180.663C150.4 181.2 151.402 181.606 152.37 182.143L152.92 186.316L153.411 190.196L153.462 191.043C152.365 190.472 151.233 190.031 150.17 189.33L150.119 188.483L149.758 184.638L149.467 180.534L149.432 180.663Z" fill="#004775"/>
<path d="M175.449 189.84L177.39 194.525L179.272 198.915L179.712 199.866C178.805 199.623 177.733 199.476 176.662 199.328L176.351 198.412L174.729 194.091L172.917 189.441C173.824 189.683 174.731 189.926 175.578 189.875L175.449 189.84Z" fill="#004775"/>
<path d="M179.865 190.465L182.1 195.089L184.241 199.549L184.681 200.5C183.739 200.387 182.763 200.404 181.855 200.161L181.415 199.21L179.534 194.82L177.462 190.1C178.37 190.343 179.217 190.292 180.029 190.37L179.865 190.465Z" fill="#004775"/>
<path d="M154.953 183.388L155.956 183.795L156.766 188.038L157.48 192.117L157.532 192.964L156.564 192.427L156.349 191.676L155.634 187.597L154.953 183.388Z" fill="#004775"/>
<path d="M194.661 189.145L197.744 193.718L200.602 198.092L201.206 198.947L200.29 199.258L199.556 198.367L196.698 193.993L193.745 189.455L194.661 189.145Z" fill="#004775"/>
<path d="M198.231 187.739L201.607 192.252L204.759 196.565L205.493 197.456C205.493 197.456 204.084 198.051 203.297 198.396L202.693 197.54L199.671 193.261L196.458 188.654C196.458 188.654 197.703 188.153 198.326 187.903L198.231 187.739Z" fill="#004775"/>
<path d="M200.59 186.703L204.002 191.086L207.318 195.305L207.922 196.161L207.265 196.541L206.531 195.65L203.345 191.466L199.968 186.953L200.59 186.703Z" fill="#004775"/>
<path d="M158.573 184.912C162.582 186.539 166.661 187.907 170.454 188.782L172.137 193.397L173.759 197.719L174.07 198.635C169.792 197.491 165.161 196.114 160.668 194.219L160.487 193.337L159.643 189.224L158.738 184.817L158.573 184.912Z" fill="#004775"/>
<path d="M191.981 189.816L194.899 194.484L197.628 198.824L198.198 199.809C194.801 200.567 190.99 200.798 187.023 200.571L186.583 199.62L184.442 195.16L182.077 190.501C185.525 190.59 188.913 190.385 191.981 189.816Z" fill="#004775"/>
<path d="M205.432 183.138L209.172 187.332L212.687 191.326L213.421 192.216C211.77 193.719 209.859 195.152 207.922 196.161L207.188 195.271L203.872 191.052L200.461 186.669C202.233 185.754 203.815 184.511 205.432 183.138Z" fill="#004775"/>
<path d="M207.352 181.152L211.256 185.25L214.936 189.15L215.67 190.04C215.67 190.04 215.272 190.489 215.073 190.714L214.339 189.823L210.66 185.924L206.885 181.86C206.885 181.86 207.283 181.411 207.482 181.187L207.352 181.152Z" fill="#004775"/>
<path d="M209.678 178.164L213.617 182.133L217.495 185.808L218.229 186.698L216.897 188.564L216.163 187.673L212.32 183.869L208.511 179.935L209.678 178.164Z" fill="#004775"/>
<path d="M215.167 160.749L219.547 163.586L223.668 166.354L224.471 166.986L224.297 169.716L223.364 169.05L219.243 166.282L214.933 163.186L215.167 160.749Z" fill="#004775"/>
<path d="M215.369 156.36L219.689 158.903L223.749 161.377L224.587 161.879C224.604 162.855 224.621 163.831 224.508 164.773L223.67 164.271L219.515 161.633L215.1 158.926C215.178 158.114 215.127 157.267 215.11 156.29L215.369 156.36Z" fill="#004775"/>
<path d="M210.95 176.005L215.088 179.749L218.966 183.424L219.734 184.185L219.432 184.798L218.533 184.003L214.62 180.458L210.647 176.618L210.95 176.005Z" fill="#004775"/>
<path d="M212.666 138.421L216.839 139.953L220.917 141.321L221.66 141.658L222.092 143.162L221.219 142.79L217.305 141.327L213.037 139.631L212.666 138.421Z" fill="#004775"/>
<path d="M211.096 132.864L215.114 133.938L219.097 135.142L219.875 135.35L220.893 138.815L220.15 138.478L216.166 137.274L211.958 135.871L211.096 132.864Z" fill="#004775"/>
<path d="M209.759 129.035L213.811 129.979L217.605 130.855L218.382 131.063L218.788 132.143L218.01 131.935L214.217 131.06L210.034 130.08L209.759 129.035Z" fill="#004775"/>
<path d="M214.673 165.199L218.983 168.295L223.035 171.322L223.968 171.988C223.257 175.686 222.322 179.184 220.807 182.251L219.909 181.455L215.996 177.91L211.824 174.295C213.105 171.583 214.066 168.508 214.673 165.199Z" fill="#004775"/>
<path d="M213.614 142.146L217.882 143.842L221.891 145.469L222.799 145.712C223.729 150.542 224.47 155.045 224.727 159.279L223.889 158.777L219.794 156.432L215.439 154.019C215.208 150.208 214.752 146.199 213.778 142.051L213.614 142.146Z" fill="#004775"/>
<path d="M213.998 120.449C215.698 123.958 217.105 127.528 218.382 131.063L213.846 129.85L209.758 129.035C208.637 125.958 207.385 122.847 205.875 119.666L209.677 119.988L213.315 120.405L214.093 120.613L213.998 120.449Z" fill="#004775"/>
<path d="M211.668 115.661L212.393 117.105L211.675 117.191L208.132 116.938L204.425 116.779L203.829 115.371L207.407 115.494L210.985 115.618L211.668 115.661Z" fill="#004775"/>
<path d="M208.162 109.031L210.122 112.61L209.439 112.566L205.957 112.607L202.474 112.647L200.669 109.527L204.187 109.357L207.445 109.117L208.162 109.031Z" fill="#004775"/>
<path d="M188.285 80.5297L190.997 83.8928L190.504 84.1776L188.04 85.6015L185.507 87.2847L183.115 84.2848L185.518 82.567L187.757 80.9441L188.285 80.5297Z" fill="#004775"/>
<path d="M183.396 74.9189L184.899 76.5703L186.272 78.187L185.745 78.6013L183.601 80.3884L181.292 82.2705L180.144 80.8526L178.865 79.4002L180.949 77.3192L182.999 75.3679L183.396 74.9189Z" fill="#004775"/>
<path d="M205.599 104.597C205.599 104.597 206.073 105.418 206.263 105.746L205.546 105.832L202.383 106.236L199.09 106.606C199.09 106.606 198.71 105.949 198.39 105.585L201.718 105.087L204.881 104.683L205.599 104.597Z" fill="#004775"/>
<path d="M163.85 56.0866L165.198 57.2799L165.025 57.9278L163.874 60.6747L162.653 63.6807L161.531 62.6863L162.621 59.6456L163.677 56.7345L163.85 56.0866Z" fill="#004775"/>
<path d="M157.777 51.2695L159.514 52.5668L161.12 53.8294L160.947 54.4773L159.986 57.5526L159.025 60.628L157.643 59.5643L156.131 58.4659L156.902 55.0621L157.734 51.9521L157.777 51.2695Z" fill="#004775"/>
<path d="M153.726 48.2429L154.884 49.1078L154.711 49.7557L154.104 53.0645L153.462 56.503L152.564 55.7075L153.076 52.2343L153.683 48.9255L153.726 48.2429Z" fill="#004775"/>
<path d="M193.293 86.7288C197.024 91.4749 200.426 96.411 203.664 101.442L203.077 101.562L200.008 102.131L196.776 102.794C193.918 98.4197 190.93 94.011 187.614 89.7921L190.207 88.4029L192.801 87.0135L193.293 86.7288Z" fill="#004775"/>
<path d="M167.797 59.5024C172.289 63.4801 176.582 67.6824 180.805 72.1437L180.408 72.5928L178.453 74.7083L176.464 76.9535C172.785 73.0541 168.941 69.2496 164.994 65.8339L166.309 62.9921L167.59 60.2799L167.763 59.632L167.797 59.5024Z" fill="#004775"/>
<path d="M143.809 41.7036C147.126 43.8401 150.444 45.9766 153.692 48.3723L153.519 49.0202L153.041 52.3637L152.529 55.8368C149.636 53.6747 146.672 51.7717 143.804 50.033L143.867 46.1621L143.86 42.5505L144.068 41.7729L143.939 41.7383L143.809 41.7036Z" fill="#004775"/>
<path d="M139.394 38.9966C139.394 38.9966 140.362 39.533 140.846 39.8012L140.897 40.648L140.998 44.4239L141.195 48.3641C141.195 48.3641 140.357 47.8624 140.003 47.6288L139.806 43.6887L139.575 39.8781L139.524 39.0313L139.394 38.9966Z" fill="#004775"/>
<path d="M133.165 35.8035C134.262 36.3746 135.394 36.816 136.456 37.5166L136.508 38.3635L136.868 42.2087L137.16 46.3131C136.192 45.7767 135.19 45.3699 134.222 44.8335L133.672 40.6598L133.181 36.7799L133.13 35.9331L133.165 35.8035Z" fill="#004775"/>
<path d="M110.225 27.5879L110.535 28.504L112.158 32.8253L113.97 37.4751C113.063 37.2325 112.155 36.9899 111.343 36.9116L109.401 32.2272L107.52 27.8366L107.079 26.8858C107.987 27.1284 109.058 27.276 110.13 27.4236L110.225 27.5879Z" fill="#004775"/>
<path d="M105.031 26.7547L105.472 27.7055L107.353 32.0961L109.459 36.6857C108.552 36.4431 107.705 36.4944 106.892 36.416L104.657 31.7919L102.516 27.3319L102.076 26.3812C103.018 26.4942 103.994 26.4775 104.902 26.7201L105.031 26.7547Z" fill="#004775"/>
<path d="M129.095 33.8824L130.227 34.3239L130.408 35.2053L130.994 39.2495L131.674 43.4578L130.801 43.0857L130.026 38.7131L129.276 34.7639L129.095 33.8824Z" fill="#004775"/>
<path d="M86.4671 27.6232L87.0715 28.479L89.9295 32.853L93.0122 37.4259L92.0959 37.7364L89.0133 33.1634L86.1553 28.7894L85.4558 27.7693L86.4671 27.6232Z" fill="#004775"/>
<path d="M83.4593 28.4852L84.0638 29.341L87.0861 33.6201L90.2983 38.2277C90.2983 38.2277 89.0535 38.728 88.4312 38.9781L85.0547 34.4655L81.9028 30.1517L81.1687 29.2613C81.1687 29.2613 82.5777 28.666 83.3643 28.321L83.4593 28.4852Z" fill="#004775"/>
<path d="M79.3617 30.3059L80.0958 31.1964L83.412 35.4152L86.8231 39.7982L86.1661 40.178L78.7047 30.6856L79.3617 30.3059Z" fill="#004775"/>
<path d="M112.722 28.1165C116.999 29.26 121.631 30.6371 126.124 32.5324L126.305 33.4139L127.149 37.5273L128.089 41.805C124.08 40.1778 120.001 38.8098 116.208 37.9344L114.525 33.3193L113.033 29.0326L112.722 28.1165Z" fill="#004775"/>
<path d="M99.6042 26.2758L100.044 27.2266L102.185 31.6865L104.55 36.3453C101.102 36.2565 97.7143 36.4616 94.646 37.0297L91.7277 32.3618L88.8696 27.9878L88.2998 27.0024C91.6966 26.2444 95.508 26.0138 99.4746 26.2412L99.6042 26.2758Z" fill="#004775"/>
<path d="M78.705 30.6853L86.1664 40.1777C84.3942 41.0923 82.812 42.3354 81.1951 43.7081L77.4554 39.5149L73.9404 35.5207L73.2063 34.6301C74.8578 33.1278 76.7339 31.8244 78.705 30.6853Z" fill="#004775"/>
<path d="M71.6842 36.1673L72.4182 37.0578L76.0975 40.9572L79.8718 45.0208C79.8718 45.0208 79.474 45.4698 79.2751 45.6943L75.3712 41.5961L71.6919 37.6967L70.9578 36.8062C70.9578 36.8062 71.3557 36.3572 71.5546 36.1326L71.6842 36.1673Z" fill="#004775"/>
<path d="M69.7301 38.2825L70.5938 39.2077L74.3077 42.9775L78.2462 46.9461L77.1132 48.587L73.14 44.7479L69.2618 41.0731L68.3981 40.148L69.7301 38.2825Z" fill="#004775"/>
<path d="M62.4594 57.1654L63.3924 57.8314L67.5131 60.5991L71.8238 63.6955L71.589 66.1319L67.2091 63.2948L63.0883 60.527L62.285 59.8957L62.4594 57.1654Z" fill="#004775"/>
<path d="M62.1541 61.9433L62.9921 62.445L67.1474 65.0832L71.562 67.7907C71.4837 68.6029 71.5351 69.4497 71.5518 70.4261L67.2322 67.8828L63.1718 65.4088L62.3339 64.9071C62.3171 63.9307 62.3004 62.9543 62.4133 62.0126L62.1541 61.9433Z" fill="#004775"/>
<path d="M67.3597 41.9535L68.2234 42.8786L72.0066 46.3893L76.1094 50.263L75.677 50.8417L71.6692 47.1321L67.7909 43.4572L66.8926 42.6617L67.3597 41.9535Z" fill="#004775"/>
<path d="M64.6656 83.719L65.4086 84.0566L69.4523 85.5541L73.7552 87.121L73.9618 88.4259L69.7885 86.8937L65.8399 85.5603L64.9672 85.1882L64.6656 83.719Z" fill="#004775"/>
<path d="M65.8639 88.0658L66.607 88.4033L70.5903 89.6071L74.6686 90.9751L75.6607 94.0172L71.5131 92.9084L67.6594 91.7392L66.8817 91.5313L65.8639 88.0658Z" fill="#004775"/>
<path d="M67.9689 94.7379L68.7812 94.8162L72.54 95.8211L76.5926 96.7657L76.9982 97.8461L72.9456 96.9015L69.1522 96.0261L68.3745 95.8182L67.9689 94.7379Z" fill="#004775"/>
<path d="M65.9498 44.6307L66.8481 45.4263L70.761 48.9716L74.9331 52.5862C73.6525 55.2984 72.6914 58.3737 72.0846 61.6826L67.7739 58.5863L63.7224 55.5594L62.7895 54.8934C63.5002 51.1957 64.5652 47.7317 65.9498 44.6307Z" fill="#004775"/>
<path d="M62.1597 67.6376L62.9977 68.1393L67.0927 70.4837L71.447 72.8974C71.6781 76.708 72.1338 80.7175 73.108 84.8656L68.8397 83.1691L64.8307 81.5419L63.9234 81.2993C62.9929 76.4687 62.2522 71.9665 62.125 67.7672L62.1597 67.6376Z" fill="#004775"/>
<path d="M118.932 48.5211C118.932 48.5211 119.261 48.3313 119.52 48.4006C119.52 48.4006 120.133 48.7034 120.323 49.0319L181.508 127.175C181.508 127.175 181.793 127.668 181.853 127.962C181.784 128.221 181.749 128.35 181.715 128.48L153.845 141.3C153.845 141.3 153.586 141.231 153.456 141.196C153.456 141.196 153.197 141.127 153.067 141.092L109.58 111.555C109.58 111.555 109.131 111.157 108.941 110.829C108.751 110.501 108.656 110.336 108.725 110.077L118.863 48.7803L118.932 48.5211ZM122.05 52.9644L138.349 97.448L177.975 124.287L122.05 52.9644ZM179.235 126.845L139.16 99.6087L153.432 138.691L179.235 126.845ZM151.747 138.24L137.475 99.1582L111.706 110.874L151.911 138.145L151.747 138.24ZM111.059 108.619L136.534 96.9629L120.235 52.4793L110.93 108.584L111.059 108.619Z" fill="#009CFF"/>
<path d="M111.78 116.309C111.78 116.309 112.04 116.378 112.299 116.448L155.173 145.682L182.714 133.052C182.714 133.052 182.844 133.086 182.974 133.121C183.233 133.19 183.492 133.259 183.812 133.623C184.261 134.02 184.382 134.608 184.312 134.867L167.91 179.078C167.91 179.078 167.676 179.432 167.417 179.362C167.158 179.293 166.769 179.189 166.579 178.861L111.624 117.933C111.624 117.933 111.054 116.948 111.253 116.723C111.322 116.464 111.582 116.534 111.711 116.568L111.78 116.309ZM181.46 136.187L156.607 147.593L166.762 175.577L181.33 136.152L181.46 136.187ZM165.207 175.162L155.051 147.177L116.393 120.874L165.337 175.196L165.207 175.162Z" fill="#009CFF"/>
<path style="mix-blend-mode:multiply" d="M107.578 16.1897C60.5366 5.14061 38.2371 39.7214 57.8068 93.2711C77.3764 146.821 131.654 199.375 178.695 210.424C225.737 221.473 248.036 186.892 228.467 133.343C208.897 79.793 154.62 27.2389 107.578 16.1897Z" fill="url(#paint1_linear_353_647)"/>
<defs>
<linearGradient id="paint0_linear_353_647" x1="176.819" y1="211.727" x2="24.8446" y2="48.8733" gradientUnits="userSpaceOnUse">
<stop stop-color="#0678B7"/>
<stop offset="0.01" stop-color="#0573B0"/>
<stop offset="0.09" stop-color="#035A8F"/>
<stop offset="0.16" stop-color="#024775"/>
<stop offset="0.24" stop-color="#003963"/>
<stop offset="0.32" stop-color="#003158"/>
<stop offset="0.41" stop-color="#002F55"/>
<stop offset="0.75" stop-color="#00162A"/>
</linearGradient>
<linearGradient id="paint1_linear_353_647" x1="217.976" y1="206.347" x2="66.4565" y2="17.9247" gradientUnits="userSpaceOnUse">
<stop stop-color="white"/>
<stop offset="0.4" stop-color="#94A7B7"/>
<stop offset="0.81" stop-color="#2A5171"/>
<stop offset="1" stop-color="#002F55"/>
</linearGradient>
</defs>
</svg>
