<svg width="1704" height="608" viewBox="0 0 1704 608" fill="none" xmlns="http://www.w3.org/2000/svg">
<path style="mix-blend-mode:lighten" d="M22.6994 -260.421V-234.612L0 -221.488V-194.58L22.6994 -181.478V-155.692L0 -142.591V-115.694L22.6994 -102.581V-76.7834L0 -63.6706V-36.7742L22.6994 -23.6728V2.13663L0 15.2379V42.1575L22.6994 55.2703V81.0682L0 94.1927V121.089L22.6994 134.19V160L0 173.066V199.974L22.6994 213.076V238.885L0 251.987V278.883L22.6994 291.984V317.794L0 330.907V357.838L22.6994 370.904V396.714L0 409.873V436.769L22.6994 449.882V475.68L0 488.735V515.632L22.6994 528.733V554.542L0 567.644V594.552L23.3007 608L45.9886 594.887L68.688 608L91.3527 594.887L114.052 607.988L136.775 594.887L159.462 607.988L182.162 594.887L204.861 607.988L227.549 594.887L250.249 607.988L272.902 594.887L295.601 607.988L318.335 594.887L341.023 607.988L363.723 594.887L386.41 607.988L409.11 594.887L431.809 607.988L454.451 594.887L477.15 607.988L499.896 594.887L522.584 607.988L545.283 594.887L567.971 607.988L590.67 594.887L613.37 607.988L636.058 594.887L658.757 607.988L681.445 594.887L704.144 607.988L726.844 594.887L749.532 607.988L772.231 594.887L794.93 607.988L817.618 594.887L840.318 607.988L863.006 594.887L885.705 607.988L908.404 594.887L931.092 607.988L953.792 594.887L976.479 607.988L999.179 594.887L1021.88 607.988L1044.57 594.887L1067.32 608L1089.96 594.887L1112.65 607.988L1135.35 594.887L1158.04 607.988L1180.74 594.887L1203.44 607.988L1226.13 594.887L1248.87 608L1271.53 594.887L1294.21 607.988L1316.91 594.887L1339.6 607.988L1362.3 594.887L1385 607.988L1407.69 594.887L1430.42 608L1453.07 594.887L1475.77 607.988L1498.47 594.887L1521.16 607.988L1543.86 594.887L1566.56 607.988L1589.25 594.887L1611.97 608L1634.64 594.887L1657.33 607.988L1680.64 594.54V568.43L1703.32 555.317V528.421L1680.62 515.319V489.51L1703.32 476.409V449.512L1680.62 436.399V410.601L1703.32 397.488V370.557L1680.62 357.456V331.681L1703.32 318.58V291.684L1680.62 278.571V252.761L1703.32 239.66V212.763L1680.62 199.662V173.853L1703.32 160.751V133.844L1680.64 120.788V94.9327L1703.32 81.8314V54.935L1680.62 41.8221V16.0242L1703.32 2.91138V-23.9851L1680.62 -37.0864V-62.8958L1703.32 -75.9971V-102.894L1680.62 -116.006V-141.804L1703.32 -154.917V-181.814L1680.64 -194.892V-220.724L1703.32 -233.826V-260.734L1680.62 -273.835V-299.644L1703.32 -312.746V-339.642L1680.02 -353.09L1657.32 -339.989L1634.64 -353.09L1611.97 -339.989L1589.28 -353.09L1566.58 -339.989L1543.86 -353.09L1521.17 -339.989L1498.47 -353.09L1475.79 -339.989L1453.09 -353.09L1430.42 -339.989L1407.73 -353.09L1385.03 -339.989L1362.33 -353.09L1339.65 -339.989L1316.95 -353.09L1294.26 -339.989L1271.56 -353.09L1248.87 -339.989L1226.18 -353.09L1203.49 -339.989L1180.8 -353.09L1158.1 -339.989L1135.35 -353.09L1112.66 -339.989L1089.96 -353.09L1067.32 -339.989L1044.58 -353.09L1021.88 -339.989L999.19 -353.09L976.491 -339.989L953.792 -353.09L931.104 -339.989L908.404 -353.09L885.774 -339.989L863.017 -353.09L840.318 -339.989L817.63 -353.09L794.93 -339.989L772.231 -353.09L749.543 -339.989L726.844 -353.09L704.156 -339.989L681.456 -353.09L658.757 -339.989L636.069 -353.09L613.37 -339.989L590.67 -353.09L567.983 -339.989L545.283 -353.09L522.595 -339.989L499.896 -353.09L477.196 -339.989L454.509 -353.09L431.809 -339.989L409.11 -353.09L386.422 -339.989L363.723 -353.09L341.035 -339.989L318.335 -353.09L295.636 -339.989L272.902 -353.09L250.249 -339.989L227.561 -353.09L204.861 -339.989L182.162 -353.09L159.474 -339.989L136.775 -353.09L114.087 -339.989L91.3527 -353.09L68.688 -339.989L46.0001 -353.09L22.6994 -339.642V-313.532L0 -300.419V-273.523L22.6994 -260.421ZM69.3355 -260.005L91.3527 -272.736L113.393 -260.017V-234.577L91.3527 -221.846L69.3818 -234.577L69.3355 -260.005ZM69.3355 -181.097L91.3874 -193.816L113.428 -181.097V-155.657L91.3527 -142.938L69.3818 -155.657L69.3355 -181.097ZM69.3355 -102.177L91.3874 -114.896L113.428 -102.177V-76.7372L91.3527 -64.0175L69.3818 -76.7487L69.3355 -102.177ZM69.3355 -23.2681L91.3874 -35.9878L113.428 -23.2681V2.17133L91.3527 14.8911L69.3818 2.17133L69.3355 -23.2681ZM69.3355 55.6519L91.3874 42.9322L113.428 55.6519V81.0914L91.3527 93.8111L69.3818 81.0798L69.3355 55.6519ZM69.3355 134.572L91.3874 121.852L113.428 134.572V160.011L91.3527 172.72L69.3818 160L69.3355 134.572ZM69.3355 213.48L91.3874 200.761L113.428 213.48V238.92L91.3527 251.64L69.3818 238.92L69.3355 213.48ZM69.3355 292.401L91.3527 279.669L113.393 292.389V317.828L91.3527 330.56L69.3818 317.828L69.3355 292.401ZM69.3355 371.309L91.3874 358.589L113.428 371.309V396.748L91.3527 409.468L69.3818 396.748L69.3355 371.309ZM69.3355 450.229L91.3874 437.509L113.428 450.229V475.669L91.3527 488.388L69.3818 475.657L69.3355 450.229ZM1633.94 514.915L1611.9 527.634L1589.85 514.915V489.475L1611.9 476.755L1633.94 489.475V514.915ZM1633.94 435.995L1611.9 448.714L1589.85 435.995V410.555L1611.9 397.835L1633.94 410.555V435.995ZM1633.94 357.075L1611.9 369.794L1589.85 357.075V331.635L1611.9 318.915L1633.94 331.635V357.075ZM1633.94 278.166L1611.9 290.886L1589.85 278.166V252.727L1611.9 240.007L1633.94 252.727V278.166ZM1633.94 199.246L1611.9 211.966L1589.85 199.246V173.807L1611.9 161.087L1633.94 173.807V199.246ZM1633.94 120.337L1611.9 133.057L1589.85 120.337V94.898L1611.9 82.1783L1633.94 94.898V120.337ZM1633.94 41.4174L1611.9 54.1371L1589.85 41.4174V15.978L1611.9 3.25824L1633.94 15.978V41.4174ZM1633.94 -37.5027L1611.9 -24.7829L1589.85 -37.5027V-62.9421L1611.9 -75.6618L1633.94 -62.9421V-37.5027ZM1633.94 -116.411L1611.9 -103.691L1589.85 -116.411V-141.851L1611.9 -154.57L1633.94 -141.851V-116.411ZM1633.94 -195.331L1611.9 -182.611L1589.85 -195.331V-220.771L1611.9 -233.49L1633.94 -220.771V-195.331ZM114.734 -181.097L136.775 -193.816L158.827 -181.097V-155.657L136.775 -142.938L114.734 -155.657V-181.097ZM114.734 -102.177L136.775 -114.896L158.827 -102.177V-76.7372L136.775 -64.0175L114.734 -76.7372V-102.177ZM114.734 -23.2681L136.775 -35.9878L158.827 -23.2681V2.17133L136.775 14.8911L114.734 2.17133V-23.2681ZM114.734 55.6519L136.775 42.9322L158.827 55.6519V81.0914L136.775 93.8111L114.734 81.0914V55.6519ZM114.734 134.572L136.775 121.852L158.827 134.572V160.011L136.775 172.731L114.734 160.011V134.572ZM114.734 213.48L136.775 200.761L158.827 213.48V238.92L136.775 251.64L114.734 238.92V213.48ZM114.734 292.401L136.775 279.681L158.827 292.401V317.84L136.775 330.56L114.734 317.84V292.401ZM114.734 371.309L136.775 358.589L158.827 371.309V396.748L136.775 409.468L114.734 396.748V371.309ZM1588.6 435.995L1566.56 448.714L1544.51 435.995V410.555L1566.56 397.835L1588.6 410.555V435.995ZM1588.6 357.075L1566.56 369.794L1544.51 357.075V331.635L1566.56 318.915L1588.6 331.635V357.075ZM1588.6 278.166L1566.56 290.886L1544.51 278.166V252.727L1566.56 240.007L1588.6 252.727V278.166ZM1588.6 199.246L1566.56 211.966L1544.51 199.246V173.807L1566.56 161.087L1588.6 173.807V199.246ZM1588.6 120.337L1566.56 133.057L1544.51 120.337V94.898L1566.56 82.1783L1588.6 94.898V120.337ZM1588.6 41.4174L1566.56 54.1371L1544.51 41.4174V15.978L1566.56 3.25824L1588.6 15.978V41.4174ZM1588.6 -37.5027L1566.56 -24.7829L1544.51 -37.5027V-62.9421L1566.56 -75.6618L1588.6 -62.9421V-37.5027ZM1588.6 -116.411L1566.56 -103.691L1544.51 -116.411V-141.851L1566.56 -154.57L1588.6 -141.851V-116.411ZM160.122 -102.177L182.162 -114.896L204.214 -102.177V-76.7372L182.162 -64.0175L160.122 -76.7372V-102.177ZM160.122 -23.2681L182.162 -35.9878L204.214 -23.2681V2.17133L182.162 14.8911L160.122 2.17133V-23.2681ZM160.122 55.6519L182.162 42.9322L204.214 55.6519V81.0914L182.162 93.8111L160.122 81.0914V55.6519ZM160.122 134.572L182.162 121.852L204.214 134.572V160.011L182.162 172.731L160.122 160.011V134.572ZM160.122 213.48L182.162 200.761L204.214 213.48V238.92L182.162 251.64L160.122 238.92V213.48ZM160.122 292.401L182.162 279.681L204.214 292.401V317.84L182.162 330.56L160.122 317.84V292.401ZM1543.21 357.075L1521.16 369.794L1499.12 357.075V331.635L1521.17 318.915L1543.21 331.635V357.075ZM1543.21 278.166L1521.16 290.886L1499.12 278.166V252.727L1521.17 240.007L1543.21 252.727V278.166ZM1543.21 199.246L1521.16 211.966L1499.12 199.246V173.807L1521.17 161.087L1543.21 173.807V199.246ZM1543.21 120.337L1521.16 133.057L1499.12 120.337V94.898L1521.17 82.1783L1543.21 94.898V120.337ZM1543.21 41.4174L1521.16 54.1371L1499.12 41.4174V15.978L1521.17 3.25824L1543.21 15.978V41.4174ZM1543.21 -37.5027L1521.16 -24.7829L1499.12 -37.5027V-62.9421L1521.17 -75.6618L1543.21 -62.9421V-37.5027ZM205.509 -23.2681L227.561 -35.9878L249.601 -23.2681V2.17133L227.549 14.8911L205.509 2.17133V-23.2681ZM205.509 55.6519L227.561 42.9322L249.601 55.6519V81.0914L227.549 93.8111L205.509 81.0914V55.6519ZM205.509 134.572L227.561 121.852L249.601 134.572V160.011L227.549 172.731L205.509 160.011V134.572ZM205.509 213.48L227.561 200.761L249.601 213.48V238.92L227.549 251.64L205.509 238.92V213.48ZM205.509 292.401L227.561 279.681L249.601 292.401V317.84L227.549 330.56L205.509 317.84V292.401ZM1497.83 278.166L1475.77 290.886L1453.73 278.166V252.727L1475.79 240.007L1497.83 252.727V278.166ZM1497.83 199.246L1475.77 211.966L1453.73 199.246V173.807L1475.79 161.087L1497.83 173.807V199.246ZM1497.83 120.337L1475.77 133.057L1453.73 120.337V94.898L1475.79 82.1783L1497.83 94.898V120.337ZM1497.83 41.4174L1475.77 54.1371L1453.73 41.4174V15.978L1475.79 3.25824L1497.83 15.978V41.4174ZM1497.83 -37.5027L1475.77 -24.7829L1453.73 -37.5027V-62.9421L1475.79 -75.6618L1497.83 -62.9421V-37.5027ZM250.931 -23.2681L272.983 -35.9878L295.023 -23.2681V2.17133L272.971 14.8911L250.931 2.17133V-23.2681ZM250.931 55.6519L272.983 42.9322L295.023 55.6519V81.0914L272.971 93.8111L250.931 81.0914V55.6519ZM250.931 134.572L272.983 121.852L295.023 134.572V160.011L272.971 172.731L250.931 160.011V134.572ZM250.931 213.48L272.983 200.761L295.023 213.48V238.92L272.971 251.64L250.931 238.92V213.48ZM1452.39 199.246L1430.35 211.966L1408.3 199.246V173.807L1430.35 161.087L1452.39 173.807V199.246ZM1452.39 120.337L1430.35 133.057L1408.3 120.337V94.898L1430.35 82.1783L1452.39 94.898V120.337ZM1452.39 41.4174L1430.35 54.1371L1408.3 41.4174V15.978L1430.35 3.25824L1452.39 15.978V41.4174ZM296.26 55.6519L318.301 42.9322L340.352 55.6519V81.0914L318.301 93.8111L296.26 81.0914V55.6519ZM296.26 134.572L318.301 121.852L340.352 134.572V160.011L318.301 172.731L296.26 160.011V134.572ZM1407.01 199.246L1384.96 211.966L1362.91 199.246V173.807L1384.96 161.087L1407.01 173.807V199.246ZM1407.01 120.337L1384.96 133.057L1362.91 120.337V94.898L1384.96 82.1783L1407.01 94.898V120.337ZM364.335 94.898L386.387 82.1783L408.428 94.898V120.337L386.376 133.057L364.335 120.337V94.898ZM409.723 94.898L431.775 82.1783L453.815 94.898V120.337L431.775 133.057L409.723 120.337V94.898ZM455.11 94.898L477.162 82.1783L499.202 94.898V120.337L477.162 133.057L455.11 120.337V94.898ZM500.509 94.898L522.561 82.1783L544.601 94.898V120.337L522.549 133.057L500.509 120.337V94.898ZM545.896 94.898L567.948 82.1783L589.988 94.898V120.337L567.936 133.057L545.896 120.337V94.898ZM591.283 94.898L613.335 82.1783L635.375 94.898V120.337L613.335 133.057L591.283 120.337V94.898ZM636.671 94.898L658.722 82.1783L680.763 94.898V120.337L658.722 133.057L636.671 120.337V94.898ZM682.069 94.898L704.121 82.1783L726.161 94.898V120.337L704.11 133.057L682.069 120.337V94.898ZM727.457 94.898L749.508 82.1783L771.549 94.898V120.337L749.497 133.057L727.457 120.337V94.898ZM772.844 94.898L794.896 82.1783L816.936 94.898V120.337L794.896 133.057L772.844 120.337V94.898ZM818.231 94.898L840.283 82.1783L862.323 94.898V120.337L840.283 133.057L818.231 120.337V94.898ZM863.63 94.898L885.682 82.1783L907.722 94.898V120.337L885.67 133.057L863.63 120.337V94.898ZM909.017 94.898L931.069 82.1783L953.109 94.898V120.337L931.057 133.057L909.017 120.337V94.898ZM954.404 94.898L976.456 82.1783L998.497 94.898V120.337L976.445 133.057L954.404 120.337V94.898ZM999.792 94.898L1021.84 82.1783L1043.88 94.898V120.337L1021.84 133.057L999.792 120.337V94.898ZM1045.18 94.898L1067.23 82.1783L1089.28 94.898V120.337L1067.23 133.057L1045.18 120.337V94.898ZM1090.58 94.898L1112.63 82.1783L1134.67 94.898V120.337L1112.62 133.057L1090.58 120.337V94.898ZM1135.97 94.898L1158.02 82.1783L1180.06 94.898V120.337L1158.01 133.057L1135.97 120.337V94.898ZM1181.35 94.898L1203.4 82.1783L1225.44 94.898V120.337L1203.4 133.057L1181.35 120.337V94.898ZM1226.74 94.898L1248.79 82.1783L1270.83 94.898V120.337L1248.79 133.057L1226.74 120.337V94.898ZM1272.14 94.898L1294.19 82.1783L1316.23 94.898V120.337L1294.18 133.057L1272.14 120.337V94.898ZM1317.53 94.898L1339.58 82.1783L1361.62 94.898V120.337L1339.57 133.057L1317.53 120.337V94.898ZM1384.32 134.56V160L1362.27 172.72L1340.23 160V134.56L1362.27 121.841L1384.32 134.56ZM1338.93 160L1316.88 172.72L1294.84 160V134.56L1316.88 121.841L1338.93 134.56V160ZM1293.54 160L1271.49 172.72L1249.44 160V134.56L1271.49 121.841L1293.54 134.56V160ZM1248.14 160L1226.09 172.72L1204.05 160V134.56L1226.1 121.841L1248.14 134.56V160ZM1202.76 160L1180.7 172.72L1158.66 160V134.56L1180.72 121.841L1202.76 134.56V160ZM1157.37 160L1135.32 172.72L1113.28 160V134.56L1135.32 121.841L1157.37 134.56V160ZM1111.98 160L1089.93 172.72L1067.89 160V134.56L1089.93 121.841L1111.98 134.56V160ZM1066.58 160L1044.53 172.72L1022.49 160V134.56L1044.54 121.841L1066.58 134.56V160ZM1021.2 160L999.144 172.72L977.104 160V134.56L999.156 121.841L1021.2 134.56V160ZM975.809 160L953.757 172.72L931.717 160V134.56L953.757 121.841L975.809 134.56V160ZM930.422 160L908.37 172.72L886.329 160V134.56L908.37 121.841L930.422 134.56V160ZM885.023 160L862.971 172.72L840.931 160V134.56L862.982 121.841L885.023 134.56V160ZM839.635 160L817.584 172.72L795.543 160V134.56L817.595 121.841L839.635 134.56V160ZM794.248 160L772.196 172.72L750.156 160V134.56L772.196 121.841L794.248 134.56V160ZM748.861 160L726.809 172.72L704.769 160V134.56L726.809 121.841L748.861 134.56V160ZM703.474 160L681.41 172.72L659.37 160V134.56L681.422 121.841L703.474 134.56V160ZM658.075 160L636.023 172.72L613.983 160V134.56L636.035 121.841L658.075 134.56V160ZM612.688 160L590.636 172.72L568.595 160V134.56L590.636 121.841L612.688 134.56V160ZM567.3 160L545.248 172.72L523.208 160V134.56L545.248 121.841L567.3 134.56V160ZM521.913 160L499.861 172.72L477.809 160V134.56L499.861 121.841L521.913 134.56V160ZM476.514 160L454.462 172.72L432.422 160V134.56L454.474 121.841L476.514 134.56V160ZM431.127 160L409.075 172.72L387.035 160V134.56L409.075 121.841L431.127 134.56V160ZM385.74 160L363.688 172.72L341.648 160V134.56L363.688 121.841L385.74 134.56V160ZM318.948 120.349V94.9096L341 82.1899L363.04 94.9096V120.349L340.988 133.069L318.948 120.349ZM341.648 55.6635L363.688 42.9438L385.74 55.6635V81.1029L363.688 93.8226L341.648 81.1029V55.6635ZM387.035 55.6635L409.075 42.9438L431.127 55.6635V81.1029L409.075 93.8226L387.035 81.1029V55.6635ZM432.422 55.6635L454.474 42.9438L476.514 55.6635V81.1029L454.462 93.8226L432.422 81.1029V55.6635ZM477.809 55.6635L499.861 42.9438L521.913 55.6635V81.1029L499.861 93.8226L477.809 81.1029V55.6635ZM523.208 55.6635L545.248 42.9438L567.3 55.6635V81.1029L545.248 93.8226L523.208 81.1029V55.6635ZM568.595 55.6635L590.636 42.9438L612.688 55.6635V81.1029L590.636 93.8226L568.595 81.1029V55.6635ZM613.983 55.6635L636.035 42.9438L658.075 55.6635V81.1029L636.023 93.8226L613.983 81.1029V55.6635ZM659.37 55.6635L681.422 42.9438L703.474 55.6635V81.1029L681.41 93.8226L659.37 81.1029V55.6635ZM704.769 55.6635L726.809 42.9438L748.861 55.6635V81.1029L726.809 93.8226L704.769 81.1029V55.6635ZM750.156 55.6635L772.196 42.9438L794.248 55.6635V81.1029L772.196 93.8226L750.156 81.1029V55.6635ZM795.543 55.6635L817.595 42.9438L839.635 55.6635V81.1029L817.584 93.8226L795.543 81.1029V55.6635ZM840.931 55.6635L862.982 42.9438L885.023 55.6635V81.1029L862.971 93.8226L840.931 81.1029V55.6635ZM886.329 55.6635L908.37 42.9438L930.422 55.6635V81.1029L908.37 93.8226L886.329 81.1029V55.6635ZM931.717 55.6635L953.757 42.9438L975.809 55.6635V81.1029L953.757 93.8226L931.717 81.1029V55.6635ZM977.104 55.6635L999.156 42.9438L1021.2 55.6635V81.1029L999.144 93.8226L977.104 81.1029V55.6635ZM1022.49 55.6635L1044.54 42.9438L1066.58 55.6635V81.1029L1044.53 93.8226L1022.49 81.1029V55.6635ZM1067.89 55.6635L1089.93 42.9438L1111.98 55.6635V81.1029L1089.93 93.8226L1067.89 81.1029V55.6635ZM1113.28 55.6635L1135.32 42.9438L1157.37 55.6635V81.1029L1135.32 93.8226L1113.28 81.1029V55.6635ZM1158.66 55.6635L1180.72 42.9438L1202.76 55.6635V81.1029L1180.7 93.8226L1158.66 81.1029V55.6635ZM1204.05 55.6635L1226.1 42.9438L1248.14 55.6635V81.1029L1226.09 93.8226L1204.05 81.1029V55.6635ZM1249.44 55.6635L1271.49 42.9438L1293.54 55.6635V81.1029L1271.49 93.8226L1249.44 81.1029V55.6635ZM1294.84 55.6635L1316.88 42.9438L1338.93 55.6635V81.1029L1316.88 93.8226L1294.84 81.1029V55.6635ZM1340.23 55.6635L1362.27 42.9438L1384.32 55.6635V81.1029L1362.27 93.8226L1340.23 81.1029V55.6635ZM1361.62 199.258L1339.57 211.977L1317.53 199.258V173.818L1339.58 161.098L1361.62 173.818V199.258ZM1316.23 199.258L1294.18 211.977L1272.14 199.258V173.818L1294.19 161.098L1316.23 173.818V199.258ZM1270.83 199.258L1248.79 211.977L1226.74 199.258V173.818L1248.79 161.098L1270.83 173.818V199.258ZM1225.44 199.258L1203.4 211.977L1181.35 199.258V173.818L1203.4 161.098L1225.44 173.818V199.258ZM1180.06 199.258L1158.01 211.977L1135.97 199.258V173.818L1158.02 161.098L1180.06 173.818V199.258ZM1134.67 199.258L1112.62 211.977L1090.58 199.258V173.818L1112.63 161.098L1134.67 173.818V199.258ZM1089.28 199.258L1067.23 211.977L1045.18 199.258V173.818L1067.23 161.098L1089.28 173.818V199.258ZM1043.88 199.258L1021.84 211.977L999.792 199.258V173.818L1021.84 161.098L1043.88 173.818V199.258ZM998.497 199.258L976.445 211.977L954.404 199.258V173.818L976.456 161.098L998.497 173.818V199.258ZM953.109 199.258L931.057 211.977L909.017 199.258V173.818L931.069 161.098L953.109 173.818V199.258ZM907.722 199.258L885.67 211.977L863.63 199.258V173.818L885.682 161.098L907.722 173.818V199.258ZM862.323 199.258L840.283 211.977L818.231 199.258V173.818L840.283 161.098L862.323 173.818V199.258ZM816.936 199.258L794.896 211.977L772.844 199.258V173.818L794.896 161.098L816.936 173.818V199.258ZM771.549 199.258L749.497 211.977L727.457 199.258V173.818L749.508 161.098L771.549 173.818V199.258ZM726.161 199.258L704.11 211.977L682.069 199.258V173.818L704.121 161.098L726.161 173.818V199.258ZM680.763 199.258L658.722 211.977L636.671 199.258V173.818L658.722 161.098L680.763 173.818V199.258ZM635.375 199.258L613.335 211.977L591.283 199.258V173.818L613.335 161.098L635.375 173.818V199.258ZM589.988 199.258L567.936 211.977L545.896 199.258V173.818L567.948 161.098L589.988 173.818V199.258ZM544.601 199.258L522.549 211.977L500.509 199.258V173.818L522.561 161.098L544.601 173.818V199.258ZM499.202 199.258L477.162 211.977L455.11 199.258V173.818L477.162 161.098L499.202 173.818V199.258ZM453.815 199.258L431.775 211.977L409.723 199.258V173.818L431.775 161.098L453.815 173.818V199.258ZM408.428 199.258L386.376 211.977L364.335 199.258V173.818L386.387 161.098L408.428 173.818V199.258ZM363.04 199.258L340.988 211.977L318.948 199.258V173.818L341 161.098L363.04 173.818V199.258ZM1429.7 55.6635V81.1029L1407.65 93.8226L1385.61 81.1029V55.6635L1407.66 42.9438L1429.7 55.6635ZM1429.7 134.584V160.023L1407.65 172.743L1385.61 160.023V134.584L1407.66 121.864L1429.7 134.584ZM273.584 199.246V173.807L295.636 161.087L317.676 173.807V199.246L295.636 211.966L273.584 199.246ZM273.584 120.337V94.898L295.636 82.1783L317.676 94.898V120.337L295.636 133.057L273.584 120.337ZM273.584 41.4174V15.978L295.636 3.25824L317.676 15.978V41.4174L295.636 54.1371L273.584 41.4174ZM318.983 15.978L341.035 3.25824L363.075 15.978V41.4174L341.023 54.1371L318.983 41.4174V15.978ZM364.37 15.978L386.422 3.25824L408.462 15.978V41.4174L386.41 54.1371L364.37 41.4174V15.978ZM409.757 15.978L431.809 3.25824L453.85 15.978V41.4174L431.809 54.1371L409.757 41.4174V15.978ZM455.145 15.978L477.196 3.25824L499.237 15.978V41.4174L477.196 54.1371L455.145 41.4174V15.978ZM500.543 15.978L522.595 3.25824L544.636 15.978V41.4174L522.584 54.1371L500.543 41.4174V15.978ZM545.931 15.978L567.983 3.25824L590.023 15.978V41.4174L567.971 54.1371L545.931 41.4174V15.978ZM591.318 15.978L613.37 3.25824L635.41 15.978V41.4174L613.37 54.1371L591.318 41.4174V15.978ZM636.705 15.978L658.757 3.25824L680.797 15.978V41.4174L658.757 54.1371L636.705 41.4174V15.978ZM682.104 15.978L704.156 3.25824L726.196 15.978V41.4174L704.144 54.1371L682.104 41.4174V15.978ZM727.491 15.978L749.543 3.25824L771.583 15.978V41.4174L749.532 54.1371L727.491 41.4174V15.978ZM772.879 15.978L794.93 3.25824L816.971 15.978V41.4174L794.93 54.1371L772.879 41.4174V15.978ZM818.266 15.978L840.318 3.25824L862.358 15.978V41.4174L840.318 54.1371L818.266 41.4174V15.978ZM863.665 15.978L885.717 3.25824L907.757 15.978V41.4174L885.705 54.1371L863.665 41.4174V15.978ZM909.052 15.978L931.104 3.25824L953.144 15.978V41.4174L931.092 54.1371L909.052 41.4174V15.978ZM954.439 15.978L976.491 3.25824L998.531 15.978V41.4174L976.479 54.1371L954.439 41.4174V15.978ZM999.826 15.978L1021.88 3.25824L1043.92 15.978V41.4174L1021.88 54.1371L999.826 41.4174V15.978ZM1045.21 15.978L1067.27 3.25824L1089.32 15.978V41.4174L1067.27 54.1371L1045.21 41.4174V15.978ZM1090.61 15.978L1112.66 3.25824L1134.7 15.978V41.4174L1112.65 54.1371L1090.61 41.4174V15.978ZM1136 15.978L1158.05 3.25824L1180.09 15.978V41.4174L1158.04 54.1371L1136 41.4174V15.978ZM1181.39 15.978L1203.44 3.25824L1225.48 15.978V41.4174L1203.44 54.1371L1181.39 41.4174V15.978ZM1226.77 15.978L1248.83 3.25824L1270.87 15.978V41.4174L1248.83 54.1371L1226.77 41.4174V15.978ZM1272.17 15.978L1294.22 3.25824L1316.27 15.978V41.4174L1294.21 54.1371L1272.17 41.4174V15.978ZM1317.56 15.978L1339.61 3.25824L1361.65 15.978V41.4174L1339.6 54.1371L1317.56 41.4174V15.978ZM1362.95 15.978L1385 3.25824L1407.04 15.978V41.4174L1385 54.1371L1362.95 41.4174V15.978ZM1429.74 238.897L1407.69 251.617L1385.65 238.897V213.457L1407.7 200.738L1429.74 213.457V238.897ZM1384.35 238.897L1362.3 251.617L1340.26 238.897V213.457L1362.3 200.738L1384.35 213.457V238.897ZM1338.96 238.897L1316.91 251.617L1294.87 238.897V213.457L1316.91 200.738L1338.96 213.457V238.897ZM1293.58 238.897L1271.53 251.617L1249.47 238.897V213.457L1271.53 200.738L1293.58 213.457V238.897ZM1248.18 238.897L1226.13 251.617L1204.09 238.897V213.457L1226.14 200.738L1248.18 213.457V238.897ZM1202.79 238.897L1180.74 251.617L1158.7 238.897V213.457L1180.75 200.738L1202.79 213.457V238.897ZM1157.4 238.897L1135.35 251.617L1113.31 238.897V213.457L1135.35 200.738L1157.4 213.457V238.897ZM1112.02 238.897L1089.96 251.617L1067.92 238.897V213.457L1089.96 200.738L1112.02 213.457V238.897ZM1066.62 238.897L1044.57 251.617L1022.53 238.897V213.457L1044.58 200.738L1066.62 213.457V238.897ZM1021.23 238.897L999.179 251.617L977.139 238.897V213.457L999.19 200.738L1021.23 213.457V238.897ZM975.844 238.897L953.792 251.617L931.751 238.897V213.457L953.792 200.738L975.844 213.457V238.897ZM930.456 238.897L908.404 251.617L886.364 238.897V213.457L908.404 200.738L930.456 213.457V238.897ZM885.057 238.897L863.006 251.617L840.965 238.897V213.457L863.017 200.738L885.057 213.457V238.897ZM839.67 238.897L817.618 251.617L795.578 238.897V213.457L817.63 200.738L839.67 213.457V238.897ZM794.283 238.897L772.231 251.617L750.191 238.897V213.457L772.231 200.738L794.283 213.457V238.897ZM748.896 238.897L726.844 251.617L704.803 238.897V213.457L726.844 200.738L748.896 213.457V238.897ZM703.508 238.897L681.445 251.617L659.405 238.897V213.457L681.456 200.738L703.508 213.457V238.897ZM658.109 238.897L636.058 251.617L614.017 238.897V213.457L636.069 200.738L658.109 213.457V238.897ZM612.722 238.897L590.67 251.617L568.63 238.897V213.457L590.67 200.738L612.722 213.457V238.897ZM567.335 238.897L545.283 251.617L523.243 238.897V213.457L545.283 200.738L567.335 213.457V238.897ZM521.948 238.897L499.896 251.617L477.844 238.897V213.457L499.896 200.738L521.948 213.457V238.897ZM476.549 238.897L454.497 251.617L432.457 238.897V213.457L454.509 200.738L476.549 213.457V238.897ZM431.162 238.897L409.11 251.617L387.07 238.897V213.457L409.11 200.738L431.162 213.457V238.897ZM385.774 238.897L363.723 251.617L341.682 238.897V213.457L363.723 200.738L385.774 213.457V238.897ZM340.387 238.897L318.335 251.617L296.295 238.897V213.457L318.335 200.738L340.387 213.457V238.897ZM296.295 -23.2681L318.335 -35.9878L340.387 -23.2681V2.17133L318.335 14.8911L296.295 2.17133V-23.2681ZM341.682 -23.2681L363.723 -35.9878L385.774 -23.2681V2.17133L363.723 14.8911L341.682 2.17133V-23.2681ZM387.07 -23.2681L409.11 -35.9878L431.162 -23.2681V2.17133L409.11 14.8911L387.07 2.17133V-23.2681ZM432.457 -23.2681L454.509 -35.9878L476.549 -23.2681V2.17133L454.497 14.8911L432.457 2.17133V-23.2681ZM477.844 -23.2681L499.896 -35.9878L521.948 -23.2681V2.17133L499.896 14.8911L477.844 2.17133V-23.2681ZM523.243 -23.2681L545.283 -35.9878L567.335 -23.2681V2.17133L545.283 14.8911L523.243 2.17133V-23.2681ZM568.63 -23.2681L590.67 -35.9878L612.722 -23.2681V2.17133L590.67 14.8911L568.63 2.17133V-23.2681ZM614.017 -23.2681L636.069 -35.9878L658.109 -23.2681V2.17133L636.058 14.8911L614.017 2.17133V-23.2681ZM659.405 -23.2681L681.456 -35.9878L703.508 -23.2681V2.17133L681.445 14.8911L659.405 2.17133V-23.2681ZM704.803 -23.2681L726.844 -35.9878L748.896 -23.2681V2.17133L726.844 14.8911L704.803 2.17133V-23.2681ZM750.191 -23.2681L772.231 -35.9878L794.283 -23.2681V2.17133L772.231 14.8911L750.191 2.17133V-23.2681ZM795.578 -23.2681L817.63 -35.9878L839.67 -23.2681V2.17133L817.618 14.8911L795.578 2.17133V-23.2681ZM840.965 -23.2681L863.017 -35.9878L885.057 -23.2681V2.17133L863.006 14.8911L840.965 2.17133V-23.2681ZM886.364 -23.2681L908.404 -35.9878L930.456 -23.2681V2.17133L908.404 14.8911L886.364 2.17133V-23.2681ZM931.751 -23.2681L953.792 -35.9878L975.844 -23.2681V2.17133L953.792 14.8911L931.751 2.17133V-23.2681ZM977.139 -23.2681L999.19 -35.9878L1021.23 -23.2681V2.17133L999.179 14.8911L977.139 2.17133V-23.2681ZM1022.53 -23.2681L1044.58 -35.9878L1066.62 -23.2681V2.17133L1044.57 14.8911L1022.53 2.17133V-23.2681ZM1067.92 -23.2681L1089.96 -35.9878L1112.02 -23.2681V2.17133L1089.96 14.8911L1067.92 2.17133V-23.2681ZM1113.31 -23.2681L1135.35 -35.9878L1157.4 -23.2681V2.17133L1135.35 14.8911L1113.31 2.17133V-23.2681ZM1158.7 -23.2681L1180.75 -35.9878L1202.79 -23.2681V2.17133L1180.74 14.8911L1158.7 2.17133V-23.2681ZM1204.09 -23.2681L1226.14 -35.9878L1248.18 -23.2681V2.17133L1226.13 14.8911L1204.09 2.17133V-23.2681ZM1249.47 -23.2681L1271.53 -35.9878L1293.58 -23.2681V2.17133L1271.53 14.8911L1249.47 2.17133V-23.2681ZM1294.87 -23.2681L1316.91 -35.9878L1338.96 -23.2681V2.17133L1316.91 14.8911L1294.87 2.17133V-23.2681ZM1340.26 -23.2681L1362.3 -35.9878L1384.35 -23.2681V2.17133L1362.3 14.8911L1340.26 2.17133V-23.2681ZM1385.65 -23.2681L1407.7 -35.9878L1429.74 -23.2681V2.17133L1407.69 14.8911L1385.65 2.17133V-23.2681ZM1452.39 278.166L1430.35 290.886L1408.3 278.166V252.727L1430.35 240.007L1452.39 252.727V278.166ZM1407.01 278.166L1384.96 290.886L1362.91 278.166V252.727L1384.96 240.007L1407.01 252.727V278.166ZM1361.62 278.166L1339.57 290.886L1317.53 278.166V252.727L1339.58 240.007L1361.62 252.727V278.166ZM1316.23 278.166L1294.18 290.886L1272.14 278.166V252.727L1294.19 240.007L1316.23 252.727V278.166ZM1270.83 278.166L1248.79 290.886L1226.74 278.166V252.727L1248.79 240.007L1270.83 252.727V278.166ZM1225.44 278.166L1203.4 290.886L1181.35 278.166V252.727L1203.4 240.007L1225.44 252.727V278.166ZM1180.06 278.166L1158.01 290.886L1135.97 278.166V252.727L1158.02 240.007L1180.06 252.727V278.166ZM1134.67 278.166L1112.62 290.886L1090.58 278.166V252.727L1112.63 240.007L1134.67 252.727V278.166ZM1089.28 278.166L1067.23 290.886L1045.18 278.166V252.727L1067.23 240.007L1089.28 252.727V278.166ZM1043.88 278.166L1021.84 290.886L999.792 278.166V252.727L1021.84 240.007L1043.88 252.727V278.166ZM998.497 278.166L976.445 290.886L954.404 278.166V252.727L976.456 240.007L998.497 252.727V278.166ZM953.109 278.166L931.057 290.886L909.017 278.166V252.727L931.069 240.007L953.109 252.727V278.166ZM907.722 278.166L885.67 290.886L863.63 278.166V252.727L885.682 240.007L907.722 252.727V278.166ZM862.323 278.166L840.283 290.886L818.231 278.166V252.727L840.283 240.007L862.323 252.727V278.166ZM816.936 278.166L794.896 290.886L772.844 278.166V252.727L794.896 240.007L816.936 252.727V278.166ZM771.549 278.166L749.497 290.886L727.457 278.166V252.727L749.508 240.007L771.549 252.727V278.166ZM726.161 278.166L704.11 290.886L682.069 278.166V252.727L704.121 240.007L726.161 252.727V278.166ZM680.763 278.166L658.722 290.886L636.671 278.166V252.727L658.722 240.007L680.763 252.727V278.166ZM635.375 278.166L613.335 290.886L591.283 278.166V252.727L613.335 240.007L635.375 252.727V278.166ZM589.988 278.166L567.936 290.886L545.896 278.166V252.727L567.948 240.007L589.988 252.727V278.166ZM544.601 278.166L522.549 290.886L500.509 278.166V252.727L522.561 240.007L544.601 252.727V278.166ZM499.202 278.166L477.162 290.886L455.11 278.166V252.727L477.162 240.007L499.202 252.727V278.166ZM453.815 278.166L431.775 290.886L409.723 278.166V252.727L431.775 240.007L453.815 252.727V278.166ZM408.428 278.166L386.376 290.886L364.335 278.166V252.727L386.387 240.007L408.428 252.727V278.166ZM363.04 278.166L340.988 290.886L318.948 278.166V252.727L341 240.007L363.04 252.727V278.166ZM317.641 278.166L295.601 290.886L273.549 278.166V252.727L295.601 240.007L317.641 252.727V278.166ZM1475.13 -23.2681V2.17133L1453.07 14.8911L1431.03 2.17133V-23.2681L1453.09 -35.9878L1475.13 -23.2681ZM1475.13 55.6519V81.0914L1453.07 93.8111L1431.03 81.0914V55.6519L1453.09 42.9322L1475.13 55.6519ZM1475.13 134.572V160.011L1453.07 172.731L1431.03 160.011V134.572L1453.09 121.852L1475.13 134.572ZM1475.13 213.48V238.92L1453.07 251.64L1431.03 238.92V213.48L1453.09 200.761L1475.13 213.48ZM228.197 278.166V252.727L250.249 240.007L272.289 252.727V278.166L250.249 290.886L228.197 278.166ZM228.197 199.246V173.807L250.249 161.087L272.289 173.807V199.246L250.249 211.966L228.197 199.246ZM228.197 120.337V94.898L250.249 82.1783L272.289 94.898V120.337L250.249 133.057L228.197 120.337ZM228.197 41.4174V15.978L250.249 3.25824L272.289 15.978V41.4174L250.249 54.1371L228.197 41.4174ZM228.197 -62.9189L250.249 -75.6386L272.289 -62.9189V-37.4795L250.249 -24.7598L228.197 -37.4795V-62.9189ZM273.584 -62.9189L295.636 -75.6386L317.676 -62.9189V-37.4795L295.636 -24.7598L273.584 -37.4795V-62.9189ZM318.983 -62.9189L341.035 -75.6386L363.075 -62.9189V-37.4795L341.023 -24.7598L318.983 -37.4795V-62.9189ZM364.37 -62.9189L386.422 -75.6386L408.462 -62.9189V-37.4795L386.41 -24.7598L364.37 -37.4795V-62.9189ZM409.757 -62.9189L431.809 -75.6386L453.85 -62.9189V-37.4795L431.809 -24.7598L409.757 -37.4795V-62.9189ZM455.145 -62.9189L477.196 -75.6386L499.237 -62.9189V-37.4795L477.196 -24.7598L455.145 -37.4795V-62.9189ZM500.543 -62.9189L522.595 -75.6386L544.636 -62.9189V-37.4795L522.584 -24.7598L500.543 -37.4795V-62.9189ZM545.931 -62.9189L567.983 -75.6386L590.023 -62.9189V-37.4795L567.971 -24.7598L545.931 -37.4795V-62.9189ZM591.318 -62.9189L613.37 -75.6386L635.41 -62.9189V-37.4795L613.37 -24.7598L591.318 -37.4795V-62.9189ZM636.705 -62.9189L658.757 -75.6386L680.797 -62.9189V-37.4795L658.757 -24.7598L636.705 -37.4795V-62.9189ZM682.104 -62.9189L704.156 -75.6386L726.196 -62.9189V-37.4795L704.144 -24.7598L682.104 -37.4795V-62.9189ZM727.491 -62.9189L749.543 -75.6386L771.583 -62.9189V-37.4795L749.532 -24.7598L727.491 -37.4795V-62.9189ZM772.879 -62.9189L794.93 -75.6386L816.971 -62.9189V-37.4795L794.93 -24.7598L772.879 -37.4795V-62.9189ZM818.266 -62.9189L840.318 -75.6386L862.358 -62.9189V-37.4795L840.318 -24.7598L818.266 -37.4795V-62.9189ZM863.665 -62.9189L885.717 -75.6386L907.757 -62.9189V-37.4795L885.705 -24.7598L863.665 -37.4795V-62.9189ZM909.052 -62.9189L931.104 -75.6386L953.144 -62.9189V-37.4795L931.092 -24.7598L909.052 -37.4795V-62.9189ZM954.439 -62.9189L976.491 -75.6386L998.531 -62.9189V-37.4795L976.479 -24.7598L954.439 -37.4795V-62.9189ZM999.826 -62.9189L1021.88 -75.6386L1043.92 -62.9189V-37.4795L1021.88 -24.7598L999.826 -37.4795V-62.9189ZM1045.21 -62.9189L1067.27 -75.6386L1089.32 -62.9189V-37.4795L1067.27 -24.7598L1045.21 -37.4795V-62.9189ZM1090.61 -62.9189L1112.66 -75.6386L1134.7 -62.9189V-37.4795L1112.65 -24.7598L1090.61 -37.4795V-62.9189ZM1136 -62.9189L1158.05 -75.6386L1180.09 -62.9189V-37.4795L1158.04 -24.7598L1136 -37.4795V-62.9189ZM1181.39 -62.9189L1203.44 -75.6386L1225.48 -62.9189V-37.4795L1203.44 -24.7598L1181.39 -37.4795V-62.9189ZM1226.77 -62.9189L1248.83 -75.6386L1270.87 -62.9189V-37.4795L1248.83 -24.7598L1226.77 -37.4795V-62.9189ZM1272.17 -62.9189L1294.22 -75.6386L1316.27 -62.9189V-37.4795L1294.21 -24.7598L1272.17 -37.4795V-62.9189ZM1317.56 -62.9189L1339.61 -75.6386L1361.65 -62.9189V-37.4795L1339.6 -24.7598L1317.56 -37.4795V-62.9189ZM1362.95 -62.9189L1385 -75.6386L1407.04 -62.9189V-37.4795L1385 -24.7598L1362.95 -37.4795V-62.9189ZM1408.33 -62.9189L1430.39 -75.6386L1452.43 -62.9189V-37.4795L1430.39 -24.7598L1408.33 -37.4795V-62.9189ZM1475.13 317.828L1453.07 330.548L1431.03 317.828V292.389L1453.09 279.669L1475.13 292.389V317.828ZM1429.74 317.828L1407.69 330.548L1385.65 317.828V292.389L1407.7 279.669L1429.74 292.389V317.828ZM1384.35 317.828L1362.3 330.548L1340.26 317.828V292.389L1362.3 279.669L1384.35 292.389V317.828ZM1338.96 317.828L1316.91 330.548L1294.87 317.828V292.389L1316.91 279.669L1338.96 292.389V317.828ZM1293.58 317.828L1271.53 330.548L1249.47 317.828V292.389L1271.53 279.669L1293.58 292.389V317.828ZM1248.18 317.828L1226.13 330.548L1204.09 317.828V292.389L1226.14 279.669L1248.18 292.389V317.828ZM1202.79 317.828L1180.74 330.548L1158.7 317.828V292.389L1180.75 279.669L1202.79 292.389V317.828ZM1157.4 317.828L1135.35 330.548L1113.31 317.828V292.389L1135.35 279.669L1157.4 292.389V317.828ZM1112.02 317.828L1089.96 330.548L1067.92 317.828V292.389L1089.96 279.669L1112.02 292.389V317.828ZM1066.62 317.828L1044.57 330.548L1022.53 317.828V292.389L1044.58 279.669L1066.62 292.389V317.828ZM1021.23 317.828L999.179 330.548L977.127 317.828V292.389L999.179 279.669L1021.22 292.389L1021.23 317.828ZM975.844 317.828L953.792 330.548L931.751 317.828V292.389L953.792 279.669L975.844 292.389V317.828ZM930.456 317.828L908.404 330.548L886.364 317.828V292.389L908.404 279.669L930.456 292.389V317.828ZM885.057 317.828L863.006 330.548L840.965 317.828V292.389L863.017 279.669L885.057 292.389V317.828ZM839.67 317.828L817.618 330.548L795.578 317.828V292.389L817.63 279.669L839.67 292.389V317.828ZM794.283 317.828L772.231 330.548L750.191 317.828V292.389L772.231 279.669L794.283 292.389V317.828ZM748.896 317.828L726.844 330.548L704.803 317.828V292.389L726.844 279.669L748.896 292.389V317.828ZM703.508 317.828L681.445 330.548L659.405 317.828V292.389L681.456 279.669L703.508 292.389V317.828ZM658.109 317.828L636.058 330.548L614.029 317.828V292.389L636.081 279.669L658.121 292.389L658.109 317.828ZM612.722 317.828L590.67 330.548L568.63 317.828V292.389L590.67 279.669L612.722 292.389V317.828ZM567.335 317.828L545.283 330.548L523.243 317.828V292.389L545.283 279.669L567.335 292.389V317.828ZM521.948 317.828L499.896 330.548L477.844 317.828V292.389L499.896 279.669L521.948 292.389V317.828ZM476.549 317.828L454.497 330.548L432.48 317.828V292.389L454.532 279.669L476.572 292.389L476.549 317.828ZM431.162 317.828L409.11 330.548L387.07 317.828V292.389L409.11 279.669L431.162 292.389V317.828ZM385.774 317.828L363.723 330.548L341.682 317.828V292.389L363.723 279.669L385.774 292.389V317.828ZM340.387 317.828L318.335 330.548L296.295 317.828V292.389L318.335 279.669L340.387 292.389V317.828ZM294.988 317.828L272.936 330.548L250.931 317.828V292.389L272.983 279.669L295.023 292.389L294.988 317.828ZM205.509 -102.177L227.561 -114.896L249.601 -102.177V-76.7372L227.549 -64.0175L205.509 -76.7372V-102.177ZM250.896 -102.177L272.948 -114.896L294.988 -102.177V-76.7372L272.936 -64.0175L250.896 -76.7372V-102.177ZM296.295 -102.177L318.335 -114.896L340.387 -102.177V-76.7372L318.335 -64.0175L296.295 -76.7372V-102.177ZM341.682 -102.177L363.723 -114.896L385.774 -102.177V-76.7372L363.723 -64.0175L341.682 -76.7372V-102.177ZM387.07 -102.177L409.11 -114.896L431.162 -102.177V-76.7372L409.11 -64.0175L387.07 -76.7372V-102.177ZM432.457 -102.177L454.509 -114.896L476.549 -102.177V-76.7372L454.497 -64.0175L432.457 -76.7372V-102.177ZM477.844 -102.177L499.896 -114.896L521.948 -102.177V-76.7372L499.896 -64.0175L477.844 -76.7372V-102.177ZM523.243 -102.177L545.283 -114.896L567.335 -102.177V-76.7372L545.283 -64.0175L523.243 -76.7372V-102.177ZM568.63 -102.177L590.67 -114.896L612.722 -102.177V-76.7372L590.67 -64.0175L568.63 -76.7372V-102.177ZM614.017 -102.177L636.069 -114.896L658.109 -102.177V-76.7372L636.058 -64.0175L614.017 -76.7372V-102.177ZM659.405 -102.177L681.456 -114.896L703.508 -102.177V-76.7372L681.445 -64.0175L659.405 -76.7372V-102.177ZM704.803 -102.177L726.844 -114.896L748.896 -102.177V-76.7372L726.844 -64.0175L704.803 -76.7372V-102.177ZM750.191 -102.177L772.231 -114.896L794.283 -102.177V-76.7372L772.231 -64.0175L750.191 -76.7372V-102.177ZM795.578 -102.177L817.63 -114.896L839.67 -102.177V-76.7372L817.618 -64.0175L795.578 -76.7372V-102.177ZM840.965 -102.177L863.017 -114.896L885.057 -102.177V-76.7372L863.006 -64.0175L840.965 -76.7372V-102.177ZM886.364 -102.177L908.404 -114.896L930.456 -102.177V-76.7372L908.404 -64.0175L886.364 -76.7372V-102.177ZM931.751 -102.177L953.792 -114.896L975.844 -102.177V-76.7372L953.792 -64.0175L931.751 -76.7372V-102.177ZM977.139 -102.177L999.19 -114.896L1021.23 -102.177V-76.7372L999.179 -64.0175L977.139 -76.7372V-102.177ZM1022.53 -102.177L1044.58 -114.896L1066.62 -102.177V-76.7372L1044.57 -64.0175L1022.53 -76.7372V-102.177ZM1067.92 -102.177L1089.96 -114.896L1112.02 -102.177V-76.7372L1089.96 -64.0175L1067.92 -76.7372V-102.177ZM1113.31 -102.177L1135.35 -114.896L1157.4 -102.177V-76.7372L1135.35 -64.0175L1113.31 -76.7372V-102.177ZM1158.7 -102.177L1180.75 -114.896L1202.79 -102.177V-76.7372L1180.74 -64.0175L1158.7 -76.7372V-102.177ZM1204.09 -102.177L1226.14 -114.896L1248.18 -102.177V-76.7372L1226.13 -64.0175L1204.09 -76.7372V-102.177ZM1249.47 -102.177L1271.53 -114.896L1293.58 -102.177V-76.7372L1271.53 -64.0175L1249.47 -76.7372V-102.177ZM1294.87 -102.177L1316.91 -114.896L1338.96 -102.177V-76.7372L1316.91 -64.0175L1294.87 -76.7372V-102.177ZM1340.26 -102.177L1362.3 -114.896L1384.35 -102.177V-76.7372L1362.3 -64.0175L1340.26 -76.7372V-102.177ZM1385.65 -102.177L1407.7 -114.896L1429.74 -102.177V-76.7372L1407.69 -64.0175L1385.65 -76.7372V-102.177ZM1431.03 -102.177L1453.09 -114.896L1475.13 -102.177V-76.7372L1453.07 -64.0175L1431.03 -76.7372V-102.177ZM1476.43 -102.177L1498.47 -114.896L1520.53 -102.177V-76.7372L1498.47 -64.0175L1476.43 -76.7372V-102.177ZM1520.53 -23.2681V2.17133L1498.47 14.8911L1476.43 2.17133V-23.2681L1498.47 -35.9878L1520.53 -23.2681ZM1520.53 55.6519V81.0914L1498.47 93.8111L1476.43 81.0914V55.6519L1498.47 42.9322L1520.53 55.6519ZM1520.53 134.572V160.011L1498.47 172.731L1476.43 160.011V134.572L1498.47 121.852L1520.53 134.572ZM1520.53 213.48V238.92L1498.47 251.64L1476.43 238.92V213.48L1498.47 200.761L1520.53 213.48ZM1520.53 292.401V317.84L1498.47 330.56L1476.43 317.84V292.401L1498.47 279.681L1520.53 292.401ZM1497.83 357.075L1475.77 369.794L1453.73 357.075V331.635L1475.79 318.915L1497.83 331.635V357.075ZM1452.43 357.075L1430.39 369.794L1408.33 357.075V331.635L1430.39 318.915L1452.43 331.635V357.075ZM1407.04 357.075L1385 369.794L1362.95 357.075V331.635L1385 318.915L1407.04 331.635V357.075ZM1361.65 357.075L1339.6 369.794L1317.56 357.075V331.635L1339.61 318.915L1361.65 331.635V357.075ZM1316.27 357.075L1294.21 369.794L1272.17 357.075V331.635L1294.22 318.915L1316.27 331.635V357.075ZM1270.87 357.075L1248.83 369.794L1226.77 357.075V331.635L1248.83 318.915L1270.87 331.635V357.075ZM1225.48 357.075L1203.44 369.794L1181.39 357.075V331.635L1203.44 318.915L1225.48 331.635V357.075ZM1180.09 357.075L1158.04 369.794L1136 357.075V331.635L1158.05 318.915L1180.09 331.635V357.075ZM1134.7 357.075L1112.65 369.794L1090.61 357.075V331.635L1112.66 318.915L1134.7 331.635V357.075ZM1089.32 357.075L1067.27 369.794L1045.21 357.075V331.635L1067.27 318.915L1089.32 331.635V357.075ZM1043.92 357.075L1021.88 369.794L999.826 357.075V331.635L1021.88 318.915L1043.92 331.635V357.075ZM998.531 357.075L976.479 369.794L954.439 357.075V331.635L976.491 318.915L998.531 331.635V357.075ZM953.144 357.075L931.092 369.794L909.052 357.075V331.635L931.104 318.915L953.144 331.635V357.075ZM907.757 357.075L885.705 369.794L863.665 357.075V331.635L885.717 318.915L907.757 331.635V357.075ZM862.358 357.075L840.318 369.794L818.266 357.075V331.635L840.318 318.915L862.358 331.635V357.075ZM816.971 357.075L794.93 369.794L772.879 357.075V331.635L794.93 318.915L816.971 331.635V357.075ZM771.583 357.075L749.532 369.794L727.491 357.075V331.635L749.543 318.915L771.583 331.635V357.075ZM726.196 357.075L704.144 369.794L682.104 357.075V331.635L704.156 318.915L726.196 331.635V357.075ZM680.797 357.075L658.757 369.794L636.705 357.075V331.635L658.757 318.915L680.797 331.635V357.075ZM635.41 357.075L613.37 369.794L591.318 357.075V331.635L613.37 318.915L635.41 331.635V357.075ZM590.023 357.075L567.971 369.794L545.931 357.075V331.635L567.983 318.915L590.023 331.635V357.075ZM544.636 357.075L522.584 369.794L500.543 357.075V331.635L522.595 318.915L544.636 331.635V357.075ZM499.237 357.075L477.196 369.794L455.145 357.075V331.635L477.196 318.915L499.237 331.635V357.075ZM453.85 357.075L431.809 369.794L409.757 357.075V331.635L431.809 318.915L453.85 331.635V357.075ZM408.462 357.075L386.41 369.794L364.37 357.075V331.635L386.422 318.915L408.462 331.635V357.075ZM363.075 357.075L341.023 369.794L318.983 357.075V331.635L341.035 318.915L363.075 331.635V357.075ZM317.676 357.075L295.636 369.794L273.584 357.075V331.635L295.636 318.915L317.676 331.635V357.075ZM272.289 357.075L250.249 369.794L228.197 357.075V331.635L250.249 318.915L272.289 331.635V357.075ZM226.902 357.075L204.861 369.794L182.809 357.075V331.635L204.861 318.915L226.902 331.635V357.075ZM182.809 278.166V252.727L204.861 240.007L226.902 252.727V278.166L204.861 290.886L182.809 278.166ZM182.809 199.246V173.807L204.861 161.087L226.902 173.807V199.246L204.861 211.966L182.809 199.246ZM182.809 120.337V94.898L204.861 82.1783L226.902 94.898V120.337L204.861 133.057L182.809 120.337ZM182.809 41.4174V15.978L204.861 3.25824L226.902 15.978V41.4174L204.861 54.1371L182.809 41.4174ZM182.809 -37.5027V-62.9421L204.861 -75.6618L226.902 -62.9421V-37.5027L204.861 -24.7829L182.809 -37.5027ZM182.809 -141.839L204.861 -154.559L226.902 -141.839V-116.4L204.861 -103.68L182.809 -116.4V-141.839ZM228.197 -141.839L250.249 -154.559L272.289 -141.839V-116.4L250.249 -103.68L228.197 -116.4V-141.839ZM273.584 -141.839L295.636 -154.559L317.676 -141.839V-116.4L295.636 -103.68L273.584 -116.4V-141.839ZM318.983 -141.839L341.035 -154.559L363.075 -141.839V-116.4L341.023 -103.68L318.983 -116.4V-141.839ZM364.37 -141.839L386.422 -154.559L408.462 -141.839V-116.4L386.41 -103.68L364.37 -116.4V-141.839ZM409.757 -141.839L431.809 -154.559L453.85 -141.839V-116.4L431.809 -103.68L409.757 -116.4V-141.839ZM455.145 -141.839L477.196 -154.559L499.237 -141.839V-116.4L477.196 -103.68L455.145 -116.4V-141.839ZM500.543 -141.839L522.595 -154.559L544.636 -141.839V-116.4L522.584 -103.68L500.543 -116.4V-141.839ZM545.931 -141.839L567.983 -154.559L590.023 -141.839V-116.4L567.971 -103.68L545.931 -116.4V-141.839ZM591.318 -141.839L613.37 -154.559L635.41 -141.839V-116.4L613.37 -103.68L591.318 -116.4V-141.839ZM636.705 -141.839L658.757 -154.559L680.797 -141.839V-116.4L658.757 -103.68L636.705 -116.4V-141.839ZM682.104 -141.839L704.156 -154.559L726.196 -141.839V-116.4L704.144 -103.68L682.104 -116.4V-141.839ZM727.491 -141.839L749.543 -154.559L771.583 -141.839V-116.4L749.532 -103.68L727.491 -116.4V-141.839ZM772.879 -141.839L794.93 -154.559L816.971 -141.839V-116.4L794.93 -103.68L772.879 -116.4V-141.839ZM818.266 -141.839L840.318 -154.559L862.358 -141.839V-116.4L840.318 -103.68L818.266 -116.4V-141.839ZM863.665 -141.839L885.717 -154.559L907.757 -141.839V-116.4L885.705 -103.68L863.665 -116.4V-141.839ZM909.052 -141.839L931.104 -154.559L953.144 -141.839V-116.4L931.092 -103.68L909.052 -116.4V-141.839ZM954.439 -141.839L976.491 -154.559L998.531 -141.839V-116.4L976.479 -103.68L954.439 -116.4V-141.839ZM999.826 -141.839L1021.88 -154.559L1043.92 -141.839V-116.4L1021.88 -103.68L999.826 -116.4V-141.839ZM1045.21 -141.839L1067.27 -154.559L1089.32 -141.839V-116.4L1067.27 -103.68L1045.21 -116.4V-141.839ZM1090.61 -141.839L1112.66 -154.559L1134.7 -141.839V-116.4L1112.65 -103.68L1090.61 -116.4V-141.839ZM1136 -141.839L1158.05 -154.559L1180.09 -141.839V-116.4L1158.04 -103.68L1136 -116.4V-141.839ZM1181.39 -141.839L1203.44 -154.559L1225.48 -141.839V-116.4L1203.44 -103.68L1181.39 -116.4V-141.839ZM1226.77 -141.839L1248.83 -154.559L1270.87 -141.839V-116.4L1248.83 -103.68L1226.77 -116.4V-141.839ZM1272.17 -141.839L1294.22 -154.559L1316.27 -141.839V-116.4L1294.21 -103.68L1272.17 -116.4V-141.839ZM1317.56 -141.839L1339.61 -154.559L1361.65 -141.839V-116.4L1339.6 -103.68L1317.56 -116.4V-141.839ZM1362.95 -141.839L1385 -154.559L1407.04 -141.839V-116.4L1385 -103.68L1362.95 -116.4V-141.839ZM1408.33 -141.839L1430.39 -154.559L1452.43 -141.839V-116.4L1430.39 -103.68L1408.33 -116.4V-141.839ZM1453.73 -141.839L1475.79 -154.559L1497.83 -141.839V-116.4L1475.77 -103.68L1453.73 -116.4V-141.839ZM1499.12 -141.839L1521.17 -154.559L1543.21 -141.839V-116.4L1521.16 -103.68L1499.12 -116.4V-141.839ZM1520.53 396.737L1498.47 409.457L1476.43 396.737V371.297L1498.47 358.578L1520.53 371.297V396.737ZM1475.13 396.737L1453.07 409.457L1431.03 396.737V371.297L1453.09 358.578L1475.13 371.297V396.737ZM1429.74 396.737L1407.69 409.457L1385.65 396.737V371.297L1407.7 358.578L1429.74 371.297V396.737ZM1384.35 396.737L1362.3 409.457L1340.26 396.737V371.297L1362.3 358.578L1384.35 371.297V396.737ZM1338.96 396.737L1316.91 409.457L1294.87 396.737V371.297L1316.91 358.578L1338.96 371.297V396.737ZM1293.58 396.737L1271.53 409.457L1249.47 396.737V371.297L1271.53 358.578L1293.58 371.297V396.737ZM1248.18 396.737L1226.13 409.457L1204.09 396.737V371.297L1226.14 358.578L1248.18 371.297V396.737ZM1202.79 396.737L1180.74 409.457L1158.7 396.737V371.297L1180.75 358.578L1202.79 371.297V396.737ZM1157.4 396.737L1135.35 409.457L1113.31 396.737V371.297L1135.35 358.578L1157.4 371.297V396.737ZM1112.02 396.737L1089.96 409.457L1067.92 396.737V371.297L1089.96 358.578L1112.02 371.297V396.737ZM1066.62 396.737L1044.57 409.457L1022.53 396.737V371.297L1044.58 358.578L1066.62 371.297V396.737ZM1021.23 396.737L999.179 409.457L977.139 396.737V371.297L999.19 358.578L1021.23 371.297V396.737ZM975.844 396.737L953.792 409.457L931.751 396.737V371.297L953.792 358.578L975.844 371.297V396.737ZM930.456 396.737L908.404 409.457L886.364 396.737V371.297L908.404 358.578L930.456 371.297V396.737ZM885.057 396.737L863.006 409.457L840.965 396.737V371.297L863.017 358.578L885.057 371.297V396.737ZM839.67 396.737L817.618 409.457L795.578 396.737V371.297L817.63 358.578L839.67 371.297V396.737ZM794.283 396.737L772.231 409.457L750.191 396.737V371.297L772.231 358.578L794.283 371.297V396.737ZM748.896 396.737L726.844 409.457L704.803 396.737V371.297L726.844 358.578L748.896 371.297V396.737ZM703.508 396.737L681.445 409.457L659.405 396.737V371.297L681.456 358.578L703.508 371.297V396.737ZM658.109 396.737L636.058 409.457L614.017 396.737V371.297L636.069 358.578L658.109 371.297V396.737ZM612.722 396.737L590.67 409.457L568.63 396.737V371.297L590.67 358.578L612.722 371.297V396.737ZM567.335 396.737L545.283 409.457L523.243 396.737V371.297L545.283 358.578L567.335 371.297V396.737ZM521.948 396.737L499.896 409.457L477.844 396.737V371.297L499.896 358.578L521.948 371.297V396.737ZM476.549 396.737L454.497 409.457L432.457 396.737V371.297L454.509 358.578L476.549 371.297V396.737ZM431.162 396.737L409.11 409.457L387.07 396.737V371.297L409.11 358.578L431.162 371.297V396.737ZM385.774 396.737L363.723 409.457L341.682 396.737V371.297L363.723 358.578L385.774 371.297V396.737ZM340.387 396.737L318.335 409.457L296.295 396.737V371.297L318.335 358.578L340.387 371.297V396.737ZM294.988 396.737L272.936 409.457L250.896 396.737V371.297L272.948 358.578L294.988 371.297V396.737ZM249.601 396.737L227.549 409.457L205.509 396.737V371.297L227.561 358.578L249.601 371.297V396.737ZM204.214 396.737L182.162 409.457L160.122 396.737V371.297L182.162 358.578L204.214 371.297V396.737ZM1565.91 -102.177V-76.7372L1543.86 -64.0175L1521.82 -76.7372V-102.177L1543.86 -114.896L1565.91 -102.177ZM1565.91 -23.2681V2.17133L1543.86 14.8911L1521.82 2.17133V-23.2681L1543.86 -35.9878L1565.91 -23.2681ZM1565.91 55.6519V81.0914L1543.86 93.8111L1521.82 81.0914V55.6519L1543.86 42.9322L1565.91 55.6519ZM1565.91 134.572V160.011L1543.86 172.731L1521.82 160.011V134.572L1543.86 121.852L1565.91 134.572ZM1565.91 213.48V238.92L1543.86 251.64L1521.82 238.92V213.48L1543.86 200.761L1565.91 213.48ZM1565.91 292.401V317.84L1543.86 330.56L1521.82 317.84V292.401L1543.86 279.681L1565.91 292.401ZM1565.91 371.309V396.748L1543.86 409.468L1521.82 396.748V371.309L1543.86 358.589L1565.91 371.309ZM137.422 357.075V331.635L159.474 318.915L181.514 331.635V357.075L159.462 369.794L137.422 357.075ZM137.422 278.166V252.727L159.474 240.007L181.514 252.727V278.166L159.462 290.886L137.422 278.166ZM137.422 199.246V173.807L159.474 161.087L181.514 173.807V199.246L159.462 211.966L137.422 199.246ZM137.422 120.337V94.898L159.474 82.1783L181.514 94.898V120.337L159.462 133.057L137.422 120.337ZM137.422 41.4174V15.978L159.474 3.25824L181.514 15.978V41.4174L159.462 54.1371L137.422 41.4174ZM137.422 -37.5027V-62.9421L159.474 -75.6618L181.514 -62.9421V-37.5027L159.462 -24.7829L137.422 -37.5027ZM137.422 -116.411V-141.851L159.474 -154.57L181.514 -141.851V-116.411L159.462 -103.691L137.422 -116.411ZM160.122 -181.097L182.162 -193.816L204.214 -181.097V-155.657L182.162 -142.938L160.122 -155.657V-181.097ZM205.509 -181.097L227.561 -193.816L249.601 -181.097V-155.657L227.549 -142.938L205.509 -155.657V-181.097ZM250.896 -181.097L272.948 -193.816L294.988 -181.097V-155.657L272.936 -142.938L250.896 -155.657V-181.097ZM296.295 -181.097L318.335 -193.816L340.387 -181.097V-155.657L318.335 -142.938L296.295 -155.657V-181.097ZM341.682 -181.097L363.723 -193.816L385.774 -181.097V-155.657L363.723 -142.938L341.682 -155.657V-181.097ZM387.07 -181.097L409.11 -193.816L431.162 -181.097V-155.657L409.11 -142.938L387.07 -155.657V-181.097ZM432.457 -181.097L454.509 -193.816L476.549 -181.097V-155.657L454.497 -142.938L432.457 -155.657V-181.097ZM477.844 -181.097L499.896 -193.816L521.948 -181.097V-155.657L499.896 -142.938L477.844 -155.657V-181.097ZM523.243 -181.097L545.283 -193.816L567.335 -181.097V-155.657L545.283 -142.938L523.243 -155.657V-181.097ZM568.63 -181.097L590.67 -193.816L612.722 -181.097V-155.657L590.67 -142.938L568.63 -155.657V-181.097ZM614.017 -181.097L636.069 -193.816L658.109 -181.097V-155.657L636.058 -142.938L614.017 -155.657V-181.097ZM659.405 -181.097L681.456 -193.816L703.508 -181.097V-155.657L681.445 -142.938L659.405 -155.657V-181.097ZM704.803 -181.097L726.844 -193.816L748.896 -181.097V-155.657L726.844 -142.938L704.803 -155.657V-181.097ZM750.191 -181.097L772.231 -193.816L794.283 -181.097V-155.657L772.231 -142.938L750.191 -155.657V-181.097ZM795.578 -181.097L817.63 -193.816L839.67 -181.097V-155.657L817.618 -142.938L795.578 -155.657V-181.097ZM840.965 -181.097L863.017 -193.816L885.057 -181.097V-155.657L863.006 -142.938L840.965 -155.657V-181.097ZM886.364 -181.097L908.404 -193.816L930.456 -181.097V-155.657L908.404 -142.938L886.364 -155.657V-181.097ZM931.751 -181.097L953.792 -193.816L975.844 -181.097V-155.657L953.792 -142.938L931.751 -155.657V-181.097ZM977.139 -181.097L999.19 -193.816L1021.23 -181.097V-155.657L999.179 -142.938L977.139 -155.657V-181.097ZM1022.53 -181.097L1044.58 -193.816L1066.62 -181.097V-155.657L1044.57 -142.938L1022.53 -155.657V-181.097ZM1067.92 -181.097L1089.96 -193.816L1112.02 -181.097V-155.657L1089.96 -142.938L1067.92 -155.657V-181.097ZM1113.31 -181.097L1135.35 -193.816L1157.4 -181.097V-155.657L1135.35 -142.938L1113.31 -155.657V-181.097ZM1158.7 -181.097L1180.75 -193.816L1202.79 -181.097V-155.657L1180.74 -142.938L1158.7 -155.657V-181.097ZM1204.09 -181.097L1226.14 -193.816L1248.18 -181.097V-155.657L1226.13 -142.938L1204.09 -155.657V-181.097ZM1249.47 -181.097L1271.53 -193.816L1293.58 -181.097V-155.657L1271.53 -142.938L1249.47 -155.657V-181.097ZM1294.87 -181.097L1316.91 -193.816L1338.96 -181.097V-155.657L1316.91 -142.938L1294.87 -155.657V-181.097ZM1340.26 -181.097L1362.3 -193.816L1384.35 -181.097V-155.657L1362.3 -142.938L1340.26 -155.657V-181.097ZM1385.65 -181.097L1407.7 -193.816L1429.74 -181.097V-155.657L1407.69 -142.938L1385.65 -155.657V-181.097ZM1431.03 -181.097L1453.09 -193.816L1475.13 -181.097V-155.657L1453.07 -142.938L1431.03 -155.657V-181.097ZM1476.43 -181.097L1498.47 -193.816L1520.53 -181.097V-155.657L1498.47 -142.938L1476.43 -155.657V-181.097ZM1521.82 -181.097L1543.86 -193.816L1565.91 -181.097V-155.657L1543.86 -142.938L1521.82 -155.657V-181.097ZM1543.21 435.995L1521.16 448.714L1499.12 435.995V410.555L1521.17 397.835L1543.21 410.555V435.995ZM1497.83 435.995L1475.77 448.714L1453.73 435.995V410.555L1475.79 397.835L1497.83 410.555V435.995ZM1452.43 435.995L1430.39 448.714L1408.33 435.995V410.555L1430.39 397.835L1452.43 410.555V435.995ZM1407.04 435.995L1385 448.714L1362.95 435.995V410.555L1385 397.835L1407.04 410.555V435.995ZM1361.65 435.995L1339.6 448.714L1317.56 435.995V410.555L1339.61 397.835L1361.65 410.555V435.995ZM1316.27 435.995L1294.21 448.714L1272.17 435.995V410.555L1294.22 397.835L1316.27 410.555V435.995ZM1270.87 435.995L1248.83 448.714L1226.77 435.995V410.555L1248.83 397.835L1270.87 410.555V435.995ZM1225.48 435.995L1203.44 448.714L1181.39 435.995V410.555L1203.44 397.835L1225.48 410.555V435.995ZM1180.09 435.995L1158.04 448.714L1136 435.995V410.555L1158.05 397.835L1180.09 410.555V435.995ZM1134.7 435.995L1112.65 448.714L1090.61 435.995V410.555L1112.66 397.835L1134.7 410.555V435.995ZM1089.32 435.995L1067.32 448.726L1045.27 436.006V410.567L1067.32 397.847L1089.38 410.567L1089.32 435.995ZM1043.92 435.995L1021.88 448.714L999.826 435.995V410.555L1021.88 397.835L1043.92 410.555V435.995ZM998.531 435.995L976.479 448.714L954.439 435.995V410.555L976.491 397.835L998.531 410.555V435.995ZM953.144 435.995L931.092 448.714L909.052 435.995V410.555L931.104 397.835L953.144 410.555V435.995ZM907.757 435.995L885.705 448.714L863.665 435.995V410.555L885.717 397.835L907.757 410.555V435.995ZM862.358 435.995L840.318 448.714L818.266 435.995V410.555L840.318 397.835L862.358 410.555V435.995ZM816.971 435.995L794.93 448.714L772.879 435.995V410.555L794.93 397.835L816.971 410.555V435.995ZM771.583 435.995L749.532 448.714L727.491 435.995V410.555L749.543 397.835L771.583 410.555V435.995ZM726.196 435.995L704.144 448.714L682.104 435.995V410.555L704.156 397.835L726.196 410.555V435.995ZM680.797 435.995L658.757 448.714L636.705 435.995V410.555L658.757 397.835L680.797 410.555V435.995ZM635.41 435.995L613.37 448.714L591.318 435.995V410.555L613.37 397.835L635.41 410.555V435.995ZM590.023 435.995L567.971 448.714L545.931 435.995V410.555L567.983 397.835L590.023 410.555V435.995ZM544.636 435.995L522.584 448.714L500.543 435.995V410.555L522.595 397.835L544.636 410.555V435.995ZM499.237 435.995L477.196 448.714L455.145 435.995V410.555L477.196 397.835L499.237 410.555V435.995ZM453.85 435.995L431.809 448.714L409.757 435.995V410.555L431.809 397.835L453.85 410.555V435.995ZM408.462 435.995L386.41 448.714L364.37 435.995V410.555L386.422 397.835L408.462 410.555V435.995ZM363.075 435.995L341.023 448.714L318.983 435.995V410.555L341.035 397.835L363.075 410.555V435.995ZM317.676 435.995L295.636 448.714L273.584 435.995V410.555L295.636 397.835L317.676 410.555V435.995ZM272.289 435.995L250.249 448.714L228.197 435.995V410.555L250.249 397.835L272.289 410.555V435.995ZM226.902 435.995L204.861 448.714L182.809 435.995V410.555L204.861 397.835L226.902 410.555V435.995ZM181.514 435.995L159.462 448.714L137.422 435.995V410.555L159.474 397.835L181.514 410.555V435.995ZM137.422 -220.805L159.474 -233.525L181.514 -220.805V-195.366L159.462 -182.646L137.422 -195.366V-220.805ZM182.809 -220.805L204.861 -233.525L226.902 -220.805V-195.366L204.861 -182.646L182.809 -195.366V-220.805ZM228.197 -220.805L250.249 -233.525L272.289 -220.805V-195.366L250.249 -182.646L228.197 -195.366V-220.805ZM273.584 -220.805L295.636 -233.525L317.676 -220.805V-195.366L295.636 -182.646L273.584 -195.366V-220.805ZM318.983 -220.805L341.035 -233.525L363.075 -220.805V-195.366L341.023 -182.646L318.983 -195.366V-220.805ZM364.37 -220.805L386.422 -233.525L408.462 -220.805V-195.366L386.41 -182.646L364.37 -195.366V-220.805ZM409.757 -220.805L431.809 -233.525L453.85 -220.805V-195.366L431.809 -182.646L409.757 -195.366V-220.805ZM455.145 -220.805L477.196 -233.525L499.237 -220.805V-195.366L477.196 -182.646L455.145 -195.366V-220.805ZM500.543 -220.805L522.595 -233.525L544.636 -220.805V-195.366L522.584 -182.646L500.543 -195.366V-220.805ZM545.931 -220.805L567.983 -233.525L590.023 -220.805V-195.366L567.971 -182.646L545.931 -195.366V-220.805ZM591.318 -220.805L613.37 -233.525L635.41 -220.805V-195.366L613.37 -182.646L591.318 -195.366V-220.805ZM636.705 -220.805L658.757 -233.525L680.797 -220.805V-195.366L658.757 -182.646L636.705 -195.366V-220.805ZM682.104 -220.805L704.156 -233.525L726.196 -220.805V-195.366L704.144 -182.646L682.104 -195.366V-220.805ZM727.491 -220.805L749.543 -233.525L771.583 -220.805V-195.366L749.532 -182.646L727.491 -195.366V-220.805ZM772.879 -220.805L794.93 -233.525L816.971 -220.805V-195.366L794.93 -182.646L772.879 -195.366V-220.805ZM818.266 -220.805L840.318 -233.525L862.358 -220.805V-195.366L840.318 -182.646L818.266 -195.366V-220.805ZM863.665 -220.805L885.717 -233.525L907.757 -220.805V-195.366L885.705 -182.646L863.665 -195.366V-220.805ZM909.052 -220.805L931.104 -233.525L953.144 -220.805V-195.366L931.092 -182.646L909.052 -195.366V-220.805ZM954.439 -220.805L976.491 -233.525L998.531 -220.805V-195.366L976.479 -182.646L954.439 -195.366V-220.805ZM999.826 -220.805L1021.88 -233.525L1043.92 -220.805V-195.366L1021.88 -182.646L999.826 -195.366V-220.805ZM1045.21 -220.805L1067.27 -233.525L1089.32 -220.805V-195.366L1067.27 -182.646L1045.21 -195.366V-220.805ZM1090.61 -220.805L1112.66 -233.525L1134.7 -220.805V-195.366L1112.65 -182.646L1090.61 -195.366V-220.805ZM1136 -220.805L1158.05 -233.525L1180.09 -220.805V-195.366L1158.04 -182.646L1136 -195.366V-220.805ZM1181.39 -220.805L1203.44 -233.525L1225.48 -220.805V-195.366L1203.44 -182.646L1181.39 -195.366V-220.805ZM1226.77 -220.805L1248.83 -233.525L1270.87 -220.805V-195.366L1248.83 -182.646L1226.77 -195.366V-220.805ZM1272.17 -220.805L1294.22 -233.525L1316.27 -220.805V-195.366L1294.21 -182.646L1272.17 -195.366V-220.805ZM1317.56 -220.805L1339.61 -233.525L1361.65 -220.805V-195.366L1339.6 -182.646L1317.56 -195.366V-220.805ZM1362.95 -220.805L1385 -233.525L1407.04 -220.805V-195.366L1385 -182.646L1362.95 -195.366V-220.805ZM1408.33 -220.805L1430.39 -233.525L1452.43 -220.805V-195.366L1430.39 -182.646L1408.33 -195.366V-220.805ZM1453.73 -220.805L1475.79 -233.525L1497.83 -220.805V-195.366L1475.77 -182.646L1453.73 -195.366V-220.805ZM1499.12 -220.805L1521.17 -233.525L1543.21 -220.805V-195.366L1521.16 -182.646L1499.12 -195.366V-220.805ZM1544.51 -220.805L1566.56 -233.525L1588.6 -220.805V-195.366L1566.56 -182.646L1544.51 -195.366V-220.805ZM1611.3 -181.143V-155.703L1589.25 -142.984L1567.21 -155.703V-181.143L1589.26 -193.863L1611.3 -181.143ZM1611.3 -102.223V-76.7834L1589.25 -64.0637L1567.21 -76.7834V-102.223L1589.26 -114.943L1611.3 -102.223ZM1611.3 -23.3144V2.12506L1589.25 14.8448L1567.21 2.12506V-23.3144L1589.26 -36.0341L1611.3 -23.3144ZM1611.3 55.6057V81.0451L1589.25 93.7648L1567.21 81.0451V55.6057L1589.26 42.886L1611.3 55.6057ZM1611.3 134.526V159.965L1589.25 172.685L1567.21 159.965V134.526L1589.26 121.806L1611.3 134.526ZM1611.3 213.434V238.874L1589.25 251.593L1567.21 238.874V213.434L1589.26 200.714L1611.3 213.434ZM1611.3 292.354V317.794L1589.25 330.513L1567.21 317.794V292.354L1589.26 279.635L1611.3 292.354ZM1611.3 371.263V396.702L1589.25 409.422L1567.21 396.702V371.263L1589.26 358.543L1611.3 371.263ZM1611.3 450.183V475.622L1589.25 488.342L1567.21 475.622V450.183L1589.26 437.463L1611.3 450.183ZM1565.91 475.622L1543.86 488.342L1521.82 475.622V450.183L1543.86 437.463L1565.91 450.183V475.622ZM1520.53 475.622L1498.47 488.342L1476.43 475.622V450.183L1498.47 437.463L1520.53 450.183V475.622ZM1475.13 475.622L1453.07 488.342L1431.03 475.622V450.183L1453.09 437.463L1475.13 450.183V475.622ZM1429.74 475.622L1407.69 488.342L1385.65 475.622V450.183L1407.7 437.463L1429.74 450.183V475.622ZM1384.35 475.622L1362.3 488.342L1340.26 475.622V450.183L1362.3 437.463L1384.35 450.183V475.622ZM1338.96 475.622L1316.91 488.342L1294.87 475.622V450.183L1316.91 437.463L1338.96 450.183V475.622ZM1293.58 475.622L1271.53 488.342L1249.47 475.622V450.183L1271.53 437.463L1293.58 450.183V475.622ZM1248.18 475.622L1226.13 488.342L1204.09 475.622V450.183L1226.14 437.463L1248.18 450.183V475.622ZM1202.79 475.622L1180.74 488.342L1158.7 475.622V450.183L1180.75 437.463L1202.79 450.183V475.622ZM1157.4 475.622L1135.35 488.342L1113.31 475.622V450.183L1135.35 437.463L1157.4 450.183V475.622ZM1112.02 475.622L1089.96 488.342L1067.92 475.622V450.183L1089.96 437.463L1112.02 450.183V475.622ZM1066.62 475.622L1044.57 488.342L1022.53 475.622V450.183L1044.58 437.463L1066.62 450.183V475.622ZM1021.23 475.622L999.179 488.342L977.139 475.622V450.183L999.19 437.463L1021.23 450.183V475.622ZM975.844 475.622L953.792 488.342L931.751 475.622V450.183L953.792 437.463L975.844 450.183V475.622ZM930.456 475.622L908.404 488.342L886.364 475.622V450.183L908.404 437.463L930.456 450.183V475.622ZM885.057 475.622L863.006 488.342L840.965 475.622V450.183L863.017 437.463L885.057 450.183V475.622ZM839.67 475.622L817.618 488.342L795.578 475.622V450.183L817.63 437.463L839.67 450.183V475.622ZM794.283 475.622L772.231 488.342L750.191 475.622V450.183L772.231 437.463L794.283 450.183V475.622ZM748.896 475.622L726.844 488.342L704.803 475.622V450.183L726.844 437.463L748.896 450.183V475.622ZM703.508 475.622L681.445 488.342L659.405 475.622V450.183L681.456 437.463L703.508 450.183V475.622ZM658.109 475.622L636.058 488.342L614.017 475.622V450.183L636.069 437.463L658.109 450.183V475.622ZM612.722 475.622L590.67 488.342L568.63 475.622V450.183L590.67 437.463L612.722 450.183V475.622ZM567.335 475.622L545.283 488.342L523.243 475.622V450.183L545.283 437.463L567.335 450.183V475.622ZM521.948 475.622L499.896 488.342L477.844 475.622V450.183L499.896 437.463L521.948 450.183V475.622ZM476.549 475.622L454.451 488.388L432.411 475.669V450.229L454.462 437.509L476.503 450.229L476.549 475.622ZM431.162 475.622L409.11 488.342L387.07 475.622V450.183L409.11 437.463L431.162 450.183V475.622ZM385.774 475.622L363.723 488.342L341.682 475.622V450.183L363.723 437.463L385.774 450.183V475.622ZM340.387 475.622L318.335 488.342L296.295 475.622V450.183L318.335 437.463L340.387 450.183V475.622ZM294.988 475.622L272.902 488.388L250.861 475.669V450.229L272.913 437.509L294.954 450.229L294.988 475.622ZM249.601 475.622L227.549 488.342L205.509 475.622V450.183L227.561 437.463L249.601 450.183V475.622ZM204.214 475.622L182.162 488.342L160.122 475.622V450.183L182.162 437.463L204.214 450.183V475.622ZM158.827 475.622L136.775 488.342L114.734 475.622V450.183L136.775 437.463L158.827 450.183V475.622ZM92.0234 435.96V410.52L114.087 397.801L136.127 410.52V435.96L114.075 448.68L92.0234 435.96ZM92.0234 357.04V331.6L114.087 318.881L136.127 331.6V357.04L114.075 369.76L92.0234 357.04ZM92.0234 278.131V252.692L114.087 239.972L136.127 252.692V278.131L114.075 290.851L92.0234 278.131ZM92.0234 199.211V173.772L114.087 161.052L136.127 173.772V199.211L114.075 211.931L92.0234 199.211ZM92.0234 120.303V94.8633L114.087 82.1436L136.127 94.8633V120.303L114.075 133.022L92.0234 120.303ZM92.0234 41.3827V15.9433L114.087 3.22357L136.127 15.9433V41.3827L114.075 54.1024L92.0234 41.3827ZM92.0234 -37.5374V-62.9768L114.087 -75.6965L136.127 -62.9768V-37.5374L114.075 -24.8176L92.0234 -37.5374ZM92.0234 -116.446V-141.885L114.087 -154.605L136.127 -141.885V-116.446L114.075 -103.726L92.0234 -116.446ZM92.0234 -195.366V-220.805L114.087 -233.525L136.127 -220.805V-195.366L114.075 -182.646L92.0234 -195.366ZM114.734 -260.04L136.775 -272.76L158.827 -260.04V-234.6L136.775 -221.881L114.734 -234.6V-260.04ZM160.122 -260.04L182.162 -272.76L204.214 -260.04V-234.6L182.162 -221.881L160.122 -234.6V-260.04ZM205.509 -260.04L227.561 -272.76L249.601 -260.04V-234.6L227.549 -221.881L205.509 -234.6V-260.04ZM250.896 -260.04L272.948 -272.76L294.988 -260.04V-234.6L272.936 -221.881L250.896 -234.6V-260.04ZM296.295 -260.04L318.335 -272.76L340.387 -260.04V-234.6L318.335 -221.881L296.295 -234.6V-260.04ZM341.682 -260.04L363.723 -272.76L385.774 -260.04V-234.6L363.723 -221.881L341.682 -234.6V-260.04ZM387.07 -260.04L409.11 -272.76L431.162 -260.04V-234.6L409.11 -221.881L387.07 -234.6V-260.04ZM432.457 -260.04L454.509 -272.76L476.549 -260.04V-234.6L454.497 -221.881L432.457 -234.6V-260.04ZM477.844 -260.04L499.896 -272.76L521.948 -260.04V-234.6L499.896 -221.881L477.844 -234.6V-260.04ZM523.243 -260.04L545.283 -272.76L567.335 -260.04V-234.6L545.283 -221.881L523.243 -234.6V-260.04ZM568.63 -260.04L590.67 -272.76L612.722 -260.04V-234.6L590.67 -221.881L568.63 -234.6V-260.04ZM614.017 -260.04L636.069 -272.76L658.109 -260.04V-234.6L636.058 -221.881L614.017 -234.6V-260.04ZM659.405 -260.04L681.456 -272.76L703.508 -260.04V-234.6L681.445 -221.881L659.405 -234.6V-260.04ZM704.803 -260.04L726.844 -272.76L748.896 -260.04V-234.6L726.844 -221.881L704.803 -234.6V-260.04ZM750.191 -260.04L772.231 -272.76L794.283 -260.04V-234.6L772.231 -221.881L750.191 -234.6V-260.04ZM795.578 -260.04L817.63 -272.76L839.67 -260.04V-234.6L817.618 -221.881L795.578 -234.6V-260.04ZM840.965 -260.04L863.017 -272.76L885.057 -260.04V-234.6L863.006 -221.881L840.965 -234.6V-260.04ZM886.364 -260.04L908.404 -272.76L930.456 -260.04V-234.6L908.404 -221.881L886.364 -234.6V-260.04ZM931.751 -260.04L953.792 -272.76L975.844 -260.04V-234.6L953.792 -221.881L931.751 -234.6V-260.04ZM977.139 -260.04L999.19 -272.76L1021.23 -260.04V-234.6L999.179 -221.881L977.139 -234.6V-260.04ZM1022.53 -260.04L1044.58 -272.76L1066.62 -260.04V-234.6L1044.57 -221.881L1022.53 -234.6V-260.04ZM1067.92 -260.04L1089.96 -272.76L1112.02 -260.04V-234.6L1089.96 -221.881L1067.92 -234.6V-260.04ZM1113.31 -260.04L1135.35 -272.76L1157.4 -260.04V-234.6L1135.35 -221.881L1113.31 -234.6V-260.04ZM1158.7 -260.04L1180.75 -272.76L1202.79 -260.04V-234.6L1180.74 -221.881L1158.7 -234.6V-260.04ZM1204.09 -260.04L1226.14 -272.76L1248.18 -260.04V-234.6L1226.13 -221.881L1204.09 -234.6V-260.04ZM1249.47 -260.04L1271.53 -272.76L1293.58 -260.04V-234.6L1271.53 -221.881L1249.47 -234.6V-260.04ZM1294.87 -260.04L1316.91 -272.76L1338.96 -260.04V-234.6L1316.91 -221.881L1294.87 -234.6V-260.04ZM1340.26 -260.04L1362.3 -272.76L1384.35 -260.04V-234.6L1362.3 -221.881L1340.26 -234.6V-260.04ZM1385.65 -260.04L1407.7 -272.76L1429.74 -260.04V-234.6L1407.69 -221.881L1385.65 -234.6V-260.04ZM1431.03 -260.04L1453.09 -272.76L1475.13 -260.04V-234.6L1453.07 -221.881L1431.03 -234.6V-260.04ZM1476.43 -260.04L1498.47 -272.76L1520.53 -260.04V-234.6L1498.47 -221.881L1476.43 -234.6V-260.04ZM1521.82 -260.04L1543.86 -272.76L1565.91 -260.04V-234.6L1543.86 -221.881L1521.82 -234.6V-260.04ZM1567.21 -260.04L1589.26 -272.76L1611.3 -260.04V-234.6L1589.25 -221.881L1567.21 -234.6V-260.04ZM1588.6 514.88L1566.56 527.6L1544.51 514.88V489.44L1566.56 476.721L1588.6 489.44V514.88ZM1543.21 514.88L1521.16 527.6L1499.12 514.88V489.44L1521.17 476.721L1543.21 489.44V514.88ZM1497.83 514.88L1475.77 527.6L1453.73 514.88V489.44L1475.79 476.721L1497.83 489.44V514.88ZM1452.43 514.88L1430.39 527.6L1408.33 514.88V489.44L1430.39 476.721L1452.43 489.44V514.88ZM1407.04 514.88L1385 527.6L1362.95 514.88V489.44L1385 476.721L1407.04 489.44V514.88ZM1361.65 514.88L1339.6 527.6L1317.56 514.88V489.44L1339.61 476.721L1361.65 489.44V514.88ZM1316.27 514.88L1294.21 527.6L1272.17 514.88V489.44L1294.22 476.721L1316.27 489.44V514.88ZM1270.87 514.88L1248.83 527.6L1226.77 514.88V489.44L1248.83 476.721L1270.87 489.44V514.88ZM1225.48 514.88L1203.44 527.6L1181.39 514.88V489.44L1203.44 476.721L1225.48 489.44V514.88ZM1180.09 514.88L1158.04 527.6L1136 514.88V489.44L1158.05 476.721L1180.09 489.44V514.88ZM1134.7 514.88L1112.65 527.6L1090.61 514.88V489.44L1112.66 476.721L1134.7 489.44V514.88ZM1089.32 514.88L1067.27 527.6L1045.21 514.88V489.44L1067.27 476.721L1089.32 489.44V514.88ZM1043.92 514.88L1021.88 527.6L999.826 514.88V489.44L1021.88 476.721L1043.92 489.44V514.88ZM998.531 514.88L976.479 527.6L954.439 514.88V489.44L976.491 476.721L998.531 489.44V514.88ZM953.144 514.88L931.092 527.6L909.052 514.88V489.44L931.104 476.721L953.144 489.44V514.88ZM907.757 514.88L885.705 527.6L863.665 514.88V489.44L885.717 476.721L907.757 489.44V514.88ZM862.358 514.88L840.318 527.6L818.266 514.88V489.44L840.318 476.721L862.358 489.44V514.88ZM816.971 514.88L794.93 527.6L772.879 514.88V489.44L794.93 476.721L816.971 489.44V514.88ZM771.583 514.88L749.532 527.6L727.491 514.88V489.44L749.543 476.721L771.583 489.44V514.88ZM726.196 514.88L704.144 527.6L682.104 514.88V489.44L704.156 476.721L726.196 489.44V514.88ZM680.797 514.88L658.757 527.6L636.705 514.88V489.44L658.757 476.721L680.797 489.44V514.88ZM635.41 514.88L613.37 527.6L591.318 514.88V489.44L613.37 476.721L635.41 489.44V514.88ZM590.023 514.88L567.971 527.6L545.931 514.88V489.44L567.983 476.721L590.023 489.44V514.88ZM544.636 514.88L522.584 527.6L500.543 514.88V489.44L522.595 476.721L544.636 489.44V514.88ZM499.237 514.88L477.196 527.6L455.145 514.88V489.44L477.196 476.721L499.237 489.44V514.88ZM453.85 514.88L431.809 527.6L409.757 514.88V489.44L431.809 476.721L453.85 489.44V514.88ZM408.462 514.88L386.41 527.6L364.37 514.88V489.44L386.422 476.721L408.462 489.44V514.88ZM363.075 514.88L341.023 527.6L318.983 514.88V489.44L341.035 476.721L363.075 489.44V514.88ZM317.676 514.88L295.636 527.6L273.584 514.88V489.44L295.636 476.721L317.676 489.44V514.88ZM272.289 514.88L250.249 527.6L228.197 514.88V489.44L250.249 476.721L272.289 489.44V514.88ZM226.902 514.88L204.861 527.6L182.809 514.88V489.44L204.861 476.721L226.902 489.44V514.88ZM181.514 514.88L159.462 527.6L137.422 514.88V489.44L159.474 476.721L181.514 489.44V514.88ZM136.127 514.88L114.075 527.6L92.0234 514.88V489.44L114.087 476.721L136.127 489.44V514.88ZM1656.74 -234.624L1634.69 -221.904L1612.65 -234.624V-260.063L1634.7 -272.783L1656.74 -260.063V-234.624ZM1656.74 -155.703L1634.69 -142.984L1612.65 -155.703V-181.143L1634.7 -193.863L1656.74 -181.143V-155.703ZM1656.74 -76.7834L1634.69 -64.0637L1612.65 -76.7834V-102.223L1634.7 -114.943L1656.74 -102.223V-76.7834ZM1656.74 2.12506L1634.69 14.8448L1612.65 2.12506V-23.3144L1634.7 -36.0341L1656.74 -23.3144V2.12506ZM1656.74 81.0451L1634.69 93.7648L1612.65 81.0451V55.6057L1634.7 42.886L1656.74 55.6057V81.0451ZM1656.74 159.954L1634.69 172.673L1612.65 159.954V134.514L1634.7 121.794L1656.74 134.514V159.954ZM1656.74 238.874L1634.69 251.593L1612.65 238.874V213.434L1634.7 200.714L1656.74 213.434V238.874ZM1656.74 317.794L1634.69 330.513L1612.65 317.794V292.354L1634.7 279.635L1656.74 292.354V317.794ZM1656.74 396.702L1634.69 409.422L1612.65 396.702V371.263L1634.7 358.543L1656.74 371.263V396.702ZM1656.74 475.622L1634.69 488.342L1612.65 475.622V450.183L1634.7 437.463L1656.74 450.183V475.622ZM46.694 489.498L68.7458 476.779L90.7861 489.498V514.938L68.7458 527.657L46.694 514.938V489.498ZM46.694 410.578L68.7458 397.859L90.7861 410.578V436.018L68.7458 448.737L46.694 436.018V410.578ZM46.694 331.67L68.7458 318.95L90.7861 331.67V357.109L68.7458 369.829L46.694 357.109V331.67ZM46.694 252.75L68.7458 240.03L90.7861 252.75V278.189L68.7458 290.909L46.694 278.189V252.75ZM46.694 173.83L68.7458 161.11L90.7861 173.83V199.269L68.7458 211.989L46.694 199.269V173.83ZM46.694 94.9212L68.7458 82.2014L90.7861 94.9212V120.361L68.7458 133.08L46.694 120.361V94.9212ZM46.694 16.0011L68.7458 3.2814L90.7861 16.0011V41.4406L68.7458 54.1602L46.694 41.4406V16.0011ZM46.694 -62.9073L68.7458 -75.6271L90.7861 -62.9073V-37.4679L68.7458 -24.7482L46.694 -37.4679V-62.9073ZM46.694 -141.827L68.7458 -154.547L90.7861 -141.827V-116.388L68.7458 -103.668L46.694 -116.388V-141.827ZM46.694 -220.747L68.7458 -233.467L90.7861 -220.747V-195.308L68.7458 -182.588L46.694 -195.308V-220.747ZM68.688 -312.399L90.7283 -299.679V-274.24L68.688 -261.52L46.6361 -274.24V-299.679L68.688 -312.399ZM114.087 -312.399L136.127 -299.679V-274.24L114.075 -261.52L92.0234 -274.24V-299.679L114.087 -312.399ZM159.474 -312.399L181.514 -299.679V-274.24L159.462 -261.52L137.422 -274.24V-299.679L159.474 -312.399ZM204.861 -312.399L226.902 -299.679V-274.24L204.861 -261.52L182.809 -274.24V-299.679L204.861 -312.399ZM250.249 -312.399L272.289 -299.679V-274.24L250.249 -261.52L228.197 -274.24V-299.679L250.249 -312.399ZM295.636 -312.399L317.676 -299.679V-274.24L295.636 -261.52L273.584 -274.24V-299.679L295.636 -312.399ZM341.035 -312.399L363.075 -299.679V-274.24L341.023 -261.52L318.983 -274.24V-299.679L341.035 -312.399ZM386.422 -312.399L408.462 -299.679V-274.24L386.41 -261.52L364.37 -274.24V-299.679L386.422 -312.399ZM431.809 -312.399L453.85 -299.679V-274.24L431.809 -261.52L409.757 -274.24V-299.679L431.809 -312.399ZM477.196 -312.399L499.237 -299.679V-274.24L477.196 -261.52L455.145 -274.24V-299.679L477.196 -312.399ZM522.595 -312.399L544.636 -299.679V-274.24L522.584 -261.52L500.543 -274.24V-299.679L522.595 -312.399ZM567.983 -312.399L590.023 -299.679V-274.24L567.971 -261.52L545.931 -274.24V-299.679L567.983 -312.399ZM613.37 -312.399L635.41 -299.679V-274.24L613.37 -261.52L591.318 -274.24V-299.679L613.37 -312.399ZM658.757 -312.399L680.797 -299.679V-274.24L658.757 -261.52L636.705 -274.24V-299.679L658.757 -312.399ZM704.156 -312.399L726.196 -299.679V-274.24L704.144 -261.52L682.104 -274.24V-299.679L704.156 -312.399ZM749.543 -312.399L771.583 -299.679V-274.24L749.532 -261.52L727.491 -274.24V-299.679L749.543 -312.399ZM794.93 -312.399L816.971 -299.679V-274.24L794.93 -261.52L772.879 -274.24V-299.679L794.93 -312.399ZM840.318 -312.399L862.358 -299.679V-274.24L840.318 -261.52L818.266 -274.24V-299.679L840.318 -312.399ZM885.717 -312.399L907.757 -299.679V-274.24L885.705 -261.52L863.665 -274.24V-299.679L885.717 -312.399ZM931.104 -312.399L953.144 -299.679V-274.24L931.092 -261.52L909.052 -274.24V-299.679L931.104 -312.399ZM976.491 -312.399L998.531 -299.679V-274.24L976.479 -261.52L954.439 -274.24V-299.679L976.491 -312.399ZM1021.88 -312.399L1043.92 -299.679V-274.24L1021.88 -261.52L999.826 -274.24V-299.679L1021.88 -312.399ZM1067.27 -312.399L1089.32 -299.679V-274.24L1067.27 -261.52L1045.21 -274.24V-299.679L1067.27 -312.399ZM1112.66 -312.399L1134.7 -299.679V-274.24L1112.65 -261.52L1090.61 -274.24V-299.679L1112.66 -312.399ZM1158.05 -312.399L1180.09 -299.679V-274.24L1158.04 -261.52L1136 -274.24V-299.679L1158.05 -312.399ZM1203.44 -312.399L1225.48 -299.679V-274.24L1203.44 -261.52L1181.39 -274.24V-299.679L1203.44 -312.399ZM1248.83 -312.399L1270.87 -299.679V-274.24L1248.83 -261.52L1226.77 -274.24V-299.679L1248.83 -312.399ZM1294.22 -312.399L1316.27 -299.679V-274.24L1294.21 -261.52L1272.17 -274.24V-299.679L1294.22 -312.399ZM1339.61 -312.399L1361.65 -299.679V-274.24L1339.6 -261.52L1317.56 -274.24V-299.679L1339.61 -312.399ZM1385 -312.399L1407.04 -299.679V-274.24L1385 -261.52L1362.95 -274.24V-299.679L1385 -312.399ZM1430.39 -312.399L1452.43 -299.679V-274.24L1430.39 -261.52L1408.33 -274.24V-299.679L1430.39 -312.399ZM1475.79 -312.399L1497.83 -299.679V-274.24L1475.77 -261.52L1453.73 -274.24V-299.679L1475.79 -312.399ZM1521.17 -312.399L1543.21 -299.679V-274.24L1521.16 -261.52L1499.12 -274.24V-299.679L1521.17 -312.399ZM1566.56 -312.399L1588.6 -299.679V-274.24L1566.56 -261.52L1544.51 -274.24V-299.679L1566.56 -312.399ZM1611.95 -312.399L1633.99 -299.679V-274.24L1611.95 -261.52L1589.9 -274.24V-299.679L1611.95 -312.399ZM1634.64 567.297L1612.59 554.577V529.138L1634.65 516.418L1656.69 529.138V554.577L1634.64 567.297ZM1589.25 567.297L1567.21 554.577V529.138L1589.26 516.418L1611.3 529.138V554.577L1589.25 567.297ZM1543.86 567.297L1521.82 554.577V529.138L1543.86 516.418L1565.91 529.138V554.577L1543.86 567.297ZM1498.47 567.297L1476.43 554.577V529.138L1498.47 516.418L1520.53 529.138V554.577L1498.47 567.297ZM1453.07 567.297L1431.03 554.577V529.138L1453.09 516.418L1475.13 529.138V554.577L1453.07 567.297ZM1407.69 567.297L1385.65 554.577V529.138L1407.7 516.418L1429.74 529.138V554.577L1407.69 567.297ZM1362.3 567.297L1340.26 554.577V529.138L1362.3 516.418L1384.35 529.138V554.577L1362.3 567.297ZM1316.91 567.297L1294.87 554.577V529.138L1316.91 516.418L1338.96 529.138V554.577L1316.91 567.297ZM1271.53 567.297L1249.47 554.577V529.138L1271.53 516.418L1293.58 529.138V554.577L1271.53 567.297ZM1226.13 567.297L1204.09 554.577V529.138L1226.14 516.418L1248.18 529.138V554.577L1226.13 567.297ZM1180.74 567.297L1158.7 554.577V529.138L1180.75 516.418L1202.79 529.138V554.577L1180.74 567.297ZM1135.35 567.297L1113.31 554.577V529.138L1135.35 516.418L1157.4 529.138V554.577L1135.35 567.297ZM1089.96 567.297L1067.92 554.577V529.138L1089.96 516.418L1112.02 529.138V554.577L1089.96 567.297ZM1044.57 567.297L1022.53 554.577V529.138L1044.58 516.418L1066.62 529.138V554.577L1044.57 567.297ZM999.179 567.297L977.139 554.577V529.138L999.19 516.418L1021.23 529.138V554.577L999.179 567.297ZM953.792 567.297L931.751 554.577V529.138L953.792 516.418L975.844 529.138V554.577L953.792 567.297ZM908.404 567.297L886.364 554.577V529.138L908.404 516.418L930.456 529.138V554.577L908.404 567.297ZM863.006 567.297L840.965 554.577V529.138L863.017 516.418L885.057 529.138V554.577L863.006 567.297ZM817.618 567.297L795.578 554.577V529.138L817.63 516.418L839.67 529.138V554.577L817.618 567.297ZM772.231 567.297L750.191 554.577V529.138L772.231 516.418L794.283 529.138V554.577L772.231 567.297ZM726.844 567.297L704.803 554.577V529.138L726.844 516.418L748.896 529.138V554.577L726.844 567.297ZM681.445 567.297L659.405 554.577V529.138L681.456 516.418L703.508 529.138V554.577L681.445 567.297ZM636.058 567.297L614.017 554.577V529.138L636.069 516.418L658.109 529.138V554.577L636.058 567.297ZM590.67 567.297L568.63 554.577V529.138L590.67 516.418L612.722 529.138V554.577L590.67 567.297ZM545.283 567.297L523.243 554.577V529.138L545.283 516.418L567.335 529.138V554.577L545.283 567.297ZM499.896 567.297L477.844 554.577V529.138L499.896 516.418L521.948 529.138V554.577L499.896 567.297ZM454.497 567.297L432.457 554.577V529.138L454.509 516.418L476.549 529.138V554.577L454.497 567.297ZM409.11 567.297L387.07 554.577V529.138L409.11 516.418L431.162 529.138V554.577L409.11 567.297ZM363.723 567.297L341.682 554.577V529.138L363.723 516.418L385.774 529.138V554.577L363.723 567.297ZM318.335 567.297L296.295 554.577V529.138L318.335 516.418L340.387 529.138V554.577L318.335 567.297ZM272.936 567.297L250.896 554.577V529.138L272.948 516.418L294.988 529.138V554.577L272.936 567.297ZM227.549 567.297L205.509 554.577V529.138L227.561 516.418L249.601 529.138V554.577L227.549 567.297ZM182.162 567.297L160.122 554.577V529.138L182.162 516.418L204.214 529.138V554.577L182.162 567.297ZM136.775 567.297L114.734 554.577V529.138L136.775 516.418L158.827 529.138V554.577L136.775 567.297ZM91.3758 567.297L69.3818 554.577V529.138L91.4337 516.418L113.474 529.138V554.577L91.3758 567.297ZM1679.39 -274.24L1657.33 -261.52L1635.28 -274.24V-299.679L1657.33 -312.399L1679.39 -299.679V-274.24ZM1679.39 -195.331L1657.33 -182.611L1635.28 -195.331V-220.771L1657.33 -233.49L1679.39 -220.771V-195.331ZM1679.39 -116.411L1657.33 -103.691L1635.28 -116.411V-141.851L1657.33 -154.57L1679.39 -141.851V-116.411ZM1679.39 -37.5027L1657.33 -24.7829L1635.28 -37.5027V-62.9421L1657.33 -75.6618L1679.39 -62.9421V-37.5027ZM1679.39 41.4174L1657.33 54.1371L1635.28 41.4174V15.978L1657.33 3.25824L1679.39 15.978V41.4174ZM1679.39 120.337L1657.33 133.057L1635.28 120.337V94.898L1657.33 82.1783L1679.39 94.898V120.337ZM1679.39 199.246L1657.33 211.966L1635.28 199.246V173.807L1657.33 161.087L1679.39 173.807V199.246ZM1679.39 278.166L1657.33 290.886L1635.28 278.166V252.727L1657.33 240.007L1679.39 252.727V278.166ZM1679.39 357.075L1657.33 369.794L1635.28 357.075V331.635L1657.33 318.915L1679.39 331.635V357.075ZM1679.39 435.995L1657.33 448.714L1635.28 435.995V410.555L1657.33 397.835L1679.39 410.555V435.995ZM1679.39 514.915L1657.33 527.634L1635.28 514.915V489.475L1657.33 476.755L1679.39 489.475V514.915ZM23.9483 529.149L46.0001 516.429L68.0404 529.149V554.589L45.9886 567.308L23.9483 554.589V529.149ZM23.9483 450.229L46.0001 437.509L68.0404 450.229V475.669L45.9886 488.388L23.9483 475.669V450.229ZM23.9483 371.309L46.0001 358.589L68.0404 371.309V396.748L45.9886 409.468L23.9483 396.748V371.309ZM23.9483 292.401L46.0001 279.681L68.0404 292.401V317.84L45.9886 330.56L23.9483 317.84V292.401ZM23.9483 213.48L46.0001 200.761L68.0404 213.48V238.92L45.9886 251.64L23.9483 238.92V213.48ZM23.9483 134.572L46.0001 121.852L68.0404 134.572V160.011L45.9886 172.731L23.9483 160.011V134.572ZM23.9483 55.6519L46.0001 42.9322L68.0404 55.6519V81.0914L45.9886 93.8111L23.9483 81.0914V55.6519ZM23.9483 -23.2681L46.0001 -35.9878L68.0404 -23.2681V2.17133L45.9886 14.8911L23.9483 2.17133V-23.2681ZM23.9483 -102.177L46.0001 -114.896L68.0404 -102.177V-76.7372L45.9886 -64.0175L23.9483 -76.7372V-102.177ZM23.9483 -181.097L46.0001 -193.816L68.0404 -181.097V-155.657L45.9886 -142.938L23.9483 -155.657V-181.097ZM23.9483 -260.005L46.0001 -272.725L68.0404 -260.005V-234.566L45.9886 -221.846L23.9483 -234.566V-260.005ZM1.24887 -299.702L23.2198 -312.422L45.2832 -299.702V-274.263L23.2429 -261.543L1.19105 -274.263L1.24887 -299.702ZM68.0404 -338.925V-313.486L45.9886 -300.766L23.9483 -313.486V-338.925L46.0001 -351.645L68.0404 -338.925ZM113.428 -338.925V-313.486L91.3527 -300.766L69.3818 -313.497V-338.937L91.3527 -351.656L113.428 -338.925ZM158.827 -338.925V-313.486L136.775 -300.766L114.734 -313.486V-338.925L136.775 -351.645L158.827 -338.925ZM204.214 -338.925V-313.486L182.162 -300.766L160.122 -313.486V-338.925L182.162 -351.645L204.214 -338.925ZM249.601 -338.925V-313.486L227.549 -300.766L205.509 -313.486V-338.925L227.561 -351.645L249.601 -338.925ZM294.988 -338.925V-313.486L272.902 -300.766L250.931 -313.497V-338.937L272.983 -351.656L294.988 -338.925ZM340.387 -338.925V-313.486L318.335 -300.766L296.295 -313.486V-338.925L318.335 -351.645L340.387 -338.925ZM385.774 -338.925V-313.486L363.723 -300.766L341.682 -313.486V-338.925L363.723 -351.645L385.774 -338.925ZM431.162 -338.925V-313.486L409.11 -300.766L387.07 -313.486V-338.925L409.11 -351.645L431.162 -338.925ZM476.549 -338.925V-313.486L454.451 -300.766L432.48 -313.497V-338.937L454.532 -351.656L476.549 -338.925ZM521.948 -338.925V-313.486L499.896 -300.766L477.844 -313.486V-338.925L499.896 -351.645L521.948 -338.925ZM567.335 -338.925V-313.486L545.283 -300.766L523.243 -313.486V-338.925L545.283 -351.645L567.335 -338.925ZM612.722 -338.925V-313.486L590.67 -300.766L568.63 -313.486V-338.925L590.67 -351.645L612.722 -338.925ZM658.109 -338.925V-313.486L636.058 -300.766L614.029 -313.497V-338.937L636.081 -351.656L658.109 -338.925ZM703.508 -338.925V-313.486L681.445 -300.766L659.405 -313.486V-338.925L681.456 -351.645L703.508 -338.925ZM748.896 -338.925V-313.486L726.844 -300.766L704.803 -313.486V-338.925L726.844 -351.645L748.896 -338.925ZM794.283 -338.925V-313.486L772.231 -300.766L750.191 -313.486V-338.925L772.231 -351.645L794.283 -338.925ZM839.67 -338.925V-313.486L817.618 -300.766L795.578 -313.497V-338.937L817.63 -351.656L839.67 -338.925ZM885.057 -338.925V-313.486L863.006 -300.766L840.965 -313.486V-338.925L863.017 -351.645L885.057 -338.925ZM930.456 -338.925V-313.486L908.404 -300.766L886.364 -313.486V-338.925L908.404 -351.645L930.456 -338.925ZM975.844 -338.925V-313.486L953.792 -300.766L931.751 -313.486V-338.925L953.792 -351.645L975.844 -338.925ZM1021.23 -338.925V-313.486L999.179 -300.766L977.127 -313.497V-338.937L999.179 -351.656L1021.23 -338.925ZM1066.62 -338.925V-313.486L1044.57 -300.766L1022.53 -313.486V-338.925L1044.58 -351.645L1066.62 -338.925ZM1112.02 -338.925V-313.486L1089.96 -300.766L1067.92 -313.486V-338.925L1089.96 -351.645L1112.02 -338.925ZM1157.4 -338.925V-313.486L1135.35 -300.766L1113.31 -313.486V-338.925L1135.35 -351.645L1157.4 -338.925ZM1202.79 -338.925V-313.486L1180.74 -300.766L1158.7 -313.486V-338.925L1180.75 -351.645L1202.79 -338.925ZM1248.18 -338.925V-313.486L1226.13 -300.766L1204.09 -313.486V-338.925L1226.14 -351.645L1248.18 -338.925ZM1293.58 -338.925V-313.486L1271.53 -300.766L1249.47 -313.486V-338.925L1271.53 -351.645L1293.58 -338.925ZM1338.96 -338.925V-313.486L1316.91 -300.766L1294.87 -313.486V-338.925L1316.91 -351.645L1338.96 -338.925ZM1384.35 -338.925V-313.486L1362.3 -300.766L1340.26 -313.486V-338.925L1362.3 -351.645L1384.35 -338.925ZM1429.74 -338.925V-313.486L1407.69 -300.766L1385.65 -313.486V-338.925L1407.7 -351.645L1429.74 -338.925ZM1475.13 -338.925V-313.486L1453.07 -300.766L1431.03 -313.486V-338.925L1453.09 -351.645L1475.13 -338.925ZM1520.53 -338.925V-313.486L1498.47 -300.766L1476.43 -313.486V-338.925L1498.47 -351.645L1520.53 -338.925ZM1565.91 -338.925V-313.486L1543.86 -300.766L1521.82 -313.486V-338.925L1543.86 -351.645L1565.91 -338.925ZM1611.3 -338.925V-313.486L1589.25 -300.766L1567.21 -313.486V-338.925L1589.26 -351.645L1611.3 -338.925ZM1656.69 -338.925V-313.486L1634.64 -300.766L1612.59 -313.486V-338.925L1634.65 -351.645L1656.69 -338.925ZM1702.09 -313.486L1680.12 -300.766L1658.05 -313.486V-338.925L1680.09 -351.645L1702.14 -338.925L1702.09 -313.486ZM1702.09 -234.577L1680.12 -221.858L1658.05 -234.577V-260.017L1680.09 -272.736L1702.14 -260.017L1702.09 -234.577ZM1702.09 -155.657L1680.12 -142.938L1658.05 -155.657V-181.097L1680.09 -193.816L1702.14 -181.097L1702.09 -155.657ZM1702.09 -76.7487L1680.12 -64.029L1658.05 -76.7487V-102.188L1680.09 -114.908L1702.14 -102.188L1702.09 -76.7487ZM1702.09 2.17133L1680.12 14.8911L1658.05 2.17133V-23.2681L1680.09 -35.9878L1702.14 -23.2681L1702.09 2.17133ZM1702.09 81.0914L1680.12 93.8111L1658.05 81.0914V55.6519L1680.09 42.9322L1702.14 55.6519L1702.09 81.0914ZM1702.09 160L1680.12 172.72L1658.05 160V134.56L1680.09 121.841L1702.14 134.56L1702.09 160ZM1702.09 238.92L1680.12 251.64L1658.05 238.92V213.48L1680.09 200.761L1702.14 213.48L1702.09 238.92ZM1702.09 317.828L1680.12 330.548L1658.05 317.828V292.389L1680.09 279.669L1702.14 292.389L1702.09 317.828ZM1702.09 396.748L1680.12 409.468L1658.05 396.748V371.309L1680.09 358.589L1702.14 371.309L1702.09 396.748ZM1702.09 475.669L1680.12 488.388L1658.05 475.669V450.229L1680.09 437.509L1702.14 450.229L1702.09 475.669ZM1702.09 554.577L1680.12 567.297L1658.05 554.577V529.138L1680.09 516.418L1702.14 529.138L1702.09 554.577ZM1635.28 593.8V568.361L1657.33 555.641L1679.39 568.361V593.8L1657.33 606.52L1635.28 593.8ZM1589.9 593.8V568.361L1611.95 555.641L1633.99 568.361V593.8L1611.95 606.52L1589.9 593.8ZM1544.51 593.8V568.361L1566.56 555.641L1588.6 568.361V593.8L1566.56 606.52L1544.51 593.8ZM1499.12 593.8V568.361L1521.17 555.641L1543.21 568.361V593.8L1521.16 606.52L1499.12 593.8ZM1453.73 593.8V568.361L1475.79 555.641L1497.83 568.361V593.8L1475.77 606.52L1453.73 593.8ZM1408.33 593.8V568.361L1430.39 555.641L1452.43 568.361V593.8L1430.39 606.52L1408.33 593.8ZM1362.95 593.8V568.361L1385 555.641L1407.04 568.361V593.8L1385 606.52L1362.95 593.8ZM1317.56 593.8V568.361L1339.61 555.641L1361.65 568.361V593.8L1339.6 606.52L1317.56 593.8ZM1272.17 593.8V568.361L1294.22 555.641L1316.27 568.361V593.8L1294.21 606.52L1272.17 593.8ZM1226.77 593.8V568.361L1248.83 555.641L1270.87 568.361V593.8L1248.83 606.52L1226.77 593.8ZM1181.39 593.8V568.361L1203.44 555.641L1225.48 568.361V593.8L1203.44 606.52L1181.39 593.8ZM1136 593.8V568.361L1158.05 555.641L1180.09 568.361V593.8L1158.04 606.52L1136 593.8ZM1090.61 593.8V568.361L1112.66 555.641L1134.7 568.361V593.8L1112.65 606.52L1090.61 593.8ZM1045.21 593.8V568.361L1067.27 555.641L1089.32 568.361V593.8L1067.27 606.52L1045.21 593.8ZM999.826 593.8V568.361L1021.88 555.641L1043.92 568.361V593.8L1021.88 606.52L999.826 593.8ZM954.439 593.8V568.361L976.491 555.641L998.531 568.361V593.8L976.479 606.52L954.439 593.8ZM909.052 593.8V568.361L931.104 555.641L953.144 568.361V593.8L931.092 606.52L909.052 593.8ZM863.665 593.8V568.361L885.717 555.641L907.757 568.361V593.8L885.705 606.52L863.665 593.8ZM818.266 593.8V568.361L840.318 555.641L862.358 568.361V593.8L840.318 606.52L818.266 593.8ZM772.879 593.8V568.361L794.93 555.641L816.971 568.361V593.8L794.93 606.52L772.879 593.8ZM727.491 593.8V568.361L749.543 555.641L771.583 568.361V593.8L749.532 606.52L727.491 593.8ZM682.104 593.8V568.361L704.156 555.641L726.196 568.361V593.8L704.144 606.52L682.104 593.8ZM636.705 593.8V568.361L658.757 555.641L680.797 568.361V593.8L658.757 606.52L636.705 593.8ZM591.318 593.8V568.361L613.37 555.641L635.41 568.361V593.8L613.37 606.52L591.318 593.8ZM545.931 593.8V568.361L567.983 555.641L590.023 568.361V593.8L567.971 606.52L545.931 593.8ZM500.543 593.8V568.361L522.595 555.641L544.636 568.361V593.8L522.584 606.52L500.543 593.8ZM455.145 593.8V568.361L477.196 555.641L499.237 568.361V593.8L477.196 606.52L455.145 593.8ZM409.757 593.8V568.361L431.809 555.641L453.85 568.361V593.8L431.809 606.52L409.757 593.8ZM364.37 593.8V568.361L386.422 555.641L408.462 568.361V593.8L386.41 606.52L364.37 593.8ZM318.983 593.8V568.361L341.035 555.641L363.075 568.361V593.8L341.023 606.52L318.983 593.8ZM273.584 593.8V568.361L295.636 555.641L317.676 568.361V593.8L295.636 606.52L273.584 593.8ZM228.197 593.8V568.361L250.249 555.641L272.289 568.361V593.8L250.249 606.52L228.197 593.8ZM182.809 593.8V568.361L204.861 555.641L226.902 568.361V593.8L204.861 606.52L182.809 593.8ZM137.422 593.8V568.361L159.474 555.641L181.514 568.361V593.8L159.462 606.52L137.422 593.8ZM92.0234 593.8V568.361L114.087 555.641L136.127 568.361V593.8L114.075 606.52L92.0234 593.8ZM46.6361 593.8V568.361L68.688 555.641L90.7283 568.361V593.8L68.688 606.52L46.6361 593.8ZM1.24887 568.361L23.2198 555.641L45.2832 568.361V593.8L23.2429 606.52L1.19105 593.8L1.24887 568.361ZM1.24887 489.44L23.2198 476.721L45.2832 489.44V514.88L23.2429 527.6L1.19105 514.88L1.24887 489.44ZM1.24887 410.532L23.2198 397.812L45.2832 410.532V435.971L23.2429 448.691L1.19105 435.971L1.24887 410.532ZM1.24887 331.612L23.2198 318.892L45.2832 331.612V357.051L23.2429 369.771L1.19105 357.051L1.24887 331.612ZM1.24887 252.692L23.2198 239.972L45.2832 252.692V278.131L23.2429 290.851L1.19105 278.131L1.24887 252.692ZM1.24887 173.783L23.2198 161.064L45.2832 173.783V199.223L23.2429 211.943L1.19105 199.223L1.24887 173.783ZM1.24887 94.8633L23.2198 82.1436L45.2832 94.8633V120.303L23.2429 133.022L1.19105 120.303L1.24887 94.8633ZM1.24887 15.9549L23.2198 3.23514L45.2832 15.9549V41.3943L23.2429 54.114L1.19105 41.3943L1.24887 15.9549ZM1.24887 -62.9652L23.2198 -75.6849L45.2832 -62.9652V-37.5258L23.2429 -24.8061L1.19105 -37.5258L1.24887 -62.9652ZM1.24887 -141.885L23.2198 -154.605L45.2832 -141.885V-116.446L23.2429 -103.726L1.19105 -116.446L1.24887 -141.885ZM1.24887 -220.794L23.2198 -233.513L45.2832 -220.794V-195.354L23.2429 -182.635L1.19105 -195.354L1.24887 -220.794Z" fill="url(#paint0_radial_353_364)"/>
<defs>
<radialGradient id="paint0_radial_353_364" cx="0" cy="0" r="1" gradientUnits="userSpaceOnUse" gradientTransform="translate(888.191 146.297) scale(852.275 852.256)">
<stop stop-color="#06258A"/>
<stop offset="0.09" stop-color="#13339E"/>
<stop offset="0.26" stop-color="#294CC2"/>
<stop offset="0.35" stop-color="#3256CF"/>
<stop offset="0.41" stop-color="#2B4BB4"/>
<stop offset="0.56" stop-color="#1C3074"/>
<stop offset="0.69" stop-color="#101B42"/>
<stop offset="0.8" stop-color="#070D1E" stop-opacity="0.39"/>
<stop offset="0.89" stop-color="#020308" stop-opacity="0"/>
<stop offset="0.95" stop-opacity="0"/>
</radialGradient>
</defs>
</svg>
