<!-- <svg width="289" height="103" viewBox="0 0 289 103" fill="none" xmlns="http://www.w3.org/2000/svg">
<path d="M0 12C0 5.37258 5.37258 0 12 0H249C254.523 0 259 4.47715 259 10V103H0V12Z" fill="#1C2938"/>
<path d="M259.5 84.2564L259 60L247 103C247 103 254.618 103 259.5 103C271.02 103 289 103 289 103L288.5 98.5897H272C260.5 97.4872 260 91.4231 259.5 84.2564Z" fill="#1C2938"/>
</svg> -->

<svg width="33" height="43" viewBox="0 0 33 43" fill="none" xmlns="http://www.w3.org/2000/svg">
<path d="M3.49776 24.2564L2.99776 0L0.500047 41C0.500047 41 -1.3838 43 3.49776 43C15.0182 43 32.9978 43 32.9978 43L32.4978 38.5897H15.9978C4.49776 37.4872 3.99776 31.4231 3.49776 24.2564Z" fill="#1C2938"/>
</svg>
