<svg width="349" height="362" viewBox="0 0 349 362" fill="none" xmlns="http://www.w3.org/2000/svg">
<g filter="url(#filter0_d_219_95)">
<g opacity="0.4">
<path d="M128.102 353.226C196.529 353.226 252 297.755 252 229.327C252 160.9 196.529 105.429 128.102 105.429C59.6748 105.429 4.20361 160.9 4.20361 229.327C4.20361 297.755 59.6748 353.226 128.102 353.226Z" fill="#1F1935"/>
<path d="M128.102 112.036C151.345 111.935 174.096 118.737 193.47 131.58C212.844 144.422 227.97 162.727 236.93 184.175C245.891 205.623 248.282 229.248 243.802 252.056C239.321 274.864 228.171 295.829 211.763 312.293C195.356 328.758 174.43 339.981 151.637 344.541C128.845 349.1 105.212 346.791 83.7329 337.905C62.2542 329.019 43.8969 313.957 30.9871 294.628C18.0774 275.298 11.1965 252.572 11.2164 229.327C11.2697 198.306 23.5885 168.565 45.4856 146.592C67.3827 124.619 97.0809 112.197 128.102 112.036V112.036ZM128.102 105.429C103.568 105.409 79.5799 112.667 59.1727 126.285C38.7654 139.902 22.8563 159.267 13.4584 181.929C4.06057 204.592 1.59641 229.532 6.37773 253.595C11.1591 277.658 22.971 299.762 40.3188 317.11C57.6666 334.458 79.7706 346.27 103.834 351.051C127.897 355.833 152.837 353.368 175.5 343.971C198.162 334.573 217.527 318.664 231.144 298.256C244.762 277.849 252.02 253.861 252 229.327C252 196.468 238.946 164.954 215.711 141.718C192.475 118.483 160.961 105.429 128.102 105.429V105.429Z" fill="#0095FF"/>
<path d="M128.101 335.845C186.93 335.845 234.619 288.155 234.619 229.327C234.619 170.499 186.93 122.809 128.101 122.809C69.2732 122.809 21.5835 170.499 21.5835 229.327C21.5835 288.155 69.2732 335.845 128.101 335.845Z" stroke="#0095FF" stroke-width="8.48274" stroke-miterlimit="10"/>
<path d="M234.01 235.832C234.01 233.697 234.01 231.563 234.01 229.327H241.023C241.023 231.664 241.023 234.002 241.023 236.34L234.01 235.832Z" fill="#00497D"/>
<path d="M233.806 238.778V237.863L240.819 238.473L240.718 239.388L233.806 238.778Z" fill="#00497D"/>
<path d="M233.299 242.843L233.604 240.607L240.515 241.421L240.21 243.657L233.299 242.843Z" fill="#00497D"/>
<path d="M229.639 260.224L230.249 258.191L236.957 260.02L236.347 262.256L229.639 260.224Z" fill="#00497D"/>
<path d="M228.521 263.782L229.131 261.749L235.839 263.883L235.127 266.018L228.521 263.782Z" fill="#00497D"/>
<path d="M232.994 245.487L233.095 244.776L240.007 245.792L239.905 246.504L232.994 245.487Z" fill="#00497D"/>
<path d="M223.135 276.488L223.643 275.675L229.843 278.724L229.437 279.639L223.135 276.488Z" fill="#00497D"/>
<path d="M221.305 280.045L222.321 278.216L228.521 281.367L227.403 283.399L221.305 280.045Z" fill="#00497D"/>
<path d="M219.984 282.384L220.39 281.775L226.387 285.23L225.98 285.942L219.984 282.384Z" fill="#00497D"/>
<path d="M230.758 256.366C231.469 253.418 232.181 250.369 232.689 247.421L239.499 248.539C238.991 251.792 238.279 254.943 237.466 258.094L230.758 256.366Z" fill="#00497D"/>
<path d="M224.658 274.046C225.268 272.725 225.98 271.302 226.488 269.879L228.114 265.61L234.822 268.05L232.993 272.522C232.485 274.046 231.672 275.571 231.062 276.994L224.658 274.046Z" fill="#00497D"/>
<path d="M216.528 288.382C217.775 286.579 218.929 284.713 219.984 282.792L225.98 286.349C224.964 288.382 223.643 290.313 222.423 292.244L216.528 288.382Z" fill="#00497D"/>
<path d="M214.902 290.414L215.41 289.601L221.203 293.565L220.593 294.378L214.902 290.414Z" fill="#00497D"/>
<path d="M212.564 293.663L213.784 291.834L219.475 296.001L218.052 297.831L212.564 293.663Z" fill="#00497D"/>
<path d="M200.57 306.877L202.095 305.353L206.973 310.333L205.347 311.959L200.57 306.877Z" fill="#00497D"/>
<path d="M197.826 309.316L199.452 307.894L204.127 313.077L202.399 314.602L197.826 309.316Z" fill="#00497D"/>
<path d="M210.836 295.697L211.344 295.189L216.832 299.458L216.324 300.068L210.836 295.697Z" fill="#00497D"/>
<path d="M186.849 317.752L187.662 317.244L191.524 323.038L190.711 323.546L186.849 317.752Z" fill="#00497D"/>
<path d="M183.495 319.89L185.325 318.772L189.086 324.566L187.154 325.887L183.495 319.89Z" fill="#00497D"/>
<path d="M181.158 321.212L181.768 320.907L185.325 326.903L184.614 327.31L181.158 321.212Z" fill="#00497D"/>
<path d="M203.416 304.033L206.669 300.679L209.616 297.224L215.003 301.696L211.751 305.456L208.397 308.912L203.416 304.033Z" fill="#00497D"/>
<path d="M189.085 316.228C191.524 314.5 193.963 312.569 196.301 310.638L200.875 315.923C198.379 318.066 195.767 320.068 193.049 321.92L189.085 316.228Z" fill="#00497D"/>
<path d="M175.466 324.36L178.311 322.835L181.157 321.209L184.613 327.307L181.666 329.035L178.515 330.56L175.466 324.36Z" fill="#00497D"/>
<path d="M172.823 325.579L173.636 325.274L176.583 331.575L175.77 331.982L172.823 325.579Z" fill="#00497D"/>
<path d="M169.062 327.31L171.095 326.396L173.941 332.799L171.806 333.714L169.062 327.31Z" fill="#00497D"/>
<path d="M152.19 332.695L154.222 332.187L155.95 338.997L153.714 339.505L152.19 332.695Z" fill="#00497D"/>
<path d="M148.531 333.507H150.665L152.088 340.317H149.852L148.531 333.507Z" fill="#00497D"/>
<path d="M166.623 328.221L167.233 328.018L169.875 334.421L169.164 334.726L166.623 328.221Z" fill="#00497D"/>
<path d="M134.81 335.237L135.725 335.135L136.233 342.148L135.216 342.25L134.81 335.237Z" fill="#00497D"/>
<path d="M130.744 335.44L132.98 335.338L133.285 342.351H130.947L130.744 335.44Z" fill="#00497D"/>
<path d="M128.101 335.438H128.813L128.914 342.451H128.101V335.438Z" fill="#00497D"/>
<path d="M156.052 331.782L160.422 330.461L164.793 328.936L167.232 335.543L162.557 337.067L157.882 338.49L156.052 331.782Z" fill="#00497D"/>
<path d="M137.453 335.033L142.026 334.524H144.364H146.6L147.82 341.436H145.38H142.941L138.062 342.046L137.453 335.033Z" fill="#00497D"/>
<path d="M121.597 335.234C123.731 335.234 125.967 335.234 128.102 335.234V342.247H121.19L121.597 335.234Z" fill="#00497D"/>
<path d="M118.649 335.031L119.564 335.132L119.055 342.044L118.039 341.942L118.649 335.031Z" fill="#00497D"/>
<path d="M114.686 334.624L116.82 334.827L116.109 341.84L113.771 341.535L114.686 334.624Z" fill="#00497D"/>
<path d="M97.203 330.867L99.3374 331.477L97.4062 338.185L95.1702 337.575L97.203 330.867Z" fill="#00497D"/>
<path d="M93.7472 329.745L95.78 330.457L93.6456 337.063L91.4095 336.352L93.7472 329.745Z" fill="#00497D"/>
<path d="M112.043 334.321H112.754L111.738 341.233L110.925 341.131L112.043 334.321Z" fill="#00497D"/>
<path d="M80.9413 324.459L81.7544 324.866L78.7052 331.168L77.8921 330.659L80.9413 324.459Z" fill="#00497D"/>
<path d="M77.3837 322.633L79.3149 323.548L76.0625 329.748L74.0297 328.732L77.3837 322.633Z" fill="#00497D"/>
<path d="M75.0462 321.209L75.656 321.616L72.2003 327.714L71.5905 327.307L75.0462 321.209Z" fill="#00497D"/>
<path d="M101.066 331.984C104.115 332.695 107.062 333.407 110.111 333.915L108.892 340.826C105.639 340.318 102.488 339.505 99.3376 338.793L101.066 331.984Z" fill="#00497D"/>
<path d="M83.3805 325.581C84.8034 326.191 86.1248 326.903 87.5477 327.411L91.8166 329.139L89.4789 335.644L84.9051 333.916L80.433 331.883L83.3805 325.581Z" fill="#00497D"/>
<path d="M69.5569 317.854C71.3864 318.972 73.1142 320.192 75.0454 321.208L71.5896 327.307C69.5569 326.189 67.6257 324.867 65.6946 323.648L69.5569 317.854Z" fill="#00497D"/>
<path d="M67.1187 316.127L67.8302 316.737L63.8662 322.429L63.0531 321.921L67.1187 316.127Z" fill="#00497D"/>
<path d="M63.8654 313.79C64.3966 314.286 64.9754 314.728 65.5933 315.111L61.5277 320.701L59.5966 319.38L63.8654 313.79Z" fill="#00497D"/>
<path d="M50.6522 301.794L52.0751 303.42L47.0948 308.299L45.5702 306.571L50.6522 301.794Z" fill="#00497D"/>
<path d="M48.1111 299.05L49.5341 300.676L44.4521 305.453L42.9275 303.624L48.1111 299.05Z" fill="#00497D"/>
<path d="M61.7311 312.162L62.3409 312.568L57.9704 318.057L57.3606 317.549L61.7311 312.162Z" fill="#00497D"/>
<path d="M39.7766 288.38C39.7269 288.649 39.7269 288.924 39.7766 289.193L33.9832 293.157V292.344L39.7766 288.38Z" fill="#00497D"/>
<path d="M37.5406 284.722L38.7603 286.552L32.8652 290.313L31.6455 288.381L37.5406 284.722Z" fill="#00497D"/>
<path d="M36.2193 282.385L36.5242 283.096L30.5275 286.552L30.2225 285.942L36.2193 282.385Z" fill="#00497D"/>
<path d="M53.3968 304.742L56.7509 307.893L60.2066 310.942L55.7345 316.329L52.0755 313.077L48.5181 309.723L53.3968 304.742Z" fill="#00497D"/>
<path d="M41.7084 290.311C43.4363 292.852 45.3674 295.291 47.2986 297.629L41.9117 302.101C39.8789 299.56 37.8461 297.019 36.0166 294.376L41.7084 290.311Z" fill="#00497D"/>
<path d="M33.1705 276.692L34.5935 279.639L36.2197 282.384L30.223 285.941C29.6131 284.925 29.0033 283.908 28.4951 282.892L26.8689 279.843L33.1705 276.692Z" fill="#00497D"/>
<path d="M31.8492 274.047L32.2558 274.86L25.9542 277.909L25.5476 276.995L31.8492 274.047Z" fill="#00497D"/>
<path d="M30.2225 270.389L31.1372 272.321L24.734 275.166C24.3863 274.474 24.0808 273.761 23.8192 273.032L30.2225 270.389Z" fill="#00497D"/>
<path d="M24.7344 253.416L25.2426 255.55L18.4327 257.278L17.9246 254.941L24.7344 253.416Z" fill="#00497D"/>
<path d="M24.023 249.759C23.9747 250.469 23.9747 251.182 24.023 251.893L17.2131 253.418C16.9953 252.65 16.8256 251.869 16.705 251.08L24.023 249.759Z" fill="#00497D"/>
<path d="M29.2063 267.849L29.5112 268.56L23.0063 271.101L22.7014 270.39L29.2063 267.849Z" fill="#00497D"/>
<path d="M22.1935 236.037L22.2951 237.053L15.3836 237.46L15.282 236.545L22.1935 236.037Z" fill="#00497D"/>
<path d="M22.0915 232.071V234.206L15.18 234.511L15.0784 232.275L22.0915 232.071Z" fill="#00497D"/>
<path d="M21.9899 229.327V230.14H15.0784L14.9768 229.327H21.9899Z" fill="#00497D"/>
<path d="M25.7507 257.278C25.7507 258.802 26.5638 260.225 27.072 261.75L28.4949 266.019L21.99 268.458L20.3638 263.884C20.3638 262.258 19.449 260.733 19.0425 259.107L25.7507 257.278Z" fill="#00497D"/>
<path d="M22.3964 238.781C22.3964 240.306 22.3964 241.83 22.3964 243.355V245.591V247.827L15.5866 249.047L15.0784 246.607V244.27C15.0784 242.644 15.0784 241.017 15.0784 239.391L22.3964 238.781Z" fill="#00497D"/>
<path d="M22.1931 222.922C22.1931 225.056 22.1931 227.191 22.1931 229.325H15.1799C15.1799 227.089 15.1799 224.751 15.1799 222.414L22.1931 222.922Z" fill="#00497D"/>
<path d="M22.3966 219.976V220.891L15.3835 220.281L15.4852 219.366L22.3966 219.976Z" fill="#00497D"/>
<path d="M22.9052 215.911L22.6003 218.147L15.6888 217.334L15.8921 215.098L22.9052 215.911Z" fill="#00497D"/>
<path d="M26.564 198.53L25.9542 200.563L19.246 198.734L19.8558 196.498L26.564 198.53Z" fill="#00497D"/>
<path d="M27.6818 194.972L27.072 197.005L20.3638 194.871L21.1769 192.736L27.6818 194.972Z" fill="#00497D"/>
<path d="M23.2094 213.266L23.1077 213.977L16.1963 212.961L16.2979 212.25L23.2094 213.266Z" fill="#00497D"/>
<path d="M33.0684 182.268L32.5602 183.082L26.3602 180.032L26.7668 179.118L33.0684 182.268Z" fill="#00497D"/>
<path d="M34.8979 178.608L33.8815 180.54L27.6815 177.389L28.7996 175.356L34.8979 178.608Z" fill="#00497D"/>
<path d="M36.2199 176.372L35.8133 176.982L29.8167 173.526L30.2232 172.815L36.2199 176.372Z" fill="#00497D"/>
<path d="M25.4459 202.394C24.7345 205.341 24.023 208.289 23.5148 211.338L16.705 210.22C17.2132 206.967 17.9246 203.817 18.7377 200.056L25.4459 202.394Z" fill="#00497D"/>
<path d="M31.5438 184.606C30.934 186.029 30.2225 187.452 29.7143 188.875L28.0881 193.144L21.3799 190.704L23.2094 186.131C23.7176 184.708 24.5307 183.183 25.1405 181.658L31.5438 184.606Z" fill="#00497D"/>
<path d="M39.675 170.781C38.4275 172.584 37.2741 174.449 36.2193 176.371L30.2225 172.814C31.2389 170.781 32.5603 168.85 33.7799 166.919L39.675 170.781Z" fill="#00497D"/>
<path d="M41.3021 168.342L40.7939 169.155L35.0005 165.191L35.6103 164.378L41.3021 168.342Z" fill="#00497D"/>
<path d="M43.6391 165.091L42.4195 166.412L36.7277 162.347L38.1506 160.517L43.6391 165.091Z" fill="#00497D"/>
<path d="M55.6324 151.877L54.1078 153.401L49.2291 148.421L50.8554 146.795L55.6324 151.877Z" fill="#00497D"/>
<path d="M58.3768 149.44L56.7506 150.862L52.0752 145.679L53.803 144.154L58.3768 149.44Z" fill="#00497D"/>
<path d="M45.3671 163.061L44.8589 163.569L39.3704 159.3L39.8785 158.69L45.3671 163.061Z" fill="#00497D"/>
<path d="M69.3539 141.003H68.5408L64.6785 135.921H65.4916L69.3539 141.003Z" fill="#00497D"/>
<path d="M72.7078 138.87L70.8783 139.989L67.1177 134.093L69.1505 132.874L72.7078 138.87Z" fill="#00497D"/>
<path d="M75.0455 137.446L74.4357 137.852L70.8783 131.856L71.5898 131.449L75.0455 137.446Z" fill="#00497D"/>
<path d="M52.7873 154.723L49.5349 157.975L46.5873 161.533L41.2004 157.061L44.4529 153.3L47.807 149.743L52.7873 154.723Z" fill="#00497D"/>
<path d="M67.1186 142.526C64.6792 144.254 62.2399 146.185 59.9022 148.116L55.4301 142.831C57.871 140.665 60.4514 138.662 63.1547 136.834L67.1186 142.526Z" fill="#00497D"/>
<path d="M80.738 134.399L77.8921 135.923L75.0462 137.448L71.5905 131.451L74.538 129.723L77.6888 128.199L80.738 134.399Z" fill="#00497D"/>
<path d="M83.3798 133.178L82.5667 133.483L79.6191 127.181L80.4323 126.775L83.3798 133.178Z" fill="#00497D"/>
<path d="M87.1406 131.451L85.1078 132.366L82.3635 125.759L84.4979 124.844L87.1406 131.451Z" fill="#00497D"/>
<path d="M104.013 126.061L101.98 126.569L100.252 119.759L102.488 119.251L104.013 126.061Z" fill="#00497D"/>
<path d="M107.672 125.758H105.537L104.115 118.948H106.351L107.672 125.758Z" fill="#00497D"/>
<path d="M89.58 130.535L88.9702 130.738L86.3275 124.233L87.039 124.03L89.58 130.535Z" fill="#00497D"/>
<path d="M121.394 123.519H120.479L119.971 116.608L120.987 116.506L121.394 123.519Z" fill="#00497D"/>
<path d="M125.458 123.316L123.222 123.417L122.917 116.404L125.255 116.303L125.458 123.316Z" fill="#00497D"/>
<path d="M128.102 123.214L127.39 123.316L127.289 116.303H128.102V123.214Z" fill="#00497D"/>
<path d="M100.151 126.976L95.7801 128.297L91.4097 129.822L88.9703 123.215L93.6457 121.691C95.1703 121.081 96.7965 120.776 98.3211 120.268L100.151 126.976Z" fill="#00497D"/>
<path d="M118.751 123.723L114.177 124.231H111.84H109.603L108.384 117.32H110.823H113.262C114.889 117.32 116.515 117.32 118.141 116.71L118.751 123.723Z" fill="#00497D"/>
<path d="M134.606 123.519C132.472 123.519 130.235 123.519 128.101 123.519V116.303C130.439 116.303 132.675 116.303 135.013 116.303L134.606 123.519Z" fill="#00497D"/>
<path d="M137.555 123.723L136.64 123.621L137.148 116.71H138.164L137.555 123.723Z" fill="#00497D"/>
<path d="M141.517 124.13L139.383 123.825L140.095 116.913L142.432 117.218L141.517 124.13Z" fill="#00497D"/>
<path d="M159 127.894L156.866 127.284L158.797 120.576L161.033 121.186L159 127.894Z" fill="#00497D"/>
<path d="M162.456 129.011L160.423 128.299L162.557 121.693L164.793 122.404L162.456 129.011Z" fill="#00497D"/>
<path d="M144.16 124.435L143.449 124.334L144.465 117.524L145.278 117.625L144.16 124.435Z" fill="#00497D"/>
<path d="M175.263 134.297L174.449 133.89L177.499 127.588L178.312 128.097L175.263 134.297Z" fill="#00497D"/>
<path d="M178.82 136.125L176.889 135.108L180.141 128.908L182.174 130.026L178.82 136.125Z" fill="#00497D"/>
<path d="M181.157 137.446L180.547 137.141L184.003 131.042L184.613 131.449L181.157 137.446Z" fill="#00497D"/>
<path d="M155.137 126.773C152.088 125.96 149.141 125.35 146.092 124.842L147.311 117.93C150.564 118.439 153.715 119.252 156.865 119.963L155.137 126.773Z" fill="#00497D"/>
<path d="M172.823 133.177L168.656 131.245L164.387 129.619L166.725 123.013L171.299 124.842L175.771 126.773L172.823 133.177Z" fill="#00497D"/>
<path d="M186.646 140.902L181.158 137.446L184.614 131.449C186.646 132.567 188.577 133.889 190.509 135.108L186.646 140.902Z" fill="#00497D"/>
<path d="M189.085 142.528L188.374 142.019L192.338 136.328L193.151 136.836L189.085 142.528Z" fill="#00497D"/>
<path d="M192.337 144.966C191.806 144.47 191.228 144.028 190.61 143.645L194.777 138.055L196.606 139.376L192.337 144.966Z" fill="#00497D"/>
<path d="M205.55 156.86L204.127 155.336L209.108 150.457L210.632 152.083L205.55 156.86Z" fill="#00497D"/>
<path d="M208.091 159.602L206.668 157.976L211.75 153.301L213.275 155.029L208.091 159.602Z" fill="#00497D"/>
<path d="M194.472 146.595L193.863 146.188L198.233 140.7L198.843 141.208L194.472 146.595Z" fill="#00497D"/>
<path d="M216.426 170.58V169.869L221.712 166.413L222.321 167.226L216.426 170.58Z" fill="#00497D"/>
<path d="M218.662 174.038L217.443 172.208L223.338 168.448L224.557 170.379L218.662 174.038Z" fill="#00497D"/>
<path d="M219.983 176.372L219.678 175.66L225.675 172.204L225.98 172.814L219.983 176.372Z" fill="#00497D"/>
<path d="M202.807 154.014L199.453 150.863L195.997 147.814L200.469 142.427L204.128 145.68L207.685 149.034L202.807 154.014Z" fill="#00497D"/>
<path d="M214.495 168.446C212.779 165.898 210.912 163.454 208.905 161.128L214.495 156.249C216.528 158.79 218.561 161.331 220.391 163.974L214.495 168.446Z" fill="#00497D"/>
<path d="M223.033 182.064L221.61 179.116L219.984 176.575L225.98 173.018C226.59 174.034 227.2 175.051 227.708 176.067L229.334 179.116L223.033 182.064Z" fill="#00497D"/>
<path d="M224.354 184.707L223.948 183.894L230.249 180.844L230.656 181.759L224.354 184.707Z" fill="#00497D"/>
<path d="M225.98 188.369L224.658 186.743L231.062 183.897C231.409 184.555 231.714 185.234 231.976 185.93L225.98 188.369Z" fill="#00497D"/>
<path d="M231.468 205.343L230.96 203.208L237.668 201.48L238.278 203.818L231.468 205.343Z" fill="#00497D"/>
<path d="M232.281 209C232.281 208.289 232.281 207.577 232.281 206.866L239.091 205.341C239.309 206.109 239.479 206.89 239.6 207.679L232.281 209Z" fill="#00497D"/>
<path d="M226.997 190.906L226.692 190.195L233.197 187.654L233.502 188.365L226.997 190.906Z" fill="#00497D"/>
<path d="M234.01 222.722L233.908 221.706L240.82 221.198L240.921 222.214L234.01 222.722Z" fill="#00497D"/>
<path d="M234.111 226.684V224.55L241.023 224.245L241.124 226.481L234.111 226.684Z" fill="#00497D"/>
<path d="M234.213 229.329V228.617H241.227V229.329H234.213Z" fill="#00497D"/>
<path d="M230.453 201.479C230.453 199.954 229.639 198.43 229.131 197.007L227.708 192.636L234.213 190.299L235.839 194.872C235.839 196.499 236.754 198.023 237.161 199.649L230.453 201.479Z" fill="#00497D"/>
<path d="M233.806 219.974C233.806 218.45 233.806 216.925 233.806 215.401V213.164V210.928L240.718 209.709V212.046V214.486C240.718 216.112 240.718 217.738 240.718 219.364L233.806 219.974Z" fill="#00497D"/>
<path d="M128.102 325.171C181.036 325.171 223.948 282.259 223.948 229.325C223.948 176.391 181.036 133.479 128.102 133.479C75.1677 133.479 32.2561 176.391 32.2561 229.325C32.2561 282.259 75.1677 325.171 128.102 325.171Z" stroke="#0095FF" stroke-width="3.26259" stroke-miterlimit="10" stroke-linecap="square" stroke-dasharray="12.14 12.14"/>
<path style="mix-blend-mode:screen" d="M128.102 112.036C151.321 112.016 174.023 118.887 193.333 131.781C212.644 144.674 227.693 163.008 236.575 184.461C245.456 205.914 247.771 229.521 243.225 252.291C238.679 275.06 227.478 295.969 211.039 312.367C200.121 323.258 187.164 331.893 172.909 337.777C158.654 343.661 143.38 346.68 127.958 346.661C112.536 346.642 97.2689 343.586 83.0282 337.667C68.7875 331.748 55.8522 323.082 44.9606 312.163C34.0691 301.245 25.4347 288.289 19.5505 274.034C13.6663 259.778 10.6474 244.504 10.6663 229.082C10.6852 213.66 13.7414 198.393 19.6605 184.153C25.5796 169.912 34.2457 156.976 45.1639 146.085C56.0571 135.217 68.9941 126.613 83.2287 120.769C97.4634 114.925 112.714 111.957 128.102 112.036V112.036ZM128.102 105.429C103.568 105.409 79.5799 112.667 59.1727 126.285C38.7654 139.902 22.8563 159.267 13.4584 181.929C4.06057 204.592 1.59641 229.532 6.37773 253.595C11.1591 277.658 22.971 299.762 40.3188 317.11C57.6666 334.458 79.7706 346.27 103.834 351.051C127.897 355.833 152.837 353.368 175.5 343.971C198.162 334.573 217.527 318.664 231.144 298.256C244.762 277.849 252.02 253.861 252 229.327C252 196.468 238.946 164.954 215.711 141.718C192.475 118.483 160.961 105.429 128.102 105.429V105.429Z" fill="url(#paint0_linear_219_95)"/>
<path style="mix-blend-mode:screen" d="M128.102 353.226C196.529 353.226 252 297.755 252 229.327C252 160.9 196.529 105.429 128.102 105.429C59.6748 105.429 4.20361 160.9 4.20361 229.327C4.20361 297.755 59.6748 353.226 128.102 353.226Z" fill="url(#paint1_linear_219_95)"/>
<path fill-rule="evenodd" clip-rule="evenodd" d="M75.8312 190.54C74.5885 192.867 74.538 256.65 75.7761 259.913C76.6547 262.227 76.8391 262.27 85.8645 262.27H95.0586V264.628C95.0586 268.426 96.67 270.54 99.5644 270.54C102.68 270.54 104.378 268.488 104.378 265.486C104.378 261.563 103.516 262.494 110.65 262.494C118.734 262.176 120.436 261.687 121.002 259.52C121.967 255.823 119.066 254.061 111.567 253.79L104.688 253.541L104.409 249.177C104.126 244.759 104.955 243.745 106.915 246.112C109.32 249.014 116.538 251.523 122.742 251.614C128.039 251.692 129.223 252.033 131.454 254.132C132.874 255.467 136.306 257.741 139.08 259.186C143.735 261.608 149.651 262.837 154.213 262.837C159.416 262.837 164.738 261.585 169.121 259.32C176.659 255.423 180.351 252.1 180.351 249.209C180.351 244.65 174.608 243.89 171.203 248C168.668 251.06 162.583 253.365 155.882 253.803C149.956 254.191 148.694 253.951 143.272 251.41C139.958 249.856 137.246 248.252 137.246 247.847C137.246 247.441 138.592 246.033 140.236 244.719C145.126 240.81 148.48 233.601 148.971 225.943C149.338 220.204 149.07 218.634 146.884 213.755C145.505 210.675 143.597 207.449 142.645 206.587C139.853 204.055 140.609 202.707 145.667 201.203C154.907 198.454 164.02 200.096 171.13 205.792C175.601 209.373 178.068 209.575 180.08 206.523C181.293 204.685 181.144 204.252 178.171 200.954C176.398 198.988 172.552 196.169 169.624 194.689C164.706 192.205 160.187 191.476 154.213 191.476C148.971 191.47 143.996 192.048 137.868 195.354C132.374 198.317 131.274 198.611 128.846 197.763C127.326 197.232 123.259 196.999 119.81 197.247C109.926 197.955 101.955 203.66 97.6412 213.112C95.729 217.304 95.5162 219.298 95.2191 235.854L94.8926 254.001H89.4733H84.0531V222.484C84.0531 199.197 83.7661 190.68 82.9526 189.865C81.2092 188.119 76.9069 188.526 75.8312 190.54ZM124.406 206.569C124.406 206.761 123.343 209.246 122.042 212.091C118.889 218.992 118.153 228.524 120.166 236.387C120.985 239.587 121.655 242.334 121.655 242.492C121.655 243.202 115.214 241.229 112.731 239.759C109.553 237.878 105.516 232.046 104.646 228.08C102.991 220.528 107.627 211.182 114.604 208.008C117.926 206.497 124.406 205.546 124.406 206.569ZM138.049 215.21C140.563 220.188 141.154 223.97 140.055 228.057C138.908 232.329 135.753 237.208 132.95 239.047C131.078 240.277 130.842 240.164 129.32 237.303C128.151 235.105 127.694 232.179 127.698 226.895C127.703 220.69 128.093 218.79 130.206 214.701C132.423 210.415 132.918 209.97 134.517 210.827C135.51 211.36 137.099 213.332 138.049 215.21Z" fill="#3BDEFF"/>
</g>
<path d="M185.345 318.168C273.205 318.168 344.429 246.944 344.429 159.084C344.429 71.2243 273.205 0 185.345 0C97.4855 0 26.2612 71.2243 26.2612 159.084C26.2612 246.944 97.4855 318.168 185.345 318.168Z" fill="#1F1935"/>
<path d="M185.345 8.48279C215.19 8.3536 244.401 17.0872 269.278 33.5769C294.154 50.0665 313.575 73.5699 325.08 101.109C336.585 128.647 339.655 158.981 333.903 188.267C328.15 217.552 313.833 244.471 292.766 265.611C271.699 286.752 244.83 301.162 215.565 307.016C186.299 312.871 155.955 309.906 128.376 298.496C100.798 287.087 77.2271 267.748 60.6512 242.929C44.0752 218.11 35.2402 188.929 35.2658 159.084C35.3341 119.253 51.1514 81.066 79.267 52.8526C107.383 24.6392 145.515 8.68947 185.345 8.48279V8.48279ZM185.345 5.34659e-05C153.844 -0.0257562 123.044 9.29336 96.8411 26.7781C70.6384 44.2629 50.2112 69.1275 38.1445 98.2255C26.0778 127.323 22.9138 159.347 29.053 190.244C35.1921 221.14 50.3585 249.522 72.6329 271.796C94.9073 294.07 123.289 309.237 154.185 315.376C185.082 321.515 217.106 318.351 246.204 306.284C275.301 294.218 300.166 273.791 317.651 247.588C335.136 221.385 344.455 190.585 344.429 159.084C344.429 116.892 327.668 76.4287 297.834 46.5947C268 16.7606 227.537 5.34659e-05 185.345 5.34659e-05V5.34659e-05Z" fill="#0095FF"/>
<path d="M185.345 295.851C260.879 295.851 322.113 234.618 322.113 159.083C322.113 83.5485 260.879 22.3154 185.345 22.3154C109.81 22.3154 48.5769 83.5485 48.5769 159.083C48.5769 234.618 109.81 295.851 185.345 295.851Z" stroke="#0095FF" stroke-width="8.48274" stroke-miterlimit="10"/>
<path d="M321.33 167.435C321.33 164.695 321.33 161.954 321.33 159.083H330.335C330.335 162.085 330.335 165.086 330.335 168.088L321.33 167.435Z" fill="#00497D"/>
<path d="M321.069 171.218V170.043L330.073 170.826L329.943 172.001L321.069 171.218Z" fill="#00497D"/>
<path d="M320.417 176.438L320.809 173.567L329.683 174.611L329.291 177.482L320.417 176.438Z" fill="#00497D"/>
<path d="M315.718 198.754L316.501 196.144L325.114 198.493L324.331 201.364L315.718 198.754Z" fill="#00497D"/>
<path d="M314.282 203.323L315.065 200.713L323.678 203.453L322.765 206.194L314.282 203.323Z" fill="#00497D"/>
<path d="M320.025 179.833L320.156 178.92L329.03 180.225L328.899 181.138L320.025 179.833Z" fill="#00497D"/>
<path d="M307.367 219.638L308.019 218.594L315.98 222.509L315.458 223.683L307.367 219.638Z" fill="#00497D"/>
<path d="M305.017 224.205L306.322 221.856L314.283 225.902L312.847 228.512L305.017 224.205Z" fill="#00497D"/>
<path d="M303.32 227.208L303.842 226.425L311.542 230.862L311.02 231.776L303.32 227.208Z" fill="#00497D"/>
<path d="M317.154 193.801C318.068 190.016 318.982 186.101 319.634 182.317L328.378 183.752C327.725 187.928 326.812 191.974 325.768 196.02L317.154 193.801Z" fill="#00497D"/>
<path d="M309.323 216.502C310.106 214.806 311.02 212.979 311.672 211.152L313.76 205.67L322.373 208.802L320.024 214.545C319.372 216.502 318.328 218.46 317.545 220.287L309.323 216.502Z" fill="#00497D"/>
<path d="M298.884 234.909C300.485 232.594 301.966 230.199 303.321 227.731L311.02 232.299C309.715 234.909 308.019 237.388 306.453 239.868L298.884 234.909Z" fill="#00497D"/>
<path d="M296.795 237.518L297.448 236.474L304.886 241.564L304.103 242.608L296.795 237.518Z" fill="#00497D"/>
<path d="M293.794 241.691L295.36 239.342L302.668 244.692L300.841 247.041L293.794 241.691Z" fill="#00497D"/>
<path d="M278.394 258.657L280.351 256.699L286.615 263.094L284.527 265.182L278.394 258.657Z" fill="#00497D"/>
<path d="M274.87 261.789L276.958 259.962L282.961 266.618L280.742 268.575L274.87 261.789Z" fill="#00497D"/>
<path d="M291.575 244.302L292.227 243.649L299.274 249.131L298.622 249.914L291.575 244.302Z" fill="#00497D"/>
<path d="M260.776 272.62L261.82 271.968L266.779 279.406L265.735 280.059L260.776 272.62Z" fill="#00497D"/>
<path d="M256.47 275.366L258.819 273.93L263.648 281.369L261.168 283.065L256.47 275.366Z" fill="#00497D"/>
<path d="M253.469 277.062L254.251 276.67L258.819 284.37L257.906 284.892L253.469 277.062Z" fill="#00497D"/>
<path d="M282.048 255.006L286.224 250.699L290.009 246.262L296.926 252.004L292.75 256.833L288.443 261.27L282.048 255.006Z" fill="#00497D"/>
<path d="M263.647 270.664C266.779 268.445 269.911 265.966 272.912 263.486L278.785 270.272C275.581 273.023 272.226 275.594 268.736 277.972L263.647 270.664Z" fill="#00497D"/>
<path d="M246.16 281.104L249.814 279.147L253.468 277.059L257.905 284.889L254.12 287.108L250.075 289.065L246.16 281.104Z" fill="#00497D"/>
<path d="M242.766 282.669L243.81 282.278L247.595 290.369L246.551 290.891L242.766 282.669Z" fill="#00497D"/>
<path d="M237.938 284.893L240.548 283.718L244.202 291.94L241.461 293.115L237.938 284.893Z" fill="#00497D"/>
<path d="M216.274 291.807L218.884 291.154L221.102 299.898L218.231 300.551L216.274 291.807Z" fill="#00497D"/>
<path d="M211.576 292.849H214.316L216.143 301.593H213.272L211.576 292.849Z" fill="#00497D"/>
<path d="M234.806 286.063L235.589 285.802L238.982 294.023L238.068 294.415L234.806 286.063Z" fill="#00497D"/>
<path d="M193.958 295.07L195.133 294.939L195.785 303.944L194.48 304.075L193.958 295.07Z" fill="#00497D"/>
<path d="M188.738 295.331L191.609 295.201L192 304.205H188.999L188.738 295.331Z" fill="#00497D"/>
<path d="M185.344 295.328H186.258L186.389 304.333H185.344V295.328Z" fill="#00497D"/>
<path d="M221.233 290.635L226.845 288.938L232.456 286.981L235.589 295.463L229.585 297.421L223.582 299.248L221.233 290.635Z" fill="#00497D"/>
<path d="M197.351 294.808L203.224 294.156H206.226H209.097L210.663 303.03H207.531H204.399L198.134 303.813L197.351 294.808Z" fill="#00497D"/>
<path d="M176.993 295.067C179.734 295.067 182.605 295.067 185.345 295.067V304.072H176.471L176.993 295.067Z" fill="#00497D"/>
<path d="M173.208 294.806L174.382 294.936L173.73 303.811L172.425 303.68L173.208 294.806Z" fill="#00497D"/>
<path d="M168.119 294.283L170.86 294.544L169.946 303.549L166.945 303.157L168.119 294.283Z" fill="#00497D"/>
<path d="M145.671 289.459L148.412 290.242L145.932 298.856L143.061 298.073L145.671 289.459Z" fill="#00497D"/>
<path d="M141.234 288.019L143.845 288.933L141.104 297.415L138.233 296.502L141.234 288.019Z" fill="#00497D"/>
<path d="M164.726 293.895H165.639L164.334 302.769L163.29 302.639L164.726 293.895Z" fill="#00497D"/>
<path d="M124.792 281.232L125.836 281.754L121.92 289.846L120.876 289.193L124.792 281.232Z" fill="#00497D"/>
<path d="M120.224 278.888L122.703 280.062L118.527 288.023L115.917 286.718L120.224 278.888Z" fill="#00497D"/>
<path d="M117.222 277.059L118.005 277.581L113.568 285.411L112.785 284.889L117.222 277.059Z" fill="#00497D"/>
<path d="M150.631 290.893C154.546 291.807 158.331 292.72 162.246 293.373L160.68 302.247C156.504 301.595 152.458 300.551 148.412 299.637L150.631 290.893Z" fill="#00497D"/>
<path d="M127.924 282.673C129.751 283.456 131.447 284.369 133.274 285.022L138.756 287.24L135.754 295.593L129.881 293.374L124.139 290.764L127.924 282.673Z" fill="#00497D"/>
<path d="M110.174 272.751C112.523 274.187 114.742 275.753 117.221 277.058L112.784 284.888C110.174 283.453 107.695 281.756 105.215 280.19L110.174 272.751Z" fill="#00497D"/>
<path d="M107.044 270.534L107.957 271.317L102.867 278.625L101.823 277.973L107.044 270.534Z" fill="#00497D"/>
<path d="M102.866 267.532C103.549 268.169 104.292 268.738 105.085 269.229L99.8649 276.407L97.3853 274.71L102.866 267.532Z" fill="#00497D"/>
<path d="M85.9007 252.13L87.7277 254.218L81.333 260.483L79.3755 258.264L85.9007 252.13Z" fill="#00497D"/>
<path d="M82.6381 248.607L84.4652 250.695L77.94 256.829L75.9824 254.48L82.6381 248.607Z" fill="#00497D"/>
<path d="M100.126 265.442L100.909 265.964L95.2974 273.011L94.5144 272.359L100.126 265.442Z" fill="#00497D"/>
<path d="M71.9368 234.907C71.8729 235.252 71.8729 235.606 71.9368 235.951L64.498 241.04V239.996L71.9368 234.907Z" fill="#00497D"/>
<path d="M69.0658 230.21L70.6318 232.56L63.0627 237.388L61.4966 234.909L69.0658 230.21Z" fill="#00497D"/>
<path d="M67.3692 227.209L67.7607 228.123L60.061 232.56L59.6694 231.777L67.3692 227.209Z" fill="#00497D"/>
<path d="M89.425 255.916L93.7316 259.961L98.1687 263.876L92.4266 270.793L87.7284 266.617L83.1608 262.31L89.425 255.916Z" fill="#00497D"/>
<path d="M74.4172 237.385C76.6358 240.648 79.1154 243.78 81.5949 246.782L74.6782 252.524C72.0682 249.261 69.4581 245.999 67.109 242.606L74.4172 237.385Z" fill="#00497D"/>
<path d="M63.4545 219.9L65.2815 223.684L67.3696 227.208L59.6699 231.775C58.8869 230.47 58.1039 229.165 57.4513 227.86L55.3633 223.945L63.4545 219.9Z" fill="#00497D"/>
<path d="M61.7581 216.503L62.2801 217.547L54.1889 221.463L53.6669 220.288L61.7581 216.503Z" fill="#00497D"/>
<path d="M59.6692 211.807L60.8437 214.287L52.622 217.941C52.1756 217.052 51.7834 216.137 51.4475 215.2L59.6692 211.807Z" fill="#00497D"/>
<path d="M52.6228 190.014L53.2753 192.754L44.5315 194.973L43.879 191.971L52.6228 190.014Z" fill="#00497D"/>
<path d="M51.7092 185.317C51.6473 186.23 51.6473 187.145 51.7092 188.058L42.9655 190.016C42.6858 189.03 42.4679 188.027 42.313 187.014L51.7092 185.317Z" fill="#00497D"/>
<path d="M58.3644 208.544L58.7559 209.458L50.4037 212.721L50.0122 211.807L58.3644 208.544Z" fill="#00497D"/>
<path d="M49.3601 167.698L49.4906 169.003L40.6163 169.525L40.4858 168.351L49.3601 167.698Z" fill="#00497D"/>
<path d="M49.2292 162.607V165.348L40.355 165.739L40.2245 162.868L49.2292 162.607Z" fill="#00497D"/>
<path d="M49.0988 159.083V160.127H40.2245L40.094 159.083H49.0988Z" fill="#00497D"/>
<path d="M53.9276 194.972C53.9276 196.929 54.9716 198.756 55.6241 200.714L57.4512 206.195L49.0989 209.327L47.0109 203.454C47.0109 201.366 45.8363 199.409 45.3143 197.321L53.9276 194.972Z" fill="#00497D"/>
<path d="M49.6207 171.223C49.6207 173.18 49.6207 175.138 49.6207 177.095V179.966V182.837L40.877 184.404L40.2245 181.271V178.27C40.2245 176.182 40.2245 174.094 40.2245 172.006L49.6207 171.223Z" fill="#00497D"/>
<path d="M49.36 150.859C49.36 153.6 49.36 156.34 49.36 159.081H40.3552C40.3552 156.21 40.3552 153.208 40.3552 150.207L49.36 150.859Z" fill="#00497D"/>
<path d="M49.6211 147.077V148.251L40.6163 147.468L40.7468 146.294L49.6211 147.077Z" fill="#00497D"/>
<path d="M50.2741 141.858L49.8825 144.729L41.0083 143.685L41.2693 140.814L50.2741 141.858Z" fill="#00497D"/>
<path d="M54.9719 119.541L54.1889 122.151L45.5757 119.802L46.3587 116.931L54.9719 119.541Z" fill="#00497D"/>
<path d="M56.4072 114.972L55.6242 117.582L47.011 114.841L48.055 112.101L56.4072 114.972Z" fill="#00497D"/>
<path d="M50.6647 138.461L50.5341 139.375L41.6599 138.07L41.7904 137.156L50.6647 138.461Z" fill="#00497D"/>
<path d="M63.3234 98.6606L62.6709 99.7046L54.7102 95.7895L55.2322 94.615L63.3234 98.6606Z" fill="#00497D"/>
<path d="M65.6727 93.961L64.3676 96.4406L56.4069 92.395L57.8424 89.7849L65.6727 93.961Z" fill="#00497D"/>
<path d="M67.3701 91.0901L66.8481 91.8731L59.1484 87.436L59.6704 86.5225L67.3701 91.0901Z" fill="#00497D"/>
<path d="M53.5363 124.501C52.6228 128.286 51.7092 132.07 51.0567 135.985L42.313 134.55C42.9655 130.374 43.879 126.328 44.923 121.5L53.5363 124.501Z" fill="#00497D"/>
<path d="M61.366 101.662C60.583 103.489 59.6695 105.316 59.017 107.143L56.9289 112.624L48.3157 109.492L50.6647 103.62C51.3173 101.793 52.3613 99.835 53.1443 97.8774L61.366 101.662Z" fill="#00497D"/>
<path d="M71.8063 83.911C70.2046 86.2256 68.7236 88.6213 67.3692 91.0887L59.6694 86.5211C60.9745 83.911 62.671 81.4315 64.2371 78.9519L71.8063 83.911Z" fill="#00497D"/>
<path d="M73.8955 80.7791L73.243 81.8231L65.8043 76.7335L66.5874 75.6895L73.8955 80.7791Z" fill="#00497D"/>
<path d="M76.8962 76.6046L75.3302 78.3011L68.022 73.081L69.8491 70.7319L76.8962 76.6046Z" fill="#00497D"/>
<path d="M92.2952 59.6381L90.3377 61.5956L84.0735 55.201L86.1615 53.1129L92.2952 59.6381Z" fill="#00497D"/>
<path d="M95.8192 56.5087L93.7312 58.3358L87.728 51.6801L89.9466 49.7225L95.8192 56.5087Z" fill="#00497D"/>
<path d="M79.1148 73.9987L78.4622 74.6513L71.415 69.1701L72.0675 68.3871L79.1148 73.9987Z" fill="#00497D"/>
<path d="M109.914 45.6764H108.87L103.91 39.1512H104.954L109.914 45.6764Z" fill="#00497D"/>
<path d="M114.22 42.9384L111.871 44.3739L107.042 36.8047L109.652 35.2386L114.22 42.9384Z" fill="#00497D"/>
<path d="M117.222 41.1091L116.439 41.6312L111.871 33.9314L112.784 33.4094L117.222 41.1091Z" fill="#00497D"/>
<path d="M88.6423 63.2923L84.4662 67.4684L80.6816 72.036L73.7649 66.2938L77.941 61.4652L82.2476 56.8976L88.6423 63.2923Z" fill="#00497D"/>
<path d="M107.044 47.6316C103.912 49.8501 100.78 52.3297 97.778 54.8093L92.0358 48.0231C95.1699 45.2424 98.4831 42.6703 101.954 40.3234L107.044 47.6316Z" fill="#00497D"/>
<path d="M124.531 37.1966L120.877 39.1541L117.222 41.1117L112.785 33.412L116.57 31.1934L120.616 29.2358L124.531 37.1966Z" fill="#00497D"/>
<path d="M127.923 35.6288L126.879 36.0203L123.094 27.9291L124.138 27.4071L127.923 35.6288Z" fill="#00497D"/>
<path d="M132.752 33.4112L130.142 34.5857L126.618 26.103L129.358 24.9285L132.752 33.4112Z" fill="#00497D"/>
<path d="M154.415 26.4907L151.805 27.1432L149.587 18.3995L152.458 17.7469L154.415 26.4907Z" fill="#00497D"/>
<path d="M159.114 26.1017H156.373L154.546 17.3579H157.417L159.114 26.1017Z" fill="#00497D"/>
<path d="M135.884 32.2352L135.101 32.4962L131.708 24.1439L132.621 23.8829L135.884 32.2352Z" fill="#00497D"/>
<path d="M176.732 23.2275H175.558L174.905 14.3533L176.21 14.2228L176.732 23.2275Z" fill="#00497D"/>
<path d="M181.951 22.9664L179.08 23.0969L178.689 14.0922L181.69 13.9617L181.951 22.9664Z" fill="#00497D"/>
<path d="M185.345 22.8359L184.432 22.9664L184.301 13.9617H185.345V22.8359Z" fill="#00497D"/>
<path d="M149.456 27.6661L143.845 29.3626L138.233 31.3202L135.101 22.8375L141.104 20.8799C143.062 20.0969 145.15 19.7054 147.107 19.0529L149.456 27.6661Z" fill="#00497D"/>
<path d="M173.339 23.4886L167.466 24.1412H164.465H161.594L160.028 15.2669H163.16H166.292C168.38 15.2669 170.468 15.2669 172.556 14.4839L173.339 23.4886Z" fill="#00497D"/>
<path d="M193.697 23.2274C190.956 23.2274 188.085 23.2274 185.344 23.2274V13.9617C188.346 13.9617 191.217 13.9617 194.219 13.9617L193.697 23.2274Z" fill="#00497D"/>
<path d="M197.483 23.4886L196.308 23.3581L196.96 14.4839H198.266L197.483 23.4886Z" fill="#00497D"/>
<path d="M202.571 24.0112L199.83 23.6197L200.744 14.7455L203.745 15.137L202.571 24.0112Z" fill="#00497D"/>
<path d="M225.019 28.8445L222.278 28.0615L224.758 19.4482L227.629 20.2313L225.019 28.8445Z" fill="#00497D"/>
<path d="M229.455 30.2783L226.845 29.3648L229.586 20.8821L232.457 21.7956L229.455 30.2783Z" fill="#00497D"/>
<path d="M205.964 24.4035L205.051 24.273L206.356 15.5293L207.4 15.6598L205.964 24.4035Z" fill="#00497D"/>
<path d="M245.899 37.0653L244.855 36.5433L248.77 28.452L249.814 29.1045L245.899 37.0653Z" fill="#00497D"/>
<path d="M250.467 39.4127L247.987 38.1077L252.163 30.147L254.773 31.5825L250.467 39.4127Z" fill="#00497D"/>
<path d="M253.468 41.1091L252.685 40.7175L257.122 32.8873L257.905 33.4093L253.468 41.1091Z" fill="#00497D"/>
<path d="M220.059 27.4052C216.144 26.3612 212.359 25.5782 208.444 24.9256L210.01 16.0514C214.186 16.7039 218.232 17.7479 222.277 18.6615L220.059 27.4052Z" fill="#00497D"/>
<path d="M242.767 35.6274L237.416 33.1478L231.935 31.0598L234.937 22.577L240.81 24.9261L246.552 27.4057L242.767 35.6274Z" fill="#00497D"/>
<path d="M260.516 45.5463L253.469 41.1091L257.906 33.4094C260.516 34.845 262.995 36.5415 265.475 38.1076L260.516 45.5463Z" fill="#00497D"/>
<path d="M263.647 47.6341L262.734 46.9815L267.824 39.6733L268.868 40.3259L263.647 47.6341Z" fill="#00497D"/>
<path d="M267.823 50.7652C267.141 50.1283 266.398 49.5601 265.604 49.0687L270.955 41.891L273.304 43.5875L267.823 50.7652Z" fill="#00497D"/>
<path d="M284.788 66.0369L282.961 64.0794L289.356 57.8152L291.313 59.9032L284.788 66.0369Z" fill="#00497D"/>
<path d="M288.051 69.5579L286.224 67.4698L292.749 61.4667L294.706 63.6852L288.051 69.5579Z" fill="#00497D"/>
<path d="M270.564 52.8564L269.781 52.3344L275.393 45.2872L276.176 45.9397L270.564 52.8564Z" fill="#00497D"/>
<path d="M298.753 83.6531V82.7396L305.539 78.3025L306.322 79.3465L298.753 83.6531Z" fill="#00497D"/>
<path d="M301.624 88.0926L300.058 85.7436L307.627 80.9149L309.193 83.3945L301.624 88.0926Z" fill="#00497D"/>
<path d="M303.32 91.0892L302.928 90.1756L310.628 85.7385L311.02 86.5215L303.32 91.0892Z" fill="#00497D"/>
<path d="M281.265 62.3823L276.959 58.3367L272.522 54.4216L278.264 47.5049L282.962 51.681L287.53 55.9876L281.265 62.3823Z" fill="#00497D"/>
<path d="M296.274 80.9123C294.07 77.6404 291.673 74.5028 289.096 71.516L296.274 65.2518C298.884 68.5144 301.494 71.777 303.843 75.1701L296.274 80.9123Z" fill="#00497D"/>
<path d="M307.235 98.3983L305.408 94.6137L303.32 91.3511L311.02 86.7834C311.803 88.0885 312.586 89.3935 313.239 90.6986L315.327 94.6137L307.235 98.3983Z" fill="#00497D"/>
<path d="M308.932 101.792L308.41 100.748L316.501 96.8325L317.023 98.0071L308.932 101.792Z" fill="#00497D"/>
<path d="M311.02 106.494L309.323 104.406L317.545 100.751C317.99 101.596 318.382 102.468 318.719 103.362L311.02 106.494Z" fill="#00497D"/>
<path d="M318.067 128.288L317.414 125.547L326.027 123.329L326.81 126.33L318.067 128.288Z" fill="#00497D"/>
<path d="M319.111 132.984C319.111 132.071 319.111 131.157 319.111 130.244L327.854 128.286C328.134 129.272 328.352 130.275 328.507 131.288L319.111 132.984Z" fill="#00497D"/>
<path d="M312.326 109.751L311.934 108.838L320.286 105.575L320.678 106.489L312.326 109.751Z" fill="#00497D"/>
<path d="M321.33 150.603L321.199 149.298L330.074 148.646L330.204 149.951L321.33 150.603Z" fill="#00497D"/>
<path d="M321.46 155.69V152.95L330.335 152.558L330.465 155.429L321.46 155.69Z" fill="#00497D"/>
<path d="M321.591 159.085V158.172H330.596V159.085H321.591Z" fill="#00497D"/>
<path d="M316.762 123.327C316.762 121.37 315.718 119.412 315.066 117.585L313.239 111.973L321.591 108.972L323.679 114.844C323.679 116.932 324.853 118.89 325.375 120.978L316.762 123.327Z" fill="#00497D"/>
<path d="M321.069 147.074C321.069 145.117 321.069 143.159 321.069 141.202V138.331V135.46L329.943 133.894V136.895V140.027C329.943 142.115 329.943 144.203 329.943 146.291L321.069 147.074Z" fill="#00497D"/>
<path d="M185.345 282.146C253.312 282.146 308.41 227.048 308.41 159.081C308.41 91.114 253.312 36.016 185.345 36.016C117.378 36.016 62.2804 91.114 62.2804 159.081C62.2804 227.048 117.378 282.146 185.345 282.146Z" stroke="#0095FF" stroke-width="3.26259" stroke-miterlimit="10" stroke-linecap="square" stroke-dasharray="12.14 12.14"/>
<path style="mix-blend-mode:screen" d="M185.345 8.48279C215.158 8.45698 244.308 17.2802 269.102 33.8349C293.896 50.3896 313.219 73.9308 324.623 101.476C336.027 129.022 338.999 159.333 333.162 188.569C327.325 217.805 312.943 244.65 291.836 265.705C277.817 279.69 261.181 290.776 242.878 298.332C224.574 305.887 204.962 309.763 185.16 309.739C165.359 309.715 145.756 305.791 127.471 298.191C109.186 290.59 92.5776 279.463 78.593 265.444C64.6084 251.426 53.522 234.79 45.9667 216.486C38.4114 198.183 34.5352 178.57 34.5594 158.769C34.5837 138.967 38.5079 119.365 46.1079 101.08C53.708 82.795 64.8351 66.1861 78.854 52.2015C92.8407 38.247 109.452 27.1994 127.729 19.6959C146.006 12.1924 165.588 8.38145 185.345 8.48279V8.48279ZM185.345 5.34659e-05C153.844 -0.0257562 123.044 9.29336 96.8411 26.7781C70.6384 44.2629 50.2112 69.1275 38.1445 98.2255C26.0778 127.323 22.9138 159.347 29.053 190.244C35.1921 221.14 50.3585 249.522 72.6329 271.796C94.9073 294.07 123.289 309.237 154.185 315.376C185.082 321.515 217.106 318.351 246.204 306.284C275.301 294.218 300.166 273.791 317.651 247.588C335.136 221.385 344.455 190.585 344.429 159.084C344.429 116.892 327.668 76.4287 297.834 46.5947C268 16.7606 227.537 5.34659e-05 185.345 5.34659e-05V5.34659e-05Z" fill="url(#paint2_linear_219_95)"/>
<path style="mix-blend-mode:screen" d="M185.345 318.168C273.205 318.168 344.429 246.944 344.429 159.084C344.429 71.2243 273.205 0 185.345 0C97.4855 0 26.2612 71.2243 26.2612 159.084C26.2612 246.944 97.4855 318.168 185.345 318.168Z" fill="url(#paint3_linear_219_95)"/>
<path fill-rule="evenodd" clip-rule="evenodd" d="M118.23 109.281C116.635 112.269 116.57 194.165 118.16 198.356C119.288 201.326 119.525 201.382 131.113 201.382H142.918V204.409C142.918 209.285 144.987 212 148.704 212C152.704 212 154.885 209.365 154.885 205.511C154.885 200.474 153.778 201.67 162.937 201.67C173.317 201.26 175.503 200.633 176.229 197.851C177.468 193.103 173.743 190.842 164.114 190.494L155.283 190.174L154.923 184.57C154.561 178.898 155.625 177.595 158.142 180.634C161.229 184.361 170.498 187.583 178.463 187.7C185.265 187.799 186.785 188.238 189.65 190.933C191.473 192.647 195.879 195.567 199.442 197.421C205.418 200.531 213.015 202.109 218.871 202.109C225.553 202.109 232.385 200.502 238.013 197.594C247.693 192.59 252.432 188.323 252.432 184.611C252.432 178.757 245.058 177.782 240.687 183.059C237.432 186.989 229.619 189.947 221.015 190.51C213.406 191.008 211.785 190.7 204.823 187.437C200.569 185.442 197.086 183.383 197.086 182.863C197.086 182.341 198.814 180.534 200.925 178.847C207.204 173.827 211.51 164.57 212.14 154.738C212.613 147.369 212.268 145.353 209.462 139.089C207.69 135.135 205.241 130.993 204.019 129.885C200.434 126.634 201.405 124.904 207.899 122.972C219.763 119.442 231.463 121.551 240.593 128.864C246.334 133.462 249.501 133.721 252.085 129.803C253.642 127.443 253.451 126.887 249.633 122.653C247.357 120.128 242.419 116.508 238.659 114.609C232.345 111.419 226.543 110.483 218.871 110.483C212.14 110.476 205.753 111.217 197.885 115.462C190.831 119.267 189.418 119.644 186.301 118.555C184.349 117.873 179.127 117.575 174.698 117.892C162.008 118.802 151.773 126.127 146.234 138.264C143.779 143.646 143.506 146.206 143.124 167.463L142.705 190.764H135.747H128.787V150.297C128.787 120.397 128.419 109.461 127.374 108.415C125.136 106.172 119.612 106.695 118.23 109.281ZM180.6 129.862C180.6 130.109 179.234 133.299 177.565 136.953C173.516 145.813 172.572 158.052 175.155 168.149C176.207 172.257 177.068 175.784 177.068 175.987C177.068 176.898 168.798 174.365 165.609 172.477C161.528 170.062 156.345 162.574 155.228 157.482C153.103 147.786 159.056 135.785 168.015 131.71C172.28 129.77 180.6 128.548 180.6 129.862ZM198.117 140.957C201.346 147.349 202.104 152.205 200.693 157.453C199.22 162.938 195.169 169.202 191.571 171.564C189.166 173.143 188.863 172.998 186.91 169.325C185.408 166.502 184.822 162.745 184.827 155.96C184.833 147.993 185.334 145.553 188.047 140.303C190.894 134.801 191.529 134.229 193.582 135.329C194.857 136.014 196.898 138.546 198.117 140.957Z" fill="#3BDEFF"/>
</g>
<defs>
<filter id="filter0_d_219_95" x="0" y="0" width="348.429" height="361.429" filterUnits="userSpaceOnUse" color-interpolation-filters="sRGB">
<feFlood flood-opacity="0" result="BackgroundImageFix"/>
<feColorMatrix in="SourceAlpha" type="matrix" values="0 0 0 0 0 0 0 0 0 0 0 0 0 0 0 0 0 0 127 0" result="hardAlpha"/>
<feOffset dy="4"/>
<feGaussianBlur stdDeviation="2"/>
<feComposite in2="hardAlpha" operator="out"/>
<feColorMatrix type="matrix" values="0 0 0 0 0 0 0 0 0 0 0 0 0 0 0 0 0 0 0.25 0"/>
<feBlend mode="normal" in2="BackgroundImageFix" result="effect1_dropShadow_219_95"/>
<feBlend mode="normal" in="SourceGraphic" in2="effect1_dropShadow_219_95" result="shape"/>
</filter>
<linearGradient id="paint0_linear_219_95" x1="211.649" y1="141.41" x2="49.7377" y2="311.859" gradientUnits="userSpaceOnUse">
<stop offset="0.01" stop-color="#52C7FE"/>
<stop offset="0.04" stop-color="#2A7AFE"/>
<stop offset="0.08" stop-color="#0027FF"/>
<stop offset="0.09" stop-color="#0026F6"/>
<stop offset="0.1" stop-color="#001FC8"/>
<stop offset="0.12" stop-color="#00189D"/>
<stop offset="0.14" stop-color="#001277"/>
<stop offset="0.16" stop-color="#000D57"/>
<stop offset="0.18" stop-color="#00093B"/>
<stop offset="0.2" stop-color="#000625"/>
<stop offset="0.23" stop-color="#000314"/>
<stop offset="0.26" stop-color="#000109"/>
<stop offset="0.31" stop-color="#000002"/>
<stop offset="0.45"/>
<stop offset="0.87"/>
<stop offset="0.94"/>
<stop offset="0.95" stop-color="#000103"/>
<stop offset="0.96" stop-color="#02060E"/>
<stop offset="0.97" stop-color="#040D1F"/>
<stop offset="0.98" stop-color="#081837"/>
<stop offset="0.99" stop-color="#0C2556"/>
<stop offset="1" stop-color="#0F2E6B"/>
</linearGradient>
<linearGradient id="paint1_linear_219_95" x1="203.112" y1="150.354" x2="64.2724" y2="296.511" gradientUnits="userSpaceOnUse">
<stop stop-color="#003B69"/>
<stop offset="0.1" stop-color="#002E51"/>
<stop offset="0.24" stop-color="#001D34"/>
<stop offset="0.4" stop-color="#00101D"/>
<stop offset="0.57" stop-color="#00070D"/>
<stop offset="0.75" stop-color="#000203"/>
<stop offset="1"/>
</linearGradient>
<linearGradient id="paint2_linear_219_95" x1="292.619" y1="46.1983" x2="84.7266" y2="265.053" gradientUnits="userSpaceOnUse">
<stop offset="0.01" stop-color="#52C7FE"/>
<stop offset="0.04" stop-color="#2A7AFE"/>
<stop offset="0.08" stop-color="#0027FF"/>
<stop offset="0.09" stop-color="#0026F6"/>
<stop offset="0.1" stop-color="#001FC8"/>
<stop offset="0.12" stop-color="#00189D"/>
<stop offset="0.14" stop-color="#001277"/>
<stop offset="0.16" stop-color="#000D57"/>
<stop offset="0.18" stop-color="#00093B"/>
<stop offset="0.2" stop-color="#000625"/>
<stop offset="0.23" stop-color="#000314"/>
<stop offset="0.26" stop-color="#000109"/>
<stop offset="0.31" stop-color="#000002"/>
<stop offset="0.45"/>
<stop offset="0.87"/>
<stop offset="0.94"/>
<stop offset="0.95" stop-color="#000103"/>
<stop offset="0.96" stop-color="#02060E"/>
<stop offset="0.97" stop-color="#040D1F"/>
<stop offset="0.98" stop-color="#081837"/>
<stop offset="0.99" stop-color="#0C2556"/>
<stop offset="1" stop-color="#0F2E6B"/>
</linearGradient>
<linearGradient id="paint3_linear_219_95" x1="281.657" y1="57.6826" x2="103.389" y2="245.347" gradientUnits="userSpaceOnUse">
<stop stop-color="#003B69"/>
<stop offset="0.1" stop-color="#002E51"/>
<stop offset="0.24" stop-color="#001D34"/>
<stop offset="0.4" stop-color="#00101D"/>
<stop offset="0.57" stop-color="#00070D"/>
<stop offset="0.75" stop-color="#000203"/>
<stop offset="1"/>
</linearGradient>
</defs>
</svg>
